<?xml version="1.0" encoding="utf-8"?>
<!-- Generator: Adobe Illustrator 28.2.0, SVG Export Plug-In . SVG Version: 6.00 Build 0)  -->
<svg version="1.1" id="katman_1" xmlns="http://www.w3.org/2000/svg" xmlns:xlink="http://www.w3.org/1999/xlink" x="0px" y="0px"
	 viewBox="0 0 89 90" style="enable-background:new 0 0 89 90;" xml:space="preserve">
<style type="text/css">
	.st0{fill:none;}
	.st1{fill:none;stroke:#1D1E1E;stroke-width:1.0354;stroke-linecap:round;stroke-miterlimit:10;}
	.st2{fill:none;stroke:#1D1E1E;stroke-width:1.0348;stroke-linecap:round;stroke-miterlimit:10;}
	.st3{fill:#FFFFFF;stroke:#1D1E1E;stroke-width:1.0348;}
	.st4{fill:#47539F;stroke:#1D1E1E;stroke-width:1.0348;stroke-linecap:round;stroke-miterlimit:10;}
	.st5{fill:#FFFFFF;}
</style>
<rect class="st0" width="89" height="90"/>
<path class="st1" d="M28.7,67.4l7.2-7c0.6-0.6,1.5-0.8,2.4-0.7c1.2,0.1,3,0,5-0.2c3.2-0.4,6.3-3.7,9-5.9
	c4.2-3.6,12.2-12.2,15.2-15.3l3.8-3.8c0.3-0.3,0.6-0.8,0.8-1.2c0.2-0.5,0.3-0.9,0.3-1.4c0-0.5-0.1-1-0.3-1.4
	c-0.2-0.5-0.5-0.9-0.8-1.2c-0.3-0.3-0.8-0.6-1.2-0.8c-0.5-0.2-0.9-0.3-1.4-0.3c-0.5,0-1,0.1-1.4,0.3c-0.5,0.2-0.9,0.5-1.2,0.8
	 M63.5,31.7l4.3-4.3c0.3-0.3,0.6-0.8,0.8-1.2c0.2-0.5,0.3-0.9,0.3-1.4c0-0.5-0.1-1-0.3-1.4c-0.2-0.5-0.5-0.9-0.8-1.2
	c-0.3-0.3-0.8-0.6-1.2-0.8c-0.5-0.2-0.9-0.3-1.4-0.3c-0.5,0-1,0.1-1.4,0.3c-0.5,0.2-0.9,0.5-1.2,0.8 M58.9,25.6l5-5
	c0.3-0.3,0.6-0.8,0.8-1.2c0.2-0.5,0.3-0.9,0.3-1.4c0-0.5-0.1-1-0.3-1.4c-0.2-0.5-0.5-0.9-0.8-1.2c-0.3-0.3-0.8-0.6-1.2-0.8
	c-0.5-0.2-0.9-0.3-1.4-0.3c-0.5,0-1,0.1-1.4,0.3c-0.5,0.2-0.9,0.5-1.2,0.8l-5.1,5.1 M56.7,17.2c0.3-0.3,0.5-0.6,0.7-1.1
	c0.2-0.5,0.3-0.9,0.3-1.4c0-0.5-0.1-1-0.3-1.4c-0.2-0.5-0.5-0.9-0.8-1.2C55.9,11.4,54.9,11,54,11c-1,0-1.9,0.4-2.7,1.1L48,15.4
	l-0.3,0.3L12.1,51.7"/>
<path class="st2" d="M49.8,56l11.5,11.5 M66.1,40.1L77.5,52L66.1,40.1z"/>
<path class="st3" d="M18.8,28.6l9.1,8.7c0.6,0.6,1,1.4,1,2.3c0,0.6-0.2,1.3-0.5,1.8c-0.3,0.5-0.8,1-1.4,1.2
	c-0.6,0.3-1.2,0.3-1.9,0.2c-0.6-0.1-1.2-0.4-1.7-0.9l-9-8.7c-0.5-0.6-0.8-1.4-0.7-2.2c0-0.8,0.3-1.5,0.9-2.1c0.5-0.6,1.3-0.9,2-1
	C17.4,27.9,18.2,28.1,18.8,28.6z"/>
<path class="st3" d="M22.7,23.1l10.8,10.4c0.6,0.6,1,1.4,1,2.3c0,0.9-0.3,1.7-0.9,2.3c-0.6,0.6-1.4,1-2.3,1c-0.9,0-1.7-0.3-2.3-0.9
	L18.2,27.8c-0.6-0.6-1-1.4-1-2.3c0-0.6,0.2-1.3,0.5-1.8c0.3-0.5,0.8-1,1.4-1.2c0.6-0.3,1.2-0.3,1.9-0.2
	C21.6,22.3,22.2,22.6,22.7,23.1L22.7,23.1z"/>
<path class="st3" d="M26.7,17.5L38,28.4c0.3,0.3,0.6,0.6,0.7,1c0.2,0.4,0.3,0.8,0.3,1.2c0,0.4-0.1,0.9-0.2,1.2
	c-0.2,0.4-0.4,0.8-0.7,1.1c-0.3,0.3-0.6,0.6-1,0.7S36.3,34,35.8,34c-0.4,0-0.9-0.1-1.2-0.2c-0.4-0.2-0.8-0.4-1.1-0.7L22.2,22.2
	c-0.3-0.3-0.6-0.6-0.7-1c-0.2-0.4-0.3-0.8-0.3-1.2c0-0.4,0.1-0.9,0.2-1.3c0.2-0.4,0.4-0.8,0.7-1.1c0.6-0.6,1.4-1,2.3-1
	C25.3,16.6,26.1,16.9,26.7,17.5z"/>
<path class="st3" d="M27.4,13.5c0.3-0.4,0.7-0.7,1.1-0.9c0.4-0.2,0.8-0.3,1.2-0.3c0.4,0,0.9,0.1,1.3,0.2c0.4,0.2,0.8,0.4,1.1,0.7
	l10.2,9.8c0.3,0.3,0.6,0.7,0.7,1c0.2,0.4,0.3,0.8,0.3,1.2c0,0.4-0.1,0.9-0.2,1.3c-0.2,0.4-0.4,0.8-0.7,1.1c-0.6,0.6-1.4,1-2.3,1
	c-0.4,0-0.8-0.1-1.2-0.2c-0.4-0.2-0.8-0.4-1.1-0.7L27.6,18c-0.3-0.3-0.6-0.6-0.7-1c-0.2-0.4-0.3-0.8-0.3-1.2c0-0.4,0.1-0.9,0.2-1.2
	c0.2-0.4,0.4-0.8,0.7-1.1L27.4,13.5z"/>
<path class="st3" d="M37.8,12.8h7.9c1.1,0,2.1,0.4,2.8,1.2c0.7,0.7,1.2,1.8,1.2,2.8c0,1.1-0.4,2.1-1.2,2.8c-0.7,0.7-1.8,1.2-2.8,1.2
	h-7.9c-0.5,0-1-0.1-1.5-0.3c-0.5-0.2-0.9-0.5-1.3-0.9s-0.7-0.8-0.9-1.3c-0.2-0.5-0.3-1-0.3-1.5c0-1.1,0.4-2.1,1.2-2.8
	C35.7,13.2,36.7,12.8,37.8,12.8z"/>
<path class="st4" d="M9.1,46.2l-7,6.7c-0.4,0.3-0.7,0.8-0.9,1.2c-0.2,0.5-0.3,1-0.3,1.5c0,0.5,0.1,1,0.3,1.5
	c0.2,0.5,0.5,0.9,0.8,1.3l18.1,18.9c0.7,0.7,1.7,1.2,2.7,1.2c1,0,2-0.3,2.7-1l7-6.7c0.4-0.4,0.6-0.8,0.8-1.2s0.3-1,0.3-1.5
	c0-0.5-0.1-1-0.3-1.5s-0.5-0.9-0.8-1.3L14.5,46.3c-0.7-0.7-1.7-1.2-2.7-1.2C10.9,45.1,9.9,45.5,9.1,46.2z"/>
<path class="st4" d="M85.9,52.2l-6.8-6.9c-0.4-0.4-0.8-0.6-1.2-0.8c-0.5-0.2-1-0.3-1.5-0.3c-0.5,0-1,0.1-1.5,0.3
	c-0.5,0.2-0.9,0.5-1.2,0.8L55.1,63.5c-0.7,0.7-1.2,1.7-1.2,2.7s0.4,2,1.1,2.7l6.8,6.9c0.4,0.4,0.8,0.6,1.2,0.8
	c0.5,0.2,1,0.3,1.5,0.3c0.5,0,1-0.1,1.5-0.3c0.5-0.2,0.9-0.5,1.2-0.8l18.7-18.3c0.7-0.7,1.2-1.7,1.2-2.7
	C87,53.9,86.6,52.9,85.9,52.2z"/>
<path class="st5" d="M53.6,20.4l3.1-3.1c0.3-0.3,0.5-0.7,0.7-1.1c0.2-0.5,0.3-0.9,0.3-1.4c0-0.5-0.1-1-0.3-1.4
	c-0.2-0.5-0.5-0.9-0.8-1.2c-0.3-0.3-0.8-0.6-1.2-0.8C54.9,11.1,54.5,11,54,11c-1,0-1.9,0.4-2.6,1.1L48,15.4l-0.3,0.3L41.4,22"/>
<path class="st2" d="M53.6,20.4l3.1-3.1c0.3-0.3,0.5-0.7,0.7-1.1c0.2-0.5,0.3-0.9,0.3-1.4c0-0.5-0.1-1-0.3-1.4
	c-0.2-0.5-0.5-0.9-0.8-1.2c-0.3-0.3-0.8-0.6-1.2-0.8C54.9,11.1,54.5,11,54,11c-1,0-1.9,0.4-2.6,1.1L48,15.4l-0.3,0.3L41.4,22"/>
</svg>
