<?xml version="1.0" encoding="utf-8"?>
<!-- Generator: Adobe Illustrator 28.2.0, SVG Export Plug-In . SVG Version: 6.00 Build 0)  -->
<svg version="1.1" id="katman_1" xmlns="http://www.w3.org/2000/svg" xmlns:xlink="http://www.w3.org/1999/xlink" x="0px" y="0px"
	 viewBox="0 0 90 90" style="enable-background:new 0 0 90 90;" xml:space="preserve">
<style type="text/css">
	.st0{fill:#47539F;stroke:#1D1E1E;stroke-width:1.0332;stroke-miterlimit:10;}
	.st1{clip-path:url(#SVGID_00000158738494183870766590000009917992967480843662_);}
	.st2{fill:#FFFFFF;}
	.st3{fill:none;stroke:#1D1E1E;stroke-width:1.0332;stroke-linecap:round;stroke-linejoin:round;stroke-miterlimit:10;}
	.st4{fill:#47539F;stroke:#1D1E1E;stroke-width:1.0332;stroke-linecap:round;stroke-miterlimit:10;}
</style>
<path class="st0" d="M52.9,17.9c0.8,0.1,1.5,0.6,2.1,1.2s0.8,1.4,0.8,2.2v21.3c0,6-1.7,11.9-4.9,17c-3.3,5.1-8,9.2-13.6,11.8
	c-2.2,1-4.7,2.4-6.9,2.4c-2.2,0-4.7-1.4-6.9-2.4c-5.6-2.6-10.3-6.7-13.6-11.8c-3.3-5.1-5-11-4.9-17V21.2c0-0.8,0.3-1.6,0.8-2.2
	c0.5-0.6,1.3-1,2.1-1.2c6.3-1.1,13.9-3.2,20.5-7.3c0.6-0.4,1.3-0.5,1.9-0.5s1.4,0.2,1.9,0.5C39,14.7,46.5,16.8,52.9,17.9z"/>
<g>
	<defs>
		<rect id="SVGID_1_" x="18.7" y="23.2" width="52.7" height="56.8"/>
	</defs>
	<clipPath id="SVGID_00000059273367379455010940000006507365007727538847_">
		<use xlink:href="#SVGID_1_"  style="overflow:visible;"/>
	</clipPath>
	<g style="clip-path:url(#SVGID_00000059273367379455010940000006507365007727538847_);">
		<path class="st2" d="M31.3,79.3h25.3c4.5-0.1,9.6-4.9,10.8-4.9h3.4V50.2c-0.9,0-6.2,0.2-8.4-1.8c-2.2-1.9-4-5.6-6.7-7.7
			c-2.3-1.9-8.3-3.9-10.5-8.5c-1.6-3.4-1.3-8.8-5.9-8.4c-6.2,0.5-3,14.9,0,19.9c0.3,0.6,0.2,1.3-0.5,1.3c-0.8,0.1-2,0.2-3.6,0.2
			h-0.2h-8.8c-2.4,0-4.3,1.9-4.3,4.3s1.9,4.3,4.3,4.3H37h-2.8H23.5c-2.4,0-4.3,1.9-4.3,4.3c0,2.4,1.9,4.3,4.3,4.3h10.2h3.8h-0.6
			H26.6c-2.4,0-4.3,1.9-4.3,4.3c0,2.4,1.9,4.3,4.3,4.3h10.1h1.3h-8.5c-2.4,0-4.3,1.9-4.3,4.3c0,2.4,1.9,4.3,4.3,4.3h8.3"/>
		<path class="st3" d="M31.3,79.3h25.3c4.5-0.1,9.6-4.9,10.8-4.9h3.4V50.2c-0.9,0-6.2,0.2-8.4-1.8c-2.2-1.9-4-5.6-6.7-7.7
			c-2.3-1.9-8.3-3.9-10.5-8.5c-1.6-3.4-1.3-8.8-5.9-8.4c-6.2,0.5-3,14.9,0,19.9c0.3,0.6,0.2,1.3-0.5,1.3c-0.8,0.1-2,0.2-3.6,0.2
			h-0.2h-8.8c-2.4,0-4.3,1.9-4.3,4.3s1.9,4.3,4.3,4.3H37h-2.8H23.5c-2.4,0-4.3,1.9-4.3,4.3c0,2.4,1.9,4.3,4.3,4.3h10.2h3.8h-0.6
			H26.6c-2.4,0-4.3,1.9-4.3,4.3c0,2.4,1.9,4.3,4.3,4.3h10.1h1.3h-8.5c-2.4,0-4.3,1.9-4.3,4.3c0,2.4,1.9,4.3,4.3,4.3h8.3"/>
	</g>
</g>
<path class="st4" d="M80.8,46.4h-9c-2,0-3.5,1.6-3.5,3.5v24c0,2,1.6,3.5,3.5,3.5h9c2,0,3.5-1.6,3.5-3.5V50
	C84.4,48,82.8,46.4,80.8,46.4z"/>
</svg>
