<?xml version="1.0" encoding="utf-8"?>
<!-- Generator: Adobe Illustrator 28.2.0, SVG Export Plug-In . SVG Version: 6.00 Build 0)  -->
<svg version="1.1" id="katman_1" xmlns="http://www.w3.org/2000/svg" xmlns:xlink="http://www.w3.org/1999/xlink" x="0px" y="0px"
	 viewBox="0 0 302.9 302.5" style="enable-background:new 0 0 302.9 302.5;" xml:space="preserve">
<style type="text/css">
	.st0{fill-rule:evenodd;clip-rule:evenodd;fill:#FFFFFF;}
	.st1{fill:none;stroke:#070E15;stroke-width:2;stroke-linecap:round;stroke-linejoin:round;}
	.st2{fill:#0F6C32;}
	.st3{fill:#E00819;}
	.st4{font-family:'NeoSansBoldTR';}
	.st5{font-size:10.6857px;}
	.st6{font-size:15.6839px;}
	.st7{fill-rule:evenodd;clip-rule:evenodd;fill:#FAC428;}
	.st8{font-size:8.7767px;}
	.st9{fill-rule:evenodd;clip-rule:evenodd;fill:#070E15;}
	.st10{font-size:10.3px;}
	.st11{fill:#3E4D87;}
	.st12{fill:#E1241F;}
	.st13{fill:#05A5C4;}
	.st14{fill:#FFFFFF;}
	.st15{fill:#006A4D;}
	.st16{filter:url(#Adobe_OpacityMaskFilter);}
	.st17{mask:url(#h_00000036226260314477976160000006448451722126750632_);fill:none;}
	.st18{filter:url(#Adobe_OpacityMaskFilter_00000137122516575750893010000017608044215280823702_);}
	.st19{mask:url(#j_00000129897983066670440500000002812441476821248384_);fill:none;}
	.st20{fill-rule:evenodd;clip-rule:evenodd;fill:url(#SVGID_1_);}
	.st21{filter:url(#Adobe_OpacityMaskFilter_00000075865240328476643650000004525020904593764527_);}
	
		.st22{mask:url(#f_00000041253708220852025360000006740446021440579510_);fill-rule:evenodd;clip-rule:evenodd;fill:url(#SVGID_00000060752028241319271380000008161128716501234608_);}
	.st23{fill-rule:evenodd;clip-rule:evenodd;fill:url(#SVGID_00000082336737776608374680000006957149846242584460_);}
</style>
<path class="st0" d="M266.6,181.3H48.2c-1.8,0-3.3-1.5-3.3-3.3v-53.5c0-1.8,1.5-3.3,3.3-3.3h218.4c1.8,0,3.3,1.5,3.3,3.3v53.6
	C269.8,179.9,268.3,181.3,266.6,181.3"/>
<path class="st1" d="M266.6,181.3H48.2c-1.8,0-3.3-1.5-3.3-3.3v-53.5c0-1.8,1.5-3.3,3.3-3.3h218.4c1.8,0,3.3,1.5,3.3,3.3v53.6
	C269.8,179.9,268.3,181.3,266.6,181.3z"/>
<path class="st0" d="M266.6,241.4H48.2c-1.8,0-3.3-1.5-3.3-3.3v-53.5c0-1.8,1.5-3.3,3.3-3.3h218.4c1.8,0,3.3,1.5,3.3,3.3v53.6
	C269.8,240,268.3,241.4,266.6,241.4"/>
<path class="st1" d="M266.6,241.4H48.2c-1.8,0-3.3-1.5-3.3-3.3v-53.5c0-1.8,1.5-3.3,3.3-3.3h218.4c1.8,0,3.3,1.5,3.3,3.3v53.6
	C269.8,240,268.3,241.4,266.6,241.4z"/>
<path class="st0" d="M266.6,301.5H48.2c-1.8,0-3.3-1.5-3.3-3.3v-53.5c0-1.8,1.5-3.3,3.3-3.3h218.4c1.8,0,3.3,1.5,3.3,3.3v53.6
	C269.8,300.1,268.3,301.5,266.6,301.5"/>
<path class="st1" d="M266.6,301.5H48.2c-1.8,0-3.3-1.5-3.3-3.3v-53.5c0-1.8,1.5-3.3,3.3-3.3h218.4c1.8,0,3.3,1.5,3.3,3.3v53.6
	C269.8,300.1,268.3,301.5,266.6,301.5z"/>
<path class="st0" d="M266.6,61.1H48.2c-1.8,0-3.3-1.5-3.3-3.3V4.3c0-1.8,1.5-3.3,3.3-3.3h218.4c1.8,0,3.3,1.5,3.3,3.3v53.6
	C269.8,59.7,268.3,61.1,266.6,61.1"/>
<path class="st1" d="M266.6,61.1H48.2c-1.8,0-3.3-1.5-3.3-3.3V4.3c0-1.8,1.5-3.3,3.3-3.3h218.4c1.8,0,3.3,1.5,3.3,3.3v53.6
	C269.8,59.7,268.3,61.1,266.6,61.1z"/>
<path class="st0" d="M12.8,66.3v-9.2c0-2.3,1.9-4.2,4.2-4.2h280.7c2.3,0,4.2,1.9,4.2,4.2v68.2c0,2.3-1.9,4.2-4.2,4.2H17
	c-2.3,0-4.2-1.9-4.2-4.2V80.5"/>
<path class="st1" d="M12.8,66.3v-9.2c0-2.3,1.9-4.2,4.2-4.2h280.7c2.3,0,4.2,1.9,4.2,4.2v68.2c0,2.3-1.9,4.2-4.2,4.2H17
	c-2.3,0-4.2-1.9-4.2-4.2V80.5"/>
<path class="st1" d="M6,69c-1.7-1.3-3.3-2.7-5-4"/>
<line class="st1" x1="8" y1="76" x2="3" y2="80"/>
<g>
	<path class="st2" d="M53.8,163.4c0-5.5,0-11,0-16.6c0,0,0.1,0,0.1,0c1.7,0,3.5,0,5.2,0c0,0,0.1,0,0.1,0c0,1.8,0,3.7,0,5.5
		c1.8,0,3.6,0,5.5,0c0-1.8,0-3.7,0-5.5c1.8,0,3.6,0,5.4,0c0,0,0,0.1,0,0.1c0,5.4,0,10.9,0,16.3c0,0.1,0,0.1-0.1,0.1
		c-1.7,0-3.5,0-5.2,0c-0.1,0-0.1,0-0.1-0.1c0-1.8,0-3.5,0-5.3c0-0.1,0-0.1-0.1-0.1c-1.7,0-3.5,0-5.2,0c-0.1,0-0.1,0-0.1,0.1
		c0,1.8,0,3.5,0,5.3c0,0.1,0,0.1-0.1,0.1c-1.7,0-3.5,0-5.2,0C53.9,163.4,53.8,163.4,53.8,163.4z"/>
	<path class="st2" d="M72.3,163.4c0-5.5,0-11,0-16.6c0,0,0.1,0,0.1,0c2.1,0,4.3,0,6.4,0c1.4,0,2.7,0.2,4,0.6c1.2,0.4,2.3,1,3.3,1.9
		c0.9,0.9,1.5,2,1.9,3.2c0.3,0.9,0.3,1.9,0.3,2.9c0,0.8-0.1,1.6-0.4,2.4c-0.6,1.9-1.8,3.4-3.6,4.3c-0.9,0.5-1.9,0.8-3,1
		c-1,0.2-1.9,0.3-2.9,0.3c-2,0-4,0-6,0C72.4,163.4,72.4,163.4,72.3,163.4z M77.8,158.9C77.8,158.9,77.8,158.9,77.8,158.9
		c0.5,0,1,0,1.5,0c0.5,0,0.9-0.1,1.4-0.3c1-0.4,1.7-1,2-2.1c0.3-0.9,0.3-1.9,0-2.8c-0.3-0.9-0.8-1.5-1.6-1.9
		c-0.6-0.3-1.2-0.4-1.9-0.4c-0.4,0-0.8,0-1.3,0c0,0-0.1,0-0.1,0C77.8,153.9,77.8,156.4,77.8,158.9z"/>
	<path class="st2" d="M95.1,163.4c-1.8,0-3.6,0-5.4,0c0-5.5,0-11,0-16.5c1.8,0,3.6,0,5.4,0C95.1,152.4,95.1,157.9,95.1,163.4z"/>
	<rect x="59.2" y="152.4" class="st3" width="5.5" height="5.5"/>
</g>
<text transform="matrix(1 0 0 1 104.8387 159.4133)" class="st4 st5">HDI Sigorta</text>
<text transform="matrix(1 0 0 1 104.8387 274.3253)" class="st4 st5">Sompo Sigorta</text>
<text transform="matrix(1 0 0 1 113.5501 215.9586)" class="st4 st5">Neova Sigorta</text>
<text transform="matrix(1 0 0 1 97.5408 33.8613)" class="st4 st5">TÜRKİYE Sigorta</text>
<text transform="matrix(1 0 0 1 92.0132 97.1257)" class="st4 st6">Allianz Sigorta</text>
<g>
	<path class="st7" d="M245.2,89.6c-0.1,1.6-1.2,10.8-11.6,10.4c0,0,0-4.3,0-9l-3.9,1.4v-2.2l3.9-1.4c0-0.4,0-0.8,0-1.2l-3.9,1.4
		v-2.2l3.9-1.4c0-3.4,0-6,0-6h2.5v5.1l6.1-2.2v2.3l-6.1,2.2V88l6.1-2.2v2.3l-6.1,2.2v7.3c0,0,6.5-1.2,6.5-7.8c0-0.1,0.1-0.3,0.3-0.3
		c0.5,0,1.7,0,2.2,0C245.2,89.3,245.2,89.4,245.2,89.6z"/>
	<path class="st7" d="M262.4,89.6c-0.1,1.6-1.2,10.8-11.6,10.4c0,0,0-4.3,0-9l-3.9,1.4v-2.2l3.9-1.4c0-0.4,0-0.8,0-1.2l-3.9,1.4
		v-2.2l3.9-1.4c0-3.4,0-6,0-6h2.5v5.1l6.1-2.2v2.3l-6.1,2.2V88l6.1-2.2v2.3l-6.1,2.2v7.3c0,0,6.5-1.2,6.5-7.8c0-0.1,0.1-0.3,0.3-0.3
		c0.5,0,1.7,0,2.2,0C262.4,89.3,262.5,89.4,262.4,89.6z"/>
</g>
<text transform="matrix(1 0 0 1 247.4595 159.1)" class="st4 st8">yıl</text>
<g>
	<path class="st7" d="M227.5,152.5c-0.1,1.4-1,9.6-10.3,9.3c0,0,0-3.8,0-8l-3.5,1.3v-2l3.5-1.3c0-0.3,0-0.7,0-1l-3.5,1.3v-2l3.5-1.3
		c0-3,0-5.3,0-5.3h2.2v4.5l5.5-2v2.1l-5.5,2v1l5.5-2v2.1l-5.5,2v6.5c0,0,5.8-1,5.8-7c0-0.1,0.1-0.2,0.2-0.2c0.5,0,1.5,0,2,0
		C227.5,152.2,227.5,152.4,227.5,152.5z"/>
	<path class="st7" d="M242.8,152.5c-0.1,1.4-1,9.6-10.3,9.3c0,0,0-3.8,0-8L229,155v-2l3.5-1.3c0-0.3,0-0.7,0-1L229,152v-2l3.5-1.3
		c0-3,0-5.3,0-5.3h2.2v4.5l5.5-2v2.1l-5.5,2v1l5.5-2v2.1l-5.5,2v6.5c0,0,5.8-1,5.8-7c0-0.1,0.1-0.2,0.2-0.2c0.5,0,1.5,0,2,0
		C242.8,152.2,242.9,152.4,242.8,152.5z"/>
</g>
<polygon class="st9" points="245.8,152.6 246.7,152.6 244.3,159.1 243.4,159.1 "/>
<text transform="matrix(1 0 0 1 268.1483 97.9645)" class="st4 st10">yıl</text>
<g>
	<text transform="matrix(1 0 0 1 247.4595 218.3)" class="st4 st8">yıl</text>
	<g>
		<path class="st7" d="M227.5,211.7c-0.1,1.4-1,9.6-10.3,9.3c0,0,0-3.8,0-8l-3.5,1.3v-2l3.5-1.3c0-0.3,0-0.7,0-1l-3.5,1.3v-2
			l3.5-1.3c0-3,0-5.3,0-5.3h2.2v4.5l5.5-2v2.1l-5.5,2v1l5.5-2v2.1l-5.5,2v6.5c0,0,5.8-1,5.8-7c0-0.1,0.1-0.2,0.2-0.2
			c0.5,0,1.5,0,2,0C227.5,211.4,227.5,211.6,227.5,211.7z"/>
		<path class="st7" d="M242.8,211.7c-0.1,1.4-1,9.6-10.3,9.3c0,0,0-3.8,0-8l-3.5,1.3v-2l3.5-1.3c0-0.3,0-0.7,0-1l-3.5,1.3v-2
			l3.5-1.3c0-3,0-5.3,0-5.3h2.2v4.5l5.5-2v2.1l-5.5,2v1l5.5-2v2.1l-5.5,2v6.5c0,0,5.8-1,5.8-7c0-0.1,0.1-0.2,0.2-0.2
			c0.5,0,1.5,0,2,0C242.8,211.4,242.9,211.6,242.8,211.7z"/>
	</g>
	<polygon class="st9" points="245.8,211.8 246.7,211.8 244.3,218.3 243.4,218.3 	"/>
</g>
<g>
	<text transform="matrix(1 0 0 1 247.4595 279.1)" class="st4 st8">yıl</text>
	<g>
		<path class="st7" d="M227.5,272.5c-0.1,1.4-1,9.6-10.3,9.3c0,0,0-3.8,0-8l-3.5,1.3v-2l3.5-1.3c0-0.3,0-0.7,0-1l-3.5,1.3v-2
			l3.5-1.3c0-3,0-5.3,0-5.3h2.2v4.5l5.5-2v2.1l-5.5,2v1l5.5-2v2.1l-5.5,2v6.5c0,0,5.8-1,5.8-7c0-0.1,0.1-0.2,0.2-0.2
			c0.5,0,1.5,0,2,0C227.5,272.2,227.5,272.4,227.5,272.5z"/>
		<path class="st7" d="M242.8,272.5c-0.1,1.4-1,9.6-10.3,9.3c0,0,0-3.8,0-8L229,275v-2l3.5-1.3c0-0.3,0-0.7,0-1L229,272v-2l3.5-1.3
			c0-3,0-5.3,0-5.3h2.2v4.5l5.5-2v2.1l-5.5,2v1l5.5-2v2.1l-5.5,2v6.5c0,0,5.8-1,5.8-7c0-0.1,0.1-0.2,0.2-0.2c0.5,0,1.5,0,2,0
			C242.8,272.2,242.9,272.4,242.8,272.5z"/>
	</g>
	<polygon class="st9" points="245.8,272.6 246.7,272.6 244.3,279.1 243.4,279.1 	"/>
</g>
<g>
	<text transform="matrix(1 0 0 1 246.6606 32.0889)" class="st4 st8">yıl</text>
	<g>
		<path class="st7" d="M226.7,25.5c-0.1,1.4-1,9.6-10.3,9.3c0,0,0-3.8,0-8l-3.5,1.3v-2l3.5-1.3c0-0.3,0-0.7,0-1l-3.5,1.3v-2l3.5-1.3
			c0-3,0-5.3,0-5.3h2.2v4.5l5.5-2v2.1l-5.5,2v1l5.5-2v2.1l-5.5,2v6.5c0,0,5.8-1,5.8-7c0-0.1,0.1-0.2,0.2-0.2c0.5,0,1.5,0,2,0
			C226.7,25.2,226.7,25.4,226.7,25.5z"/>
		<path class="st7" d="M242,25.5c-0.1,1.4-1,9.6-10.3,9.3c0,0,0-3.8,0-8l-3.5,1.3v-2l3.5-1.3c0-0.3,0-0.7,0-1l-3.5,1.3v-2l3.5-1.3
			c0-3,0-5.3,0-5.3h2.2v4.5l5.5-2v2.1l-5.5,2v1l5.5-2v2.1l-5.5,2v6.5c0,0,5.8-1,5.8-7c0-0.1,0.1-0.2,0.2-0.2c0.5,0,1.5,0,2,0
			C242,25.2,242.1,25.4,242,25.5z"/>
	</g>
	<polygon class="st9" points="245,25.6 245.9,25.6 243.5,32.1 242.6,32.1 	"/>
</g>
<g>
	<g>
		<path class="st11" d="M26.1,93.7c0-0.3,0-0.6,0-0.9c0.2,0,0.3,0,0.4,0c1.3,0,2.6,0,4,0c0.8,0,1.1,0.2,1.3,1
			c0.8,2.7,1.5,5.4,2.3,8.1c0.3,0.9,0.5,1.8,0.8,2.7c0,0.1,0.1,0.3,0.1,0.5c-1,0-1.9,0-2.9,0c-0.1,0-0.2-0.2-0.3-0.3
			c-0.2-0.8-0.4-1.5-0.6-2.3c-0.1-0.3-0.2-0.4-0.5-0.4c-0.9,0-1.9,0-2.8,0c-0.3,0-0.4,0.1-0.5,0.4c-0.2,0.8-0.4,1.5-0.7,2.3
			c0,0.1-0.2,0.3-0.3,0.3c-0.9,0-1.7,0-2.7,0c0.5-1.5,0.9-2.8,1.4-4.2c0.6-1.9,1.3-3.8,1.9-5.8C27.3,94,27.2,93.9,26.1,93.7z
			 M28,100c0.9,0,1.7,0,2.6,0c-0.4-1.5-0.8-3-1.2-4.4c0,0-0.1,0-0.1,0C28.9,97.1,28.4,98.5,28,100z"/>
		<path class="st11" d="M63.1,97c0.6-0.4,1.1-0.8,1.7-1.1c0.8-0.4,2.4-0.4,3.1,0.4c0.4,0.5,0.5,1.1,0.5,1.6c0,2.3,0,4.6,0,6.9
			c0,0,0,0.1,0,0.2c-0.9,0-1.7,0-2.7,0c0-0.5,0-1,0-1.5c0-1.6,0-3.2,0-4.8c0-0.6-0.4-0.9-1-0.8c-0.5,0.1-0.9,0.4-1.3,0.6
			c-0.1,0.1-0.2,0.3-0.2,0.5c0,1.8,0,3.6,0,5.4c0,0.4-0.1,0.6-0.6,0.6c-0.5,0-1.1,0-1.6,0c-0.6,0-0.6,0-0.6-0.6c0-2.3,0-4.5,0-6.8
			c0-0.7-0.1-0.8-0.8-0.9c0,0,0-0.1-0.1-0.2c-0.1-0.9-0.1-0.9,0.8-0.9c0.5,0,1.1,0,1.6,0c0.8,0,1,0.2,1,1
			C63.1,96.8,63.1,96.9,63.1,97z"/>
		<path class="st11" d="M51.4,98.4c-0.2-0.5-0.4-1.1-0.6-1.6c1.2-0.7,2.4-0.9,3.8-1c0.5,0,1,0,1.5,0.1c1.1,0.2,1.8,0.9,1.8,2
			c0.1,1.1,0.1,2.1,0.1,3.2c0,0.7,0,1.4,0,2c0,0.7,0.1,0.8,0.7,1c0,0.3,0,0.6,0.1,0.9c-0.6,0-1.1,0-1.7,0c-0.2,0-0.4,0-0.5,0
			c-0.9,0-1,0-1.2-1c-0.1,0.1-0.3,0.2-0.4,0.3c-0.8,0.7-1.8,0.9-2.9,0.7c-0.7-0.1-1.3-0.6-1.5-1.3c-0.2-0.8-0.2-1.5,0-2.3
			c0.3-1.2,1.2-1.6,2.2-1.9c0.6-0.2,1.3-0.3,2-0.4c0.2-0.1,0.6,0.1,0.6-0.3c0-0.4-0.2-0.9-0.5-1c-0.4-0.1-0.8-0.1-1.3,0
			C52.9,97.9,52.2,98.2,51.4,98.4z M55.3,100.6c-0.5,0.1-1,0.3-1.4,0.4c-0.7,0.2-1,0.5-1,1.4c0,0.7,0.3,1,1.1,0.8
			c0.5-0.1,1.1-0.3,1.3-0.9C55.4,101.8,55.3,101.3,55.3,100.6z"/>
		<path class="st11" d="M70,105.1c0-0.6,0-1.1,0-1.6c0-0.2,0.1-0.4,0.2-0.5c1.2-1.7,2.4-3.3,3.5-5c0,0,0-0.1,0-0.1
			c-0.8,0-1.5,0-2.3,0c-0.1,0-0.4,0.2-0.4,0.4c0,0.4-0.2,0.4-0.5,0.4c-0.2,0-0.4,0-0.6,0c0-0.6,0-1.1,0-1.7c0-0.7,0.3-0.9,1-1
			c1.5,0,3,0,4.6,0c0.4,0,0.9,0,1.4,0c0,0.9,0.2,1.8-0.5,2.6c-1.1,1.4-2.1,2.9-3.1,4.3c0,0.1-0.1,0.2-0.2,0.3c1.3,0,2.6,0,3.9,0
			c0,0.6,0,1.1,0,1.6c0,0.3-0.3,0.2-0.4,0.2c-1.7,0-3.4,0-5.1,0C71,105.1,70.5,105.1,70,105.1z"/>
		<path class="st11" d="M43.9,105c-0.9,0-1.8,0-2.7,0c0-0.1,0-0.3,0-0.4c0-3.3,0-6.5,0-9.8c0-0.8-0.1-0.9-0.9-1.1c0-0.3,0-0.6,0-0.9
			c0.4,0,0.9,0,1.3,0c0.5,0,0.9,0,1.4,0c0.6,0,0.9,0.3,0.9,0.9c0,2.8,0,5.6,0,8.5C43.9,103.1,43.9,104,43.9,105z"/>
		<path class="st11" d="M35.3,93.7c0-0.3,0-0.6,0-0.9c1,0,2,0,2.9,0c0.4,0,0.6,0.3,0.7,0.7c0,0.1,0,0.2,0,0.3c0,3.6,0,7.2,0,10.7
			c0,0.4-0.1,0.6-0.6,0.6c-0.7,0-1.4,0-2.2,0c0-0.2,0-0.4,0-0.6c0-3.3,0-6.5,0-9.8C36.2,93.9,36.1,93.8,35.3,93.7z"/>
		<path class="st11" d="M46.2,105.1c0-0.2,0-0.4,0-0.6c0-2.3,0-4.5,0-6.8c0-0.7-0.1-0.8-0.8-0.9c0-0.3,0-0.6,0-1c1,0,2,0,2.9,0
			c0.4,0,0.6,0.4,0.6,0.8c0,1.3,0,2.5,0,3.8c0,1.4,0,2.8,0,4.2c0,0.3-0.1,0.5-0.5,0.5C47.7,105,46.9,105.1,46.2,105.1z"/>
	</g>
	<path class="st11" d="M47.4,92.6c0.1,0,0.3,0,0.5,0.1c0.7,0.2,1,0.6,1,1.3c0,0.6-0.4,1.1-1.1,1.2c-0.3,0-0.6,0-0.9,0
		c-0.7-0.1-1.1-0.6-1-1.4c0-0.6,0.5-1,1.2-1.1C47.1,92.6,47.2,92.6,47.4,92.6z"/>
</g>
<g>
	<path class="st11" d="M60.2,80.1c-0.1,3.7-1.4,6.6-4.4,8.6c-1.4,0.9-2.9,1.4-4.5,1.5c-2.6,0.2-4.9-0.4-6.9-2
		c-1.8-1.4-2.9-3.2-3.4-5.4c-0.6-2.8-0.3-5.4,1.2-7.8c1.5-2.5,3.8-4,6.7-4.4c2.4-0.4,4.7,0,6.8,1.3c2.4,1.5,3.8,3.7,4.3,6.5
		C60.1,79,60.1,79.7,60.2,80.1z M50.4,88.4c4.3,0,7.8-3,7.9-7.9c0.1-4.8-3.1-8.1-7.4-8.3c-4.8-0.3-8.3,3.1-8.5,7.8
		C42.4,84.9,45.7,88.5,50.4,88.4z"/>
	<path class="st11" d="M51.7,85.5c-0.9,0-1.7,0-2.5,0c0-0.2,0-0.4,0-0.6c0-3,0-5.9,0-8.9c0-0.7-0.1-0.8-0.8-0.9c0-0.3,0-0.6,0-1
		c0.9,0,1.8,0,2.6,0c0.4,0,0.7,0.3,0.7,0.9c0,1.7,0,3.3,0,5c0,1.6,0,3.2,0,4.9C51.7,85.1,51.7,85.3,51.7,85.5z"/>
	<path class="st11" d="M47.9,76.7c0,3,0,5.9,0,8.8c-0.8,0-1.6,0-2.5,0c0-0.2,0-0.3,0-0.5c0-2.4,0-4.7,0-7.1c0-1,0.2-1.2,1.3-1.2
		C47.1,76.7,47.5,76.7,47.9,76.7z"/>
	<path class="st11" d="M55.6,85.5c-0.9,0-1.7,0-2.5,0c0-2.9,0-5.9,0-8.8c0.6,0,1.2,0,1.7,0c0.6,0.1,0.7,0.3,0.8,0.9c0,1.5,0,3,0,4.5
		C55.6,83.2,55.6,84.4,55.6,85.5z"/>
</g>
<polygon class="st9" points="264.8,98.6 263.6,98.6 266.7,90 267.9,90 "/>
<g>
	<path class="st12" d="M85.1,25.5c0-0.3-0.3-0.4-0.5-0.6c-2.4-2-5.1-2.2-8-1.5c-1.5,0.4-2.9,1.1-4.5,1.5c-2.3,0.6-4.5,0.7-6.6-0.5
		c-0.5-0.3-0.5-0.5-0.3-1c2.4-4.6,7.5-7.2,12.7-6.4c5.1,0.8,9.2,4.9,10,10c0.3,2.2,0.2,4.4-0.8,6.5c-1.3,2.7-4,4-6.8,3.2
		c-2.9-0.8-4.7-3.4-4.5-6.6c0.2-2.7,2.6-5.1,5.3-5.4c1.2-0.1,2.4,0,3.5,0.6C84.8,25.5,84.9,25.6,85.1,25.5z M85.3,25.7
		c0.1,0,0.1,0.1,0.2,0C85.5,25.7,85.4,25.7,85.3,25.7c0-0.2,0-0.3-0.1-0.2C85.1,25.6,85.2,25.7,85.3,25.7z"/>
	<path class="st13" d="M84.6,37.3c-1.8,2-4,3.1-6.6,3.5c-5,0.8-9.1-0.9-12-5c-2.4-3.4-2.8-7.1-1.4-11c0-0.1,0.1-0.2,0.2-0.3
		c1.9,2.8,4.5,3.9,7.9,3.2c-0.2,0.5-0.4,1-0.5,1.4c-1.2,4,1.3,8.3,5.6,9.5c2.2,0.7,4.3,0.2,6.2-1C84.2,37.6,84.3,37.3,84.6,37.3
		L84.6,37.3z"/>
	<path class="st13" d="M84.7,37.3C84.7,37.3,84.7,37.3,84.7,37.3C84.8,37.3,84.7,37.3,84.7,37.3C84.6,37.3,84.7,37.3,84.7,37.3z"/>
	<path class="st14" d="M85.3,25.7c-0.1-0.1-0.2-0.1-0.1-0.2C85.3,25.4,85.3,25.6,85.3,25.7C85.3,25.7,85.3,25.7,85.3,25.7z"/>
	<path class="st14" d="M85.4,25.6c0,0,0.1,0.1,0.1,0.1C85.4,25.8,85.3,25.8,85.4,25.6C85.3,25.7,85.3,25.7,85.4,25.6z"/>
</g>
<g>
	<polygon class="st15" points="64.3,215.9 70.5,215.9 70.5,214.4 65.8,214.4 65.8,212.6 69.7,212.6 69.7,211.1 65.8,211.1 
		65.8,209.4 70.5,209.4 70.5,208 64.3,208 	"/>
	<polygon class="st15" points="57.8,213.3 53.4,208 52,208 52,215.9 53.6,215.9 53.6,210.6 58,215.9 59.4,215.9 59.4,208 57.8,208 	
		"/>
	<g>
		<path class="st15" d="M77.2,211.8c0-1.4,1.1-2.5,2.5-2.5c1.4,0,2.5,1.1,2.5,2.5s-1.1,2.5-2.5,2.5
			C78.3,214.2,77.2,213.1,77.2,211.8"/>
		<path class="st14" d="M79.6,214l-0.2,0.2l-0.2-0.4L79.6,214z M79.2,212.9l0.4,0.2l-0.2,0.2L79.2,212.9z M79.2,212l0.4,0.3
			l-0.2,0.2L79.2,212z M79.8,212.7l0.4-0.3l-0.2,0.4L79.8,212.7z M79.2,213.3l0.8,0.5l-0.2,0.1l-0.4-0.2L79.2,213.3z M79.5,213.3
			l0.8-0.5l-0.1,0.4l-0.4,0.3L79.5,213.3z M79.2,212.5l0.8,0.4l-0.3,0.2l-0.4-0.2L79.2,212.5z M79.5,212.5l0.8-0.5l-0.1,0.4
			l-0.4,0.2L79.5,212.5z M79.5,212.1H80l-0.2,0.2L79.5,212.1z M79.8,213.5l0.4-0.3l-0.2,0.4L79.8,213.5z M79.7,211.8
			c0,0-0.4-1.2-0.5-1.4c0-0.1,0-0.2,0-0.3l0.5-0.6l0.5,0.6c0.1,0.1,0,0.2,0,0.3C80.1,210.6,79.7,211.8,79.7,211.8 M82,211.9h-2.2
			l1-0.5c0.6-0.3,0.7,0,0.9,0.2L82,211.9z M79.8,211.8l0.7-1.2c0.1-0.2,0.3-0.2,0.5-0.1l0.8,0.5l-0.4,0c-0.2,0-0.3,0.1-0.4,0.1
			L79.8,211.8z M77.4,211.9l0.2-0.3c0.2-0.3,0.4-0.5,0.9-0.2l1,0.5H77.4z M79.6,211.8l-1.2-0.7c-0.1-0.1-0.3-0.1-0.4-0.1l-0.4,0
			l0.8-0.5c0.2-0.1,0.4,0,0.5,0.1L79.6,211.8z M79.4,214.2l0.8-0.5l-0.2,0.5c-0.1,0-0.2,0-0.4,0C79.6,214.2,79.5,214.2,79.4,214.2"
			/>
		<path class="st15" d="M79.7,206c-3.2,0-5.7,2.6-5.7,5.7c0,3.2,2.6,5.7,5.7,5.7c3.2,0,5.7-2.6,5.7-5.7
			C85.4,208.6,82.9,206,79.7,206 M79.7,216c-2.3,0-4.2-1.9-4.2-4.2c0-2.3,1.9-4.2,4.2-4.2c2.3,0,4.2,1.9,4.2,4.2S82,216,79.7,216"/>
	</g>
	<polygon class="st15" points="91.6,214.4 89.3,208 87.6,208 90.6,215.9 92.6,215.9 95.7,208 94,208 	"/>
	<path class="st15" d="M102.6,208h-1.9l-3.1,7.8h1.6l0.6-1.6h3.6l0.6,1.6h1.6L102.6,208z M100.2,213.1l1.4-3.5l1.3,3.5H100.2z"/>
</g>
<g transform="translate(16.618 .817)">
	<defs>
		<filter id="Adobe_OpacityMaskFilter" filterUnits="userSpaceOnUse" x="51.5" y="258.6" width="14.9" height="14.9">
			<feColorMatrix  type="matrix" values="1 0 0 0 0  0 1 0 0 0  0 0 1 0 0  0 0 0 1 0"/>
		</filter>
	</defs>
	
		<mask maskUnits="userSpaceOnUse" x="51.5" y="258.6" width="14.9" height="14.9" id="h_00000036226260314477976160000006448451722126750632_">
		<g class="st16">
			<path id="g_00000047776956456443259980000009030875591547232674_" class="st0" d="M58.9,258.6c-4.1,0-7.4,3.3-7.4,7.4
				c0,4.1,3.3,7.4,7.4,7.4s7.4-3.3,7.4-7.4C66.4,262,63,258.6,58.9,258.6z M52.4,266.1c0-3.6,2.9-6.6,6.6-6.6c3.6,0,6.5,2.9,6.5,6.6
				c0,3.6-2.9,6.6-6.5,6.6C55.3,272.6,52.4,269.7,52.4,266.1z"/>
		</g>
	</mask>
	<path class="st17" d="M58.9,258.6c-4.1,0-7.4,3.3-7.4,7.4c0,4.1,3.3,7.4,7.4,7.4s7.4-3.3,7.4-7.4C66.4,262,63,258.6,58.9,258.6z
		 M52.4,266.1c0-3.6,2.9-6.6,6.6-6.6c3.6,0,6.5,2.9,6.5,6.6c0,3.6-2.9,6.6-6.5,6.6C55.3,272.6,52.4,269.7,52.4,266.1z"/>
</g>
<g transform="translate(20.295 4.087)">
	<defs>
		
			<filter id="Adobe_OpacityMaskFilter_00000039093273732878400460000006958989953799661460_" filterUnits="userSpaceOnUse" x="48.5" y="256" width="13.6" height="13.5">
			<feColorMatrix  type="matrix" values="1 0 0 0 0  0 1 0 0 0  0 0 1 0 0  0 0 0 1 0"/>
		</filter>
	</defs>
	
		<mask maskUnits="userSpaceOnUse" x="48.5" y="256" width="13.6" height="13.5" id="j_00000129897983066670440500000002812441476821248384_">
		<g style="filter:url(#Adobe_OpacityMaskFilter_00000039093273732878400460000006958989953799661460_);">
			<path id="i_00000137829370829387436320000005673638221281065918_" class="st0" d="M48.5,262.7c0,3.7,3,6.7,6.8,6.7
				c3.7,0,6.8-3,6.8-6.7c0-3.7-3-6.7-6.8-6.7C51.5,256,48.5,259,48.5,262.7 M49.2,262.7c0-3.4,2.7-6.1,6.1-6.1
				c3.4,0,6.1,2.7,6.1,6.1c0,3.4-2.7,6.1-6.1,6.1C51.9,268.8,49.2,266.1,49.2,262.7"/>
		</g>
	</mask>
	<path class="st19" d="M48.5,262.7c0,3.7,3,6.7,6.8,6.7c3.7,0,6.8-3,6.8-6.7c0-3.7-3-6.7-6.8-6.7C51.5,256,48.5,259,48.5,262.7
		 M49.2,262.7c0-3.4,2.7-6.1,6.1-6.1c3.4,0,6.1,2.7,6.1,6.1c0,3.4-2.7,6.1-6.1,6.1C51.9,268.8,49.2,266.1,49.2,262.7"/>
</g>
<g>
	
		<linearGradient id="SVGID_1_" gradientUnits="userSpaceOnUse" x1="135.9149" y1="165.6848" x2="135.9149" y2="165.4458" gradientTransform="matrix(74.643 0 0 -74.66 -10067.8418 12630.2939)">
		<stop  offset="0" style="stop-color:#5F6163"/>
		<stop  offset="0.3579" style="stop-color:#A5A8AB"/>
		<stop  offset="0.5141" style="stop-color:#E7E8E8"/>
		<stop  offset="0.8542" style="stop-color:#A5A8AB"/>
		<stop  offset="1" style="stop-color:#474749"/>
	</linearGradient>
	<path class="st20" d="M77.2,278.5c-5,0-9.1-4.1-9.1-9.1c0-5,4.1-9.1,9.1-9.1c5,0,9.1,4.1,9.1,9.1C86.4,274.4,82.3,278.5,77.2,278.5
		z M77.3,277.7c4.6,0,8.3-3.7,8.3-8.3c0-4.6-3.7-8.3-8.3-8.3c-4.6,0-8.3,3.7-8.3,8.3C68.9,274,72.7,277.7,77.3,277.7L77.3,277.7z"/>
	<g>
		<g transform="translate(0 17.439)">
			<defs>
				
					<filter id="Adobe_OpacityMaskFilter_00000078032221368733991450000017643944510126548665_" filterUnits="userSpaceOnUse" x="63" y="246.1" width="20.1" height="20.1">
					<feColorMatrix  type="matrix" values="1 0 0 0 0  0 1 0 0 0  0 0 1 0 0  0 0 0 1 0"/>
				</filter>
			</defs>
			
				<mask maskUnits="userSpaceOnUse" x="63" y="246.1" width="20.1" height="20.1" id="f_00000041253708220852025360000006740446021440579510_">
				<g style="filter:url(#Adobe_OpacityMaskFilter_00000078032221368733991450000017643944510126548665_);">
					<path id="d_00000127039630557518151250000004572569936944229790_" class="st0" d="M63,256.1c0,5.6,4.5,10.1,10.1,10.1
						c5.6,0,10.1-4.5,10.1-10.1c0-5.6-4.5-10.1-10.1-10.1C67.5,246.1,63,250.6,63,256.1"/>
				</g>
			</mask>
			
				<linearGradient id="SVGID_00000100352235720641028370000012756288499233731996_" gradientUnits="userSpaceOnUse" x1="136.2229" y1="148.2736" x2="136.2229" y2="148.5177" gradientTransform="matrix(82.371 0 0 -82.44 -11147.7988 12489.8652)">
				<stop  offset="0" style="stop-color:#E20337"/>
				<stop  offset="1" style="stop-color:#691412"/>
			</linearGradient>
			
				<path style="mask:url(#f_00000041253708220852025360000006740446021440579510_);fill-rule:evenodd;clip-rule:evenodd;fill:url(#SVGID_00000100352235720641028370000012756288499233731996_);" d="
				M63,256.1c0,5.6,4.5,10.1,10.1,10.1c5.6,0,10.1-4.5,10.1-10.1c0-5.6-4.5-10.1-10.1-10.1C67.5,246.1,63,250.6,63,256.1"/>
		</g>
		
			<linearGradient id="SVGID_00000169527413175391783080000000537784226767003036_" gradientUnits="userSpaceOnUse" x1="136.076" y1="165.5672" x2="136.076" y2="165.8049" gradientTransform="matrix(83.088 0 0 -83.106 -11229.0293 14038.8799)">
			<stop  offset="0" style="stop-color:#D1D3D5"/>
			<stop  offset="0.1392" style="stop-color:#B0B3B6"/>
			<stop  offset="0.454" style="stop-color:#474749"/>
			<stop  offset="0.5635" style="stop-color:#E7E8E8"/>
			<stop  offset="1" style="stop-color:#C7C8CA"/>
		</linearGradient>
		<path style="fill-rule:evenodd;clip-rule:evenodd;fill:url(#SVGID_00000169527413175391783080000000537784226767003036_);" d="
			M77.2,279.5c-5.6,0-10.1-4.5-10.1-10.1c0-5.6,4.5-10.1,10.1-10.1c5.6,0,10.1,4.5,10.1,10.1C87.4,275,82.9,279.5,77.2,279.5z
			 M77.2,278.4c5,0,9-4,9-9c0-5-4-9-9-9c-5,0-9,4-9,9C68.2,274.4,72.3,278.4,77.2,278.4L77.2,278.4z"/>
	</g>
</g>
</svg>
