<?xml version="1.0" encoding="utf-8"?>
<!-- Generator: Adobe Illustrator 28.2.0, SVG Export Plug-In . SVG Version: 6.00 Build 0)  -->
<svg version="1.1" id="katman_1" xmlns="http://www.w3.org/2000/svg" xmlns:xlink="http://www.w3.org/1999/xlink" x="0px" y="0px"
	 viewBox="0 0 302.9 302.5" style="enable-background:new 0 0 302.9 302.5;" xml:space="preserve">
<style type="text/css">
	.st0{fill-rule:evenodd;clip-rule:evenodd;fill:#FFFFFF;}
	.st1{fill:none;stroke:#070E15;stroke-width:2;stroke-linecap:round;stroke-linejoin:round;}
	.st2{fill:#FAC428;}
	.st3{fill:#070E15;}
	.st4{fill-rule:evenodd;clip-rule:evenodd;fill:#132F53;}
	.st5{fill-rule:evenodd;clip-rule:evenodd;fill:#3496E1;}
	.st6{fill-rule:evenodd;clip-rule:evenodd;fill:#06379C;}
	.st7{fill-rule:evenodd;clip-rule:evenodd;fill:#F10C1B;}
	.st8{fill-rule:evenodd;clip-rule:evenodd;fill:#1B5AA2;}
</style>
<path class="st0" d="M266.6,181.3H48.2c-1.8,0-3.3-1.5-3.3-3.3v-53.5c0-1.8,1.5-3.3,3.3-3.3h218.4c1.8,0,3.3,1.5,3.3,3.3v53.6
	C269.8,179.9,268.3,181.3,266.6,181.3"/>
<path class="st1" d="M266.6,181.3H48.2c-1.8,0-3.3-1.5-3.3-3.3v-53.5c0-1.8,1.5-3.3,3.3-3.3h218.4c1.8,0,3.3,1.5,3.3,3.3v53.6
	C269.8,179.9,268.3,181.3,266.6,181.3z"/>
<path class="st2" d="M220.1,162.4v-3.2c1.2,0,2.4-0.5,3.3-1.3c0.8-0.7,1.2-1.7,1.2-2.8c0.1-1.1-0.3-2.1-1-2.9
	c-0.6-0.7-1.3-1.1-2.1-1.4l-2.9-1.2c-0.8-0.3-1.1-0.7-1.1-1.2c0-0.3,0.1-0.6,0.4-0.8c0.3-0.2,0.7-0.3,1.1-0.3c1,0.1,1.8,0.7,2.2,1.6
	l2.9-1.4c-0.7-1.6-2.1-2.7-3.8-3.1v-3h-1.5v2.9c-1.2,0-2.3,0.5-3.1,1.3c-0.8,0.8-1.2,1.8-1.2,2.9c0,1.8,1,3.1,3,3.9l2.7,1
	c0.9,0.4,1.4,0.9,1.4,1.5c0,0.3-0.2,0.7-0.4,0.9c-0.4,0.2-0.8,0.3-1.3,0.3c-0.6,0-1.3-0.1-1.8-0.5c-0.5-0.4-0.9-1-1.1-1.6l-3,1.2
	c0.3,1,0.9,2,1.7,2.7c0.9,0.7,2,1.1,3.1,1.2v3.2h1.3V162.4z M232.1,162.4v-3.2c1.2,0,2.4-0.5,3.3-1.3c0.8-0.7,1.2-1.7,1.2-2.8
	c0.1-1.1-0.3-2.1-1-2.9c-0.6-0.7-1.3-1.1-2.1-1.4l-2.9-1.2c-0.8-0.3-1.1-0.7-1.1-1.2c0-0.3,0.1-0.6,0.4-0.8c0.3-0.2,0.6-0.3,1-0.3
	c1,0.1,1.8,0.7,2.2,1.6l2.9-1.4c-0.7-1.6-2.1-2.7-3.8-3.1v-3h-1.5v2.9c-1.2,0-2.3,0.5-3.1,1.3c-0.8,0.8-1.2,1.8-1.2,2.9
	c0,1.8,1,3.1,3,3.9l2.7,1c0.9,0.4,1.4,0.9,1.4,1.5c0,0.3-0.1,0.7-0.4,0.9c-0.4,0.2-0.8,0.3-1.3,0.3c-0.6,0-1.3-0.1-1.8-0.5
	c-0.5-0.4-0.9-1-1.1-1.6l-3,1.2c0.3,1,0.9,2,1.7,2.7c0.9,0.7,2,1.2,3.1,1.2v3.2h1.4L232.1,162.4z"/>
<path class="st3" d="M239.7,159.1l2.4-6.5h-0.9l-2.4,6.5H239.7z M243.5,159.1v-2.6c0-0.3,0-0.5,0.1-0.6c0.1-0.2,0.2-0.3,0.3-0.5
	c0.2-0.1,0.3-0.2,0.5-0.2c0.4,0,0.7,0.2,0.7,0.6v3.3h1.1v-2.6c0-0.3,0-0.5,0.1-0.6c0.1-0.2,0.2-0.3,0.3-0.5c0.2-0.1,0.3-0.2,0.5-0.2
	c0.4,0,0.7,0.2,0.7,0.6v3.3h1.1V156c0-0.3,0-0.6-0.1-0.9c-0.1-0.3-0.2-0.6-0.5-0.8c-0.2-0.2-0.6-0.3-0.9-0.3c-0.3,0-0.6,0.1-0.8,0.3
	c-0.3,0.2-0.5,0.4-0.6,0.7c-0.1-0.3-0.3-0.5-0.5-0.7c-0.2-0.2-0.5-0.3-0.8-0.3c-0.6,0-1.1,0.4-1.3,0.9v-0.8h-1.1v4.9h1.2V159.1z
	 M252.9,159.2c1.3-0.1,2.4-1.2,2.3-2.5c-0.1-1.3-1.2-2.4-2.5-2.3c-1.3,0.1-2.4,1.2-2.3,2.5c0,0.6,0.3,1.2,0.7,1.6
	C251.6,159,252.2,159.2,252.9,159.2L252.9,159.2z M252.9,158.2c-0.4,0-0.8-0.1-1-0.4c-0.2-0.3-0.4-0.7-0.4-1.1
	c0-0.4,0.1-0.8,0.4-1.1c0.3-0.3,0.6-0.4,1-0.4c0.4,0,0.8,0.1,1,0.4c0.5,0.6,0.5,1.6,0,2.2C253.6,158,253.3,158.2,252.9,158.2
	L252.9,158.2z"/>
<path class="st3" d="M110.3,159.2v-1.5h-2.9v-6.3h-1.7v7.9L110.3,159.2L110.3,159.2z M112,152.9c0.2,0,0.5-0.1,0.7-0.2
	c0.2-0.1,0.3-0.4,0.3-0.6c0-0.2-0.1-0.5-0.3-0.6c-0.4-0.3-1-0.3-1.4,0c-0.2,0.1-0.3,0.4-0.3,0.6c0,0.2,0.1,0.5,0.3,0.6
	C111.5,152.8,111.8,152.9,112,152.9z M112.8,159.2v-5.9h-1.6v5.9H112.8z M117.6,159.3c0.7,0,1.4-0.3,1.9-0.9c1.1-1.3,1.1-3.1,0-4.4
	c-0.4-0.6-1.1-0.9-1.8-0.9c-0.4,0-0.8,0.1-1.1,0.3c-0.3,0.2-0.6,0.4-0.8,0.7v-2.8h-1.6v7.9h1.6v-0.7
	C116.2,159,116.9,159.3,117.6,159.3z M117.2,157.9c-0.4,0-0.8-0.2-1-0.5c-0.5-0.7-0.5-1.7,0-2.4c0.3-0.3,0.6-0.4,1-0.4
	c0.4,0,0.8,0.2,1,0.5c0.5,0.7,0.5,1.7,0,2.4C117.9,157.8,117.6,157.9,117.2,157.9L117.2,157.9z M124,159.3c0.6,0,1.2-0.2,1.7-0.5
	c0.5-0.3,0.8-0.8,0.9-1.3l-1.6-0.2c-0.3,0.3-0.7,0.5-1.1,0.5c-0.3,0-0.7-0.1-0.9-0.3c-0.3-0.2-0.4-0.5-0.5-0.8h4.1v-0.5
	c0-0.8-0.3-1.6-0.8-2.2c-0.5-0.6-1.3-0.9-2.1-0.9c-0.8,0-1.5,0.3-2,0.9c-0.6,0.6-0.9,1.4-0.9,2.2c0,0.8,0.3,1.6,0.8,2.2
	C122.3,159,123.1,159.3,124,159.3z M125.2,155.7h-2.5c0.1-0.3,0.2-0.6,0.4-0.8c0.2-0.2,0.5-0.3,0.8-0.3
	C124.5,154.6,125.1,155.1,125.2,155.7z M129.5,159.2v-2.7c0-0.4,0-0.7,0.1-0.8c0.2-0.6,0.7-1,1.3-0.9c0.2,0,0.5,0,0.7,0.1v-1.7h-0.4
	c-0.8,0-1.5,0.5-1.7,1.3v-1.2h-1.6v5.9L129.5,159.2z M134.7,159.2v-4.5h1.1v-1.4h-1.1v-1.4l-1.6,0.2v1.2H132v1.4h1.1v4.5H134.7z
	 M139.2,161l3.3-7.8h-1.8l-1.3,3.6l-1.4-3.6h-1.8l2.3,5.6l-1,2.2H139.2z M147.6,159.2v-5.5l1.8,3.3h1.2l1.9-3.3v5.5h1.7v-7.9h-2.1
	l-2,3.6l-2-3.6H146v7.9H147.6z M157.6,159.3c0.7-0.1,1.3-0.5,1.6-1.1v1h1.6v-5.9h-1.6v3.2c0,0.2,0,0.5-0.1,0.7
	c-0.1,0.5-0.4,0.7-1,0.7s-0.8-0.2-0.8-0.6v-3.9h-1.6v3.4c0,0.4,0,0.9,0.1,1.3c0.1,0.4,0.3,0.7,0.6,1
	C156.7,159.4,157.1,159.3,157.6,159.3L157.6,159.3z M164.2,159.2v-4.5h1.1v-1.4h-1.1v-1.4l-1.6,0.2v1.2h-1.1v1.4h1.1v4.5H164.2z
	 M168,159.3c0.7-0.1,1.3-0.5,1.6-1.1v1h1.6v-5.9h-1.6v3.2c0,0.2,0,0.5-0.1,0.7c-0.1,0.5-0.4,0.7-1,0.7s-0.8-0.2-0.8-0.6v-3.9H166
	v3.4c0,0.4,0,0.9,0.1,1.3c0.1,0.4,0.3,0.7,0.6,1C167,159.4,167.5,159.3,168,159.3z M177.3,159.3c0.2,0,0.4,0,0.5-0.1v-1.3h-0.2
	c-0.1,0-0.3-0.1-0.3-0.2c0,0,0,0,0-0.1v-2.1c0-0.5-0.1-0.9-0.3-1.3c-0.4-0.7-1.2-1.2-2.1-1.1c-0.7,0-1.3,0.2-1.8,0.6
	c-0.5,0.4-0.7,0.9-0.8,1.5l1.6,0.1c0.1-0.4,0.4-0.8,0.9-0.7c0,0,0,0,0,0c0.2,0,0.4,0.1,0.6,0.2c0.1,0.1,0.2,0.3,0.2,0.5
	c0,0.2-0.1,0.4-0.3,0.4c0,0,0,0-0.1,0l-1.1,0.2c-0.6,0-1.1,0.2-1.5,0.6c-0.7,0.7-0.7,1.7,0,2.4c0,0,0,0,0,0c0.4,0.3,0.8,0.4,1.3,0.4
	c0.7,0,1.4-0.4,1.7-1C176,158.9,176.6,159.3,177.3,159.3z M174.5,158.1c-0.2,0-0.4-0.1-0.5-0.2c-0.2-0.2-0.3-0.5-0.1-0.7
	c0,0,0.1-0.1,0.1-0.1c0.2-0.1,0.4-0.2,0.6-0.3l0.6-0.2c0.2-0.1,0.3-0.1,0.5-0.2v0.3c0,0.4-0.1,0.7-0.3,1
	C175.2,158,174.8,158.1,174.5,158.1z M180.3,159.2v-7.9h-1.6v7.9H180.3z"/>
<path class="st0" d="M266.6,241.4H48.2c-1.8,0-3.3-1.5-3.3-3.3v-53.5c0-1.8,1.5-3.3,3.3-3.3h218.4c1.8,0,3.3,1.5,3.3,3.3v53.6
	C269.8,240,268.3,241.4,266.6,241.4"/>
<path class="st1" d="M266.6,241.4H48.2c-1.8,0-3.3-1.5-3.3-3.3v-53.5c0-1.8,1.5-3.3,3.3-3.3h218.4c1.8,0,3.3,1.5,3.3,3.3v53.6
	C269.8,240,268.3,241.4,266.6,241.4z"/>
<path class="st2" d="M220.1,218.6v-3.2c1.2,0,2.4-0.5,3.3-1.3c0.8-0.7,1.2-1.7,1.2-2.8c0.1-1.1-0.3-2.1-1-2.9
	c-0.6-0.7-1.3-1.1-2.1-1.4l-2.9-1.2c-0.8-0.3-1.1-0.7-1.1-1.2c0-0.3,0.1-0.6,0.4-0.8c0.3-0.2,0.7-0.3,1.1-0.3c1,0.1,1.8,0.7,2.2,1.6
	l2.9-1.4c-0.7-1.6-2.1-2.7-3.8-3.1v-3h-1.5v2.9c-1.2,0-2.3,0.5-3.1,1.3c-0.8,0.8-1.2,1.8-1.2,2.9c0,1.8,1,3.1,3,3.9l2.7,1
	c0.9,0.4,1.4,0.9,1.4,1.5c0,0.3-0.2,0.7-0.4,0.9c-0.4,0.2-0.8,0.3-1.3,0.3c-0.6,0-1.3-0.1-1.8-0.5c-0.5-0.4-0.9-1-1.1-1.6l-3,1.2
	c0.3,1,0.9,2,1.7,2.7c0.9,0.7,2,1.1,3.1,1.2v3.2h1.3L220.1,218.6z M232.1,218.6v-3.2c1.2,0,2.4-0.5,3.3-1.3c0.8-0.7,1.2-1.7,1.2-2.8
	c0.1-1.1-0.3-2.1-1-2.9c-0.6-0.7-1.3-1.1-2.1-1.4l-2.9-1.2c-0.8-0.3-1.1-0.7-1.1-1.2c0-0.3,0.1-0.6,0.4-0.8c0.3-0.2,0.6-0.3,1-0.3
	c1,0.1,1.8,0.7,2.2,1.6l2.9-1.4c-0.7-1.6-2.1-2.7-3.8-3.1v-3h-1.5v2.9c-1.2,0-2.3,0.5-3.1,1.3c-0.8,0.8-1.2,1.8-1.2,2.9
	c0,1.8,1,3.1,3,3.9l2.7,1c0.9,0.4,1.4,0.9,1.4,1.5c0,0.3-0.1,0.7-0.4,0.9c-0.4,0.2-0.8,0.3-1.3,0.3c-0.6,0-1.3-0.1-1.8-0.5
	c-0.5-0.4-0.9-1-1.1-1.6l-3,1.2c0.3,1,0.9,2,1.7,2.7c0.9,0.7,2,1.2,3.1,1.2v3.2h1.4L232.1,218.6z"/>
<path class="st3" d="M239.7,215.2l2.4-6.5h-0.9l-2.4,6.5H239.7z M243.5,215.2v-2.6c0-0.3,0-0.5,0.1-0.6c0.1-0.2,0.2-0.3,0.3-0.5
	c0.2-0.1,0.3-0.2,0.5-0.2c0.4,0,0.7,0.2,0.7,0.6v3.3h1.1v-2.6c0-0.3,0-0.5,0.1-0.6c0.1-0.2,0.2-0.3,0.3-0.5c0.2-0.1,0.3-0.2,0.5-0.2
	c0.4,0,0.7,0.2,0.7,0.6v3.3h1.1v-3.1c0-0.3,0-0.6-0.1-0.9c-0.1-0.3-0.2-0.6-0.5-0.8c-0.2-0.2-0.6-0.3-0.9-0.3
	c-0.3,0-0.6,0.1-0.8,0.3c-0.3,0.2-0.5,0.4-0.6,0.7c-0.1-0.3-0.3-0.5-0.5-0.7c-0.2-0.2-0.5-0.3-0.8-0.3c-0.6,0-1.1,0.4-1.3,0.9v-0.8
	h-1.1v4.9h1.2V215.2z M252.9,215.3c1.3-0.1,2.4-1.2,2.3-2.5c-0.1-1.3-1.2-2.4-2.5-2.3c-1.3,0.1-2.4,1.2-2.3,2.5
	c0,0.6,0.3,1.2,0.7,1.6C251.6,215.1,252.2,215.3,252.9,215.3z M252.9,214.3c-0.4,0-0.8-0.1-1-0.4c-0.2-0.3-0.4-0.7-0.4-1.1
	c0-0.4,0.1-0.8,0.4-1.1c0.3-0.3,0.6-0.4,1-0.4c0.4,0,0.8,0.1,1,0.4c0.5,0.6,0.5,1.6,0,2.2C253.6,214.1,253.3,214.3,252.9,214.3z"/>
<path class="st3" d="M106.7,215.3l0.5-1.5h3.2l0.5,1.5h1.8l-3-7.9H108l-3.1,7.9H106.7z M109.8,212.3h-2l1-2.7L109.8,212.3z
	 M115.1,215.3v-7.9h-1.6v7.9H115.1z M118.1,215.3v-7.9h-1.6v7.9H118.1z M121.5,215.4c0.5,0,1-0.2,1.4-0.5c0.4-0.3,0.6-0.8,0.6-1.3
	c0-0.4-0.1-0.8-0.3-1.1c-0.3-0.3-0.6-0.6-1-0.8l-0.9-0.4c-0.2-0.1-0.3-0.2-0.3-0.4s0.1-0.3,0.4-0.3c0.4,0,0.7,0.2,0.9,0.5l1-1
	c-0.4-0.6-1.1-1-1.9-1c-0.5,0-1,0.2-1.4,0.5c-0.4,0.3-0.6,0.8-0.6,1.3c0,0.8,0.5,1.4,1.2,1.7l0.9,0.4c0.3,0.1,0.5,0.3,0.5,0.5
	s-0.1,0.3-0.4,0.3c-0.5,0-1-0.3-1.3-0.7l-1.1,0.9C119.6,214.9,120.5,215.5,121.5,215.4L121.5,215.4z M126.3,215.3v-4.5h1.1v-1.4
	h-1.1V208l-1.6,0.2v1.2h-1.1v1.4h1.1v4.5L126.3,215.3z M132.9,215.4c0.2,0,0.4,0,0.5-0.1V214h-0.2c-0.1,0-0.3-0.1-0.3-0.2
	c0,0,0,0,0-0.1v-2.1c0-0.5-0.1-0.9-0.3-1.3c-0.4-0.7-1.2-1.2-2.1-1.1c-0.7,0-1.3,0.2-1.8,0.6c-0.5,0.4-0.7,0.9-0.8,1.5l1.6,0.1
	c0.1-0.4,0.4-0.8,0.9-0.7c0,0,0,0,0,0c0.2,0,0.4,0.1,0.6,0.2c0.2,0.1,0.2,0.3,0.2,0.5c0,0.2-0.1,0.4-0.3,0.4c0,0,0,0-0.1,0l-1.1,0.2
	c-0.6,0-1.1,0.2-1.5,0.6c-0.7,0.7-0.7,1.7,0,2.4c0,0,0,0,0,0c0.4,0.3,0.8,0.4,1.3,0.4c0.7,0,1.4-0.4,1.7-1
	C131.6,215,132.2,215.4,132.9,215.4L132.9,215.4z M130.1,214.2c-0.2,0-0.4-0.1-0.5-0.2c-0.2-0.2-0.3-0.5-0.1-0.7
	c0,0,0.1-0.1,0.1-0.1c0.2-0.1,0.4-0.2,0.6-0.3l0.6-0.2c0.2-0.1,0.3-0.1,0.5-0.2v0.3c0,0.4-0.1,0.7-0.3,1
	C130.8,214,130.4,214.2,130.1,214.2L130.1,214.2z M136.2,215.3v-4.5h1.1v-1.4h-1.1V208l-1.6,0.2v1.2h-1.1v1.4h1.1v4.5L136.2,215.3z
	 M140.8,215.4c0.6,0,1.2-0.2,1.7-0.5c0.5-0.3,0.8-0.8,0.9-1.3l-1.6-0.2c-0.3,0.3-0.7,0.5-1.1,0.5c-0.3,0-0.7-0.1-0.9-0.3
	c-0.3-0.2-0.4-0.5-0.5-0.8h4.1v-0.5c0-0.8-0.3-1.6-0.8-2.2c-0.5-0.6-1.3-0.9-2.1-0.9c-0.8,0-1.5,0.3-2,0.9c-0.6,0.6-0.9,1.4-0.9,2.2
	c0,0.8,0.3,1.6,0.8,2.2C139,215.1,139.9,215.4,140.8,215.4L140.8,215.4z M141.9,211.8h-2.5c0.1-0.3,0.2-0.6,0.4-0.8
	c0.2-0.2,0.5-0.3,0.8-0.3C141.2,210.6,141.8,211.1,141.9,211.8C141.9,211.7,141.9,211.8,141.9,211.8L141.9,211.8z"/>
<path class="st0" d="M266.6,301.5H48.2c-1.8,0-3.3-1.5-3.3-3.3v-53.5c0-1.8,1.5-3.3,3.3-3.3h218.4c1.8,0,3.3,1.5,3.3,3.3v53.6
	C269.8,300.1,268.3,301.5,266.6,301.5"/>
<path class="st1" d="M266.6,301.5H48.2c-1.8,0-3.3-1.5-3.3-3.3v-53.5c0-1.8,1.5-3.3,3.3-3.3h218.4c1.8,0,3.3,1.5,3.3,3.3v53.6
	C269.8,300.1,268.3,301.5,266.6,301.5z"/>
<path class="st2" d="M220.1,278.7v-3.2c1.2,0,2.4-0.5,3.3-1.3c0.8-0.7,1.2-1.7,1.2-2.8c0.1-1.1-0.3-2.1-1-2.9
	c-0.6-0.7-1.3-1.1-2.1-1.4l-2.9-1.2c-0.8-0.3-1.1-0.7-1.1-1.2c0-0.3,0.1-0.6,0.4-0.8c0.3-0.2,0.7-0.3,1.1-0.3c1,0.1,1.8,0.7,2.2,1.6
	l2.9-1.4c-0.7-1.6-2.1-2.7-3.8-3.1v-3h-1.5v2.9c-1.2,0-2.3,0.5-3.1,1.3c-0.8,0.8-1.2,1.8-1.2,2.9c0,1.8,1,3.1,3,3.9l2.7,1
	c0.9,0.4,1.4,0.9,1.4,1.5c0,0.3-0.2,0.7-0.4,0.9c-0.4,0.2-0.8,0.3-1.3,0.3c-0.6,0-1.3-0.1-1.8-0.5c-0.5-0.5-0.9-1-1.1-1.7l-3,1.2
	c0.3,1,0.9,2,1.7,2.7c0.9,0.7,2,1.1,3.1,1.2v3.2h1.3L220.1,278.7z M232.1,278.7v-3.2c1.2,0,2.4-0.5,3.3-1.3c0.8-0.7,1.2-1.7,1.2-2.8
	c0.1-1.1-0.3-2.1-1-2.9c-0.6-0.7-1.3-1.1-2.1-1.4l-2.9-1.2c-0.8-0.3-1.1-0.7-1.1-1.2c0-0.3,0.1-0.6,0.4-0.8c0.3-0.2,0.6-0.3,1-0.3
	c1,0.1,1.8,0.7,2.2,1.6l2.9-1.4c-0.7-1.6-2.1-2.7-3.8-3.1v-3h-1.5v2.9c-1.2,0-2.3,0.5-3.1,1.3c-0.8,0.8-1.2,1.8-1.2,2.9
	c0,1.8,1,3.1,3,3.9l2.7,1c0.9,0.4,1.4,0.9,1.4,1.5c0,0.3-0.1,0.7-0.4,0.9c-0.4,0.2-0.8,0.3-1.3,0.3c-0.6,0-1.3-0.1-1.8-0.5
	c-0.5-0.5-0.9-1-1.1-1.7l-3,1.2c0.3,1,0.9,2,1.7,2.7c0.9,0.7,2,1.2,3.1,1.2v3.2h1.4L232.1,278.7z"/>
<path class="st3" d="M239.7,275.3l2.4-6.5h-0.9l-2.4,6.5H239.7z M243.5,275.3v-2.6c0-0.3,0-0.5,0.1-0.6c0.1-0.2,0.2-0.3,0.3-0.5
	c0.2-0.1,0.3-0.2,0.5-0.2c0.4,0,0.7,0.2,0.7,0.6v3.3h1.1v-2.6c0-0.3,0-0.5,0.1-0.6c0.1-0.2,0.2-0.3,0.3-0.5c0.2-0.1,0.3-0.2,0.5-0.2
	c0.4,0,0.7,0.2,0.7,0.6v3.3h1.1v-3.1c0-0.3,0-0.6-0.1-0.9c-0.1-0.3-0.2-0.6-0.5-0.8c-0.2-0.2-0.6-0.3-0.9-0.3
	c-0.3,0-0.6,0.1-0.8,0.3c-0.3,0.2-0.5,0.4-0.6,0.7c-0.1-0.3-0.3-0.5-0.5-0.7c-0.2-0.2-0.5-0.3-0.8-0.3c-0.6,0-1.1,0.4-1.3,0.9v-0.8
	h-1.1v4.9h1.2V275.3z M252.9,275.4c1.3-0.1,2.4-1.2,2.3-2.5c-0.1-1.3-1.2-2.4-2.5-2.3c-1.3,0.1-2.4,1.2-2.3,2.5
	c0,0.6,0.3,1.2,0.7,1.6C251.6,275.2,252.2,275.4,252.9,275.4z M252.9,274.4c-0.4,0-0.8-0.1-1-0.4c-0.5-0.6-0.5-1.6,0-2.2
	c0.3-0.3,0.6-0.4,1-0.4c0.4,0,0.8,0.1,1,0.4c0.2,0.3,0.4,0.7,0.4,1.1c0,0.4-0.1,0.8-0.4,1.1C253.6,274.2,253.3,274.4,252.9,274.4z"
	/>
<path class="st0" d="M266.6,61.1H48.2c-1.8,0-3.3-1.5-3.3-3.3V4.3c0-1.8,1.5-3.3,3.3-3.3h218.4c1.8,0,3.3,1.5,3.3,3.3v53.6
	C269.8,59.7,268.3,61.1,266.6,61.1"/>
<path class="st1" d="M266.6,61.1H48.2c-1.8,0-3.3-1.5-3.3-3.3V4.3c0-1.8,1.5-3.3,3.3-3.3h218.4c1.8,0,3.3,1.5,3.3,3.3v53.6
	C269.8,59.7,268.3,61.1,266.6,61.1z"/>
<path class="st2" d="M220.1,36.2V33c1.2,0,2.4-0.5,3.3-1.3c0.8-0.7,1.2-1.7,1.2-2.8c0.1-1.1-0.3-2.1-1-2.9c-0.6-0.7-1.3-1.1-2.1-1.4
	l-2.9-1.2c-0.8-0.3-1.1-0.7-1.1-1.2c0-0.3,0.1-0.6,0.4-0.8c0.3-0.2,0.7-0.3,1.1-0.3c1,0.1,1.8,0.7,2.2,1.6l2.9-1.4
	c-0.7-1.6-2.1-2.7-3.8-3.1v-3h-1.5v2.9c-1.2,0-2.3,0.5-3.1,1.3c-0.8,0.8-1.2,1.8-1.2,2.9c0,1.8,1,3.1,3,3.9l2.7,1
	c0.9,0.4,1.4,0.9,1.4,1.5c0,0.3-0.2,0.7-0.4,0.9c-0.4,0.2-0.8,0.3-1.3,0.3c-0.6,0-1.3-0.1-1.8-0.5c-0.5-0.4-0.9-1-1.1-1.6l-3,1.2
	c0.3,1,0.9,2,1.7,2.7c0.9,0.7,2,1.1,3.1,1.2v3.2L220.1,36.2L220.1,36.2z M232.1,36.2V33c1.2,0,2.4-0.5,3.3-1.3
	c0.8-0.7,1.2-1.7,1.2-2.8c0.1-1.1-0.3-2.1-1-2.9c-0.6-0.7-1.3-1.1-2.1-1.4l-2.9-1.2c-0.8-0.3-1.1-0.7-1.1-1.2c0-0.3,0.1-0.6,0.4-0.8
	c0.3-0.2,0.6-0.3,1-0.3c1,0.1,1.8,0.7,2.2,1.6l2.9-1.4c-0.7-1.6-2.1-2.7-3.8-3.1v-3h-1.5v2.9c-1.2,0-2.3,0.5-3.1,1.3
	c-0.8,0.8-1.2,1.8-1.2,2.9c0,1.8,1,3.1,3,3.9l2.7,1c0.9,0.4,1.4,0.9,1.4,1.5c0,0.3-0.1,0.7-0.4,0.9c-0.4,0.2-0.8,0.3-1.3,0.3
	c-0.6,0-1.3-0.1-1.8-0.5c-0.5-0.4-0.9-1-1.1-1.6l-3,1.2c0.3,1,0.9,2,1.7,2.7c0.9,0.7,2,1.2,3.1,1.2v3.2L232.1,36.2L232.1,36.2z"/>
<path class="st3" d="M239.7,32.8l2.4-6.5h-0.9l-2.4,6.5H239.7z M243.5,32.8v-2.6c0-0.3,0-0.5,0.1-0.6c0.1-0.2,0.2-0.3,0.3-0.5
	c0.2-0.1,0.3-0.2,0.5-0.2c0.4,0,0.7,0.2,0.7,0.6v3.3h1.1v-2.6c0-0.3,0-0.5,0.1-0.6c0.1-0.2,0.2-0.3,0.3-0.5c0.1-0.1,0.3-0.2,0.5-0.2
	c0.4,0,0.7,0.2,0.7,0.6v3.3h1.1v-3.1c0-0.3,0-0.6-0.1-0.9c-0.1-0.3-0.2-0.6-0.5-0.8c-0.2-0.2-0.6-0.3-0.9-0.3
	c-0.3,0-0.6,0.1-0.8,0.3c-0.3,0.2-0.5,0.4-0.6,0.7c-0.1-0.3-0.3-0.5-0.5-0.7c-0.2-0.2-0.5-0.3-0.8-0.3c-0.6,0-1.1,0.4-1.3,0.9V28
	h-1.1v4.9h1.2V32.8z M252.9,33c1.3-0.1,2.4-1.2,2.3-2.5c-0.1-1.3-1.2-2.4-2.5-2.3c-1.3,0.1-2.4,1.2-2.3,2.5c0,0.6,0.3,1.2,0.7,1.6
	C251.6,32.8,252.2,33,252.9,33z M252.9,31.9c-0.4,0-0.8-0.1-1-0.4c-0.2-0.3-0.4-0.7-0.4-1.1c0-0.4,0.1-0.8,0.4-1.1
	c0.3-0.3,0.6-0.4,1-0.4c0.4,0,0.8,0.1,1,0.4c0.5,0.6,0.5,1.6,0,2.2C253.6,31.8,253.3,31.9,252.9,31.9z"/>
<path class="st3" d="M107.3,33v-2.8h1.2c0.8,0.1,1.6-0.2,2.2-0.7c0.5-0.5,0.8-1.1,0.8-1.8c0.1-0.7-0.2-1.3-0.7-1.8
	c-0.6-0.5-1.3-0.8-2.1-0.7h-3.1V33H107.3z M108.6,28.6h-1.3v-2h1.3c0.3,0,0.6,0.1,0.8,0.3c0.4,0.4,0.4,1,0,1.4
	C109.2,28.5,108.9,28.6,108.6,28.6z M114.1,33v-2.7c0-0.4,0-0.7,0.1-0.8c0.2-0.6,0.7-1,1.3-0.9c0.2,0,0.5,0,0.7,0.1V27h-0.4
	c-0.8,0-1.5,0.5-1.7,1.3v-1.2h-1.6V33H114.1z M119.6,33.1c1.7,0,3.1-1.4,3.1-3.1c0-0.8-0.3-1.6-0.9-2.2c-1.2-1.2-3.2-1.2-4.4,0
	s-1.2,3.2,0,4.4C118,32.8,118.8,33.1,119.6,33.1z M119.6,31.6c-0.4,0-0.8-0.2-1.1-0.5c-0.3-0.3-0.4-0.7-0.4-1.1
	c0-0.4,0.1-0.8,0.4-1.1c0.5-0.6,1.5-0.7,2.1-0.1c0,0,0.1,0.1,0.1,0.1c0.5,0.6,0.5,1.6,0,2.2C120.4,31.4,120,31.6,119.6,31.6z
	 M126.5,34.9c1.5,0.1,2.8-1.1,2.9-2.6c0-0.1,0-0.2,0-0.3v-4.9h-1.6v0.8c-0.3-0.6-0.9-0.9-1.6-0.9c-0.7,0-1.3,0.3-1.8,0.8
	c-1.1,1.1-1.1,2.9,0,4c0.5,0.5,1.2,0.8,1.9,0.8c0.7,0,1.3-0.3,1.6-0.9V32c0,0.4-0.1,0.8-0.3,1.1c-0.2,0.3-0.6,0.5-1,0.4
	c-0.7,0-1.1-0.2-1.3-0.7l-1.6,0.2c0.1,0.6,0.4,1.1,0.9,1.4C125.2,34.8,125.8,34.9,126.5,34.9z M126.5,31.1c-0.4,0-0.7-0.1-1-0.4
	c-0.2-0.3-0.4-0.6-0.4-1c0-0.4,0.1-0.8,0.4-1c0.3-0.2,0.6-0.4,1-0.4c0.4,0,0.7,0.1,1,0.4c0.2,0.3,0.4,0.6,0.4,1c0,0.4-0.1,0.8-0.4,1
	C127.2,31,126.9,31.1,126.5,31.1z M132.3,33v-2.7c0-0.4,0-0.7,0.1-0.8c0.2-0.6,0.7-1,1.3-0.9c0.2,0,0.5,0,0.7,0.1V27H134
	c-0.8,0-1.5,0.5-1.7,1.3v-1.2h-1.6V33H132.3z M137.8,33.1c0.6,0,1.2-0.2,1.7-0.5c0.5-0.3,0.8-0.8,0.9-1.3l-1.6-0.2
	c-0.3,0.3-0.7,0.5-1.1,0.5c-0.3,0-0.7-0.1-0.9-0.3c-0.3-0.2-0.4-0.5-0.5-0.8h4.1V30c0-0.8-0.3-1.6-0.8-2.2c-0.5-0.6-1.3-0.9-2.1-0.9
	c-0.8,0-1.5,0.3-2,0.9c-0.6,0.6-0.9,1.4-0.9,2.2c0,0.8,0.3,1.6,0.8,2.2C136.1,32.8,136.9,33.1,137.8,33.1z M139,29.5h-2.5
	c0.1-0.3,0.2-0.6,0.4-0.8c0.2-0.2,0.5-0.3,0.8-0.3C138.4,28.4,138.8,28.7,139,29.5z M143.6,33.1c0.5,0,1-0.2,1.4-0.5
	c0.4-0.3,0.6-0.8,0.6-1.3c0-0.4-0.1-0.8-0.3-1.1c-0.3-0.3-0.6-0.6-1-0.8l-0.9-0.4c-0.2-0.1-0.3-0.2-0.3-0.4s0.1-0.3,0.4-0.3
	c0.4,0,0.7,0.2,0.9,0.5l1-1c-0.4-0.6-1.1-1-1.9-1c-0.5,0-1,0.2-1.4,0.5c-0.4,0.3-0.6,0.8-0.6,1.3c0,0.8,0.5,1.4,1.2,1.7l0.9,0.4
	c0.3,0.1,0.5,0.3,0.5,0.5s-0.1,0.3-0.4,0.3c-0.5,0-1-0.3-1.3-0.7l-1.1,0.9C141.7,32.6,142.6,33.2,143.6,33.1z M148.5,33.1
	c0.5,0,1-0.2,1.4-0.5c0.4-0.3,0.6-0.8,0.6-1.3c0-0.4-0.1-0.8-0.3-1.1c-0.3-0.3-0.6-0.6-1-0.8l-0.9-0.4c-0.2-0.1-0.3-0.2-0.3-0.4
	s0.1-0.3,0.4-0.3c0.4,0,0.7,0.2,0.9,0.5l1-1c-0.4-0.6-1.1-1-1.9-1c-0.5,0-1,0.2-1.4,0.5c-0.4,0.3-0.6,0.8-0.6,1.3
	c0,0.8,0.5,1.4,1.2,1.7l0.9,0.4c0.3,0.1,0.5,0.3,0.5,0.5s-0.1,0.3-0.4,0.3c-0.5,0-1-0.3-1.3-0.7l-1.1,0.9
	C146.6,32.6,147.5,33.2,148.5,33.1z M152.2,26.7c0.2,0,0.5-0.1,0.7-0.2c0.2-0.1,0.3-0.4,0.3-0.6c0-0.2-0.1-0.5-0.3-0.6
	c-0.4-0.3-1-0.3-1.4,0c-0.2,0.1-0.3,0.4-0.3,0.6c0,0.2,0.1,0.5,0.3,0.6C151.7,26.6,152,26.7,152.2,26.7z M153,33v-5.9h-1.6V33H153z
	 M157.6,33l2.3-5.9h-1.7l-1.3,3.8l-1.3-3.8h-1.8L156,33H157.6z M163.2,33.1c0.6,0,1.2-0.2,1.7-0.5c0.5-0.3,0.8-0.8,0.9-1.3l-1.6-0.2
	c-0.3,0.3-0.7,0.5-1.1,0.5c-0.3,0-0.7-0.1-0.9-0.3c-0.2-0.2-0.4-0.5-0.5-0.8h4.1V30c0-0.8-0.3-1.6-0.8-2.2c-0.5-0.6-1.3-0.9-2.1-0.9
	c-0.8,0-1.5,0.3-2,0.9c-0.6,0.6-0.9,1.4-0.9,2.2c0,0.8,0.3,1.6,0.8,2.2C161.5,32.8,162.3,33.1,163.2,33.1L163.2,33.1z M164.3,29.5
	h-2.5c0.1-0.3,0.2-0.6,0.4-0.8c0.2-0.2,0.5-0.3,0.8-0.3C163.8,28.4,164.2,28.7,164.3,29.5L164.3,29.5z"/>
<path class="st4" d="M78,156.2c-0.3,0.1-0.6,0.2-0.9,0.4v0.4c0.2,0.1,0.4,0.3,0.6,0.5l0.3-0.1l-0.1-0.2c0.1-0.1,0.3-0.1,0.4-0.1
	c0.3,0,0.5,0,0.7,0.2l0.7-0.2l0.1-0.1C79.4,156.4,78.7,156.1,78,156.2"/>
<path class="st4" d="M76.6,153.4c-0.4,0.4-0.6,0.9-0.5,1.5c0.3-0.3,0.6-0.5,0.9-0.7L76.6,153.4z"/>
<path class="st4" d="M79.3,154.2l0.2-1.1c-0.4-0.2-0.8-0.3-1.2-0.3c-0.4,0-0.8,0.1-1.1,0.3l0.3,1C78.1,154,78.7,154,79.3,154.2"/>
<path class="st4" d="M81.9,154.4c-0.2-0.2-1.4-0.9-1.7-1.1l-0.4,1c0.6,0.2,1.1,0.5,1.6,0.8L81.9,154.4z"/>
<path class="st4" d="M84.3,156c-0.1-0.6-0.3-1.1-0.7-1.5l4.2-1.9L84.3,156z M83.9,162.3c-0.2-0.3-0.4-0.7-0.5-1.1
	c0,0-0.6-1.1-0.7-1.3c-0.2-0.2-0.2-0.6,0-0.8c0.2-0.3,0.5-0.6,0.9-0.8l0.1,1.4c0,0,0.9,1.7,1.3,2.6
	C84.6,162.2,84.3,162.2,83.9,162.3L83.9,162.3z M78.5,163.7l-0.4-1.4L79,161c-0.4,0.2-0.9,0.3-1.3,0.4c-0.2,0.1-0.5-0.1-0.6-0.3
	c0,0,0-0.1,0-0.1c0-0.1-0.1-0.3-0.1-0.4c0-0.1,0.1-0.3,0.2-0.2h0.3l0.2-0.3c-0.1,0-0.3,0-0.4-0.1h-0.4c-0.1-0.1-0.2-0.2-0.2-0.3h1
	v-0.1c-0.3-0.1-0.5-0.2-0.8-0.3c-0.1,0-0.2,0-0.3,0.1v-0.2l0.6-0.5l-0.6-0.3l-0.3,0.1l0.2-1.4l-0.1-0.2l-0.6,0.4v-0.8
	c0-0.2,0.3-0.4,0.5-0.6v-0.5c-0.2,0.2-0.5,0.2-0.7,0.5c-0.2,0.2-0.3,0.5-0.3,0.8c-0.2-0.2-0.2-0.4-0.2-0.7c0.1-0.3,0.2-0.5,0.4-0.7
	c-0.1-0.4-0.1-0.7,0-1.1c0.3-1.2,1.5-2,2.7-1.9c1.2,0.1,2.3,0.6,3.2,1.3c0.7,0.5,1.3,1.1,1.8,1.9c0,0.1,0.1,0.3,0,0.4
	c-0.3-0.4-0.6-0.7-1-1l-0.5,0.7l1,0.9c-0.3,0.2-0.6,0.3-0.9,0.2c-0.5-0.1-1.6-0.7-1.6-1.3c-0.7-0.3-1.4-0.5-2.2-0.5
	c-0.4,0-0.9,0.1-1.3,0.2c-0.2,0.1-0.3-0.1-0.5-0.1h-0.1l0.4,0.6c0.1,0.1,0.4-0.1,0.7-0.1c0.6-0.1,1.3,0,1.9,0.3
	c0.6,0.4,1.2,0.9,1.7,1.4c0.2,0.2,0.6,0.3,0.7,0.1s0.4-0.1,0.4,0s-0.1,0.4,0.1,0.5s0.3-0.1,0.4-0.2s0.2-0.1,0.4,0
	c-0.2,0.3-0.4,0.5-0.6,0.7c-0.2,0.2-0.6,0.4-0.8,0.3v0.4l1,2.4c0.2,0.4,0.4,0.7,0.5,1.1C81.4,162.7,79.9,163.1,78.5,163.7
	L78.5,163.7z M73,166.5c0.3-0.9,0.5-1.8,0.7-2.7c0-0.9,0.4-1.7,1-2.3c0.4-0.3,0.8-0.4,1.3-0.3l1.1,2.3c0.2,0.2,0.4,0.3,0.7,0.3
	C76.1,164.4,74.4,165.4,73,166.5z M72,167.2c-0.3,0.5-1.2,1.6-1.5,2c0.4-1.1,0.6-2.3,0.6-3.5c-0.2-1.3-0.2-2.5,0-3.8
	c0.1-1.1,0.6-2.1,1.4-2.8c0.7-0.6,1.6-0.8,2.5-0.6l1,1.9c-0.6-0.1-1.2,0-1.7,0.4c-0.9,0.7-1.4,1.9-1.3,3
	C72.9,165,72.6,166.1,72,167.2L72,167.2z M68.8,155.7c-0.1-0.1-0.3-4.9-0.4-6.5v-0.5l0.4-0.3v-0.1c-0.3,0-0.5-0.1-0.7-0.3l-0.1-2
	c-0.3,0-0.7-0.1-0.9-0.3c-0.2-0.1-0.3-0.3-0.1-0.7c0.3,0.2,0.7,0.3,1.1,0.3c0.1,0,0.3,0.2,0.4,0.3c0.2,0,0.3,0.1,0.5,0.1
	c0.1,0,0.1,0.3,0.2,0.3l0,0c0.1,0.3,3.3,8.7,3.4,8.8s0.2,1.5,0.3,1.7c0.2,0.5,0.4,1,0.6,1.4c-0.6,0-1.3,0.3-1.7,0.8
	c-0.6,0.7-1,1.5-1.2,2.4C70.4,160.8,68.8,155.8,68.8,155.7z M68.1,150.4c-0.3-0.2-0.6-0.3-1-0.3c-0.4,0-0.7,0.1-1,0.3
	c-0.1-0.2-0.1-0.3,0-0.5c0.1-0.2,0.2-0.2,0.2-0.2l-0.1-1.8c0.2-0.2,0.4-0.3,0.6-0.4c0.1,0,0.2-0.1,0.2-0.3l0.7,0.7
	c0.2,0.2,0.3,0.5,0.3,0.8v1c0.1,0.1,0.2,0.2,0.2,0.3S68.1,150.2,68.1,150.4z M65.9,147.5c-0.1,0.1-0.2,0.3-0.3,0.5
	c-0.2-0.1-0.3-0.5-0.4-0.7c0.1-0.2,0.3-0.4,0.6-0.5h-0.7c-0.1-0.1-0.1-0.4-0.1-0.6h0.3l-0.2-0.3c0.4-0.3,0.8-0.5,1.3-0.5v0.4
	c0,0.1,0,0.2-0.1,0.2l-0.3,0.1h0.7c0.1,0,0.2,0,0.2,0.2c0,0.1,0,0.2-0.1,0.3c-0.1,0.1-0.3,0.1-0.4,0.1v0.3c0,0.1,0,0.2-0.1,0.2
	S66,147.4,65.9,147.5z M68.7,145c-0.5-0.4-1-0.6-1.6-0.6c-0.8,0-1.4,0.4-1.4,0.6c-0.1-0.3,0-0.6,0.2-0.8c0.3-0.2,0.7-0.4,1.1-0.4
	c0.5,0,0.9,0.1,1.3,0.4C68.6,144.4,68.7,144.7,68.7,145z M64,144.6c0-0.3-0.1-0.4-0.1-0.7s0.3-0.7,0.4-1c0.1-0.2,0-0.5-0.1-0.7
	c0.1,0,0.4,0.1,0.5,0.1c0.2,0,0.3-0.2,0.4-0.3c0.1-0.2,0.2-0.3,0.4-0.3s0.5,0.2,0.8,0.1s0.5-0.5,0.8-0.5s0.5,0.4,0.8,0.4
	s0.7-0.3,1-0.2s0.1,0.6,0.4,0.7s0.7,0,0.8-0.1c0,0.3-0.1,0.4-0.1,0.6c0.1,0.3,0.2,0.7,0.4,1c0,0.3,0,0.5-0.1,0.8
	c0-0.8-1-1.8-3.1-1.9C65.3,142.6,64,143.4,64,144.6L64,144.6z M65.4,139.5c0-0.8,0.7-1.3,1.5-1.3c0,0,0,0,0,0c0.5,0,1,0.1,1.3,0.1
	c0.4,0,0.8-0.1,1.2-0.2c0.1,0.2,0.1,0.5-0.1,0.7c0.4,0.1,0.9,0.2,1.3,0.2c0.5,0,1-0.2,1.3-0.6c0.1,0.3,0,0.7-0.2,1
	c-0.5,0.5-1.8,0.7-2.1,1s-0.5,0.3-0.6,0.5c-0.1-0.1-0.2-0.2-0.4-0.2c-0.2,0-0.3,0.3-0.6,0.2s-0.5-0.5-0.9-0.5s-0.8,0.4-1,0.4
	s-0.3-0.2-0.4-0.3C65.5,140.2,65.4,139.9,65.4,139.5L65.4,139.5z M74.6,156.5l-1.1-0.8c0-0.3-0.1-0.7-0.1-0.9v-0.1l1.4,0.7
	c-0.1,0.2-0.2,0.3-0.2,0.5C74.6,155.9,74.6,156.5,74.6,156.5z M76.3,152.2c-0.5,0.3-0.8,0.7-1,1.2l-2.6-4.4L76.3,152.2z M78.6,145.8
	l1,5.9c-0.6-0.2-1.2-0.3-1.8-0.2L78.6,145.8z M84.9,148.9l-2.2,4.7c-0.4-0.4-0.9-0.7-1.5-1L84.9,148.9z M89,151.8
	c-0.1-0.1-0.3,0-0.3,0l-3.3,1.2l-0.9-1.8l1.1-3c0,0,0.1-0.3,0-0.4s-0.3,0.1-0.3,0.1l-2,1.6c-0.8-0.8-1.7-1.5-2.7-2
	c-0.4-0.2-0.8-0.3-1.2-0.4l-0.6-2.4c0,0-0.1-0.2-0.2-0.2s-0.2,0.2-0.2,0.2l-0.4,2.2c-0.4-0.1-0.9-0.1-1.3-0.1
	c-1.3,0-2.7,0.3-3.9,0.8c-0.5,0.2-1,0.5-1.4,0.8l-0.2,0.2c-0.4-1.1-0.7-1.9-0.8-2.2c0.4-0.4,0.6-1,0.8-1.5c0.2-0.5,0.1-1.1-0.1-1.6
	c-0.1-0.3-0.2-0.7-0.3-1c0-0.2,0.1-0.3,0.2-0.4c0-0.2-0.1-0.4-0.3-0.4c0,0,0,0-0.1,0h-0.5c-0.1,0-0.2,0-0.1-0.2
	c0.1-0.4,0.9-0.6,1.5-0.8c0.8-0.3,1.3-1,1.3-1.8c0-0.6-0.3-1.1-0.8-1.4c-0.2,0.3-0.5,0.5-0.8,0.7c-0.3,0.1-0.6,0.2-0.9,0.1
	c0-0.4-0.2-0.8-0.5-1.1c-0.3,0.3-0.7,0.5-1.2,0.5c-0.7,0-0.7-0.2-1.6-0.2c-1.2-0.1-2.3,0.8-2.5,2c-0.1,0.6,0,1.2,0.3,1.7l-0.6,0.6
	c-0.2-0.2-0.4-0.2-0.6,0c0.1,0.2,0.1,0.4,0,0.6c-0.3,0.6-0.5,1.2-0.6,1.8c-0.1,1,0.4,2,1.3,2.4c-0.2,0.1-0.2,0.4-0.1,0.6
	c0.1,0.1,0.2,0.2,0.4,0.2c-0.2,0.2-0.2,0.5-0.1,0.7c0.1,0.3,0.4,0.7,0.7,0.7c0,0.3,0.1,0.7,0.2,1c-0.1,0.2-0.2,0.4-0.2,0.6
	c0,0.3,0.2,0.6,0.5,0.7c0.1,0.2,0.1,0.3,0.2,0.5l0.4,0.4c0.2,0.1,0.5,0.2,0.7,0.2h0.6c0,0.5,0,1.1,0.1,1.6c-0.7,2.1-1,4.4-1,6.6l0,0
	c0,4.3,1.2,8.1,3.5,10.6c0.1,0.2,0.3,0.3,0.5,0.4c0.5-0.9,1.1-1.8,1.8-2.7c0.3-0.4,0.6-0.7,0.9-1c0.5-0.5,1-0.9,1.6-1.3
	c1.4-1,2.9-1.7,4.6-2c-1.6,0.8-3.1,1.7-4.4,2.8c-1.5,1.3-2.8,2.9-3.8,4.7c0.3,0.2,0.7,0.3,1,0.3c0.9-1.6,2.1-3.1,3.4-4.4
	c2.9-2.8,6.7-4.4,10.7-4.4c0.1-1,0.2-2.1,0.2-3.1c0-1.6-0.2-3.3-0.5-4.9L89,152C88.9,152.1,89.1,151.9,89,151.8L89,151.8z"/>
<path class="st0" d="M12.8,66.3v-9.2c0-2.3,1.9-4.2,4.2-4.2h280.7c2.3,0,4.2,1.9,4.2,4.2v68.2c0,2.3-1.9,4.2-4.2,4.2H17
	c-2.3,0-4.2-1.9-4.2-4.2V80.5"/>
<path class="st1" d="M12.8,66.3v-9.2c0-2.3,1.9-4.2,4.2-4.2h280.7c2.3,0,4.2,1.9,4.2,4.2v68.2c0,2.3-1.9,4.2-4.2,4.2H17
	c-2.3,0-4.2-1.9-4.2-4.2V80.5"/>
<path class="st2" d="M238.9,102.8v-4c1.5-0.1,3-0.6,4.1-1.6c1-0.9,1.5-2.2,1.5-3.5c0.1-1.3-0.4-2.6-1.2-3.6
	c-0.8-0.8-1.7-1.4-2.7-1.8l-3.6-1.4c-0.9-0.4-1.4-0.9-1.4-1.5c0-0.4,0.2-0.8,0.5-1c0.4-0.3,0.8-0.5,1.3-0.4c1.1,0,2,0.7,2.8,2
	l3.6-1.8c-0.8-2-2.7-3.4-4.8-3.8v-3.8h-2v3.7c-1.5,0-2.8,0.6-3.9,1.6c-1,0.9-1.5,2.2-1.5,3.6c0,2.3,1.2,3.9,3.8,4.8l3.4,1.3
	c1.2,0.4,1.8,1.1,1.8,1.9c0,0.5-0.2,0.9-0.6,1.2c-0.5,0.3-1,0.4-1.6,0.4c-0.8,0-1.6-0.2-2.2-0.6c-0.6-0.6-1.1-1.3-1.3-2.1l-3.7,1.5
	c0.3,1.3,1.1,2.5,2.1,3.3c1.1,0.9,2.5,1.5,3.9,1.5v4L238.9,102.8L238.9,102.8z M253.9,102.8v-4c1.5-0.1,3-0.6,4.1-1.6
	c1-0.9,1.5-2.2,1.5-3.5c0.1-1.3-0.4-2.6-1.2-3.6c-0.8-0.8-1.7-1.4-2.7-1.8l-3.6-1.4c-0.9-0.4-1.4-0.9-1.4-1.5c0-0.4,0.2-0.8,0.5-1
	c0.4-0.3,0.8-0.5,1.3-0.4c1.1,0,2,0.7,2.8,2l3.6-1.8c-0.8-2-2.7-3.4-4.8-3.8v-3.8h-2v3.7c-1.5,0-2.8,0.6-3.9,1.6
	c-1,0.9-1.5,2.2-1.5,3.6c0,2.3,1.2,3.9,3.8,4.8l3.4,1.3c1.2,0.4,1.8,1.1,1.8,1.9c0,0.5-0.2,0.9-0.6,1.2c-0.5,0.3-1,0.4-1.6,0.4
	c-0.8,0-1.6-0.2-2.2-0.6c-0.6-0.6-1.1-1.3-1.4-2.1l-3.7,1.5c0.3,1.3,1.1,2.5,2.1,3.3c1.1,0.9,2.5,1.4,3.9,1.5v4L253.9,102.8
	L253.9,102.8z"/>
<path class="st3" d="M263.5,98.5l3.1-8.6h-1.2l-3.1,8.6H263.5z M268.5,98.5V95c0-0.3,0-0.6,0.1-0.9c0.1-0.3,0.2-0.5,0.4-0.7
	c0.2-0.2,0.4-0.3,0.7-0.3c0.5,0,0.9,0.3,1,0.8v4.4h1.4V95c0-0.3,0-0.6,0.1-0.9c0.1-0.3,0.2-0.5,0.4-0.7c0.2-0.2,0.4-0.3,0.7-0.3
	c0.5,0,0.9,0.3,1,0.8v4.4h1.4v-4.1c0-0.4,0-0.8-0.1-1.2c-0.1-0.4-0.3-0.7-0.6-1c-0.3-0.3-0.8-0.4-1.2-0.4c-0.4,0-0.8,0.1-1.1,0.4
	c-0.3,0.3-0.6,0.6-0.8,0.9c-0.1-0.4-0.4-0.7-0.7-0.9c-0.3-0.2-0.7-0.3-1.1-0.3c-0.8,0-1.5,0.5-1.8,1.2v-1h-1.4v6.5h1.6V98.5z
	 M281,98.7c0.9,0,1.8-0.3,2.4-1c0.7-0.6,1-1.5,1-2.4c0-0.9-0.3-1.8-1-2.4c-0.7-0.6-1.5-1-2.4-1c-1.9,0-3.4,1.5-3.4,3.4
	c0,0.9,0.3,1.8,1,2.4C279.2,98.4,280.1,98.7,281,98.7z M281,97.3c-0.5,0-1-0.2-1.4-0.6c-0.8-0.8-0.8-2.2,0-3c0.7-0.8,2-0.8,2.7-0.1
	c0,0,0,0,0.1,0.1c0.4,0.4,0.6,0.9,0.6,1.5c0,0.5-0.2,1-0.6,1.4C282.1,97.1,281.6,97.3,281,97.3z"/>
<path class="st3" d="M92.6,97v-7.2l4.5,7.2h2.6V85.5h-2.3v7.4l-4.7-7.4h-2.4V97H92.6z M108.9,97.2c0.3,0,0.5,0,0.8-0.1v-2
	c-0.1,0-0.2,0.1-0.3,0.1c-0.3,0-0.4-0.2-0.4-0.5v-3.1c0-0.7-0.1-1.3-0.4-1.9c-0.6-1.1-1.8-1.7-3.1-1.6c-0.9,0-1.9,0.2-2.6,0.8
	c-0.6,0.5-1,1.3-1.1,2.1l2.3,0.1c0.1-0.6,0.7-1.1,1.3-1c0,0,0,0,0,0c0.3,0,0.7,0.1,0.9,0.3c0.2,0.2,0.4,0.4,0.4,0.7
	c0,0.3-0.2,0.5-0.6,0.6l-1.6,0.3c-0.8,0.1-1.5,0.4-2.2,0.9c-0.5,0.4-0.7,1.1-0.7,1.7c0,0.7,0.3,1.3,0.8,1.8c0.5,0.5,1.2,0.7,1.9,0.7
	c1,0,2-0.5,2.6-1.4C107.1,96.7,107.9,97.3,108.9,97.2z M104.7,95.4c-0.3,0-0.6-0.1-0.8-0.2c-0.3-0.2-0.4-0.7-0.1-1.1
	c0-0.1,0.1-0.1,0.1-0.1c0.3-0.2,0.6-0.3,0.9-0.4l0.8-0.2c0.4-0.1,0.7-0.2,0.8-0.4v0.5c0,0.5-0.2,1.1-0.5,1.5
	C105.6,95.3,105.1,95.4,104.7,95.4z M113.7,97v-6.5h1.6v-2.1h-1.6v-2.1l-2.3,0.3v1.8h-1.6v2.1h1.6V97L113.7,97z M117.6,87.8
	c0.4,0,0.7-0.1,1-0.3c0.5-0.4,0.5-1.2,0.1-1.7c0,0-0.1-0.1-0.1-0.1c-0.3-0.2-0.6-0.3-1-0.3c-0.4,0-0.7,0.1-1,0.3
	c-0.2,0.2-0.4,0.6-0.4,0.9c0,0.3,0.1,0.7,0.4,0.9C116.9,87.7,117.2,87.8,117.6,87.8z M118.8,97v-8.7h-2.3V97L118.8,97z M124.9,97.2
	c1.2,0.1,2.4-0.4,3.2-1.3c0.8-0.9,1.3-2,1.3-3.2c0.1-1.2-0.4-2.4-1.3-3.2c-0.9-0.8-2.1-1.3-3.3-1.3c-1.2,0-2.4,0.4-3.3,1.3
	c-0.9,0.8-1.3,2-1.3,3.2c-0.1,1.2,0.4,2.4,1.3,3.2C122.4,96.7,123.6,97.2,124.9,97.2z M124.9,95c-0.6,0-1.2-0.2-1.6-0.7
	c-0.8-1-0.8-2.4,0-3.4c0.8-0.9,2.2-0.9,3.1-0.1c0,0,0.1,0.1,0.1,0.1c0.4,0.5,0.6,1.1,0.6,1.7c0,0.6-0.2,1.2-0.6,1.6
	C126.1,94.7,125.5,95,124.9,95z M133.4,97v-4.7c0-0.3,0-0.7,0.1-1c0.1-0.7,0.7-1.1,1.4-1.1c0.6-0.1,1.1,0.3,1.2,0.9c0,0,0,0.1,0,0.1
	V97h2.3v-5.4c0-0.5,0-1.1-0.1-1.6c-0.1-0.6-0.4-1.1-0.9-1.4c-0.5-0.4-1.1-0.6-1.7-0.5c-1.1,0-2.1,0.6-2.5,1.6v-1.4H131V97L133.4,97z
	 M144.5,97l1.7-5.3l1.7,5.3h2.5l2.7-8.7h-2.6l-1.3,5.4l-1.6-5.4H145l-1.6,5.4l-1.2-5.4h-2.7L142,97L144.5,97z M155.3,87.8
	c0.4,0,0.7-0.1,1-0.3c0.5-0.4,0.5-1.2,0.1-1.7c0,0-0.1-0.1-0.1-0.1c-0.3-0.2-0.6-0.3-1-0.3c-0.4,0-0.7,0.1-1,0.3
	c-0.5,0.4-0.5,1.2-0.1,1.7c0,0,0.1,0.1,0.1,0.1C154.6,87.7,154.9,87.8,155.3,87.8z M156.5,97v-8.7h-2.3V97L156.5,97z M161.9,97.2
	c1.1,0.1,2.1-0.4,2.7-1.3V97h2.3V85.5h-2.3v4c-0.6-0.9-1.6-1.4-2.6-1.3c-1.1,0-2.1,0.5-2.8,1.3c-0.8,0.9-1.2,2-1.1,3.2
	c0,1.2,0.4,2.4,1.1,3.3C159.8,96.8,160.9,97.3,161.9,97.2z M162.6,95.1c-0.6,0-1.1-0.2-1.5-0.7c-0.4-0.5-0.6-1.1-0.6-1.7
	c0-0.7,0.2-1.3,0.6-1.8c0.4-0.4,0.9-0.6,1.5-0.6c0.6,0,1.1,0.2,1.5,0.7c0.4,0.5,0.6,1.1,0.6,1.7c0.1,0.7-0.2,1.3-0.6,1.8
	C163.7,94.9,163.2,95.1,162.6,95.1L162.6,95.1z M172.9,97.2c0.9,0,1.8-0.2,2.5-0.7c0.7-0.4,1.1-1.1,1.3-1.9l-2.3-0.2
	c-0.4,0.5-1,0.8-1.6,0.8c-0.5,0-1-0.2-1.4-0.5c-0.4-0.3-0.6-0.7-0.7-1.2h6v-0.7c0-1.2-0.4-2.3-1.1-3.2c-0.8-0.9-1.9-1.3-3.1-1.3
	c-1.1,0-2.2,0.5-3,1.3c-0.9,0.9-1.3,2.1-1.2,3.3c-0.1,1.2,0.4,2.4,1.2,3.3C170.5,97,171.7,97.3,172.9,97.2z M174.5,91.9h-3.7
	c0.1-0.5,0.3-0.9,0.6-1.2c0.3-0.3,0.8-0.4,1.2-0.4C173.5,90.2,174.4,90.9,174.5,91.9C174.5,91.8,174.5,91.9,174.5,91.9L174.5,91.9z"
	/>
<path class="st1" d="M6,69c-1.7-1.3-3.3-2.7-5-4"/>
<line class="st1" x1="8" y1="76" x2="3" y2="80"/>
<path class="st5" d="M78.4,29.5c0.9,0,1.7-0.5,2-1.3c0.1-0.2,0.8-1.7,1.8-3.7c0.7-1.4,0.2-1.8-0.6-1.8h-3.4L75,29.5H78.4z M69.5,41
	H64l10.5-22h10.1c2.3,0,4.5,1.8,2.7,5.6c-1,2.2-1.9,4-2.3,4.9c-1.4,2.8-3.2,3.8-6.6,3.8h-5.3L69.5,41z"/>
<path class="st6" d="M76,222.2c-7.2,0-13-5.1-13-10.9c0-2.3,0.9-4.4,2.4-6.1l0.3,0.3c0.4,0.2,0.8,0.5,1.1,0.9c-0.1,0-0.3,1-0.3,1
	c-0.4,0.7-0.6,1.6-0.7,2.4v0.1l0.3,1.5v0.1c0.1,0.8,0.2,1.6,0.4,2.4c0,0.2,0,0.3,0.1,0.4c0.8,1,1.5,2,2,3.2c0,0.1,0,0.1,0.1,0.1
	c0,0,0,0,0,0c0.1,0.2,0.2,0.3,0.3,0.5c0.2,0.1,0.5,0.1,0.7,0c0.4-0.3,0.8-0.7,1-1.2c0.1,0.1,0.3,0.3,0.3,0.4c-0.4,0.4-0.3,1,0.1,1.4
	c0.3,0.2,0.7,0.3,1,0.2c-0.3,0.8,0.8,1.5,1.7,1c0.1,0.4,0.5,0.7,1,0.7c0.6,0.1,1.2,0.1,1.8,0.1c1-0.1,2.1-0.3,3-0.8
	c0.7-0.3,1.4-0.9,1.8-1.6l0.1-0.1c0.1,0.2,0.2,0.4,0.4,0.5c0.2,0.3,0.6,0.4,0.9,0.4c0.2-0.1,0.4-0.1,0.4-0.4
	c0.5-1.2,1.3-2.3,2.2-3.3l0.1-0.1c0.2-0.7,0.8-2.2,1.1-3l0.2-0.7v-0.1c0-0.2,0.1-0.5,0.1-0.7c0-1-0.1-2-0.5-3
	c-0.1-0.3-0.2-0.6-0.4-0.9l-0.1-0.3c0.3-0.4,0.7-0.7,1.1-0.9c1.3,1.6,2,3.6,2,5.6C88.9,217.1,83.1,222.2,76,222.2 M81,201.6
	l-0.9,0.9c-0.5,0.5-1,1-1.6,1.5c-0.8,0.3-1.5,0.9-1.9,1.7l-0.2,0.6c-0.2-0.6-0.5-1.2-0.9-1.7c-0.4-0.5-1-0.9-1.6-1.2
	c-0.3-0.3-1.6-1.5-2.3-2.1c1.4-0.3,2.9-0.5,4.4-0.5C77.7,200.8,79.4,201.1,81,201.6 M72.2,218.4c-0.8,0.1-1.1-0.4-0.9-0.7
	C71.6,217.9,71.9,218.1,72.2,218.4 M74,219.2c-1.1,0.5-1.7,0.1-1.4-0.5C73,218.9,73.6,219,74,219.2 M86.3,205l-0.1,0.1
	c-0.4,0.3-0.8,0.4-1.3,0.4c0-0.1-0.4-0.2-0.4-0.2H84l0.1,0.1c0.3,0.4,0.4,0.6,0.6,0.9l0.1,0.2l0.2,0.3l0.1,0.4l0.1,0.1l0.1,0.2
	l0.3,1c0.3,0.9,0.4,1.8,0.4,2.7l0,0l-0.3,1c-0.4,0.9-0.7,1.8-0.9,2.8v0.1c-0.9,0.8-1.6,1.8-2,2.9l-0.1,0.1c-0.1,0-0.2-0.1-0.3-0.2
	c-0.3-0.3-0.4-0.8-0.4-1.2c0-0.6,0.3-1.1,0.7-1.4c0.1-0.1,0.1-0.1,0.1-0.2c-0.1-0.7,0.1-1.4,0.5-2l0.1-0.1l-0.1-0.1
	c-1.3-0.9-1.7-2.6-2-3.9l0,0l-0.1,0.1c-0.1,0-0.1,0-0.1,0.1l0,0c-0.1,0.2-0.1,0.5-0.1,0.7c0,0.7,0.1,1.2,0.1,1.5
	c0.2,0.7,0.6,1.3,1,1.9v0.1c-0.1,0.5-0.2,1-0.3,1.5c0,0.1,0.1,0.3,0.1,0.4c-0.5,0.4-0.7,0.9-0.7,1.5v0.4l-0.2,0.4v0.1
	c-0.5,0.7-1.1,1.3-1.9,1.7c-1.3,0.6-2.7,0.8-4.1,0.7c-0.4-0.1-0.4-0.4-0.4-0.4s0.1-0.1,0.1-0.2l0.1-0.1c0.9,0.1,1.9,0,2.8-0.3
	l0.1-0.3l0.1-0.1h-0.1c-1.4,0.2-2.7,0.1-4-0.5c-1.1-0.4-2-1.2-2.5-2.2l-0.3-0.4c0-0.3-0.1-0.6-0.2-0.9c-0.1-0.2-0.3-0.4-0.5-0.5
	c0.1-0.3,0.1-0.5,0.1-0.8c0-0.4-0.1-0.7-0.2-1.1c0.6-0.4,1-1,1.1-1.7c0-0.2-0.1-0.5-0.2-0.7l-0.4-0.2l0.1,0.2c0.1,1-0.9,1.8-1.6,2.2
	l-0.1,0.2l0,0c0.6,0.3,0.6,1.4,0.4,2.1l0.1,0.1l0.3,0.2c0.5,0.7,0.4,1.7-0.1,2.4c-0.1,0.1-0.1,0.1-0.2,0.1c-0.1,0-0.2-0.1-0.2-0.2
	l-0.2-0.3c-0.5-1-1-1.9-1.7-2.8l-0.1-0.1c-0.1-1.1-0.3-2.3-0.5-3.4l-0.1-0.5v-0.2c0-1,0.3-1.9,0.7-2.8l0.2-0.6l0.2-0.5v-0.1
	c0.3-0.3,0.6-0.6,0.9-0.9l0.3-0.1l-0.3-0.1c-0.3,0-0.6,0.1-0.8,0.3h-0.1c-0.4,0-0.7,0.3-1,0.1c-0.3-0.2-0.6-0.4-0.8-0.6
	c1.4-1.2,3-2.1,4.8-2.7l0.3,0.3l0.6,0.5l0.3,0.3c0.2,0.1,0.3,0.2,0.4,0.4l-0.1,0.1l-0.1,0.1l-0.1,0.3h0.1c0.9-0.3,1.6,0.4,2.1,0.9
	c0.9,0.9,1.5,2,1.7,3.3l0.6,3.5l0.3,0.5L77,212l0.1,0.2c0.1,0.1,0.2,0.3,0.3,0.4l0.4,0.2l0.5,0.5l0.1,0.1l0.2,0.2
	c0,0.1,0.7,0.1,0.7,0.1c1.2,0.1,1.1,0.8,1.1,0.8s0.7-1-1-1.5c0,0-0.5-0.1-0.6-0.1l-0.1-0.3c-0.1,0-0.1,0-0.1-0.1l0,0l-0.6-0.2
	l-0.2-0.1c-0.1-0.2-0.1-0.4-0.2-0.6l-0.3-0.7c-0.1-0.4-0.2-0.7-0.2-1.1l-0.1-0.3l-0.2-1.5l0.1-0.3c0.1-0.6,0.3-1.2,0.6-1.7
	c0.3-0.5,0.7-0.9,1.1-1.2c0.6-0.3,1.2-0.6,1.8-0.7c0.2,0,0.2-0.1,0.2-0.2v-0.2l0,0c-0.2,0-0.4,0-0.6-0.1l0,0l0.2-0.2l0.4-0.4
	l0.2-0.2c0.3-0.3,0.6-0.6,0.9-0.9C83.5,202.5,85,203.6,86.3,205 M76,200c-8.3,0-15,5.1-15,11.3S67.7,223,76,223s15-5.4,15-11.7
	S84.3,200,76,200"/>
<path class="st6" d="M79.5,214.9l-0.8-0.1l-0.4-0.3l-0.6-0.3l-0.1-0.1l-0.4-0.2L76,212c0-0.2,0-0.5-0.1-0.7l-0.1,0.2
	c-0.1,0.2-0.4,0.5-0.6,0.6l-0.1,0.1l1.2,1.7l0.1,0.1l0.3,0.4l0.5,0.3l0.1,0.1l0.6,0.4l0.5,0.3h0.1l0.8,0.1c0.3,0,0.6,0.1,0.9,0.3
	c0.2,0.2,0.3,0.6,0.2,0.9c0.3-0.3,0.4-0.8,0.2-1.2C80.4,215.2,80,214.9,79.5,214.9"/>
<path class="st6" d="M77.8,216.1l-0.4-0.3l-0.1-0.1l-0.7-0.4l-0.6-0.2l-0.1-0.2c-0.2-0.3-0.4-0.7-0.7-1H75c-0.2-0.2-0.3-0.5-0.4-0.7
	c0.1-0.2,0.1-0.5,0-0.7c-0.1,0.1-0.1,0.2-0.2,0.3c-0.1,0.1-0.4,0.4-0.6,0.4l-0.1,0.1l1.5,2l0.1,0.3l0.1,0.1l0.5,0.2
	c0.4,0.1,0.8,0.4,1,0.4l0.6,0.4c0.3-0.1,0.7-0.1,1,0c0.4,0,0.8,0.1,1.1,0.4c0.1,0.3,0.1,0.6-0.1,0.8c0.1-0.1,0.6-0.4,0.6-0.9
	C79.9,216.5,79.5,216.1,77.8,216.1"/>
<path class="st6" d="M77,217.2h-1l-0.5-0.3l-0.2-0.1c-0.2-0.1-0.5-0.2-0.7-0.4l-0.5-0.1c-0.1-0.2-0.2-0.4-0.4-0.6l-0.1-0.2l-0.4-0.6
	l-0.2-0.2c0-0.1-0.1-0.3-0.2-0.4c0.1-0.2,0.2-0.5,0.2-0.7l-0.2,0.2c-0.3,0.2-0.6,0.4-1,0.4h-0.1l1.1,1.5l0.6,0.7l0.3,0.3l0.6,0.4
	l0.5,0.4h0.1l0.4,0.2l0.6,0.3l0.1,0.1l0.8-0.1c0.4,0,0.9,0,1.3,0.1c0.2,0.1,0.4,0.4,0.3,0.6c0.2-0.2,0.4-0.4,0.4-0.7
	C78.4,217.4,77.7,217.1,77,217.2"/>
<path class="st7" d="M61.1,269.4L61.1,269.4c-0.1,0-0.1,0-0.1-0.1l0,0c3.6-7.9,12.8-11.4,20.8-8c3.6,1.6,6.5,4.4,8.1,8v0.1l0,0
	c-1.4-0.7-2.9-1.1-4.4-1c-1.7-0.1-3.5,0.4-4.9,1.4h-0.2c-3-1.8-6.8-1.8-9.8,0h-0.1c-1.4-1-3.2-1.5-4.9-1.5
	C64,268.3,62.5,268.7,61.1,269.4z"/>
<path class="st7" d="M76.3,269.5L76.3,269.5c-0.3-0.1-0.6-0.1-0.9-0.1h-0.6c-0.1,0-0.1,0-0.1,0.1l0,0v12.7c0,0.7-0.6,1.3-1.3,1.3
	c-0.6,0-1.1-0.3-1.3-0.9c-0.1-0.4-0.6-0.6-0.9-0.4c0,0,0,0-0.1,0c-0.4,0.1-0.6,0.5-0.5,0.9c0,0,0,0,0,0c0.6,1.5,2.2,2.3,3.8,1.8
	c1.1-0.4,1.9-1.5,1.9-2.7L76.3,269.5z"/>
<path class="st8" d="M59.6,105.6H68v-28h-7.7V95L58,92.9V79c0-8.1,1-12,1-12c-2.6,0-4,2.5-4.3,3.2c-1.6,0.2-2.9,1.2-3.5,2.7
	c-0.4,0.7-0.6,1.5-0.8,2.3c-3.1,0.7-3.4,6.2-3.2,7.2l-4.8-4.7H34v28h7.7v-17l3.7,3.6c0.1,0.5,0.4,1,0.7,1.4l-1.5-1.3
	c-0.3,1.8,0.1,3.7,1.2,5.2L44,96.1c-0.2,1.9,0.6,3.8,2,5.1l-2.4-1.1c-0.2,1.6,1.5,4,2.4,4.5l-2-0.3c0.2,1.3,0.9,2.4,2,3.1
	c0,0-3.4-0.1-5-0.1c-2.4,0-4.8,0.1-7.2,0.3c1.2,1.1,2.8,1.8,4.4,2l-2,1.4c1,0.3,2.1,0.4,3.1,0.3l-1.3,1.6c0,0,4-1.5,5.7-1.4
	c1.3,0.1,7.6,2.5,11.8,2.5c2.3-0.1,4.5-0.7,6.5-1.9c0.8-0.5,1.7-0.9,2.7-1.1c0.7-0.2,1.5-0.1,2.2,0.3c0.2-0.6,0.6-2.3-1.8-2.7
	c-0.1-0.6-0.5-1-1.1-1.1c-1.3-0.2-6.9-0.6-7.1-0.6c-0.5,0-2.1-0.3-0.6-2.5c0.3-0.4,0.6-0.7,0.9-1.1L59.6,105.6z M59.4,107.7
	c1.8,0.1,3.1,0.3,4.4,0.4c0.4,0.1,0.7,0.5,0.8,0.9c-0.5-0.1-1.1-0.2-1.6-0.2l-0.1,0.6c0.6-0.1,1.2-0.2,1.8-0.3c0,0,1.9,0,1.8,1.3
	c-0.5-0.4-1.6-0.2-1.9-0.2c-1,0.2-2,0.6-2.9,1.1c-1,0.6-2.1,1.1-3.2,1.5c0.5-0.5,1.9-2.1,1.9-2.1l-1.9-0.7l1.5-1.3l-2.4-1.3
	C57.6,107.4,59.4,107.7,59.4,107.7z M56.7,102.7c-0.9,1-2,2.4-1.7,3.5c0.1,0.9,1.4,1.4,1.4,1.4L59,109l-1.7,1.5l2,0.6l-2.1,2.1
	c-0.6,0.1-1.1,0.1-1.7,0.1c-4.3,0-10.2-2.5-11.7-2.6c-1.4,0.1-2.7,0.4-4,1l1.2-1.3c-1,0.2-2,0.2-3,0.2l2-1.3c-1.5,0-2.9-0.4-4.2-1.1
	c0,0,3.4-0.3,8-0.2c1.9,0,5,0.2,5,0.2c-1.6-0.7-3-1.5-3.6-3.1l3,0.4c-1.2-0.8-3.1-2.7-3.4-4.2l3.3,1.1c-0.6-0.6-2.6-2.6-3-4.8
	l2.6,1.6c-0.7-0.7-2.5-4.3-2.2-5.4l2.4,1.7c-1.2-1.4-2.5-5.3-1.6-6.8c0.3,1.6,1.1,3,2.4,3.9c-1.1-1.6-3.4-7.2-1.2-9.6
	c0.6,5.6,2.9,7.4,2.9,7.4c-2-3.1-4.2-12.7,0-14.6c-0.8,6.1,1.1,9.5,1.1,9.5c-1.3-5.7-1.2-13.7,3-14.4c-1.3,3.4-1.5,7.2-0.6,10.7
	c-0.3-14,4.2-13.8,4.2-13.8c-0.6,3.7-0.8,7.5-0.7,11.2v20.7C57.5,100.8,57.3,101.8,56.7,102.7z"/>
<path class="st0" d="M59.4,107.7c1.8,0.1,3.1,0.3,4.4,0.4c0.4,0.1,0.7,0.5,0.8,0.9c-0.5-0.1-1.1-0.2-1.6-0.2l-0.1,0.6
	c0.6-0.1,1.2-0.2,1.8-0.3c0,0,1.9,0,1.8,1.3c-0.5-0.4-1.6-0.2-1.9-0.2c-1,0.2-2,0.6-2.9,1.1c-1,0.6-2.1,1.1-3.2,1.5
	c0.5-0.5,1.9-2.1,1.9-2.1l-1.9-0.7l1.5-1.3l-2.4-1.3L59.4,107.7 M56.7,102.6c-0.9,1-2,2.4-1.7,3.5c0.1,0.9,1.4,1.4,1.4,1.4l2.6,1.4
	l-1.7,1.5l2,0.6l-2.1,2.1c-0.6,0.1-1.1,0.1-1.7,0.1c-4.3,0-10.2-2.5-11.7-2.6c-1.4,0.1-2.7,0.4-4,1l1.2-1.3c-1,0.2-2,0.2-3,0.2
	l2-1.3c-1.5,0-2.9-0.4-4.2-1.1c0,0,3.4-0.3,8-0.2c1.9,0,5,0.2,5,0.2c-1.6-0.7-3-1.5-3.6-3.1l3,0.4c-1.2-0.8-3.1-2.7-3.4-4.2l3.3,1.1
	c-0.6-0.6-2.6-2.6-3-4.8l2.6,1.6c-0.7-0.7-2.5-4.3-2.2-5.4l2.4,1.7c-1.2-1.5-2.5-5.3-1.6-6.8c0.3,1.6,1.1,3,2.4,3.9
	c-1.1-1.6-3.4-7.2-1.2-9.6c0.6,5.6,2.9,7.4,2.9,7.4c-2-3.1-4.2-12.7,0-14.6c-0.8,6.1,1.1,9.5,1.1,9.5c-1.3-5.7-1.2-13.7,3-14.4
	c-1.3,3.4-1.5,7.2-0.6,10.7c-0.3-14,4.2-13.8,4.2-13.8c-0.6,3.7-0.8,7.5-0.7,11.2v20.7C57.5,100.7,57.3,101.7,56.7,102.6"/>
<path class="st3" d="M109.2,275.4h-1.7V269h-2.3v-1.6h6.2v1.6h-2.3v6.4H109.2z"/>
<path class="st3" d="M115.4,271.1c-0.2,0-0.5-0.1-0.7-0.1c-0.6-0.1-1.1,0.3-1.3,0.9c-0.1,0.3-0.1,0.5-0.1,0.8v2.7h-1.6v-6h1.6v1.2
	c0.2-0.8,0.9-1.4,1.7-1.4h0.4V271.1z"/>
<path class="st3" d="M120.5,270.4c0.2,0.4,0.3,0.8,0.3,1.3v2.1c0,0.1,0.1,0.3,0.2,0.3c0,0,0,0,0.1,0h0.2v1.3
	c-0.1,0.1-0.3,0.1-0.5,0.1c-0.7,0.1-1.3-0.4-1.5-1c-0.4,0.6-1.1,1-1.8,1c-0.5,0-0.9-0.2-1.3-0.5c-0.4-0.3-0.5-0.7-0.5-1.2
	c0-0.5,0.2-0.9,0.5-1.2c0.4-0.4,0.9-0.6,1.5-0.6l1.1-0.2c0.2,0,0.4-0.1,0.4-0.3c0,0,0,0,0-0.1c0-0.2-0.1-0.4-0.2-0.5
	c-0.2-0.1-0.4-0.2-0.6-0.2c-0.4-0.1-0.8,0.2-0.9,0.7c0,0,0,0,0,0l-1.6-0.1c0.1-0.6,0.3-1.1,0.8-1.5c0.5-0.4,1.1-0.6,1.8-0.6
	C119.3,269.2,120.1,269.7,120.5,270.4z M119.2,272.6c-0.2,0.1-0.4,0.2-0.6,0.2L118,273c-0.2,0.1-0.4,0.2-0.6,0.3
	c-0.1,0.1-0.2,0.2-0.2,0.4c0,0.2,0.1,0.3,0.2,0.4c0.1,0.1,0.3,0.2,0.5,0.2c0.3,0,0.7-0.1,0.9-0.4c0.3-0.3,0.4-0.6,0.4-1L119.2,272.6
	z"/>
<path class="st3" d="M127.4,269.5l-2.3,6h-1.7l-2.2-6h1.8l1.3,3.8l1.4-3.8H127.4z"/>
<path class="st3" d="M129.3,272.9c0,0.3,0.2,0.6,0.5,0.8c0.3,0.2,0.6,0.3,0.9,0.3c0.4,0,0.8-0.2,1.1-0.5l1.6,0.2
	c-0.2,0.5-0.5,1-0.9,1.3c-0.5,0.3-1.1,0.5-1.7,0.5c-0.8,0-1.6-0.3-2.2-0.8c-0.6-0.6-0.9-1.5-0.8-2.3c0-0.8,0.3-1.6,0.9-2.2
	c0.5-0.5,1.3-0.8,2-0.9c0.8,0,1.6,0.3,2.1,0.9c0.5,0.6,0.8,1.4,0.8,2.2v0.5H129.3z M131.9,271.9c-0.1-0.7-0.6-1.1-1.3-1.1
	c-0.3,0-0.6,0.1-0.8,0.3c-0.2,0.2-0.4,0.5-0.4,0.8L131.9,271.9z"/>
<path class="st3" d="M136.2,275.4h-1.6v-7.9h1.6V275.4z"/>
<path class="st3" d="M138.9,272.9c0,0.3,0.2,0.6,0.5,0.8c0.3,0.2,0.6,0.3,0.9,0.3c0.4,0,0.8-0.2,1.1-0.5l1.6,0.2
	c-0.2,0.5-0.5,1-0.9,1.3c-0.5,0.3-1.1,0.5-1.7,0.5c-0.8,0-1.6-0.3-2.2-0.8c-0.6-0.6-0.9-1.5-0.8-2.3c0-0.8,0.3-1.6,0.9-2.2
	c0.5-0.5,1.3-0.8,2-0.9c0.8,0,1.6,0.3,2.1,0.9c0.5,0.6,0.8,1.4,0.8,2.2v0.5H138.9z M141.5,271.9c-0.1-0.7-0.6-1.1-1.3-1.1
	c-0.3,0-0.6,0.1-0.8,0.3c-0.2,0.2-0.4,0.5-0.4,0.8L141.5,271.9z"/>
<path class="st3" d="M147.9,271.1c-0.2,0-0.5-0.1-0.7-0.1c-0.6-0.1-1.1,0.3-1.3,0.9c-0.1,0.3-0.1,0.5-0.1,0.8v2.7h-1.6v-6h1.6v1.2
	c0.2-0.8,0.9-1.4,1.7-1.4h0.4L147.9,271.1L147.9,271.1z"/>
<path class="st3" d="M152,275c-0.4,0.3-0.9,0.5-1.4,0.5c-1,0-1.9-0.4-2.4-1.2l1.1-0.9c0.3,0.4,0.8,0.7,1.3,0.7
	c0.3,0,0.5-0.1,0.5-0.4s-0.2-0.4-0.5-0.5l-0.9-0.4c-0.7-0.3-1.2-0.9-1.2-1.7c0-0.5,0.2-1,0.6-1.3c1-0.8,2.4-0.6,3.2,0.4
	c0,0,0.1,0.1,0.1,0.1l-1,1c-0.2-0.3-0.5-0.5-0.9-0.5c-0.3,0-0.4,0.1-0.4,0.3c0,0.2,0.1,0.3,0.3,0.4l0.9,0.4c0.4,0.2,0.8,0.4,1,0.8
	c0.2,0.3,0.3,0.7,0.3,1.1C152.5,274.3,152.3,274.7,152,275z"/>
</svg>
