<?xml version="1.0" encoding="utf-8"?>
<!-- Generator: Adobe Illustrator 28.2.0, SVG Export Plug-In . SVG Version: 6.00 Build 0)  -->
<svg version="1.1" id="katman_1" xmlns="http://www.w3.org/2000/svg" xmlns:xlink="http://www.w3.org/1999/xlink" x="0px" y="0px"
	 viewBox="0 0 321 314" style="enable-background:new 0 0 321 314;" xml:space="preserve">
<style type="text/css">
	.st0{fill-rule:evenodd;clip-rule:evenodd;fill:#FAC428;stroke:#FAC428;stroke-miterlimit:10;}
	.st1{fill-rule:evenodd;clip-rule:evenodd;fill:#070E15;}
	.st2{fill:none;stroke:#070E15;stroke-width:2;stroke-linecap:round;stroke-linejoin:round;}
	.st3{fill-rule:evenodd;clip-rule:evenodd;fill:#F9F8F4;}
	.st4{fill-rule:evenodd;clip-rule:evenodd;fill:#FFFFFF;}
	.st5{fill:none;stroke:#FFFFFF;stroke-width:2;stroke-linecap:round;stroke-linejoin:round;}
	.st6{fill:none;}
	.st7{fill:none;stroke:#FAC428;stroke-width:2;stroke-linecap:round;stroke-linejoin:round;}
	.st8{fill-rule:evenodd;clip-rule:evenodd;fill:#574CFA;}
	.st9{fill:#FAC428;}
	.st10{fill:none;stroke:#F9F8F4;stroke-width:2;stroke-linecap:round;stroke-linejoin:round;}
	.st11{fill:#070E15;}
	.st12{fill-rule:evenodd;clip-rule:evenodd;fill:#FAC428;}
	.st13{fill:#FAC428;stroke:#FAC428;stroke-miterlimit:10;}
</style>
<path class="st0" d="M94.1,99l-16,6.4c-7,2.8-12.1,8.8-13.7,16.1L56,158.7h29.6l1.6,12.3h83.1l31.7-17.6l-22.7-47.6l-48,9.6
	C105.4,112,94.1,99,94.1,99"/>
<path class="st1" d="M86,63.8c0,0,20.9,14.2,46.8,14.2c15.7-0.1,31.2-3.8,45.2-11c0,0-3.8-66-45.3-66S86,63.8,86,63.8"/>
<path class="st2" d="M86,63.8c0,0,20.9,14.2,46.8,14.2c15.7-0.1,31.2-3.8,45.2-11c0,0-3.8-66-45.3-66S86,63.8,86,63.8z"/>
<path class="st3" d="M155.5,32H109c0,0-8.4,49,24.2,49S155.5,32,155.5,32"/>
<path class="st2" d="M155.5,32H109c0,0-8.4,49,24.2,49S155.5,32,155.5,32z"/>
<path class="st4" d="M130,43.5c0,6.4-5.1,11.5-11.5,11.5S107,49.9,107,43.5S112.1,32,118.5,32S130,37.1,130,43.5"/>
<path class="st2" d="M130,43.5c0,6.4-5.1,11.5-11.5,11.5S107,49.9,107,43.5S112.1,32,118.5,32S130,37.1,130,43.5z"/>
<path class="st4" d="M159,43.5c0,6.4-5.1,11.5-11.5,11.5S136,49.9,136,43.5S141.1,32,147.5,32S159,37.1,159,43.5"/>
<path class="st2" d="M159,43.5c0,6.4-5.1,11.5-11.5,11.5S136,49.9,136,43.5S141.1,32,147.5,32S159,37.1,159,43.5z"/>
<path class="st2" d="M130,44c0,0,3.3-4.5,6,0"/>
<path class="st2" d="M129.6,47c-0.6,2.5-1.8,4.9-3.6,6.8c0.1,1.2,0.7,2.4,1.6,3.2c0.9,0.8,2.2,1.1,3.4,1"/>
<path class="st2" d="M134,55c0.8,0,1.5,0.4,2,1"/>
<path class="st2" d="M127.7,67.6c2.6,1.3,5.5,1.7,8.3,1.1c4-0.9,7-5.2,7-5.2c-1.9,0.1-3.8-0.1-5.7-0.6c-1.8-0.6-3.7-0.8-5.6-0.9
	c-3.1,0.1-5.7,1.7-8.7,1.5"/>
<path class="st5" d="M109,27c0,0,1.3-18.5,20-24"/>
<path class="st5" d="M155,26c-0.8-3.2-2.1-6.3-4-9"/>
<line class="st6" x1="203" y1="153" x2="171" y2="171"/>
<line class="st2" x1="83" y1="138" x2="87" y2="171"/>
<line class="st2" x1="86" y1="159" x2="90" y2="143"/>
<path class="st4" d="M176.9,240H85.2c-2.2,0-4.1-1.6-4.4-3.8L72.1,176c-0.3-2.4,1.4-4.6,3.8-5c0.2,0,0.4,0,0.6,0h109.2
	c2.4,0,4.4,2,4.4,4.4c0,0.2,0,0.4,0,0.6l-8.7,60.2C180.9,238.4,179,240,176.9,240"/>
<path class="st2" d="M176.9,240H85.2c-2.2,0-4.1-1.6-4.4-3.8L72.1,176c-0.3-2.4,1.4-4.6,3.8-5c0.2,0,0.4,0,0.6,0h109.2
	c2.4,0,4.4,2,4.4,4.4c0,0.2,0,0.4,0,0.6l-8.7,60.2C180.9,238.4,179.1,240,176.9,240z"/>
<path class="st7" d="M94,99c11.4,10.1,26.8,15.6,42.2,16s30.8-4.3,43.8-12.4"/>
<path class="st2" d="M156,84l8-2"/>
<path class="st4" d="M234.4,313h8.5c3.4,0,6.2-2.8,6.1-6.2c0,0,0,0,0,0c0.1-9.3-7.4-16.9-16.8-17c0,0,0,0,0,0h-16.8
	c-3.6,0-7.2-0.9-10.4-2.6l-6.7-3.6c-3.1-1.6-6.6-2-10-1.1l-26.3,7.3l18.7,0.6l7.3,7.6v15H234.4z"/>
<path class="st2" d="M185.3,294.2c-1.8-2.6-4.7-4.1-7.9-4.1h-17.2l-36.6-15L77,256l-17,36.3c4.1,1.3,8.6,2.5,13.4,3.7l2.3,0.6
	c11,2.6,23.1,4.9,35.1,6.9c39,6.4,77.2,9.6,77.2,9.6v-14.9L185.3,294.2z"/>
<path class="st2" d="M76,312l35-9.3c-12-1.9-24-4.1-35-6.7V312z"/>
<path class="st2" d="M206.4,277.4L189,247l-65,28.1l36.5,15h1.7l26.3-7.2c3.3-0.9,6.9-0.5,9.9,1.1l6.7,3.5c3.2,1.7,6.8,2.5,10.4,2.5
	h16.8c9.3,0,16.8,7.5,16.7,16.8c0,0,0,0,0,0c0,3.4-2.7,6.1-6.1,6.1h0h-8.4"/>
<path class="st1" d="M237.3,223l-106.1,13.7l-100.4-6.2c0,0-24.6,6.2-17.6,35.7c0,0,10.7,14.6,47,25.8l17-36.3l-22.8-9.3l22.8,9.3
	l1.2-2.6l-1.2,2.6l46.5,19l65.2-28.1l-0.7-1.2l0.7,1.2l19.6-8.4l-19.6,8.4l17.4,30.4c24.3-8.2,40.5-15.6,40.5-15.6
	C260.2,237.5,237.3,223,237.3,223"/>
<path class="st2" d="M237.3,223l-106.1,13.7l-100.4-6.2c0,0-24.6,6.2-17.6,35.7c0,0,10.7,14.6,47,25.8l17-36.3l-22.8-9.3l22.8,9.3
	l1.2-2.6l-1.2,2.6l46.5,19l65.2-28.1l-0.7-1.2l0.7,1.2l19.6-8.4l-19.6,8.4l17.4,30.4c24.3-8.2,40.5-15.6,40.5-15.6
	C260.2,237.5,237.3,223,237.3,223z"/>
<line class="st5" x1="54" y1="246" x2="77" y2="255"/>
<line class="st5" x1="189" y1="246" x2="209" y2="238"/>
<path class="st4" d="M196.4,294h-4.3c-2.3,0-4.1,1.8-4.1,4.1v0v10.8c0,2.3,1.8,4.1,4.1,4.1c0,0,0,0,0,0H209"/>
<path class="st2" d="M196.4,294h-4.3c-2.3,0-4.1,1.8-4.1,4.1v0v10.8c0,2.3,1.8,4.1,4.1,4.1c0,0,0,0,0,0H209"/>
<path class="st4" d="M34.8,287c-15.4,0-17.7,10.7-17.9,16.5c-0.1,4.6,3.5,8.4,8.1,8.5c0.1,0,0.1,0,0.2,0h46.8c2.2,0,3.9-1.8,3.9-3.9
	c0,0,0,0,0,0v-8.5c0-2.2-1.7-3.9-3.9-3.9c0,0,0,0,0,0h-5.3"/>
<path class="st2" d="M34.8,287c-15.4,0-17.7,10.7-17.9,16.5c-0.1,4.6,3.5,8.4,8.1,8.5c0.1,0,0.1,0,0.2,0h46.8c2.2,0,3.9-1.8,3.9-3.9
	c0,0,0,0,0,0v-8.5c0-2.2-1.7-3.9-3.9-3.9c0,0,0,0,0,0h-5.3"/>
<line class="st6" x1="1" y1="312.5" x2="264" y2="312.5"/>
<line class="st2" x1="1" y1="312.5" x2="264" y2="312.5"/>
<polyline class="st4" points="32,179 62,179 57,229 37,229 "/>
<polyline class="st2" points="32,179 62,179 57,229 37,229 "/>
<polygon class="st8" points="33,191 35.5,216 57.5,216 60,191 "/>
<polygon class="st9" points="33,191 35.5,216 57.5,216 60,191 "/>
<path class="st3" d="M34.4,228c-3.5-3.5-5.4-8.2-5.4-13.2v-16.5c0-2.4,2-4.4,4.4-4.4h20.5c0,2.3-1.6,4.2-3.9,4.6l-15.7,2.8v1.9
	l19.6-1.3l-1.3,6c-0.4,1.8-1.6,3.3-3.4,4L39.2,216c-2.2,0.8-3.6,2.9-3.6,5.2v0.3"/>
<path class="st10" d="M34.4,228c-3.5-3.5-5.4-8.2-5.4-13.2v-16.5c0-2.4,2-4.4,4.4-4.4h20.5c0,2.3-1.6,4.2-3.9,4.6l-15.7,2.8v1.9
	l19.6-1.3l-1.3,6c-0.4,1.8-1.6,3.3-3.4,4L39.2,216c-2.2,0.8-3.6,2.9-3.6,5.2v0.3"/>
<path class="st2" d="M53,202l-1.2,5.9c-0.4,1.8-1.6,3.2-3.3,3.9l-9.9,3.8c-2.1,0.8-3.5,2.8-3.5,5.1v0.3"/>
<path class="st2" d="M35,210l13-2.8c2.6-0.6,4.5-2.6,5-5.2"/>
<path class="st2" d="M53,194c0,2.2-1.6,4-3.8,4.3L34,201"/>
<path class="st2" d="M34,228c-3.3-3.6-5.1-8.3-5-13.2v-16.5c-0.1-2.3,1.8-4.3,4.1-4.4"/>
<path class="st2" d="M47,172c-7.3-1.2-14.5-3.6-20.2-8.3s-9.6-12.2-8.7-19.6s7.5-14.1,14.8-13.7c3.6,0.2,7.6,3.4,6.3,6.8
	s-6.9,2.5-8.1-0.8s1.1-7.2,4.2-8.8s6.8-1.7,10.3-1.7c-9,3.5-19.9-0.7-25.2-8.8s-5.6-19-1.6-27.9S30.2,73.3,38.8,69"/>
<path class="st2" d="M117,45.8c1.9-1.1,4.2-1,6,0.1"/>
<path class="st2" d="M149,45.9c-1.9-1-4.1-1.1-6-0.2"/>
<path class="st2" d="M200.3,218c7-4.1,10.7-12,9.5-20l-12-76.8c-1-6.7-5-12.5-10.9-15.8C175.7,99.3,164,94.1,152,90"/>
<path class="st2" d="M94,99l-14.4,5.7c-7.9,3.1-13.7,9.9-15.6,18.2L56,159"/>
<line class="st2" x1="56" y1="158" x2="53" y2="172"/>
<polyline class="st2" points="117,77 115.8,90.4 94,99 "/>
<path class="st4" d="M320,144.2c0,1.4-1.2,2.6-2.6,2.6c0,0,0,0,0,0h-170L132,159v-57.4c0-1.4,1.2-2.6,2.6-2.6c0,0,0,0,0,0h182.8
	c1.4,0,2.6,1.2,2.6,2.6c0,0,0,0,0,0V144.2z"/>
<path class="st2" d="M320,144.2c0,1.4-1.2,2.6-2.6,2.6c0,0,0,0,0,0h-170L132,159v-57.4c0-1.4,1.2-2.6,2.6-2.6c0,0,0,0,0,0h182.8
	c1.4,0,2.6,1.2,2.6,2.6c0,0,0,0,0,0V144.2z"/>
<path class="st9" d="M281.5,130.7v-2.5c1,0,1.9-0.4,2.6-1c0.6-0.6,1-1.4,1-2.3c0-0.8-0.2-1.6-0.8-2.3c-0.5-0.5-1.1-0.9-1.7-1.1
	l-2.3-0.9c-0.6-0.2-0.9-0.6-0.9-1c0-0.2,0.1-0.5,0.3-0.6c0.2-0.2,0.5-0.3,0.8-0.3c0.8,0.1,1.5,0.5,1.8,1.3l2.3-1.1
	c-0.5-1.3-1.7-2.2-3-2.4V114h-1.2v2.3c-0.9,0-1.8,0.4-2.5,1c-1.3,1.3-1.3,3.3,0,4.6c0.4,0.4,0.9,0.7,1.5,0.9l2.1,0.8
	c0.7,0.3,1.1,0.7,1.1,1.2c0,0.3-0.1,0.6-0.4,0.8c-0.3,0.2-0.6,0.3-1,0.3c-0.5,0-1-0.1-1.4-0.4c-0.4-0.4-0.7-0.8-0.9-1.3l-2.4,1
	c0.2,0.8,0.7,1.6,1.4,2.1c0.7,0.6,1.6,0.9,2.5,1v2.5L281.5,130.7z M291.1,130.7v-2.5c1,0,1.9-0.4,2.6-1c0.6-0.6,1-1.4,1-2.3
	c0-0.8-0.2-1.6-0.8-2.3c-0.5-0.5-1.1-0.9-1.7-1.1l-2.3-0.9c-0.6-0.2-0.9-0.6-0.9-1c0-0.2,0.1-0.5,0.3-0.6c0.2-0.2,0.5-0.3,0.8-0.3
	c0.8,0,1.5,0.5,1.8,1.3l2.3-1.1c-0.5-1.3-1.7-2.2-3-2.4V114h-1.2v2.3c-0.9,0-1.8,0.4-2.5,1c-1.3,1.3-1.3,3.3,0,4.6
	c0.4,0.4,0.9,0.7,1.5,0.9l2.1,0.8c0.8,0.3,1.1,0.7,1.1,1.2c0,0.3-0.1,0.6-0.4,0.8c-0.3,0.2-0.6,0.3-1,0.3c-0.5,0-1-0.1-1.4-0.4
	c-0.4-0.4-0.7-0.8-0.9-1.3l-2.4,1c0.2,0.8,0.7,1.6,1.4,2.1c0.7,0.6,1.6,0.9,2.5,1v2.5L291.1,130.7z"/>
<path class="st11" d="M296.8,128l1.8-5h-0.7l-1.8,5H296.8z M299.7,128v-2c0-0.2,0-0.3,0-0.5c0-0.1,0.1-0.3,0.2-0.4
	c0.1-0.1,0.3-0.2,0.4-0.2c0.3,0,0.5,0.2,0.6,0.5c0,0.1,0,0.3,0,0.4v2.1h0.8v-2c0-0.2,0-0.3,0-0.5c0-0.2,0.1-0.3,0.2-0.4
	c0.1-0.1,0.3-0.2,0.4-0.2c0.3,0,0.5,0.2,0.6,0.5c0,0.1,0,0.3,0,0.4v2.1h0.8v-2.4c0-0.2,0.1-0.4,0-0.6c-0.1-0.2-0.2-0.4-0.4-0.6
	c-0.4-0.3-1-0.3-1.4,0c-0.2,0.1-0.4,0.3-0.5,0.5c-0.1-0.2-0.2-0.4-0.4-0.5c-0.2-0.1-0.4-0.2-0.6-0.2c-0.4,0-0.8,0.3-1,0.7v-0.6h-0.8
	v3.7H299.7z M307,128.1c1.1,0,2-0.9,2-2c0-0.5-0.2-1-0.6-1.4c-0.8-0.7-2-0.7-2.8,0c-0.8,0.8-0.7,2.1,0,2.8
	C306,127.9,306.5,128.1,307,128.1z M307,127.3c-0.3,0-0.6-0.1-0.8-0.3c-0.2-0.2-0.3-0.5-0.3-0.8c0-0.3,0.1-0.6,0.3-0.8
	c0.2-0.2,0.5-0.4,0.8-0.3c0.3,0,0.6,0.1,0.8,0.3c0.2,0.2,0.3,0.5,0.3,0.8c0,0.3-0.1,0.6-0.3,0.8C307.6,127.2,307.3,127.3,307,127.3
	L307,127.3z"/>
<path class="st11" d="M181.9,128l0.6-1.6h3.5l0.6,1.6h2l-3.3-8.6h-1.8l-3.4,8.6H181.9z M185.4,124.7h-2.2l1.1-3L185.4,124.7z
	 M191.5,128.1c0.8,0,1.5-0.5,1.8-1.2v1.1h1.8v-6.5h-1.8v3.5c0,0.2,0,0.5-0.1,0.7c-0.1,0.5-0.6,0.8-1.1,0.8c-0.4,0.1-0.8-0.2-0.9-0.7
	c0-0.2,0-0.5,0-0.7v-3.6h-1.8v3.7c0,0.5,0,1,0.1,1.5c0.1,0.4,0.3,0.8,0.7,1.1C190.6,128,191,128.1,191.5,128.1L191.5,128.1z
	 M198.8,128v-4.9h1.2v-1.6h-1.2V120l-1.8,0.2v1.3h-1.2v1.6h1.1v4.9H198.8z M203.9,128.1c0.9,0,1.8-0.3,2.4-1c1.3-1.3,1.3-3.5,0-4.8
	c-1.4-1.3-3.5-1.3-4.9,0c-1.3,1.3-1.3,3.5,0,4.8C202.1,127.8,203,128.2,203.9,128.1L203.9,128.1z M203.9,126.5
	c-0.5,0-0.9-0.2-1.2-0.5c-0.3-0.3-0.5-0.8-0.5-1.2c0-0.5,0.2-0.9,0.5-1.3c0.3-0.3,0.7-0.5,1.2-0.5c0.5,0,0.9,0.2,1.2,0.5
	c0.6,0.7,0.6,1.8,0,2.5C204.8,126.3,204.3,126.5,203.9,126.5L203.9,126.5z M213.6,128v-3.1h1.4c0.9,0.1,1.7-0.2,2.4-0.8
	c0.6-0.5,0.9-1.2,0.9-2c0-0.8-0.3-1.5-0.8-2c-0.6-0.5-1.4-0.8-2.2-0.8h-3.4v8.6H213.6z M214.9,123.2h-1.4V121h1.4
	c0.3,0,0.6,0.1,0.8,0.3c0.2,0.2,0.3,0.5,0.3,0.8c0,0.3-0.1,0.6-0.3,0.8C215.6,123.1,215.3,123.2,214.9,123.2L214.9,123.2z
	 M222,128.1c0.9,0,1.8-0.3,2.4-1c1.3-1.3,1.3-3.5,0-4.8c-1.4-1.3-3.5-1.3-4.9,0c-1.3,1.3-1.3,3.5,0,4.8
	C220.2,127.8,221.1,128.2,222,128.1L222,128.1z M222,126.5c-0.5,0-0.9-0.2-1.2-0.5c-0.3-0.3-0.5-0.8-0.5-1.2c0-0.5,0.2-0.9,0.5-1.3
	c0.3-0.3,0.7-0.5,1.2-0.5c0.5,0,0.9,0.2,1.2,0.5c0.6,0.7,0.6,1.8,0,2.5C222.9,126.3,222.5,126.5,222,126.5L222,126.5z M228.4,128
	v-8.6h-1.8v8.6H228.4z M230.8,121.1c0.3,0,0.5-0.1,0.8-0.2c0.2-0.2,0.3-0.4,0.3-0.7c0-0.3-0.1-0.5-0.3-0.7c-0.5-0.3-1.1-0.3-1.5,0
	c-0.2,0.2-0.3,0.4-0.3,0.7c0,0.3,0.1,0.5,0.3,0.7C230.3,121,230.5,121.1,230.8,121.1L230.8,121.1z M231.7,128v-6.5h-1.8v6.5H231.7z
	 M236.3,128.1c0.7,0,1.4-0.2,2-0.6c0.5-0.4,0.9-0.9,1.1-1.5l-1.6-0.6c-0.2,0.6-0.8,1-1.4,1c-0.5,0-0.9-0.2-1.2-0.5
	c-0.3-0.3-0.5-0.8-0.5-1.2c0-0.5,0.1-0.9,0.5-1.3c0.3-0.3,0.7-0.5,1.2-0.5c0.6,0,1.1,0.4,1.4,0.9l1.5-0.8c-0.5-1.1-1.7-1.8-2.9-1.8
	c-0.9,0-1.8,0.4-2.4,1c-1.3,1.4-1.3,3.5,0,4.8C234.5,127.8,235.4,128.1,236.3,128.1L236.3,128.1z M242.6,130l3.6-8.5h-2l-1.5,3.9
	l-1.5-3.9h-2l2.5,6.1l-1.1,2.4H242.6z"/>
<path class="st12" d="M155.5,136l-3.8-2.9c-3.6-2.7-5.7-7-5.7-11.5v-4.8c3,0,6-1.2,8.1-3.4l1.4-1.4l1.4,1.4c2.1,2.2,5.1,3.4,8.1,3.4
	v4.8c0,4.5-2.1,8.8-5.7,11.5L155.5,136z"/>
<path class="st2" d="M155.5,136l-3.8-2.9c-3.6-2.7-5.7-7-5.7-11.5v-4.8c3,0,6-1.2,8.1-3.4l1.4-1.4l1.4,1.4c2.1,2.2,5.1,3.4,8.1,3.4
	v4.8c0,4.5-2.1,8.8-5.7,11.5L155.5,136z"/>
<path class="st0" d="M121,204.9c0,0.1,0.1,0.1,0.2,0.1c0.1,0,0.1,0,0.1-0.1c2.2-4.5,6.7-8.5,10.6-9.7c0.1,0,0.1-0.1,0.1-0.1
	c0,0,0-0.1-0.1-0.1h-10.4c-0.2,0-0.5,0.2-0.5,0.4L121,204.9z"/>
<path class="st13" d="M121,204.9c0,0.1,0.1,0.1,0.2,0.1c0.1,0,0.1,0,0.1-0.1c2.2-4.5,6.7-8.5,10.6-9.7c0.1,0,0.1-0.1,0.1-0.1
	c0,0,0-0.1-0.1-0.1h-10.4c-0.2,0-0.5,0.2-0.5,0.4L121,204.9z"/>
<path class="st12" d="M121.1,218h8.5c0.2,0,0.4-0.1,0.4-0.3l12.9-22.2c0.1-0.2,0-0.4-0.1-0.5c-0.1,0-0.1,0-0.2,0h-8.2
	c-0.1,0-0.3,0.1-0.4,0.2L121,217.8c0,0.1,0,0.1,0,0.2C121.1,218,121.1,218,121.1,218"/>
<path class="st13" d="M121.1,218h8.5c0.2,0,0.4-0.1,0.4-0.3l12.9-22.2c0.1-0.2,0-0.4-0.1-0.5c-0.1,0-0.1,0-0.2,0h-8.2
	c-0.1,0-0.3,0.1-0.4,0.2L121,217.8c0,0.1,0,0.1,0,0.2C121.1,218,121.1,218,121.1,218"/>
<path class="st0" d="M143,208.1c0-0.1-0.1-0.1-0.2-0.1c-0.1,0-0.1,0-0.1,0.1c-2.2,4.5-6.7,8.5-10.6,9.7c-0.1,0-0.1,0.1-0.1,0.1
	c0,0,0,0.1,0.1,0.1h10.4c0.2,0,0.5-0.2,0.5-0.4L143,208.1z"/>
<path class="st13" d="M143,208.1c0-0.1-0.1-0.1-0.2-0.1c-0.1,0-0.1,0-0.1,0.1c-2.2,4.5-6.7,8.5-10.6,9.7c-0.1,0-0.1,0.1-0.1,0.1
	c0,0,0,0.1,0.1,0.1h10.4c0.2,0,0.5-0.2,0.5-0.4L143,208.1z"/>
</svg>
