<?xml version="1.0" encoding="utf-8"?>
<!-- Generator: Adobe Illustrator 28.2.0, SVG Export Plug-In . SVG Version: 6.00 Build 0)  -->
<svg version="1.1" id="katman_1" xmlns="http://www.w3.org/2000/svg" xmlns:xlink="http://www.w3.org/1999/xlink" x="0px" y="0px"
	 viewBox="0 0 321 314" style="enable-background:new 0 0 321 314;" xml:space="preserve">
<style type="text/css">
	.st0{fill-rule:evenodd;clip-rule:evenodd;fill:#FAC428;stroke:#FAC428;stroke-miterlimit:10;}
	.st1{fill-rule:evenodd;clip-rule:evenodd;fill:#070E15;}
	.st2{fill:none;stroke:#070E15;stroke-width:2;stroke-linecap:round;stroke-linejoin:round;}
	.st3{fill-rule:evenodd;clip-rule:evenodd;fill:#F9F8F4;}
	.st4{fill-rule:evenodd;clip-rule:evenodd;fill:#FFFFFF;}
	.st5{fill:none;stroke:#FFFFFF;stroke-width:2;stroke-linecap:round;stroke-linejoin:round;}
	.st6{fill:none;}
	.st7{fill:none;stroke:#FAC428;stroke-width:2;stroke-linecap:round;stroke-linejoin:round;}
	.st8{fill-rule:evenodd;clip-rule:evenodd;fill:#574CFA;}
	.st9{fill:#FAC428;}
	.st10{fill:none;stroke:#F9F8F4;stroke-width:2;stroke-linecap:round;stroke-linejoin:round;}
	.st11{fill-rule:evenodd;clip-rule:evenodd;fill:#FAC428;}
	.st12{fill:none;stroke:#070E15;stroke-width:1.4;stroke-linecap:round;stroke-linejoin:round;}
	.st13{enable-background:new    ;}
	.st14{fill-rule:evenodd;clip-rule:evenodd;}
	.st15{fill:#F8C227;}
	.st16{fill:#1D1E1E;}
	.st17{fill:#EBAA1A;}
	.st18{fill:#F2A81A;}
	.st19{fill:#526577;}
	.st20{fill:#2F3B55;}
	.st21{fill:#668194;}
	.st22{fill:#FFFFFF;}
	.st23{fill:#A2B7D6;}
	.st24{fill:#0F131C;}
	.st25{fill:#242F3C;}
	.st26{fill:#475872;}
	.st27{fill:#394857;}
	.st28{fill:#F4EFE3;}
	.st29{fill:#72787E;}
	.st30{fill:#AAA794;}
	.st31{fill:#656862;}
	.st32{fill:#787A6F;}
	.st33{fill:#84806F;}
	.st34{fill:#373739;}
	.st35{fill:#646A7D;}
	.st36{fill:#1C2439;}
	.st37{fill:#DDD8CB;}
	.st38{fill:#8B8E79;}
	.st39{fill:#A4BCE2;}
	.st40{fill:#3F3419;}
	.st41{fill:#233339;}
	.st42{fill:#9C9682;}
</style>
<path class="st0" d="M94.1,99l-16,6.4c-7,2.8-12.1,8.8-13.7,16.1L56,158.7h29.6l1.6,12.3h83.1l31.7-17.6l-22.7-47.6l-48,9.6
	C105.4,112,94.1,99,94.1,99"/>
<path class="st1" d="M86,63.8c0,0,20.9,14.2,46.8,14.2c15.7-0.1,31.2-3.8,45.2-11c0,0-3.8-66-45.3-66S86,63.8,86,63.8"/>
<path class="st2" d="M86,63.8c0,0,20.9,14.2,46.8,14.2c15.7-0.1,31.2-3.8,45.2-11c0,0-3.8-66-45.3-66S86,63.8,86,63.8z"/>
<path class="st3" d="M155.5,32H109c0,0-8.4,49,24.2,49S155.5,32,155.5,32"/>
<path class="st2" d="M155.5,32H109c0,0-8.4,49,24.2,49S155.5,32,155.5,32z"/>
<path class="st4" d="M130,43.5c0,6.4-5.1,11.5-11.5,11.5S107,49.9,107,43.5S112.1,32,118.5,32S130,37.1,130,43.5"/>
<path class="st2" d="M130,43.5c0,6.4-5.1,11.5-11.5,11.5S107,49.9,107,43.5S112.1,32,118.5,32S130,37.1,130,43.5z"/>
<path class="st4" d="M159,43.5c0,6.4-5.1,11.5-11.5,11.5S136,49.9,136,43.5S141.1,32,147.5,32S159,37.1,159,43.5"/>
<path class="st2" d="M159,43.5c0,6.4-5.1,11.5-11.5,11.5S136,49.9,136,43.5S141.1,32,147.5,32S159,37.1,159,43.5z"/>
<path class="st2" d="M130,44c0,0,3.3-4.5,6,0"/>
<path class="st2" d="M129.6,47c-0.6,2.5-1.8,4.9-3.6,6.8c0.1,1.2,0.7,2.4,1.6,3.2c0.9,0.8,2.2,1.1,3.4,1"/>
<path class="st2" d="M134,55c0.8,0,1.5,0.4,2,1"/>
<path class="st2" d="M127.7,67.6c2.6,1.3,5.5,1.7,8.3,1.1c4-0.9,7-5.2,7-5.2c-1.9,0.1-3.8-0.1-5.7-0.6c-1.8-0.6-3.7-0.8-5.6-0.9
	c-3.1,0.1-5.7,1.7-8.7,1.5"/>
<path class="st5" d="M109,27c0,0,1.3-18.5,20-24"/>
<path class="st5" d="M155,26c-0.8-3.2-2.1-6.3-4-9"/>
<line class="st6" x1="203" y1="153" x2="171" y2="171"/>
<line class="st2" x1="83" y1="138" x2="87" y2="171"/>
<line class="st2" x1="86" y1="159" x2="90" y2="143"/>
<path class="st4" d="M176.9,240H85.2c-2.2,0-4.1-1.6-4.4-3.8L72.1,176c-0.3-2.4,1.4-4.6,3.8-5c0.2,0,0.4,0,0.6,0h109.2
	c2.4,0,4.4,2,4.4,4.4c0,0.2,0,0.4,0,0.6l-8.7,60.2C180.9,238.4,179,240,176.9,240"/>
<path class="st2" d="M176.9,240H85.2c-2.2,0-4.1-1.6-4.4-3.8L72.1,176c-0.3-2.4,1.4-4.6,3.8-5c0.2,0,0.4,0,0.6,0h109.2
	c2.4,0,4.4,2,4.4,4.4c0,0.2,0,0.4,0,0.6l-8.7,60.2C180.9,238.4,179.1,240,176.9,240z"/>
<path class="st7" d="M94,99c11.4,10.1,26.8,15.6,42.2,16s30.8-4.3,43.8-12.4"/>
<path class="st2" d="M156,84l8-2"/>
<path class="st4" d="M234.4,313h8.5c3.4,0,6.2-2.8,6.1-6.2l0,0c0.1-9.3-7.4-16.9-16.8-17l0,0h-16.8c-3.6,0-7.2-0.9-10.4-2.6
	l-6.7-3.6c-3.1-1.6-6.6-2-10-1.1l-26.3,7.3l18.7,0.6l7.3,7.6v15L234.4,313L234.4,313z"/>
<path class="st2" d="M185.3,294.2c-1.8-2.6-4.7-4.1-7.9-4.1h-17.2l-36.6-15L77,256l-17,36.3c4.1,1.3,8.6,2.5,13.4,3.7l2.3,0.6
	c11,2.6,23.1,4.9,35.1,6.9c39,6.4,77.2,9.6,77.2,9.6v-14.9L185.3,294.2z"/>
<path class="st2" d="M76,312l35-9.3c-12-1.9-24-4.1-35-6.7V312z"/>
<path class="st2" d="M206.4,277.4L189,247l-65,28.1l36.5,15h1.7l26.3-7.2c3.3-0.9,6.9-0.5,9.9,1.1l6.7,3.5c3.2,1.7,6.8,2.5,10.4,2.5
	h16.8c9.3,0,16.8,7.5,16.7,16.8l0,0c0,3.4-2.7,6.1-6.1,6.1l0,0h-8.4"/>
<path class="st1" d="M237.3,223l-106.1,13.7l-100.4-6.2c0,0-24.6,6.2-17.6,35.7c0,0,10.7,14.6,47,25.8l17-36.3l-22.8-9.3l22.8,9.3
	l1.2-2.6l-1.2,2.6l46.5,19l65.2-28.1l-0.7-1.2l0.7,1.2l19.6-8.4l-19.6,8.4l17.4,30.4c24.3-8.2,40.5-15.6,40.5-15.6
	C260.2,237.5,237.3,223,237.3,223"/>
<path class="st2" d="M237.3,223l-106.1,13.7l-100.4-6.2c0,0-24.6,6.2-17.6,35.7c0,0,10.7,14.6,47,25.8l17-36.3l-22.8-9.3l22.8,9.3
	l1.2-2.6l-1.2,2.6l46.5,19l65.2-28.1l-0.7-1.2l0.7,1.2l19.6-8.4l-19.6,8.4l17.4,30.4c24.3-8.2,40.5-15.6,40.5-15.6
	C260.2,237.5,237.3,223,237.3,223z"/>
<line class="st5" x1="54" y1="246" x2="77" y2="255"/>
<line class="st5" x1="189" y1="246" x2="209" y2="238"/>
<path class="st4" d="M196.4,294h-4.3c-2.3,0-4.1,1.8-4.1,4.1l0,0v10.8c0,2.3,1.8,4.1,4.1,4.1l0,0H209"/>
<path class="st2" d="M196.4,294h-4.3c-2.3,0-4.1,1.8-4.1,4.1l0,0v10.8c0,2.3,1.8,4.1,4.1,4.1l0,0H209"/>
<path class="st4" d="M34.8,287c-15.4,0-17.7,10.7-17.9,16.5c-0.1,4.6,3.5,8.4,8.1,8.5c0.1,0,0.1,0,0.2,0H72c2.2,0,3.9-1.8,3.9-3.9
	l0,0v-8.5c0-2.2-1.7-3.9-3.9-3.9l0,0h-5.3"/>
<path class="st2" d="M34.8,287c-15.4,0-17.7,10.7-17.9,16.5c-0.1,4.6,3.5,8.4,8.1,8.5c0.1,0,0.1,0,0.2,0H72c2.2,0,3.9-1.8,3.9-3.9
	l0,0v-8.5c0-2.2-1.7-3.9-3.9-3.9l0,0h-5.3"/>
<line class="st6" x1="1" y1="312.5" x2="264" y2="312.5"/>
<line class="st2" x1="1" y1="312.5" x2="264" y2="312.5"/>
<polyline class="st4" points="32,179 62,179 57,229 37,229 "/>
<polyline class="st2" points="32,179 62,179 57,229 37,229 "/>
<polygon class="st8" points="33,191 35.5,216 57.5,216 60,191 "/>
<polygon class="st9" points="33,191 35.5,216 57.5,216 60,191 "/>
<path class="st3" d="M34.4,228c-3.5-3.5-5.4-8.2-5.4-13.2v-16.5c0-2.4,2-4.4,4.4-4.4h20.5c0,2.3-1.6,4.2-3.9,4.6l-15.7,2.8v1.9
	l19.6-1.3l-1.3,6c-0.4,1.8-1.6,3.3-3.4,4l-10,4.1c-2.2,0.8-3.6,2.9-3.6,5.2v0.3"/>
<path class="st10" d="M34.4,228c-3.5-3.5-5.4-8.2-5.4-13.2v-16.5c0-2.4,2-4.4,4.4-4.4h20.5c0,2.3-1.6,4.2-3.9,4.6l-15.7,2.8v1.9
	l19.6-1.3l-1.3,6c-0.4,1.8-1.6,3.3-3.4,4l-10,4.1c-2.2,0.8-3.6,2.9-3.6,5.2v0.3"/>
<path class="st2" d="M53,202l-1.2,5.9c-0.4,1.8-1.6,3.2-3.3,3.9l-9.9,3.8c-2.1,0.8-3.5,2.8-3.5,5.1v0.3"/>
<path class="st2" d="M35,210l13-2.8c2.6-0.6,4.5-2.6,5-5.2"/>
<path class="st2" d="M53,194c0,2.2-1.6,4-3.8,4.3L34,201"/>
<path class="st2" d="M34,228c-3.3-3.6-5.1-8.3-5-13.2v-16.5c-0.1-2.3,1.8-4.3,4.1-4.4"/>
<path class="st2" d="M47,172c-7.3-1.2-14.5-3.6-20.2-8.3s-9.6-12.2-8.7-19.6s7.5-14.1,14.8-13.7c3.6,0.2,7.6,3.4,6.3,6.8
	s-6.9,2.5-8.1-0.8s1.1-7.2,4.2-8.8s6.8-1.7,10.3-1.7c-9,3.5-19.9-0.7-25.2-8.8s-5.6-19-1.6-27.9s11.4-15.9,20-20.2"/>
<path class="st2" d="M117,45.8c1.9-1.1,4.2-1,6,0.1"/>
<path class="st2" d="M149,45.9c-1.9-1-4.1-1.1-6-0.2"/>
<path class="st2" d="M200.3,218c7-4.1,10.7-12,9.5-20l-12-76.8c-1-6.7-5-12.5-10.9-15.8C175.7,99.3,164,94.1,152,90"/>
<path class="st2" d="M94,99l-14.4,5.7c-7.9,3.1-13.7,9.9-15.6,18.2L56,159"/>
<line class="st2" x1="56" y1="158" x2="53" y2="172"/>
<polyline class="st2" points="117,77 115.8,90.4 94,99 "/>
<path class="st4" d="M320,144.2c0,1.4-1.2,2.6-2.6,2.6l0,0h-170L132,159v-57.4c0-1.4,1.2-2.6,2.6-2.6l0,0h182.8
	c1.4,0,2.6,1.2,2.6,2.6l0,0L320,144.2L320,144.2z"/>
<path class="st2" d="M320,144.2c0,1.4-1.2,2.6-2.6,2.6l0,0h-170L132,159v-57.4c0-1.4,1.2-2.6,2.6-2.6l0,0h182.8
	c1.4,0,2.6,1.2,2.6,2.6l0,0L320,144.2L320,144.2z"/>
<path class="st11" d="M155.5,136l-3.8-2.9c-3.6-2.7-5.7-7-5.7-11.5v-4.8c3,0,6-1.2,8.1-3.4l1.4-1.4l1.4,1.4c2.1,2.2,5.1,3.4,8.1,3.4
	v4.8c0,4.5-2.1,8.8-5.7,11.5L155.5,136z"/>
<path class="st12" d="M155.5,136l-3.8-2.9c-3.6-2.7-5.7-7-5.7-11.5v-4.8c3,0,6-1.2,8.1-3.4l1.4-1.4l1.4,1.4c2.1,2.2,5.1,3.4,8.1,3.4
	v4.8c0,4.5-2.1,8.8-5.7,11.5L155.5,136z"/>
<g class="st13">
	<path d="M184.3,127.8c0,0.1-0.1,0.2-0.2,0.3c-0.4,0.1-1,0.2-2.3,0.2c-1.5,0-2.9-0.4-2.9-2.6v-4c0-2.2,1.4-2.6,2.9-2.6
		c1.3,0,1.9,0.1,2.3,0.2c0.2,0,0.2,0.1,0.2,0.2v1.1c0,0.1-0.1,0.2-0.2,0.2h-2.4c-0.6,0-0.8,0.2-0.8,0.8v1.1h3.1
		c0.1,0,0.2,0.1,0.2,0.2v1.1c0,0.1-0.1,0.2-0.2,0.2h-3.1v1.3c0,0.6,0.2,0.8,0.8,0.8h2.4c0.1,0,0.2,0.1,0.2,0.2V127.8z"/>
	<path d="M191.6,127.8c0,0.1-0.1,0.3-0.3,0.3h-1.5c-0.1,0-0.2-0.1-0.2-0.3v-4c0-0.8-0.2-1.1-0.9-1.1c-0.3,0-0.7,0.2-1.1,0.4v4.7
		c0,0.1-0.1,0.3-0.2,0.3h-1.5c-0.1,0-0.3-0.1-0.3-0.3v-6.4c0-0.1,0.1-0.2,0.2-0.2h1.3c0.1,0,0.2,0.1,0.2,0.2v0.3
		c0.7-0.5,1.2-0.6,2-0.6c1.7,0,2.1,1.2,2.1,2.7V127.8z"/>
	<path d="M198.3,127.9c0,0.1-0.1,0.2-0.2,0.2h-1.6c-0.1,0-0.2-0.1-0.2-0.2v-8.4c0-0.2,0.1-0.2,0.2-0.2h1.6c0.2,0,0.2,0.1,0.2,0.2
		V127.9z M198.2,118.1c0,0.1-0.1,0.2-0.2,0.2h-1.4c-0.1,0-0.2-0.1-0.2-0.2v-1.2c0-0.1,0.1-0.2,0.2-0.2h1.4c0.1,0,0.2,0.1,0.2,0.2
		V118.1z"/>
	<path d="M206,121.5l-2,7.1c-0.4,1.3-0.9,2-2.6,2c-0.4,0-1.2-0.1-1.5-0.2c-0.1,0-0.3-0.1-0.3-0.2v-1c0-0.1,0.1-0.2,0.2-0.2h0
		c0.4,0,1.1,0.1,1.5,0.1c0.4,0,0.6-0.1,0.8-0.6l0.1-0.4h-0.2c-0.4,0-0.8-0.1-1.1-1.1l-1.6-5.4c0,0,0,0,0-0.1c0-0.1,0.1-0.2,0.2-0.2
		h1.6c0.1,0,0.2,0.1,0.2,0.2l1.1,4.5c0,0.2,0.1,0.2,0.1,0.2h0.1l1.1-4.7c0-0.1,0.1-0.2,0.3-0.2h1.6C205.9,121.2,206,121.3,206,121.5
		C206,121.5,206,121.5,206,121.5z"/>
	<path d="M209,120.2c0,0.1-0.1,0.2-0.2,0.2h-1.6c-0.1,0-0.2-0.1-0.2-0.2v-1.1c0-0.1,0.1-0.2,0.2-0.2h1.6c0.1,0,0.2,0.1,0.2,0.2
		V120.2z M209,127.9c0,0.1-0.1,0.2-0.2,0.2h-1.5c-0.1,0-0.2-0.1-0.2-0.2v-6.4c0-0.1,0.1-0.2,0.2-0.2h1.5c0.1,0,0.2,0.1,0.2,0.2
		V127.9z"/>
	<path d="M219.6,120.7c0,0.1-0.1,0.2-0.3,0.2h-1.9v7c0,0.1-0.1,0.2-0.2,0.2h-1.6c-0.1,0-0.2-0.1-0.2-0.2v-7h-2
		c-0.1,0-0.2-0.1-0.2-0.2v-1.2c0-0.1,0.1-0.2,0.2-0.2h5.9c0.1,0,0.3,0.1,0.3,0.2V120.7z"/>
	<path d="M226.4,125c0,0.2-0.1,0.3-0.3,0.3h-3.8v0c0,0.7,0.3,1.3,1.2,1.3c0.8,0,1.8-0.1,2.3-0.1h0c0.2,0,0.2,0.1,0.2,0.2v0.9
		c0,0.2,0,0.3-0.3,0.3c-0.8,0.2-1.4,0.3-2.5,0.3c-1.5,0-3-0.8-3-3.1v-0.8c0-1.9,1.1-3.2,3-3.2c2,0,3,1.3,3,3.2V125z M224.5,124
		c0-0.9-0.4-1.3-1.1-1.3c-0.7,0-1.1,0.5-1.1,1.3v0L224.5,124L224.5,124z"/>
	<path d="M233.6,121.5l-2.2,3l2.2,3.3c0,0,0,0,0,0.1c0,0.1,0,0.2-0.2,0.2h-1.8c-0.1,0-0.2,0-0.3-0.2l-1.7-2.8v2.7
		c0,0.1-0.1,0.3-0.2,0.3H228c-0.1,0-0.3-0.1-0.3-0.3v-8.7c0-0.1,0.1-0.2,0.3-0.2h1.5c0.1,0,0.2,0.1,0.2,0.2v5l1.8-2.7
		c0.1-0.1,0.2-0.2,0.3-0.2h1.7c0.1,0,0.2,0,0.2,0.1C233.7,121.4,233.7,121.4,233.6,121.5z"/>
	<path d="M236.7,127.8c0,0.1-0.1,0.3-0.2,0.3H235c-0.1,0-0.3-0.1-0.3-0.3v-8.7c0-0.1,0.1-0.2,0.3-0.2h1.5c0.1,0,0.2,0.1,0.2,0.2
		V127.8z"/>
	<path d="M240.2,120.2c0,0.1-0.1,0.2-0.2,0.2h-1.6c-0.1,0-0.2-0.1-0.2-0.2v-1.1c0-0.1,0.1-0.2,0.2-0.2h1.6c0.1,0,0.2,0.1,0.2,0.2
		V120.2z M240.1,127.9c0,0.1-0.1,0.2-0.2,0.2h-1.5c-0.1,0-0.2-0.1-0.2-0.2v-6.4c0-0.1,0.1-0.2,0.2-0.2h1.5c0.1,0,0.2,0.1,0.2,0.2
		V127.9z"/>
	<path d="M245.6,120.1c0,0.1-0.1,0.2-0.3,0.2h-0.6c-0.4,0-0.4,0.1-0.4,0.6v0.4h1c0.1,0,0.2,0.1,0.2,0.2v1c0,0.1-0.1,0.2-0.2,0.2h-1
		v5.2c0,0.1-0.1,0.2-0.2,0.2h-1.5c-0.1,0-0.2-0.1-0.2-0.2v-5.2l-1-0.2c-0.1,0-0.3-0.1-0.3-0.3v-0.8c0-0.1,0.1-0.3,0.3-0.3h1v-0.4
		c0-1.7,0.7-2.1,2-2.1c0.3,0,0.6,0,0.9,0.1c0.2,0,0.2,0.1,0.2,0.2V120.1z"/>
</g>
<g>
	<path class="st11" d="M281.5,122.3c-0.1,1.2-0.9,8.3-8.9,8c0,0,0-3.3,0-6.9l-3,1.1v-1.7l3-1.1c0-0.3,0-0.6,0-0.9l-3,1.1v-1.7l3-1.1
		c0-2.6,0-4.6,0-4.6h1.9v3.9l4.7-1.7v1.8l-4.7,1.7v0.9l4.7-1.7v1.8l-4.7,1.7v5.6c0,0,5-0.9,5-6c0-0.1,0.1-0.2,0.2-0.2
		C280.1,122.3,281,122.3,281.5,122.3C281.5,122.1,281.5,122.2,281.5,122.3z"/>
	<path class="st11" d="M294.7,122.3c-0.1,1.2-0.9,8.3-8.9,8c0,0,0-3.3,0-6.9l-3,1.1v-1.7l3-1.1c0-0.3,0-0.6,0-0.9l-3,1.1v-1.7l3-1.1
		c0-2.6,0-4.6,0-4.6h1.9v3.9l4.7-1.7v1.8l-4.7,1.7v0.9l4.7-1.7v1.8l-4.7,1.7v5.6c0,0,5-0.9,5-6c0-0.1,0.1-0.2,0.2-0.2
		C293.3,122.3,294.2,122.3,294.7,122.3C294.7,122.1,294.8,122.2,294.7,122.3z"/>
</g>
<g class="st13">
	<path d="M302.2,124.4l-1.1,3.9c-0.2,0.7-0.5,1.1-1.5,1.1c-0.2,0-0.6-0.1-0.8-0.1c-0.1,0-0.1,0-0.1-0.1v-0.5c0-0.1,0.1-0.1,0.1-0.1
		h0c0.2,0,0.6,0.1,0.8,0.1c0.2,0,0.4-0.1,0.4-0.3l0.1-0.2h-0.1c-0.2,0-0.5,0-0.6-0.6l-0.9-3c0,0,0,0,0,0c0-0.1,0-0.1,0.1-0.1h0.9
		c0.1,0,0.1,0.1,0.1,0.1l0.6,2.5c0,0.1,0,0.1,0.1,0.1h0.1l0.6-2.6c0-0.1,0.1-0.1,0.1-0.1h0.9C302.2,124.2,302.2,124.3,302.2,124.4
		C302.2,124.3,302.2,124.3,302.2,124.4z"/>
	<path d="M303.9,127.9c0,0.1-0.1,0.1-0.1,0.1H303c-0.1,0-0.1-0.1-0.1-0.1v-3.5c0-0.1,0.1-0.1,0.1-0.1h0.8c0.1,0,0.1,0.1,0.1,0.1
		V127.9z"/>
	<path d="M305.8,127.9c0,0.1-0.1,0.1-0.1,0.1h-0.8c-0.1,0-0.1-0.1-0.1-0.1V123c0-0.1,0.1-0.1,0.1-0.1h0.8c0.1,0,0.1,0.1,0.1,0.1
		V127.9z"/>
</g>
<polygon class="st14" points="297.9,123 298.6,123 296.8,128 296.1,128 "/>
<g>
	<g>
		<path class="st15" d="M137.2,214.4c-0.7,1.2-1.5,2.3-2.2,3.6c0,0.1-0.3,0.3-0.4,0.8h-0.7c-2.1,0-4.2,0-6.4,0
			c-0.6-1.6-0.9-3.3-1.1-5c-0.3-1.6-1.8-4.7-3.3-5.3c0.1-0.1,0.3-0.1,0.4-0.2c1.1-0.5,1.2-0.5,2.2-1.4c0.2-0.2,0.3-0.3,0.5-0.4
			c0,0.1,0.1-0.1,0.1-0.1s0.1,0.3,0.3,0.7c0.1,0.3,0.3,0.7,0.6,0.9c0.1,0,0.1,0,0.1-0.1h0.3c-0.1,0.1-0.9,1-0.8,1.3
			c0,0.1,0.1,0.1,0.1,0.2l0.1,0.1c1.2,2.1,3,3.9,4.4,5.9c0.9,1.1,2.1,2,3,3.1c0.2-0.4,0.2-0.4,0.3-0.9c-0.8-1.3-1.7-2.4-2.6-3.6
			c-0.5-0.4-1.4-1-1.8-1.4c-0.2-0.2-0.3-0.4-0.5-0.5c0.1-0.1,0.1-0.1,0.2-0.2c0.5,0.5,1.1,0.9,1.4,1.2c0.3,0.3,0.8,1.1,1.1,0.8
			c-0.1-0.6-0.1-0.6-0.3-1.1c0-0.4-0.2-0.9-0.2-1.3c0.3,0.6,0.6,1.1,0.9,1.7c0.2,0.3,0.3,0.6,0.5,0.9c0,0,0,0,0.1,0.1
			c0,0.2,0.7,1.5,0.9,1.8c0.2,0.5,0.3,0.8,0.4,1.4c0.2-0.6,0.4-1.1,0.6-1.7c0.1-0.3,0.1-0.5,0.2-0.8c0.1-0.2,0.2-0.4,0.2-0.6
			c0,0,0.1-0.2,0.2-0.3c0,0,0,0,0.1,0C136.5,213.6,136.4,213.5,137.2,214.4z"/>
		<path class="st16" d="M130.2,218.8c-0.9,0-1.8,0-2.7,0l0,0l0,0c-0.6-1.7-1-3.4-1.1-5c-0.3-1.7-1.8-4.7-3.3-5.3l0,0l0,0
			c0.1-0.1,0.2-0.1,0.3-0.2h0.1c0.2-0.1,0.4-0.2,0.5-0.3c0.6-0.3,0.9-0.4,1.7-1.1c0.1-0.1,0.1-0.1,0.2-0.1c0.1-0.1,0.2-0.2,0.3-0.3
			l0,0l0,0l0,0c0,0,0,0,0.1,0c0,0,0.1,0.1,0.1,0.3c0,0.1,0.1,0.2,0.2,0.4c0.2,0.4,0.4,0.7,0.6,0.9l0.2-0.1l0,0h0.1
			c0.1,0,0.2,0,0.2,0l0,0l0,0l0,0c-0.1,0.1-0.8,1-0.8,1.3c0,0.1,0.1,0.1,0.1,0.2l0.1,0.1c0.8,1.4,1.8,2.6,2.8,3.8
			c0.6,0.7,1.2,1.4,1.7,2.1c0.5,0.6,1.1,1.2,1.6,1.7c0.5,0.4,0.9,0.9,1.4,1.4c0.1-0.4,0.1-0.4,0.3-0.8c-0.7-1.2-1.6-2.3-2.6-3.5
			c-0.3-0.2-0.6-0.5-1-0.7c-0.3-0.2-0.6-0.4-0.8-0.6c-0.1-0.1-0.2-0.2-0.3-0.3s-0.1-0.1-0.2-0.2l0,0l0.2-0.2l0,0
			c0.3,0.3,0.6,0.5,0.9,0.7c0.2,0.2,0.4,0.3,0.5,0.4c0.1,0.1,0.2,0.2,0.3,0.3c0.3,0.3,0.5,0.6,0.7,0.5l-0.3-1.1
			c0-0.2-0.1-0.4-0.1-0.5c-0.1-0.3-0.1-0.5-0.1-0.8v-0.1v0.1c0.2,0.3,0.3,0.6,0.5,0.9c0.2,0.3,0.3,0.5,0.5,0.8
			c0.1,0.1,0.1,0.2,0.1,0.3c0.1,0.2,0.2,0.4,0.3,0.6l0,0l0.1,0.1l0,0l0,0c0,0.1,0.3,0.7,0.5,1.2c0.1,0.3,0.3,0.5,0.3,0.7
			c0.2,0.5,0.3,0.8,0.4,1.3c0.2-0.5,0.4-1,0.6-1.6c0-0.1,0.1-0.2,0.1-0.3s0.1-0.3,0.1-0.4c0-0.1,0.1-0.3,0.1-0.4
			c0-0.1,0.1-0.2,0.1-0.3l0,0c0-0.1,0.1-0.2,0.1-0.3l0,0l0,0l0,0l0,0c0-0.1,0.1-0.1,0.1-0.2c0.1-0.1,0.1-0.2,0.1-0.2
			c0.1,0,0.2,0.1,0.5,0.5c0.1,0.1,0.1,0.2,0.2,0.2l0,0l0,0c-0.3,0.4-0.5,0.8-0.8,1.2c-0.5,0.8-1,1.5-1.4,2.3c0,0,0,0,0,0.1
			c-0.1,0.1-0.3,0.3-0.3,0.7l0,0h-0.8C132.6,218.8,131.4,218.8,130.2,218.8z M127.5,218.8c2.1,0,4.2,0,6.2,0h0.8
			c0.1-0.4,0.3-0.6,0.3-0.7c0,0,0,0,0-0.1c0.5-0.8,1-1.6,1.4-2.3c0.2-0.4,0.5-0.8,0.8-1.2c-0.1-0.1-0.1-0.2-0.2-0.2
			c-0.3-0.3-0.4-0.5-0.5-0.5c0,0-0.1,0.1-0.1,0.2c0,0,0,0.1-0.1,0.2l0,0l0,0c0,0.1-0.1,0.2-0.1,0.3l0,0c0,0.1-0.1,0.2-0.1,0.3
			c-0.1,0.1-0.1,0.2-0.1,0.4c-0.1,0.1-0.1,0.3-0.1,0.4c0,0.1-0.1,0.2-0.1,0.3c-0.2,0.7-0.4,1.2-0.6,1.7v0.1v-0.1
			c-0.1-0.6-0.2-0.9-0.4-1.4c-0.1-0.1-0.2-0.4-0.3-0.7c-0.2-0.5-0.5-1-0.5-1.2c-0.1-0.1-0.1-0.1-0.1-0.1c-0.1-0.2-0.2-0.4-0.3-0.6
			c0-0.1-0.1-0.2-0.1-0.3c-0.2-0.3-0.3-0.5-0.5-0.8s-0.3-0.5-0.5-0.8c0,0.2,0,0.4,0.1,0.7c0,0.2,0.1,0.4,0.1,0.6l0.3,1.1l0,0
			c-0.2,0.2-0.5-0.2-0.8-0.5c-0.1-0.1-0.2-0.2-0.3-0.3s-0.3-0.3-0.5-0.4c-0.3-0.2-0.6-0.5-0.9-0.7l-0.1,0.1c0.1,0.1,0.1,0.1,0.2,0.2
			c0.1,0.1,0.2,0.2,0.3,0.3c0.2,0.2,0.5,0.4,0.8,0.6c0.4,0.3,0.7,0.5,1,0.8c1,1.3,1.9,2.3,2.6,3.6l0,0l0,0c-0.2,0.4-0.2,0.4-0.3,0.9
			l0,0l0,0c-0.4-0.5-0.9-1-1.4-1.4c-0.6-0.5-1.1-1.1-1.7-1.7c-0.5-0.7-1.1-1.4-1.7-2.1c-1-1.2-2-2.4-2.8-3.8l-0.1-0.1
			c-0.1-0.1-0.1-0.1-0.1-0.2c-0.1-0.3,0.6-1.1,0.8-1.3h-0.1c-0.1,0-0.1,0-0.2,0l-0.1,0.1l0,0c-0.2-0.2-0.4-0.5-0.6-0.9
			c-0.1-0.1-0.1-0.3-0.2-0.4c0-0.1-0.1-0.2-0.1-0.3l0,0c0,0-0.1,0.1-0.1,0c-0.1,0.1-0.2,0.2-0.3,0.3c-0.1,0-0.1,0.1-0.2,0.1
			c-0.8,0.7-1,0.8-1.7,1.1c-0.1,0.1-0.3,0.2-0.5,0.2h-0.1c-0.1,0-0.2,0.1-0.3,0.1c1.5,0.6,3,3.8,3.3,5.3
			C126.6,215.4,127,217.1,127.5,218.8z M126.3,206.5L126.3,206.5L126.3,206.5z"/>
	</g>
	<g>
		<path class="st17" d="M140.7,218.8c-0.4,0-0.8,0-1.2,0c0.4-1.9,0.7-3.7,0.9-5.6c0.1-0.9,0-2.5,0-3.4c0,0.1,0.3,0.9,0.3,1.1
			C141.4,213.1,141.1,216.5,140.7,218.8z"/>
		<path class="st16" d="M140.4,218.8c-0.1,0-0.2,0-0.4,0s-0.4,0-0.6,0l0,0l0,0l0,0c0.4-1.8,0.7-3.7,0.9-5.6c0.1-0.7,0.1-1.8,0-2.6
			c0-0.3,0-0.5,0-0.7l0,0l0,0c0,0,0.1,0.2,0.1,0.3c0.1,0.3,0.2,0.7,0.2,0.8C141.3,213.6,140.8,217.4,140.4,218.8L140.4,218.8
			C140.6,218.8,140.5,218.8,140.4,218.8z M140.7,218.8L140.7,218.8L140.7,218.8z M139.7,218.8c0.1,0,0.2,0,0.4,0s0.4,0,0.6,0
			c0.3-1.5,0.8-5.3,0.1-7.9c0-0.1-0.2-0.5-0.2-0.8c0-0.1,0-0.1-0.1-0.2c0,0.2,0,0.4,0,0.6c0,0.9,0,1.9,0,2.6
			C140.3,215,140,216.9,139.7,218.8C139.5,218.8,139.6,218.8,139.7,218.8z"/>
	</g>
	<g>
		<path class="st17" d="M125,214.6c-0.1,1.2-0.1,3-0.1,4.2c-0.3,0-0.6,0-1,0c-0.1,0-0.3,0-0.4,0c-0.6-2.2-1-4.6-0.9-7
			c0-0.8,0.2-2.2,0.4-3c0.8,0.5,1.3,1.2,1.8,2.1c0.2,0.3,0.7,1.3,0.7,1.7C125.2,213.3,125.1,214,125,214.6z"/>
		<path class="st16" d="M124.1,218.8c-0.1,0-0.1,0-0.2,0s-0.1,0-0.2,0s-0.1,0-0.2,0l0,0c-0.7-2.6-1-4.9-0.9-7c0-0.7,0.2-2.2,0.4-3
			l0,0l0,0c0.9,0.6,1.4,1.4,1.8,2.1c0.1,0.1,0.7,1.3,0.7,1.7l0,0c0,0.1-0.1,0.2-0.1,0.4c-0.1,0.5-0.2,1.1-0.3,1.6
			c-0.1,1.2-0.1,3-0.1,4.2l0,0l0,0l0,0c-0.2,0-0.3,0-0.5,0C124.3,218.8,124.2,218.8,124.1,218.8z M123.8,218.8
			C123.9,218.8,123.9,218.8,123.8,218.8c0.3,0,0.4,0,0.6,0s0.3,0,0.5,0c0-1.2,0-3,0.1-4.2l0,0c0.1-0.5,0.2-1.1,0.3-1.7
			c0-0.1,0.1-0.2,0.1-0.4c0-0.4-0.6-1.5-0.7-1.6c-0.4-0.7-0.9-1.5-1.7-2.1c-0.2,0.7-0.4,2.2-0.4,2.9c-0.1,2.1,0.2,4.4,0.9,6.9
			c0.1,0,0.1,0,0.2,0C123.7,218.8,123.8,218.8,123.8,218.8z"/>
	</g>
	<g>
		<path class="st18" d="M127.5,218.8c-0.9,0-1.8,0-2.6,0c0-1.2,0-3,0.1-4.2c0.1-0.7,0.2-1.4,0.4-2c0-0.3-0.5-1.3-0.7-1.7
			c-0.5-0.9-1-1.6-1.8-2.1c0-0.1,0-0.3,0.2-0.4c1.5,0.6,3,3.7,3.3,5.3C126.6,215.5,127,217.2,127.5,218.8z"/>
		<path class="st16" d="M125.5,218.8c-0.2,0-0.4,0-0.6,0l0,0c0-1.2,0-3,0.1-4.2c0.1-0.5,0.2-1.1,0.3-1.7c0-0.1,0.1-0.2,0.1-0.4
			c0-0.4-0.6-1.5-0.7-1.6c-0.4-0.7-0.9-1.5-1.8-2.1l0,0v-0.1c0-0.1,0-0.2,0.2-0.3l0,0c1.6,0.6,3,3.8,3.3,5.3c0.2,1.6,0.5,3.3,1.1,5
			l0,0l0,0l0,0c-0.4,0-0.8,0-1.2,0C126,218.8,125.8,218.8,125.5,218.8z M124.9,218.8c0.5,0,0.9,0,1.4,0c0.4,0,0.8,0,1.2,0
			c-0.6-1.7-0.9-3.4-1.1-5c-0.3-1.7-1.8-4.7-3.3-5.3c-0.1,0.1-0.1,0.2-0.1,0.3c0,0,0,0,0,0.1c0.8,0.6,1.4,1.4,1.8,2.1
			c0.1,0.1,0.7,1.3,0.7,1.7l0,0c0,0.1-0.1,0.2-0.1,0.4c-0.1,0.5-0.2,1.1-0.3,1.6C124.9,215.8,124.9,217.6,124.9,218.8z"/>
	</g>
	<g>
		<path class="st19" d="M127.4,204.5L127.4,204.5L127.4,204.5L127.4,204.5z"/>
	</g>
	<g>
		<path class="st20" d="M127.3,209l-0.1,0.1l0,0C127.2,209.1,127.2,209.1,127.3,209C127.2,209,127.2,209,127.3,209L127.3,209
			L127.3,209z"/>
	</g>
	<g>
		<path class="st21" d="M138.1,209.2c-0.4-0.3-0.6-0.3-0.5,0c0,0.1,1.3,1,1.5,1.5c-0.6,1.6-1.1,2.4-1.9,3.7c-0.8-1-0.7-0.9-0.9-0.4
			c0,0,0,0-0.1,0c0.3-0.9,0.6-2,0.6-2.9c0-0.7,0-2.9-0.1-3.6C137.1,208.2,137.7,208.6,138.1,209.2z"/>
	</g>
	<g>
		<path class="st19" d="M127.2,209.1L127.2,209.1L127.2,209.1C127.1,209.1,127.1,209.1,127.2,209.1C127.1,209,127.2,209,127.2,209.1
			c0.1-0.1,0.1-0.1,0.1-0.1l0,0l0,0C127.3,209,127.2,209,127.2,209.1z"/>
	</g>
	<g>
		<g>
			<path class="st22" d="M133.7,214.3c-0.1-0.1-0.1-0.1-0.1-0.1c-0.2-0.3-0.3-0.6-0.5-0.9c-0.3-0.6-0.6-1.1-0.9-1.7
				c-0.4-0.8-0.9-1.6-1.3-2.4c-0.6-1-1.3-2-2-3c-0.4-0.6-0.9-1.2-1.4-1.7c0-0.1,0.1-0.4,0.1-0.4s0-0.1,0.1-0.2l0,0
				c0-0.1,0.8-0.8,0.8-0.8h0.1c-0.1,0.6-0.3,1.1-0.3,1.7c0,0.1,0.2-0.4,0.3-0.7c0.1,0,0.3,0,0.5,0c0,0.2-0.1,0.5,0.1,0.6
				c-0.1,0.2-0.4,1-0.4,1.2c1,1.2,2.2,2.1,3.1,3.3c0.1-0.2,0.2-0.5,0.2-0.8c0.1-0.2,0.1-0.5,0.1-0.7c0.3,0.4,1,0.7,1.1,1.3
				c0.1,0.3,0.1,1.5,0.1,2C133.6,212.1,133.8,213.2,133.7,214.3z"/>
			<path class="st16" d="M133.7,214.4L133.7,214.4c-0.1-0.1-0.1-0.1-0.2-0.2c-0.1-0.2-0.2-0.4-0.3-0.6c0-0.1-0.1-0.2-0.1-0.3
				c-0.2-0.3-0.3-0.5-0.5-0.8s-0.3-0.6-0.5-0.9c-0.1-0.2-0.3-0.5-0.4-0.7c-0.3-0.6-0.6-1.1-0.9-1.7c-0.6-1-1.3-2-2-3l-0.1-0.1
				c-0.4-0.5-0.8-1.1-1.3-1.6l0,0l0,0c0,0,0-0.1,0-0.2c0-0.1,0.1-0.2,0.1-0.3c0,0,0-0.1,0.1-0.2l0,0c0-0.1,0.8-0.8,0.9-0.8h0.1l0,0
				l0,0c0,0.2-0.1,0.4-0.1,0.5c-0.1,0.4-0.2,0.7-0.2,1.1c0-0.1,0.1-0.3,0.2-0.5c0-0.1,0.1-0.1,0.1-0.2l0,0l0,0c0.1,0,0.1,0,0.2,0
				c0.1,0,0.2,0,0.2,0l0,0l0,0c0,0.2-0.1,0.5,0.1,0.5l0,0l0,0c-0.1,0.2-0.4,1-0.4,1.1c0.4,0.5,0.9,1,1.4,1.5
				c0.6,0.6,1.1,1.1,1.6,1.8c0.1-0.2,0.1-0.4,0.2-0.6v-0.1c0-0.1,0.1-0.2,0.1-0.4c0-0.1,0-0.2,0.1-0.3v-0.1l0,0
				c0.1,0.2,0.3,0.3,0.5,0.5c0.3,0.2,0.6,0.5,0.7,0.8c0,0.2,0.1,0.8,0.1,1.3c0,0.3,0,0.5,0,0.7c0,0.3,0.1,0.6,0.1,0.8
				C133.7,212.6,133.8,213.5,133.7,214.4L133.7,214.4z M127.5,204.6c0.5,0.5,0.9,1,1.3,1.6l0.1,0.1c0.7,0.9,1.4,1.9,2,3
				c0.3,0.5,0.6,1.1,0.9,1.7c0.1,0.2,0.3,0.5,0.4,0.7c0.2,0.3,0.3,0.6,0.5,0.9c0.2,0.3,0.3,0.5,0.5,0.8c0.1,0.1,0.1,0.2,0.1,0.3
				c0.1,0.2,0.2,0.4,0.3,0.6l0,0c0,0,0,0.1,0.1,0.1c0.1-0.8,0-1.7-0.1-2.5c0-0.3-0.1-0.6-0.1-0.8s0-0.4,0-0.7c0-0.5,0-1.1-0.1-1.2
				c-0.1-0.3-0.4-0.6-0.6-0.8c-0.2-0.1-0.3-0.3-0.5-0.4c0,0.1,0,0.2-0.1,0.3c0,0.1,0,0.2-0.1,0.4v0.1c0,0.2-0.1,0.4-0.2,0.6l0,0l0,0
				c-0.5-0.7-1.1-1.2-1.7-1.8c-0.5-0.5-1-1-1.4-1.5l0,0l0,0c0-0.1,0.3-0.9,0.4-1.1c-0.2-0.1-0.1-0.4-0.1-0.6c-0.1,0-0.1,0-0.2,0
				c-0.1,0-0.1,0-0.2,0c0,0.1-0.1,0.1-0.1,0.2c-0.2,0.4-0.2,0.5-0.3,0.5l0,0l0,0l0,0c0-0.4,0.1-0.8,0.2-1.1c0-0.2,0.1-0.3,0.1-0.5
				l0,0c0,0-0.8,0.7-0.8,0.8l0,0c0,0,0,0.1-0.1,0.2c0,0,0,0.1-0.1,0.2C127.5,204.5,127.5,204.5,127.5,204.6z M127.6,204L127.6,204
				L127.6,204z"/>
		</g>
	</g>
	<g>
		<path class="st20" d="M136.9,206.7c0.2,0.3,1.8,1.9,2,2.1c-0.1,0,0,0.2,0,0.3c0,0.4-0.1,1-0.1,0.7c-0.1,0.1-0.5-0.4-0.7-0.6
			c-0.4-0.6-1-1-1.4-1.7c0-0.1-0.1-0.7-0.2-0.8c0.1-0.1,0.1-0.2,0.2-0.2C136.8,206.6,136.9,206.7,136.9,206.7z"/>
	</g>
	<g>
		<path class="st20" d="M127.6,203.9C127.6,204,127.6,204,127.6,203.9c-0.1,0-0.3,0.3-0.1,0.2c0,0.1-0.1,0.3-0.1,0.4
			c-0.1-0.1-0.1,0-0.1-0.1c0.1-0.2,0.1-0.4,0.2-0.6C127.6,203.9,127.6,203.9,127.6,203.9z"/>
	</g>
	<g>
		<path class="st23" d="M127.3,209c0,0-0.1,0-0.2,0.1l0,0c0,0,0,0,0-0.1C127.3,209,127.3,209,127.3,209L127.3,209L127.3,209z"/>
	</g>
	<g>
		<path class="st15" d="M133.4,206.5c0.1,0,0.1,0.1,0.2,0.1c0.1,0.1,0,0.2,0.1,0.2c0.1,1.1,0.1,1.1,0.2,2.2c0.1,0.2,0.4-0.1,0.6,0.1
			c-0.3,0.1-0.3,0.1-0.6,0.2c0.1,1.6,0.1,1.4,1.2,1.8l0,0c-0.1,0-0.3,0.4-0.3,0.5c0,0.2,0.1,2.5,0,3.3c-0.1,0.7-0.3,0.8-0.3,1.4
			c-0.2-0.4-0.9-1.6-0.9-1.8c0.1-1.1-0.1-2.3-0.2-3.4c0-0.5-0.1-1.7-0.1-2c-0.1-0.6-0.8-0.9-1.1-1.3c0-0.2,0.1-0.3,0.1-0.5
			c0.1,0.1,0.5-0.6,0.6-0.8C133.1,206.5,133.3,206.5,133.4,206.5z"/>
		<path class="st16" d="M134.6,216.3v-0.1c-0.1-0.1-0.2-0.4-0.3-0.7c-0.3-0.5-0.5-1-0.6-1.2l0,0l0,0c0.1-0.8,0-1.7-0.1-2.5
			c0-0.3-0.1-0.6-0.1-0.8s0-0.4,0-0.7c0-0.5,0-1.1-0.1-1.3c-0.1-0.3-0.4-0.6-0.6-0.8c-0.2-0.2-0.4-0.3-0.5-0.5l0,0l0,0
			c0-0.1,0-0.2,0.1-0.3c0-0.1,0-0.1,0-0.2l0,0l0,0c0.1,0,0.5-0.5,0.6-0.8l0,0l0,0c0.1,0,0.1,0,0.2,0c0.1,0,0.2,0,0.3,0.1l0,0h0.1
			h0.1l0,0c0.1,0,0,0.1,0,0.1l0,0l0,0l0,0l0.2,2.2c0,0.1,0.1,0,0.2,0c0.1,0,0.3-0.1,0.4,0l0,0l-0.6,0.2c0.1,1.4,0.1,1.4,0.9,1.6
			c0.1,0,0.2,0.1,0.3,0.1l0,0l0,0l0,0l0,0l0,0c-0.1,0-0.2,0.4-0.2,0.4c0,0.1,0,0.5,0,0.9c0,0.8,0,1.9,0,2.4c0,0.4-0.1,0.6-0.2,0.7
			c-0.1,0.2-0.1,0.4-0.1,0.7L134.6,216.3z M133.7,214.3c0,0.1,0.3,0.7,0.5,1.2c0.1,0.2,0.2,0.4,0.3,0.6c0-0.3,0.1-0.4,0.1-0.6
			c0.1-0.2,0.1-0.4,0.2-0.7c0-0.5,0-1.6,0-2.4c0-0.5,0-0.9,0-0.9s0.1-0.4,0.3-0.5c-0.1,0-0.2-0.1-0.3-0.1c-0.8-0.2-0.8-0.3-0.9-1.7
			l0,0l0.6-0.2c-0.1-0.1-0.2,0-0.3,0s-0.2,0.1-0.2,0l0,0l-0.2-2.2l0,0c0,0,0,0,0-0.1c0,0,0,0,0-0.1h-0.1h-0.1l0,0
			c-0.1,0-0.2,0-0.3-0.1h-0.1c-0.1,0.2-0.5,0.8-0.6,0.8l0,0c0,0.1,0,0.1,0,0.2c0,0.1,0,0.2-0.1,0.3c0.1,0.2,0.3,0.3,0.5,0.5
			c0.3,0.2,0.6,0.5,0.7,0.8c0,0.2,0.1,0.8,0.1,1.3c0,0.3,0,0.5,0,0.7c0,0.3,0.1,0.6,0.1,0.8C133.7,212.6,133.8,213.5,133.7,214.3z"
			/>
	</g>
	<g>
		<g>
			<path class="st17" d="M135.1,211c0.2,0.9,0.3,1.9,0.4,2.8c0,0.1,0.1,1.7,0,2.1c-0.2,0.6-0.4,1.1-0.6,1.7
				c-0.1-0.6-0.2-0.9-0.4-1.4c0-0.6,0.2-0.7,0.3-1.4c0.1-0.8,0-3.2,0-3.3C134.9,211.3,135,211,135.1,211z"/>
			<path class="st16" d="M134.9,217.6L134.9,217.6L134.9,217.6c-0.1-0.6-0.2-0.9-0.4-1.4l0,0c0-0.3,0.1-0.5,0.1-0.7
				c0.1-0.2,0.1-0.4,0.2-0.7c0-0.5,0-1.6,0-2.4c0-0.5,0-0.9,0-0.9c0-0.1,0.2-0.5,0.3-0.5l0,0l0,0c0.2,0.9,0.3,1.9,0.4,2.8l0,0
				c0,0,0,0.3,0,0.5c0,0.5,0.1,1.3,0,1.6l0,0C135.4,216.5,135.2,217.1,134.9,217.6C135,217.6,134.9,217.6,134.9,217.6z M134.6,216.2
				c0.2,0.5,0.3,0.8,0.4,1.3c0.2-0.5,0.4-1,0.6-1.6c0-0.3,0-1,0-1.6c0-0.3,0-0.5,0-0.5c-0.1-0.9-0.2-1.8-0.4-2.8
				c-0.1,0-0.2,0.4-0.2,0.4c0,0.1,0,0.5,0,0.9c0,0.8,0,1.9,0,2.4c0,0.4-0.1,0.6-0.2,0.7C134.6,215.7,134.6,215.9,134.6,216.2z"/>
		</g>
		<g>
			<path class="st17" d="M135,206.9C135,207,135,207,135,206.9c-0.1,0.7-0.3,1.1-0.4,1.3c-0.1,0.2,0,0.5-0.1,0.7
				c0.2,0.7,0.5,1.3,0.6,2c-1.1-0.4-1.1-0.2-1.2-1.8c0.3-0.1,0.3-0.1,0.6-0.2c-0.2-0.2-0.5,0.1-0.6-0.1c-0.1-1.1-0.1-1.1-0.2-2.2
				c0-0.2,0.2-0.1,0.4-0.2c0,0.1,0.2,0,0.3,0s0.2-0.1,0.3-0.1C134.8,206.7,134.8,206.7,135,206.9z"/>
			<path class="st16" d="M135.1,211L135.1,211c-0.1,0-0.2-0.1-0.3-0.1c-0.8-0.2-0.8-0.3-0.9-1.7l0,0l0.5-0.2c-0.1-0.1-0.2,0-0.3,0
				s-0.2,0.1-0.2,0l0,0l-0.2-2.2c0-0.1,0-0.1,0-0.1c0-0.1,0.1-0.1,0.2-0.1c0.1,0,0.1,0,0.2-0.1l0,0c0,0,0.1,0,0.2,0h0.1h0.1
				c0.1,0,0.1,0,0.2,0l0,0l0.3,0.5l0,0l0,0l0,0c0,0.5-0.2,0.9-0.3,1.1c0,0.1-0.1,0.2-0.1,0.2c0,0.1,0,0.2,0,0.3s0,0.3-0.1,0.4
				c0.1,0.2,0.1,0.4,0.2,0.6C134.9,210,135,210.4,135.1,211C135.2,210.9,135.2,210.9,135.1,211L135.1,211z M133.9,209.2
				c0.1,1.4,0.1,1.4,0.9,1.6c0.1,0,0.2,0.1,0.3,0.1c-0.1-0.5-0.3-0.9-0.4-1.4c-0.1-0.2-0.1-0.4-0.2-0.5l0,0L133.9,209.2z
				 M133.9,208.9c0,0.1,0.1,0,0.2,0c0.1,0,0.3-0.1,0.4,0l0,0c0.1-0.1,0.1-0.2,0.1-0.4c0-0.1,0-0.2,0-0.3s0.1-0.1,0.1-0.2
				c0.1-0.2,0.3-0.6,0.3-1.1l0,0l0,0l-0.3-0.5c0,0-0.1,0-0.2,0h-0.1h-0.1c-0.1,0-0.2,0.1-0.2,0c-0.1,0-0.1,0-0.2,0.1
				c-0.1,0-0.1,0-0.2,0.1c0,0,0,0,0,0.1L133.9,208.9z"/>
		</g>
	</g>
	<g>
		<path class="st15" d="M132.9,206.4c-0.1,0.2-0.5,0.9-0.6,0.8c0-0.2,0.1-0.4,0.1-0.6c0-0.1,0.2-0.2,0.2-0.2
			C132.8,206.4,132.9,206.4,132.9,206.4z"/>
	</g>
	<g>
		<path class="st22" d="M133.4,206.5c-0.2,0-0.3-0.1-0.5-0.1c-0.1,0-0.2,0-0.3-0.1c0.1-0.1,0.2-0.4,0.3-0.4
			C133.2,206.2,133.2,206.2,133.4,206.5z"/>
		<path class="st16" d="M133.5,206.6L133.5,206.6c-0.2,0-0.3-0.1-0.4-0.1c-0.1,0-0.1,0-0.2,0c-0.1,0-0.2,0-0.3-0.1l0,0l0,0
			c0-0.1,0.1-0.1,0.1-0.2c0.1-0.1,0.1-0.2,0.2-0.2l0,0l0,0L133.5,206.6z M132.7,206.4c0.1,0,0.2,0,0.2,0c0.1,0,0.1,0,0.2,0
			c0.1,0,0.2,0,0.2,0L133,206c0,0-0.1,0.1-0.2,0.2C132.8,206.3,132.7,206.3,132.7,206.4z"/>
	</g>
	<g>
		<path class="st22" d="M133.6,206.6c-0.1,0-0.2-0.1-0.2-0.1c-0.2-0.3-0.2-0.3-0.4-0.5c-0.1,0-0.2,0.3-0.3,0.4
			c0,0.1-0.2,0.1-0.2,0.2c0,0.2,0,0.4-0.1,0.6c0,0.2-0.1,0.3-0.1,0.5c0,0.1-0.1,0.3-0.1,0.4c0,0.1,0,0.1,0,0.2v0.1l0,0
			c0,0.1,0,0.2-0.1,0.3c0,0.1-0.1,0.3-0.2,0.4c-0.9-1.2-2.2-1.9-3.1-3c0-0.1-0.1-0.1-0.1-0.2c-0.4-0.5-0.7-1-1.1-1.4
			c0-0.1,0.1-0.4,0.1-0.4s0-0.1,0.1-0.2l0,0c0-0.1,0.8-0.8,0.8-0.8h0.1c-0.1,0.6-0.3,1.1-0.3,1.7c0,0.1,0.2-0.4,0.3-0.7
			c0.1,0,0.3,0,0.5,0l0,0c0.1,0,0.1,0,0.2,0c0,0,0,0,0.1,0l0,0l0,0l0,0c0.1,0,0.2,0,0.3,0.1s0.1,0.2,0.1,0.3
			c0.1,0.2,0.1,0.4,0.2,0.5c0.1-0.2,0.2-0.4,0.3-0.6c0.1-0.2,0.5,0.1,0.7,0.2c0.1,0.2,0.1,0.2,0.1,0.5c0.1-0.2,0.1-0.2,0.2-0.3
			c0.2,0.1,0.4,0.2,0.6,0.3c0.2,0.1,0.4,0.3,0.6,0.4c0.3,0.2,0.5,0.4,0.8,0.6C133.4,206.2,133.8,206.6,133.6,206.6z"/>
		<path class="st16" d="M131.9,209.2L131.9,209.2c-0.5-0.7-1.1-1.2-1.7-1.7c-0.5-0.4-1-0.9-1.4-1.4l-0.1-0.2
			c-0.3-0.4-0.7-0.9-1.1-1.4l0,0l0,0c0,0,0-0.1,0-0.2c0-0.1,0.1-0.2,0.1-0.3c0,0,0-0.1,0.1-0.2l0,0c0-0.1,0.8-0.8,0.9-0.8h0.1l0,0
			l0,0c0,0.2-0.1,0.4-0.1,0.5c-0.1,0.4-0.2,0.7-0.2,1.1c0-0.1,0.1-0.3,0.2-0.5c0-0.1,0.1-0.1,0.1-0.2l0,0l0,0c0.1,0,0.1,0,0.2,0
			c0.1,0,0.2,0,0.2,0s0,0,0.1,0h0.1l0,0l0,0l0,0l0,0l0,0l0,0h0.1c0.1,0,0.1,0,0.2,0l0,0l0,0c0.1,0.1,0.1,0.1,0.1,0.2v0.1
			c0,0.1,0,0.1,0,0.2c0,0.1,0.1,0.2,0.1,0.3c0.1-0.2,0.2-0.4,0.3-0.5s0.4,0,0.6,0.1c0.1,0,0.1,0,0.1,0.1l0,0l0,0
			c0.1,0.2,0.1,0.2,0.1,0.4l0.2-0.3l0,0c0.2,0.1,0.4,0.2,0.6,0.3c0.2,0.1,0.5,0.3,0.6,0.4c0.3,0.2,0.6,0.4,0.8,0.6
			c0.2,0.2,0.4,0.5,0.4,0.6l0,0l0,0l0,0h-0.1h-0.1l0,0l0,0c-0.2-0.3-0.2-0.3-0.4-0.5c0,0-0.1,0.1-0.2,0.2c0,0.1-0.1,0.1-0.1,0.2
			c0,0-0.1,0-0.1,0.1c-0.1,0-0.1,0.1-0.1,0.1c0,0.2,0,0.4-0.1,0.6c0,0.1,0,0.1,0,0.2c0,0.1,0,0.2-0.1,0.3c0,0.1,0,0.2-0.1,0.3v0.1
			c0,0.1,0,0.1,0,0.2v0.1l0,0v0.1c0,0.1,0,0.1,0,0.2C132,208.9,131.9,209.1,131.9,209.2L131.9,209.2z M127.5,204.6
			c0.4,0.4,0.8,0.9,1.1,1.4l0.1,0.2c0.4,0.5,0.9,0.9,1.4,1.3c0.6,0.5,1.2,1,1.7,1.7c0.1-0.1,0.1-0.2,0.1-0.4c0-0.1,0-0.1,0-0.2v-0.1
			l0,0v-0.1c0-0.1,0-0.1,0-0.2v-0.1c0-0.1,0-0.2,0.1-0.3c0-0.1,0-0.2,0.1-0.3c0-0.1,0-0.1,0-0.2c0-0.2,0.1-0.4,0.1-0.6l0,0
			c0-0.1,0.1-0.1,0.2-0.2c0,0,0.1,0,0.1-0.1s0.1-0.1,0.1-0.2c0.1-0.1,0.1-0.2,0.2-0.2l0,0l0,0l0,0c0.2,0.3,0.2,0.3,0.4,0.5h0.1h0.1
			c0,0-0.1-0.2-0.4-0.5c-0.2-0.2-0.5-0.4-0.8-0.6c-0.2-0.1-0.4-0.3-0.6-0.4c-0.2-0.1-0.4-0.2-0.6-0.3l-0.2,0.4l0,0
			c-0.1-0.2-0.1-0.2-0.1-0.5c0,0-0.1,0-0.1-0.1c-0.2-0.1-0.5-0.2-0.5-0.1c-0.1,0.2-0.2,0.4-0.3,0.6l0,0l0,0
			c-0.1-0.1-0.1-0.2-0.1-0.4c0-0.1,0-0.1,0-0.2v-0.1c0-0.1,0-0.1-0.1-0.2c-0.1,0-0.1,0-0.2,0h-0.1l0,0l0,0l0,0l0,0l0,0l0,0h-0.1
			c0,0,0,0-0.1,0s-0.2,0-0.2,0c-0.1,0-0.1,0-0.2,0c0,0.1,0,0.1-0.1,0.2c-0.2,0.4-0.2,0.5-0.3,0.5l0,0l0,0l0,0l0,0
			c0-0.4,0.1-0.8,0.2-1.1c0-0.2,0.1-0.3,0.1-0.5l0,0c0,0-0.8,0.7-0.8,0.8l0,0c0,0,0,0.1-0.1,0.2c0,0,0,0.1-0.1,0.2
			C127.5,204.5,127.5,204.5,127.5,204.6z M127.6,204L127.6,204L127.6,204z"/>
	</g>
	<g>
		<g>
			<path class="st24" d="M136.9,196.9c0.1,0,0.2,0,0.2,0.1c-0.1,0-0.2,0.1-0.3,0.1c-0.1,0.1,0,0.1,0,0.1c-0.1,0.1-0.2,0.3-0.3,0.4
				c-0.2,0.2-1.3,0.9-1.5,1l-0.3,0.1c0.5,0.7,1,1,1.8,1.1c0.2,0,1.1,0.1,0.8,0c0.1,0.1,0.1,0.1,0.2,0.1c0.4,0,1,0.1,1.4,0.2
				c0,0,0,0,0,0.1c-0.4,0-0.8-0.1-1.3-0.1c-0.3,0-0.5,0-0.7,0.1c-0.6,0.2-1.2,1-1.3,1.8c-0.2,1.5,0.8,2.3,1.2,3.2
				c0.1,0.2,0.3,1.2,0.2,1.3c0-0.2-0.1-0.5-0.3-0.7c0.1,0.4,0.1,0.4,0.2,0.7c-0.1,0-0.1,0.1-0.2,0.2c0-0.1,0-0.3-0.1-0.3
				c-0.2-0.4,0,0.3-0.1,0.7c-0.1-0.3-0.1-0.3-0.2-0.6c0.5-0.6-0.7-2.1-1-2.7c-0.1-0.4-0.3-0.7-0.4-1l-0.1-0.2
				c-0.1-0.5,0.3-1.3-0.3-0.9c-0.1,0,0.1-0.2,0-0.4s-0.5,0.1-0.6,0.1s0-0.1-0.1-0.1c0-0.1,0.2-0.1,0.2-0.2c0-0.2-0.7,0.3-0.2-0.2
				c0-0.1-0.1-0.1,0-0.2c-0.1,0-0.1,0-0.3-0.1c0.2-0.2,0-0.1-0.3-0.1c-0.1,0-0.1,0-0.2,0c-0.2,0-0.5,0-0.7-0.2c0,0,0,0,0-0.1
				c0.7-0.3,1.5-0.6,2.2-0.9c0.3-0.1,0.6-0.1-0.1-0.6c0,0-0.3-0.2-0.5-0.3h-0.1c-0.1-0.1-0.2-0.1-0.3-0.2c-0.3-0.4-1.2-0.7-1.7-1
				c0.3,0,1.7,0.9,1.8,1c0.2,0,0.5,0,0.7,0c-0.1-0.1-0.3,0-0.3-0.2c0.3,0,0.6-0.3,0.9-0.3c-0.1,0-0.1,0-0.2,0c0.1,0-0.3-0.2-0.4-0.2
				c0,0.1-0.2,0.2-0.3,0.2c-0.2,0.1-0.3,0.1-0.5,0c-0.5-0.5-0.2-1.4,0.5-1.2l0,0c-0.4-0.1-0.9,0.4-0.6,0.9c0.4,0.8,1.5-0.2,0.7-0.9
				c0,0,0,0-0.1-0.1c-0.6-0.3-0.8,0.5-0.9,0.6c-0.3-0.2-1-0.1-1-0.5c0.3-0.2,0.7-0.2,1.1-0.3c0.2-0.1,0.6-0.3,0.9-0.4c0,0,0,0,0.1,0
				c0.3,0,1.2,0.5,1.6,0.6C136.4,196.8,136.7,196.8,136.9,196.9z"/>
		</g>
		<g>
			<path class="st25" d="M130.5,195.7c-0.1,0.1,0.3,0.5,0.5,0.4c0.1,0,0,0.1,0.1,0.2c-0.1,0.1-0.1,0.1-0.3,0.2
				c0.3,0.1,0.6,0.1,0.9,0.1c0.2,0,0.4-0.1,0.6,0c-0.1,0.4,0.7,0.4,1,0.5c0,0.2,0.1,0.4,0.2,0.5c-0.1,0.1-0.3-0.1-0.3,0
				s0.4,0.5,0.8,0.5c0,0.1,0.2,0.1,0.3,0.2c-0.2,0-0.5,0.1-0.7,0c-0.1,0-1.5-0.9-1.8-1c0.5,0.4,1.4,0.6,1.7,1
				c-0.4-0.2-1-0.5-1.4-0.7c-0.2-0.1-0.5-0.3-0.8-0.3c0,0.1-0.3,0.4-0.3,0.4s-0.5-0.1-0.6,0c-0.2,0.1-0.5,0.1-0.7,0.1
				c-0.1,0-0.3,0-0.5,0.1l0,0c0.2-0.1-0.3-0.2-0.4-0.2l0,0c0,0,0.1-0.1,0.2-0.1c0.1,0,0.6,0,0.6,0c0-0.3,0.2-0.2-0.2-0.5
				c0,0,0.7-0.1-0.2-0.3c0.3,0,0.5-0.3,0.6-0.2l0,0c-0.1-0.1,0.1-0.2,0.1-0.2c0-0.1-0.2,0,0-0.3
				C130.1,195.9,130.4,195.8,130.5,195.7z"/>
		</g>
		<g>
			<path class="st24" d="M129.9,198.9c-0.2,0-1.2,0.8-1.2,0.8c0,0.1,0.4,0.1,0.5,0.1v0.1c-0.4,0.2-0.6,0.6-0.8,1
				c0.4-0.1,0.4-0.1,0.9-0.2c-0.8,0.4-0.8,0.4-1.6,0.8c-0.1,0.2-0.3,0.5-0.4,0.7c-0.2,0.3-0.5,0.6-0.7,1c0.1-0.5,0.4-0.9,0.6-1.3
				l0,0c-0.3,0.2-0.3,0.2-0.5,0.5c0,0-0.1,0-0.2,0c0,0,0.5-0.9,0.6-1c0.2-0.2,0.7-0.8,0.6-0.9c-0.8,0.8-0.8,0.5,0-0.1
				c0.1,0,0,0.1,0.1,0.1s1-0.9,1.1-1c0.2-0.2,0.5-0.4,0.8-0.6C129.7,198.8,129.8,198.8,129.9,198.9z"/>
		</g>
		<g>
			<path class="st24" d="M130,196c-0.2,0.2,0,0.2,0,0.3c0,0-0.2,0.1-0.1,0.2l0,0c-0.1-0.1-0.3,0.1-0.6,0.2c0.9,0.2,0.2,0.2,0.2,0.3
				c0.4,0.3,0.3,0.2,0.2,0.5c0,0.1-0.5,0-0.6,0s-0.2,0.1-0.2,0.1c-1,0.3-1.3,0.5-0.1-0.4c-0.3,0.1-0.6,0.3-0.9,0.4
				C128.5,197,129.2,196.5,130,196z"/>
		</g>
		<g>
			<path class="st24" d="M129.4,197.9c0,0-0.2,0-0.2,0.1c-0.2,0.1-0.5,0.5-0.8,0.6c-0.3,0.3-0.7,0.5-1.1,0.7c0-0.4,1.5-1.6,1.7-1.6
				C129.1,197.7,129.6,197.7,129.4,197.9z"/>
		</g>
		<g>
			<g>
				<path class="st26" d="M137,196.5c-0.3-0.2-0.8-0.7-1.1-0.7c-0.4,0,0,0.2,0.1,0.3s0.3,0.3,0.5,0.5c0.2,0.1,0.5,0.2,0.5,0.4
					c-0.3-0.1-0.6-0.1-0.9-0.2c-0.4-0.1-1.3-0.6-1.6-0.6c-0.1,0-0.1,0-0.1,0s0,0,0-0.1c-0.1,0-1.4-0.1-1.7-0.1
					c-0.4,0-1.3,0.1-1.6,0.3c-0.2,0.1-0.7-0.3-0.5-0.4c0.9-0.6,1.7-1,2.7-1C134.6,194.7,136.2,195.3,137,196.5z"/>
			</g>
			<g>
				<path class="st19" d="M137,196.5c0.1,0.2,0.2,0.3,0.3,0.5c0,0,0,0-0.2,0.1c0-0.1-0.1-0.1-0.2-0.1c0.1-0.2-0.3-0.2-0.5-0.4
					c-0.2-0.1-0.3-0.3-0.5-0.5c-0.1-0.1-0.5-0.3-0.1-0.3C136.3,195.8,136.7,196.2,137,196.5z"/>
			</g>
		</g>
		<g>
			<path class="st25" d="M133.8,201.3c0,0,0,0.2,0,0.5c0,0.1-0.1,0.2-0.1,0.3c0,0-0.2,0.2-0.1,0.3c-0.5,0.4-0.6,1.1-0.9,1.6
				c0,0.1-0.1,0.2-0.1,0.3c-0.1,0.1-0.2,0.3-0.4,0.2c0.3-0.3,0.4-0.8,0.5-1.2c0.2-0.6,0.4-0.9,0.5-1.6c0-0.8,0-0.8-0.4-0.4
				c-0.1,0.4-1.1,1.8-1,2.1c0.1,0.1,0.2,0.5,0.2,0.7c0,0.3-0.1,0.6-0.2,0.9c-0.2-0.1-0.4-0.2-0.6-0.3c-0.1,0.2-0.1,0.2-0.2,0.3
				c-0.1-0.2-0.1-0.2-0.1-0.5l0,0c0-0.7,0.3-1.6,0.1-1.6c0-0.1,0-0.8,0.3-1.2c0.7-0.2,1.4-0.5,2-1.1c0.3,0,0.5-0.1,0.3,0.1
				c0.1,0,0.1,0,0.3,0.1c-0.1,0.1,0,0.1,0,0.2c-0.4,0.5,0.2-0.1,0.2,0.2C134,201.2,133.8,201.3,133.8,201.3z"/>
		</g>
		<g>
			<path class="st24" d="M136.2,206.6C136.2,206.5,136.2,206.5,136.2,206.6c-0.2,0-0.2,0-0.2,0.1s0.2,0.4-0.1,0.3c0,0.1,0,0.1,0,0.2
				c-0.2-0.3-0.4-0.7-0.7-1c0.2-0.6,0.2-0.7,0-1.3c-0.1-0.3-0.6-1.5-0.8-1.7c-0.4-0.4-0.1,0.2-0.3,0c0,0-0.1-0.4-0.5-1
				c0.2-0.2,0.2-0.2,0-0.4c0.1-0.3,0-0.5,0-0.5c0.1,0,0,0.1,0.1,0.1c0,0,0.5-0.3,0.6-0.1s-0.1,0.4,0,0.4c0.5-0.4,0.2,0.4,0.3,0.9
				c0,0,0.1,0.3,0.1,0.2c0,0.3,0.3,0.7,0.4,1C135.6,204.5,136.7,206,136.2,206.6z"/>
		</g>
		<g>
			<path class="st25" d="M134.3,196c-0.2,0-0.6,0.3-0.9,0.4c-0.4,0.1-0.8,0.1-1.1,0.3c-0.2-0.1-0.4,0-0.6,0c-0.3,0-0.7,0-0.9-0.1
				c0.1-0.1,0.1-0.1,0.3-0.2c-0.1-0.2,0-0.2-0.1-0.2c0.3-0.2,1.2-0.3,1.6-0.3C132.9,195.9,134.2,196,134.3,196L134.3,196z"/>
		</g>
		<g>
			<path class="st25" d="M133.7,199.1c0,0,0.1,0,0.1,0.1c0.2,0.1,0.5,0.3,0.7,0.4c-0.7,0.3-1.5,0.6-2.2,0.9
				c-0.1-0.2,0.1-0.1,0.1-0.3c-0.5,0.1-1.1,0.2-1.6,0.3c-0.2-0.1-0.6-0.1-0.3-0.2c0,0,0.2,0,0.3,0c0.4-0.1,1.4-0.4,1.7-0.5
				c0.3,0,0.9,0.1,0.8-0.1c0.3,0,0.7-0.1,1-0.1c0-0.2-1.3-0.6-1.4-0.7c-0.1,0-0.1,0.1-0.2,0c-0.3-0.3-0.7-0.3-1-0.5
				c0.2,0.1,0.4,0.1,0.5,0.1s0.1,0.1,0.1,0.1s0.3,0,0.4,0.2c0-0.1,0.2,0.1,0.2,0.1l0,0c0,0,0,0,0.1,0.1l0,0c0,0,0.3,0.2,0.5,0.3
				C133.4,199,133.5,199,133.7,199.1z"/>
		</g>
		<g>
			<path class="st27" d="M133.6,198.4c0.1,0.1,0.2,0.2,0.3,0.2c0,0.3,0.3,0.5-0.1,0.5c0,0-0.1,0-0.1-0.1s0-0.1-0.1-0.2
				c-0.1-0.1-1.1-0.8-1.2-0.9c0,0-0.2-0.2-0.2-0.3C132.6,197.9,133.2,198.2,133.6,198.4z"/>
		</g>
		<g>
			<path class="st27" d="M134.5,199.5c-0.3-0.1-0.5-0.2-0.7-0.4c0.3,0,0-0.2,0.1-0.5h0.1c0.2,0.1,0.5,0.3,0.5,0.3
				C135.1,199.4,134.8,199.4,134.5,199.5z"/>
		</g>
		<g>
			<path class="st27" d="M134.1,198.2c-0.5,0-0.8-0.4-0.8-0.5s0.2,0,0.3,0c0,0,0.1,0.1,0.2,0.1c0.2,0.2,0.5,0.3,0.5,0
				c0,0,0.2-0.2,0.3-0.2s0.5,0.2,0.4,0.2c0.1,0,0.1,0,0.2,0C134.7,197.9,134.4,198.1,134.1,198.2z"/>
		</g>
		<g>
			<path class="st25" d="M133.1,200.6c0,0.1-0.1,0.1-0.2,0.1c-0.4,0-0.6,0.2-1,0.3l0,0c0,0,0,0,0,0.1l0,0c0,0,0,0,0,0.1l0,0
				l-0.1,0.1c-0.1,0-0.6,0.2-0.4,0.1c0,0,0.2,0,0.3-0.1s0.5-0.5,0.8-0.6C132.6,200.6,132.8,200.6,133.1,200.6z"/>
		</g>
		<g>
			<path class="st28" d="M136.8,206.5c0,0,0,0.1,0,0.2C136.9,206.7,136.8,206.6,136.8,206.5c-0.2-0.4-0.2-0.4-0.3-0.7
				C136.7,206,136.8,206.3,136.8,206.5z"/>
		</g>
		<g>
			<path class="st29" d="M134.2,197.8c0,0.3-0.3,0.2-0.5,0C133.9,197.9,134,197.9,134.2,197.8z"/>
		</g>
		<g>
			<path class="st27" d="M132.2,197.7c0,0.1,0.2,0.3,0.2,0.3c0.1,0.1,1.1,0.8,1.2,0.9c0.1,0.1,0.1,0.1,0.1,0.2
				c-0.2-0.1-0.2-0.1-0.3-0.1c-0.2-0.1-0.4-0.2-0.5-0.3l0,0c-0.1,0-0.1-0.1-0.1-0.1l0,0c0,0-0.1-0.1-0.2-0.1
				c-0.1-0.1-0.3-0.1-0.4-0.2c0,0,0-0.1-0.1-0.1c0,0-0.3,0-0.5-0.1l-0.1-0.1c-0.1,0-0.1-0.1-0.1-0.1c-0.2-0.2-0.2-0.2-0.4-0.4
				c0,0,0.3-0.3,0.3-0.4C131.7,197.4,132,197.6,132.2,197.7z"/>
		</g>
		<g>
			<g>
				<path class="st25" d="M131.2,197.8c0.2,0.2,0.2,0.2,0.4,0.4c-1.1-0.4-0.8-0.5-1.4,0.1c-0.2,0.2-0.3,0.4-0.5,0.6
					c-0.2,0.2-0.6,0.4-0.8,0.6c-0.1,0.1-1,1.1-1.1,1s0.1-0.1-0.1-0.1s-0.7,0.4-0.9,0.4c0.2-0.8,0.9-1.4,1.4-1.9
					c0.1-0.1,0.2-0.2,0.1-0.2c0.3-0.2,0.5-0.5,0.8-0.6c0.1-0.1,0.2-0.1,0.2-0.1l0,0c-0.1,0-0.1,0.1-0.2,0.1c0,0,0.8-0.1,0.7-0.2
					c0.2,0,0.5,0,0.7-0.1S131.1,197.8,131.2,197.8z"/>
			</g>
			<g>
				<path class="st24" d="M129.9,197.8c0.2,0.1-0.7,0.2-0.7,0.2c0.1,0,0.1-0.1,0.2-0.1C129.6,197.8,129.7,197.9,129.9,197.8z"/>
			</g>
		</g>
		<g>
			<path class="st24" d="M129.4,199.8c0.1,0.1,0.9,0.3,0.9,0.4c-0.1,0.1-0.3,0.1-0.6,0.3c-0.1,0-0.4,0.4-0.3,0.5c0,0,0.4,0,0.5,0
				c0,0.1-0.4,0.3-0.5,0.4c0.3,0.2,0.4-0.1,0.6,0c0,0-0.1,0-0.1,0.1c0,0-0.1,0.1-0.2,0.1c0.2,0.2,0.2,0.2,0.5,0.3
				c-0.4,0.3-0.4,0.3-0.9,0.6c-0.3,0.5-0.5,1-0.8,1.6c-0.1,0.3-0.3,0.8-0.3,0.7c0-0.6,0.2-1.1,0.3-1.7c0.1-0.3,0.7-0.5,0.6-0.7
				c-0.6,0.7-1.2,0.8-0.3-0.1c0.1-0.4,0.6-0.8,0.4-0.8c-0.1,0-1.4,1.4-1.6,1.6c0,0.1,0,0.1,0,0.1c-0.2,0.3-0.5,0.9-0.7,0.9
				c-0.5,0.8-0.6,1.3-0.4,0.2c0.2-0.9,0.8-2,0.9-2.1v-0.1c0.2-0.2,0.3-0.5,0.4-0.7c0.8-0.4,0.8-0.4,1.6-0.8
				c-0.4,0.1-0.4,0.1-0.9,0.2C128.7,200.4,128.9,200,129.4,199.8C129.3,199.8,129.3,199.8,129.4,199.8z"/>
		</g>
		<g>
			<path class="st27" d="M132.7,198.8c0,0.1,0.1,0,0.2,0c0.2,0.1,1.4,0.6,1.4,0.7c-0.3,0.1-0.7,0.2-1,0.1c-0.1,0-0.3-0.1-0.4-0.1
				c-0.5-0.1-1-0.3-1.4-0.4c-0.5-0.1-1.1-0.2-1.6-0.3c-0.1,0-0.2,0-0.3,0c0.2-0.2,0.3-0.4,0.5-0.6v0.1
				C130.3,198.4,132.2,198.4,132.7,198.8z"/>
		</g>
		<g>
			<path class="st27" d="M131.5,198.2L131.5,198.2c0.1,0.1,0.2,0.1,0.2,0.1c0.3,0.2,0.7,0.2,1,0.5c-0.6-0.4-2.4-0.4-2.6-0.4v-0.1
				C130.7,197.7,130.5,197.8,131.5,198.2z"/>
		</g>
		<g>
			<path class="st25" d="M132.9,199.6c-0.3,0-0.6-0.2-0.9-0.2c-0.3-0.1-0.7,0-1.1-0.1c-0.2,0-0.3-0.1-0.3-0.1
				c-0.4-0.1-0.7-0.2-0.6,0c-0.3,0.1-0.6,0.3-0.8,0.6c0.1,0,0.1,0,0.1,0h-0.1c0,0,0,0,0-0.1c-0.1,0-0.5,0-0.5-0.1s1-0.8,1.2-0.8
				c0.5,0.1,1.1,0.1,1.6,0.3C132,199.2,132.5,199.4,132.9,199.6z"/>
		</g>
		<g>
			<g>
				<path class="st24" d="M136.3,199.1c0.7,0,1.4,0,2.1,0.2c0.1,0,0.1,0,0.2,0.1c0.2,0.1,0.5,0.1,0.7,0.2c0,0,0,0,0.1,0
					c0.3,0.1,0.6,0.2,0.9,0.3c0,0.1,0.1,0.1,0.2,0.1c0,0,0,0,0.1,0.1c0.3,0.2,0.7,0.3,0.9,0.5c0,0.1,0,0.2,0.1,0.2
					c-0.1,0.1-0.2-0.2-0.3-0.3c-0.2-0.1-2.1-0.4-2.4-0.4c0,0,0,0,0-0.1c-0.4-0.1-0.9-0.2-1.4-0.2c-0.1-0.1-0.1-0.1-0.2-0.1
					c-0.2-0.2-1.3-0.4-1.3-0.5c-0.1-0.1,0.2,0,0.4-0.1c-0.1-0.1-0.8,0-0.5-0.1C136,199.2,136.1,199.1,136.3,199.1z"/>
			</g>
			<g>
				<path class="st30" d="M139.7,198c0.1,0.3,0.5,0.5,0.6,1c-0.7-0.5-1.5-1-2.3-1.2c-0.3-0.1-0.9-0.2-1.1-0.5c0,0,0,0,0-0.1v-0.1
					c0.1-0.1,0.2-0.1,0.3-0.1c0.2,0,0.1-0.1,0.2-0.1c0.2,0,1.5,0.5,1.8,0.7C139.3,197.7,139.5,197.9,139.7,198z"/>
			</g>
			<g>
				<path class="st31" d="M139.7,198c0.5,0.3,0.9,0.7,1.3,1.2c0.3,0.4,0.7,1.5,0.6,1.6c0,0,0-0.1-0.1-0.2c-0.1-0.6-0.1-0.4-0.2-0.4
					c0,0-0.2-0.3-0.5-0.5c-0.4-0.3-1-0.4-1.5-0.6c-0.1-0.2-0.1-0.2-0.1-0.3c1.5,0.5,0.6-0.2-0.1-0.6c-0.4-0.2-0.8-0.3-1.1-0.5
					c0.8,0.2,1.6,0.7,2.3,1.2C140.2,198.5,139.7,198.3,139.7,198z"/>
			</g>
			<g>
				<path class="st26" d="M136.8,197.3c-0.1,0.6,0.4,0.7,0,1.1c-0.2,0.1-0.4,0.2-0.4,0.2c-0.5,0-0.9-0.1-1.4,0c0,0,0,0,0-0.1
					c0.2-0.1,1.3-0.8,1.5-1C136.5,197.5,136.7,197.4,136.8,197.3L136.8,197.3z"/>
			</g>
			<g>
				<path class="st25" d="M136.4,198.7c1,0.1,2,0.3,2.9,0.6c0.5,0.1,1.1,0.3,1.5,0.6c0.3,0.2,0.5,0.5,0.5,0.5c0.1,0,0-0.3,0.2,0.4
					c-0.3-0.2-0.6-0.4-0.9-0.5c0-0.1-0.1-0.1-0.1-0.1s-0.1-0.1-0.2-0.1c-0.3-0.1-0.6-0.2-0.9-0.3c0,0,0,0-0.1,0
					c-0.2-0.1-0.4-0.1-0.7-0.2c-0.1,0-0.1-0.1-0.2-0.1c-0.6-0.2-1.2-0.4-1.9-0.4c-0.3,0-1.3-0.1-1.5-0.2c-0.1-0.1-0.1-0.1-0.1-0.1
					C135.4,198.6,135.9,198.7,136.4,198.7z"/>
			</g>
			<g>
				<g>
					<path class="st32" d="M134.9,198.6C134.9,198.6,135,198.6,134.9,198.6c0,0.1,0,0.1,0.1,0.1c0.2,0.1,1.1,0.1,1.5,0.2
						c0,0.3-0.2,0.1-0.2,0.2c-0.1,0-0.3,0-0.4,0c-0.3,0.1,0.3,0.1,0.5,0.1c-0.3,0-0.5,0-0.4,0.1s1.1,0.3,1.3,0.5
						c0.2,0.1-0.6,0-0.8,0c-0.8-0.1-1.3-0.4-1.8-1.1C134.6,198.7,134.9,198.6,134.9,198.6z"/>
				</g>
				<g>
					<path class="st33" d="M138.4,199.3c-0.7-0.2-1.4-0.2-2.1-0.2c0-0.1,0.2,0.1,0.2-0.2C137.2,198.9,137.8,199.2,138.4,199.3z"/>
				</g>
			</g>
			<g>
				<path class="st33" d="M139.3,199.6c-0.2-0.1-0.5-0.2-0.7-0.2C138.8,199.5,139.1,199.5,139.3,199.6z"/>
			</g>
			<g>
				<path class="st33" d="M138.6,199.4c-0.1,0-0.1,0-0.2-0.1C138.5,199.3,138.5,199.4,138.6,199.4z"/>
			</g>
			<g>
				<path class="st34" d="M140.4,200c-0.1,0-0.1,0-0.2-0.1C140.3,199.9,140.4,200,140.4,200z"/>
			</g>
			<g>
				<path class="st34" d="M140.5,200.1c-0.1,0-0.1-0.1-0.1-0.1C140.5,200,140.6,200,140.5,200.1z"/>
			</g>
			<g>
				<path class="st33" d="M139.4,199.6C139.3,199.6,139.3,199.6,139.4,199.6C139.3,199.6,139.3,199.6,139.4,199.6z"/>
			</g>
			<g>
				<path class="st32" d="M137.9,197.8c0.3,0.2,0.7,0.3,1.1,0.5c0.7,0.4,1.7,1.1,0.1,0.6c0.1,0.2,0.1,0.2,0.1,0.3
					c-1-0.3-1.9-0.4-2.9-0.6c0-0.1,0.2-0.1,0.4-0.2c0.4-0.4-0.1-0.6,0-1.1C137,197.6,137.6,197.7,137.9,197.8z"/>
			</g>
		</g>
		<g>
			<path class="st25" d="M133.8,202.3c0.3,0.6,0.4,1,0.5,1c0.1,0.2-0.1-0.4,0.3,0c0.2,0.2,0.7,1.4,0.8,1.7c0.2,0.5,0.2,0.7,0,1.3
				c-0.1-0.1-0.2-0.2-0.3-0.3c0-0.1-0.4-0.7-0.4-0.7c-0.1,0,0,0.4,0,0.7c0,0-0.5,0.5-0.5,0.6c-0.2,0.1-0.4,0-0.4,0.2
				c-0.1,0,0-0.1-0.1-0.2c0.1,0-0.2-0.4-0.4-0.5c-0.1-0.4-0.5-0.6-0.2-0.7c-0.1-0.1-0.1,0.2-0.2-0.1c-0.1-0.2,0-0.9-0.1-1.1l0,0
				c0.2-0.6,0.4-1.3,0.9-1.6C133.7,202.5,133.8,202.3,133.8,202.3C133.7,202.1,133.7,202.2,133.8,202.3z"/>
		</g>
		<g>
			<g>
				<path class="st24" d="M128.6,203.1C128.5,203.1,128.5,203.1,128.6,203.1c-0.1,0-0.9,0.8-0.9,0.8c-0.1,0-0.1,0-0.2-0.1
					c0.1-0.2,0.1-0.4,0.1-0.6c0,0,0,0,0-0.1c0.2-0.2,1.5-1.6,1.6-1.6c0.2,0-0.3,0.4-0.4,0.8c-0.9,0.9-0.3,0.8,0.3,0.1
					C129.2,202.6,128.7,202.9,128.6,203.1z"/>
			</g>
			<g>
				<path class="st35" d="M127.6,204c0,0,0,0.1-0.1,0.2C127.3,204.2,127.5,204,127.6,204z"/>
			</g>
		</g>
		<g>
			<path class="st27" d="M132.3,204.5c-0.1-0.1-0.2-0.4-0.2-0.4c0-0.2,0-0.6-0.2-0.7c-0.1-0.3,0.9-1.7,1-2.1
				c0.4-0.5,0.4-0.5,0.4,0.4c0,0.7-0.2,1-0.5,1.6C132.6,203.7,132.6,204.2,132.3,204.5z"/>
		</g>
		<g>
			<path class="st36" d="M130.9,204.6c-0.2-0.1-0.6-0.3-0.7-0.2v-0.1c0.2-0.3,0.5-0.6,0.7-0.9c0-0.1,0.1-0.3,0.1-0.5
				C131.3,203,131,203.9,130.9,204.6C131,204.6,130.9,204.6,130.9,204.6z"/>
		</g>
		<g>
			<path class="st20" d="M132.3,204.5c0.1,0.1,0.3-0.1,0.4-0.2c0,0.3,0,0.8-0.2,1.1c-0.2-0.1-0.4-0.3-0.6-0.4c0-0.3,0.2-0.6,0.2-0.9
				C132.1,204.1,132.1,204.4,132.3,204.5z"/>
		</g>
		<g>
			<path class="st24" d="M133.3,206c-0.2-0.3-0.5-0.5-0.8-0.6c0.1-0.3,0.2-0.8,0.2-1.1c0-0.1,0.1-0.2,0.1-0.3l0,0
				c0,0.2,0,0.9,0.1,1.1c0.1,0.3,0.1,0,0.2,0.1C132.8,205.5,133.2,205.7,133.3,206z"/>
		</g>
		<g>
			<path class="st24" d="M133.8,202.3c0-0.1,0-0.1-0.1-0.2c0,0,0.1-0.2,0.1-0.3C134,202,134,202.1,133.8,202.3z"/>
		</g>
		<g>
			<path class="st27" d="M132.9,199.6c0.1,0,0.3,0.1,0.4,0.1c0,0.2-0.5,0.1-0.8,0.1c-0.4,0.1-1.3,0.4-1.7,0.5c-0.1,0-0.2,0-0.3,0
				c-0.3,0.1,0.2,0.1,0.3,0.2c-0.2,0.1-0.4,0.3-0.5,0.5c-0.2-0.1-0.4,0.1-0.4,0.1c-0.1,0-0.4,0-0.5,0c-0.1-0.1,0.3-0.4,0.3-0.5
				c0.2-0.1,0.5-0.2,0.6-0.3c0-0.1-0.8-0.4-0.9-0.4c0,0,0,0-0.1,0c0.2-0.3,0.5-0.5,0.8-0.6c0.2,0,0.6,0.1,0.6,0c0,0,0.1,0.1,0.3,0.1
				c0.3,0.1,0.7,0,1.1,0.1C132.3,199.4,132.7,199.6,132.9,199.6z"/>
		</g>
		<g>
			<g>
				<path class="st27" d="M132.3,200.4L132.3,200.4c-0.3,0.2-0.7,0.6-0.8,0.7c-0.1,0.1-0.3,0-0.3,0.1c-0.2,0.1,0.3,0,0.4-0.1
					c0.6-0.2,0.6-0.2,1.3-0.4c0.1,0,0.2,0,0.2-0.1c0.1,0,0.1,0,0.2,0c-0.5,0.6-1.3,0.9-2,1.1c-0.2,0.4-0.2,1.1-0.3,1.2
					c0,0.1-0.1,0.3-0.1,0.5c-0.2,0.3-0.5,0.6-0.7,0.9c-0.1,0-0.5-0.1-0.6-0.1s0.1,0.2,0,0.2c0-0.1,0-0.2-0.1-0.3
					c0.1-0.3,0.2-0.5,0.2-0.8c0.2-0.3,0.4-0.7,0.7-1c0.1-0.1,0.3-0.3,0.4-0.5c-0.2,0.1-0.2,0.1-0.5,0.2c0.1-0.2,0.3-0.4,0.4-0.7
					c0.1,0,0.2-0.1,0.2-0.1s0.1,0,0.2-0.1c-0.1,0-0.1,0.1-0.2,0.1c0,0,0,0-0.1,0l-0.1,0.1h-0.1c-0.1,0-0.1,0.1-0.1,0.1
					c-0.2,0.1-0.7,0.2-0.8,0.1c0,0,0.1,0,0.1-0.1c0.1-0.1,0.3-0.4,0.3-0.5c0.2-0.2,0.3-0.4,0.5-0.5c0.5-0.2,1.1-0.3,1.6-0.3
					C132.4,200.3,132.3,200.2,132.3,200.4z"/>
			</g>
			<g>
				<path class="st25" d="M130.3,204.3v0.1c-0.1,0.2-0.2,0.4-0.3,0.6c-0.1-0.1-0.1-0.4-0.2-0.5c0.1,0-0.1-0.2,0-0.2
					C129.7,204.2,130.2,204.3,130.3,204.3z"/>
			</g>
		</g>
		<g>
			<path class="st20" d="M130.3,200.9c-0.1,0.1-0.2,0.3-0.3,0.5c-0.2-0.1-0.3,0.2-0.6,0c0.2-0.2,0.6-0.3,0.5-0.4
				C129.9,201,130.1,200.9,130.3,200.9z"/>
		</g>
		<g>
			<path class="st24" d="M129.8,203.4c0,0.3-0.1,0.5-0.2,0.8c-0.1,0-0.2,0-0.3-0.1h-0.1C129.4,203.9,129.6,203.4,129.8,203.4z"/>
		</g>
		<g>
			<g>
				<path class="st25" d="M131,201.3c-0.1,0-0.2,0.1-0.2,0.1c-0.1,0.2-0.3,0.4-0.4,0.7c-0.1,0.2-0.1-0.1-0.2,0.1
					c0,0.6-0.1,0.6,0.3,0.2c-0.2,0.3-0.4,0.7-0.7,1c-0.1,0-0.3,0.5-0.6,0.7c-0.1,0-0.1,0-0.2,0c-0.1,0-0.3,0-0.5,0
					c0.2-0.5,0.5-1.1,0.8-1.6c0.4-0.3,0.4-0.3,0.9-0.6c-0.2-0.2-0.2-0.2-0.5-0.3c0-0.1,0.1-0.1,0.2-0.1c0,0.2,0.6,0,0.8-0.1
					c0,0,0,0,0.1-0.1C130.8,201.3,130.8,201.3,131,201.3C130.8,201.3,130.9,201.3,131,201.3L131,201.3z"/>
			</g>
			<g>
				<path class="st27" d="M130.4,202.3c-0.4,0.4-0.3,0.4-0.3-0.2c0.2-0.2,0.2,0.1,0.2-0.1c0.2-0.1,0.2-0.1,0.5-0.2
					C130.7,202,130.5,202.2,130.4,202.3z"/>
			</g>
		</g>
		<g>
			<path class="st25" d="M132.9,200.6c-0.6,0.2-0.6,0.2-1.3,0.4c0.1,0,0.1-0.1,0.1-0.1l0,0c0,0,0,0,0-0.1l0,0c0,0,0,0,0-0.1l0,0
				C132.3,200.8,132.5,200.6,132.9,200.6z"/>
		</g>
		<g>
			<path class="st25" d="M131,201.3c0,0,0.1-0.1,0.2-0.1C131.1,201.3,131,201.3,131,201.3z"/>
		</g>
		<g>
			<path class="st24" d="M136.2,206.5c0,0.3,0,0.3,0.1,0.7C136.2,206.9,136.2,206.9,136.2,206.5C136.1,206.6,136,206.6,136.2,206.5z
				"/>
		</g>
		<g>
			<path class="st24" d="M135,205.9c0,0-0.1,0-0.1-0.1l-0.1-0.1c0,0-0.1,0.1-0.1,0.2l0,0c0-0.3-0.1-0.7,0-0.7
				C134.7,205.3,135,205.9,135,205.9z"/>
		</g>
		<g>
			<g>
				<path class="st37" d="M134.2,196.6c-0.7-0.2-1,0.7-0.5,1.2c0,0-0.1-0.1-0.2-0.1c-0.1-0.1-0.2-0.3-0.2-0.5
					C133.3,197.1,133.6,196.3,134.2,196.6z"/>
			</g>
			<g>
				<g>
					<path class="st28" d="M134.2,196.6L134.2,196.6c0.8,0.7-0.2,1.7-0.6,0.9C133.3,197,133.8,196.6,134.2,196.6z"/>
				</g>
				<g>
					<path class="st38" d="M134.3,196.6C134.2,196.6,134.2,196.6,134.3,196.6C134.2,196.6,134.2,196.6,134.3,196.6
						C134.2,196.6,134.2,196.6,134.3,196.6z"/>
				</g>
				<g>
					<path class="st24" d="M134.1,196.8c0,0.6,0.4,0.3,0.2-0.1c0.2,0,0.2,0.7-0.1,0.8c-0.2,0-0.4-0.1-0.4-0.3
						C133.6,196.8,134.1,196.8,134.1,196.8z"/>
				</g>
				<g>
					<path class="st33" d="M134.3,196.8c0.3,0.4-0.2,0.6-0.2,0.1C134.1,196.8,134.2,196.8,134.3,196.8z"/>
				</g>
			</g>
		</g>
		<g>
			<path class="st25" d="M131.7,198.3c0,0-0.1,0-0.1-0.1C131.6,198.1,131.7,198.3,131.7,198.3z"/>
		</g>
		<g>
			<path class="st27" d="M130.7,199.2c0,0.1-0.4,0.1-0.6,0C130,199,130.2,199.1,130.7,199.2z"/>
		</g>
	</g>
	<g>
		<g>
			<path class="st22" d="M136.8,211.2c-0.1,0.9-0.3,2-0.6,2.9c0,0.2-0.2,0.3-0.2,0.3c-0.1,0.2-0.2,0.4-0.2,0.6
				c-0.1,0.2-0.1,0.5-0.2,0.8c0-0.4-0.1-2,0-2.1c-0.1-0.9-0.2-1.9-0.4-2.8l0,0c-0.2-0.7-0.4-1.3-0.6-2c0.1-0.2,0.1-0.5,0.1-0.7
				c0.1-0.2,0.3-0.6,0.4-1.3c0.1,0.2,0.2,0.6,0.3,0.9c0.1,0.5,0.2,1.3,0.4,1.3l0.3-0.3c0.3-0.4,0-1.1,0.2-1c0-0.4,0.2-0.5,0.1-0.7
				c0.1-0.4-0.1-1.1,0.1-0.7c0,0,0.1,0.2,0.1,0.3s0.1,0.7,0.2,0.8C136.8,208.3,136.9,210.4,136.8,211.2z"/>
			<path class="st16" d="M135.5,216v-0.2c0-0.3,0-1,0-1.6c0-0.3,0-0.5,0-0.5c-0.1-0.9-0.2-1.9-0.4-2.8l0,0c-0.1-0.5-0.3-1-0.4-1.4
				c-0.1-0.2-0.1-0.4-0.2-0.6l0,0l0,0c0.1-0.1,0.1-0.2,0.1-0.4c0-0.1,0-0.2,0-0.3s0.1-0.1,0.1-0.2c0.1-0.2,0.3-0.6,0.3-1.1v-0.1v0.1
				c0.1,0.2,0.2,0.6,0.3,0.9c0,0.1,0.1,0.3,0.1,0.5c0.1,0.4,0.2,0.8,0.3,0.8l0.3-0.3c0.1-0.2,0.1-0.5,0.1-0.7c0-0.1,0-0.2,0-0.3
				c0,0,0,0,0.1,0c0-0.2,0-0.3,0.1-0.4c0-0.1,0.1-0.1,0-0.2l0,0l0,0c0-0.2,0-0.5,0-0.7c0-0.1,0-0.2,0-0.2s0,0,0.1,0.1
				c0,0,0,0.1,0,0.2v0.1c0,0.1,0.1,0.7,0.2,0.8c0.1,0.7,0.2,2.9,0.1,3.6c-0.1,0.9-0.3,2-0.6,2.9c0,0.1-0.1,0.3-0.1,0.3l0,0
				c0,0.1-0.1,0.2-0.1,0.3c-0.1,0.1-0.1,0.2-0.1,0.4c-0.1,0.1-0.1,0.3-0.1,0.4c0,0.1-0.1,0.2-0.1,0.3L135.5,216z M134.5,208.9
				c0.1,0.2,0.1,0.4,0.2,0.6c0.2,0.5,0.3,0.9,0.4,1.4l0,0c0.2,0.9,0.3,1.9,0.4,2.8l0,0l0,0c0,0,0,0.3,0,0.5c0,0.4,0,1,0,1.4
				c0-0.1,0-0.1,0-0.2c0-0.1,0.1-0.3,0.1-0.4c0-0.1,0.1-0.3,0.1-0.4c0-0.1,0.1-0.2,0.1-0.3l0,0c0-0.1,0.1-0.2,0.1-0.3
				c0.3-1,0.6-2,0.6-2.9l0,0c0-0.7,0-2.9-0.1-3.6c0-0.1-0.1-0.7-0.2-0.8v-0.1c0-0.1,0-0.2,0-0.2s0,0,0-0.1v0.1c0,0.2,0,0.5,0,0.7
				c0,0.1,0,0.2,0,0.2c0,0.1-0.1,0.2-0.1,0.4l0,0l0,0l0,0c0,0,0,0.1,0,0.2c0,0.2,0,0.5-0.1,0.7l-0.3,0.3c-0.2,0-0.3-0.4-0.4-0.8
				c0-0.2-0.1-0.3-0.1-0.4c-0.1-0.2-0.2-0.6-0.3-0.8c0,0.5-0.2,0.8-0.3,1c0,0.1-0.1,0.2-0.1,0.2c0,0.1,0,0.2,0,0.3
				C134.6,208.7,134.6,208.8,134.5,208.9z"/>
		</g>
	</g>
	<g>
		<g>
			<path class="st22" d="M136.3,207.8c-0.2-0.1,0,0.5-0.2,1l-0.3,0.3c-0.2,0-0.3-0.8-0.4-1.3c-0.1-0.3-0.2-0.7-0.3-0.9l0,0
				c-0.2-0.3-0.2-0.3-0.3-0.5c-0.1,0-0.2,0-0.3,0.1c-0.1,0-0.2,0.1-0.3,0c0,0,0.5-0.5,0.5-0.6l0,0c0-0.1,0.1-0.1,0.1-0.2l0.1,0.1
				c0,0,0.1,0,0.1,0.1c0.1,0.1,0.2,0.2,0.3,0.3c0.2,0.2,0.5,0.7,0.7,1c0-0.1,0-0.1,0-0.2c0.2,0.1,0-0.2,0.1-0.3
				c0.1,0.3,0.1,0.3,0.2,0.6c0-0.3,0-0.3-0.1-0.7c0,0,0,0,0.1,0c0.1,0.3,0.1,0.3,0.2,0.6C136.5,207.3,136.3,207.5,136.3,207.8z"/>
			<path class="st16" d="M135.8,209.2c-0.2,0-0.3-0.4-0.3-0.8c0-0.2-0.1-0.3-0.1-0.4c-0.1-0.2-0.2-0.7-0.3-0.9l0,0l0,0l0,0l0,0
				c-0.2-0.2-0.2-0.3-0.3-0.5c0,0-0.1,0-0.2,0h-0.1h-0.1c-0.1,0-0.2,0.1-0.2,0l0,0l0,0c0,0,0.5-0.5,0.5-0.6l0,0l0,0l0,0
				c0-0.1,0.1-0.1,0.1-0.1l0,0l0,0l0,0c0,0,0,0,0.1,0.1l0,0c0,0,0,0,0.1,0c0.1,0.1,0.2,0.2,0.3,0.3c0.2,0.2,0.3,0.4,0.5,0.7
				c0,0.1,0.1,0.1,0.1,0.2v-0.1l0,0l0,0c0.1,0,0.1,0,0.1,0V207c0-0.1,0-0.1,0-0.2v-0.1v0.1c0.1,0.2,0.1,0.3,0.1,0.4
				c0-0.2,0-0.2-0.1-0.5l0,0l0,0c0,0,0,0,0.1,0l0,0l0,0l0.2,0.6c0,0.1,0,0.2,0,0.2c0,0.1-0.1,0.2-0.1,0.4l0,0l0,0l0,0
				c0,0,0,0.1,0,0.2c0,0.2,0,0.5-0.1,0.7C136.1,208.9,135.8,209.2,135.8,209.2L135.8,209.2z M135,207c0.1,0.2,0.2,0.6,0.3,0.9
				c0,0.1,0.1,0.3,0.1,0.5c0.1,0.4,0.2,0.8,0.3,0.8l0.3-0.3c0.1-0.2,0.1-0.5,0.1-0.7c0-0.1,0-0.2,0-0.3c0,0,0,0,0.1,0
				c0-0.2,0-0.3,0.1-0.4c0-0.1,0.1-0.1,0-0.2l-0.2-0.6l0,0l0,0c0,0.3,0,0.3,0.1,0.6v0.2l-0.1-0.2c-0.1-0.2-0.1-0.3-0.2-0.4l0,0
				c0,0.1,0,0.1,0,0.2c0,0,0,0-0.1,0c0,0.1,0,0.1,0,0.2v0.1l-0.1-0.1c-0.1-0.1-0.1-0.2-0.2-0.3c-0.1-0.2-0.3-0.5-0.5-0.7
				c-0.1-0.1-0.2-0.2-0.3-0.3c0,0,0,0-0.1,0l0,0c0,0-0.1,0-0.1-0.1l0,0l-0.1,0.1l0,0l0,0c-0.1,0.1-0.4,0.4-0.5,0.5c0,0,0.1,0,0.2,0
				h0.1h0.1c0.1,0,0.1,0,0.2,0l0,0l0,0C134.9,206.7,134.9,206.7,135,207L135,207L135,207L135,207L135,207z"/>
		</g>
	</g>
	<g>
		<path class="st39" d="M126.4,207.7c0-0.1,0-0.3-0.1-0.5c0,0.2,0.1,0.3,0.1,0.3C126.4,207.7,126.4,207.7,126.4,207.7z"/>
	</g>
	<g>
		<path class="st39" d="M126.9,209.4c-0.2-0.3-0.4-0.8-0.5-1.1c0.2,0.5,0.4,1,0.4,1C126.9,209.3,126.9,209.3,126.9,209.4z"/>
	</g>
	<g>
		<path class="st39" d="M127.1,209.6C127.1,209.5,127.1,209.5,127.1,209.6C127.1,209.5,127.1,209.5,127.1,209.6z"/>
	</g>
	<g>
		<path class="st39" d="M127.2,209.7L127.2,209.7L127.2,209.7z"/>
	</g>
	<g>
		<path class="st39" d="M127.2,204.8c-0.2,0.6-0.6,1.2-1,1.6l0,0v0.1c0-0.1,0-0.1,0-0.1C126.7,206,127,205.2,127.2,204.8z"/>
	</g>
	<g>
		<path class="st40" d="M128.4,208.9l-1.4,0.6c-0.1-0.1-0.1-0.1-0.1-0.2c-0.1-0.3,0.7-1.2,0.8-1.3h-0.3c-0.1,0-0.1,0-0.1,0.1
			c-0.3-0.2-0.5-0.6-0.6-0.9l0.3-0.2l1,0.6L128.4,208.9z"/>
	</g>
	<g>
		<path class="st39" d="M128,210.9c-0.1-0.1-0.3-0.5-0.5-0.7C127.7,210.5,127.8,210.7,128,210.9z"/>
	</g>
	<g>
		<path class="st17" d="M139,208.9L139,208.9c0,0,0,0-0.1-0.1s-1-1-1.5-1.5c-0.4-0.4-0.7-0.9-0.7-0.9c-0.2,0.1-0.2,0.2-0.2,0.2
			s0.1,0.6,0.2,1.5c0.1,1,0.1,2.6,0,3.4c-0.1,0.8-0.6,2.4-0.6,2.4c-0.5,1-0.6,1.7-0.6,1.7c-0.1,0.3-0.4,1-0.6,1.6
			c-0.1-0.5-0.2-0.8-0.4-1.2s-0.9-1.6-0.9-1.8c-0.1-0.1-0.1-0.1-0.1-0.1c-0.2-0.3-0.3-0.6-0.5-0.9c-0.3-0.6-0.6-1.1-0.9-1.7
			c-0.4-0.8-0.9-1.6-1.3-2.4c-0.6-1-1.3-2-2-3c-0.4-0.6-0.9-1.2-1.4-1.7c0,0,0,0-0.1,0l0,0c0,0,0,0-0.1,0l0,0l0,0l0,0c0,0,0,0,0,0.1
			l0,0l0,0c0,0,0,0,0,0.1l0,0v0.1l0,0c-0.2,0.6-0.6,1.2-1,1.6l0,0v0.1l0,0c0,0.1,0.1,0.4,0.1,0.7c0,0.2,0.1,0.3,0.1,0.3v0.1
			c0,0.1,0,0.2,0,0.3l0,0l0,0l0,0l0,0l0,0l0,0l0,0l0,0l0,0l0,0l0,0c0.2,0.5,0.4,1,0.4,1v0.1l0,0l0.1,0.1l0,0c0,0,0,0.1,0.1,0.1
			c0.1,0.2,0.1,0.2,0.1,0.2l0,0l0,0l0,0l0,0l0,0l0,0c0,0,0,0,0,0.1s0.1,0.1,0.1,0.2l0,0c0,0,0,0,0,0.1c0.2,0.2,0.3,0.5,0.5,0.7l0,0
			c1.1,1.6,2.5,3,3.6,4.5c0.9,1.1,2.1,2,3,3.1c0.2-0.1,1.5-2.1,1.5-2.1c0.6-0.5,1.5-2.1,1.6-2.3s1.6-3.5,1.6-3.5
			C139.5,209.9,139,208.9,139,208.9z"/>
		<path class="st16" d="M134.6,218.6L134.6,218.6c-0.5-0.5-0.9-1-1.4-1.4c-0.6-0.5-1.1-1.1-1.7-1.7c-0.5-0.7-1.1-1.4-1.7-2.1
			c-0.6-0.8-1.3-1.6-1.9-2.4c-0.2-0.3-0.3-0.5-0.5-0.7c0,0,0,0,0-0.1l0,0l0,0c0,0,0-0.1-0.1-0.1V210l0,0l0,0l0,0l0,0l0,0l0,0l0,0
			l0,0l0,0l0,0c0,0,0,0-0.1-0.2c0,0,0-0.1-0.1-0.1l0,0l0,0l0,0c0,0,0-0.1-0.1-0.1l0,0v-0.1c0,0-0.3-0.5-0.4-1v-0.1l0,0l0,0l0,0l0,0
			l0,0l0,0l0,0l0,0l0,0l0,0l0,0c0,0,0,0,0-0.1v-0.2V208c0,0,0-0.2-0.1-0.3c0-0.3-0.1-0.5-0.1-0.7c0-0.1,0-0.1,0-0.2l0,0
			c0.4-0.4,0.7-1,0.9-1.6l0,0c0,0,0,0,0-0.1l0,0l0,0l0,0l0,0l0,0l0,0l0,0c0,0,0,0,0-0.1l0,0l0,0l0,0l0,0l0,0l0,0l0,0l0,0l0,0l0,0
			l0,0l0,0c0,0,0,0,0.1,0c0.5,0.5,0.9,1.1,1.3,1.6l0.1,0.1c0.7,0.9,1.4,1.9,2,3c0.3,0.5,0.6,1.1,0.9,1.7c0.1,0.2,0.3,0.5,0.4,0.7
			c0.2,0.3,0.3,0.6,0.5,0.9c0.2,0.3,0.3,0.6,0.5,0.9c0.1,0.1,0.1,0.2,0.1,0.3c0.1,0.2,0.2,0.4,0.3,0.6l0,0l0.1,0.1l0,0
			c0,0.1,0.3,0.7,0.5,1.2c0.1,0.3,0.3,0.5,0.3,0.7c0.2,0.4,0.3,0.7,0.3,1.2c0.2-0.6,0.5-1.3,0.6-1.6l0,0c0-0.1,0.2-0.8,0.6-1.7
			c0,0,0.5-1.6,0.6-2.4c0.1-0.8,0.1-2.5,0-3.4s-0.2-1.5-0.2-1.5l0,0c0,0,0-0.2,0.2-0.3l0,0c0,0,0.3,0.4,0.7,0.9s1.3,1.4,1.5,1.5
			c0.1,0,0.1,0.1,0.1,0.1l0,0l0,0l0,0l0,0l0,0c0,0.1,0.4,1,0.3,1.8l0,0c0,0-1.5,3.3-1.6,3.5c-0.1,0.3-1.1,1.8-1.6,2.3
			C136,216.6,134.8,218.5,134.6,218.6L134.6,218.6z M127.2,209.7L127.2,209.7C127.2,209.8,127.3,209.8,127.2,209.7L127.2,209.7
			C127.3,209.8,127.3,209.8,127.2,209.7L127.2,209.7C127.3,209.8,127.3,209.8,127.2,209.7l0.1,0.1l0,0v0.1c0,0,0,0.1,0.1,0.1l0,0
			l0,0c0,0,0,0,0,0.1c0.1,0.2,0.3,0.5,0.5,0.7c0.6,0.8,1.3,1.6,1.9,2.4c0.6,0.7,1.2,1.4,1.7,2.1c0.5,0.6,1.1,1.2,1.6,1.7
			c0.5,0.4,0.9,0.9,1.4,1.4c0.2-0.2,1.4-2,1.5-2.1l0,0c0.6-0.5,1.5-2.1,1.6-2.3s1.5-3.4,1.6-3.5c0.1-0.7-0.3-1.6-0.3-1.7l0,0
			c0,0,0,0-0.1-0.1s-1.1-1.1-1.5-1.5s-0.6-0.8-0.7-0.8c-0.1,0-0.2,0.2-0.2,0.2c0,0.1,0.1,0.6,0.2,1.5c0.1,0.9,0.1,2.6,0,3.4
			c-0.1,0.8-0.6,2.4-0.6,2.4c-0.5,0.9-0.6,1.6-0.6,1.7l0,0c-0.1,0.3-0.4,1-0.6,1.6l0,0l0,0c-0.1-0.5-0.2-0.8-0.4-1.2
			c-0.1-0.1-0.2-0.4-0.3-0.7c-0.2-0.5-0.5-1-0.5-1.2c-0.1-0.1-0.1-0.1-0.1-0.1c-0.1-0.2-0.2-0.4-0.3-0.6c0-0.1-0.1-0.2-0.1-0.3
			c-0.2-0.3-0.3-0.6-0.5-0.9c-0.2-0.3-0.3-0.6-0.5-0.9c-0.1-0.2-0.3-0.5-0.4-0.7c-0.3-0.6-0.6-1.1-0.9-1.7c-0.6-1-1.3-2-2-3
			l-0.1-0.1c-0.4-0.5-0.8-1.1-1.3-1.6c0,0,0,0-0.1,0l0,0l0,0l0,0l0,0l0,0l0,0l0,0l0,0l0,0l0,0l0,0l0,0l0,0l0,0l0,0l0,0
			c0,0,0,0,0,0.1l0,0c-0.3,0.7-0.6,1.2-1,1.6l0,0c0,0,0,0,0,0.1s0.1,0.4,0.1,0.7c0,0.2,0.1,0.3,0.1,0.3l0,0v0.1v0.2v0.1l0,0l0,0l0,0
			l0,0l0,0l0,0l0,0l0,0l0,0l0,0l0,0v0.1c0.2,0.5,0.4,1,0.4,1l0,0v0.1l0.1,0.1l0,0l0,0l0,0c0,0,0,0.1,0.1,0.1
			C127.2,209.7,127.2,209.7,127.2,209.7z M127.2,209.7L127.2,209.7L127.2,209.7z M127.2,209.7L127.2,209.7L127.2,209.7z
			 M127.2,209.7L127.2,209.7L127.2,209.7z M127.2,209.7L127.2,209.7L127.2,209.7z M127.2,209.7L127.2,209.7L127.2,209.7z
			 M127.2,209.7L127.2,209.7L127.2,209.7z M127.2,209.7L127.2,209.7L127.2,209.7z"/>
	</g>
	<g>
		<g>
			<path class="st17" d="M126.3,207.3c0-0.2-0.1-0.5-0.1-0.7C126.2,206.8,126.3,207,126.3,207.3z"/>
			<path class="st41" d="M126.3,207.3L126.3,207.3c-0.1-0.2-0.1-0.5-0.1-0.7l0,0l0,0C126.2,206.8,126.3,207,126.3,207.3L126.3,207.3
				L126.3,207.3z"/>
		</g>
		<g>
			<path class="st17" d="M126.4,208c0-0.1,0-0.2,0-0.3C126.4,207.9,126.4,208,126.4,208z"/>
			<path class="st41" d="M126.4,208L126.4,208c0-0.1-0.1-0.2-0.1-0.3l0,0l0,0v0.2C126.4,208,126.4,208,126.4,208L126.4,208
				L126.4,208z"/>
		</g>
		<g>
			<path class="st17" d="M127,209.5l-0.1-0.1C127,209.4,127,209.4,127,209.5z"/>
			<path class="st41" d="M127,209.5L127,209.5L127,209.5c-0.1-0.1-0.1-0.1-0.1-0.1l0,0l0,0C127,209.4,127,209.4,127,209.5L127,209.5
				C127.1,209.5,127.1,209.5,127,209.5C127.1,209.5,127,209.5,127,209.5z"/>
		</g>
		<g>
			<path class="st17" d="M127.2,209.7L127.2,209.7c0-0.1-0.1-0.1-0.1-0.2l0,0C127.2,209.7,127.2,209.7,127.2,209.7z"/>
			<path class="st41" d="M127.2,209.8L127.2,209.8L127.2,209.8c-0.1-0.1-0.1-0.1-0.1-0.2l0,0l0,0l0,0
				C127.3,209.7,127.2,209.7,127.2,209.8L127.2,209.8z M127.2,209.7L127.2,209.7L127.2,209.7z"/>
		</g>
		<g>
			<path class="st17" d="M127.2,209.8L127.2,209.8L127.2,209.8z"/>
			<path class="st41" d="M127.2,209.8L127.2,209.8L127.2,209.8L127.2,209.8C127.2,209.7,127.2,209.7,127.2,209.8
				C127.2,209.8,127.3,209.8,127.2,209.8C127.3,209.8,127.3,209.8,127.2,209.8L127.2,209.8z"/>
		</g>
		<g>
			<path class="st17" d="M127.4,210.1c0-0.1-0.1-0.1-0.1-0.2C127.3,210,127.4,210,127.4,210.1z"/>
			<path class="st41" d="M127.4,210.1L127.4,210.1c-0.1-0.1-0.1-0.1-0.1-0.2l0,0l0,0L127.4,210.1C127.4,210,127.4,210,127.4,210.1
				L127.4,210.1L127.4,210.1z"/>
		</g>
		<g>
			<path class="st17" d="M127.4,204.5L127.4,204.5L127.4,204.5C127.3,204.5,127.3,204.5,127.4,204.5
				C127.3,204.5,127.3,204.5,127.4,204.5z"/>
			<path class="st41" d="M127.4,204.6C127.3,204.6,127.3,204.6,127.4,204.6L127.4,204.6C127.3,204.5,127.3,204.5,127.4,204.6
				c-0.1-0.1-0.1-0.1-0.1-0.1l0,0l0,0l0,0C127.4,204.5,127.4,204.5,127.4,204.6C127.4,204.5,127.4,204.5,127.4,204.6L127.4,204.6
				C127.4,204.5,127.4,204.5,127.4,204.6C127.4,204.5,127.4,204.6,127.4,204.6L127.4,204.6z"/>
		</g>
		<g>
			<path class="st17" d="M127.4,204.6C127.4,204.5,127.4,204.5,127.4,204.6C127.4,204.5,127.4,204.5,127.4,204.6z"/>
			<path class="st41" d="M127.4,204.6L127.4,204.6L127.4,204.6L127.4,204.6L127.4,204.6C127.4,204.5,127.4,204.5,127.4,204.6
				C127.4,204.5,127.4,204.5,127.4,204.6C127.4,204.5,127.4,204.5,127.4,204.6C127.5,204.5,127.5,204.6,127.4,204.6
				C127.5,204.6,127.4,204.6,127.4,204.6z"/>
		</g>
	</g>
	<g>
		<path class="st17" d="M140.5,210.5c0,0.9-0.1,1.8-0.2,2.7c-0.2,1.9-0.5,3.8-0.9,5.6c-0.5,0-0.9,0-1.4,0c-1,0-1.9,0-2.9,0l0,0h-0.6
			c0,0,0.1-0.3,0.3-0.4l0.1-0.1c0-0.2,0.1-0.1,0.2-0.3c0.2-0.3,0.3-0.6,0.5-0.9c0.6-0.8,1.4-1.4,2.1-2.9c0.5-1.2,1.1-2.3,1.6-3.5
			c0-0.7-0.1-1.2-0.3-1.7c0.3,0.2,0.6,0.4,0.9,0.5c0.1,0,0.1,0.1,0.2,0.1c0.1,0.1,0.2,0.2,0.2,0.2
			C140.4,209.9,140.5,210.2,140.5,210.5z"/>
		<path class="st16" d="M135.1,218.8h-0.6l0,0l0,0c0,0,0.1-0.3,0.3-0.4l0.1-0.1c0-0.1,0.1-0.1,0.1-0.2c0,0,0.1,0,0.1-0.1
			c0.1-0.1,0.2-0.3,0.2-0.4c0.1-0.2,0.2-0.4,0.3-0.5c0.2-0.3,0.4-0.5,0.7-0.8c0.5-0.5,1-1.1,1.5-2.1c0.2-0.6,0.5-1.2,0.8-1.7
			c0.3-0.6,0.6-1.2,0.8-1.8c0-0.6-0.1-1.1-0.3-1.7l0,0l0,0c0.3,0.2,0.6,0.4,0.9,0.5c0,0,0,0,0.1,0s0.1,0.1,0.2,0.1l0,0l0.1,0.1
			c0.1,0,0.1,0.1,0.1,0.1c0,0.1,0.1,0.2,0.1,0.3s0,0.3,0.1,0.4l0,0c0,0.7-0.1,1.5-0.2,2.2c0,0.2,0,0.3-0.1,0.5
			c-0.2,1.9-0.5,3.8-0.9,5.6l0,0c-0.2,0-0.5,0-0.7,0s-0.5,0-0.7,0c-0.5,0-1,0-1.6,0C136,218.8,135.6,218.8,135.1,218.8L135.1,218.8
			L135.1,218.8z M134.6,218.8h0.6l0,0c0.4,0,0.9,0,1.3,0c0.5,0,1,0,1.6,0c0.2,0,0.5,0,0.7,0s0.5,0,0.7,0c0.4-1.8,0.7-3.7,0.9-5.6
			c0-0.2,0-0.3,0.1-0.5c0.1-0.7,0.2-1.5,0.2-2.2c0-0.1-0.1-0.2-0.1-0.4c0-0.1,0-0.2-0.1-0.3l-0.1-0.1l-0.1-0.1
			c-0.1,0-0.1-0.1-0.2-0.1c0,0,0,0-0.1,0c-0.3-0.2-0.5-0.3-0.8-0.5c0.2,0.6,0.3,1.1,0.3,1.7l0,0c-0.2,0.6-0.5,1.2-0.8,1.8
			s-0.6,1.2-0.8,1.7c-0.5,1-1,1.6-1.5,2.1c-0.2,0.3-0.5,0.5-0.7,0.8c-0.1,0.2-0.2,0.4-0.3,0.5s-0.1,0.3-0.2,0.4
			c0,0.1-0.1,0.1-0.1,0.1s-0.1,0-0.1,0.1l0,0c0,0,0,0.1-0.1,0.1C134.7,218.5,134.6,218.7,134.6,218.8z"/>
	</g>
	<g>
		<path class="st42" d="M135.2,218.8c-0.3,0-0.3-0.1-0.3-0.4C135.1,218.1,135.6,218.3,135.2,218.8z"/>
	</g>
</g>
</svg>
