<?xml version="1.0" encoding="utf-8"?>
<!-- Generator: Adobe Illustrator 28.2.0, SVG Export Plug-In . SVG Version: 6.00 Build 0)  -->
<svg version="1.1" id="katman_1" xmlns="http://www.w3.org/2000/svg" xmlns:xlink="http://www.w3.org/1999/xlink" x="0px" y="0px"
	 viewBox="0 0 404 253" style="enable-background:new 0 0 404 253;" xml:space="preserve">
<style type="text/css">
	.st0{fill-rule:evenodd;clip-rule:evenodd;fill:#070E15;}
	.st1{fill:none;stroke:#000000;stroke-width:2;stroke-linecap:round;stroke-linejoin:round;}
	.st2{fill-rule:evenodd;clip-rule:evenodd;fill:#FFFFFF;}
	.st3{fill-rule:evenodd;clip-rule:evenodd;}
	.st4{fill:none;}
	.st5{fill:none;stroke:#070E15;stroke-width:2;stroke-linecap:round;stroke-linejoin:round;}
	.st6{fill-rule:evenodd;clip-rule:evenodd;fill:#FAC428;}
	.st7{fill:none;stroke:#FAC428;stroke-miterlimit:10;}
	.st8{fill-rule:evenodd;clip-rule:evenodd;fill:#F9F8F4;}
	.st9{fill:none;stroke:#FFFFFF;stroke-miterlimit:10;}
	.st10{fill:none;stroke:#070E15;stroke-miterlimit:10;}
	.st11{fill:#F8C227;}
	.st12{fill:#1D1E1E;}
	.st13{fill:#EBAA1A;}
	.st14{fill:#F2A81A;}
	.st15{fill:#526577;}
	.st16{fill:#2F3B55;}
	.st17{fill:#668194;}
	.st18{fill:#FFFFFF;}
	.st19{fill:#A2B7D6;}
	.st20{fill:#0F131C;}
	.st21{fill:#242F3C;}
	.st22{fill:#475872;}
	.st23{fill:#394857;}
	.st24{fill:#F4EFE3;}
	.st25{fill:#72787E;}
	.st26{fill:#AAA794;}
	.st27{fill:#656862;}
	.st28{fill:#787A6F;}
	.st29{fill:#84806F;}
	.st30{fill:#373739;}
	.st31{fill:#646A7D;}
	.st32{fill:#1C2439;}
	.st33{fill:#DDD8CB;}
	.st34{fill:#8B8E79;}
	.st35{fill:#A4BCE2;}
	.st36{fill:#3F3419;}
	.st37{fill:#233339;}
	.st38{fill:#9C9682;}
</style>
<path class="st0" d="M71.1,83.3c-12.1,8.4-33.5,9.2-38.3-9.8c-3.9-15.5,6.7-29,22.7-27.4c-3-25,3.2-37.5,28.9-42.4l15-1.7
	C116,3,123,15.8,138.6,14.4l3.6,2.5l3.8,2.6c-4.1,3.2-5.3,5.1-10.3,5.5c3.3,3.4,5.1,6.6,5.5,11.2c-2.4,1-4,6.2-6.8,11.4
	c0.9-8.6-0.3-15.9-7.4-19.7c-2.1,10-9,15.7-18.7,18.5h-12C83.8,57.3,71.1,57.8,72.9,59.6L71.1,83.3z"/>
<line class="st1" x1="179" y1="251.5" x2="52" y2="251.5"/>
<path class="st2" d="M324,175h18.2c2.6-0.1,4.7-2,5-4.6L358,57.6c0.3-2.2-1.3-4.3-3.6-4.6c-0.2,0-0.4,0-0.6,0h-159
	c-2.6,0.1-4.7,2-5,4.6L179,170.4c-0.3,2.2,1.3,4.3,3.6,4.6c0.2,0,0.4,0,0.6,0h130.1"/>
<path class="st1" d="M324,175h18.2c2.6-0.1,4.7-2,5-4.6L358,57.6c0.3-2.2-1.3-4.3-3.6-4.6c-0.2,0-0.4,0-0.6,0h-159
	c-2.6,0.1-4.7,2-5,4.6L179,170.4c-0.3,2.2,1.3,4.3,3.6,4.6c0.2,0,0.4,0,0.6,0h130.1"/>
<path class="st2" d="M324.4,175h22.8c2.6-0.1,4.7-2,5-4.6L363,57.6c0.3-2.2-1.3-4.3-3.6-4.6c-0.2,0-0.4,0-0.6,0h-159
	c-2.6,0.1-4.7,2-5,4.6L184,170.4c-0.3,2.2,1.3,4.3,3.6,4.6c0.2,0,0.4,0,0.6,0h125.5"/>
<path class="st1" d="M324.4,175h22.8c2.6-0.1,4.7-2,5-4.6L363,57.6c0.3-2.2-1.3-4.3-3.6-4.6c-0.2,0-0.4,0-0.6,0h-159
	c-2.6,0.1-4.7,2-5,4.6L184,170.4c-0.3,2.2,1.3,4.3,3.6,4.6c0.2,0,0.4,0,0.6,0h125.5"/>
<polygon class="st2" points="321,221 275.4,221 260,130 305.6,130 "/>
<polygon class="st1" points="321,221 275.4,221 260,130 305.6,130 "/>
<polygon class="st2" points="276,221 225,221 225,216.4 270.4,216.4 255.9,130 260.5,130 "/>
<polygon class="st1" points="276,221 225,221 225,216.4 270.4,216.4 255.9,130 260.5,130 "/>
<polygon class="st3" points="255.4,129 251,175 263,175 "/>
<polygon class="st1" points="255.4,129 251,175 263,175 "/>
<path class="st2" d="M215,171l7.7-81l6.7,10.1c1.4,2.1,2.1,4.6,1.8,7.2l-6.1,63.8h23l0.9-8h-23.1"/>
<path class="st1" d="M215,171l7.7-81l6.7,10.1c1.4,2.1,2.1,4.6,1.8,7.2l-6.1,63.8h23l0.9-8h-23.1"/>
<path class="st1" d="M223,90.1L329.5,90l6.7,10.2c1.4,2.1,2,4.6,1.8,7.2l-6,63.7"/>
<line class="st1" x1="321" y1="90" x2="328" y2="100"/>
<line class="st1" x1="313" y1="90" x2="320" y2="100"/>
<line class="st1" x1="304" y1="90" x2="311" y2="100"/>
<line class="st1" x1="296" y1="90" x2="303" y2="100"/>
<line class="st1" x1="288" y1="90" x2="295" y2="100"/>
<line class="st1" x1="280" y1="90" x2="287" y2="100"/>
<line class="st1" x1="272" y1="90" x2="279" y2="100"/>
<line class="st1" x1="263" y1="90" x2="270" y2="100"/>
<line class="st1" x1="255" y1="90" x2="262" y2="100"/>
<line class="st1" x1="247" y1="90" x2="254" y2="100"/>
<line class="st1" x1="239" y1="90" x2="246" y2="100"/>
<line class="st1" x1="230" y1="90" x2="237" y2="100"/>
<path class="st3" d="M359.1,232.3c-3.4-4.6-8.8-7.3-14.6-7.3H299c5.7,0,11.1,2.7,14.6,7.3l10.5,14.1l3.4,4.6H373l-3.4-4.6
	L359.1,232.3z"/>
<path class="st1" d="M359.1,232.3c-3.4-4.6-8.8-7.3-14.6-7.3H299c5.7,0,11.1,2.7,14.6,7.3l10.5,14.1l3.4,4.6H373l-3.4-4.6
	L359.1,232.3z"/>
<path class="st1" d="M182.8,233.1c3.5-4.7,8.9-7.4,14.7-7.4h101.1c5.8,0,11.2,2.8,14.7,7.4l10.6,14.3l3.5,4.6h5.7L317,230.3
	c-4.3-5.8-11.1-9.3-18.4-9.3H197.5c-7.3,0-14.1,3.5-18.4,9.3L163,252h5.7l3.4-4.6L182.8,233.1z"/>
<path class="st2" d="M229,221h-31.7c-7.2,0-14,3.5-18.3,9.3L163,252h45.7l16-21.7c1.3-1.8,2.8-3.3,4.6-4.6c3.9-3,8.8-4.6,13.7-4.7
	H229z"/>
<path class="st1" d="M229,221h-31.7c-7.2,0-14,3.5-18.3,9.3L163,252h45.7l16-21.7c1.3-1.8,2.8-3.3,4.6-4.6c3.9-3,8.8-4.6,13.7-4.7
	H229z"/>
<path class="st2" d="M228.8,233.1c3.5-4.7,8.9-7.4,14.7-7.4h101.1c5.8,0,11.2,2.8,14.7,7.4l10.6,14.3l3.5,4.6h5.7L363,230.3
	c-4.3-5.8-11.1-9.3-18.4-9.3H243.5c-7.3,0-14.1,3.5-18.4,9.3L209,252h5.7l3.4-4.6L228.8,233.1z"/>
<path class="st1" d="M228.8,233.1c3.5-4.7,8.9-7.4,14.7-7.4h101.1c5.8,0,11.2,2.8,14.7,7.4l10.6,14.3l3.5,4.6h5.7L363,230.3
	c-4.3-5.8-11.1-9.3-18.4-9.3H243.5c-7.3,0-14.1,3.5-18.4,9.3L209,252h5.7l3.4-4.6L228.8,233.1z"/>
<polyline class="st2" points="215,252 303,252 303,244 230,244 "/>
<polyline class="st1" points="215,252 303,252 303,244 230,244 "/>
<path class="st1" d="M321,181l5,5"/>
<line class="st4" x1="327" y1="251.5" x2="403" y2="251.5"/>
<line class="st1" x1="327" y1="251.5" x2="403" y2="251.5"/>
<line class="st4" x1="39" y1="251.5" x2="1" y2="251.5"/>
<line class="st5" x1="39" y1="251.5" x2="1" y2="251.5"/>
<path class="st5" d="M105,58c0.8-1.7,2.4-2.8,4.2-3c1.8-0.2,3.6,0.7,4.8,2.1"/>
<path class="st5" d="M133,58c-0.6-1.6-2.1-2.8-3.8-3c-1.7-0.1-3.3,0.7-4.2,2.1"/>
<path class="st6" d="M188.1,216.8h12.4c2,0,3.9,0.6,5.5,1.8l-32.2-31.8L155.2,132c-4.9-14.4-18.4-24.1-33.5-24.1h-9.1l5.3,64.8
	L64,108h-6.3c-18.3,0-33.4,14.3-34.5,32.5l-4.1,65.6c-0.5,8.1,1.9,16,6.7,22.5l10.8,14.6c4.1,5.6,10.6,8.8,17.6,8.8h35.6v-23.8
	l48.2,5.3l5.9-21.9c2.1-1.7,4.1-3.5,5.9-5.5l22.2,18l12.3-6.7C185.5,217,186.8,216.8,188.1,216.8"/>
<path class="st5" d="M188.1,216.8h12.4c2,0,3.9,0.6,5.5,1.8l-32.2-31.8L155.2,132c-4.9-14.4-18.4-24.1-33.5-24.1h-9.1l5.3,64.8
	L64,108h-6.3c-18.3,0-33.4,14.3-34.5,32.5l-4.1,65.6c-0.5,8.1,1.9,16,6.7,22.5l10.8,14.6c4.1,5.6,10.6,8.8,17.6,8.8h35.6v-23.8
	l48.2,5.3l5.9-21.9c2.1-1.7,4.1-3.5,5.9-5.5l22.2,18l12.3-6.7C185.5,217,186.8,216.8,188.1,216.8z"/>
<path class="st7" d="M138.9,57c-0.6,7.7-3.8,14-7,14s-5.4-6.2-4.8-14s3.8-14,7-14S139.5,49.2,138.9,57z"/>
<path class="st8" d="M126.8,77c0,0,5.9,0,8.2-5l-11-12"/>
<path class="st5" d="M126.8,77c0,0,5.9,0,8.2-5l-11-12"/>
<path class="st7" d="M120.9,57c-0.6,7.7-5.6,14-11.1,14s-9.4-6.2-8.8-14s5.6-14,11.1-14S121.6,49.2,120.9,57z"/>
<path class="st5" d="M69,56c4.2,1.2,3.9,4.1,3.9,4.1l-2.8,3.6c1.5,2.1,3.1,3.1,5.8,4.3"/>
<path class="st5" d="M64.4,54l-8.3-7.3C48.2,6.7,83.6,4,83.6,4l19.4,9.8"/>
<path class="st5" d="M56,46.2c-7.3-0.9-14.5,2-19.2,7.6c-4.6,5.7-6,13.3-3.7,20.2"/>
<path class="st5" d="M42.1,61c-2,3.6-2.6,7.8-1.7,11.8c0.9,4.1,3.3,7.7,6.6,10.2"/>
<path class="st5" d="M63.6,108h8.6V73.4c-2.3-1.9-8.6-5.8-9.2-13.2c-0.2-3,0.4-6.3,2.8-8.1c2.4-1.8,8.3-2.4,12,5.4h24.1"/>
<path class="st5" d="M59,215l-4.1,0.7c-3.3,0.6-6,3.1-6.9,6.3l9.3-3.5"/>
<path class="st5" d="M61.5,168L59,194.6l1.8,5.3c0.6,1.7,0.7,3.6,0.3,5.4L59,215.4l23.6,5.7c2.1,0.5,3.9,1.9,4.8,3.8l1.6,3"/>
<path class="st5" d="M18.1,205c-0.5,8.1,1.9,16,6.7,22.5l10.8,14.6c4.1,5.6,10.6,8.8,17.5,8.9"/>
<line class="st5" x1="150" y1="206" x2="172" y2="224"/>
<path class="st5" d="M150.5,168l8.5,18.5l-0.1,0.4c-1.8,6.7-5.2,12.9-9.9,18.1"/>
<polyline class="st5" points="89,228 89,252 231,252 "/>
<path class="st5" d="M164,228l-9.9,5c-2.6,0.8-5.4,1.1-8.2,0.9L137,233"/>
<path class="st5" d="M78,57c6.3-2.2,11.8-6.1,16-11.3c4.1-5.3,7.2-11.3,9-17.7"/>
<path class="st5" d="M115,28c-2,9.5-9.5,17-19,19"/>
<path class="st5" d="M109,46.8c9.3-2.1,16.5-9.4,18.4-18.8c3.2,2.1,5.5,5.2,6.6,8.9c1,3.6,1.3,7.4,0.7,11.1"/>
<path class="st5" d="M49,69c0.7,6.5,5.5,12.5,12,15"/>
<path class="st5" d="M58,70c2.1,5.5,7.1,9.4,13,10"/>
<polyline class="st5" points="93,144.3 82.7,137.1 70,147 63,108 "/>
<polyline class="st5" points="114.7,142 123.6,132.6 137,137.9 112,108 "/>
<polygon class="st0" points="138,138.1 115,142 124.1,133 "/>
<polygon class="st5" points="138,138.1 115,142 124.1,133 "/>
<polygon class="st0" points="70,147 93,144.3 82.6,137 "/>
<polygon class="st5" points="70,147 93,144.3 82.6,137 "/>
<path class="st2" d="M87,4.9c5-3.3,11.7-3.5,17.6-2s11.3,4.4,16.8,6.9s11.5,4.6,17.6,4.2"/>
<path class="st5" d="M87,4.9c5-3.3,11.7-3.5,17.6-2s11.3,4.4,16.8,6.9s11.5,4.6,17.6,4.2"/>
<path class="st8" d="M126,82h-15.6c2.9,8.4,14.2,8.6,14.2,8.6l-1.5,11.4h-15.8C97,102,88.7,97.6,82,90.2"/>
<path class="st5" d="M126,82h-15.6c2.9,8.4,14.2,8.6,14.2,8.6l-1.5,11.4h-15.8C97,102,88.7,97.6,82,90.2"/>
<path class="st2" d="M79.8,62.1c1.1,8-2.6,15.1-8.3,15.9s-11.2-5-12.3-13s2.6-15.1,8.3-15.9S78.7,54.1,79.8,62.1"/>
<path class="st5" d="M79.8,62.1c1.1,8-2.6,15.1-8.3,15.9s-11.2-5-12.3-13s2.6-15.1,8.3-15.9S78.7,54.1,79.8,62.1z"/>
<path class="st2" d="M69.9,64.6c0.7,5.2-1.7,9.9-5.5,10.4s-7.5-3.3-8.2-8.5s1.7-9.9,5.5-10.4C65.5,55.5,69.1,59.3,69.9,64.6"/>
<path class="st9" d="M69.9,64.6c0.7,5.2-1.7,9.9-5.5,10.4s-7.5-3.3-8.2-8.5s1.7-9.9,5.5-10.4C65.5,55.5,69.1,59.3,69.9,64.6z"/>
<path class="st2" d="M62,56c3.6-0.5,7.2,3.3,7.9,8.5s-1.7,9.9-5.3,10.4"/>
<path class="st10" d="M62,56c3.6-0.5,7.2,3.3,7.9,8.5s-1.7,9.9-5.3,10.4"/>
<path class="st9" d="M100,2.1c-1.7-0.1-3.4-0.1-5.1,0c-5.8,0.4-12.1,2.4-16.6,6.3c-4.4,3.8-7.7,8.6-9.8,14c-3.6,9.4-3.2,20.1,0,29.7
	"/>
<path class="st0" d="M139,14c-6.1,0.4-12-1.7-17.6-4.1S110.5,4.5,104.6,3S92,1.5,87,4.9l16.4,8.2"/>
<path class="st5" d="M139,14c-6.1,0.4-12-1.7-17.6-4.1S110.5,4.5,104.6,3S92,1.5,87,4.9l16.4,8.2"/>
<path class="st5" d="M71,76c5.7,9.6,15.9,15.6,27,16"/>
<path class="st0" d="M107,91.5c0,2.5-2,4.5-4.5,4.5S98,94,98,91.5s2-4.5,4.5-4.5l0,0C105,87,107,89,107,91.5L107,91.5"/>
<path class="st5" d="M107,91.5c0,2.5-2,4.5-4.5,4.5S98,94,98,91.5s2-4.5,4.5-4.5l0,0C105,87,107,89,107,91.5L107,91.5z"/>
<path class="st5" d="M141.1,36c-0.4-5-3-9.6-7.1-12.6c4.5,0.7,9-1,12-4.4"/>
<path class="st5" d="M45,29c-1.7-3.3-3.3-6.7-5-10"/>
<path class="st5" d="M39,35.3l-6,0.4"/>
<path class="st0" d="M115,88c2.9,1.8,6.2,2.9,9.6,3l0.4-3H115z"/>
<path class="st5" d="M115,88c2.9,1.8,6.2,2.9,9.6,3l0.4-3H115z"/>
<path class="st2" d="M77,233c-3.9-0.1-7.1-3.3-7-7.2v-4.6c0-2.2,1-4.3,2.7-5.7c2.5-2,6.1-2,8.6,0l2.3,1.9c0.2,0.2,0.3,0.4,0.3,0.7
	v3.4c0,0.3-0.2,0.7-0.5,0.8c-0.1,0.1-0.3,0.1-0.4,0.1c-0.2,0-0.4-0.1-0.5-0.2l-4-3.1c-0.4-0.4-1-0.5-1.5-0.5c-0.6,0-1.1,0.2-1.5,0.5
	c-0.6,0.5-1,1.2-1,2v4.6c0,1.4,1.1,2.5,2.4,2.6c0,0,0,0,0.1,0h6.1c0.5,0,0.9,0.4,0.9,0.9v2.8c0,0.5-0.4,0.9-0.9,0.9L77,233z"/>
<path class="st0" d="M77,214c-1.8,0-3.5,0.6-4.9,1.6c-1.9,1.5-3.1,3.7-3.1,6.2v4.4c0.1,4.4,3.6,7.9,8,7.8h6.2c1,0,1.8-0.8,1.8-1.8
	v-2.7c0-1-0.8-1.8-1.8-1.8l0,0H77c-0.9,0-1.6-0.7-1.6-1.6l0,0v-4.4c0-0.5,0.2-0.9,0.6-1.2c0.6-0.5,1.4-0.5,2,0l4.1,3
	c0.3,0.2,0.7,0.4,1.1,0.4c0.3,0,0.6-0.1,0.8-0.2c0.6-0.3,1-0.9,1-1.6v-3.3c0-0.6-0.3-1.1-0.7-1.4l-2.4-1.8
	C80.5,214.6,78.8,214,77,214 M77,215.8c1.4,0,2.7,0.4,3.8,1.3l2.4,1.8v3.3l-4.1-3c-0.6-0.5-1.3-0.7-2.1-0.7c-0.8,0-1.5,0.2-2.1,0.7
	c-0.8,0.6-1.3,1.6-1.3,2.6v4.4c0,1.9,1.5,3.4,3.4,3.4l0,0h6.2v2.7H77c-3.4,0-6.1-2.6-6.2-6v-4.4c0-1.9,0.9-3.6,2.4-4.8
	C74.3,216.2,75.6,215.8,77,215.8"/>
<path class="st2" d="M124,215.7v15c0,4.3-1.7,8.5-4.8,11.5l-1.5,1.5c-0.4,0.4-0.6,0.9-0.6,1.4c0,1.1-0.9,1.9-1.9,1.9l0,0H91.8
	c-1.1,0-1.9-0.9-1.9-1.9l0,0c0-0.5-0.2-1-0.6-1.4l-1.5-1.5c-3.1-3.1-4.8-7.2-4.8-11.5v-15c0-1.5,1.2-2.7,2.7-2.7l0,0h35.5
	C122.8,213,124,214.2,124,215.7L124,215.7"/>
<path class="st5" d="M124,215.7v15c0,4.3-1.7,8.5-4.8,11.5l-1.5,1.5c-0.4,0.4-0.6,0.9-0.6,1.4c0,1.1-0.9,1.9-1.9,1.9l0,0H91.8
	c-1.1,0-1.9-0.9-1.9-1.9l0,0c0-0.5-0.2-1-0.6-1.4l-1.5-1.5c-3.1-3.1-4.8-7.2-4.8-11.5v-15c0-1.5,1.2-2.7,2.7-2.7l0,0h35.5
	C122.8,213,124,214.2,124,215.7L124,215.7z"/>
<path class="st2" d="M76,247h7c1.6,0,3.1,0.7,4,2s2.4,2,4,2h25.1c1.6,0,3.1-0.7,4-2s2.4-2,4-2H76"/>
<path class="st5" d="M76,247h7c1.6,0,3.1,0.7,4,2s2.4,2,4,2h25.1c1.6,0,3.1-0.7,4-2s2.4-2,4-2H76"/>
<line class="st5" x1="93" y1="242.5" x2="115" y2="242.5"/>
<g>
	<g>
		<path class="st11" d="M287.3,124.4c-0.7,1.2-1.6,2.4-2.3,3.7c0,0.1-0.3,0.4-0.4,0.9l-0.8,0c-2.1,0-4.4,0-6.5,0
			c-0.6-1.7-1-3.3-1.1-5.1c-0.3-1.6-1.8-4.9-3.5-5.4c0.1-0.1,0.3-0.2,0.4-0.2c1.1-0.5,1.3-0.5,2.2-1.4c0.1-0.1,0.3-0.2,0.5-0.5
			l0.1-0.1c0,0,0.1,0.3,0.3,0.7c0.2,0.3,0.3,0.7,0.7,1c0.1,0,0.1,0,0.1-0.1c0,0,0.3-0.1,0.3,0c-0.1,0.1-0.8,1.1-0.9,1.3
			c0,0.1,0.1,0.1,0.1,0.1l0.1,0.1c1.3,2.2,3.1,4.1,4.6,6c0.9,1.2,2.1,2,3.1,3.3c0.2-0.5,0.2-0.5,0.3-0.9c-0.7-1.3-1.8-2.5-2.7-3.6
			c-0.5-0.5-1.5-1-1.9-1.3c-0.2-0.2-0.4-0.3-0.6-0.6c0.1-0.1,0.1-0.1,0.1-0.1c0.5,0.5,1.1,0.8,1.4,1.1c0.4,0.3,0.8,1,1.1,0.8
			c-0.2-0.6-0.2-0.6-0.2-1.1c-0.1-0.4-0.3-1-0.2-1.4c0.3,0.6,0.6,1.2,0.9,1.7c0.2,0.3,0.3,0.6,0.5,0.9c0,0,0,0,0.1,0.1
			c0,0.3,0.7,1.6,0.9,1.9c0.2,0.6,0.3,0.8,0.3,1.4c0.2-0.6,0.4-1.1,0.7-1.8c0-0.3,0.1-0.5,0.2-0.8c0-0.3,0.2-0.5,0.2-0.6
			c0,0,0.1-0.1,0.2-0.4c0,0,0,0,0.1,0C286.7,123.5,286.4,123.3,287.3,124.4z"/>
		<path class="st12" d="M280.1,129c-0.9,0-1.9,0-2.8,0l0,0l0,0c-0.6-1.7-1-3.5-1.1-5.2c-0.3-1.8-1.9-5-3.3-5.4l0,0l0,0
			c0.1-0.1,0.3-0.1,0.3-0.2l0.1,0c0.1-0.1,0.4-0.2,0.6-0.3c0.7-0.3,0.9-0.4,1.8-1.2l0.1-0.1c0.1-0.1,0.2-0.2,0.3-0.4l0,0l0,0l0,0
			l0,0c0,0,0.1,0.1,0.1,0.3c0,0.1,0.1,0.3,0.2,0.4c0.2,0.4,0.4,0.7,0.7,0.9l0.1-0.1l0,0l0.1,0c0.1,0,0.1,0,0.1,0l0,0l0,0l0,0
			c-0.1,0.1-0.8,1.1-0.9,1.3c0,0.1,0.1,0.1,0.1,0.1l0.1,0.1c0.7,1.4,1.9,2.7,2.9,3.9c0.6,0.7,1.1,1.4,1.7,2.1
			c0.6,0.6,1.2,1.2,1.7,1.7c0.5,0.5,0.9,0.9,1.4,1.4c0.2-0.4,0.2-0.4,0.3-0.9c-0.7-1.3-1.7-2.4-2.7-3.6c-0.2-0.2-0.6-0.5-1.1-0.8
			c-0.4-0.2-0.6-0.5-0.8-0.7c-0.1-0.1-0.2-0.2-0.4-0.3c-0.1,0-0.1-0.1-0.2-0.2l0,0l0.2-0.2l0,0c0.2,0.3,0.6,0.5,0.8,0.8
			c0.2,0.2,0.4,0.3,0.6,0.5c0.1,0.1,0.2,0.2,0.4,0.3c0.2,0.3,0.6,0.6,0.7,0.5l-0.2-1.1c0-0.1-0.1-0.4-0.1-0.5
			c-0.1-0.3-0.1-0.5-0.1-0.8l0-0.1l0,0c0.2,0.3,0.3,0.6,0.5,0.9c0.1,0.3,0.3,0.6,0.4,0.9c0.1,0.1,0.1,0.1,0.1,0.3
			c0.1,0.1,0.2,0.4,0.3,0.6l0,0l0.1,0.1l0,0l0,0c0,0.1,0.3,0.7,0.6,1.2c0.1,0.3,0.3,0.6,0.3,0.7c0.2,0.4,0.3,0.8,0.3,1.4
			c0.2-0.5,0.4-1,0.6-1.6c0-0.1,0-0.3,0.1-0.4c0-0.1,0-0.3,0.2-0.5c0-0.1,0-0.3,0.2-0.4c0-0.1,0-0.1,0.2-0.2l0,0
			c0,0,0.1-0.1,0.2-0.2l0,0l0,0l0,0l0,0c0-0.1,0-0.1,0-0.1c0-0.1,0-0.3,0.2-0.2c0.1,0,0.2,0.2,0.6,0.5c0.1,0,0.1,0.1,0.2,0.3l0,0
			l0,0c-0.2,0.4-0.5,0.9-0.8,1.2c-0.5,0.7-1,1.6-1.4,2.5c0,0,0,0,0,0.1c-0.1,0.1-0.3,0.4-0.4,0.7l0,0l-0.8,0
			C282.5,128.9,281.4,128.9,280.1,129z M277.4,128.8c2.1,0,4.3,0,6.4,0l0.8,0c0.1-0.4,0.2-0.6,0.4-0.7l0,0c0.5-0.9,1-1.6,1.4-2.5
			c0.2-0.4,0.5-0.9,0.7-1.2c-0.1-0.1-0.1-0.1-0.2-0.3c-0.4-0.3-0.5-0.5-0.5-0.5s0,0.1-0.1,0.1l0,0.1l0,0l0,0c0,0.1-0.2,0.2-0.2,0.2
			l0,0c0,0.1,0,0.3-0.2,0.2c0,0.1-0.2,0.2-0.2,0.4c0,0.1,0,0.3-0.2,0.4c0,0.1,0,0.3-0.1,0.4c-0.2,0.6-0.5,1.3-0.7,1.8l0,0.1l0-0.1
			c-0.1-0.5-0.1-1-0.3-1.4c-0.1-0.1-0.2-0.4-0.3-0.7c-0.2-0.4-0.5-1-0.6-1.2c-0.1,0-0.1-0.1-0.1-0.1c-0.1-0.1-0.2-0.4-0.3-0.6
			c0-0.1-0.1-0.1-0.1-0.3c-0.1-0.3-0.3-0.6-0.4-0.9c-0.1-0.3-0.3-0.6-0.4-0.9c0,0.3,0.1,0.4,0,0.7c0.1,0.1,0.1,0.4,0.1,0.5l0.2,1.1
			l0,0c-0.3,0.2-0.5-0.2-0.9-0.5c-0.1-0.1-0.2-0.3-0.4-0.3c-0.1-0.1-0.4-0.3-0.6-0.5c-0.2-0.2-0.6-0.5-0.8-0.7l-0.1,0.1
			c0.1,0,0.1,0.1,0.2,0.2c0.1,0.1,0.2,0.3,0.4,0.3c0.2,0.2,0.5,0.3,0.8,0.7c0.4,0.3,0.7,0.5,1.1,0.8c1.1,1.4,1.9,2.4,2.7,3.6l0,0
			l0,0c-0.2,0.5-0.2,0.5-0.3,0.9l0,0l0,0c-0.5-0.5-0.9-0.9-1.4-1.4c-0.6-0.5-1.2-1.1-1.7-1.7c-0.6-0.7-1.1-1.5-1.7-2.1
			c-1-1.2-2-2.4-2.9-3.9l-0.1-0.1c0,0-0.1-0.1-0.1-0.3c-0.1-0.3,0.6-1.1,0.7-1.4l-0.1,0c-0.1,0-0.1,0-0.1,0l-0.1,0.1l0,0
			c-0.2-0.2-0.5-0.5-0.7-1c-0.1-0.1-0.1-0.3-0.2-0.4c0-0.1-0.1-0.3-0.1-0.3l0,0c0,0,0,0-0.1,0c-0.1,0.1-0.2,0.2-0.3,0.2l-0.1,0.1
			c-0.8,0.7-1,0.8-1.8,1.2c-0.1,0.1-0.3,0.2-0.6,0.3c0,0,0,0-0.1,0c-0.1,0-0.1,0.1-0.3,0.1c1.6,0.6,3,3.9,3.3,5.4
			C276.4,125.5,276.8,127.1,277.4,128.8z M276.1,116.2L276.1,116.2L276.1,116.2z"/>
	</g>
	<g>
		<path class="st13" d="M290.8,128.9c-0.4-0.1-0.8,0-1.3-0.1c0.4-1.9,0.7-3.9,1-5.9c0.1-0.9,0.1-2.5,0-3.5c0.1,0.1,0.3,1,0.4,1.1
			C291.5,123,291.3,126.5,290.8,128.9z"/>
		<path class="st12" d="M290.6,128.9c-0.1,0-0.3,0-0.4-0.1c-0.3,0-0.4-0.1-0.7,0l0,0l0,0l0,0c0.4-1.8,0.7-3.8,1-5.9
			c0.1-0.7,0-1.9,0-2.7c0-0.3-0.1-0.5,0-0.8l0,0l0,0c0,0,0.1,0.1,0.1,0.3c0.1,0.3,0.2,0.7,0.3,0.8c0.8,2.7,0.2,6.6,0,8.1l0,0
			C290.8,128.9,290.7,128.9,290.6,128.9z M290.8,128.9L290.8,128.9L290.8,128.9z M289.9,128.9c0.1,0,0.3,0,0.4,0.1
			c0.3,0,0.4,0.1,0.7,0c0.2-1.6,0.8-5.5,0-8.1c0-0.1-0.2-0.4-0.3-0.8c0,0,0-0.1-0.1-0.1c0,0.1-0.1,0.4,0,0.7c0,0.9,0,2,0,2.7
			c-0.2,2-0.4,3.9-1,5.7C289.8,128.9,289.8,128.9,289.9,128.9z"/>
	</g>
	<g>
		<path class="st13" d="M274.8,124.6c-0.2,1.2-0.2,3-0.1,4.3c-0.3,0-0.7,0-0.9,0c-0.1,0-0.3,0-0.4-0.1c-0.6-2.4-1-4.7-0.9-7.2
			c0-0.8,0.2-2.4,0.4-3c0.9,0.5,1.3,1.3,1.8,2.1c0.2,0.3,0.7,1.3,0.7,1.7C275,123.1,274.9,123.9,274.8,124.6z"/>
		<path class="st12" d="M273.9,129c-0.1,0-0.1,0-0.3,0c-0.1,0-0.1,0-0.3,0s-0.1,0-0.3,0l0,0c-0.7-2.6-1.1-5.1-0.9-7.2
			c0-0.8,0.2-2.2,0.4-3l0,0l0,0c0.9,0.5,1.4,1.4,1.8,2.1c0.1,0.1,0.7,1.3,0.7,1.7l0,0c0,0.1,0,0.3-0.1,0.4c-0.1,0.5-0.3,1.2-0.2,1.7
			c-0.2,1.3-0.2,3-0.1,4.3l0,0l0,0l0,0c-0.1,0-0.4-0.1-0.5,0.1C274,129,273.9,129,273.9,129z M273.5,128.9
			C273.6,128.9,273.6,128.9,273.5,128.9c0.3,0,0.4,0.1,0.5-0.1c0.1,0,0.3,0,0.5-0.1c-0.1-1.2-0.1-3.1,0.1-4.3l0,0
			c0.1-0.5,0.2-1.2,0.2-1.7c0-0.1,0-0.3,0.1-0.4c0.1-0.4-0.6-1.6-0.7-1.7c-0.4-0.7-1-1.6-1.8-2.1c-0.2,0.8-0.3,2.4-0.4,3
			c0,2.1,0.3,4.4,0.9,7.2C273.2,128.9,273.3,128.9,273.5,128.9L273.5,128.9z"/>
	</g>
	<g>
		<path class="st14" d="M277.3,128.9c-0.9,0-1.9,0-2.7,0c-0.1-1.2-0.1-3.1,0.1-4.3c0.1-0.7,0.2-1.4,0.4-2.1c0.1-0.4-0.5-1.4-0.7-1.7
			c-0.5-0.9-1-1.6-1.8-2.1c0-0.1,0-0.3,0.2-0.4c1.5,0.6,3,3.8,3.5,5.4C276.4,125.5,276.8,127.3,277.3,128.9z"/>
		<path class="st12" d="M275.3,128.9c-0.3,0-0.4-0.1-0.7,0l0,0c-0.1-1.2-0.1-3.1,0.1-4.4c0.1-0.5,0.2-1.2,0.2-1.7
			c0-0.1,0-0.3,0.1-0.4c0.1-0.4-0.6-1.6-0.7-1.7c-0.4-0.7-1-1.6-1.8-2.1l0,0c0,0,0,0,0-0.1c0-0.1,0-0.3,0.2-0.4l0,0
			c1.6,0.6,3.2,3.9,3.5,5.4c0.1,1.8,0.6,3.4,1.1,5.1l0,0l0,0l0,0c-0.4-0.1-0.8,0-1.3-0.1C275.7,129,275.6,129,275.3,128.9z
			 M274.7,128.8c0.5-0.1,0.9,0,1.5-0.1c0.4,0.1,0.8,0,1.2,0c-0.6-1.7-1-3.5-1.1-5.1c-0.3-1.8-2-4.8-3.3-5.4
			c-0.1,0.1-0.2,0.2-0.2,0.2s0,0,0,0.1c0.9,0.5,1.4,1.4,1.8,2.1c0.1,0.1,0.7,1.3,0.7,1.7l0,0c0,0.1,0,0.3-0.1,0.4
			c-0.1,0.5-0.3,1.2-0.2,1.7C274.6,125.9,274.6,127.6,274.7,128.8z"/>
	</g>
	<g>
		<path class="st15" d="M277.2,114.1C277.2,114.1,277.1,114.1,277.2,114.1C277.1,114.1,277.1,114.1,277.2,114.1
			C277.1,114.1,277.2,114.1,277.2,114.1z"/>
	</g>
	<g>
		<path class="st16" d="M277.1,118.8L277.1,118.8l-0.1,0.1l0,0C277,118.8,277,118.8,277.1,118.8L277.1,118.8L277.1,118.8z"/>
	</g>
	<g>
		<path class="st17" d="M288.3,119.1c-0.5-0.3-0.6-0.4-0.5,0.1c0,0.1,1.3,1,1.5,1.6c-0.5,1.7-1,2.4-1.9,3.9c-0.8-0.9-0.7-0.9-1-0.4
			c0,0,0,0-0.1,0c0.3-0.9,0.6-2.1,0.7-3c0.1-0.8-0.1-2.9-0.1-3.8C287.2,118,287.8,118.3,288.3,119.1z"/>
	</g>
	<g>
		<path class="st15" d="M276.9,118.9L276.9,118.9L276.9,118.9L276.9,118.9C277,118.8,277,118.8,276.9,118.9
			C277.1,118.8,277.1,118.8,276.9,118.9C277.1,118.8,277.1,118.8,276.9,118.9c0.1-0.1,0.1-0.1,0.1-0.1
			C277.1,118.8,277.1,118.8,276.9,118.9z"/>
	</g>
	<g>
		<g>
			<path class="st18" d="M283.6,124.3c-0.1-0.1-0.1-0.1-0.1-0.1c-0.2-0.3-0.3-0.6-0.5-0.9c-0.3-0.6-0.6-1.2-0.9-1.7
				c-0.4-0.9-0.9-1.7-1.4-2.5c-0.7-1-1.3-2.1-2.1-3.1c-0.4-0.6-0.9-1.2-1.5-1.8c0-0.1,0.1-0.4,0.1-0.5l0-0.1l0,0
				c0,0,0.8-0.8,0.9-0.8c0,0,0,0,0.1,0c-0.1,0.5-0.3,1.2-0.4,1.7c0,0.1,0.2-0.4,0.4-0.7c0.1,0,0.3,0,0.4-0.1c0,0.1-0.1,0.5,0.1,0.5
				c0,0.1-0.4,1-0.3,1.2c1,1.2,2.2,2.2,3.2,3.4c0.2-0.2,0.2-0.5,0.2-0.8c0-0.3,0.1-0.5,0.1-0.8c0.3,0.4,0.9,0.8,1.1,1.4
				c0.1,0.3,0,1.6,0.1,2C283.6,122,283.8,123.1,283.6,124.3z"/>
			<path class="st12" d="M283.8,124.3L283.8,124.3c-0.1-0.1-0.1-0.1-0.1-0.1c-0.1-0.1-0.2-0.4-0.3-0.6c0-0.1-0.1-0.1-0.1-0.3
				c-0.1-0.3-0.3-0.6-0.4-0.9c-0.2-0.3-0.3-0.6-0.5-0.9c-0.1-0.3-0.3-0.6-0.4-0.7c-0.3-0.6-0.6-1.2-0.9-1.7c-0.7-1-1.3-2.1-2.1-3.1
				l-0.1-0.1c-0.4-0.6-0.9-1.2-1.4-1.7l0,0l0,0c0,0,0-0.1,0-0.3c0-0.1,0-0.3,0-0.3l0-0.1l0,0c0,0,0.8-0.8,0.9-0.8l0.1,0l0,0l0,0
				c0,0.1-0.1,0.4-0.1,0.5c-0.1,0.4-0.2,0.8-0.2,1.2c0-0.1,0.2-0.2,0.2-0.5c0-0.1,0-0.1,0-0.3l0,0l0,0c0.1,0,0.1,0,0.3,0
				c0.1,0,0.1,0,0.3,0l0,0l0,0c0,0.1-0.1,0.5,0.1,0.5l0,0l0,0c0,0.3-0.4,1-0.3,1.2c0.4,0.6,1,1.1,1.5,1.6c0.6,0.6,1.2,1.1,1.7,1.9
				c0.2-0.2,0.2-0.4,0.2-0.6l0-0.1c0-0.1,0-0.3,0.1-0.4c0-0.1,0-0.3,0.1-0.4l0,0l0,0c0.1,0.1,0.4,0.3,0.5,0.5
				c0.2,0.3,0.6,0.5,0.7,0.9c0.1,0.1,0,0.8,0.1,1.3c0,0.3,0.1,0.5,0,0.7c0.1,0.3,0.1,0.5,0.1,0.8
				C283.6,122.5,283.8,123.3,283.8,124.3L283.8,124.3z M277.2,114.3c0.5,0.5,0.9,1.1,1.4,1.7l0.1,0.1c0.8,0.9,1.5,1.9,2.1,3.1
				c0.3,0.6,0.6,1.2,0.9,1.7c0.1,0.3,0.3,0.6,0.4,0.7c0.2,0.3,0.3,0.6,0.5,0.9c0.1,0.3,0.3,0.6,0.4,0.9c0.1,0.1,0.1,0.1,0.1,0.3
				c0.1,0.1,0.2,0.4,0.3,0.6l0,0c0,0,0,0,0.1,0.1c0-0.8,0-1.7-0.2-2.6c-0.1-0.3-0.1-0.5-0.1-0.8c0-0.1-0.1-0.4,0-0.7
				c-0.1-0.5-0.1-1.1-0.1-1.3c-0.1-0.4-0.4-0.6-0.7-0.9c-0.1-0.1-0.4-0.3-0.5-0.5c0,0.1,0,0.1,0,0.3c0,0.1,0,0.3-0.1,0.4l0,0.1
				c0,0.3-0.1,0.5-0.2,0.6l0,0l0,0c-0.6-0.7-1.2-1.2-1.7-1.9c-0.5-0.5-1.1-1-1.5-1.6l0,0l0,0c0-0.1,0.3-1,0.3-1.2
				c-0.1,0-0.1-0.4-0.1-0.5c-0.1,0-0.1,0-0.3,0c-0.1,0-0.1,0-0.3,0c0,0,0,0.1,0,0.3c-0.2,0.4-0.2,0.5-0.2,0.5l0,0l0,0l0,0
				c0.1-0.4,0.1-0.8,0.2-1.2c0-0.1,0.1-0.4,0.1-0.5l0,0c0,0-0.8,0.8-0.9,0.8l0,0l0,0.1c0,0,0,0.1,0,0.3
				C277.2,114.1,277.2,114.1,277.2,114.3z M277.4,113.6L277.4,113.6L277.4,113.6z"/>
		</g>
	</g>
	<g>
		<path class="st16" d="M286.9,116.3c0.2,0.3,1.8,2,2.1,2.2c-0.1,0,0.1,0.3,0.1,0.4c0.1,0.4,0,1.1-0.1,0.7c-0.1,0.1-0.5-0.5-0.7-0.6
			c-0.4-0.7-1-1.1-1.5-1.8c0-0.1-0.2-0.7-0.1-0.8c0-0.1,0-0.3,0.2-0.2C286.9,116.3,286.9,116.3,286.9,116.3z"/>
	</g>
	<g>
		<path class="st16" d="M277.4,113.6L277.4,113.6c-0.1,0-0.3,0.2,0,0.1c0,0.1-0.1,0.4-0.1,0.5c-0.1,0-0.1,0-0.1-0.1s0.1-0.4,0.2-0.6
			C277.3,113.5,277.3,113.5,277.4,113.6z"/>
	</g>
	<g>
		<path class="st19" d="M277.1,118.8c0,0-0.1,0-0.1,0.1l0,0l0,0C277.1,118.8,277.1,118.8,277.1,118.8L277.1,118.8L277.1,118.8z"/>
	</g>
	<g>
		<path class="st11" d="M283.3,116.2c0.1,0,0.1,0,0.3,0c0.1,0,0,0.1,0.1,0.1c0.1,1.1,0.1,1.1,0.2,2.3c0.1,0.1,0.4-0.1,0.7,0.1
			c-0.3,0.1-0.3,0.1-0.6,0.2c0.2,1.6,0.2,1.5,1.2,1.8l0,0c-0.1,0-0.3,0.4-0.3,0.5c0,0.1,0,2.5,0,3.5c-0.1,0.8-0.2,0.8-0.3,1.4
			c-0.2-0.4-0.8-1.6-0.9-1.9c0-1.2-0.1-2.3-0.2-3.5c-0.1-0.5,0-1.7-0.1-2c-0.2-0.6-0.8-0.9-1.1-1.4c0-0.1,0.1-0.4,0.1-0.5
			c0.1,0.1,0.5-0.6,0.7-0.8C283.1,116.2,283.2,116.2,283.3,116.2z"/>
		<path class="st12" d="M284.7,126.3L284.7,126.3c-0.1-0.3-0.2-0.6-0.4-0.7c-0.2-0.4-0.5-1-0.6-1.2l0,0l0,0c0.1-0.9,0-1.7-0.2-2.6
			c-0.1-0.3-0.1-0.5-0.1-0.8c0-0.1-0.1-0.4,0-0.7c-0.1-0.5-0.1-1.1-0.1-1.3c-0.1-0.4-0.4-0.6-0.7-0.9c-0.2-0.2-0.4-0.3-0.5-0.5l0,0
			l0,0c0-0.1,0-0.3,0-0.3l0-0.1l0,0l0,0c0.1,0,0.5-0.6,0.7-0.8l0,0l0,0l0.1,0c0.1,0,0.3,0,0.3,0l0,0l0.1,0l0.1,0l0,0
			c0.1,0,0,0.1,0,0.1l0,0l0,0l0,0l0.2,2.3l0.1,0c0.1,0,0.3-0.1,0.4,0.1l0,0l-0.7,0.2c0.1,1.5,0.2,1.5,0.9,1.7c0.1,0,0.3,0,0.4,0.1
			l0,0l0,0l0,0l0,0l0,0c0,0-0.2,0.4-0.2,0.5c0,0,0.1,0.5,0,0.9c0,0.8,0,2,0,2.5c-0.1,0.4-0.1,0.5-0.1,0.8
			C284.6,125.6,284.6,125.9,284.7,126.3L284.7,126.3z M283.8,124.3c0,0.1,0.3,0.7,0.6,1.2c0.1,0.3,0.2,0.4,0.3,0.6
			c0-0.3,0.1-0.4,0.1-0.7c0-0.3,0.2-0.4,0.1-0.8c0.1-0.5,0-1.6,0-2.5c-0.1-0.5,0-0.9,0-0.9s0.2-0.4,0.2-0.5c-0.1,0-0.3,0-0.3,0
			c-0.8-0.2-0.9-0.3-0.9-1.7l0,0l0.6-0.2c-0.1,0-0.3,0-0.3,0c-0.1,0-0.3,0.1-0.3,0l0,0l-0.2-2.2l0,0l0,0c0,0,0,0,0-0.1l-0.1,0
			c0,0,0,0-0.1,0l0,0c-0.1,0-0.3,0-0.3,0l-0.1,0c0,0.3-0.5,0.7-0.7,0.8l0,0l0,0.1c0,0.1,0,0.3,0,0.3c0.1,0.1,0.4,0.3,0.5,0.5
			c0.2,0.3,0.6,0.5,0.7,0.9c0.1,0.1,0,0.8,0.1,1.3c0,0.3,0.1,0.5,0,0.7c0.1,0.3,0.1,0.5,0.1,0.8
			C283.6,122.5,283.8,123.3,283.8,124.3z"/>
	</g>
	<g>
		<g>
			<path class="st13" d="M285.2,120.8c0.3,1,0.4,1.9,0.4,2.9c0,0.1,0.1,1.8,0.1,2.1c-0.2,0.6-0.4,1.1-0.7,1.8
				c-0.1-0.5-0.1-1-0.3-1.4c0-0.7,0.2-0.8,0.3-1.4c0.1-0.8-0.1-3.2,0-3.5C284.9,121.2,285.1,120.7,285.2,120.8z"/>
			<path class="st12" d="M285,127.7L285,127.7C285,127.7,285,127.5,285,127.7c-0.1-0.5-0.3-1-0.5-1.4l0,0c0.1-0.4,0.1-0.5,0.1-0.8
				c0-0.3,0.2-0.4,0.1-0.8c0.1-0.5,0-1.6,0-2.5c-0.1-0.5,0-0.9,0-0.9s0.2-0.5,0.3-0.5l0,0l0,0c0.3,1,0.4,1.9,0.4,2.9l0,0
				c0,0,0,0.3,0.1,0.5c0.1,0.5,0.1,1.3,0,1.6l0,0C285.4,126.5,285.2,127,285,127.7C285,127.5,285,127.7,285,127.7z M284.7,126.2
				c0.2,0.4,0.3,0.8,0.3,1.4c0.2-0.5,0.4-1,0.6-1.6c0-0.3,0-1.1,0-1.6c0-0.3-0.1-0.5-0.1-0.5c-0.1-1-0.3-1.9-0.4-2.9
				c-0.1,0-0.2,0.4-0.2,0.5c0,0,0.1,0.5,0,0.9c0,0.8,0,2,0,2.5c-0.1,0.4-0.1,0.5-0.1,0.8C284.6,125.6,284.6,125.9,284.7,126.2z"/>
		</g>
		<g>
			<path class="st13" d="M285,116.6C285,116.6,285,116.7,285,116.6c-0.1,0.8-0.3,1.2-0.3,1.4c0,0.3-0.1,0.5-0.1,0.7
				c0.2,0.7,0.5,1.4,0.6,2.1c-1.1-0.4-1.2-0.2-1.2-1.8c0.3-0.1,0.3-0.1,0.6-0.2c-0.2-0.2-0.6,0.2-0.7-0.1c-0.1-1.1-0.1-1.1-0.2-2.3
				c0-0.3,0.3-0.1,0.4-0.2c0,0,0.3,0,0.3-0.1c0.1,0,0.3-0.1,0.3-0.1C284.9,116.4,284.9,116.4,285,116.6z"/>
			<path class="st12" d="M285.2,120.8L285.2,120.8c-0.1,0-0.3,0-0.4-0.1c-0.8-0.2-0.9-0.3-0.9-1.7l0,0l0.6-0.2c-0.1,0-0.3,0-0.3,0
				c-0.1,0-0.3,0.1-0.3,0l0,0l-0.2-2.3l0-0.1l0.1-0.1c0,0,0.1,0,0.1-0.1l0,0l0.1,0c0,0,0,0,0.1,0c0,0,0,0,0.1,0c0.1,0,0.1,0,0.1,0
				l0,0l0.3,0.6l0,0l0,0l0,0c-0.1,0.5-0.3,0.9-0.3,1.2c0,0.1,0,0.1,0,0.3c0,0.1,0,0.1,0,0.3c0,0.1,0,0.3-0.1,0.4
				c0.1,0.1,0.1,0.4,0.2,0.6C284.9,119.8,285,120.2,285.2,120.8L285.2,120.8L285.2,120.8z M283.9,119c0.1,1.5,0.2,1.5,0.9,1.7
				c0.1,0,0.1,0,0.3,0c-0.1-0.4-0.3-1-0.5-1.4c-0.1-0.1-0.1-0.4-0.2-0.6l0,0L283.9,119z M283.9,118.7l0.1,0c0.1,0,0.3-0.1,0.4,0.1
				l0,0c0-0.1,0-0.3,0.1-0.4c0-0.1,0-0.1,0-0.3c0-0.1,0-0.1,0-0.3c0.2-0.2,0.2-0.6,0.3-1.2l0,0l0,0l-0.3-0.4l-0.1,0c0,0,0,0-0.1,0
				c0,0,0,0-0.1,0c-0.1,0-0.1,0.1-0.3,0c0,0-0.1,0-0.1,0.1c-0.1,0-0.1,0-0.1,0.1c0,0,0,0,0,0.1L283.9,118.7z"/>
		</g>
	</g>
	<g>
		<path class="st11" d="M282.9,116.2c0,0.3-0.5,0.9-0.7,0.8c0-0.3,0.1-0.4,0.1-0.7c0-0.1,0.1-0.1,0.3-0.2
			C282.7,116.1,282.8,116.1,282.9,116.2z"/>
	</g>
	<g>
		<path class="st18" d="M283.3,116.2c-0.1,0-0.4-0.1-0.5-0.1c-0.1,0-0.1,0-0.3,0c0.1-0.1,0.2-0.4,0.3-0.5
			C283.1,115.9,283.1,115.9,283.3,116.2z"/>
		<path class="st12" d="M283.5,116.2L283.5,116.2c-0.1,0-0.3,0-0.4-0.1l-0.1,0c-0.1,0-0.1,0-0.3,0l0,0l0,0c0,0,0-0.1,0.2-0.2
			c0.1-0.1,0.2-0.2,0.2-0.2l0,0l0,0L283.5,116.2z M282.7,116c0.1,0,0.1,0,0.3,0l0.1,0c0.1,0,0.1,0,0.3,0l-0.5-0.5
			c0,0-0.1,0.1-0.2,0.2C282.7,116,282.7,116,282.7,116z"/>
	</g>
	<g>
		<path class="st18" d="M283.6,116.3c-0.1,0-0.1,0-0.3,0c-0.2-0.3-0.2-0.3-0.4-0.6c-0.1,0-0.2,0.2-0.3,0.5c0,0.1-0.1,0.1-0.3,0.2
			c0,0.3-0.1,0.4-0.1,0.7c0,0.1-0.1,0.4-0.1,0.5c0,0.1,0,0.3-0.1,0.4l0,0.1l0,0.1l0,0c0,0.1,0,0.3-0.1,0.4c0,0.1,0,0.3-0.2,0.4
			c-0.9-1.2-2.2-2.1-3.3-3.1l-0.1-0.1c-0.3-0.4-0.8-1-1.1-1.4c0-0.1,0.1-0.4,0.1-0.5l0-0.1l0,0c0,0,0.8-0.8,0.9-0.8c0,0,0,0,0.1,0
			c-0.1,0.5-0.3,1.2-0.4,1.7c0,0.1,0.2-0.4,0.4-0.7c0.1,0,0.3,0,0.4-0.1l0,0l0.1,0c0,0,0,0,0.1,0l0,0l0,0l0,0c0.1,0,0.3,0,0.3,0
			c0.1,0.1,0.1,0.1,0.1,0.3c0.1,0.1,0.1,0.4,0.2,0.6c0.2-0.2,0.2-0.4,0.4-0.6c0-0.1,0.5,0.1,0.8,0.2c0.1,0.3,0.1,0.3,0.2,0.6
			c0.1-0.1,0.1-0.1,0.2-0.4c0.3,0,0.4,0.2,0.6,0.2c0.1,0,0.5,0.2,0.6,0.4c0.2,0.2,0.6,0.4,0.8,0.7
			C283.4,115.8,283.7,116.3,283.6,116.3z"/>
		<path class="st12" d="M281.7,119.1L281.7,119.1c-0.6-0.7-1.2-1.2-1.7-1.7c-0.5-0.5-1.1-0.8-1.5-1.4l-0.1-0.1
			c-0.3-0.4-0.8-0.9-1.1-1.4l0,0l0,0c0,0,0-0.1,0-0.3c0-0.1,0-0.3,0-0.3l0-0.1l0,0c0,0,0.8-0.8,0.9-0.8l0.1,0l0,0l0,0
			c0,0.1-0.1,0.4-0.1,0.5c-0.1,0.4-0.2,0.8-0.2,1.2c0-0.1,0.2-0.2,0.2-0.5c0-0.1,0-0.1,0-0.3l0,0l0,0c0.1,0,0.1,0,0.3,0
			c0.1,0,0.1,0,0.3,0c0,0,0,0,0.1,0c0,0,0,0,0.1,0l0,0l0,0l0,0l0,0l0,0l0,0c0,0,0,0,0.1,0c0.1,0,0.1,0,0.3,0l0,0l0,0
			c0.1,0,0.1,0.1,0.1,0.3c0,0,0,0,0,0.1c0,0,0,0.1,0.1,0.1c0,0.1,0.1,0.3,0.1,0.3c0.2-0.2,0.2-0.4,0.4-0.6c0-0.1,0.4,0.1,0.7,0.1
			l0.1,0l0,0l0,0c0.1,0.3,0.1,0.3,0.1,0.4l0.2-0.4l0,0c0.3,0,0.4,0.2,0.6,0.2c0.1,0,0.5,0.2,0.6,0.4c0.4,0.2,0.6,0.5,0.8,0.7
			c0.2,0.2,0.5,0.5,0.4,0.6l0,0l0,0l0,0l-0.1,0c0,0,0,0-0.1,0l0,0l0,0c-0.2-0.3-0.2-0.3-0.4-0.6c0,0-0.1,0.1-0.2,0.2
			c0,0.1,0,0.1-0.2,0.2c0,0,0,0-0.1,0.1l-0.1,0.1c0,0.3-0.1,0.4-0.1,0.7l0,0.1c0,0.1,0,0.3,0,0.3c0,0.1,0,0.3-0.1,0.4l0,0.1l0,0.1
			l0,0.1l0,0l0,0.1c0,0.1,0,0.1,0,0.3C281.9,118.7,281.9,118.8,281.7,119.1L281.7,119.1z M277.2,114.3c0.5,0.5,0.8,0.9,1.1,1.4
			l0.1,0.1c0.5,0.5,0.9,0.9,1.5,1.4c0.6,0.5,1.2,1.1,1.7,1.7c0-0.1,0.2-0.2,0.2-0.4c0-0.1,0-0.1,0-0.3l0-0.1l0,0l0-0.1l0-0.1l0-0.1
			c0-0.1,0-0.3,0.1-0.4c0-0.1,0-0.3,0-0.3l0-0.1c0-0.3,0.1-0.4,0.1-0.7l0,0c0-0.1,0.1-0.1,0.1-0.1s0,0,0.1-0.1c0,0,0-0.1,0.2-0.2
			c0.1-0.1,0.2-0.2,0.2-0.2l0,0l0,0l0,0c0.2,0.3,0.2,0.3,0.4,0.6c0,0,0,0,0.1,0l0.1,0c0,0-0.1-0.3-0.5-0.5c-0.2-0.2-0.5-0.5-0.8-0.7
			c-0.1-0.1-0.5-0.3-0.6-0.4c-0.2-0.2-0.4-0.2-0.6-0.2l-0.2,0.4l0,0c-0.1-0.3-0.1-0.3-0.1-0.5l-0.1,0c-0.3,0-0.5-0.2-0.5-0.1
			c-0.2,0.2-0.2,0.4-0.4,0.6l0,0l0,0c-0.1-0.1-0.1-0.3-0.1-0.4c0,0,0-0.1-0.1-0.1c0,0,0,0,0-0.1c0-0.1,0-0.1-0.1-0.1s-0.1,0-0.3,0
			c0,0,0,0-0.1,0l0,0l0,0l0,0l0,0l0,0l0,0c0,0,0,0-0.1,0c0,0,0,0-0.1,0c-0.1,0-0.1,0-0.3,0c-0.1,0-0.1,0-0.3,0l0,0.1
			c-0.2,0.4-0.2,0.5-0.2,0.5l0,0l0,0l0,0l0,0c0.1-0.4,0.1-0.8,0.2-1.2c0-0.1,0.1-0.4,0.1-0.5l0,0c0,0-0.8,0.8-0.9,0.8l0,0l0,0.1
			c0,0,0,0.1,0,0.3C277.2,114.1,277.2,114.1,277.2,114.3z M277.4,113.6L277.4,113.6L277.4,113.6z"/>
	</g>
	<g>
		<g>
			<path class="st20" d="M287.1,106.2c0.1,0,0.1,0,0.2,0.2c-0.1,0-0.3,0.1-0.4,0.1c0,0.1,0,0.1,0,0.1c-0.1,0.1-0.2,0.2-0.3,0.4
				c-0.1,0.1-1.3,0.9-1.5,1l-0.3,0.1c0.6,0.7,1.1,1,1.8,1.1c0.3,0,1,0.2,0.9,0c0.1,0,0.1,0,0.1,0.1c0.4,0.1,0.9,0,1.4,0.2l0,0
				c-0.4-0.1-0.9-0.1-1.3-0.1c-0.3,0-0.5,0.1-0.8,0.1c-0.6,0.3-1.2,1-1.3,1.8c-0.2,1.6,0.9,2.4,1.2,3.4c0.1,0.3,0.4,1.3,0.2,1.2
				c-0.1-0.3-0.2-0.6-0.3-0.7c0.1,0.4,0.1,0.4,0.2,0.7c-0.1,0-0.1,0.1-0.2,0.2c0-0.1-0.1-0.3-0.1-0.3c-0.2-0.4,0.1,0.3-0.1,0.8
				c-0.1-0.3-0.1-0.3-0.2-0.7c0.5-0.6-0.8-2.1-1.1-2.8c-0.1-0.4-0.3-0.7-0.4-1.1l-0.1-0.3c-0.1-0.5,0.3-1.3-0.3-1
				c-0.1,0,0-0.3,0.1-0.4c-0.1-0.3-0.5,0.1-0.6,0.2c-0.1,0,0-0.1-0.1,0c0-0.1,0.1-0.1,0.2-0.2c0-0.3-0.7,0.3-0.2-0.2
				c0-0.1-0.1-0.1,0-0.1c-0.1,0-0.1,0-0.3,0c0.2-0.2,0-0.1-0.2-0.2c-0.1,0-0.1,0-0.3,0c-0.3,0-0.5-0.1-0.8-0.1l0,0
				c0.7-0.3,1.6-0.6,2.3-0.9c0.3-0.1,0.7-0.2-0.1-0.5c0,0-0.4-0.2-0.5-0.3l-0.1,0c-0.1,0-0.1-0.1-0.2-0.2c-0.3-0.4-1.2-0.7-1.7-1.1
				c0.4,0.1,1.7,0.9,1.9,0.9c0.3,0,0.5-0.1,0.7,0c-0.1-0.1-0.3,0-0.4-0.2c0.3,0,0.6-0.3,1-0.4c-0.1,0-0.1,0-0.1,0
				c0.1,0-0.4-0.3-0.4-0.2l-0.3,0.2c-0.1,0.1-0.3,0.1-0.5-0.1c-0.6-0.5-0.2-1.4,0.5-1.3l0,0c-0.4-0.1-0.9,0.4-0.7,1
				c0.4,0.9,1.5-0.2,0.7-0.8c0,0,0,0-0.1,0c-0.6-0.4-0.9,0.5-0.9,0.7c-0.2-0.2-1-0.2-1-0.5c0.3-0.2,0.8-0.1,1.1-0.2
				c0.3-0.1,0.7-0.3,0.9-0.4c0,0,0,0,0.1,0c0.3,0,1.2,0.6,1.6,0.6C286.4,106.1,286.7,106.2,287.1,106.2z"/>
		</g>
		<g>
			<path class="st21" d="M280.3,105.1c-0.1,0.1,0.3,0.6,0.6,0.5c0.1,0,0,0,0.1,0.3c-0.1,0.1-0.1,0.1-0.3,0.2
				c0.2,0.2,0.7,0.1,0.9,0.1c0.1,0,0.4-0.1,0.5-0.1c-0.1,0.4,0.7,0.4,1,0.5c0,0.1,0.1,0.4,0.2,0.6c-0.1,0.1-0.3,0-0.3,0.1
				c0,0,0.5,0.5,0.9,0.5c0,0.1,0.3,0,0.4,0.2c-0.3,0-0.5,0.1-0.7,0s-1.6-0.9-1.9-0.9c0.5,0.3,1.4,0.6,1.7,1.1
				c-0.4-0.2-1-0.5-1.4-0.7c-0.2-0.2-0.5-0.2-0.7-0.4l-0.3,0.4c0,0-0.5-0.1-0.7-0.1c-0.3,0.1-0.4,0.1-0.7,0.2c-0.1,0-0.3,0-0.5,0.1
				l0,0c0.3-0.1-0.2-0.2-0.4-0.2l0,0c0,0,0-0.1,0.1-0.1s0.5,0.1,0.7,0c0.1-0.4,0.2-0.2-0.3-0.6c0,0,0.7-0.2-0.2-0.3
				c0.3-0.1,0.4-0.3,0.6-0.2l0,0c-0.1-0.1,0-0.3,0-0.3s-0.3,0,0-0.3C279.9,105.3,280.1,105.2,280.3,105.1z"/>
		</g>
		<g>
			<path class="st20" d="M279.8,108.4c-0.1,0.1-1.2,0.8-1.2,0.9c0,0.1,0.4,0.1,0.5,0.1l0,0c-0.4,0.2-0.6,0.6-0.8,1.1
				c0.4-0.1,0.4-0.1,1-0.3c-0.9,0.4-0.9,0.4-1.6,0.8c-0.2,0.2-0.2,0.5-0.4,0.7c-0.2,0.4-0.5,0.6-0.8,0.9c0.1-0.5,0.4-0.9,0.6-1.4
				l0,0c-0.3,0.2-0.3,0.2-0.6,0.4l-0.1,0l0.5-1c0.2-0.2,0.8-0.8,0.7-0.8c-0.8,0.8-0.9,0.5,0-0.1c0.1,0,0,0,0.1,0.1
				c0,0,1.1-0.9,1.1-1c0.2-0.2,0.6-0.4,0.7-0.6C279.5,108.3,279.7,108.3,279.8,108.4z"/>
		</g>
		<g>
			<path class="st20" d="M279.8,105.4c-0.2,0.2,0,0.3,0,0.3s-0.3,0.1,0,0.3l0,0c-0.1-0.1-0.3,0.1-0.6,0.2c0.9,0.1,0.2,0.3,0.2,0.3
				c0.5,0.3,0.2,0.2,0.3,0.6c0,0.1-0.5,0.1-0.7,0c-0.1,0-0.1,0.1-0.1,0.1c-1,0.3-1.3,0.5-0.1-0.4c-0.3,0.1-0.6,0.3-0.9,0.4
				C278.2,106.4,279.1,105.9,279.8,105.4z"/>
		</g>
		<g>
			<path class="st20" d="M279.2,107.3c0,0-0.1,0.1-0.3,0.1c-0.1,0.1-0.5,0.5-0.8,0.7c-0.3,0.2-0.7,0.4-1,0.8
				c0.1-0.4,1.6-1.6,1.7-1.7C278.9,107.2,279.5,107.1,279.2,107.3z"/>
		</g>
		<g>
			<g>
				<path class="st22" d="M287.1,105.8c-0.4-0.2-0.8-0.7-1.2-0.7c-0.4-0.1,0,0.1,0.1,0.3c0.1,0.1,0.4,0.3,0.5,0.5
					c0.2,0.2,0.5,0.2,0.5,0.3c-0.3,0-0.7-0.1-0.9-0.3c-0.4-0.2-1.4-0.6-1.6-0.6c-0.1,0-0.1,0-0.1,0l0,0c-0.1,0-1.5-0.1-1.7-0.1
					c-0.4-0.1-1.3,0.1-1.6,0.3c-0.3,0.1-0.6-0.4-0.6-0.5c0.9-0.5,1.7-0.9,2.8-1.1C284.6,104,286.2,104.6,287.1,105.8z"/>
			</g>
			<g>
				<path class="st15" d="M287.1,105.8c0.1,0.1,0.2,0.3,0.3,0.4c0,0,0,0-0.1,0.1c0-0.1-0.1,0-0.2-0.2c0-0.3-0.2-0.3-0.5-0.3
					c-0.1-0.1-0.4-0.3-0.5-0.5c-0.1-0.1-0.5-0.2-0.1-0.3C286.3,105.2,286.7,105.6,287.1,105.8z"/>
			</g>
		</g>
		<g>
			<path class="st21" d="M283.9,110.8c0,0,0,0.1-0.1,0.5c0,0.1,0,0.3,0,0.3l-0.2,0.2c-0.5,0.5-0.7,1.1-0.9,1.7c0,0.1,0,0.3,0,0.3
				c0,0.1-0.3,0.4-0.4,0.2c0.3-0.4,0.4-0.9,0.6-1.2c0.2-0.6,0.4-0.9,0.5-1.7c0-0.8,0-0.8-0.4-0.3c-0.2,0.4-1.1,1.8-1,2.1
				c0.1,0.1,0.2,0.6,0.2,0.7c0,0.3-0.1,0.7-0.1,0.9c-0.2-0.2-0.4-0.2-0.6-0.2c-0.1,0.1-0.1,0.1-0.2,0.4c-0.1-0.3-0.1-0.3-0.2-0.6
				l0,0c0-0.7,0.4-1.7,0.1-1.7c0-0.1,0-0.8,0.3-1.3c0.7-0.3,1.6-0.6,2-1.2c0.3,0,0.5-0.1,0.2,0.2c0.1,0,0.1,0,0.3,0
				c-0.1,0.1,0,0.1,0,0.1c-0.5,0.5,0.3-0.1,0.2,0.2C284,110.7,283.9,110.8,283.9,110.8z"/>
		</g>
		<g>
			<path class="st20" d="M286.3,116.2L286.3,116.2c-0.3,0-0.1,0-0.1,0.1c0,0.1,0.2,0.4-0.1,0.4c0,0.1,0,0.1,0.1,0.3
				c-0.2-0.3-0.4-0.7-0.7-1c0.2-0.6,0.1-0.8-0.1-1.3c-0.1-0.3-0.6-1.6-0.8-1.7c-0.5-0.3-0.2,0.2-0.3,0c0,0-0.1-0.4-0.5-1
				c0.2-0.2,0.2-0.2-0.1-0.4c0-0.3,0.1-0.5,0.1-0.5c0.1,0,0,0.1,0.1,0c0,0,0.4-0.3,0.6-0.2c0.1,0.1-0.1,0.4-0.1,0.4
				c0.6-0.4,0.2,0.4,0.3,1l0.1,0.3c0.1,0.4,0.3,0.7,0.4,1.1C285.6,114.2,286.7,115.6,286.3,116.2z"/>
		</g>
		<g>
			<path class="st21" d="M284.2,105.4c-0.3,0.1-0.7,0.3-0.9,0.4c-0.4,0.1-0.8,0-1.1,0.2c-0.1-0.1-0.4,0.1-0.5,0.1
				c-0.3,0-0.7,0-0.9-0.1c0.1-0.1,0.1-0.1,0.3-0.2c-0.1-0.1,0-0.3-0.1-0.3c0.3-0.2,1.2-0.2,1.6-0.3
				C282.8,105.2,284.3,105.3,284.2,105.4L284.2,105.4z"/>
		</g>
		<g>
			<path class="st21" d="M283.7,108.5C283.7,108.5,283.8,108.5,283.7,108.5c0.4,0.2,0.6,0.4,0.9,0.4c-0.7,0.3-1.4,0.6-2.3,0.9
				c-0.1-0.3,0-0.1,0-0.3c-0.5,0.1-1.1,0.2-1.7,0.4c-0.1,0-0.7-0.1-0.4-0.2c0,0,0.3,0,0.3-0.1c0.4-0.1,1.4-0.5,1.8-0.5
				c0.3-0.1,0.9,0,0.8-0.1c0.4,0.1,0.7,0,1.1-0.1c0-0.1-1.2-0.6-1.5-0.8c0,0-0.1,0.1-0.1,0c-0.2-0.3-0.7-0.4-1-0.5
				c0.1,0,0.4,0.1,0.5,0.1l0.1,0.1c0,0,0.3,0,0.4,0.2l0.1,0l0,0c0,0,0,0,0.1,0.1l0,0c0,0,0.2,0.2,0.5,0.2
				C283.4,108.5,283.4,108.5,283.7,108.5z"/>
		</g>
		<g>
			<path class="st23" d="M283.6,107.9c0.1,0,0.2,0.2,0.2,0.2c0,0.3,0.3,0.4-0.1,0.5l-0.1,0c0-0.1,0-0.1-0.1-0.3c0,0-1.1-0.8-1.2-0.8
				l-0.2-0.3C282.6,107.3,283.1,107.7,283.6,107.9z"/>
		</g>
		<g>
			<path class="st23" d="M284.5,108.9c-0.3,0-0.5-0.2-0.7-0.4c0.4-0.1,0-0.3,0.1-0.5l0.1,0c0.2,0.2,0.5,0.3,0.5,0.3
				C285.2,108.9,284.8,108.8,284.5,108.9z"/>
		</g>
		<g>
			<path class="st23" d="M284,107.7c-0.4,0.1-0.9-0.4-0.9-0.5c0-0.1,0.1,0,0.3-0.1c0,0,0.1,0,0.2,0.2c0.2,0.2,0.5,0.3,0.5,0.1
				c0,0,0.2-0.2,0.3-0.2c0,0,0.5,0.2,0.4,0.2c0.1,0,0.1,0,0.1,0C284.6,107.2,284.3,107.6,284,107.7z"/>
		</g>
		<g>
			<path class="st21" d="M283,110.2c0,0.1-0.1,0.1-0.1,0.1c-0.4-0.1-0.7,0.2-1,0.3l0,0l0,0l0,0l0,0l0,0c0,0,0,0.1-0.1,0.1
				c0,0-0.7,0.2-0.4,0.1c0,0,0.1,0,0.3-0.1c0.1-0.1,0.6-0.6,0.9-0.7C282.5,110.1,282.8,110.1,283,110.2z"/>
		</g>
		<g>
			<path class="st24" d="M286.9,116.2c0,0,0,0,0,0.1C286.9,116.3,286.9,116.3,286.9,116.2c-0.2-0.4-0.2-0.4-0.3-0.7
				C286.7,115.6,286.8,115.9,286.9,116.2z"/>
		</g>
		<g>
			<path class="st25" d="M284.1,107.3c0,0.3-0.3,0.1-0.5-0.1C283.8,107.2,284,107.4,284.1,107.3z"/>
		</g>
		<g>
			<path class="st23" d="M282.1,107.1c0,0.1,0.2,0.3,0.2,0.3c0.1,0.1,1.2,0.8,1.2,0.8c0.1,0,0.1,0.1,0.1,0.3c-0.2-0.2-0.3,0-0.2-0.2
				c-0.1,0-0.5-0.2-0.5-0.2l0,0c-0.1,0-0.1-0.1-0.1-0.1l0,0c0,0-0.1-0.1-0.1,0c-0.1-0.1-0.4-0.2-0.4-0.2s0-0.1-0.1-0.1
				c0,0-0.3,0-0.5-0.1c0,0-0.1-0.1-0.1,0c-0.1,0-0.1,0-0.1,0c-0.2-0.2-0.2-0.2-0.3-0.4l0.3-0.4C281.6,106.9,281.9,106.9,282.1,107.1
				z"/>
		</g>
		<g>
			<g>
				<path class="st21" d="M281,107.2c0.2,0.2,0.2,0.2,0.3,0.4c-1.1-0.4-0.9-0.5-1.3,0.1c-0.2,0.2-0.3,0.5-0.5,0.6
					c-0.3,0.2-0.6,0.4-0.7,0.6s-1.1,1.2-1.1,1c-0.1,0,0-0.1-0.1-0.1c-0.1,0-0.7,0.4-0.9,0.4c0.2-0.8,0.9-1.5,1.5-2
					c0.1-0.1,0.2-0.2,0.2-0.2c0.3-0.2,0.6-0.4,0.8-0.7c0.1-0.1,0.3-0.1,0.3-0.1l0,0l-0.1,0.1c0,0,0.8-0.1,0.7-0.2
					c0.3-0.1,0.5-0.1,0.7-0.2C280.5,107.1,281,107.2,281,107.2z"/>
			</g>
			<g>
				<path class="st20" d="M279.7,107.3c0.1,0.1-0.7,0.3-0.7,0.2l0.1-0.1C279.4,107.2,279.6,107.3,279.7,107.3z"/>
			</g>
		</g>
		<g>
			<path class="st20" d="M279.3,109.4c0.1,0,1,0.4,1,0.4c0,0.1-0.3,0.1-0.6,0.3c-0.1,0-0.4,0.3-0.3,0.5c0,0,0.4,0.1,0.5-0.1
				c0,0.1-0.3,0.4-0.6,0.4c0.4,0.2,0.4-0.1,0.7,0l0,0l-0.1,0.1c0.2,0.2,0.2,0.2,0.5,0.3c-0.4,0.3-0.4,0.3-0.9,0.7
				c-0.3,0.5-0.6,1.1-0.8,1.6c-0.2,0.2-0.2,0.8-0.4,0.7c0.1-0.5,0.2-1.2,0.4-1.7c0.2-0.2,0.7-0.6,0.5-0.7c-0.5,0.7-1.2,0.9-0.3,0
				c0.1-0.4,0.5-0.9,0.4-0.7c-0.1,0-1.4,1.4-1.6,1.6c0,0.1,0,0.1,0,0.1c-0.2,0.2-0.5,0.9-0.7,1c-0.5,0.9-0.6,1.4-0.4,0.2
				c0.3-0.9,0.8-2,0.8-2.1c0,0,0-0.1,0,0c0.2-0.2,0.2-0.5,0.4-0.7c0.9-0.4,0.9-0.4,1.6-0.8c-0.4,0.1-0.4,0.1-1,0.3
				C278.5,109.9,278.7,109.5,279.3,109.4C279.1,109.3,279.1,109.3,279.3,109.4z"/>
		</g>
		<g>
			<path class="st23" d="M282.6,108.2c0,0.1,0.1,0,0.1,0c0.2,0.2,1.5,0.6,1.5,0.8c-0.3,0.1-0.7,0.2-1.1,0.1c-0.1,0-0.3,0-0.4-0.1
				c-0.5-0.1-1-0.3-1.5-0.5c-0.5-0.1-1-0.2-1.7-0.2c-0.1,0-0.1,0-0.3,0c0.2-0.2,0.3-0.5,0.5-0.6l0,0.1
				C280.1,107.9,282,107.9,282.6,108.2z"/>
		</g>
		<g>
			<path class="st23" d="M281.4,107.5C281.4,107.5,281.4,107.7,281.4,107.5c0.1,0,0.1,0,0.2,0.2c0.4,0.2,0.8,0.2,1,0.5
				c-0.6-0.4-2.5-0.4-2.6-0.4l0-0.1C280.5,107.1,280.2,107.2,281.4,107.5z"/>
		</g>
		<g>
			<path class="st21" d="M282.9,109.1c-0.3,0-0.6-0.2-0.9-0.3c-0.4-0.1-0.8,0-1.1,0c-0.3,0-0.3,0-0.3,0c-0.5-0.1-0.6-0.2-0.5,0.1
				c-0.3,0.1-0.6,0.3-0.9,0.5c0.1,0,0.1,0,0.1,0l-0.1,0l0,0c-0.1,0-0.5,0.1-0.5-0.1c0-0.1,1-0.8,1.2-0.9c0.5,0.1,1,0.2,1.7,0.2
				C281.9,108.7,282.4,108.9,282.9,109.1z"/>
		</g>
		<g>
			<g>
				<path class="st20" d="M286.3,108.6c0.8,0,1.5,0.1,2.2,0.2c0.1,0,0.1,0,0.3,0c0.3,0,0.5,0.2,0.6,0.2c0,0,0,0,0.1,0
					c0.3,0,0.6,0.2,0.9,0.3l0.1,0c0,0,0,0,0.1,0c0.4,0.2,0.6,0.4,1,0.5c0,0.1,0,0.1,0.1,0.1c0,0.1-0.2-0.2-0.4-0.3
					c-0.2-0.2-2.1-0.3-2.5-0.4l0,0c-0.4-0.1-0.9-0.1-1.4-0.2c-0.1,0-0.1,0-0.1-0.1c-0.2-0.2-1.3-0.5-1.4-0.5
					C285.9,108.7,286.2,108.8,286.3,108.6c0,0-0.7,0.2-0.4-0.1C286,108.6,286.2,108.6,286.3,108.6z"/>
			</g>
			<g>
				<path class="st26" d="M289.8,107.4c0.1,0.3,0.5,0.5,0.5,1c-0.7-0.5-1.6-1-2.3-1.3c-0.2-0.2-1-0.2-1.1-0.4c0,0,0,0,0-0.1l0-0.1
					c0.1-0.1,0.3-0.1,0.4-0.1s0.1-0.1,0.1-0.1c0.3,0,1.5,0.5,1.8,0.7C289.5,107.1,289.6,107.3,289.8,107.4z"/>
			</g>
			<g>
				<path class="st27" d="M289.8,107.4c0.5,0.3,1,0.7,1.3,1.3c0.3,0.4,0.7,1.4,0.7,1.7c0,0,0-0.1-0.1-0.1c-0.2-0.7-0.1-0.4-0.2-0.4
					c0,0-0.2-0.3-0.6-0.5c-0.5-0.3-1-0.4-1.5-0.6c-0.1-0.1-0.1-0.1-0.1-0.3c1.5,0.5,0.6-0.2-0.2-0.6c-0.4-0.2-0.8-0.2-1.1-0.6
					c0.9,0.3,1.6,0.8,2.3,1.3C290.3,107.9,289.9,107.7,289.8,107.4z"/>
			</g>
			<g>
				<path class="st22" d="M286.8,106.7c-0.1,0.5,0.4,0.7,0,1.2c-0.1,0.1-0.4,0.2-0.4,0.2c-0.5,0.1-0.9-0.1-1.5-0.1l0,0
					c0.3-0.1,1.3-0.9,1.5-1C286.6,107,286.7,106.8,286.8,106.7L286.8,106.7z"/>
			</g>
			<g>
				<path class="st21" d="M286.4,108.1c1,0.2,2.1,0.3,3,0.6c0.5,0.2,1,0.3,1.5,0.6c0.4,0.2,0.5,0.5,0.6,0.5c0,0,0-0.3,0.2,0.4
					c-0.2-0.3-0.6-0.4-1-0.5c0-0.1-0.1,0-0.1,0s-0.1-0.1-0.1,0c-0.3,0-0.6-0.2-0.9-0.3c0,0,0,0-0.1,0c-0.2-0.2-0.5-0.2-0.6-0.2
					c-0.1,0-0.1,0-0.3,0c-0.6-0.2-1.3-0.5-1.9-0.4c-0.4-0.1-1.3-0.1-1.6-0.2c-0.1,0,0,0-0.1-0.1C285.5,108,285.8,108.2,286.4,108.1z
					"/>
			</g>
			<g>
				<g>
					<path class="st28" d="M284.9,108L284.9,108C284.9,108,284.9,108.2,284.9,108c0.4,0.2,1.3,0.3,1.7,0.4c-0.1,0.4-0.3,0.1-0.3,0.2
						c-0.1,0-0.3,0-0.4-0.1c-0.3,0.2,0.4,0.1,0.5,0.2c-0.3,0.1-0.5-0.1-0.4,0.1c0.1,0.1,1.2,0.3,1.4,0.5c0.2,0.2-0.7,0-0.9,0
						c-0.8-0.1-1.4-0.5-1.8-1.1C284.6,108.1,284.9,108,284.9,108z"/>
				</g>
				<g>
					<path class="st29" d="M288.5,108.8c-0.8-0.1-1.4-0.2-2.2-0.2c0-0.1,0.3,0,0.3-0.2C287.3,108.4,287.9,108.6,288.5,108.8z"/>
				</g>
			</g>
			<g>
				<path class="st29" d="M289.4,109.1c-0.3,0-0.5-0.2-0.6-0.2C288.9,108.9,289.2,108.9,289.4,109.1z"/>
			</g>
			<g>
				<path class="st29" d="M288.7,108.9c-0.1,0-0.1,0-0.3,0C288.5,108.8,288.7,108.9,288.7,108.9z"/>
			</g>
			<g>
				<path class="st30" d="M290.6,109.5l-0.1,0C290.5,109.4,290.6,109.5,290.6,109.5z"/>
			</g>
			<g>
				<path class="st30" d="M290.7,109.6c-0.1,0-0.1,0-0.1,0S290.7,109.6,290.7,109.6z"/>
			</g>
			<g>
				<path class="st29" d="M289.4,109.1L289.4,109.1L289.4,109.1z"/>
			</g>
			<g>
				<path class="st28" d="M288,107.2c0.4,0.3,0.7,0.4,1.1,0.6c0.7,0.4,1.7,1.1,0.2,0.6c0.1,0.1,0.1,0.1,0.1,0.3
					c-1-0.3-2.1-0.4-3-0.6c0-0.1,0.3-0.1,0.4-0.2c0.4-0.3-0.1-0.5,0-1.2C287.1,107,287.7,107.1,288,107.2z"/>
			</g>
		</g>
		<g>
			<path class="st21" d="M283.7,111.9c0.3,0.7,0.4,1,0.5,1c0.1,0.1-0.2-0.4,0.3,0c0.2,0.2,0.7,1.4,0.8,1.7c0.2,0.6,0.2,0.7,0.1,1.3
				c-0.1-0.1-0.2-0.2-0.4-0.3c0-0.1-0.4-0.7-0.4-0.7c-0.1,0,0.1,0.4,0,0.7l-0.5,0.6c-0.1,0.1-0.4,0.1-0.4,0.2c-0.1,0,0-0.1-0.1-0.1
				c0.1,0-0.2-0.4-0.4-0.6c-0.1-0.4-0.4-0.6-0.1-0.8c-0.1-0.1-0.2,0.2-0.2-0.2c-0.1-0.3,0-0.9-0.1-1.2l0,0c0.2-0.6,0.5-1.3,0.9-1.7
				c0-0.1,0.2-0.2,0.2-0.2C283.7,111.7,283.7,111.7,283.7,111.9z"/>
		</g>
		<g>
			<g>
				<path class="st20" d="M278.4,112.7L278.4,112.7c-0.1,0-0.9,0.8-0.9,0.8c-0.1,0-0.1,0-0.1,0c0-0.3,0.1-0.4,0.1-0.7c0,0,0,0,0-0.1
					c0.2-0.2,1.6-1.6,1.6-1.6c0.1-0.1-0.3,0.4-0.4,0.7c-0.9,0.9-0.3,0.9,0.3,0C279.1,112.3,278.5,112.5,278.4,112.7z"/>
			</g>
			<g>
				<path class="st31" d="M277.4,113.6l0,0.1C277.1,113.8,277.3,113.6,277.4,113.6z"/>
			</g>
		</g>
		<g>
			<path class="st23" d="M282.2,114.2c-0.1-0.1-0.2-0.4-0.2-0.4c0-0.1-0.1-0.5-0.2-0.7c-0.1-0.3,0.9-1.7,1-2.1
				c0.3-0.5,0.5-0.5,0.4,0.3c0,0.7-0.3,1-0.5,1.7C282.6,113.3,282.5,113.8,282.2,114.2z"/>
		</g>
		<g>
			<path class="st32" d="M280.8,114.3c-0.3,0-0.6-0.4-0.8-0.2l0-0.1c0.2-0.4,0.5-0.6,0.7-1c0-0.1,0-0.3,0.2-0.5
				C281.2,112.6,280.9,113.6,280.8,114.3L280.8,114.3z"/>
		</g>
		<g>
			<path class="st16" d="M282.2,114.2c0.1,0.1,0.3-0.1,0.4-0.2c0.1,0.3,0,0.8-0.2,1.2c-0.1-0.1-0.5-0.3-0.6-0.4
				c0-0.3,0.2-0.6,0.1-0.9C282.1,113.8,282,114,282.2,114.2z"/>
		</g>
		<g>
			<path class="st20" d="M283.3,115.7c-0.2-0.3-0.5-0.5-0.8-0.7c0.2-0.2,0.2-0.8,0.2-1.2c0-0.1,0-0.3,0-0.3l0,0
				c0.1,0.3,0,0.9,0.1,1.2c0.1,0.3,0.1,0,0.2,0.2C282.7,115.1,283.2,115.4,283.3,115.7z"/>
		</g>
		<g>
			<path class="st20" d="M283.7,111.9c0,0,0-0.1-0.1-0.1l0-0.3C284,111.6,284,111.6,283.7,111.9z"/>
		</g>
		<g>
			<path class="st23" d="M282.9,109.1c0.1,0,0.2,0.2,0.4,0.1c0.1,0.1-0.5,0.1-0.8,0.1c-0.4,0.1-1.3,0.4-1.8,0.5c0,0-0.3,0-0.3,0.1
				c-0.3,0.1,0.1,0,0.4,0.2c-0.1,0.1-0.4,0.3-0.6,0.6c-0.3,0-0.4,0.1-0.4,0.1s-0.4,0.1-0.5,0.1c-0.1-0.1,0.3-0.5,0.3-0.5
				c0.1-0.1,0.6-0.2,0.6-0.3c0-0.1-0.9-0.4-1-0.4c0,0,0,0-0.1,0c0.2-0.4,0.5-0.5,0.9-0.5c0.3,0,0.5,0.1,0.5-0.1c0,0,0.1,0,0.3,0
				c0.4,0.1,0.8,0,1.1,0C282.3,108.9,282.6,109,282.9,109.1z"/>
		</g>
		<g>
			<g>
				<path class="st23" d="M282.2,109.9L282.2,109.9c-0.3,0.2-0.8,0.7-0.9,0.7c-0.1,0.1-0.3,0.1-0.3,0.1c-0.3,0.1,0.4-0.1,0.4-0.1
					c0.7-0.2,0.7-0.2,1.3-0.5c0.1,0,0.1,0,0.1-0.1c0.1,0,0.1,0,0.3,0c-0.5,0.6-1.3,0.9-2,1.2c-0.2,0.5-0.3,1.2-0.3,1.3
					c0,0.1,0,0.3-0.2,0.5c-0.2,0.4-0.5,0.6-0.7,1c-0.1,0-0.5-0.1-0.5-0.1s0.1,0.1,0,0.3c0-0.1-0.1-0.3-0.1-0.3
					c0-0.3,0.2-0.5,0.2-0.8c0.2-0.4,0.4-0.7,0.7-1.1c0.1-0.1,0.3-0.4,0.5-0.5c-0.3,0.1-0.3,0.1-0.4,0.2c0.2-0.2,0.2-0.5,0.4-0.7
					c0.1,0,0.1-0.1,0.3-0.1c0,0,0.1,0,0.1-0.1l-0.1,0.1c0,0,0,0-0.1,0l-0.1,0.1l-0.1,0c-0.1,0-0.1,0.1-0.1,0.1
					c-0.1,0.1-0.7,0.3-0.8,0l0,0c0.1-0.1,0.3-0.4,0.3-0.5c0.2-0.2,0.3-0.4,0.6-0.6c0.6-0.2,1.1-0.2,1.7-0.4
					C282.3,109.8,282.2,109.6,282.2,109.9z"/>
			</g>
			<g>
				<path class="st21" d="M280.1,114L280.1,114c-0.2,0.2-0.2,0.5-0.4,0.7c-0.1-0.1-0.1-0.4-0.2-0.6c0,0-0.1-0.1,0-0.3
					C279.5,113.9,280.1,114,280.1,114z"/>
			</g>
		</g>
		<g>
			<path class="st16" d="M280.2,110.4c0,0.1-0.2,0.4-0.3,0.5c-0.3,0-0.3,0.2-0.7,0c0.1-0.1,0.6-0.3,0.6-0.4
				C279.8,110.5,279.9,110.4,280.2,110.4z"/>
		</g>
		<g>
			<path class="st20" d="M279.7,113c0.1,0.3-0.1,0.5-0.2,0.8c-0.1,0-0.3,0-0.3,0s0,0-0.1,0C279.3,113.5,279.5,113,279.7,113z"/>
		</g>
		<g>
			<g>
				<path class="st21" d="M280.9,110.8c-0.1,0-0.1,0.1-0.3,0.1c-0.2,0.2-0.2,0.5-0.4,0.7c0,0.3-0.1-0.1-0.3,0.1
					c0,0.7-0.1,0.7,0.2,0.2c-0.2,0.4-0.5,0.7-0.7,1.1c-0.1,0-0.3,0.5-0.6,0.7l-0.1,0c-0.1,0-0.3,0-0.4,0.1c0.2-0.5,0.6-1.1,0.8-1.6
					c0.4-0.3,0.4-0.3,0.9-0.7c-0.2-0.2-0.2-0.2-0.5-0.3c0-0.1,0.1-0.1,0.1-0.1c0,0.1,0.5-0.1,0.8,0c0,0,0,0,0.1-0.1c0,0,0,0,0.1,0
					C280.8,110.9,280.8,110.8,280.9,110.8C280.8,110.8,280.8,110.8,280.9,110.8z"/>
			</g>
			<g>
				<path class="st23" d="M280.4,111.9c-0.3,0.5-0.3,0.4-0.2-0.2c0.1-0.1,0.1,0.1,0.3-0.1c0.3-0.1,0.3-0.1,0.4-0.2
					C280.5,111.5,280.4,111.8,280.4,111.9z"/>
			</g>
		</g>
		<g>
			<path class="st21" d="M282.9,110.2c-0.7,0.2-0.7,0.2-1.3,0.5c0.1,0,0.1-0.1,0.1-0.1l0,0l0,0l0,0l0,0l0,0
				C282.2,110.3,282.5,110.1,282.9,110.2z"/>
		</g>
		<g>
			<path class="st21" d="M280.9,110.8l0.1-0.1C280.9,110.8,280.9,110.8,280.9,110.8z"/>
		</g>
		<g>
			<path class="st20" d="M286.3,116.2c0.1,0.4,0.1,0.4,0,0.7C286.2,116.6,286.2,116.6,286.3,116.2
				C286.1,116.2,286,116.2,286.3,116.2z"/>
		</g>
		<g>
			<path class="st20" d="M285,115.7C285,115.5,284.9,115.5,285,115.7c-0.1,0-0.2-0.2-0.2-0.2l-0.1,0.1l0,0c0-0.3-0.1-0.8,0-0.7
				C284.7,115,285,115.5,285,115.7z"/>
		</g>
		<g>
			<g>
				<path class="st33" d="M284.2,105.9c-0.6-0.2-1,0.8-0.5,1.3c0,0-0.1,0-0.2-0.2s-0.2-0.3-0.2-0.6
					C283.3,106.5,283.5,105.6,284.2,105.9z"/>
			</g>
			<g>
				<g>
					<path class="st24" d="M284.2,105.9C284.2,105.9,284.1,106.1,284.2,105.9c0.8,0.7-0.2,1.7-0.7,1
						C283.3,106.5,283.8,106,284.2,105.9z"/>
				</g>
				<g>
					<path class="st34" d="M284.1,106.1C284.1,106.1,284.2,105.9,284.1,106.1C284.2,105.9,284.2,105.9,284.1,106.1
						C284.2,105.9,284.2,105.9,284.1,106.1z"/>
				</g>
				<g>
					<path class="st20" d="M284.1,106.2c0.1,0.5,0.5,0.3,0.1-0.1c0.3,0,0.3,0.7-0.1,0.8c-0.1,0.1-0.4-0.1-0.5-0.3
						C283.6,106.3,284,106.2,284.1,106.2z"/>
				</g>
				<g>
					<path class="st29" d="M284.3,106.2c0.3,0.4-0.2,0.6-0.1,0.1C284.1,106.2,284.1,106.2,284.3,106.2z"/>
				</g>
			</g>
		</g>
		<g>
			<path class="st21" d="M281.6,107.7l-0.1,0C281.5,107.6,281.6,107.7,281.6,107.7z"/>
		</g>
		<g>
			<path class="st23" d="M280.6,108.6c0,0.1-0.4,0.1-0.5,0.1C279.9,108.4,280.1,108.5,280.6,108.6z"/>
		</g>
	</g>
	<g>
		<g>
			<path class="st18" d="M286.9,121c0,0.9-0.3,2.1-0.7,3c0,0.1-0.2,0.4-0.2,0.4c0,0.3-0.2,0.4-0.2,0.6c-0.2,0.2-0.1,0.5-0.2,0.8
				c0.1-0.4-0.1-2-0.1-2.1c-0.1-1-0.3-1.9-0.4-2.9l0,0c-0.2-0.7-0.5-1.4-0.6-2.1c0.2-0.2,0.1-0.5,0.1-0.7c0-0.3,0.4-0.6,0.3-1.4
				c0.1,0.1,0.3,0.7,0.3,1c0.2,0.6,0.2,1.4,0.5,1.3l0.3-0.4c0.2-0.5,0-1.2,0.3-1c-0.1-0.4,0.2-0.5,0.1-0.7c0.1-0.5-0.1-1.1,0.1-0.8
				l0.1,0.3c0,0.1,0.2,0.7,0.1,0.8C286.9,118.1,287,120.2,286.9,121z"/>
			<path class="st12" d="M285.6,126l0-0.3c0-0.3,0-1.1,0-1.6c0-0.3-0.1-0.5-0.1-0.5c-0.1-1-0.3-1.9-0.4-2.9l0,0
				c-0.1-0.5-0.3-1-0.5-1.4c-0.1-0.1-0.1-0.4-0.2-0.6l0,0l0,0c0-0.1,0-0.3,0.1-0.4c0-0.1,0-0.1,0-0.3c0-0.1,0-0.1,0-0.3
				c0.2-0.2,0.2-0.6,0.3-1.2l0-0.1l0,0c0.1,0.1,0.3,0.6,0.3,1c0,0.1,0.1,0.3,0.1,0.4c0.1,0.4,0.1,0.8,0.3,0.8c0,0,0.3-0.2,0.3-0.4
				c0.2-0.2,0.1-0.5,0.1-0.8c0-0.1,0-0.3,0-0.3l0,0c0-0.1,0-0.3,0.1-0.4c0-0.1,0-0.1,0-0.3l0,0l0,0c0-0.3,0.1-0.5,0-0.7
				c0-0.1,0-0.1,0-0.3c0,0,0,0,0.1,0.1c0,0,0,0.1,0.1,0.3l0,0.1c0,0.1,0.2,0.7,0.1,0.8c0.1,0.8,0.2,3,0.1,3.8c0,0.9-0.3,2.1-0.7,3
				c0,0.1-0.2,0.2-0.2,0.4l0,0c0,0.1,0,0.3-0.2,0.2c0,0.1-0.2,0.2-0.2,0.4c0,0.1,0,0.3-0.2,0.4c0,0.1,0,0.3-0.1,0.4L285.6,126z
				 M284.6,118.7c0.1,0.1,0.1,0.4,0.2,0.6c0.2,0.4,0.3,1,0.5,1.4l0,0c0.3,1,0.4,1.9,0.4,2.9l0,0l0,0c0,0,0,0.3,0.1,0.5
				c0.1,0.4,0.1,1.1,0.1,1.5l0-0.1c0-0.1,0-0.3,0.2-0.5c0-0.1,0-0.3,0.2-0.4c0-0.1,0-0.1,0.2-0.2l0,0c0,0,0.1-0.1,0.2-0.2
				c0.4-1,0.6-2.1,0.7-3l0,0c0.1-0.8-0.1-2.9-0.1-3.8c0-0.1-0.2-0.7-0.1-0.8c0,0,0,0,0-0.1c0-0.1,0-0.1-0.1-0.1l0,0c0,0,0,0,0,0.1
				c0,0.1,0.1,0.4,0,0.7c0,0.1,0,0.1,0,0.3c0,0.1,0,0.3-0.1,0.4l0,0l0,0l0,0c0,0,0,0.1,0,0.3c0,0.3,0.1,0.5-0.1,0.8l-0.3,0.4
				c-0.3,0-0.3-0.4-0.4-0.9c0-0.1-0.1-0.3-0.1-0.4c-0.1-0.3-0.2-0.6-0.3-0.8c-0.1,0.5-0.2,0.8-0.3,1c0,0.1,0,0.1,0,0.3
				c0,0.1,0,0.1,0,0.3C284.6,118.4,284.6,118.5,284.6,118.7z"/>
		</g>
	</g>
	<g>
		<g>
			<path class="st18" d="M286.3,117.6c-0.2-0.2,0.1,0.5-0.3,1l-0.3,0.4c-0.3,0.1-0.3-0.8-0.5-1.3c-0.1-0.3-0.2-0.7-0.3-1l0,0
				c-0.2-0.3-0.2-0.3-0.3-0.6c0,0-0.1,0.1-0.3,0.1c-0.1,0-0.3,0.1-0.3,0.1l0.5-0.6l0,0c0,0,0-0.1,0.1-0.1l0.1,0.1l0.1,0
				c0.1,0,0.2,0.2,0.4,0.3c0.2,0.3,0.4,0.7,0.7,1c0-0.1,0-0.1-0.1-0.3c0.3,0,0-0.1,0.1-0.4c0.1,0.3,0.1,0.3,0.2,0.6
				c-0.1-0.4-0.1-0.4,0-0.7c0,0,0,0,0.1,0c0.1,0.3,0.1,0.3,0.2,0.7C286.5,117.1,286.4,117.2,286.3,117.6z"/>
			<path class="st12" d="M285.9,119c-0.1,0-0.3-0.4-0.4-0.9c0-0.1-0.1-0.3-0.1-0.4c-0.1-0.3-0.2-0.7-0.3-0.8l0,0l0,0l0,0l0,0
				c-0.2-0.3-0.2-0.3-0.3-0.4l-0.1,0c0,0,0,0-0.1,0c0,0,0,0-0.1,0s-0.1,0.1-0.3,0l0,0l0,0c0,0,0.5-0.5,0.5-0.6l0,0l0,0l0,0
				c0,0,0-0.1,0.1-0.1l0,0l0,0l0,0c0,0,0,0,0.1,0l0,0c0,0,0,0,0.1,0c0.1,0,0.2,0.2,0.4,0.3c0.1,0.1,0.3,0.4,0.4,0.7
				c0,0.1,0.1,0.1,0.1,0.1s0,0,0-0.1l0,0l0,0c0.1,0,0.1,0,0.1,0l0-0.1c0-0.1,0-0.1,0-0.3l0-0.1l0,0c0.1,0.3,0.1,0.3,0.2,0.4
				c0-0.1,0-0.3-0.1-0.5l0,0l0,0l0,0l0,0l0,0l0.2,0.7c0,0.1,0,0.1,0,0.3c0,0.1,0,0.3-0.1,0.4l0,0l0,0l0,0c0,0,0,0.1,0,0.3
				c0,0.3,0.1,0.5-0.1,0.8C286.2,118.6,285.9,119,285.9,119L285.9,119z M285,116.7c0.1,0.1,0.3,0.6,0.3,1c0,0.1,0.1,0.3,0.1,0.4
				c0.1,0.4,0.1,0.8,0.3,0.8c0,0,0.3-0.2,0.3-0.4c0.2-0.2,0.1-0.5,0.1-0.8c0-0.1,0-0.3,0-0.3l0,0c0-0.1,0-0.3,0.1-0.4
				c0-0.1,0-0.1,0-0.3l-0.2-0.7l0,0l0,0c0.1,0.3,0.1,0.3,0,0.7l0,0.1l-0.1-0.1c-0.1-0.3-0.1-0.3-0.2-0.4l0,0c0,0.1,0,0.1,0,0.1
				s0,0-0.1,0c0,0.1,0,0.1,0,0.1l0,0.1l-0.1-0.1c-0.1-0.1-0.1-0.1-0.2-0.3c-0.1-0.3-0.3-0.4-0.4-0.7c-0.1-0.1-0.2-0.2-0.4-0.3
				c0,0,0,0-0.1,0l0,0c0,0,0,0-0.1,0l0,0c0,0,0,0.1-0.1,0.1l0,0l0,0c0,0.1-0.3,0.5-0.5,0.6l0.1,0c0,0,0,0,0.1,0c0,0,0,0,0.1,0
				s0.1,0,0.1,0l0,0l0,0C284.9,116.3,284.9,116.3,285,116.7L285,116.7L285,116.7C285,116.6,285,116.6,285,116.7
				C285,116.6,285,116.6,285,116.7z"/>
		</g>
	</g>
	<g>
		<path class="st35" d="M276.1,117.4c0-0.1-0.1-0.3-0.1-0.4C276.1,117.2,276.1,117.4,276.1,117.4L276.1,117.4z"/>
	</g>
	<g>
		<path class="st35" d="M276.8,119.1c-0.2-0.3-0.4-0.9-0.5-1.1C276.3,118.5,276.7,119,276.8,119.1
			C276.6,119.1,276.6,119.1,276.8,119.1z"/>
	</g>
	<g>
		<path class="st35" d="M276.9,119.4C276.9,119.4,276.9,119.3,276.9,119.4C276.9,119.3,276.9,119.3,276.9,119.4z"/>
	</g>
	<g>
		<path class="st35" d="M277,119.6L277,119.6L277,119.6z"/>
	</g>
	<g>
		<path class="st35" d="M276.9,114.5c-0.2,0.6-0.6,1.2-0.9,1.7l0,0l0,0.1l0-0.1C276.5,115.6,276.9,114.9,276.9,114.5z"/>
	</g>
	<g>
		<path class="st36" d="M278.3,118.7l-1.4,0.6l-0.1-0.1c-0.1-0.3,0.7-1.2,0.9-1.3c0,0-0.3,0.1-0.3,0c-0.1,0-0.1,0-0.1,0.1
			c-0.2-0.2-0.4-0.6-0.7-1l0.3-0.2l1,0.5L278.3,118.7z"/>
	</g>
	<g>
		<path class="st35" d="M277.9,120.8c-0.1-0.1-0.3-0.4-0.6-0.7C277.4,120.3,277.6,120.6,277.9,120.8z"/>
	</g>
	<g>
		<path class="st13" d="M289.2,118.7L289.2,118.7C289.1,118.7,289.1,118.7,289.2,118.7c-0.2-0.2-1.2-1.1-1.6-1.6
			c-0.5-0.5-0.7-0.9-0.7-0.9c-0.1,0.1-0.2,0.2-0.2,0.2s0.2,0.6,0.3,1.6c0.1,1,0.1,2.7,0,3.5c-0.1,0.8-0.6,2.4-0.6,2.4
			c-0.5,1-0.7,1.8-0.7,1.8c-0.2,0.2-0.4,1-0.6,1.6c-0.1-0.5-0.1-0.8-0.4-1.3c-0.2-0.4-0.8-1.6-0.9-1.9c-0.1-0.1-0.1-0.1-0.1-0.1
			c-0.2-0.3-0.3-0.6-0.5-0.9c-0.3-0.6-0.6-1.2-0.9-1.7c-0.4-0.9-0.9-1.7-1.4-2.5c-0.7-1-1.3-2.1-2.1-3.1c-0.4-0.6-0.9-1.2-1.5-1.8
			c0,0,0,0-0.1,0l0,0l0,0l0,0l0,0l0,0l0,0l0,0l0,0l0,0l0,0c0,0,0,0,0,0.1l0,0c-0.2,0.6-0.6,1.2-0.9,1.7l0,0l0,0.1l0,0
			c0,0.1,0.1,0.4,0.2,0.7c0,0.1,0.1,0.3,0.1,0.3l0,0.1c0,0.1,0.1,0.3,0.1,0.3l0,0l0,0l0,0l0,0l0,0l0,0l0,0l0,0l0,0l0,0l0,0
			c0.2,0.6,0.5,1,0.5,1l0,0.1l0,0l0.1,0.1l0,0c0,0,0,0,0.1,0.1c0.1,0.1,0.1,0.1,0.1,0.1l0,0l0,0l0,0l0,0l0,0l0,0l0,0l0.1,0.1l0,0
			c0,0,0,0,0,0.1c0.2,0.3,0.3,0.4,0.6,0.7l0,0c1.1,1.6,2.5,3,3.7,4.7c0.9,1.2,2.1,2,3.1,3.3c0.1-0.1,1.5-2.2,1.5-2.2
			c0.6-0.6,1.5-2.2,1.7-2.4c0.2-0.2,1.6-3.6,1.6-3.6C289.6,119.7,289.2,118.7,289.2,118.7z"/>
		<path class="st12" d="M284.6,128.7L284.6,128.7c-0.5-0.5-0.9-0.9-1.4-1.4c-0.6-0.5-1.2-1.1-1.7-1.7c-0.6-0.7-1.1-1.5-1.7-2.1
			c-0.7-0.8-1.4-1.7-1.9-2.4c-0.2-0.3-0.3-0.4-0.6-0.7l0,0l0,0l0,0c0,0,0,0-0.1-0.1l0-0.1l0,0l0,0l0,0l0,0l0,0l0,0l0,0l0,0l0,0l0,0
			c0,0,0,0-0.1-0.1c0,0,0,0-0.1-0.1l0,0l0,0l0,0c0,0,0,0-0.1-0.1l0,0c0,0,0-0.1-0.1-0.1c0,0-0.3-0.6-0.5-1l0-0.1l0,0l0,0l0,0l0,0
			l0,0l0,0l0,0l0,0l0,0l0,0l0,0c0,0,0,0,0-0.1l0-0.1l0-0.1c0,0,0-0.1-0.1-0.3c-0.1-0.3-0.1-0.5-0.2-0.7c0-0.1,0-0.1,0-0.1l0,0
			c0.3-0.5,0.7-1,0.9-1.7l0,0l0,0l0,0l0,0l0,0l0,0l0,0l0,0l0,0l0,0l0,0l0,0l0,0l0,0l0,0l0,0l0,0l0,0l0,0l0,0l0,0l0,0c0,0,0,0,0.1,0
			c0.5,0.5,0.9,1.1,1.4,1.7l0.1,0.1c0.8,0.9,1.5,1.9,2.1,3.1c0.3,0.6,0.6,1.2,0.9,1.7c0.1,0.3,0.3,0.6,0.4,0.7
			c0.2,0.3,0.3,0.6,0.5,0.9c0.2,0.3,0.3,0.6,0.5,0.9c0.1,0.1,0.1,0.1,0.1,0.3c0.1,0.1,0.2,0.4,0.3,0.6l0,0l0.1,0.1l0,0
			c0,0.1,0.3,0.7,0.6,1.2c0.1,0.3,0.3,0.6,0.3,0.7c0.2,0.4,0.3,0.7,0.4,1.3c0.2-0.6,0.5-1.4,0.6-1.6l0,0c0-0.1,0.1-0.9,0.7-1.8
			c0,0,0.5-1.7,0.6-2.4c0.1-0.8,0.1-2.5,0-3.5c-0.1-1-0.3-1.6-0.3-1.6l0,0c0,0,0-0.3,0.2-0.2l0,0c0,0,0.3,0.4,0.7,0.9
			c0.5,0.5,1.4,1.4,1.5,1.6l0.1,0l0,0l0,0l0,0l0,0l0,0c0,0.1,0.5,1,0.3,1.8l0,0c0,0-1.6,3.4-1.6,3.6c-0.2,0.2-1.1,1.8-1.7,2.4
			C286.1,126.6,284.9,128.6,284.6,128.7L284.6,128.7z M277,119.6L277,119.6C277,119.6,277.1,119.6,277,119.6L277,119.6
			C277.1,119.6,277.1,119.6,277,119.6L277,119.6C277.1,119.6,277.1,119.7,277,119.6L277,119.6c0.1,0.1,0.1,0.1,0.1,0.1l0,0.1
			c0,0,0,0,0.1,0.1l0,0l0,0c0,0,0,0,0,0.1c0.1,0.3,0.3,0.4,0.6,0.7c0.7,0.9,1.4,1.7,1.9,2.4s1.1,1.4,1.7,2.1
			c0.6,0.6,1.2,1.2,1.7,1.7c0.5,0.5,0.9,0.9,1.4,1.4c0.3-0.1,1.5-2,1.5-2.2l0,0c0.6-0.6,1.5-2.2,1.7-2.4c0.2-0.2,1.6-3.5,1.6-3.6
			c0.1-0.8-0.3-1.6-0.3-1.8l0,0c0,0,0,0-0.1,0c-0.1,0-1.2-1.1-1.5-1.6s-0.7-0.8-0.7-0.9c-0.1,0.1-0.2,0.2-0.2,0.2
			c0,0.1,0.2,0.7,0.3,1.6c0.1,1,0.1,2.7,0,3.5c-0.1,0.8-0.6,2.4-0.6,2.4c-0.4,1-0.6,1.6-0.7,1.8l0,0c-0.2,0.2-0.4,1.1-0.6,1.6l0,0
			l0,0c-0.1-0.5-0.1-0.8-0.4-1.3c-0.1-0.1-0.2-0.4-0.3-0.7c-0.2-0.4-0.5-1-0.6-1.2c-0.1,0-0.1-0.1-0.1-0.1c-0.1-0.1-0.2-0.4-0.3-0.6
			c0-0.1-0.1-0.1-0.1-0.3c-0.2-0.3-0.3-0.6-0.5-0.9c-0.2-0.3-0.3-0.6-0.5-0.9c-0.1-0.3-0.3-0.6-0.4-0.7c-0.3-0.6-0.6-1.2-0.9-1.7
			c-0.7-1-1.3-2.1-2.1-3.1l-0.1-0.1c-0.4-0.6-0.9-1.2-1.4-1.7l0,0l0,0l0,0l0,0l0,0l0,0l0,0l0,0l0,0l0,0l0,0l0,0l0,0l0,0l0,0l0,0l0,0
			l0,0l0,0c-0.2,0.6-0.6,1.2-1.1,1.7l0,0c0,0,0,0,0,0.1c0,0.1,0.1,0.4,0.2,0.7c0,0.1,0.1,0.3,0.1,0.3l0,0l0,0.1l0,0.1l0,0.1l0,0l0,0
			l0,0l0,0l0,0l0,0l0,0l0,0l0,0l0,0l0,0l0,0.1c0.2,0.6,0.4,1,0.5,1l0,0c0,0,0,0,0,0.1c0,0,0.1,0,0.1,0.1l0,0l0,0l0,0
			c0,0,0,0,0.1,0.1C277,119.4,277,119.6,277,119.6z M277,119.6L277,119.6L277,119.6z M277,119.6L277,119.6L277,119.6z M277,119.6
			L277,119.6L277,119.6z M277,119.6L277,119.6L277,119.6z M277,119.6L277,119.6L277,119.6z M277,119.6L277,119.6L277,119.6z
			 M277,119.6L277,119.6L277,119.6z"/>
	</g>
	<g>
		<g>
			<path class="st13" d="M276,117c-0.1-0.3-0.1-0.5-0.2-0.7C276,116.5,276.1,116.8,276,117z"/>
			<path class="st37" d="M276,117L276,117c-0.1-0.3-0.1-0.5-0.2-0.7l0,0l0,0C276,116.5,276.1,116.8,276,117L276,117L276,117z"/>
		</g>
		<g>
			<path class="st13" d="M276.2,117.7c0-0.1,0-0.1-0.1-0.3C276.2,117.6,276.2,117.7,276.2,117.7z"/>
			<path class="st37" d="M276.2,117.8L276.2,117.8c0-0.1-0.1-0.3-0.1-0.3l0,0l0,0L276.2,117.8C276.2,117.7,276.2,117.7,276.2,117.8
				L276.2,117.8L276.2,117.8z"/>
		</g>
		<g>
			<path class="st13" d="M276.9,119.3C276.8,119.3,276.8,119.3,276.9,119.3C276.8,119.3,276.8,119.3,276.9,119.3z"/>
			<path class="st37" d="M276.9,119.3L276.9,119.3L276.9,119.3c-0.1,0-0.1-0.1-0.1-0.1l0,0l0,0C276.8,119.1,276.8,119.3,276.9,119.3
				L276.9,119.3L276.9,119.3L276.9,119.3z"/>
		</g>
		<g>
			<path class="st13" d="M277,119.6L277,119.6l-0.1-0.1l0,0C277,119.6,277,119.6,277,119.6z"/>
			<path class="st37" d="M277,119.6L277,119.6L277,119.6l-0.1-0.1l0,0l0,0l0,0C277,119.6,277,119.6,277,119.6L277,119.6z M277,119.6
				L277,119.6L277,119.6z"/>
		</g>
		<g>
			<path class="st13" d="M277,119.6L277,119.6L277,119.6z"/>
			<path class="st37" d="M277,119.6L277,119.6L277,119.6L277,119.6L277,119.6C277,119.6,277.1,119.6,277,119.6
				C277.1,119.6,277.1,119.6,277,119.6C277.1,119.6,277,119.6,277,119.6z"/>
		</g>
		<g>
			<path class="st13" d="M277.2,119.9l-0.1-0.1C277.1,119.8,277.2,119.9,277.2,119.9z"/>
			<path class="st37" d="M277.2,120L277.2,120c-0.1-0.1-0.1-0.1-0.1-0.1l0,0l0,0l0,0.1C277.2,119.9,277.2,119.9,277.2,120
				C277.2,119.9,277.2,119.9,277.2,120L277.2,120z"/>
		</g>
		<g>
			<path class="st13" d="M277.1,114.1L277.1,114.1L277.1,114.1L277.1,114.1L277.1,114.1z"/>
			<path class="st37" d="M277.1,114.2L277.1,114.2L277.1,114.2C277.1,114.1,277.1,114.1,277.1,114.2
				C277.1,114.1,277.1,114.1,277.1,114.2L277.1,114.2c0-0.1,0-0.1,0-0.1S277.1,114.1,277.1,114.2
				C277.1,114.1,277.1,114.1,277.1,114.2C277.1,114.1,277.1,114.1,277.1,114.2L277.1,114.2C277.1,114.1,277.1,114.2,277.1,114.2
				L277.1,114.2L277.1,114.2z"/>
		</g>
		<g>
			<path class="st13" d="M277.2,114.3L277.2,114.3C277.2,114.1,277.2,114.3,277.2,114.3z"/>
			<path class="st37" d="M277.2,114.3L277.2,114.3L277.2,114.3L277.2,114.3L277.2,114.3C277.2,114.3,277.2,114.1,277.2,114.3
				C277.2,114.1,277.2,114.1,277.2,114.3C277.2,114.1,277.2,114.1,277.2,114.3C277.2,114.1,277.2,114.3,277.2,114.3L277.2,114.3z"/>
		</g>
	</g>
	<g>
		<path class="st13" d="M290.7,120.2c0,0.9-0.1,1.8-0.1,2.8c-0.2,2-0.4,3.9-1,5.9c-0.5,0.1-0.9,0-1.5,0.1c-0.9,0-2,0-2.9,0l0,0
			l-0.7,0c0,0,0.2-0.2,0.3-0.5l0-0.1c0-0.1,0.1-0.1,0.2-0.2c0.2-0.4,0.4-0.6,0.5-1c0.7-0.8,1.4-1.5,2.2-3c0.5-1.3,1.1-2.4,1.6-3.6
			c0-0.7-0.1-1.2-0.3-1.8c0.2,0.2,0.6,0.4,0.9,0.5c0.1,0,0.1,0.1,0.2,0.2c0.1,0.1,0.2,0.2,0.2,0.3
			C290.7,119.7,290.6,120.1,290.7,120.2z"/>
		<path class="st12" d="M285.2,128.9l-0.7,0l0,0l0,0c0,0,0.2-0.2,0.3-0.5c0,0,0,0,0-0.1c0-0.1,0-0.1,0.1-0.1c0,0,0,0,0.1-0.1
			c0-0.1,0.2-0.2,0.2-0.4c0.2-0.2,0.2-0.4,0.4-0.6c0.2-0.2,0.5-0.6,0.7-0.8c0.5-0.6,1-1.2,1.5-2.2c0.2-0.6,0.6-1.2,0.8-1.8
			c0.2-0.6,0.6-1.2,0.8-1.9c0-0.7-0.1-1.2-0.3-1.8l0,0l0,0c0.4,0.2,0.6,0.4,0.9,0.5l0,0l0.1,0l0,0c0,0,0.1,0,0.1,0.1l0.1,0.1
			c0,0,0.1,0.1,0.1,0.3c0,0.1,0.1,0.3,0.1,0.4l0,0c0,0.8-0.1,1.6-0.2,2.2c0,0.1-0.1,0.4-0.1,0.5c-0.2,2-0.4,3.9-1,5.9l0,0
			c-0.3,0-0.5,0.1-0.7,0c-0.3,0-0.5,0.1-0.8,0c-0.5,0.1-1.1,0-1.6,0C286.1,128.9,285.6,129,285.2,128.9L285.2,128.9L285.2,128.9z
			 M284.6,128.8l0.7,0l0,0c0.4,0.1,0.9,0,1.3,0.1c0.5-0.1,1.1,0,1.6,0c0.3,0,0.5-0.1,0.8,0s0.5-0.1,0.7,0c0.4-1.8,0.7-3.8,1-5.7
			c0-0.1,0.1-0.4,0.1-0.5c0.1-0.8,0.1-1.6,0.2-2.2c0-0.1-0.1-0.3-0.1-0.4c0-0.1-0.1-0.3-0.1-0.3l-0.1-0.1c0,0-0.1,0-0.1-0.1
			c-0.1,0-0.1,0-0.1-0.1l0,0c-0.2-0.2-0.5-0.3-0.9-0.5c0.2,0.6,0.2,1.1,0.3,1.8l0,0c-0.2,0.6-0.6,1.2-0.8,1.9
			c-0.2,0.6-0.6,1.2-0.8,1.8c-0.5,1-1.1,1.7-1.5,2.2c-0.2,0.2-0.5,0.6-0.7,0.8c-0.1,0.1-0.2,0.4-0.4,0.6c0,0.1-0.2,0.2-0.2,0.4
			c0,0.1,0,0.1-0.1,0.1c0,0,0,0,0,0.1l0,0c0,0,0,0,0,0.1C284.7,128.6,284.7,128.8,284.6,128.8z"/>
	</g>
	<g>
		<path class="st38" d="M285.2,128.8c-0.3,0.1-0.4-0.2-0.3-0.4C285.2,128.1,285.6,128.3,285.2,128.8z"/>
	</g>
</g>
</svg>
