<?xml version="1.0" encoding="utf-8"?>
<!-- Generator: Adobe Illustrator 28.2.0, SVG Export Plug-In . SVG Version: 6.00 Build 0)  -->
<svg version="1.1" id="katman_1" xmlns="http://www.w3.org/2000/svg" xmlns:xlink="http://www.w3.org/1999/xlink" x="0px" y="0px"
	 viewBox="0 0 404 253" style="enable-background:new 0 0 404 253;" xml:space="preserve">
<style type="text/css">
	.st0{fill-rule:evenodd;clip-rule:evenodd;fill:#FFFFFF;}
	.st1{fill:none;stroke:#000000;stroke-width:2;stroke-linecap:round;stroke-linejoin:round;}
	.st2{fill-rule:evenodd;clip-rule:evenodd;}
	.st3{fill:none;}
	.st4{fill:none;stroke:#070E15;stroke-width:2;stroke-linecap:round;stroke-linejoin:round;}
	.st5{fill-rule:evenodd;clip-rule:evenodd;fill:#FAC428;}
	.st6{fill:none;stroke:#FAC428;stroke-miterlimit:10;}
	.st7{fill-rule:evenodd;clip-rule:evenodd;fill:#F9F8F4;}
	.st8{fill-rule:evenodd;clip-rule:evenodd;fill:#070E15;}
	.st9{fill:none;stroke:#FFFFFF;stroke-linecap:round;stroke-linejoin:round;}
	.st10{fill:none;stroke:#FFFFFF;stroke-width:2;stroke-linecap:round;stroke-linejoin:round;}
	.st11{fill:none;stroke:#070E15;stroke-width:4;stroke-linecap:round;stroke-linejoin:round;}
</style>
<path class="st0" d="M71.1,83.3c-12.1,8.4-33.5,9.2-38.3-9.8c-3.9-15.5,6.7-29,22.7-27.4c-3-25,3.2-37.5,28.9-42.4L99.4,2
	c16.6,1,23.6,13.8,39.2,12.4l3.6,2.5l3.8,2.6c-4.1,3.2-5.3,5.1-10.3,5.5c3.3,3.4,5.1,6.6,5.5,11.2c-2.4,1-4,6.2-6.8,11.4
	c0.9-8.6-0.3-15.9-7.4-19.7c-2.1,10-9,15.7-18.7,18.5h-12C83.8,57.3,71.1,57.8,72.9,59.6L71.1,83.3z"/>
<line class="st1" x1="179" y1="251.5" x2="52" y2="251.5"/>
<path class="st0" d="M324,175h18.2c2.6-0.1,4.7-2,5-4.6L358,57.6c0.3-2.2-1.3-4.3-3.6-4.6c-0.2,0-0.4,0-0.6,0h-159
	c-2.6,0.1-4.7,2-5,4.6L179,170.4c-0.3,2.2,1.3,4.3,3.6,4.6c0.2,0,0.4,0,0.6,0h130.1"/>
<path class="st1" d="M324,175h18.2c2.6-0.1,4.7-2,5-4.6L358,57.6c0.3-2.2-1.3-4.3-3.6-4.6c-0.2,0-0.4,0-0.6,0h-159
	c-2.6,0.1-4.7,2-5,4.6L179,170.4c-0.3,2.2,1.3,4.3,3.6,4.6c0.2,0,0.4,0,0.6,0h130.1"/>
<path class="st0" d="M324.4,175h22.8c2.6-0.1,4.7-2,5-4.6L363,57.6c0.3-2.2-1.3-4.3-3.6-4.6c-0.2,0-0.4,0-0.6,0h-159
	c-2.6,0.1-4.7,2-5,4.6L184,170.4c-0.3,2.2,1.3,4.3,3.6,4.6c0.2,0,0.4,0,0.6,0h125.5"/>
<path class="st1" d="M324.4,175h22.8c2.6-0.1,4.7-2,5-4.6L363,57.6c0.3-2.2-1.3-4.3-3.6-4.6c-0.2,0-0.4,0-0.6,0h-159
	c-2.6,0.1-4.7,2-5,4.6L184,170.4c-0.3,2.2,1.3,4.3,3.6,4.6c0.2,0,0.4,0,0.6,0h125.5"/>
<polygon class="st0" points="321,221 275.4,221 260,130 305.6,130 "/>
<polygon class="st1" points="321,221 275.4,221 260,130 305.6,130 "/>
<polygon class="st0" points="276,221 225,221 225,216.4 270.4,216.4 255.9,130 260.5,130 "/>
<polygon class="st1" points="276,221 225,221 225,216.4 270.4,216.4 255.9,130 260.5,130 "/>
<polygon class="st2" points="255.4,129 251,175 263,175 "/>
<polygon class="st1" points="255.4,129 251,175 263,175 "/>
<path class="st0" d="M215,171l7.7-81l6.7,10.1c1.4,2.1,2.1,4.6,1.8,7.2l-6.1,63.8h23l0.9-8h-23.1"/>
<path class="st1" d="M215,171l7.7-81l6.7,10.1c1.4,2.1,2.1,4.6,1.8,7.2l-6.1,63.8h23l0.9-8h-23.1"/>
<path class="st1" d="M223,90.1L329.5,90l6.7,10.2c1.4,2.1,2,4.6,1.8,7.2l-6,63.7"/>
<line class="st1" x1="321" y1="90" x2="328" y2="100"/>
<line class="st1" x1="313" y1="90" x2="320" y2="100"/>
<line class="st1" x1="304" y1="90" x2="311" y2="100"/>
<line class="st1" x1="296" y1="90" x2="303" y2="100"/>
<line class="st1" x1="288" y1="90" x2="295" y2="100"/>
<line class="st1" x1="280" y1="90" x2="287" y2="100"/>
<line class="st1" x1="272" y1="90" x2="279" y2="100"/>
<line class="st1" x1="263" y1="90" x2="270" y2="100"/>
<line class="st1" x1="255" y1="90" x2="262" y2="100"/>
<line class="st1" x1="247" y1="90" x2="254" y2="100"/>
<line class="st1" x1="239" y1="90" x2="246" y2="100"/>
<line class="st1" x1="230" y1="90" x2="237" y2="100"/>
<path class="st2" d="M359.1,232.3c-3.4-4.6-8.8-7.3-14.6-7.3H299c5.7,0,11.1,2.7,14.6,7.3l10.5,14.1l3.4,4.6H373l-3.4-4.6
	L359.1,232.3z"/>
<path class="st1" d="M359.1,232.3c-3.4-4.6-8.8-7.3-14.6-7.3H299c5.7,0,11.1,2.7,14.6,7.3l10.5,14.1l3.4,4.6H373l-3.4-4.6
	L359.1,232.3z"/>
<path class="st1" d="M182.8,233.1c3.5-4.7,8.9-7.4,14.7-7.4h101.1c5.8,0,11.2,2.8,14.7,7.4l10.6,14.3l3.5,4.6h5.7l-16.1-21.7
	c-4.3-5.8-11.1-9.3-18.4-9.3H197.5c-7.3,0-14.1,3.5-18.4,9.3L163,252h5.7l3.4-4.6L182.8,233.1z"/>
<path class="st0" d="M229,221h-31.7c-7.2,0-14,3.5-18.3,9.3L163,252h45.7l16-21.7c1.3-1.8,2.8-3.3,4.6-4.6c3.9-3,8.8-4.6,13.7-4.7
	H229z"/>
<path class="st1" d="M229,221h-31.7c-7.2,0-14,3.5-18.3,9.3L163,252h45.7l16-21.7c1.3-1.8,2.8-3.3,4.6-4.6c3.9-3,8.8-4.6,13.7-4.7
	H229z"/>
<path class="st0" d="M228.8,233.1c3.5-4.7,8.9-7.4,14.7-7.4h101.1c5.8,0,11.2,2.8,14.7,7.4l10.6,14.3l3.5,4.6h5.7l-16.1-21.7
	c-4.3-5.8-11.1-9.3-18.4-9.3H243.5c-7.3,0-14.1,3.5-18.4,9.3L209,252h5.7l3.4-4.6L228.8,233.1z"/>
<path class="st1" d="M228.8,233.1c3.5-4.7,8.9-7.4,14.7-7.4h101.1c5.8,0,11.2,2.8,14.7,7.4l10.6,14.3l3.5,4.6h5.7l-16.1-21.7
	c-4.3-5.8-11.1-9.3-18.4-9.3H243.5c-7.3,0-14.1,3.5-18.4,9.3L209,252h5.7l3.4-4.6L228.8,233.1z"/>
<polyline class="st0" points="215,252 303,252 303,244 230,244 "/>
<polyline class="st1" points="215,252 303,252 303,244 230,244 "/>
<path class="st1" d="M321,181l5,5"/>
<line class="st3" x1="327" y1="251.5" x2="403" y2="251.5"/>
<line class="st1" x1="327" y1="251.5" x2="403" y2="251.5"/>
<line class="st3" x1="39" y1="251.5" x2="1" y2="251.5"/>
<line class="st4" x1="39" y1="251.5" x2="1" y2="251.5"/>
<path class="st4" d="M105,58c0.8-1.7,2.4-2.8,4.2-3c1.8-0.2,3.6,0.7,4.8,2.1"/>
<path class="st4" d="M133,58c-0.6-1.6-2.1-2.8-3.8-3c-1.7-0.1-3.3,0.7-4.2,2.1"/>
<path class="st5" d="M188.1,216.8h12.4c2,0,3.9,0.6,5.5,1.8l-32.2-31.8l-18.6-54.8c-4.9-14.4-18.4-24.1-33.5-24.1h-9.1l5.3,64.8
	L64,108h-6.3c-18.3,0-33.4,14.3-34.5,32.5l-4.1,65.6c-0.5,8.1,1.9,16,6.7,22.5l10.8,14.6c4.1,5.6,10.6,8.8,17.6,8.8h35.6v-23.8
	l48.2,5.3l5.9-21.9c2.1-1.7,4.1-3.5,5.9-5.5l22.2,18l12.3-6.7C185.5,217,186.8,216.8,188.1,216.8"/>
<path class="st4" d="M188.1,216.8h12.4c2,0,3.9,0.6,5.5,1.8l-32.2-31.8l-18.6-54.8c-4.9-14.4-18.4-24.1-33.5-24.1h-9.1l5.3,64.8
	L64,108h-6.3c-18.3,0-33.4,14.3-34.5,32.5l-4.1,65.6c-0.5,8.1,1.9,16,6.7,22.5l10.8,14.6c4.1,5.6,10.6,8.8,17.6,8.8h35.6v-23.8
	l48.2,5.3l5.9-21.9c2.1-1.7,4.1-3.5,5.9-5.5l22.2,18l12.3-6.7C185.5,217,186.8,216.8,188.1,216.8z"/>
<path class="st6" d="M138.9,57c-0.6,7.7-3.8,14-7,14s-5.4-6.2-4.8-14s3.8-14,7-14S139.5,49.2,138.9,57z"/>
<path class="st7" d="M126.8,77c0,0,5.9,0,8.2-5l-11-12"/>
<path class="st4" d="M126.8,77c0,0,5.9,0,8.2-5l-11-12"/>
<path class="st6" d="M120.9,57c-0.6,7.7-5.6,14-11.1,14s-9.4-6.2-8.8-14s5.6-14,11.1-14S121.6,49.2,120.9,57z"/>
<path class="st4" d="M69,56c4.2,1.2,3.9,4.1,3.9,4.1l-2.8,3.6c1.5,2.1,3.1,3.1,5.8,4.3"/>
<path class="st4" d="M64.4,54l-8.3-7.3C48.2,6.7,83.6,4,83.6,4l19.4,9.8"/>
<path class="st4" d="M56,46.2c-7.3-0.9-14.5,2-19.2,7.6c-4.6,5.7-6,13.3-3.7,20.2"/>
<path class="st4" d="M42.1,61c-2,3.6-2.6,7.8-1.7,11.8c0.9,4.1,3.3,7.7,6.6,10.2"/>
<path class="st4" d="M63.6,108h8.6V73.4c-2.3-1.9-8.6-5.8-9.2-13.2c-0.2-3,0.4-6.3,2.8-8.1s8.3-2.4,12,5.4l24.1,0"/>
<path class="st4" d="M59,215l-4.1,0.7c-3.3,0.6-6,3.1-6.9,6.3l9.3-3.5"/>
<path class="st4" d="M61.5,168L59,194.6l1.8,5.3c0.6,1.7,0.7,3.6,0.3,5.4L59,215.4l23.6,5.7c2.1,0.5,3.9,1.9,4.8,3.8l1.6,3"/>
<path class="st4" d="M18.1,205c-0.5,8.1,1.9,16,6.7,22.5l10.8,14.6c4.1,5.6,10.6,8.8,17.5,8.9"/>
<line class="st4" x1="150" y1="206" x2="172" y2="224"/>
<path class="st4" d="M150.5,168l8.5,18.5l-0.1,0.4c-1.8,6.7-5.2,12.9-9.9,18.1"/>
<polyline class="st4" points="89,228 89,252 231,252 "/>
<path class="st4" d="M164,228l-9.9,5c-2.6,0.8-5.4,1.1-8.2,0.9L137,233"/>
<path class="st4" d="M78,57c6.3-2.2,11.8-6.1,16-11.3c4.1-5.3,7.2-11.3,9-17.7"/>
<path class="st4" d="M115,28c-2,9.5-9.5,17-19,19"/>
<path class="st4" d="M109,46.8c9.3-2.1,16.5-9.4,18.4-18.8c3.2,2.1,5.5,5.2,6.6,8.9c1,3.6,1.3,7.4,0.7,11.1"/>
<path class="st4" d="M49,69c0.7,6.5,5.5,12.5,12,15"/>
<path class="st4" d="M58,70c2.1,5.5,7.1,9.4,13,10"/>
<polyline class="st4" points="93,144.3 82.7,137.1 70,147 63,108 "/>
<polyline class="st4" points="114.7,142 123.6,132.6 137,137.9 112,108 "/>
<polygon class="st8" points="138,138.1 115,142 124.1,133 "/>
<polygon class="st4" points="138,138.1 115,142 124.1,133 "/>
<polygon class="st8" points="70,147 93,144.3 82.6,137 "/>
<polygon class="st4" points="70,147 93,144.3 82.6,137 "/>
<path class="st0" d="M87,4.9c5-3.3,11.7-3.5,17.6-2s11.3,4.4,16.8,6.9s11.5,4.6,17.6,4.2"/>
<path class="st4" d="M87,4.9c5-3.3,11.7-3.5,17.6-2s11.3,4.4,16.8,6.9s11.5,4.6,17.6,4.2"/>
<path class="st7" d="M126,82h-15.6c2.9,8.4,14.2,8.6,14.2,8.6l-1.5,11.4h-15.8C97,102,88.7,97.6,82,90.2"/>
<path class="st4" d="M126,82h-15.6c2.9,8.4,14.2,8.6,14.2,8.6l-1.5,11.4h-15.8C97,102,88.7,97.6,82,90.2"/>
<path class="st0" d="M129.2,158.9c0,0.1,0.2,0.1,0.2,0c0.7-3,2.7-5.6,5.6-6.8c0.1,0,0-0.1-0.1-0.1l-7.6,0.8c-0.2,0-0.3,0.1-0.3,0.3
	L129.2,158.9z"/>
<path class="st9" d="M129.2,158.9c0,0.1,0.2,0.1,0.2,0c0.7-3,2.7-5.6,5.6-6.8c0.1,0,0-0.1-0.1-0.1l-7.6,0.8c-0.2,0-0.3,0.1-0.3,0.3
	L129.2,158.9z"/>
<path class="st0" d="M133.1,169l5.8-0.7c0.1,0,0.2-0.1,0.2-0.2l3.8-16.7c0-0.2-0.1-0.3-0.3-0.3c0,0,0,0-0.1,0l-5.6,0.7
	c-0.1,0-0.2,0.1-0.2,0.2l-3.9,17C133,168.9,133.1,169,133.1,169C133.1,169,133.1,169,133.1,169"/>
<path class="st9" d="M133.1,169l5.8-0.7c0.1,0,0.2-0.1,0.2-0.2l3.8-16.7c0-0.2-0.1-0.3-0.3-0.3c0,0,0,0-0.1,0l-5.6,0.7
	c-0.1,0-0.2,0.1-0.2,0.2l-3.9,17C133,168.9,133.1,169,133.1,169C133.1,169,133.1,169,133.1,169"/>
<path class="st0" d="M145.8,161.1c0-0.1-0.2-0.1-0.2,0c-0.7,3-2.7,5.6-5.6,6.8c-0.1,0,0,0.1,0.1,0.1l7.6-0.8c0.2,0,0.3-0.1,0.3-0.3
	L145.8,161.1z"/>
<path class="st9" d="M145.8,161.1c0-0.1-0.2-0.1-0.2,0c-0.7,3-2.7,5.6-5.6,6.8c-0.1,0,0,0.1,0.1,0.1l7.6-0.8c0.2,0,0.3-0.1,0.3-0.3
	L145.8,161.1z"/>
<path class="st8" d="M79.8,62.1c1.1,8-2.6,15.1-8.3,15.9s-11.2-5-12.3-13s2.6-15.1,8.3-15.9S78.7,54.1,79.8,62.1"/>
<path class="st4" d="M79.8,62.1c1.1,8-2.6,15.1-8.3,15.9s-11.2-5-12.3-13s2.6-15.1,8.3-15.9S78.7,54.1,79.8,62.1z"/>
<path class="st8" d="M69.9,64.6c0.7,5.2-1.7,9.9-5.5,10.4s-7.5-3.3-8.2-8.5s1.7-9.9,5.5-10.4C65.5,55.5,69.1,59.3,69.9,64.6"/>
<path class="st4" d="M69.9,64.6c0.7,5.2-1.7,9.9-5.5,10.4s-7.5-3.3-8.2-8.5s1.7-9.9,5.5-10.4C65.5,55.5,69.1,59.3,69.9,64.6z"/>
<path class="st8" d="M62,56c3.6-0.5,7.2,3.3,7.9,8.5s-1.7,9.9-5.3,10.4"/>
<path class="st10" d="M62,56c3.6-0.5,7.2,3.3,7.9,8.5s-1.7,9.9-5.3,10.4"/>
<path class="st11" d="M100,2.1c-1.7-0.1-3.4-0.1-5.1,0c-5.8,0.4-12.1,2.4-16.6,6.3c-4.4,3.8-7.7,8.6-9.8,14
	c-3.6,9.4-3.2,20.1,0,29.7"/>
<path class="st0" d="M139,14c-6.1,0.4-12-1.7-17.6-4.1S110.5,4.5,104.6,3S92,1.5,87,4.9l16.4,8.2"/>
<path class="st4" d="M139,14c-6.1,0.4-12-1.7-17.6-4.1S110.5,4.5,104.6,3S92,1.5,87,4.9l16.4,8.2"/>
<path class="st4" d="M71,76c5.7,9.6,15.9,15.6,27,16"/>
<path class="st8" d="M107,91.5c0,2.5-2,4.5-4.5,4.5S98,94,98,91.5s2-4.5,4.5-4.5l0,0C105,87,107,89,107,91.5
	C107,91.5,107,91.5,107,91.5"/>
<path class="st4" d="M107,91.5c0,2.5-2,4.5-4.5,4.5S98,94,98,91.5s2-4.5,4.5-4.5l0,0C105,87,107,89,107,91.5
	C107,91.5,107,91.5,107,91.5z"/>
<path class="st4" d="M141.1,36c-0.4-5-3-9.6-7.1-12.6c4.5,0.7,9-1,12-4.4"/>
<path class="st4" d="M45,29c-1.7-3.3-3.3-6.7-5-10"/>
<path class="st4" d="M39,35.3l-6,0.4"/>
<path class="st8" d="M115,88c2.9,1.8,6.2,2.9,9.6,3l0.4-3H115z"/>
<path class="st4" d="M115,88c2.9,1.8,6.2,2.9,9.6,3l0.4-3H115z"/>
<path class="st0" d="M77,233c-3.9-0.1-7.1-3.3-7-7.2v-4.6c0-2.2,1-4.3,2.7-5.7c2.5-2,6.1-2,8.6,0l2.3,1.9c0.2,0.2,0.3,0.4,0.3,0.7
	v3.4c0,0.3-0.2,0.7-0.5,0.8c-0.1,0.1-0.3,0.1-0.4,0.1c-0.2,0-0.4-0.1-0.5-0.2l-4-3.1c-0.4-0.4-1-0.5-1.5-0.5c-0.6,0-1.1,0.2-1.5,0.5
	c-0.6,0.5-1,1.2-1,2v4.6c0,1.4,1.1,2.5,2.4,2.6c0,0,0,0,0.1,0h6.1c0.5,0,0.9,0.4,0.9,0.9v2.8c0,0.5-0.4,0.9-0.9,0.9L77,233z"/>
<path class="st8" d="M77,214c-1.8,0-3.5,0.6-4.9,1.6c-1.9,1.5-3.1,3.7-3.1,6.2v4.4c0.1,4.4,3.6,7.9,8,7.8h6.2c1,0,1.8-0.8,1.8-1.8
	v-2.7c0-1-0.8-1.8-1.8-1.8c0,0,0,0,0,0H77c-0.9,0-1.6-0.7-1.6-1.6c0,0,0,0,0,0v-4.4c0-0.5,0.2-0.9,0.6-1.2c0.6-0.5,1.4-0.5,2,0
	l4.1,3c0.3,0.2,0.7,0.4,1.1,0.4c0.3,0,0.6-0.1,0.8-0.2c0.6-0.3,1-0.9,1-1.6v-3.3c0-0.6-0.3-1.1-0.7-1.4l-2.4-1.8
	C80.5,214.6,78.8,214,77,214 M77,215.8c1.4,0,2.7,0.4,3.8,1.3l2.4,1.8v3.3l-4.1-3c-0.6-0.5-1.3-0.7-2.1-0.7c-0.8,0-1.5,0.2-2.1,0.7
	c-0.8,0.6-1.3,1.6-1.3,2.6v4.4c0,1.9,1.5,3.4,3.4,3.4c0,0,0,0,0,0h6.2v2.7H77c-3.4,0-6.1-2.6-6.2-6v-4.4c0-1.9,0.9-3.6,2.4-4.8
	C74.3,216.2,75.6,215.8,77,215.8"/>
<path class="st0" d="M124,215.7v15c0,4.3-1.7,8.5-4.8,11.5l-1.5,1.5c-0.4,0.4-0.6,0.9-0.6,1.4c0,1.1-0.9,1.9-1.9,1.9c0,0,0,0,0,0
	H91.8c-1.1,0-1.9-0.9-1.9-1.9c0,0,0,0,0,0c0-0.5-0.2-1-0.6-1.4l-1.5-1.5c-3.1-3.1-4.8-7.2-4.8-11.5v-15c0-1.5,1.2-2.7,2.7-2.7
	c0,0,0,0,0,0h35.5C122.8,213,124,214.2,124,215.7C124,215.7,124,215.7,124,215.7"/>
<path class="st4" d="M124,215.7v15c0,4.3-1.7,8.5-4.8,11.5l-1.5,1.5c-0.4,0.4-0.6,0.9-0.6,1.4c0,1.1-0.9,1.9-1.9,1.9c0,0,0,0,0,0
	H91.8c-1.1,0-1.9-0.9-1.9-1.9c0,0,0,0,0,0c0-0.5-0.2-1-0.6-1.4l-1.5-1.5c-3.1-3.1-4.8-7.2-4.8-11.5v-15c0-1.5,1.2-2.7,2.7-2.7
	c0,0,0,0,0,0h35.5C122.8,213,124,214.2,124,215.7C124,215.7,124,215.7,124,215.7z"/>
<path class="st0" d="M76,247h7c1.6,0,3.1,0.7,4,2s2.4,2,4,2h25.1c1.6,0,3.1-0.7,4-2s2.4-2,4-2H76"/>
<path class="st4" d="M76,247h7c1.6,0,3.1,0.7,4,2s2.4,2,4,2h25.1c1.6,0,3.1-0.7,4-2s2.4-2,4-2H76"/>
<line class="st4" x1="93" y1="242.5" x2="115" y2="242.5"/>
</svg>
