<?xml version="1.0" encoding="utf-8"?>
<!-- Generator: Adobe Illustrator 28.2.0, SVG Export Plug-In . SVG Version: 6.00 Build 0)  -->
<svg version="1.1" id="katman_1" xmlns="http://www.w3.org/2000/svg" xmlns:xlink="http://www.w3.org/1999/xlink" x="0px" y="0px"
	 viewBox="0 0 404 253" style="enable-background:new 0 0 404 253;" xml:space="preserve">
<style type="text/css">
	.st0{fill-rule:evenodd;clip-rule:evenodd;fill:#FFFFFF;}
	.st1{fill:none;stroke:#000000;stroke-width:2;stroke-linecap:round;stroke-linejoin:round;}
	.st2{fill-rule:evenodd;clip-rule:evenodd;}
	.st3{fill:none;}
	.st4{fill:none;stroke:#070E15;stroke-width:2;stroke-linecap:round;stroke-linejoin:round;}
	.st5{fill-rule:evenodd;clip-rule:evenodd;fill:#FAC428;}
	.st6{fill:none;stroke:#FAC428;stroke-miterlimit:10;}
	.st7{fill-rule:evenodd;clip-rule:evenodd;fill:#F9F8F4;}
	.st8{fill-rule:evenodd;clip-rule:evenodd;fill:#070E15;}
	.st9{fill:none;stroke:#FFFFFF;stroke-width:2;stroke-linecap:round;stroke-linejoin:round;}
	.st10{fill:none;stroke:#070E15;stroke-width:4;stroke-linecap:round;stroke-linejoin:round;}
	.st11{fill:#F8C227;}
	.st12{fill:#1D1E1E;}
	.st13{fill:#EBAA1A;}
	.st14{fill:#F2A81A;}
	.st15{fill:#526577;}
	.st16{fill:#2F3B55;}
	.st17{fill:#668194;}
	.st18{fill:#FFFFFF;}
	.st19{fill:#A2B7D6;}
	.st20{fill:#0F131C;}
	.st21{fill:#242F3C;}
	.st22{fill:#475872;}
	.st23{fill:#394857;}
	.st24{fill:#F4EFE3;}
	.st25{fill:#72787E;}
	.st26{fill:#AAA794;}
	.st27{fill:#656862;}
	.st28{fill:#787A6F;}
	.st29{fill:#84806F;}
	.st30{fill:#373739;}
	.st31{fill:#646A7D;}
	.st32{fill:#1C2439;}
	.st33{fill:#DDD8CB;}
	.st34{fill:#8B8E79;}
	.st35{fill:#A4BCE2;}
	.st36{fill:#3F3419;}
	.st37{fill:#233339;}
	.st38{fill:#9C9682;}
</style>
<path class="st0" d="M71.1,83.3c-12.1,8.4-33.5,9.2-38.3-9.8c-3.9-15.5,6.7-29,22.7-27.4c-3-25,3.2-37.5,28.9-42.4l15-1.7
	C116,3,123,15.8,138.6,14.4l3.6,2.5l3.8,2.6c-4.1,3.2-5.3,5.1-10.3,5.5c3.3,3.4,5.1,6.6,5.5,11.2c-2.4,1-4,6.2-6.8,11.4
	c0.9-8.6-0.3-15.9-7.4-19.7c-2.1,10-9,15.7-18.7,18.5h-12C83.8,57.3,71.1,57.8,72.9,59.6L71.1,83.3z"/>
<line class="st1" x1="179" y1="251.5" x2="52" y2="251.5"/>
<path class="st0" d="M324,175h18.2c2.6-0.1,4.7-2,5-4.6L358,57.6c0.3-2.2-1.3-4.3-3.6-4.6c-0.2,0-0.4,0-0.6,0h-159
	c-2.6,0.1-4.7,2-5,4.6L179,170.4c-0.3,2.2,1.3,4.3,3.6,4.6c0.2,0,0.4,0,0.6,0h130.1"/>
<path class="st1" d="M324,175h18.2c2.6-0.1,4.7-2,5-4.6L358,57.6c0.3-2.2-1.3-4.3-3.6-4.6c-0.2,0-0.4,0-0.6,0h-159
	c-2.6,0.1-4.7,2-5,4.6L179,170.4c-0.3,2.2,1.3,4.3,3.6,4.6c0.2,0,0.4,0,0.6,0h130.1"/>
<path class="st0" d="M324.4,175h22.8c2.6-0.1,4.7-2,5-4.6L363,57.6c0.3-2.2-1.3-4.3-3.6-4.6c-0.2,0-0.4,0-0.6,0h-159
	c-2.6,0.1-4.7,2-5,4.6L184,170.4c-0.3,2.2,1.3,4.3,3.6,4.6c0.2,0,0.4,0,0.6,0h125.5"/>
<path class="st1" d="M324.4,175h22.8c2.6-0.1,4.7-2,5-4.6L363,57.6c0.3-2.2-1.3-4.3-3.6-4.6c-0.2,0-0.4,0-0.6,0h-159
	c-2.6,0.1-4.7,2-5,4.6L184,170.4c-0.3,2.2,1.3,4.3,3.6,4.6c0.2,0,0.4,0,0.6,0h125.5"/>
<polygon class="st0" points="321,221 275.4,221 260,130 305.6,130 "/>
<polygon class="st1" points="321,221 275.4,221 260,130 305.6,130 "/>
<polygon class="st0" points="276,221 225,221 225,216.4 270.4,216.4 255.9,130 260.5,130 "/>
<polygon class="st1" points="276,221 225,221 225,216.4 270.4,216.4 255.9,130 260.5,130 "/>
<polygon class="st2" points="255.4,129 251,175 263,175 "/>
<polygon class="st1" points="255.4,129 251,175 263,175 "/>
<path class="st0" d="M215,171l7.7-81l6.7,10.1c1.4,2.1,2.1,4.6,1.8,7.2l-6.1,63.8h23l0.9-8h-23.1"/>
<path class="st1" d="M215,171l7.7-81l6.7,10.1c1.4,2.1,2.1,4.6,1.8,7.2l-6.1,63.8h23l0.9-8h-23.1"/>
<path class="st1" d="M223,90.1L329.5,90l6.7,10.2c1.4,2.1,2,4.6,1.8,7.2l-6,63.7"/>
<line class="st1" x1="321" y1="90" x2="328" y2="100"/>
<line class="st1" x1="313" y1="90" x2="320" y2="100"/>
<line class="st1" x1="304" y1="90" x2="311" y2="100"/>
<line class="st1" x1="296" y1="90" x2="303" y2="100"/>
<line class="st1" x1="288" y1="90" x2="295" y2="100"/>
<line class="st1" x1="280" y1="90" x2="287" y2="100"/>
<line class="st1" x1="272" y1="90" x2="279" y2="100"/>
<line class="st1" x1="263" y1="90" x2="270" y2="100"/>
<line class="st1" x1="255" y1="90" x2="262" y2="100"/>
<line class="st1" x1="247" y1="90" x2="254" y2="100"/>
<line class="st1" x1="239" y1="90" x2="246" y2="100"/>
<line class="st1" x1="230" y1="90" x2="237" y2="100"/>
<path class="st2" d="M359.1,232.3c-3.4-4.6-8.8-7.3-14.6-7.3H299c5.7,0,11.1,2.7,14.6,7.3l10.5,14.1l3.4,4.6H373l-3.4-4.6
	L359.1,232.3z"/>
<path class="st1" d="M359.1,232.3c-3.4-4.6-8.8-7.3-14.6-7.3H299c5.7,0,11.1,2.7,14.6,7.3l10.5,14.1l3.4,4.6H373l-3.4-4.6
	L359.1,232.3z"/>
<path class="st1" d="M182.8,233.1c3.5-4.7,8.9-7.4,14.7-7.4h101.1c5.8,0,11.2,2.8,14.7,7.4l10.6,14.3l3.5,4.6h5.7L317,230.3
	c-4.3-5.8-11.1-9.3-18.4-9.3H197.5c-7.3,0-14.1,3.5-18.4,9.3L163,252h5.7l3.4-4.6L182.8,233.1z"/>
<path class="st0" d="M229,221h-31.7c-7.2,0-14,3.5-18.3,9.3L163,252h45.7l16-21.7c1.3-1.8,2.8-3.3,4.6-4.6c3.9-3,8.8-4.6,13.7-4.7
	H229z"/>
<path class="st1" d="M229,221h-31.7c-7.2,0-14,3.5-18.3,9.3L163,252h45.7l16-21.7c1.3-1.8,2.8-3.3,4.6-4.6c3.9-3,8.8-4.6,13.7-4.7
	H229z"/>
<path class="st0" d="M228.8,233.1c3.5-4.7,8.9-7.4,14.7-7.4h101.1c5.8,0,11.2,2.8,14.7,7.4l10.6,14.3l3.5,4.6h5.7L363,230.3
	c-4.3-5.8-11.1-9.3-18.4-9.3H243.5c-7.3,0-14.1,3.5-18.4,9.3L209,252h5.7l3.4-4.6L228.8,233.1z"/>
<path class="st1" d="M228.8,233.1c3.5-4.7,8.9-7.4,14.7-7.4h101.1c5.8,0,11.2,2.8,14.7,7.4l10.6,14.3l3.5,4.6h5.7L363,230.3
	c-4.3-5.8-11.1-9.3-18.4-9.3H243.5c-7.3,0-14.1,3.5-18.4,9.3L209,252h5.7l3.4-4.6L228.8,233.1z"/>
<polyline class="st0" points="215,252 303,252 303,244 230,244 "/>
<polyline class="st1" points="215,252 303,252 303,244 230,244 "/>
<path class="st1" d="M321,181l5,5"/>
<line class="st3" x1="327" y1="251.5" x2="403" y2="251.5"/>
<line class="st1" x1="327" y1="251.5" x2="403" y2="251.5"/>
<line class="st3" x1="39" y1="251.5" x2="1" y2="251.5"/>
<line class="st4" x1="39" y1="251.5" x2="1" y2="251.5"/>
<path class="st4" d="M105,58c0.8-1.7,2.4-2.8,4.2-3c1.8-0.2,3.6,0.7,4.8,2.1"/>
<path class="st4" d="M133,58c-0.6-1.6-2.1-2.8-3.8-3c-1.7-0.1-3.3,0.7-4.2,2.1"/>
<path class="st5" d="M188.1,216.8h12.4c2,0,3.9,0.6,5.5,1.8l-32.2-31.8L155.2,132c-4.9-14.4-18.4-24.1-33.5-24.1h-9.1l5.3,64.8
	L64,108h-6.3c-18.3,0-33.4,14.3-34.5,32.5l-4.1,65.6c-0.5,8.1,1.9,16,6.7,22.5l10.8,14.6c4.1,5.6,10.6,8.8,17.6,8.8h35.6v-23.8
	l48.2,5.3l5.9-21.9c2.1-1.7,4.1-3.5,5.9-5.5l22.2,18l12.3-6.7C185.5,217,186.8,216.8,188.1,216.8"/>
<path class="st4" d="M188.1,216.8h12.4c2,0,3.9,0.6,5.5,1.8l-32.2-31.8L155.2,132c-4.9-14.4-18.4-24.1-33.5-24.1h-9.1l5.3,64.8
	L64,108h-6.3c-18.3,0-33.4,14.3-34.5,32.5l-4.1,65.6c-0.5,8.1,1.9,16,6.7,22.5l10.8,14.6c4.1,5.6,10.6,8.8,17.6,8.8h35.6v-23.8
	l48.2,5.3l5.9-21.9c2.1-1.7,4.1-3.5,5.9-5.5l22.2,18l12.3-6.7C185.5,217,186.8,216.8,188.1,216.8z"/>
<path class="st6" d="M138.9,57c-0.6,7.7-3.8,14-7,14s-5.4-6.2-4.8-14s3.8-14,7-14S139.5,49.2,138.9,57z"/>
<path class="st7" d="M126.8,77c0,0,5.9,0,8.2-5l-11-12"/>
<path class="st4" d="M126.8,77c0,0,5.9,0,8.2-5l-11-12"/>
<path class="st6" d="M120.9,57c-0.6,7.7-5.6,14-11.1,14s-9.4-6.2-8.8-14s5.6-14,11.1-14S121.6,49.2,120.9,57z"/>
<path class="st4" d="M69,56c4.2,1.2,3.9,4.1,3.9,4.1l-2.8,3.6c1.5,2.1,3.1,3.1,5.8,4.3"/>
<path class="st4" d="M64.4,54l-8.3-7.3C48.2,6.7,83.6,4,83.6,4l19.4,9.8"/>
<path class="st4" d="M56,46.2c-7.3-0.9-14.5,2-19.2,7.6c-4.6,5.7-6,13.3-3.7,20.2"/>
<path class="st4" d="M42.1,61c-2,3.6-2.6,7.8-1.7,11.8c0.9,4.1,3.3,7.7,6.6,10.2"/>
<path class="st4" d="M63.6,108h8.6V73.4c-2.3-1.9-8.6-5.8-9.2-13.2c-0.2-3,0.4-6.3,2.8-8.1c2.4-1.8,8.3-2.4,12,5.4h24.1"/>
<path class="st4" d="M59,215l-4.1,0.7c-3.3,0.6-6,3.1-6.9,6.3l9.3-3.5"/>
<path class="st4" d="M61.5,168L59,194.6l1.8,5.3c0.6,1.7,0.7,3.6,0.3,5.4L59,215.4l23.6,5.7c2.1,0.5,3.9,1.9,4.8,3.8l1.6,3"/>
<path class="st4" d="M18.1,205c-0.5,8.1,1.9,16,6.7,22.5l10.8,14.6c4.1,5.6,10.6,8.8,17.5,8.9"/>
<line class="st4" x1="150" y1="206" x2="172" y2="224"/>
<path class="st4" d="M150.5,168l8.5,18.5l-0.1,0.4c-1.8,6.7-5.2,12.9-9.9,18.1"/>
<polyline class="st4" points="89,228 89,252 231,252 "/>
<path class="st4" d="M164,228l-9.9,5c-2.6,0.8-5.4,1.1-8.2,0.9L137,233"/>
<path class="st4" d="M78,57c6.3-2.2,11.8-6.1,16-11.3c4.1-5.3,7.2-11.3,9-17.7"/>
<path class="st4" d="M115,28c-2,9.5-9.5,17-19,19"/>
<path class="st4" d="M109,46.8c9.3-2.1,16.5-9.4,18.4-18.8c3.2,2.1,5.5,5.2,6.6,8.9c1,3.6,1.3,7.4,0.7,11.1"/>
<path class="st4" d="M49,69c0.7,6.5,5.5,12.5,12,15"/>
<path class="st4" d="M58,70c2.1,5.5,7.1,9.4,13,10"/>
<polyline class="st4" points="93,144.3 82.7,137.1 70,147 63,108 "/>
<polyline class="st4" points="114.7,142 123.6,132.6 137,137.9 112,108 "/>
<polygon class="st8" points="138,138.1 115,142 124.1,133 "/>
<polygon class="st4" points="138,138.1 115,142 124.1,133 "/>
<polygon class="st8" points="70,147 93,144.3 82.6,137 "/>
<polygon class="st4" points="70,147 93,144.3 82.6,137 "/>
<path class="st0" d="M87,4.9c5-3.3,11.7-3.5,17.6-2s11.3,4.4,16.8,6.9s11.5,4.6,17.6,4.2"/>
<path class="st4" d="M87,4.9c5-3.3,11.7-3.5,17.6-2s11.3,4.4,16.8,6.9s11.5,4.6,17.6,4.2"/>
<path class="st7" d="M126,82h-15.6c2.9,8.4,14.2,8.6,14.2,8.6l-1.5,11.4h-15.8C97,102,88.7,97.6,82,90.2"/>
<path class="st4" d="M126,82h-15.6c2.9,8.4,14.2,8.6,14.2,8.6l-1.5,11.4h-15.8C97,102,88.7,97.6,82,90.2"/>
<path class="st8" d="M79.8,62.1c1.1,8-2.6,15.1-8.3,15.9s-11.2-5-12.3-13s2.6-15.1,8.3-15.9S78.7,54.1,79.8,62.1"/>
<path class="st4" d="M79.8,62.1c1.1,8-2.6,15.1-8.3,15.9s-11.2-5-12.3-13s2.6-15.1,8.3-15.9S78.7,54.1,79.8,62.1z"/>
<path class="st8" d="M69.9,64.6c0.7,5.2-1.7,9.9-5.5,10.4s-7.5-3.3-8.2-8.5s1.7-9.9,5.5-10.4C65.5,55.5,69.1,59.3,69.9,64.6"/>
<path class="st4" d="M69.9,64.6c0.7,5.2-1.7,9.9-5.5,10.4s-7.5-3.3-8.2-8.5s1.7-9.9,5.5-10.4C65.5,55.5,69.1,59.3,69.9,64.6z"/>
<path class="st8" d="M62,56c3.6-0.5,7.2,3.3,7.9,8.5s-1.7,9.9-5.3,10.4"/>
<path class="st9" d="M62,56c3.6-0.5,7.2,3.3,7.9,8.5s-1.7,9.9-5.3,10.4"/>
<path class="st10" d="M100,2.1c-1.7-0.1-3.4-0.1-5.1,0c-5.8,0.4-12.1,2.4-16.6,6.3c-4.4,3.8-7.7,8.6-9.8,14
	c-3.6,9.4-3.2,20.1,0,29.7"/>
<path class="st0" d="M139,14c-6.1,0.4-12-1.7-17.6-4.1S110.5,4.5,104.6,3S92,1.5,87,4.9l16.4,8.2"/>
<path class="st4" d="M139,14c-6.1,0.4-12-1.7-17.6-4.1S110.5,4.5,104.6,3S92,1.5,87,4.9l16.4,8.2"/>
<path class="st4" d="M71,76c5.7,9.6,15.9,15.6,27,16"/>
<path class="st8" d="M107,91.5c0,2.5-2,4.5-4.5,4.5S98,94,98,91.5s2-4.5,4.5-4.5l0,0C105,87,107,89,107,91.5L107,91.5"/>
<path class="st4" d="M107,91.5c0,2.5-2,4.5-4.5,4.5S98,94,98,91.5s2-4.5,4.5-4.5l0,0C105,87,107,89,107,91.5L107,91.5z"/>
<path class="st4" d="M141.1,36c-0.4-5-3-9.6-7.1-12.6c4.5,0.7,9-1,12-4.4"/>
<path class="st4" d="M45,29c-1.7-3.3-3.3-6.7-5-10"/>
<path class="st4" d="M39,35.3l-6,0.4"/>
<path class="st8" d="M115,88c2.9,1.8,6.2,2.9,9.6,3l0.4-3H115z"/>
<path class="st4" d="M115,88c2.9,1.8,6.2,2.9,9.6,3l0.4-3H115z"/>
<path class="st0" d="M77,233c-3.9-0.1-7.1-3.3-7-7.2v-4.6c0-2.2,1-4.3,2.7-5.7c2.5-2,6.1-2,8.6,0l2.3,1.9c0.2,0.2,0.3,0.4,0.3,0.7
	v3.4c0,0.3-0.2,0.7-0.5,0.8c-0.1,0.1-0.3,0.1-0.4,0.1c-0.2,0-0.4-0.1-0.5-0.2l-4-3.1c-0.4-0.4-1-0.5-1.5-0.5c-0.6,0-1.1,0.2-1.5,0.5
	c-0.6,0.5-1,1.2-1,2v4.6c0,1.4,1.1,2.5,2.4,2.6c0,0,0,0,0.1,0h6.1c0.5,0,0.9,0.4,0.9,0.9v2.8c0,0.5-0.4,0.9-0.9,0.9L77,233z"/>
<path class="st8" d="M77,214c-1.8,0-3.5,0.6-4.9,1.6c-1.9,1.5-3.1,3.7-3.1,6.2v4.4c0.1,4.4,3.6,7.9,8,7.8h6.2c1,0,1.8-0.8,1.8-1.8
	v-2.7c0-1-0.8-1.8-1.8-1.8l0,0H77c-0.9,0-1.6-0.7-1.6-1.6l0,0v-4.4c0-0.5,0.2-0.9,0.6-1.2c0.6-0.5,1.4-0.5,2,0l4.1,3
	c0.3,0.2,0.7,0.4,1.1,0.4c0.3,0,0.6-0.1,0.8-0.2c0.6-0.3,1-0.9,1-1.6v-3.3c0-0.6-0.3-1.1-0.7-1.4l-2.4-1.8
	C80.5,214.6,78.8,214,77,214 M77,215.8c1.4,0,2.7,0.4,3.8,1.3l2.4,1.8v3.3l-4.1-3c-0.6-0.5-1.3-0.7-2.1-0.7c-0.8,0-1.5,0.2-2.1,0.7
	c-0.8,0.6-1.3,1.6-1.3,2.6v4.4c0,1.9,1.5,3.4,3.4,3.4l0,0h6.2v2.7H77c-3.4,0-6.1-2.6-6.2-6v-4.4c0-1.9,0.9-3.6,2.4-4.8
	C74.3,216.2,75.6,215.8,77,215.8"/>
<path class="st0" d="M124,215.7v15c0,4.3-1.7,8.5-4.8,11.5l-1.5,1.5c-0.4,0.4-0.6,0.9-0.6,1.4c0,1.1-0.9,1.9-1.9,1.9l0,0H91.8
	c-1.1,0-1.9-0.9-1.9-1.9l0,0c0-0.5-0.2-1-0.6-1.4l-1.5-1.5c-3.1-3.1-4.8-7.2-4.8-11.5v-15c0-1.5,1.2-2.7,2.7-2.7l0,0h35.5
	C122.8,213,124,214.2,124,215.7L124,215.7"/>
<path class="st4" d="M124,215.7v15c0,4.3-1.7,8.5-4.8,11.5l-1.5,1.5c-0.4,0.4-0.6,0.9-0.6,1.4c0,1.1-0.9,1.9-1.9,1.9l0,0H91.8
	c-1.1,0-1.9-0.9-1.9-1.9l0,0c0-0.5-0.2-1-0.6-1.4l-1.5-1.5c-3.1-3.1-4.8-7.2-4.8-11.5v-15c0-1.5,1.2-2.7,2.7-2.7l0,0h35.5
	C122.8,213,124,214.2,124,215.7L124,215.7z"/>
<path class="st0" d="M76,247h7c1.6,0,3.1,0.7,4,2s2.4,2,4,2h25.1c1.6,0,3.1-0.7,4-2s2.4-2,4-2H76"/>
<path class="st4" d="M76,247h7c1.6,0,3.1,0.7,4,2s2.4,2,4,2h25.1c1.6,0,3.1-0.7,4-2s2.4-2,4-2H76"/>
<line class="st4" x1="93" y1="242.5" x2="115" y2="242.5"/>
<g>
	<g>
		<path class="st11" d="M140.5,166c-0.4,1-0.9,2-1.3,3c0,0.1-0.2,0.3-0.2,0.7l-0.6,0.1c-1.6,0.2-3.3,0.5-4.9,0.7
			c-0.6-1.2-1.1-2.4-1.4-3.7c-0.4-1.2-1.9-3.5-3.2-3.7c0.1-0.1,0.2-0.2,0.3-0.2c0.8-0.5,0.9-0.5,1.5-1.3c0.1-0.1,0.2-0.2,0.3-0.4
			c0,0,0.1-0.1,0.1-0.1c0,0,0.1,0.2,0.3,0.5c0.2,0.2,0.3,0.5,0.6,0.7c0.1,0,0.1,0,0.1-0.1c0,0,0.2-0.1,0.2,0
			c-0.1,0.1-0.5,0.9-0.5,1.1c0,0.1,0.1,0.1,0.1,0.1c0,0,0.1,0.1,0.1,0.1c1.2,1.5,2.8,2.7,4.1,4c0.8,0.8,1.8,1.3,2.7,2.1
			c0.1-0.4,0.1-0.4,0.1-0.7c-0.7-0.9-1.6-1.7-2.4-2.4c-0.4-0.3-1.2-0.6-1.6-0.8c-0.2-0.1-0.3-0.2-0.5-0.4c0.1-0.1,0.1-0.1,0.1-0.1
			c0.4,0.3,0.9,0.5,1.2,0.7c0.3,0.2,0.7,0.7,0.9,0.5c-0.2-0.4-0.2-0.4-0.3-0.8c-0.1-0.3-0.3-0.7-0.3-1c0.3,0.4,0.6,0.8,0.9,1.2
			c0.2,0.2,0.3,0.4,0.5,0.6c0,0,0,0,0.1,0.1c0,0.2,0.7,1.1,0.9,1.3c0.2,0.4,0.3,0.6,0.4,1c0.1-0.5,0.2-0.9,0.3-1.4
			c0-0.2,0-0.4,0.1-0.6c0-0.2,0.1-0.4,0.1-0.5c0,0,0.1-0.1,0.1-0.3c0,0,0,0,0.1,0C139.9,165.4,139.7,165.3,140.5,166z"/>
		<path class="st12" d="M135.6,170.2c-0.7,0.1-1.4,0.2-2.1,0.3l0,0l0,0c-0.6-1.2-1.1-2.5-1.4-3.8c-0.4-1.3-2-3.5-3.1-3.7l0,0l0,0
			c0.1-0.1,0.2-0.1,0.2-0.2c0,0,0.1,0,0.1,0c0.1-0.1,0.3-0.2,0.4-0.3c0.5-0.3,0.6-0.4,1.2-1.1c0,0,0.1-0.1,0.1-0.1
			c0.1-0.1,0.1-0.2,0.2-0.3l0,0l0,0c0,0,0,0,0,0c0,0,0,0,0,0c0,0,0.1,0.1,0.1,0.2c0,0.1,0.1,0.2,0.2,0.3c0.2,0.3,0.4,0.5,0.6,0.6
			l0.1-0.1l0,0c0,0,0.1,0,0.1,0c0.1,0,0.1,0,0.1,0c0,0,0,0,0,0l0,0l0,0c-0.1,0.1-0.5,0.9-0.5,1.1c0,0.1,0.1,0.1,0.1,0.1
			c0,0,0.1,0.1,0.1,0.1c0.7,1,1.7,1.8,2.6,2.6c0.5,0.5,1,0.9,1.5,1.4c0.5,0.4,1,0.8,1.5,1.1c0.4,0.3,0.8,0.6,1.2,0.9
			c0.1-0.3,0.1-0.3,0.1-0.7c-0.7-0.9-1.5-1.6-2.4-2.4c-0.2-0.1-0.5-0.3-0.9-0.5c-0.3-0.1-0.5-0.3-0.7-0.4c-0.1-0.1-0.2-0.1-0.3-0.2
			c-0.1,0-0.1-0.1-0.2-0.1l0,0l0.1-0.2l0,0c0.2,0.2,0.5,0.3,0.7,0.5c0.2,0.1,0.3,0.2,0.5,0.3c0.1,0.1,0.2,0.1,0.3,0.2
			c0.2,0.2,0.5,0.4,0.6,0.3l-0.3-0.8c0-0.1-0.1-0.3-0.1-0.4c-0.1-0.2-0.1-0.4-0.2-0.6l0-0.1l0,0c0.2,0.2,0.3,0.4,0.5,0.6
			c0.1,0.2,0.3,0.4,0.4,0.6c0.1,0.1,0.1,0.1,0.1,0.2c0.1,0.1,0.2,0.3,0.3,0.4c0,0,0,0,0,0c0,0,0.1,0.1,0.1,0.1l0,0l0,0
			c0,0.1,0.3,0.5,0.6,0.8c0.1,0.2,0.3,0.4,0.3,0.5c0.2,0.3,0.3,0.6,0.4,1c0.1-0.4,0.2-0.8,0.3-1.3c0-0.1,0-0.2,0-0.3
			c0-0.1,0-0.2,0.1-0.4c0-0.1,0-0.2,0.1-0.3c0-0.1,0-0.1,0.1-0.2c0,0,0,0,0,0c0,0,0.1-0.1,0.1-0.2l0,0l0,0c0,0,0,0,0,0c0,0,0,0,0,0
			c0-0.1,0-0.1,0-0.1c0-0.1,0-0.2,0.1-0.2c0.1,0,0.2,0.1,0.5,0.3c0.1,0,0.1,0.1,0.2,0.2l0,0l0,0c-0.1,0.3-0.3,0.7-0.5,1
			c-0.3,0.6-0.6,1.3-0.8,2c0,0,0,0,0,0.1c-0.1,0.1-0.2,0.3-0.2,0.6l0,0l-0.6,0.1C137.4,169.9,136.5,170,135.6,170.2z M133.5,170.4
			c1.6-0.2,3.2-0.5,4.8-0.7l0.6-0.1c0-0.3,0.1-0.5,0.2-0.6c0,0,0,0,0,0c0.3-0.7,0.6-1.3,0.8-2c0.1-0.3,0.3-0.7,0.4-1
			c-0.1-0.1-0.1-0.1-0.2-0.2c-0.3-0.2-0.4-0.3-0.4-0.3c0,0,0,0.1-0.1,0.1c0,0,0,0.1,0,0.1c0,0,0,0,0,0c0,0,0,0,0,0
			c0,0.1-0.1,0.2-0.1,0.2c0,0,0,0,0,0c0,0.1,0,0.2-0.1,0.2c0,0.1-0.1,0.2-0.1,0.3c0,0.1,0,0.2-0.1,0.3c0,0.1,0,0.2,0,0.3
			c-0.1,0.5-0.2,1-0.3,1.4l0,0.1l0-0.1c-0.1-0.4-0.2-0.7-0.4-1c-0.1-0.1-0.2-0.3-0.3-0.5c-0.2-0.3-0.5-0.7-0.6-0.8
			c-0.1,0-0.1-0.1-0.1-0.1c-0.1-0.1-0.2-0.3-0.3-0.4c0-0.1-0.1-0.1-0.1-0.2c-0.1-0.2-0.3-0.4-0.4-0.6c-0.1-0.2-0.3-0.4-0.4-0.6
			c0,0.2,0.1,0.3,0.1,0.5c0.1,0.1,0.1,0.3,0.1,0.4l0.3,0.8l0,0c-0.2,0.2-0.4-0.1-0.7-0.3c-0.1-0.1-0.2-0.2-0.3-0.2
			c-0.1-0.1-0.3-0.2-0.5-0.3c-0.2-0.1-0.5-0.3-0.7-0.4l-0.1,0.1c0.1,0,0.1,0.1,0.2,0.1c0.1,0.1,0.2,0.2,0.3,0.2
			c0.2,0.1,0.4,0.2,0.7,0.4c0.3,0.2,0.6,0.3,0.9,0.5c1,0.9,1.7,1.6,2.4,2.4l0,0l0,0c-0.1,0.4-0.1,0.4-0.1,0.7l0,0l0,0
			c-0.4-0.3-0.8-0.6-1.2-0.9c-0.5-0.3-1-0.7-1.5-1.1c-0.5-0.5-1-1-1.5-1.4c-0.9-0.8-1.8-1.6-2.6-2.6c0,0-0.1-0.1-0.1-0.1
			c0,0-0.1-0.1-0.1-0.2c-0.1-0.2,0.3-0.9,0.4-1.1c0,0-0.1,0-0.1,0c-0.1,0-0.1,0-0.1,0l-0.1,0.1l0,0c-0.2-0.1-0.4-0.3-0.6-0.7
			c-0.1-0.1-0.1-0.2-0.2-0.3c0-0.1-0.1-0.2-0.1-0.2c0,0,0,0,0,0c0,0,0,0-0.1,0c-0.1,0.1-0.1,0.2-0.2,0.2c0,0-0.1,0.1-0.1,0.1
			c-0.5,0.6-0.7,0.7-1.2,1.1c-0.1,0.1-0.2,0.2-0.4,0.3c0,0,0,0-0.1,0c-0.1,0-0.1,0.1-0.2,0.1c1.3,0.3,2.7,2.6,3.1,3.7
			C132.4,168,132.9,169.2,133.5,170.4z M131.2,161.1L131.2,161.1L131.2,161.1z"/>
	</g>
	<g>
		<path class="st13" d="M143.6,169c-0.3,0-0.6,0.1-1,0.1c0.1-1.5,0.1-3,0.1-4.5c0-0.7-0.2-1.9-0.4-2.6c0.1,0.1,0.3,0.7,0.4,0.8
			C143.5,164.5,143.7,167.1,143.6,169z"/>
		<path class="st12" d="M143.4,169c-0.1,0-0.2,0-0.3,0c-0.2,0-0.3,0-0.5,0.1c0,0,0,0,0,0c0,0,0,0,0,0c0,0,0,0,0,0
			c0.1-1.4,0.1-2.9,0.1-4.5c0-0.5-0.2-1.4-0.3-2c0-0.2-0.1-0.4-0.1-0.6c0,0,0,0,0,0c0,0,0,0,0,0c0,0,0.1,0.1,0.1,0.2
			c0.1,0.2,0.2,0.5,0.3,0.6c0.9,1.9,0.9,4.9,0.9,6.1c0,0,0,0,0,0C143.6,169,143.5,169,143.4,169z M143.6,169L143.6,169L143.6,169z
			 M142.9,169.1c0.1,0,0.2,0,0.3,0c0.2,0,0.3,0,0.5-0.1c0-1.2,0-4.2-0.9-6.1c0-0.1-0.2-0.3-0.3-0.6c0,0,0-0.1-0.1-0.1
			c0,0.1,0,0.3,0.1,0.5c0.1,0.7,0.2,1.5,0.3,2c0.1,1.5,0.1,3-0.1,4.4C142.8,169.1,142.8,169.1,142.9,169.1z"/>
	</g>
	<g>
		<path class="st13" d="M131.1,167.5c0,0.9,0.2,2.3,0.4,3.2c-0.2,0-0.5,0.1-0.7,0.1c-0.1,0-0.2,0-0.3,0c-0.7-1.7-1.3-3.4-1.5-5.3
			c-0.1-0.6-0.1-1.8,0-2.3c0.7,0.3,1.1,0.8,1.6,1.4c0.2,0.2,0.7,0.9,0.7,1.2C131.1,166.4,131.1,167,131.1,167.5z"/>
		<path class="st12" d="M130.9,170.9c-0.1,0-0.1,0-0.2,0c-0.1,0-0.1,0-0.2,0c-0.1,0-0.1,0-0.2,0c0,0,0,0,0,0
			c-0.8-1.9-1.4-3.7-1.5-5.3c-0.1-0.6-0.1-1.7,0-2.3c0,0,0,0,0,0s0,0,0,0c0.7,0.3,1.2,0.9,1.6,1.4c0.1,0.1,0.7,0.9,0.7,1.2
			c0,0,0,0,0,0c0,0.1,0,0.2,0,0.3c0,0.4-0.1,0.9,0,1.3c0,1,0.2,2.3,0.4,3.2c0,0,0,0,0,0c0,0,0,0,0,0l0,0c-0.1,0-0.3,0-0.4,0.1
			C131,170.9,130.9,170.9,130.9,170.9z M130.6,170.9C130.7,170.9,130.7,170.9,130.6,170.9c0.2,0,0.3,0,0.4-0.1c0.1,0,0.2,0,0.4-0.1
			c-0.2-0.9-0.4-2.3-0.4-3.2l0,0c0-0.4,0-0.9,0-1.3c0-0.1,0-0.2,0-0.3c0-0.3-0.6-1.1-0.7-1.2c-0.4-0.5-0.9-1.1-1.6-1.4
			c-0.1,0.6,0,1.8,0,2.3c0.2,1.6,0.7,3.3,1.5,5.3C130.4,170.9,130.5,170.9,130.6,170.9C130.6,170.9,130.6,170.9,130.6,170.9z"/>
	</g>
	<g>
		<path class="st14" d="M133.5,170.5c-0.7,0.1-1.4,0.2-2,0.3c-0.2-0.9-0.4-2.3-0.4-3.2c0-0.5,0-1.1,0.1-1.6c0-0.3-0.5-1-0.7-1.2
			c-0.5-0.6-0.9-1.1-1.6-1.4c0-0.1,0-0.2,0.1-0.3c1.2,0.3,2.7,2.5,3.2,3.7C132.4,168,132.9,169.3,133.5,170.5z"/>
		<path class="st12" d="M132,170.7c-0.2,0-0.3,0-0.5,0.1c0,0,0,0,0,0c-0.2-0.9-0.4-2.3-0.4-3.3c0-0.4,0-0.9,0-1.3c0-0.1,0-0.2,0-0.3
			c0-0.3-0.6-1.1-0.7-1.2c-0.4-0.5-0.9-1.1-1.6-1.4c0,0,0,0,0,0c0,0,0,0,0-0.1c0-0.1,0-0.2,0.1-0.3c0,0,0,0,0,0
			c1.3,0.3,2.8,2.6,3.2,3.7c0.3,1.3,0.8,2.5,1.4,3.7c0,0,0,0,0,0c0,0,0,0,0,0c0,0,0,0,0,0c-0.3,0-0.6,0.1-1,0.1
			C132.3,170.7,132.2,170.7,132,170.7z M131.5,170.7c0.4-0.1,0.7-0.1,1.1-0.2c0.3,0,0.6-0.1,0.9-0.1c-0.6-1.2-1.1-2.5-1.4-3.7
			c-0.4-1.3-2-3.4-3.1-3.7c-0.1,0.1-0.1,0.2-0.1,0.2c0,0,0,0,0,0.1c0.7,0.3,1.2,0.9,1.6,1.4c0.1,0.1,0.7,0.9,0.7,1.2c0,0,0,0,0,0
			c0,0.1,0,0.2,0,0.3c0,0.4-0.1,0.9,0,1.3C131.1,168.5,131.3,169.8,131.5,170.7z"/>
	</g>
	<g>
		<path class="st15" d="M131.8,159.4C131.8,159.4,131.7,159.4,131.8,159.4C131.7,159.4,131.7,159.4,131.8,159.4
			C131.7,159.4,131.8,159.4,131.8,159.4z"/>
	</g>
	<g>
		<path class="st16" d="M132.2,162.9L132.2,162.9l-0.1,0.1c0,0,0,0,0,0C132.1,162.9,132.1,162.9,132.2,162.9
			C132.2,162.9,132.2,162.9,132.2,162.9C132.2,162.9,132.2,162.9,132.2,162.9z"/>
	</g>
	<g>
		<path class="st17" d="M140.6,161.9c-0.4-0.2-0.5-0.2-0.4,0.1c0,0.1,1.1,0.6,1.3,1c-0.2,1.3-0.5,1.9-1,3.1
			c-0.7-0.6-0.6-0.6-0.8-0.2c0,0,0,0-0.1,0c0.1-0.7,0.2-1.6,0.2-2.3c0-0.6-0.4-2.2-0.5-2.8C139.7,161.2,140.2,161.4,140.6,161.9z"/>
	</g>
	<g>
		<path class="st15" d="M132.1,163C132.1,163,132.1,163,132.1,163L132.1,163C132.1,163,132.1,163,132.1,163
			C132.1,162.9,132.1,162.9,132.1,163C132.2,162.9,132.2,162.9,132.1,163C132.2,162.9,132.2,162.9,132.1,163
			c0.1-0.1,0.1-0.1,0.1-0.1C132.2,162.9,132.2,162.9,132.1,163z"/>
	</g>
	<g>
		<g>
			<path class="st18" d="M137.7,166.3c-0.1-0.1-0.1-0.1-0.1-0.1c-0.2-0.2-0.3-0.4-0.5-0.6c-0.3-0.4-0.6-0.8-0.9-1.2
				c-0.4-0.6-0.9-1.2-1.3-1.7c-0.6-0.7-1.2-1.4-1.9-2.1c-0.4-0.4-0.8-0.8-1.3-1.2c0-0.1,0-0.3,0-0.4c0,0,0-0.1,0-0.1c0,0,0,0,0,0
				c0,0,0.5-0.7,0.6-0.7c0,0,0,0,0.1,0c0,0.4-0.1,0.9-0.1,1.3c0,0.1,0.1-0.3,0.2-0.6c0.1,0,0.2,0,0.3-0.1c0,0.1,0,0.4,0.1,0.4
				c0,0.1-0.2,0.8-0.1,0.9c0.9,0.8,1.9,1.4,2.8,2.2c0.1-0.2,0.1-0.4,0.1-0.6c0-0.2,0-0.4,0-0.6c0.3,0.3,0.8,0.5,1,0.9
				c0.1,0.2,0.2,1.2,0.3,1.5C137.4,164.6,137.7,165.4,137.7,166.3z"/>
			<path class="st12" d="M137.8,166.3L137.8,166.3c-0.1-0.1-0.1-0.1-0.1-0.1c-0.1-0.1-0.2-0.3-0.3-0.4c0-0.1-0.1-0.1-0.1-0.2
				c-0.1-0.2-0.3-0.4-0.4-0.6c-0.2-0.2-0.3-0.4-0.5-0.6c-0.1-0.2-0.3-0.4-0.4-0.5c-0.3-0.4-0.6-0.8-0.9-1.2
				c-0.6-0.7-1.2-1.4-1.9-2.1l-0.1-0.1c-0.4-0.4-0.8-0.8-1.2-1.1l0,0l0,0c0,0,0-0.1,0-0.2c0-0.1,0-0.2,0-0.2c0,0,0-0.1,0-0.1
				c0,0,0,0,0,0c0,0,0.5-0.7,0.6-0.7c0,0,0.1,0,0.1,0l0,0l0,0c0,0.1,0,0.3,0,0.4c0,0.3-0.1,0.6,0,0.9c0-0.1,0.1-0.2,0.1-0.4
				c0-0.1,0-0.1,0-0.2l0,0l0,0c0.1,0,0.1,0,0.2,0c0.1,0,0.1,0,0.2,0l0,0l0,0c0,0.1,0,0.4,0.1,0.4l0,0l0,0c0,0.2-0.2,0.8-0.1,0.9
				c0.4,0.4,0.9,0.7,1.3,1c0.5,0.4,1,0.7,1.5,1.2c0.1-0.2,0.1-0.3,0.1-0.5c0,0,0-0.1,0-0.1c0-0.1,0-0.2,0-0.3c0-0.1,0-0.2,0-0.3l0,0
				l0,0c0.1,0.1,0.3,0.2,0.4,0.3c0.2,0.2,0.5,0.3,0.6,0.6c0.1,0.1,0.1,0.6,0.2,1c0,0.2,0.1,0.4,0.1,0.5c0.1,0.2,0.1,0.4,0.2,0.6
				C137.5,165,137.7,165.6,137.8,166.3L137.8,166.3z M131.8,159.5c0.4,0.3,0.8,0.7,1.2,1.1l0.1,0.1c0.7,0.6,1.3,1.3,1.9,2.1
				c0.3,0.4,0.6,0.8,0.9,1.2c0.1,0.2,0.3,0.4,0.4,0.5c0.2,0.2,0.3,0.4,0.5,0.6c0.1,0.2,0.3,0.4,0.4,0.6c0.1,0.1,0.1,0.1,0.1,0.2
				c0.1,0.1,0.2,0.3,0.3,0.4c0,0,0,0,0,0c0,0,0,0,0.1,0.1c-0.1-0.6-0.2-1.3-0.4-1.9c-0.1-0.2-0.1-0.4-0.2-0.6c0-0.1-0.1-0.3-0.1-0.5
				c-0.1-0.4-0.2-0.8-0.2-1c-0.1-0.3-0.4-0.4-0.6-0.6c-0.1-0.1-0.3-0.2-0.4-0.3c0,0.1,0,0.1,0,0.2c0,0.1,0,0.2,0,0.3
				c0,0,0,0.1,0,0.1c0,0.2,0,0.4-0.1,0.5l0,0l0,0c-0.5-0.5-1-0.8-1.5-1.2c-0.4-0.3-0.9-0.6-1.3-1l0,0l0,0c0-0.1,0.1-0.8,0.1-0.9
				c-0.1,0-0.1-0.3-0.1-0.4c-0.1,0-0.1,0-0.2,0c-0.1,0-0.1,0-0.2,0c0,0,0,0.1,0,0.2c-0.1,0.3-0.1,0.4-0.1,0.4c0,0,0,0,0,0l0,0l0,0
				c0-0.3,0-0.6,0-0.9c0-0.1,0-0.3,0-0.4c0,0,0,0,0,0c0,0-0.5,0.7-0.6,0.7c0,0,0,0,0,0c0,0,0,0.1,0,0.1c0,0,0,0.1,0,0.2
				C131.8,159.4,131.8,159.4,131.8,159.5z M131.9,159C131.9,159,131.9,159,131.9,159C131.9,159,131.9,159,131.9,159z"/>
		</g>
	</g>
	<g>
		<path class="st16" d="M139.3,160c0.2,0.2,1.6,1.3,1.8,1.4c-0.1,0,0.1,0.2,0.1,0.3c0.1,0.3,0.1,0.8,0,0.5c-0.1,0.1-0.4-0.3-0.6-0.4
			c-0.4-0.5-0.9-0.7-1.3-1.2c0-0.1-0.2-0.5-0.2-0.6c0-0.1,0-0.2,0.1-0.2C139.3,160,139.3,160,139.3,160z"/>
	</g>
	<g>
		<path class="st16" d="M131.9,159C131.9,159,131.9,159,131.9,159c-0.1,0-0.2,0.2,0,0.1c0,0.1,0,0.3,0,0.4c-0.1,0-0.1,0-0.1-0.1
			c0-0.1,0-0.3,0.1-0.5C131.8,158.9,131.8,158.9,131.9,159z"/>
	</g>
	<g>
		<path class="st19" d="M132.2,162.9c0,0-0.1,0-0.1,0.1c0,0,0,0,0,0c0,0,0,0,0,0C132.2,162.9,132.2,162.9,132.2,162.9
			C132.2,162.9,132.2,162.9,132.2,162.9C132.2,162.9,132.2,162.9,132.2,162.9z"/>
	</g>
	<g>
		<path class="st11" d="M136.6,160.3c0.1,0,0.1,0,0.2,0c0.1,0,0,0.1,0.1,0.1c0.2,0.8,0.2,0.8,0.4,1.7c0.1,0.1,0.3-0.1,0.5,0
			c-0.2,0.1-0.2,0.1-0.4,0.2c0.3,1.2,0.3,1.1,1.1,1.2c0,0,0,0,0,0c-0.1,0-0.2,0.3-0.2,0.4c0,0.1,0.3,1.9,0.4,2.6
			c0,0.6-0.1,0.6-0.1,1.1c-0.2-0.3-0.8-1.1-0.9-1.3c-0.1-0.9-0.3-1.7-0.5-2.6c-0.1-0.4-0.2-1.3-0.3-1.5c-0.2-0.4-0.7-0.6-1-0.9
			c0-0.1,0-0.3,0-0.4c0.1,0.1,0.3-0.5,0.4-0.7C136.4,160.3,136.5,160.3,136.6,160.3z"/>
		<path class="st12" d="M138.7,167.7L138.7,167.7c-0.1-0.2-0.2-0.4-0.4-0.5c-0.2-0.3-0.5-0.7-0.6-0.8l0,0l0,0c0-0.7-0.2-1.3-0.4-1.9
			c-0.1-0.2-0.1-0.4-0.2-0.6c0-0.1-0.1-0.3-0.1-0.5c-0.1-0.4-0.2-0.8-0.2-1c-0.1-0.3-0.4-0.4-0.6-0.6c-0.2-0.1-0.3-0.2-0.4-0.3l0,0
			l0,0c0-0.1,0-0.2,0-0.2c0,0,0-0.1,0-0.1l0,0l0,0c0.1,0,0.3-0.5,0.4-0.7l0,0l0,0c0,0,0.1,0,0.1,0c0.1,0,0.2,0,0.2,0l0,0
			c0,0,0.1,0,0.1,0c0,0,0.1,0,0.1,0l0,0c0.1,0,0,0.1,0,0.1c0,0,0,0,0,0c0,0,0,0,0,0l0,0l0.4,1.7c0,0,0.1,0,0.1,0
			c0.1,0,0.2-0.1,0.3,0l0,0l-0.5,0.2c0.2,1.1,0.3,1.1,0.9,1.2c0.1,0,0.2,0,0.3,0l0,0l0,0c0,0,0,0,0,0l0,0l0,0c0,0-0.1,0.3-0.1,0.4
			c0,0,0.1,0.4,0.1,0.7c0.1,0.6,0.2,1.5,0.3,1.9c0,0.3,0,0.4,0,0.6C138.6,167.2,138.6,167.4,138.7,167.7L138.7,167.7z M137.8,166.3
			c0,0.1,0.3,0.5,0.6,0.8c0.1,0.2,0.2,0.3,0.3,0.4c0-0.2,0-0.3,0-0.5c0-0.2,0.1-0.3,0-0.6c0-0.4-0.2-1.2-0.3-1.9
			c-0.1-0.4-0.1-0.7-0.1-0.7c0,0,0.1-0.3,0.1-0.4c-0.1,0-0.2,0-0.2,0c-0.6-0.1-0.7-0.1-0.9-1.2l0,0l0.4-0.2c-0.1,0-0.2,0-0.2,0
			c-0.1,0-0.2,0.1-0.2,0l0,0l-0.4-1.6c0,0,0,0,0,0c0,0,0,0,0,0c0,0,0,0,0-0.1c0,0-0.1,0-0.1,0c0,0,0,0-0.1,0h0c-0.1,0-0.2,0-0.2,0
			c0,0-0.1,0-0.1,0c0,0.2-0.3,0.6-0.4,0.7c0,0,0,0,0,0c0,0,0,0.1,0,0.1c0,0.1,0,0.2,0,0.2c0.1,0.1,0.3,0.2,0.4,0.3
			c0.2,0.2,0.5,0.3,0.6,0.6c0.1,0.1,0.1,0.6,0.2,1c0,0.2,0.1,0.4,0.1,0.5c0.1,0.2,0.1,0.4,0.2,0.6
			C137.5,165,137.7,165.6,137.8,166.3z"/>
	</g>
	<g>
		<g>
			<path class="st13" d="M138.5,163.5c0.3,0.7,0.5,1.4,0.6,2.1c0,0.1,0.3,1.3,0.3,1.6c-0.1,0.5-0.2,0.9-0.3,1.4
				c-0.1-0.4-0.2-0.7-0.4-1c-0.1-0.5,0.1-0.6,0.1-1.1c0-0.6-0.4-2.4-0.4-2.6C138.3,163.9,138.4,163.5,138.5,163.5z"/>
			<path class="st12" d="M139.1,168.7C139.1,168.7,139.1,168.7,139.1,168.7C139.1,168.7,139.1,168.6,139.1,168.7
				c-0.1-0.4-0.3-0.7-0.5-1c0,0,0,0,0,0c0-0.3,0-0.4,0-0.6c0-0.2,0.1-0.3,0-0.6c0-0.4-0.2-1.2-0.3-1.9c-0.1-0.4-0.1-0.7-0.1-0.7
				c0,0,0.1-0.4,0.2-0.4c0,0,0,0,0,0c0,0,0,0,0,0c0.3,0.7,0.5,1.4,0.6,2.1c0,0,0,0,0,0c0,0,0,0.2,0.1,0.4c0.1,0.4,0.2,1,0.2,1.2
				c0,0,0,0,0,0C139.3,167.8,139.2,168.2,139.1,168.7C139.1,168.6,139.1,168.7,139.1,168.7z M138.7,167.6c0.2,0.3,0.3,0.6,0.4,1
				c0.1-0.4,0.2-0.8,0.3-1.3c0-0.2-0.1-0.8-0.2-1.2c0-0.2-0.1-0.4-0.1-0.4c-0.2-0.7-0.4-1.4-0.6-2.1c-0.1,0-0.1,0.3-0.1,0.4
				c0,0,0.1,0.4,0.1,0.7c0.1,0.6,0.2,1.5,0.3,1.9c0,0.3,0,0.4,0,0.6C138.6,167.2,138.6,167.4,138.7,167.6z"/>
		</g>
		<g>
			<path class="st13" d="M137.9,160.4C137.9,160.4,137.9,160.5,137.9,160.4c0,0.6-0.1,0.9-0.1,1.1c0,0.2,0,0.4,0,0.5
				c0.2,0.5,0.5,1,0.7,1.5c-0.9-0.2-0.9,0-1.1-1.2c0.2-0.1,0.2-0.1,0.4-0.2c-0.2-0.1-0.4,0.2-0.5,0c-0.2-0.8-0.2-0.8-0.4-1.7
				c0-0.2,0.2-0.1,0.3-0.2c0,0,0.2,0,0.2-0.1c0.1,0,0.2-0.1,0.2-0.1C137.8,160.3,137.8,160.3,137.9,160.4z"/>
			<path class="st12" d="M138.5,163.5C138.5,163.5,138.5,163.5,138.5,163.5c-0.1,0-0.2,0-0.3,0c-0.6-0.1-0.7-0.1-0.9-1.2
				c0,0,0,0,0,0l0.4-0.2c-0.1,0-0.2,0-0.2,0c-0.1,0-0.2,0.1-0.2,0c0,0,0,0,0,0l-0.4-1.7c0,0,0-0.1,0-0.1c0,0,0.1-0.1,0.1-0.1
				c0,0,0.1,0,0.1-0.1c0,0,0,0,0,0c0,0,0.1,0,0.1,0c0,0,0,0,0.1,0c0,0,0,0,0.1,0c0.1,0,0.1,0,0.1,0c0,0,0,0,0,0l0.3,0.4c0,0,0,0,0,0
				c0,0,0,0,0,0c0,0,0,0,0,0c0,0.4-0.1,0.7-0.1,0.9c0,0.1,0,0.1,0,0.2c0,0.1,0,0.1,0,0.2c0,0.1,0,0.2,0,0.3c0.1,0.1,0.1,0.3,0.2,0.4
				C138.2,162.8,138.3,163.1,138.5,163.5C138.5,163.5,138.5,163.5,138.5,163.5C138.5,163.5,138.5,163.5,138.5,163.5z M137.3,162.3
				c0.2,1.1,0.3,1.1,0.9,1.2c0.1,0,0.1,0,0.2,0c-0.1-0.3-0.3-0.7-0.5-1c-0.1-0.1-0.1-0.3-0.2-0.4c0,0,0,0,0,0L137.3,162.3z
				 M137.3,162.1c0,0,0.1,0,0.1,0c0.1,0,0.2-0.1,0.3,0c0,0,0,0,0,0c0-0.1,0-0.2,0-0.3c0-0.1,0-0.1,0-0.2c0-0.1,0-0.1,0-0.2
				c0.1-0.2,0.1-0.5,0.1-0.9c0,0,0,0,0,0c0,0,0,0,0,0l-0.3-0.3c0,0-0.1,0-0.1,0c0,0,0,0-0.1,0c0,0,0,0-0.1,0c-0.1,0-0.1,0.1-0.2,0
				c0,0-0.1,0-0.1,0.1c-0.1,0-0.1,0-0.1,0.1c0,0,0,0,0,0.1L137.3,162.1z"/>
		</g>
	</g>
	<g>
		<path class="st11" d="M136.3,160.3c0,0.2-0.3,0.7-0.4,0.7c0-0.2,0-0.3,0-0.5c0-0.1,0.1-0.1,0.2-0.2
			C136.1,160.3,136.2,160.3,136.3,160.3z"/>
	</g>
	<g>
		<path class="st18" d="M136.6,160.3c-0.1,0-0.3,0-0.4,0c-0.1,0-0.1,0-0.2,0c0.1-0.1,0.1-0.3,0.2-0.4
			C136.4,160.1,136.4,160.1,136.6,160.3z"/>
		<path class="st12" d="M136.7,160.3L136.7,160.3c-0.1,0-0.2,0-0.3,0c0,0-0.1,0-0.1,0c-0.1,0-0.1,0-0.2,0l0,0l0,0c0,0,0-0.1,0.1-0.2
			c0.1-0.1,0.1-0.2,0.1-0.2c0,0,0,0,0,0l0,0L136.7,160.3z M136.1,160.2c0.1,0,0.1,0,0.2,0c0,0,0.1,0,0.1,0c0.1,0,0.1,0,0.2,0
			l-0.4-0.3c0,0-0.1,0.1-0.1,0.2C136.1,160.2,136.1,160.2,136.1,160.2z"/>
	</g>
	<g>
		<path class="st18" d="M136.8,160.3c-0.1,0-0.1,0-0.2,0c-0.2-0.2-0.2-0.2-0.4-0.4c-0.1,0-0.1,0.2-0.2,0.4c0,0.1-0.1,0.1-0.2,0.2
			c0,0.2,0,0.3,0,0.5c0,0.1,0,0.3,0,0.4c0,0.1,0,0.2,0,0.3c0,0,0,0.1,0,0.1c0,0,0,0.1,0,0.1c0,0,0,0,0,0c0,0.1,0,0.2,0,0.3
			c0,0.1,0,0.2-0.1,0.3c-0.8-0.8-1.9-1.3-2.8-2c0,0-0.1-0.1-0.1-0.1c-0.3-0.3-0.7-0.7-1-0.9c0-0.1,0-0.3,0-0.4c0,0,0-0.1,0-0.1
			c0,0,0,0,0,0c0,0,0.5-0.7,0.6-0.7c0,0,0,0,0.1,0c0,0.4-0.1,0.9-0.1,1.3c0,0.1,0.1-0.3,0.2-0.6c0.1,0,0.2,0,0.3-0.1l0,0
			c0,0,0.1,0,0.1,0c0,0,0,0,0.1,0c0,0,0,0,0,0l0,0c0,0,0,0,0,0c0.1,0,0.2,0,0.2,0c0.1,0.1,0.1,0.1,0.1,0.2c0.1,0.1,0.1,0.3,0.2,0.4
			c0.1-0.2,0.1-0.3,0.2-0.5c0-0.1,0.4,0,0.6,0.1c0.1,0.2,0.1,0.2,0.2,0.4c0.1-0.1,0.1-0.1,0.1-0.3c0.2,0,0.3,0.1,0.5,0.1
			c0.1,0,0.4,0.1,0.5,0.2c0.2,0.1,0.5,0.2,0.7,0.4C136.6,160,136.9,160.3,136.8,160.3z"/>
		<path class="st12" d="M135.7,162.6L135.7,162.6c-0.5-0.5-1-0.8-1.5-1.1c-0.4-0.3-0.9-0.5-1.3-0.9l-0.1-0.1c-0.3-0.3-0.7-0.6-1-0.9
			l0,0l0,0c0,0,0-0.1,0-0.2c0-0.1,0-0.2,0-0.2c0,0,0-0.1,0-0.1c0,0,0,0,0,0c0,0,0.5-0.7,0.6-0.7c0,0,0.1,0,0.1,0l0,0l0,0
			c0,0.1,0,0.3,0,0.4c0,0.3-0.1,0.6,0,0.9c0-0.1,0.1-0.2,0.1-0.4c0-0.1,0-0.1,0-0.2l0,0l0,0c0.1,0,0.1,0,0.2,0c0.1,0,0.1,0,0.2,0
			c0,0,0,0,0.1,0c0,0,0,0,0.1,0c0,0,0,0,0,0c0,0,0,0,0,0l0,0c0,0,0,0,0,0l0,0l0,0c0,0,0,0,0.1,0c0.1,0,0.1,0,0.2,0l0,0l0,0
			c0.1,0,0.1,0.1,0.1,0.2c0,0,0,0,0,0.1c0,0,0,0.1,0.1,0.1c0,0.1,0.1,0.2,0.1,0.2c0.1-0.2,0.1-0.3,0.2-0.5c0-0.1,0.3,0,0.5,0
			c0,0,0.1,0,0.1,0l0,0l0,0c0.1,0.2,0.1,0.2,0.1,0.3l0.1-0.3l0,0c0.2,0,0.3,0.1,0.5,0.1c0.1,0,0.4,0.1,0.5,0.2
			c0.3,0.1,0.5,0.3,0.7,0.4c0.2,0.1,0.4,0.3,0.4,0.4c0,0,0,0,0,0l0,0l0,0c0,0-0.1,0-0.1,0c0,0,0,0-0.1,0l0,0l0,0
			c-0.2-0.2-0.2-0.2-0.4-0.4c0,0-0.1,0.1-0.1,0.2c0,0.1,0,0.1-0.1,0.2c0,0,0,0-0.1,0.1c0,0-0.1,0.1-0.1,0.1c0,0.2,0,0.3,0,0.5
			c0,0,0,0.1,0,0.1c0,0.1,0,0.2,0,0.2c0,0.1,0,0.2,0,0.3l0,0.1c0,0,0,0.1,0,0.1c0,0,0,0.1,0,0.1l0,0c0,0,0,0.1,0,0.1
			c0,0.1,0,0.1,0,0.2C135.8,162.3,135.8,162.4,135.7,162.6L135.7,162.6z M131.8,159.5c0.4,0.3,0.7,0.6,1,0.9l0.1,0.1
			c0.4,0.3,0.8,0.6,1.3,0.9c0.5,0.3,1,0.7,1.5,1.1c0-0.1,0.1-0.2,0.1-0.3c0-0.1,0-0.1,0-0.2c0,0,0-0.1,0-0.1l0,0c0,0,0-0.1,0-0.1
			c0,0,0-0.1,0-0.1l0-0.1c0-0.1,0-0.2,0-0.3c0-0.1,0-0.2,0-0.2c0,0,0-0.1,0-0.1c0-0.2,0-0.3,0-0.5l0,0c0-0.1,0.1-0.1,0.1-0.1
			c0,0,0,0,0.1-0.1c0,0,0-0.1,0.1-0.2c0.1-0.1,0.1-0.2,0.1-0.2c0,0,0,0,0,0l0,0l0,0c0.2,0.2,0.2,0.2,0.4,0.4c0,0,0,0,0.1,0
			c0,0,0.1,0,0.1,0c0,0-0.1-0.2-0.4-0.3c-0.2-0.1-0.4-0.3-0.7-0.4c-0.1-0.1-0.4-0.2-0.5-0.2c-0.2-0.1-0.3-0.1-0.5-0.1l-0.1,0.3l0,0
			c-0.1-0.2-0.1-0.2-0.1-0.4c0,0-0.1,0-0.1,0c-0.2,0-0.4-0.1-0.4,0c-0.1,0.2-0.1,0.3-0.2,0.5l0,0l0,0c-0.1-0.1-0.1-0.2-0.1-0.3
			c0,0,0-0.1-0.1-0.1c0,0,0,0,0-0.1c0-0.1,0-0.1-0.1-0.1c-0.1,0-0.1,0-0.2,0c0,0,0,0-0.1,0c0,0,0,0,0,0l0,0l0,0l0,0c0,0,0,0,0,0
			c0,0,0,0,0,0c0,0,0,0-0.1,0c0,0,0,0-0.1,0c-0.1,0-0.1,0-0.2,0c-0.1,0-0.1,0-0.2,0c0,0,0,0.1,0,0.1c-0.1,0.3-0.1,0.4-0.1,0.4
			c0,0,0,0,0,0c0,0,0,0,0,0l0,0l0,0c0-0.3,0-0.6,0-0.9c0-0.1,0-0.3,0-0.4c0,0,0,0,0,0c0,0-0.5,0.7-0.6,0.7c0,0,0,0,0,0
			c0,0,0,0.1,0,0.1c0,0,0,0.1,0,0.2C131.8,159.4,131.8,159.4,131.8,159.5z M131.9,159C131.9,159,131.9,159,131.9,159
			C131.9,159,131.9,159,131.9,159z"/>
	</g>
	<g>
		<g>
			<path class="st20" d="M138.3,152.4c0.1,0,0.1,0,0.2,0.1c-0.1,0-0.2,0.1-0.3,0.1c0,0.1,0,0.1,0,0.1c-0.1,0.1-0.1,0.2-0.2,0.3
				c-0.1,0.1-0.9,0.8-1,0.9c0,0-0.2,0.1-0.2,0.1c0.5,0.5,0.9,0.6,1.5,0.6c0.2,0,0.8,0,0.7-0.1c0.1,0,0.1,0,0.1,0.1
				c0.3,0,0.7-0.1,1.1,0c0,0,0,0,0,0c-0.3,0-0.7,0-1,0.1c-0.2,0-0.4,0.1-0.6,0.2c-0.4,0.3-0.8,0.9-0.8,1.5c0,1.2,0.9,1.7,1.3,2.4
				c0.1,0.2,0.4,0.9,0.3,0.9c-0.1-0.2-0.2-0.4-0.3-0.5c0.1,0.3,0.1,0.3,0.2,0.5c-0.1,0-0.1,0.1-0.1,0.2c0-0.1-0.1-0.2-0.1-0.2
				c-0.2-0.3,0.1,0.2,0,0.6c-0.1-0.2-0.1-0.2-0.2-0.5c0.3-0.5-0.8-1.5-1.1-2c-0.1-0.3-0.3-0.5-0.4-0.8c0,0-0.1-0.2-0.1-0.2
				c-0.1-0.4,0.1-1-0.3-0.7c-0.1,0,0-0.2,0-0.3c-0.1-0.2-0.4,0.1-0.4,0.2c-0.1,0,0-0.1-0.1,0c0-0.1,0.1-0.1,0.1-0.2
				c0-0.2-0.5,0.3-0.2-0.1c0-0.1-0.1-0.1,0-0.1c-0.1,0-0.1,0-0.2,0c0.1-0.2,0-0.1-0.2-0.1c-0.1,0-0.1,0-0.2,0c-0.2,0-0.4,0-0.6,0
				c0,0,0,0,0,0c0.5-0.3,1.1-0.6,1.6-0.9c0.2-0.1,0.5-0.2-0.1-0.4c0,0-0.3-0.1-0.4-0.2c0,0-0.1,0-0.1,0c-0.1,0-0.1-0.1-0.2-0.1
				c-0.3-0.3-1-0.4-1.4-0.6c0.3,0,1.4,0.5,1.5,0.5c0.2,0,0.4-0.1,0.5-0.1c-0.1-0.1-0.2,0-0.3-0.1c0.2,0,0.4-0.3,0.7-0.4
				c-0.1,0-0.1,0-0.1,0c0.1,0-0.3-0.2-0.3-0.1c0,0-0.2,0.2-0.2,0.2c-0.1,0.1-0.2,0.1-0.4,0c-0.5-0.3-0.3-1,0.2-1c0,0,0,0,0,0
				c-0.3,0-0.6,0.4-0.4,0.8c0.4,0.6,1.1-0.3,0.4-0.7c0,0,0,0-0.1,0c-0.5-0.2-0.6,0.5-0.6,0.6c-0.2-0.1-0.8,0-0.8-0.3
				c0.2-0.2,0.6-0.2,0.8-0.3c0.2-0.1,0.5-0.3,0.6-0.4c0,0,0,0,0.1,0c0.2,0,1,0.3,1.3,0.3C137.8,152.4,138,152.4,138.3,152.4z"/>
		</g>
		<g>
			<path class="st21" d="M133.1,152.3c-0.1,0.1,0.3,0.4,0.5,0.3c0.1,0,0,0,0.1,0.2c-0.1,0.1-0.1,0.1-0.2,0.2c0.2,0.1,0.5,0,0.7,0
				c0.1,0,0.3-0.1,0.4-0.1c0,0.3,0.6,0.2,0.8,0.3c0,0.1,0.1,0.3,0.2,0.4c-0.1,0.1-0.2,0-0.2,0.1c0,0,0.4,0.3,0.7,0.3
				c0,0.1,0.2,0,0.3,0.1c-0.2,0-0.4,0.1-0.5,0.1c-0.1,0-1.3-0.5-1.5-0.5c0.4,0.2,1.1,0.3,1.4,0.6c-0.3-0.1-0.8-0.3-1.1-0.4
				c-0.2-0.1-0.4-0.1-0.6-0.2c0,0-0.2,0.3-0.2,0.3c0,0-0.4,0-0.5,0c-0.2,0.1-0.3,0.1-0.5,0.2c-0.1,0-0.2,0-0.4,0.1c0,0,0,0,0,0
				c0.2-0.1-0.2-0.1-0.3-0.1c0,0,0,0,0,0c0,0,0-0.1,0.1-0.1c0.1,0,0.4,0,0.5-0.1c0-0.3,0.1-0.2-0.3-0.4c0,0,0.5-0.2-0.2-0.2
				c0.2-0.1,0.3-0.3,0.4-0.2c0,0,0,0,0,0c-0.1-0.1,0-0.2,0-0.2c0,0-0.2,0,0-0.2C132.8,152.5,133,152.4,133.1,152.3z"/>
		</g>
		<g>
			<path class="st20" d="M133.1,154.8c-0.1,0.1-0.8,0.7-0.8,0.8c0,0.1,0.3,0,0.4,0c0,0,0,0,0,0c-0.3,0.2-0.4,0.5-0.5,0.9
				c0.3-0.1,0.3-0.1,0.7-0.3c-0.6,0.4-0.6,0.4-1.1,0.8c-0.1,0.2-0.1,0.4-0.2,0.6c-0.1,0.3-0.3,0.5-0.5,0.8c0-0.4,0.2-0.7,0.3-1.1
				c0,0,0,0,0,0c-0.2,0.2-0.2,0.2-0.4,0.4c0,0-0.1,0-0.1,0c0,0,0.3-0.8,0.3-0.8c0.1-0.2,0.5-0.7,0.4-0.7c-0.5,0.7-0.6,0.5,0-0.1
				c0.1,0,0,0,0.1,0.1c0,0,0.7-0.8,0.7-0.9c0.1-0.2,0.4-0.4,0.5-0.5C132.9,154.8,133,154.8,133.1,154.8z"/>
		</g>
		<g>
			<path class="st20" d="M132.8,152.6c-0.1,0.2,0,0.2,0,0.2c0,0-0.2,0.1,0,0.2c0,0,0,0,0,0c-0.1-0.1-0.2,0.1-0.4,0.2
				c0.7,0,0.2,0.2,0.2,0.2c0.4,0.2,0.2,0.1,0.3,0.4c0,0.1-0.4,0.1-0.5,0.1c-0.1,0-0.1,0.1-0.1,0.1c-0.7,0.3-0.9,0.5-0.1-0.3
				c-0.2,0.1-0.4,0.3-0.6,0.4C131.7,153.5,132.3,153,132.8,152.6z"/>
		</g>
		<g>
			<path class="st20" d="M132.5,154.1c0,0-0.1,0.1-0.2,0.1c-0.1,0.1-0.3,0.4-0.5,0.6c-0.2,0.2-0.5,0.4-0.7,0.7c0-0.3,1-1.4,1.1-1.5
				C132.3,154,132.7,153.9,132.5,154.1z"/>
		</g>
		<g>
			<g>
				<path class="st22" d="M138.3,152.1c-0.3-0.1-0.7-0.4-1-0.4c-0.3,0,0,0.1,0.1,0.2c0.1,0.1,0.3,0.2,0.4,0.3
					c0.2,0.1,0.4,0.1,0.4,0.2c-0.2,0-0.5,0-0.7-0.1c-0.3-0.1-1.1-0.3-1.3-0.3c-0.1,0-0.1,0-0.1,0c0,0,0,0,0,0
					c-0.1,0-1.1,0.1-1.3,0.1c-0.3,0-1,0.2-1.2,0.4c-0.2,0.1-0.5-0.2-0.5-0.3c0.6-0.5,1.2-0.9,2-1.1
					C136.2,151,137.5,151.3,138.3,152.1z"/>
			</g>
			<g>
				<path class="st15" d="M138.3,152.1c0.1,0.1,0.2,0.2,0.3,0.3c0,0,0,0-0.1,0.1c0-0.1-0.1,0-0.2-0.1c0-0.2-0.2-0.2-0.4-0.2
					c-0.1-0.1-0.3-0.2-0.4-0.3c-0.1-0.1-0.4-0.1-0.1-0.2C137.6,151.7,138,152,138.3,152.1z"/>
			</g>
		</g>
		<g>
			<path class="st21" d="M136.4,156.2c0,0,0,0.1,0,0.4c0,0.1,0,0.2,0,0.2c0,0-0.1,0.2-0.1,0.2c-0.3,0.4-0.4,0.9-0.5,1.4
				c0,0.1,0,0.2,0,0.2c0,0.1-0.2,0.3-0.3,0.2c0.2-0.3,0.2-0.7,0.3-1c0.1-0.5,0.2-0.7,0.2-1.3c-0.1-0.6-0.1-0.6-0.3-0.2
				c-0.1,0.3-0.6,1.5-0.5,1.7c0.1,0.1,0.2,0.4,0.2,0.5c0,0.2,0,0.5,0,0.7c-0.2-0.1-0.3-0.1-0.5-0.1c-0.1,0.1-0.1,0.1-0.1,0.3
				c-0.1-0.2-0.1-0.2-0.2-0.4c0,0,0,0,0,0c-0.1-0.5,0.1-1.3-0.1-1.3c0-0.1-0.1-0.6,0.1-1c0.5-0.3,1.1-0.6,1.4-1.1
				c0.2,0,0.4-0.1,0.2,0.1c0.1,0,0.1,0,0.2,0c-0.1,0.1,0,0.1,0,0.1c-0.3,0.4,0.2-0.1,0.2,0.1C136.5,156.1,136.4,156.2,136.4,156.2z"
				/>
		</g>
		<g>
			<path class="st20" d="M138.8,160C138.8,160,138.8,160,138.8,160c-0.2,0-0.1,0-0.1,0.1c0,0.1,0.2,0.3,0,0.3c0,0.1,0,0.1,0.1,0.2
				c-0.2-0.2-0.4-0.5-0.6-0.7c0.1-0.5,0-0.6-0.2-1c-0.1-0.2-0.6-1.1-0.8-1.2c-0.4-0.2-0.1,0.2-0.2,0c0,0-0.1-0.3-0.5-0.7
				c0.1-0.2,0.1-0.2-0.1-0.3c0-0.2,0-0.4,0-0.4c0.1,0,0,0.1,0.1,0c0,0,0.3-0.3,0.4-0.2c0.1,0.1,0,0.3,0,0.3c0.4-0.4,0.2,0.3,0.3,0.7
				c0,0,0.1,0.2,0.1,0.2c0.1,0.3,0.3,0.5,0.4,0.8C138.1,158.5,139.1,159.5,138.8,160z"/>
		</g>
		<g>
			<path class="st21" d="M136.1,152.1c-0.2,0.1-0.5,0.3-0.6,0.4c-0.3,0.1-0.6,0.1-0.8,0.3c-0.1-0.1-0.3,0.1-0.4,0.1
				c-0.2,0-0.5,0.1-0.7,0c0.1-0.1,0.1-0.1,0.2-0.2c-0.1-0.1,0-0.2-0.1-0.2c0.2-0.2,0.9-0.3,1.2-0.4C135,152.1,136.1,152,136.1,152.1
				C136.1,152.1,136.1,152.1,136.1,152.1z"/>
		</g>
		<g>
			<path class="st21" d="M136,154.5C136,154.5,136.1,154.5,136,154.5c0.3,0.1,0.5,0.2,0.7,0.2c-0.5,0.3-1,0.6-1.6,0.9
				c-0.1-0.2,0-0.1,0-0.2c-0.4,0.1-0.8,0.3-1.2,0.5c-0.1,0-0.5,0-0.3-0.1c0,0,0.2,0,0.2-0.1c0.3-0.1,1-0.5,1.3-0.6
				c0.2-0.1,0.7-0.1,0.6-0.2c0.3,0,0.5-0.1,0.8-0.2c0-0.1-1-0.3-1.2-0.4c0,0-0.1,0.1-0.1,0c-0.2-0.2-0.6-0.2-0.8-0.3
				c0.1,0,0.3,0,0.4,0c0,0,0.1,0.1,0.1,0.1c0,0,0.2,0,0.3,0.1c0,0,0.1,0,0.1,0c0,0,0,0,0,0c0,0,0,0,0.1,0.1c0,0,0,0,0,0
				c0,0,0.2,0.1,0.4,0.1C135.8,154.5,135.8,154.5,136,154.5z"/>
		</g>
		<g>
			<path class="st23" d="M135.9,154c0.1,0,0.2,0.1,0.2,0.1c0,0.2,0.3,0.3,0,0.4c0,0-0.1,0-0.1,0c0-0.1,0-0.1-0.1-0.2
				c0,0-0.9-0.5-1-0.5c0,0-0.2-0.2-0.2-0.2C135.1,153.7,135.5,153.9,135.9,154z"/>
		</g>
		<g>
			<path class="st23" d="M136.7,154.7c-0.2,0-0.4-0.1-0.6-0.2c0.3-0.1,0-0.2,0-0.4c0,0,0.1,0,0.1,0c0.2,0.1,0.4,0.2,0.4,0.2
				C137.2,154.6,136.9,154.6,136.7,154.7z"/>
		</g>
		<g>
			<path class="st23" d="M136.2,153.8c-0.3,0.1-0.7-0.2-0.7-0.3c0-0.1,0.1,0,0.2-0.1c0,0,0.1,0,0.2,0.1c0.2,0.1,0.4,0.2,0.4,0
				c0,0,0.1-0.2,0.2-0.2c0,0,0.4,0.1,0.3,0.1c0.1,0,0.1,0,0.1,0C136.6,153.4,136.4,153.7,136.2,153.8z"/>
		</g>
		<g>
			<path class="st21" d="M135.7,155.8c0,0.1-0.1,0.1-0.1,0.1c-0.3,0-0.5,0.2-0.7,0.3c0,0,0,0,0,0c0,0,0,0,0,0c0,0,0,0,0,0
				c0,0,0,0,0,0c0,0,0,0,0,0c0,0,0,0.1-0.1,0.1c0,0-0.5,0.2-0.3,0.1c0,0,0.1,0,0.2-0.1c0.1-0.1,0.4-0.5,0.6-0.6
				C135.3,155.8,135.5,155.8,135.7,155.8z"/>
		</g>
		<g>
			<path class="st24" d="M139.3,159.9c0,0,0,0,0,0.1C139.3,160,139.3,160,139.3,159.9c-0.2-0.3-0.2-0.3-0.3-0.5
				C139.1,159.5,139.2,159.7,139.3,159.9z"/>
		</g>
		<g>
			<path class="st25" d="M136.2,153.5c0,0.2-0.2,0.1-0.4,0C136,153.5,136.1,153.6,136.2,153.5z"/>
		</g>
		<g>
			<path class="st23" d="M134.7,153.6c0,0.1,0.2,0.2,0.2,0.2c0.1,0.1,1,0.5,1,0.5c0.1,0,0.1,0.1,0.1,0.2c-0.2-0.1-0.2,0-0.2-0.1
				c-0.1,0-0.4-0.1-0.4-0.1c0,0,0,0,0,0c-0.1,0-0.1-0.1-0.1-0.1c0,0,0,0,0,0c0,0-0.1-0.1-0.1,0c-0.1-0.1-0.3-0.1-0.3-0.1
				c0,0,0-0.1-0.1-0.1c0,0-0.2,0-0.4,0c0,0-0.1-0.1-0.1,0c-0.1,0-0.1,0-0.1,0c-0.2-0.1-0.2-0.1-0.3-0.3c0,0,0.2-0.3,0.2-0.3
				C134.3,153.5,134.5,153.5,134.7,153.6z"/>
		</g>
		<g>
			<g>
				<path class="st21" d="M133.9,153.8c0.2,0.1,0.2,0.1,0.3,0.3c-0.9-0.2-0.7-0.3-1,0.2c-0.1,0.2-0.2,0.4-0.3,0.5
					c-0.2,0.2-0.4,0.4-0.5,0.5c-0.1,0.1-0.7,1-0.7,0.9c-0.1,0,0-0.1-0.1-0.1c-0.1,0-0.5,0.4-0.6,0.4c0.1-0.6,0.5-1.2,0.9-1.7
					c0.1-0.1,0.1-0.2,0.1-0.2c0.2-0.2,0.4-0.4,0.5-0.6c0.1-0.1,0.2-0.1,0.2-0.1c0,0,0,0,0,0c0,0-0.1,0.1-0.1,0.1
					c0,0,0.6-0.2,0.5-0.2c0.2-0.1,0.4-0.1,0.5-0.2C133.5,153.8,133.9,153.8,133.9,153.8z"/>
			</g>
			<g>
				<path class="st20" d="M132.9,154c0.1,0.1-0.5,0.3-0.5,0.2c0,0,0.1-0.1,0.1-0.1C132.7,154,132.8,154,132.9,154z"/>
			</g>
		</g>
		<g>
			<path class="st20" d="M132.8,155.6c0.1,0,0.8,0.2,0.8,0.2c0,0.1-0.2,0.1-0.4,0.3c-0.1,0-0.3,0.3-0.2,0.4c0,0,0.3,0,0.4-0.1
				c0,0.1-0.2,0.3-0.4,0.4c0.3,0.1,0.3-0.1,0.5-0.1c0,0,0,0,0,0c0,0-0.1,0.1-0.1,0.1c0.2,0.1,0.2,0.1,0.4,0.2
				c-0.3,0.3-0.3,0.3-0.6,0.6c-0.2,0.4-0.3,0.9-0.4,1.3c-0.1,0.2-0.1,0.6-0.2,0.6c0-0.4,0-0.9,0.1-1.3c0.1-0.2,0.5-0.5,0.3-0.6
				c-0.3,0.6-0.8,0.8-0.2,0c0-0.3,0.3-0.7,0.2-0.6c-0.1,0-0.9,1.2-1,1.4c0,0.1,0,0.1,0,0.1c-0.1,0.2-0.3,0.7-0.4,0.8
				c-0.3,0.7-0.3,1.1-0.3,0.2c0.1-0.7,0.4-1.6,0.4-1.7c0,0,0-0.1,0,0c0.1-0.2,0.1-0.4,0.2-0.6c0.6-0.4,0.6-0.4,1.1-0.8
				c-0.3,0.1-0.3,0.1-0.7,0.3C132.3,156.1,132.4,155.8,132.8,155.6C132.7,155.6,132.7,155.6,132.8,155.6z"/>
		</g>
		<g>
			<path class="st23" d="M135.2,154.4c0,0.1,0.1,0,0.1,0c0.2,0.1,1.2,0.3,1.2,0.4c-0.2,0.1-0.5,0.2-0.8,0.2c-0.1,0-0.2,0-0.3,0
				c-0.4,0-0.8-0.1-1.2-0.2c-0.4,0-0.8,0-1.3,0c-0.1,0-0.1,0-0.2,0c0.1-0.2,0.2-0.4,0.3-0.5c0,0,0,0.1,0,0.1
				C133.3,154.4,134.7,154.2,135.2,154.4z"/>
		</g>
		<g>
			<path class="st23" d="M134.2,154C134.2,154,134.2,154.1,134.2,154c0.1,0,0.1,0,0.2,0.1c0.3,0.1,0.6,0.1,0.8,0.3
				c-0.5-0.2-1.9,0-2,0c0,0,0-0.1,0-0.1C133.5,153.8,133.3,153.9,134.2,154z"/>
		</g>
		<g>
			<path class="st21" d="M135.5,155c-0.2,0-0.5-0.1-0.7-0.1c-0.3,0-0.6,0.1-0.8,0.1c-0.2,0-0.2,0-0.2,0c-0.4,0-0.5-0.1-0.4,0.1
				c-0.2,0.1-0.4,0.3-0.6,0.5c0.1,0,0.1,0,0.1,0c0,0-0.1,0-0.1,0c0,0,0,0,0,0c-0.1,0-0.4,0.1-0.4,0c0-0.1,0.7-0.7,0.8-0.8
				c0.4,0,0.8,0,1.3,0C134.7,154.8,135.1,154.9,135.5,155z"/>
		</g>
		<g>
			<g>
				<path class="st20" d="M138,154.3c0.6-0.1,1.1-0.1,1.7-0.1c0.1,0,0.1,0,0.2,0c0.2,0,0.4,0.1,0.5,0.1c0,0,0,0,0.1,0
					c0.2,0,0.5,0.1,0.7,0.1c0,0,0.1,0,0.1,0c0,0,0,0,0.1,0c0.3,0.1,0.5,0.2,0.8,0.3c0,0.1,0,0.1,0.1,0.1c0,0.1-0.2-0.1-0.3-0.2
					c-0.2-0.1-1.6,0-1.9,0c0,0,0,0,0,0c-0.3,0-0.7,0-1.1,0c-0.1,0-0.1,0-0.1-0.1c-0.2-0.1-1-0.2-1.1-0.2
					C137.7,154.4,137.9,154.4,138,154.3c0,0-0.5,0.2-0.3,0C137.8,154.3,137.9,154.3,138,154.3z"/>
			</g>
			<g>
				<path class="st26" d="M140.5,153c0.1,0.2,0.4,0.3,0.5,0.7c-0.6-0.3-1.3-0.6-1.9-0.7c-0.2-0.1-0.8,0-0.9-0.2c0,0,0,0,0-0.1
					c0,0,0-0.1,0-0.1c0.1-0.1,0.2-0.1,0.3-0.1c0.1,0,0.1-0.1,0.1-0.1c0.2,0,1.2,0.2,1.4,0.3C140.2,152.8,140.3,152.9,140.5,153z"/>
			</g>
			<g>
				<path class="st27" d="M140.5,153c0.4,0.2,0.8,0.4,1.1,0.8c0.3,0.3,0.7,1,0.7,1.2c0,0,0-0.1-0.1-0.1c-0.2-0.5-0.1-0.3-0.2-0.3
					c0,0-0.2-0.2-0.5-0.3c-0.4-0.2-0.8-0.2-1.2-0.3c-0.1-0.1-0.1-0.1-0.1-0.2c1.2,0.2,0.4-0.2-0.2-0.4c-0.3-0.1-0.6-0.1-0.9-0.3
					c0.7,0.1,1.3,0.4,1.9,0.7C140.9,153.3,140.6,153.2,140.5,153z"/>
			</g>
			<g>
				<path class="st22" d="M138.2,152.8c0,0.4,0.4,0.5,0.1,0.9c-0.1,0.1-0.3,0.2-0.3,0.2c-0.4,0.1-0.7,0-1.1,0.1c0,0,0,0,0,0
					c0.2-0.1,0.9-0.8,1-0.9C138,153,138.1,152.9,138.2,152.8C138.2,152.8,138.2,152.8,138.2,152.8z"/>
			</g>
			<g>
				<path class="st21" d="M138,153.9c0.8,0,1.6,0,2.3,0.1c0.4,0.1,0.8,0.1,1.2,0.3c0.3,0.1,0.4,0.3,0.5,0.3c0,0,0-0.2,0.2,0.3
					c-0.2-0.2-0.5-0.2-0.8-0.3c0-0.1-0.1,0-0.1,0c0,0-0.1-0.1-0.1,0c-0.2,0-0.5-0.1-0.7-0.1c0,0,0,0-0.1,0c-0.2-0.1-0.4-0.1-0.5-0.1
					c-0.1,0-0.1,0-0.2,0c-0.5-0.1-1-0.2-1.5-0.1c-0.3,0-1,0.1-1.2,0c-0.1,0,0,0-0.1-0.1C137.3,153.9,137.6,154,138,153.9z"/>
			</g>
			<g>
				<g>
					<path class="st28" d="M136.9,154C136.9,154,136.9,154,136.9,154C136.9,154,136.9,154.1,136.9,154c0.3,0.1,1,0.1,1.3,0.1
						c0,0.3-0.2,0.1-0.2,0.2c-0.1,0-0.2,0-0.3,0c-0.2,0.2,0.3,0,0.4,0.1c-0.2,0.1-0.4,0-0.3,0.1c0.1,0.1,0.9,0.1,1.1,0.2
						c0.2,0.1-0.5,0.1-0.7,0.1c-0.6,0-1.1-0.2-1.5-0.6C136.7,154.1,136.9,154,136.9,154z"/>
				</g>
				<g>
					<path class="st29" d="M139.7,154.2c-0.6,0-1.1,0-1.7,0.1c0-0.1,0.2,0,0.2-0.2C138.7,154,139.2,154.1,139.7,154.2z"/>
				</g>
			</g>
			<g>
				<path class="st29" d="M140.4,154.3c-0.2,0-0.4-0.1-0.5-0.1C140,154.2,140.2,154.2,140.4,154.3z"/>
			</g>
			<g>
				<path class="st29" d="M139.8,154.2c-0.1,0-0.1,0-0.2,0C139.7,154.2,139.8,154.2,139.8,154.2z"/>
			</g>
			<g>
				<path class="st30" d="M141.3,154.5c0,0-0.1,0-0.1,0C141.2,154.4,141.3,154.5,141.3,154.5z"/>
			</g>
			<g>
				<path class="st30" d="M141.4,154.5c-0.1,0-0.1,0-0.1,0C141.3,154.5,141.4,154.5,141.4,154.5z"/>
			</g>
			<g>
				<path class="st29" d="M140.4,154.3C140.4,154.3,140.4,154.3,140.4,154.3C140.4,154.3,140.4,154.3,140.4,154.3z"/>
			</g>
			<g>
				<path class="st28" d="M139.1,153c0.3,0.2,0.6,0.2,0.9,0.3c0.6,0.2,1.4,0.6,0.2,0.4c0.1,0.1,0.1,0.1,0.1,0.2
					c-0.8-0.1-1.6-0.1-2.3-0.1c0-0.1,0.2-0.1,0.3-0.2c0.3-0.3-0.1-0.4-0.1-0.9C138.4,153,138.9,153,139.1,153z"/>
			</g>
		</g>
		<g>
			<path class="st21" d="M136.4,157c0.3,0.5,0.4,0.7,0.5,0.7c0.1,0.1-0.2-0.3,0.2,0c0.2,0.1,0.7,1,0.8,1.2c0.2,0.4,0.2,0.5,0.2,1
				c-0.1-0.1-0.2-0.1-0.3-0.2c0-0.1-0.4-0.5-0.4-0.5c-0.1,0,0.1,0.3,0.1,0.5c0,0-0.3,0.5-0.3,0.5c-0.1,0.1-0.3,0.1-0.3,0.2
				c-0.1,0,0-0.1-0.1-0.1c0.1,0-0.2-0.3-0.4-0.4c-0.1-0.3-0.4-0.4-0.2-0.6c-0.1-0.1-0.1,0.2-0.2-0.1c-0.1-0.2-0.1-0.7-0.2-0.9
				c0,0,0,0,0,0c0.1-0.5,0.2-1,0.5-1.4c0-0.1,0.1-0.2,0.1-0.2C136.4,156.9,136.4,156.9,136.4,157z"/>
		</g>
		<g>
			<g>
				<path class="st20" d="M132.5,158.2C132.5,158.2,132.5,158.2,132.5,158.2c-0.1,0-0.6,0.7-0.6,0.7c-0.1,0-0.1,0-0.1,0
					c0-0.2,0-0.3,0-0.5c0,0,0,0,0-0.1c0.1-0.2,1-1.4,1-1.4c0.1-0.1-0.2,0.3-0.2,0.6c-0.6,0.8-0.1,0.7,0.2,0
					C133,157.8,132.6,158,132.5,158.2z"/>
			</g>
			<g>
				<path class="st31" d="M131.9,159c0,0,0,0.1,0,0.1C131.7,159.2,131.8,159,131.9,159z"/>
			</g>
		</g>
		<g>
			<path class="st23" d="M135.5,158.9c-0.1-0.1-0.2-0.3-0.2-0.3c0-0.1-0.1-0.4-0.2-0.5c-0.1-0.2,0.5-1.4,0.5-1.7
				c0.2-0.4,0.3-0.4,0.3,0.2c0.1,0.5-0.1,0.8-0.2,1.3C135.7,158.2,135.7,158.6,135.5,158.9z"/>
		</g>
		<g>
			<path class="st32" d="M134.5,159.1c-0.2,0-0.5-0.2-0.6-0.1c0,0,0-0.1,0-0.1c0.1-0.3,0.3-0.5,0.4-0.8c0-0.1,0-0.2,0.1-0.4
				C134.6,157.8,134.5,158.6,134.5,159.1C134.5,159.1,134.5,159.1,134.5,159.1z"/>
		</g>
		<g>
			<path class="st16" d="M135.5,158.9c0.1,0.1,0.2-0.1,0.3-0.2c0.1,0.2,0.1,0.6,0,0.9c-0.1-0.1-0.4-0.2-0.5-0.2c0-0.2,0.1-0.5,0-0.7
				C135.4,158.6,135.4,158.8,135.5,158.9z"/>
		</g>
		<g>
			<path class="st20" d="M136.5,159.9c-0.2-0.2-0.4-0.3-0.7-0.4c0.1-0.2,0.1-0.6,0-0.9c0-0.1,0-0.2,0-0.2c0,0,0,0,0,0
				c0.1,0.2,0.1,0.7,0.2,0.9c0.1,0.2,0.1,0,0.2,0.1C136,159.5,136.4,159.7,136.5,159.9z"/>
		</g>
		<g>
			<path class="st20" d="M136.4,157c0,0,0-0.1-0.1-0.1c0,0,0-0.2,0-0.2C136.6,156.8,136.6,156.8,136.4,157z"/>
		</g>
		<g>
			<path class="st23" d="M135.5,155c0.1,0,0.2,0.1,0.3,0c0.1,0.1-0.4,0.1-0.6,0.2c-0.3,0.1-0.9,0.4-1.3,0.6c0,0-0.2,0-0.2,0.1
				c-0.2,0.1,0.1,0,0.3,0.1c-0.1,0.1-0.3,0.3-0.4,0.5c-0.2,0-0.3,0.1-0.3,0.1c0,0-0.3,0.1-0.4,0.1c-0.1-0.1,0.2-0.4,0.2-0.4
				c0.1-0.1,0.4-0.2,0.4-0.3c0-0.1-0.7-0.2-0.8-0.2c0,0,0,0-0.1,0c0.1-0.3,0.3-0.4,0.6-0.5c0.2,0,0.4,0,0.4-0.1c0,0,0.1,0,0.2,0
				c0.3,0,0.6-0.1,0.8-0.1C135,154.9,135.3,155,135.5,155z"/>
		</g>
		<g>
			<g>
				<path class="st23" d="M135.1,155.7C135.1,155.7,135.1,155.7,135.1,155.7c-0.2,0.2-0.5,0.6-0.6,0.6c-0.1,0.1-0.2,0.1-0.2,0.1
					c-0.2,0.1,0.3-0.1,0.3-0.1c0.5-0.2,0.5-0.2,0.9-0.5c0.1,0,0.1,0,0.1-0.1c0.1,0,0.1,0,0.2,0c-0.3,0.5-0.9,0.8-1.4,1.1
					c-0.1,0.4-0.1,0.9-0.1,1c0,0.1,0,0.2-0.1,0.4c-0.1,0.3-0.3,0.5-0.4,0.8c-0.1,0-0.4,0-0.4,0c0,0,0.1,0.1,0,0.2
					c0-0.1-0.1-0.2-0.1-0.2c0-0.2,0.1-0.4,0.1-0.6c0.1-0.3,0.2-0.6,0.4-0.9c0.1-0.1,0.2-0.3,0.3-0.4c-0.2,0.1-0.2,0.1-0.3,0.2
					c0.1-0.2,0.1-0.4,0.2-0.6c0.1,0,0.1-0.1,0.2-0.1c0,0,0.1,0,0.1-0.1c0,0-0.1,0.1-0.1,0.1c0,0,0,0-0.1,0c0,0-0.1,0.1-0.1,0.1
					c0,0-0.1,0-0.1,0c-0.1,0-0.1,0.1-0.1,0.1c-0.1,0.1-0.5,0.3-0.6,0.1c0,0,0,0,0,0c0.1-0.1,0.2-0.3,0.2-0.4
					c0.1-0.2,0.2-0.3,0.4-0.5c0.4-0.2,0.8-0.3,1.2-0.5C135.1,155.6,135,155.5,135.1,155.7z"/>
			</g>
			<g>
				<path class="st21" d="M133.9,159C133.9,159,133.9,159,133.9,159c-0.1,0.2-0.1,0.4-0.2,0.6c-0.1-0.1-0.1-0.3-0.2-0.4
					c0,0-0.1-0.1,0-0.2C133.5,159,133.9,159,133.9,159z"/>
			</g>
		</g>
		<g>
			<path class="st16" d="M133.6,156.3c0,0.1-0.1,0.3-0.2,0.4c-0.2,0-0.2,0.2-0.5,0.1c0.1-0.1,0.4-0.3,0.4-0.4
				C133.3,156.4,133.4,156.3,133.6,156.3z"/>
		</g>
		<g>
			<path class="st20" d="M133.5,158.3c0.1,0.2,0,0.4-0.1,0.6c-0.1,0-0.2,0-0.2,0c0,0,0,0-0.1,0C133.3,158.7,133.4,158.3,133.5,158.3
				z"/>
		</g>
		<g>
			<g>
				<path class="st21" d="M134.2,156.5c-0.1,0-0.1,0.1-0.2,0.1c-0.1,0.2-0.1,0.4-0.2,0.6c0,0.2-0.1-0.1-0.2,0.1
					c0.1,0.5,0,0.5,0.2,0.1c-0.1,0.3-0.3,0.6-0.4,0.9c-0.1,0-0.2,0.4-0.4,0.6c0,0-0.1,0-0.1,0c-0.1,0-0.2,0-0.3,0.1
					c0.1-0.4,0.3-0.9,0.4-1.3c0.3-0.3,0.3-0.3,0.6-0.6c-0.2-0.1-0.2-0.1-0.4-0.2c0-0.1,0.1-0.1,0.1-0.1c0,0.1,0.4-0.1,0.6-0.1
					c0,0,0,0,0.1-0.1c0,0,0,0,0.1,0C134.1,156.6,134.1,156.5,134.2,156.5C134.1,156.5,134.1,156.5,134.2,156.5z"/>
			</g>
			<g>
				<path class="st23" d="M133.9,157.4c-0.2,0.4-0.2,0.3-0.2-0.1c0.1-0.1,0.1,0.1,0.2-0.1c0.2-0.1,0.2-0.1,0.3-0.2
					C134,157.1,133.9,157.3,133.9,157.4z"/>
			</g>
		</g>
		<g>
			<path class="st21" d="M135.6,155.8c-0.5,0.2-0.5,0.2-0.9,0.5c0.1,0,0.1-0.1,0.1-0.1c0,0,0,0,0,0c0,0,0,0,0,0c0,0,0,0,0,0
				c0,0,0,0,0,0c0,0,0,0,0,0C135.1,156,135.3,155.8,135.6,155.8z"/>
		</g>
		<g>
			<path class="st21" d="M134.2,156.5c0,0,0.1-0.1,0.1-0.1C134.2,156.5,134.2,156.5,134.2,156.5z"/>
		</g>
		<g>
			<path class="st20" d="M138.8,160c0.1,0.3,0.1,0.3,0.1,0.5C138.8,160.3,138.8,160.3,138.8,160C138.7,160,138.6,160,138.8,160z"/>
		</g>
		<g>
			<path class="st20" d="M137.8,159.7C137.8,159.6,137.7,159.6,137.8,159.7c-0.1,0-0.2-0.1-0.2-0.1c0,0-0.1,0.1-0.1,0.1c0,0,0,0,0,0
				c0-0.2-0.2-0.6-0.1-0.5C137.5,159.2,137.8,159.6,137.8,159.7z"/>
		</g>
		<g>
			<g>
				<path class="st33" d="M136.1,152.5c-0.5-0.1-0.7,0.7-0.2,1c0,0-0.1,0-0.2-0.1c-0.1-0.1-0.2-0.2-0.2-0.4
					C135.5,153,135.6,152.3,136.1,152.5z"/>
			</g>
			<g>
				<g>
					<path class="st24" d="M136.1,152.5C136.1,152.5,136.1,152.6,136.1,152.5c0.7,0.4,0,1.3-0.4,0.8
						C135.5,153,135.8,152.6,136.1,152.5z"/>
				</g>
				<g>
					<path class="st34" d="M136.1,152.6C136.1,152.6,136.1,152.5,136.1,152.6C136.1,152.5,136.1,152.5,136.1,152.6
						C136.1,152.5,136.1,152.5,136.1,152.6z"/>
				</g>
				<g>
					<path class="st20" d="M136.1,152.7c0.1,0.4,0.4,0.2,0.1-0.1c0.2,0,0.3,0.5,0,0.6c-0.1,0.1-0.3,0-0.4-0.2
						C135.7,152.8,136,152.7,136.1,152.7z"/>
				</g>
				<g>
					<path class="st29" d="M136.2,152.7c0.3,0.3-0.1,0.5-0.1,0.1C136.1,152.7,136.1,152.7,136.2,152.7z"/>
				</g>
			</g>
		</g>
		<g>
			<path class="st21" d="M134.4,154.1c0,0-0.1,0-0.1,0C134.3,154,134.4,154.1,134.4,154.1z"/>
		</g>
		<g>
			<path class="st23" d="M133.7,154.9c0,0.1-0.3,0.1-0.4,0.1C133.2,154.8,133.3,154.9,133.7,154.9z"/>
		</g>
	</g>
	<g>
		<g>
			<path class="st18" d="M139.8,163.5c0.1,0.7,0,1.6-0.2,2.3c0,0.1-0.1,0.3-0.1,0.3c0,0.2-0.1,0.3-0.1,0.5c-0.1,0.2,0,0.4-0.1,0.6
				c0-0.3-0.3-1.5-0.3-1.6c-0.2-0.7-0.4-1.4-0.6-2.1c0,0,0,0,0,0c-0.2-0.5-0.5-1-0.7-1.5c0.1-0.2,0-0.4,0-0.5c0-0.2,0.2-0.5,0.1-1.1
				c0.1,0.1,0.3,0.5,0.3,0.7c0.2,0.4,0.3,1,0.5,0.9c0,0,0.2-0.3,0.2-0.3c0.1-0.4-0.1-0.9,0.1-0.8c-0.1-0.3,0.1-0.4,0-0.5
				c0-0.4-0.2-0.8,0-0.6c0,0,0.1,0.2,0.1,0.2c0,0.1,0.2,0.5,0.2,0.6C139.5,161.3,139.8,162.9,139.8,163.5z"/>
			<path class="st12" d="M139.4,167.4l0-0.2c0-0.2-0.1-0.8-0.2-1.2c0-0.2-0.1-0.4-0.1-0.4c-0.2-0.7-0.4-1.4-0.6-2.1c0,0,0,0,0,0
				c-0.1-0.4-0.3-0.7-0.5-1c-0.1-0.1-0.1-0.3-0.2-0.4l0,0l0,0c0-0.1,0-0.2,0-0.3c0-0.1,0-0.1,0-0.2c0-0.1,0-0.1,0-0.2
				c0.1-0.2,0.1-0.5,0.1-0.9l0-0.1l0,0c0.1,0.1,0.3,0.4,0.3,0.7c0,0.1,0.1,0.2,0.1,0.3c0.1,0.3,0.2,0.6,0.3,0.6c0,0,0.2-0.2,0.2-0.3
				c0.1-0.2,0-0.4,0-0.6c0-0.1,0-0.2,0-0.2c0,0,0,0,0,0c0-0.1,0-0.2,0-0.3c0-0.1,0-0.1,0-0.2l0,0l0,0c0-0.2,0-0.4-0.1-0.5
				c0-0.1,0-0.1,0-0.2c0,0,0,0,0.1,0.1c0,0,0,0.1,0.1,0.2c0,0,0,0.1,0,0.1c0,0.1,0.2,0.5,0.2,0.6c0.2,0.6,0.5,2.2,0.5,2.8
				c0.1,0.7,0,1.6-0.2,2.3c0,0.1-0.1,0.2-0.1,0.3c0,0,0,0,0,0c0,0.1,0,0.2-0.1,0.2c0,0.1-0.1,0.2-0.1,0.3c0,0.1,0,0.2-0.1,0.3
				c0,0.1,0,0.2,0,0.3L139.4,167.4z M137.8,162c0.1,0.1,0.1,0.3,0.2,0.4c0.2,0.3,0.3,0.7,0.5,1c0,0,0,0,0,0c0.3,0.7,0.5,1.4,0.6,2.1
				l0,0l0,0c0,0,0,0.2,0.1,0.4c0.1,0.3,0.2,0.8,0.2,1.1c0,0,0-0.1,0-0.1c0-0.1,0-0.2,0.1-0.4c0-0.1,0-0.2,0.1-0.3
				c0-0.1,0-0.1,0.1-0.2c0,0,0,0,0,0c0,0,0.1-0.1,0.1-0.2c0.2-0.8,0.2-1.6,0.2-2.3l0,0c0-0.6-0.4-2.2-0.5-2.8c0-0.1-0.2-0.5-0.2-0.6
				c0,0,0,0,0-0.1c0-0.1,0-0.1-0.1-0.1c0,0,0,0,0,0c0,0,0,0,0,0.1c0,0.1,0.1,0.3,0.1,0.5c0,0.1,0,0.1,0,0.2c0,0.1,0,0.2,0,0.3l0,0
				l0,0c0,0,0,0,0,0c0,0,0,0.1,0,0.2c0,0.2,0.1,0.4,0,0.6c0,0-0.2,0.3-0.2,0.3c-0.2,0-0.3-0.3-0.4-0.6c0-0.1-0.1-0.2-0.1-0.3
				c-0.1-0.2-0.2-0.4-0.3-0.6c0,0.4-0.1,0.6-0.1,0.8c0,0.1,0,0.1,0,0.2c0,0.1,0,0.1,0,0.2C137.8,161.8,137.8,161.9,137.8,162z"/>
		</g>
	</g>
	<g>
		<g>
			<path class="st18" d="M139,161c-0.2-0.1,0.1,0.4-0.1,0.8c0,0-0.2,0.3-0.2,0.3c-0.2,0.1-0.3-0.6-0.5-0.9c-0.1-0.2-0.2-0.5-0.3-0.7
				c0,0,0,0,0,0c-0.2-0.2-0.2-0.2-0.3-0.4c0,0-0.1,0.1-0.2,0.1c-0.1,0-0.2,0.1-0.2,0.1c0,0,0.3-0.5,0.3-0.5c0,0,0,0,0,0
				c0,0,0-0.1,0.1-0.1c0,0,0.1,0.1,0.1,0.1c0,0,0.1,0,0.1,0c0.1,0,0.2,0.1,0.3,0.2c0.2,0.2,0.4,0.5,0.6,0.7c0-0.1,0-0.1-0.1-0.2
				c0.2,0,0-0.1,0-0.3c0.1,0.2,0.1,0.2,0.2,0.4c-0.1-0.3-0.1-0.3-0.1-0.5c0,0,0,0,0.1,0c0.1,0.2,0.1,0.2,0.2,0.5
				C139.1,160.6,139,160.7,139,161z"/>
			<path class="st12" d="M138.8,162.1c-0.1,0-0.3-0.3-0.4-0.6c0-0.1-0.1-0.2-0.1-0.3c-0.1-0.2-0.2-0.5-0.3-0.6l0,0l0,0c0,0,0,0,0,0
				c0,0,0,0,0,0c-0.2-0.2-0.2-0.2-0.3-0.3c0,0-0.1,0-0.1,0c0,0,0,0-0.1,0c0,0,0,0-0.1,0c-0.1,0-0.1,0.1-0.2,0l0,0l0,0
				c0,0,0.3-0.4,0.3-0.5l0,0l0,0l0,0c0,0,0-0.1,0.1-0.1l0,0l0,0c0,0,0,0,0,0c0,0,0,0,0.1,0c0,0,0,0,0,0c0,0,0,0,0.1,0
				c0.1,0,0.2,0.1,0.3,0.2c0.1,0.1,0.3,0.3,0.4,0.5c0,0.1,0.1,0.1,0.1,0.1c0,0,0,0,0-0.1l0,0l0,0c0.1,0,0.1,0,0.1,0c0,0,0-0.1,0-0.1
				c0-0.1,0-0.1,0-0.2l0-0.1l0,0c0.1,0.2,0.1,0.2,0.2,0.3c0-0.1,0-0.2-0.1-0.4l0,0l0,0c0,0,0,0,0,0c0,0,0,0,0,0l0,0l0.2,0.5
				c0,0.1,0,0.1,0,0.2c0,0.1,0,0.2,0,0.3l0,0l0,0c0,0,0,0,0,0c0,0,0,0.1,0,0.2c0,0.2,0.1,0.4,0,0.6
				C139,161.8,138.8,162.1,138.8,162.1C138.8,162.1,138.8,162.1,138.8,162.1z M137.9,160.5c0.1,0.1,0.3,0.4,0.3,0.7
				c0,0.1,0.1,0.2,0.1,0.3c0.1,0.3,0.2,0.6,0.3,0.6c0,0,0.2-0.2,0.2-0.3c0.1-0.2,0-0.4,0-0.6c0-0.1,0-0.2,0-0.2c0,0,0,0,0,0
				c0-0.1,0-0.2,0-0.3c0-0.1,0-0.1,0-0.2l-0.2-0.5c0,0,0,0,0,0c0,0,0,0,0,0c0.1,0.2,0.1,0.2,0.1,0.5l0,0.1l-0.1-0.1
				c-0.1-0.2-0.1-0.2-0.2-0.3c0,0,0,0,0,0c0,0.1,0,0.1,0,0.1c0,0,0,0-0.1,0c0,0.1,0,0.1,0,0.1l0,0.1l-0.1-0.1
				c-0.1-0.1-0.1-0.1-0.2-0.2c-0.1-0.2-0.3-0.3-0.4-0.5c-0.1-0.1-0.2-0.1-0.3-0.2c0,0,0,0-0.1,0c0,0,0,0,0,0c0,0,0,0-0.1,0
				c0,0,0,0,0,0c0,0,0,0.1-0.1,0.1l0,0l0,0c0,0.1-0.2,0.4-0.3,0.5c0,0,0.1,0,0.1,0c0,0,0,0,0.1,0c0,0,0,0,0.1,0c0.1,0,0.1,0,0.1,0
				l0,0l0,0C137.8,160.2,137.8,160.2,137.9,160.5L137.9,160.5L137.9,160.5C137.9,160.4,137.9,160.4,137.9,160.5
				C137.9,160.4,137.9,160.4,137.9,160.5z"/>
		</g>
	</g>
	<g>
		<path class="st35" d="M131.3,162c0-0.1-0.1-0.2-0.1-0.3C131.3,161.8,131.3,162,131.3,162C131.3,162,131.3,162,131.3,162z"/>
	</g>
	<g>
		<path class="st35" d="M132,163.2c-0.2-0.2-0.4-0.6-0.5-0.8C131.6,162.8,131.9,163.1,132,163.2C131.9,163.2,131.9,163.2,132,163.2z
			"/>
	</g>
	<g>
		<path class="st35" d="M132.1,163.4C132.1,163.4,132.1,163.3,132.1,163.4C132.1,163.3,132.1,163.3,132.1,163.4z"/>
	</g>
	<g>
		<polygon class="st35" points="132.2,163.5 132.2,163.5 132.2,163.5 		"/>
	</g>
	<g>
		<path class="st35" d="M131.6,159.7c-0.1,0.5-0.3,1-0.5,1.4c0,0,0,0,0,0c0,0,0,0.1,0,0.1c0,0,0-0.1,0-0.1
			C131.4,160.6,131.6,160,131.6,159.7z"/>
	</g>
	<g>
		<path class="st36" d="M133.1,162.7l-1,0.6c0,0-0.1-0.1-0.1-0.1c-0.1-0.2,0.4-1,0.5-1.1c0,0-0.2,0.1-0.2,0c-0.1,0-0.1,0-0.1,0.1
			c-0.2-0.1-0.4-0.4-0.6-0.7l0.2-0.2l0.8,0.3L133.1,162.7z"/>
	</g>
	<g>
		<path class="st35" d="M133,164.3c-0.1-0.1-0.3-0.3-0.5-0.5C132.6,164,132.8,164.2,133,164.3z"/>
	</g>
	<g>
		<path class="st13" d="M141.3,161.5C141.3,161.5,141.3,161.5,141.3,161.5C141.2,161.5,141.2,161.5,141.3,161.5
			c-0.2-0.1-1-0.7-1.4-1c-0.4-0.3-0.6-0.6-0.6-0.6c-0.1,0.1-0.1,0.2-0.1,0.2s0.2,0.4,0.4,1.2c0.2,0.7,0.4,2,0.4,2.6
			c0,0.6-0.2,1.9-0.2,1.9c-0.3,0.8-0.3,1.4-0.3,1.4c-0.1,0.2-0.2,0.8-0.3,1.3c-0.1-0.4-0.2-0.6-0.4-0.9c-0.2-0.3-0.8-1.1-0.9-1.3
			c-0.1-0.1-0.1-0.1-0.1-0.1c-0.2-0.2-0.3-0.4-0.5-0.6c-0.3-0.4-0.6-0.8-0.9-1.2c-0.4-0.6-0.9-1.2-1.3-1.7c-0.6-0.7-1.2-1.4-1.9-2.1
			c-0.4-0.4-0.8-0.8-1.3-1.2c0,0,0,0-0.1,0c0,0,0,0,0,0c0,0,0,0,0,0c0,0,0,0,0,0l0,0c0,0,0,0,0,0c0,0,0,0,0,0c0,0,0,0,0,0
			c0,0,0,0,0,0c0,0,0,0,0,0c0,0,0,0,0,0c0,0,0,0,0,0.1c0,0,0,0,0,0c-0.1,0.5-0.3,1-0.5,1.4c0,0,0,0,0,0c0,0,0,0.1,0,0.1c0,0,0,0,0,0
			c0,0.1,0.1,0.3,0.2,0.5c0,0.1,0.1,0.2,0.1,0.2c0,0,0,0.1,0,0.1c0,0.1,0.1,0.2,0.1,0.2c0,0,0,0,0,0c0,0,0,0,0,0s0,0,0,0
			c0,0,0,0,0,0c0,0,0,0,0,0c0,0,0,0,0,0c0,0,0,0,0,0c0,0,0,0,0,0c0,0,0,0,0,0c0,0,0,0,0,0c0,0,0,0,0,0c0.2,0.4,0.5,0.7,0.5,0.7
			c0,0,0,0.1,0,0.1c0,0,0,0,0,0c0,0,0.1,0.1,0.1,0.1c0,0,0,0,0,0c0,0,0,0,0.1,0.1c0.1,0.1,0.1,0.1,0.1,0.1c0,0,0,0,0,0c0,0,0,0,0,0
			c0,0,0,0,0,0c0,0,0,0,0,0c0,0,0,0,0,0c0,0,0,0,0,0c0,0,0,0,0,0c0,0,0.1,0.1,0.1,0.1c0,0,0,0,0,0c0,0,0,0,0,0.1
			c0.2,0.2,0.3,0.3,0.5,0.5c0,0,0,0,0,0c1,1.1,2.2,2,3.3,3.1c0.8,0.8,1.8,1.3,2.7,2.1c0.1-0.1,0.9-1.8,0.9-1.8c0.4-0.5,0.9-1.8,1-2
			c0.1-0.2,0.8-2.9,0.8-2.9C141.7,162.2,141.3,161.5,141.3,161.5z"/>
		<path class="st12" d="M138.9,169.5C138.9,169.5,138.9,169.5,138.9,169.5c-0.4-0.3-0.8-0.6-1.2-0.9c-0.5-0.3-1-0.7-1.5-1.1
			c-0.5-0.5-1-1-1.5-1.4c-0.6-0.5-1.2-1.1-1.7-1.6c-0.2-0.2-0.3-0.3-0.5-0.5c0,0,0,0,0,0c0,0,0,0,0,0l0,0c0,0,0,0-0.1-0.1l0-0.1
			c0,0,0,0,0,0l0,0c0,0,0,0,0,0l0,0c0,0,0,0,0,0l0,0c0,0,0,0,0,0c0,0,0,0,0,0c0,0,0,0,0,0c0,0,0,0,0,0c0,0,0,0-0.1-0.1
			c0,0,0,0-0.1-0.1h0c0,0,0,0,0,0l0,0c0,0,0,0-0.1-0.1c0,0,0,0,0,0c0,0,0-0.1-0.1-0.1c0,0-0.3-0.4-0.5-0.7l0-0.1c0,0,0,0,0,0l0,0
			c0,0,0,0,0,0l0,0c0,0,0,0,0,0l0,0c0,0,0,0,0,0l0,0c0,0,0,0,0,0c0,0,0,0,0,0c0,0,0,0,0,0c0,0,0,0,0-0.1l0-0.1c0,0,0-0.1,0-0.1
			c0,0,0-0.1-0.1-0.2c-0.1-0.2-0.1-0.4-0.2-0.5c0-0.1,0-0.1,0-0.1l0,0c0.2-0.4,0.4-0.8,0.5-1.4l0,0c0,0,0,0,0,0l0,0c0,0,0,0,0,0
			c0,0,0,0,0,0l0,0c0,0,0,0,0,0l0,0c0,0,0,0,0,0c0,0,0,0,0,0c0,0,0,0,0,0c0,0,0,0,0,0c0,0,0,0,0,0l0,0l0,0c0,0,0,0,0,0c0,0,0,0,0,0
			c0,0,0,0,0,0l0,0c0,0,0,0,0,0c0,0,0,0,0,0l0,0c0,0,0,0,0.1,0c0.4,0.3,0.8,0.7,1.2,1.1l0.1,0.1c0.7,0.6,1.3,1.3,1.9,2.1
			c0.3,0.4,0.6,0.8,0.9,1.2c0.1,0.2,0.3,0.4,0.4,0.5c0.2,0.2,0.3,0.4,0.5,0.6c0.2,0.2,0.3,0.4,0.5,0.6c0.1,0.1,0.1,0.1,0.1,0.2
			c0.1,0.1,0.2,0.3,0.3,0.4c0,0,0,0,0,0c0,0,0.1,0.1,0.1,0.1c0,0,0,0,0,0c0,0.1,0.3,0.5,0.6,0.8c0.1,0.2,0.3,0.4,0.3,0.5
			c0.2,0.3,0.3,0.5,0.4,0.9c0.1-0.5,0.2-1.1,0.3-1.3l0,0c0-0.1,0-0.7,0.3-1.4c0,0,0.2-1.3,0.2-1.9c0-0.6-0.2-1.9-0.4-2.6
			c-0.2-0.7-0.4-1.2-0.4-1.2c0,0,0,0,0,0c0,0,0-0.2,0.1-0.2c0,0,0,0,0,0c0,0,0.3,0.3,0.6,0.6c0.4,0.3,1.2,0.9,1.3,1c0,0,0.1,0,0.1,0
			c0,0,0,0,0,0c0,0,0,0,0,0c0,0,0,0,0,0l0,0l0,0c0,0.1,0.5,0.7,0.4,1.3c0,0,0,0,0,0c0,0-0.8,2.7-0.8,2.9c-0.1,0.2-0.6,1.5-1,2
			C139.8,167.8,139.1,169.4,138.9,169.5C138.9,169.5,138.9,169.5,138.9,169.5z M132.2,163.5C132.2,163.5,132.2,163.5,132.2,163.5
			C132.2,163.5,132.3,163.5,132.2,163.5L132.2,163.5C132.3,163.5,132.3,163.5,132.2,163.5L132.2,163.5
			C132.3,163.5,132.3,163.6,132.2,163.5L132.2,163.5c0.1,0.1,0.1,0.1,0.1,0.1l0,0.1c0,0,0,0,0.1,0.1l0,0c0,0,0,0,0,0c0,0,0,0,0,0.1
			c0.1,0.2,0.3,0.3,0.5,0.5c0.6,0.6,1.2,1.1,1.7,1.6c0.5,0.5,1,0.9,1.5,1.4c0.5,0.4,1,0.8,1.5,1.1c0.4,0.3,0.8,0.6,1.2,0.9
			c0.2-0.1,0.9-1.7,0.9-1.8c0,0,0,0,0,0c0.4-0.5,0.9-1.8,1-2c0.1-0.2,0.8-2.8,0.8-2.9c0-0.6-0.4-1.2-0.4-1.3c0,0,0,0,0,0
			c0,0,0,0-0.1,0c-0.1,0-1-0.7-1.3-1c-0.3-0.3-0.6-0.5-0.6-0.6c-0.1,0.1-0.1,0.2-0.1,0.2c0,0.1,0.2,0.5,0.4,1.2
			c0.2,0.7,0.4,2,0.4,2.6c0,0.6-0.2,1.9-0.2,1.9c-0.2,0.8-0.3,1.3-0.3,1.4c0,0,0,0,0,0c-0.1,0.2-0.2,0.9-0.3,1.3c0,0,0,0,0,0
			c0,0,0,0,0,0c-0.1-0.4-0.2-0.6-0.4-0.9c-0.1-0.1-0.2-0.3-0.3-0.5c-0.2-0.3-0.5-0.7-0.6-0.8c-0.1,0-0.1-0.1-0.1-0.1
			c-0.1-0.1-0.2-0.3-0.3-0.4c0-0.1-0.1-0.1-0.1-0.2c-0.2-0.2-0.3-0.4-0.5-0.6c-0.2-0.2-0.3-0.4-0.5-0.6c-0.1-0.2-0.3-0.4-0.4-0.5
			c-0.3-0.4-0.6-0.8-0.9-1.2c-0.6-0.7-1.2-1.4-1.9-2.1l-0.1-0.1c-0.4-0.4-0.8-0.8-1.2-1.1c0,0,0,0,0,0l0,0c0,0,0,0,0,0l0,0
			c0,0,0,0,0,0c0,0,0,0,0,0c0,0,0,0,0,0c0,0,0,0,0,0l0,0c0,0,0,0,0,0c0,0,0,0,0,0l0,0c0,0,0,0,0,0l0,0c0,0,0,0,0,0c0,0,0,0,0,0l0,0
			c0,0,0,0,0,0l0,0c-0.1,0.5-0.3,1-0.6,1.4l0,0c0,0,0,0,0,0.1c0,0.1,0.1,0.3,0.2,0.5c0,0.1,0.1,0.2,0.1,0.2c0,0,0,0,0,0
			c0,0,0,0.1,0,0.1l0,0.1c0,0,0,0.1,0,0.1c0,0,0,0,0,0l0,0c0,0,0,0,0,0l0,0c0,0,0,0,0,0l0,0c0,0,0,0,0,0l0,0c0,0,0,0,0,0l0,0
			c0,0,0,0,0,0l0,0.1c0.2,0.4,0.4,0.7,0.5,0.7c0,0,0,0,0,0c0,0,0,0,0,0.1c0,0,0.1,0,0.1,0.1l0,0c0,0,0,0,0,0c0,0,0,0,0,0
			c0,0,0,0,0.1,0.1C132.2,163.4,132.2,163.5,132.2,163.5z M132.2,163.5L132.2,163.5L132.2,163.5z M132.2,163.5L132.2,163.5
			L132.2,163.5z M132.2,163.5C132.2,163.5,132.2,163.5,132.2,163.5C132.2,163.5,132.2,163.5,132.2,163.5z M132.2,163.5
			C132.2,163.5,132.2,163.5,132.2,163.5C132.2,163.5,132.2,163.5,132.2,163.5z M132.2,163.5C132.2,163.5,132.2,163.5,132.2,163.5
			C132.2,163.5,132.2,163.5,132.2,163.5z M132.2,163.5C132.2,163.5,132.2,163.5,132.2,163.5C132.2,163.5,132.2,163.5,132.2,163.5z
			 M132.2,163.5C132.2,163.5,132.2,163.5,132.2,163.5C132.2,163.5,132.2,163.5,132.2,163.5z"/>
	</g>
	<g>
		<g>
			<path class="st13" d="M131.2,161.7c-0.1-0.2-0.1-0.4-0.2-0.5C131.1,161.3,131.2,161.5,131.2,161.7z"/>
			<path class="st37" d="M131.2,161.7C131.2,161.7,131.2,161.7,131.2,161.7c-0.1-0.2-0.1-0.4-0.2-0.5c0,0,0,0,0,0c0,0,0,0,0,0
				C131.1,161.3,131.2,161.5,131.2,161.7C131.2,161.7,131.2,161.7,131.2,161.7C131.2,161.7,131.2,161.7,131.2,161.7z"/>
		</g>
		<g>
			<path class="st13" d="M131.4,162.2c0-0.1,0-0.1-0.1-0.2C131.4,162.1,131.4,162.2,131.4,162.2z"/>
			<path class="st37" d="M131.4,162.3C131.4,162.3,131.4,162.3,131.4,162.3c0-0.1-0.1-0.2-0.1-0.2c0,0,0,0,0,0c0,0,0,0,0,0
				L131.4,162.3C131.4,162.2,131.4,162.2,131.4,162.3C131.4,162.3,131.4,162.3,131.4,162.3C131.4,162.3,131.4,162.3,131.4,162.3z"/>
		</g>
		<g>
			<path class="st13" d="M132.1,163.3C132,163.3,132,163.3,132.1,163.3C132,163.3,132,163.3,132.1,163.3z"/>
			<path class="st37" d="M132.1,163.3C132.1,163.3,132.1,163.3,132.1,163.3L132.1,163.3c-0.1,0-0.1-0.1-0.1-0.1c0,0,0,0,0,0
				c0,0,0,0,0,0C132,163.2,132,163.3,132.1,163.3L132.1,163.3C132.1,163.3,132.1,163.3,132.1,163.3
				C132.1,163.3,132.1,163.3,132.1,163.3z"/>
		</g>
		<g>
			<path class="st13" d="M132.2,163.5C132.2,163.5,132.2,163.5,132.2,163.5c0,0-0.1-0.1-0.1-0.1c0,0,0,0,0,0
				C132.2,163.5,132.2,163.5,132.2,163.5z"/>
			<path class="st37" d="M132.2,163.5L132.2,163.5C132.2,163.5,132.2,163.5,132.2,163.5c0,0-0.1-0.1-0.1-0.1l0,0c0,0,0,0,0,0
				c0,0,0,0,0,0C132.2,163.5,132.2,163.5,132.2,163.5C132.2,163.5,132.2,163.5,132.2,163.5z M132.2,163.5L132.2,163.5L132.2,163.5z"
				/>
		</g>
		<g>
			<path class="st13" d="M132.2,163.5C132.2,163.5,132.2,163.5,132.2,163.5C132.2,163.5,132.2,163.5,132.2,163.5z"/>
			<path class="st37" d="M132.2,163.5C132.2,163.5,132.2,163.5,132.2,163.5C132.2,163.5,132.2,163.5,132.2,163.5
				C132.2,163.5,132.2,163.5,132.2,163.5C132.2,163.5,132.2,163.5,132.2,163.5C132.2,163.5,132.3,163.5,132.2,163.5
				C132.3,163.5,132.3,163.5,132.2,163.5C132.3,163.5,132.2,163.5,132.2,163.5z"/>
		</g>
		<g>
			<path class="st13" d="M132.4,163.7c0,0-0.1-0.1-0.1-0.1C132.3,163.7,132.4,163.7,132.4,163.7z"/>
			<path class="st37" d="M132.4,163.8C132.4,163.8,132.4,163.8,132.4,163.8c-0.1-0.1-0.1-0.1-0.1-0.1c0,0,0,0,0,0c0,0,0,0,0,0l0,0.1
				C132.4,163.7,132.4,163.7,132.4,163.8C132.4,163.7,132.4,163.7,132.4,163.8C132.4,163.8,132.4,163.8,132.4,163.8z"/>
		</g>
		<g>
			<path class="st13" d="M131.7,159.4C131.7,159.4,131.7,159.4,131.7,159.4L131.7,159.4C131.7,159.4,131.7,159.4,131.7,159.4
				C131.7,159.4,131.7,159.4,131.7,159.4z"/>
			<path class="st37" d="M131.7,159.5C131.7,159.5,131.7,159.5,131.7,159.5L131.7,159.5C131.7,159.4,131.7,159.4,131.7,159.5
				C131.7,159.4,131.7,159.4,131.7,159.5L131.7,159.5c0-0.1,0-0.1,0-0.1C131.7,159.4,131.7,159.4,131.7,159.5
				C131.7,159.4,131.7,159.4,131.7,159.5C131.7,159.4,131.7,159.4,131.7,159.5L131.7,159.5C131.7,159.4,131.7,159.5,131.7,159.5
				C131.7,159.5,131.7,159.5,131.7,159.5C131.7,159.5,131.7,159.5,131.7,159.5z"/>
		</g>
		<g>
			<path class="st13" d="M131.8,159.5C131.8,159.5,131.8,159.5,131.8,159.5C131.8,159.4,131.8,159.5,131.8,159.5z"/>
			<path class="st37" d="M131.8,159.5C131.8,159.5,131.8,159.5,131.8,159.5L131.8,159.5L131.8,159.5
				C131.8,159.5,131.8,159.5,131.8,159.5C131.8,159.5,131.8,159.4,131.8,159.5C131.8,159.4,131.8,159.4,131.8,159.5
				C131.8,159.4,131.8,159.4,131.8,159.5C131.8,159.4,131.8,159.5,131.8,159.5C131.8,159.5,131.8,159.5,131.8,159.5z"/>
		</g>
	</g>
	<g>
		<path class="st13" d="M142.6,162.5c0.1,0.7,0.1,1.4,0.2,2.1c0.1,1.5,0.1,3-0.1,4.5c-0.4,0.1-0.7,0.1-1.1,0.2
			c-0.7,0.1-1.5,0.2-2.2,0.3c0,0,0,0,0,0l-0.5,0.1c0,0,0.1-0.2,0.2-0.4c0,0,0-0.1,0-0.1c0-0.1,0.1-0.1,0.1-0.2
			c0.1-0.3,0.2-0.5,0.3-0.8c0.4-0.7,0.9-1.3,1.3-2.5c0.2-1,0.6-1.9,0.8-2.9c-0.1-0.5-0.2-0.9-0.4-1.3c0.2,0.1,0.5,0.2,0.7,0.3
			c0.1,0,0.1,0.1,0.2,0.1c0.1,0.1,0.2,0.1,0.2,0.2C142.5,162.1,142.5,162.4,142.6,162.5z"/>
		<path class="st12" d="M139.4,169.6l-0.5,0.1c0,0,0,0,0,0c0,0,0,0,0,0c0,0,0.1-0.2,0.2-0.4c0,0,0,0,0-0.1c0-0.1,0-0.1,0.1-0.1
			c0,0,0,0,0.1-0.1c0-0.1,0.1-0.2,0.1-0.3c0.1-0.2,0.1-0.3,0.2-0.5c0.1-0.2,0.3-0.5,0.4-0.7c0.3-0.5,0.6-1,0.9-1.8
			c0.1-0.5,0.3-1,0.4-1.4c0.1-0.5,0.3-1,0.4-1.5c-0.1-0.5-0.2-0.9-0.4-1.3c0,0,0,0,0,0c0,0,0,0,0,0c0.3,0.1,0.5,0.2,0.7,0.3
			c0,0,0,0,0,0c0,0,0.1,0,0.1,0c0,0,0,0,0,0c0,0,0.1,0,0.1,0.1c0,0,0.1,0.1,0.1,0.1c0,0,0.1,0.1,0.1,0.2c0,0.1,0.1,0.2,0.1,0.3
			c0,0,0,0,0,0c0.1,0.6,0.1,1.2,0.1,1.7c0,0.1,0,0.3,0,0.4c0.1,1.5,0.1,3-0.1,4.5c0,0,0,0,0,0c-0.2,0-0.4,0.1-0.5,0.1
			c-0.2,0-0.4,0.1-0.6,0.1c-0.4,0.1-0.8,0.1-1.2,0.2C140.1,169.5,139.7,169.6,139.4,169.6C139.4,169.6,139.4,169.6,139.4,169.6
			C139.4,169.6,139.4,169.6,139.4,169.6z M138.9,169.6l0.5-0.1c0,0,0,0,0,0c0.3,0,0.7-0.1,1-0.1c0.4-0.1,0.8-0.1,1.2-0.2
			c0.2,0,0.4-0.1,0.6-0.1c0.2,0,0.4-0.1,0.5-0.1c0.1-1.4,0.1-2.9,0.1-4.4c0-0.1,0-0.3,0-0.4c0-0.6-0.1-1.2-0.1-1.7
			c0-0.1-0.1-0.2-0.1-0.3c0-0.1-0.1-0.2-0.1-0.2c0,0-0.1-0.1-0.1-0.1c0,0-0.1,0-0.1-0.1c-0.1,0-0.1,0-0.1-0.1c0,0,0,0,0,0
			c-0.2-0.1-0.4-0.2-0.7-0.3c0.2,0.4,0.3,0.8,0.4,1.3c0,0,0,0,0,0c-0.1,0.5-0.3,1-0.4,1.5c-0.1,0.5-0.3,1-0.4,1.4
			c-0.3,0.8-0.6,1.4-0.9,1.8c-0.1,0.2-0.3,0.5-0.4,0.7c-0.1,0.1-0.1,0.3-0.2,0.5c0,0.1-0.1,0.2-0.1,0.3c0,0.1,0,0.1-0.1,0.1
			c0,0,0,0,0,0.1c0,0,0,0,0,0c0,0,0,0,0,0.1C139,169.4,139,169.6,138.9,169.6z"/>
	</g>
	<g>
		<path class="st38" d="M139.4,169.5c-0.2,0.1-0.3-0.1-0.3-0.3C139.3,169,139.6,169.1,139.4,169.5z"/>
	</g>
</g>
</svg>
