<svg id="katman_1" data-name="katman 1" xmlns="http://www.w3.org/2000/svg" viewBox="0 0 335 168.58"><defs><style>.cls-1{fill:#4754a0;}.cls-2{fill:#1d1d1b;}.cls-3{fill:#fff;}</style></defs><path class="cls-1" d="M336.62,286.1s33.06-47,97.9-47,108.06,43.22,108.06,43.22h13v6.33Z" transform="translate(-240 -211)"/><path class="cls-2" d="M312.92,319.06h-72.8l2.44-3.41c22-30.81,71.93-31.17,74.05-31.17H412.9c15.69,0,28.15-28.65,28.28-28.94l4,1.7c-.56,1.29-13.74,31.57-32.25,31.57H316.61c-.48,0-45.87.34-67.85,25.93h64.16c.13,0,12.76-.12,20.65-8l3.05,3.06C327.45,319,313.51,319.06,312.92,319.06Z" transform="translate(-240 -211)"/><rect class="cls-2" y="116.71" width="77.81" height="4.32"/><rect class="cls-2" y="129.68" width="77.81" height="4.32"/><rect class="cls-2" x="12.97" y="142.65" width="110.23" height="4.32"/><path class="cls-2" d="M546.47,358H415.06v-4.32H546.47a32.12,32.12,0,0,0,16.58-4.34c5.06-3,7.63-6.67,7.63-10.79V319.06H559.87v-4.32H575v23.78c0,5.66-3.36,10.68-9.72,14.5A36.49,36.49,0,0,1,546.47,358Z" transform="translate(-240 -211)"/><path class="cls-3" d="M415.06,355.81a28.31,28.31,0,1,0-2.2,4.19" transform="translate(-240 -211)"/><path class="cls-2" d="M389.13,375.26a30.27,30.27,0,1,1,27.93-18.62l-4-1.66a25.93,25.93,0,1,0-23.94,16A25.68,25.68,0,0,0,411,358.85l3.66,2.3A30,30,0,0,1,389.13,375.26Z" transform="translate(-240 -211)"/><circle class="cls-3" cx="278.81" cy="134" r="28.1"/><path class="cls-2" d="M518.81,375.26A30.26,30.26,0,1,1,549.06,345,30.29,30.29,0,0,1,518.81,375.26Zm0-56.2A25.94,25.94,0,1,0,544.74,345,26,26,0,0,0,518.81,319.06Z" transform="translate(-240 -211)"/><rect class="cls-2" y="164.26" width="332.84" height="4.32"/><path class="cls-2" d="M466.94,355.81A30.48,30.48,0,0,1,412.86,360a25.74,25.74,0,0,0,2.2-4.19Z" transform="translate(-240 -211)"/><path class="cls-2" d="M438.84,376.68A32.4,32.4,0,0,1,411,361.13l-.71-1.16.74-1.14a24.46,24.46,0,0,0,2-3.85l.55-1.33h56.55l-1.24,3A32.48,32.48,0,0,1,438.84,376.68ZM415.41,360a28.33,28.33,0,0,0,48.08-2h-47C416.15,358.64,415.8,359.31,415.41,360Z" transform="translate(-240 -211)"/><path class="cls-2" d="M332.94,355.81a30.44,30.44,0,0,1-56.2,0Z" transform="translate(-240 -211)"/><path class="cls-2" d="M304.84,376.7a32.52,32.52,0,0,1-30.09-20.06l-1.25-3h62.68l-1.25,3A32.52,32.52,0,0,1,304.84,376.7ZM280.19,358a28.28,28.28,0,0,0,49.29,0Z" transform="translate(-240 -211)"/><path class="cls-2" d="M491.83,318l-3.69-2.25c8.47-13.85,27.92-14,28.75-14h43c5.67,0,9.85-11.59,10.87-15.65l4.2,1.05c-.49,1.94-5,18.93-15.07,18.93h-43C516.71,306.1,499,306.27,491.83,318Z" transform="translate(-240 -211)"/><rect class="cls-2" x="326.45" y="245.06" width="4.32" height="18.34" transform="translate(-323.52 95.83) rotate(-45)"/><rect class="cls-2" x="172.9" width="4.32" height="13.49"/><rect class="cls-2" x="533.67" y="245.84" width="13.49" height="4.32" transform="translate(-237.66 290.04) rotate(-49.84)"/></svg>