<svg xmlns="http://www.w3.org/2000/svg" xmlns:xlink="http://www.w3.org/1999/xlink" viewBox="0 0 1920 1081.14"><defs><style>.cls-1{isolation:isolate;}.cls-2{fill:#faf9f5;}.cls-3{fill:url(#linear-gradient);}.cls-4{fill:#95b0dd;}.cls-5{fill:#beceeb;}.cls-6{fill:#dce4f5;}.cls-7{fill:url(#linear-gradient-2);}.cls-8{fill:url(#linear-gradient-3);}.cls-9{fill:url(#linear-gradient-4);}.cls-10{fill:url(#linear-gradient-5);}.cls-11{fill:url(#linear-gradient-6);}.cls-12{fill:url(#linear-gradient-7);}.cls-13{fill:url(#linear-gradient-8);}.cls-14{fill:url(#linear-gradient-9);}.cls-15{fill:url(#linear-gradient-10);}.cls-16{fill:url(#linear-gradient-11);}.cls-17{fill:url(#linear-gradient-12);}.cls-18{fill:url(#linear-gradient-13);}.cls-19{fill:url(#linear-gradient-14);}.cls-20{fill:url(#linear-gradient-15);}.cls-21{fill:url(#linear-gradient-16);}.cls-22{fill:url(#linear-gradient-17);}.cls-23{fill:url(#linear-gradient-18);}.cls-24{fill:url(#linear-gradient-19);}.cls-25{fill:url(#linear-gradient-20);}.cls-26{fill:url(#linear-gradient-21);}.cls-27{fill:url(#linear-gradient-22);}.cls-28{fill:url(#linear-gradient-23);}.cls-29{fill:url(#linear-gradient-24);}.cls-30{fill:url(#linear-gradient-25);}.cls-31{fill:url(#linear-gradient-26);}.cls-32{fill:url(#linear-gradient-27);}.cls-33{fill:url(#linear-gradient-28);}.cls-34{fill:url(#linear-gradient-29);}.cls-35{fill:url(#linear-gradient-30);}.cls-36{fill:url(#linear-gradient-31);}.cls-37{fill:url(#linear-gradient-32);}.cls-38{fill:#8093ca;}.cls-114,.cls-39,.cls-45,.cls-56,.cls-77{fill:#fff;}.cls-40{fill:url(#linear-gradient-33);}.cls-41{fill:url(#linear-gradient-34);}.cls-42{fill:url(#linear-gradient-35);}.cls-43{fill:url(#linear-gradient-36);}.cls-44{opacity:0.7;}.cls-45,.cls-46{opacity:0.6;}.cls-47{fill:url(#linear-gradient-37);}.cls-48{fill:url(#linear-gradient-38);}.cls-49{fill:url(#linear-gradient-39);}.cls-50{fill:url(#linear-gradient-40);}.cls-51{fill:url(#linear-gradient-41);}.cls-52{fill:url(#linear-gradient-42);}.cls-53{fill:url(#linear-gradient-43);}.cls-54{fill:url(#linear-gradient-44);}.cls-55,.cls-77{opacity:0.68;}.cls-56{mix-blend-mode:soft-light;}.cls-57{fill:url(#linear-gradient-45);}.cls-58{fill:url(#linear-gradient-46);}.cls-59{fill:url(#linear-gradient-47);}.cls-60{fill:url(#linear-gradient-48);}.cls-61{fill:url(#linear-gradient-49);}.cls-62{fill:url(#linear-gradient-50);}.cls-63{fill:url(#linear-gradient-51);}.cls-64{fill:url(#linear-gradient-52);}.cls-65{fill:url(#linear-gradient-53);}.cls-66{fill:url(#linear-gradient-54);}.cls-67{fill:url(#linear-gradient-55);}.cls-68{fill:url(#linear-gradient-56);}.cls-69{fill:url(#linear-gradient-57);}.cls-70{fill:url(#linear-gradient-58);}.cls-71{fill:url(#linear-gradient-59);}.cls-72{fill:url(#linear-gradient-60);}.cls-73{fill:url(#linear-gradient-61);}.cls-74{fill:url(#linear-gradient-62);}.cls-75{fill:url(#linear-gradient-63);}.cls-76{fill:url(#linear-gradient-64);}.cls-78{fill:url(#linear-gradient-65);}.cls-79{fill:url(#linear-gradient-66);}.cls-80{fill:url(#linear-gradient-67);}.cls-81{fill:url(#linear-gradient-68);}.cls-82{fill:url(#linear-gradient-69);}.cls-83{fill:url(#linear-gradient-70);}.cls-84{fill:url(#linear-gradient-71);}.cls-85{fill:url(#linear-gradient-72);}.cls-86{fill:url(#linear-gradient-73);}.cls-87{fill:url(#linear-gradient-74);}.cls-88{fill:url(#linear-gradient-75);}.cls-89{fill:url(#linear-gradient-76);}.cls-90{fill:url(#linear-gradient-77);}.cls-91{fill:url(#linear-gradient-78);}.cls-92{fill:url(#linear-gradient-79);}.cls-93{fill:url(#linear-gradient-80);}.cls-94{fill:url(#linear-gradient-81);}.cls-95{fill:url(#linear-gradient-82);}.cls-96{fill:url(#linear-gradient-83);}.cls-97{fill:url(#linear-gradient-84);}.cls-98{fill:url(#linear-gradient-85);}.cls-99{fill:url(#linear-gradient-86);}.cls-100{fill:url(#linear-gradient-87);}.cls-101{fill:url(#linear-gradient-88);}.cls-102{fill:url(#linear-gradient-89);}.cls-103{fill:url(#linear-gradient-90);}.cls-104{fill:url(#linear-gradient-91);}.cls-105{fill:url(#linear-gradient-92);}.cls-106{fill:url(#linear-gradient-93);}.cls-107{fill:url(#linear-gradient-94);}.cls-108{fill:url(#linear-gradient-95);}.cls-109{fill:url(#linear-gradient-96);}.cls-110{fill:url(#linear-gradient-97);}.cls-111{fill:url(#linear-gradient-98);}.cls-112{fill:url(#linear-gradient-99);}.cls-113{fill:url(#linear-gradient-100);}.cls-114{opacity:0.71;}.cls-115{fill:url(#linear-gradient-101);}.cls-116{fill:url(#linear-gradient-102);}.cls-117{fill:url(#linear-gradient-103);}.cls-118{fill:url(#linear-gradient-104);}.cls-119{fill:url(#linear-gradient-105);}.cls-120{fill:url(#linear-gradient-106);}.cls-121{fill:url(#linear-gradient-107);}.cls-122{fill:url(#linear-gradient-108);}.cls-123{fill:url(#linear-gradient-109);}.cls-124{fill:url(#linear-gradient-110);}.cls-125{fill:url(#linear-gradient-111);}.cls-126{fill:url(#linear-gradient-112);}.cls-127{fill:url(#linear-gradient-113);}.cls-128{fill:url(#linear-gradient-114);}.cls-129{fill:url(#linear-gradient-115);}.cls-130{fill:url(#linear-gradient-116);}.cls-131{fill:url(#linear-gradient-117);}.cls-132{fill:url(#linear-gradient-118);}.cls-133{fill:url(#linear-gradient-119);}.cls-134{fill:url(#linear-gradient-120);}.cls-135{fill:url(#linear-gradient-121);}.cls-136{fill:url(#linear-gradient-122);}.cls-137{fill:url(#linear-gradient-123);}.cls-138{fill:url(#linear-gradient-124);}.cls-139{fill:url(#linear-gradient-125);}.cls-140{fill:url(#linear-gradient-126);}.cls-141{fill:url(#linear-gradient-127);}.cls-142{fill:url(#linear-gradient-128);}.cls-143{fill:url(#linear-gradient-129);}.cls-144{fill:url(#linear-gradient-130);}.cls-145{fill:url(#linear-gradient-131);}.cls-146{fill:url(#linear-gradient-132);}.cls-147{fill:#fefefe;}.cls-148{fill:#182742;}.cls-149{fill:#181b1e;}.cls-150{fill:none;stroke:#020202;stroke-miterlimit:10;}</style><linearGradient id="linear-gradient" x1="1309.88" y1="728.62" x2="1915.35" y2="728.62" gradientTransform="matrix(1, -0.07, 0.07, 1.02, -179.92, -112.2)" gradientUnits="userSpaceOnUse"><stop offset="0" stop-color="#dae1f3"/><stop offset="1" stop-color="#e9effa"/></linearGradient><linearGradient id="linear-gradient-2" x1="1395.6" y1="560.4" x2="1688.21" y2="359.44" gradientUnits="userSpaceOnUse"><stop offset="0" stop-color="#40509e"/><stop offset="1" stop-color="#4857a3"/></linearGradient><linearGradient id="linear-gradient-3" x1="7575.65" y1="703.63" x2="7476.67" y2="811.29" gradientTransform="translate(-6098.68)" gradientUnits="userSpaceOnUse"><stop offset="0" stop-color="#232451"/><stop offset="1" stop-color="#2a307b"/></linearGradient><linearGradient id="linear-gradient-4" x1="7543.52" y1="711.63" x2="7552.31" y2="711.63" gradientTransform="translate(-6098.68)" gradientUnits="userSpaceOnUse"><stop offset="0" stop-color="#f2908f"/><stop offset="1" stop-color="#f6b2b2"/></linearGradient><linearGradient id="linear-gradient-5" x1="7583.44" y1="581.88" x2="7499.22" y2="696.03" xlink:href="#linear-gradient-3"/><linearGradient id="linear-gradient-6" x1="7553.44" y1="683.22" x2="7454.46" y2="790.88" xlink:href="#linear-gradient-3"/><linearGradient id="linear-gradient-7" x1="7511.83" y1="711.18" x2="7519.43" y2="711.18" xlink:href="#linear-gradient-4"/><linearGradient id="linear-gradient-8" x1="7568.43" y1="570.8" x2="7484.21" y2="684.96" xlink:href="#linear-gradient-3"/><linearGradient id="linear-gradient-9" x1="1423.12" y1="497.41" x2="1496.37" y2="633.56" gradientUnits="userSpaceOnUse"><stop offset="0" stop-color="#ee7065"/><stop offset="1" stop-color="#f2908f"/></linearGradient><linearGradient id="linear-gradient-10" x1="-4432.41" y1="429.93" x2="-4416.89" y2="474.25" gradientTransform="matrix(-1, 0, 0, 1, -2913.4, 0)" xlink:href="#linear-gradient-4"/><linearGradient id="linear-gradient-11" x1="1394.78" y1="512.66" x2="1468.03" y2="648.8" xlink:href="#linear-gradient-9"/><linearGradient id="linear-gradient-12" x1="1439.24" y1="473.45" x2="1434.79" y2="504.32" gradientTransform="matrix(1, 0, 0, 1, 0, 0)" xlink:href="#linear-gradient-4"/><linearGradient id="linear-gradient-13" x1="-59.84" y1="3071.13" x2="-69.85" y2="3041.09" gradientTransform="matrix(0.75, -0.67, 0.67, 0.75, -324.02, -1733.16)" xlink:href="#linear-gradient-4"/><linearGradient id="linear-gradient-14" x1="-148.67" y1="2780.2" x2="-141.64" y2="2820.26" gradientTransform="matrix(0.75, -0.67, 0.67, 0.75, -324.02, -1733.16)" xlink:href="#linear-gradient-3"/><linearGradient id="linear-gradient-15" x1="-67.49" y1="3073.68" x2="-77.5" y2="3043.64" gradientTransform="matrix(0.75, -0.67, 0.67, 0.75, -324.02, -1733.16)" xlink:href="#linear-gradient-4"/><linearGradient id="linear-gradient-16" x1="1407.56" y1="650.35" x2="1389.29" y2="519.14" gradientTransform="matrix(1, 0, 0, 1, 0, 0)" xlink:href="#linear-gradient-4"/><linearGradient id="linear-gradient-17" x1="1405.39" y1="637.73" x2="1390.81" y2="533.02" gradientTransform="matrix(1, 0, 0, 1, 0, 0)" xlink:href="#linear-gradient-4"/><linearGradient id="linear-gradient-18" x1="1438.6" y1="563.41" x2="1447.77" y2="340.39" gradientUnits="userSpaceOnUse"><stop offset="0" stop-color="#e2473d"/><stop offset="1" stop-color="#e9615a"/></linearGradient><linearGradient id="linear-gradient-19" x1="1447.29" y1="472.25" x2="1443.4" y2="514.24" xlink:href="#linear-gradient-9"/><linearGradient id="linear-gradient-20" x1="1432.36" y1="470.86" x2="1428.47" y2="512.85" xlink:href="#linear-gradient-9"/><linearGradient id="linear-gradient-21" x1="1430.76" y1="503.02" x2="1474.4" y2="482.08" xlink:href="#linear-gradient-18"/><linearGradient id="linear-gradient-22" x1="1510.57" y1="485.83" x2="1561.82" y2="485.83" gradientTransform="matrix(1, 0, 0, 1, 0, 0)" xlink:href="#linear-gradient"/><linearGradient id="linear-gradient-23" x1="1514.19" y1="467.87" x2="1558.69" y2="467.87" gradientTransform="matrix(1, 0, 0, 1, 0, 0)" xlink:href="#linear-gradient"/><linearGradient id="linear-gradient-24" x1="1514.19" y1="475.33" x2="1558.69" y2="475.33" gradientTransform="matrix(1, 0, 0, 1, 0, 0)" xlink:href="#linear-gradient"/><linearGradient id="linear-gradient-25" x1="1514.19" y1="482.83" x2="1558.69" y2="482.83" gradientTransform="matrix(1, 0, 0, 1, 0, 0)" xlink:href="#linear-gradient"/><linearGradient id="linear-gradient-26" x1="1514.19" y1="490.58" x2="1558.69" y2="490.58" gradientTransform="matrix(1, 0, 0, 1, 0, 0)" xlink:href="#linear-gradient"/><linearGradient id="linear-gradient-27" x1="1513.98" y1="498.45" x2="1558.48" y2="498.45" gradientTransform="matrix(1, 0, 0, 1, 0, 0)" xlink:href="#linear-gradient"/><linearGradient id="linear-gradient-28" x1="1513.94" y1="506.83" x2="1558.44" y2="506.83" gradientTransform="matrix(1, 0, 0, 1, 0, 0)" xlink:href="#linear-gradient"/><linearGradient id="linear-gradient-29" x1="1531.83" y1="404.21" x2="1530.72" y2="441.47" gradientTransform="matrix(1, 0, 0, 1, 0, 0)" xlink:href="#linear-gradient-4"/><linearGradient id="linear-gradient-30" x1="1522.18" y1="403.92" x2="1521.07" y2="441.18" gradientTransform="matrix(1, 0, 0, 1, 0, 0)" xlink:href="#linear-gradient-4"/><linearGradient id="linear-gradient-31" x1="1524.81" y1="404" x2="1523.7" y2="441.26" gradientTransform="matrix(1, 0, 0, 1, 0, 0)" xlink:href="#linear-gradient-4"/><linearGradient id="linear-gradient-32" x1="1528.16" y1="404.1" x2="1527.05" y2="441.36" gradientTransform="matrix(1, 0, 0, 1, 0, 0)" xlink:href="#linear-gradient-4"/><linearGradient id="linear-gradient-33" x1="-1281.45" y1="-1.56" x2="-1361.93" y2="126.96" gradientTransform="matrix(-0.95, -0.31, -0.31, 0.95, 41.54, -16.8)" xlink:href="#linear-gradient-3"/><linearGradient id="linear-gradient-34" x1="1960.03" y1="-31.82" x2="1930.53" y2="6.99" gradientTransform="translate(-568.58 -212.63) rotate(17.79)" xlink:href="#linear-gradient-3"/><linearGradient id="linear-gradient-35" x1="-1752.63" y1="2952.65" x2="-1780.02" y2="2988.69" gradientTransform="matrix(-0.95, -0.31, -0.31, 0.95, 547.83, -3001.93)" xlink:href="#linear-gradient-3"/><linearGradient id="linear-gradient-36" x1="-1756.08" y1="2954.86" x2="-1775" y2="2989.59" gradientTransform="matrix(-0.95, -0.31, -0.31, 0.95, 547.83, -3001.93)" xlink:href="#linear-gradient-3"/><linearGradient id="linear-gradient-37" x1="1259.4" y1="401.47" x2="1248.83" y2="436.14" xlink:href="#linear-gradient-9"/><linearGradient id="linear-gradient-38" x1="2022.93" y1="806.98" x2="2023.7" y2="832.4" gradientTransform="translate(1131.78 -1748.41) rotate(65.81)" xlink:href="#linear-gradient-4"/><linearGradient id="linear-gradient-39" x1="2005.29" y1="822.68" x2="2006.06" y2="848.1" gradientTransform="matrix(0.8, 0.6, -0.6, 0.8, 104.37, -1420.05)" xlink:href="#linear-gradient-4"/><linearGradient id="linear-gradient-40" x1="2023.2" y1="821.31" x2="2023.96" y2="846.73" gradientTransform="translate(-710.68 -579.25) rotate(5.62)" xlink:href="#linear-gradient-4"/><linearGradient id="linear-gradient-41" x1="1268.6" y1="372.22" x2="1229.81" y2="458.15" xlink:href="#linear-gradient-2"/><linearGradient id="linear-gradient-42" x1="1274.7" y1="385.99" x2="1240.48" y2="461.79" xlink:href="#linear-gradient-2"/><linearGradient id="linear-gradient-43" x1="1270.76" y1="403.91" x2="1226.96" y2="486.91" gradientTransform="translate(1348.3 -869.39) rotate(74.52)" xlink:href="#linear-gradient-9"/><linearGradient id="linear-gradient-44" x1="1284.37" y1="602.48" x2="1190.21" y2="717.49" gradientTransform="translate(1838.24 -639) rotate(87.49)" xlink:href="#linear-gradient-2"/><linearGradient id="linear-gradient-45" x1="1275.98" y1="632.91" x2="1252.62" y2="678.8" xlink:href="#linear-gradient-9"/><linearGradient id="linear-gradient-46" x1="1251.12" y1="563.86" x2="1261.13" y2="627.27" xlink:href="#linear-gradient-9"/><linearGradient id="linear-gradient-47" x1="1233.97" y1="568.53" x2="1216.46" y2="613.17" xlink:href="#linear-gradient-9"/><linearGradient id="linear-gradient-48" x1="1218.51" y1="600.18" x2="1204.32" y2="619.37" xlink:href="#linear-gradient-9"/><linearGradient id="linear-gradient-49" x1="1254.27" y1="672.4" x2="1252.52" y2="583.33" xlink:href="#linear-gradient-9"/><linearGradient id="linear-gradient-50" x1="1219.08" y1="672.61" x2="1250.79" y2="655.92" xlink:href="#linear-gradient-9"/><linearGradient id="linear-gradient-51" x1="1285.72" y1="629.8" x2="1274.87" y2="651.07" xlink:href="#linear-gradient-9"/><linearGradient id="linear-gradient-52" x1="-253.81" y1="825.83" x2="-204.52" y2="878.57" gradientTransform="matrix(0.79, 0.61, -0.61, 0.79, 1911.38, 89.91)" xlink:href="#linear-gradient-9"/><linearGradient id="linear-gradient-53" x1="40.78" y1="592.4" x2="28.27" y2="647.04" gradientTransform="matrix(0, 1, -1, 0, 2229.6, 684.95)" xlink:href="#linear-gradient-3"/><linearGradient id="linear-gradient-54" x1="47.5" y1="593.94" x2="34.99" y2="648.58" gradientTransform="translate(2235.1 681.21) rotate(89.99)" xlink:href="#linear-gradient-3"/><linearGradient id="linear-gradient-55" x1="53.99" y1="595.42" x2="41.47" y2="650.06" gradientTransform="translate(2240.15 677.07) rotate(89.99)" xlink:href="#linear-gradient-3"/><linearGradient id="linear-gradient-56" x1="60.06" y1="596.81" x2="47.55" y2="651.45" gradientTransform="matrix(0, 1, -1, 0, 2244.97, 673.65)" xlink:href="#linear-gradient-3"/><linearGradient id="linear-gradient-57" x1="67.19" y1="598.44" x2="54.68" y2="653.09" gradientTransform="translate(2250.67 669.73) rotate(89.99)" xlink:href="#linear-gradient-3"/><linearGradient id="linear-gradient-58" x1="73.79" y1="599.96" x2="61.28" y2="654.6" gradientTransform="translate(2255.93 666.75) rotate(90.03)" xlink:href="#linear-gradient-3"/><linearGradient id="linear-gradient-59" x1="80.27" y1="601.44" x2="67.76" y2="656.08" gradientTransform="matrix(0, 1, -1, 0, 2260.98, 662.5)" xlink:href="#linear-gradient-3"/><linearGradient id="linear-gradient-60" x1="86.47" y1="602.86" x2="73.96" y2="657.5" gradientTransform="matrix(0, 1, -1, 0, 2266.02, 659.44)" xlink:href="#linear-gradient-3"/><linearGradient id="linear-gradient-61" x1="93.07" y1="604.37" x2="80.56" y2="659.01" gradientTransform="translate(2271.28 655.18) rotate(89.98)" xlink:href="#linear-gradient-3"/><linearGradient id="linear-gradient-62" x1="99.55" y1="605.85" x2="87.04" y2="660.5" gradientTransform="translate(2276.34 651.49) rotate(90)" xlink:href="#linear-gradient-3"/><linearGradient id="linear-gradient-63" x1="105.75" y1="607.27" x2="93.24" y2="661.92" gradientTransform="matrix(0, 1, -1, 0, 2281.38, 648.84)" xlink:href="#linear-gradient-3"/><linearGradient id="linear-gradient-64" x1="122.85" y1="611.17" x2="110.34" y2="665.82" gradientTransform="matrix(0.79, 0.61, -0.61, 0.79, 1885.48, -118.25)" xlink:href="#linear-gradient-3"/><linearGradient id="linear-gradient-65" x1="1690.69" y1="593.16" x2="1679.98" y2="760.57" xlink:href="#linear-gradient-2"/><linearGradient id="linear-gradient-66" x1="1688.21" y1="592.11" x2="1677.33" y2="762.22" xlink:href="#linear-gradient-2"/><linearGradient id="linear-gradient-67" x1="1681.62" y1="585.76" x2="1693.93" y2="585.76" gradientTransform="matrix(1, 0, 0, 1, 0, 0)" xlink:href="#linear-gradient"/><linearGradient id="linear-gradient-68" x1="1708.51" y1="567.19" x2="1681.83" y2="591.09" xlink:href="#linear-gradient-18"/><linearGradient id="linear-gradient-69" x1="1682.66" y1="585.37" x2="1692.9" y2="585.37" gradientTransform="matrix(1, 0, 0, 1, 0, 0)" xlink:href="#linear-gradient"/><linearGradient id="linear-gradient-70" x1="1693.07" y1="667.57" x2="1652.31" y2="726.4" xlink:href="#linear-gradient-9"/><linearGradient id="linear-gradient-71" x1="1675.11" y1="667.88" x2="1683.42" y2="673.77" xlink:href="#linear-gradient-18"/><linearGradient id="linear-gradient-72" x1="1720.95" y1="621.43" x2="1677.42" y2="663.56" xlink:href="#linear-gradient-9"/><linearGradient id="linear-gradient-73" x1="1692.21" y1="640.01" x2="1710.48" y2="640.01" gradientTransform="matrix(1, 0, 0, 1, 0, 0)" xlink:href="#linear-gradient"/><linearGradient id="linear-gradient-74" x1="1701.14" y1="640.58" x2="1702.17" y2="640.58" gradientTransform="matrix(1, 0, 0, 1, 0, 0)" xlink:href="#linear-gradient"/><linearGradient id="linear-gradient-75" x1="1692.85" y1="639.18" x2="1709.77" y2="639.18" gradientTransform="matrix(1, 0, 0, 1, 0, 0)" xlink:href="#linear-gradient"/><linearGradient id="linear-gradient-76" x1="1691.8" y1="648.12" x2="1710.89" y2="648.12" gradientTransform="matrix(1, 0, 0, 1, 0, 0)" xlink:href="#linear-gradient"/><linearGradient id="linear-gradient-77" x1="1709.87" y1="609.99" x2="1666.34" y2="652.11" xlink:href="#linear-gradient-9"/><linearGradient id="linear-gradient-78" x1="1692.73" y1="617.35" x2="1711" y2="617.35" gradientTransform="matrix(1, 0, 0, 1, 0, 0)" xlink:href="#linear-gradient"/><linearGradient id="linear-gradient-79" x1="1701.66" y1="617.92" x2="1702.69" y2="617.92" gradientTransform="matrix(1, 0, 0, 1, 0, 0)" xlink:href="#linear-gradient"/><linearGradient id="linear-gradient-80" x1="1693.37" y1="616.52" x2="1710.28" y2="616.52" gradientTransform="matrix(1, 0, 0, 1, 0, 0)" xlink:href="#linear-gradient"/><linearGradient id="linear-gradient-81" x1="1692.32" y1="625.46" x2="1711.41" y2="625.46" gradientTransform="matrix(1, 0, 0, 1, 0, 0)" xlink:href="#linear-gradient"/><linearGradient id="linear-gradient-82" x1="1707.06" y1="607.08" x2="1663.53" y2="649.2" xlink:href="#linear-gradient-9"/><linearGradient id="linear-gradient-83" x1="1663.73" y1="639.78" x2="1682" y2="639.78" gradientTransform="matrix(1, 0, 0, 1, 0, 0)" xlink:href="#linear-gradient"/><linearGradient id="linear-gradient-84" x1="1672.66" y1="640.35" x2="1673.69" y2="640.35" gradientTransform="matrix(1, 0, 0, 1, 0, 0)" xlink:href="#linear-gradient"/><linearGradient id="linear-gradient-85" x1="1664.37" y1="638.95" x2="1681.28" y2="638.95" gradientTransform="matrix(1, 0, 0, 1, 0, 0)" xlink:href="#linear-gradient"/><linearGradient id="linear-gradient-86" x1="1663.32" y1="647.89" x2="1682.41" y2="647.89" gradientTransform="matrix(1, 0, 0, 1, 0, 0)" xlink:href="#linear-gradient"/><linearGradient id="linear-gradient-87" x1="1695.98" y1="595.63" x2="1652.45" y2="637.76" xlink:href="#linear-gradient-9"/><linearGradient id="linear-gradient-88" x1="1664.24" y1="617.12" x2="1682.51" y2="617.12" gradientTransform="matrix(1, 0, 0, 1, 0, 0)" xlink:href="#linear-gradient"/><linearGradient id="linear-gradient-89" x1="1673.17" y1="617.69" x2="1674.2" y2="617.69" gradientTransform="matrix(1, 0, 0, 1, 0, 0)" xlink:href="#linear-gradient"/><linearGradient id="linear-gradient-90" x1="1664.88" y1="616.29" x2="1681.8" y2="616.29" gradientTransform="matrix(1, 0, 0, 1, 0, 0)" xlink:href="#linear-gradient"/><linearGradient id="linear-gradient-91" x1="1663.83" y1="625.23" x2="1682.92" y2="625.23" gradientTransform="matrix(1, 0, 0, 1, 0, 0)" xlink:href="#linear-gradient"/><linearGradient id="linear-gradient-92" x1="1730.98" y1="467.68" x2="1641.53" y2="621.63" xlink:href="#linear-gradient-2"/><linearGradient id="linear-gradient-93" x1="1756.03" y1="570.03" x2="1664.25" y2="602.75" gradientTransform="matrix(1, 0, 0, 1, 0, 0)" xlink:href="#linear-gradient-3"/><linearGradient id="linear-gradient-94" x1="1728.27" y1="560.71" x2="1655.18" y2="686.48" xlink:href="#linear-gradient-2"/><linearGradient id="linear-gradient-95" x1="1708.75" y1="626.46" x2="1728.34" y2="560.64" xlink:href="#linear-gradient-18"/><linearGradient id="linear-gradient-96" x1="1514.69" y1="145.63" x2="1555.2" y2="122.95" gradientTransform="translate(186.33 854.99) rotate(-14.26)" xlink:href="#linear-gradient-9"/><linearGradient id="linear-gradient-97" x1="1683.19" y1="635.25" x2="1621.7" y2="595.62" xlink:href="#linear-gradient-18"/><linearGradient id="linear-gradient-98" x1="1654.42" y1="588.97" x2="1654.42" y2="620.25" xlink:href="#linear-gradient-9"/><linearGradient id="linear-gradient-99" x1="1436" y1="399.04" x2="1452.88" y2="379.45" gradientTransform="translate(1165.35 -1094.95) rotate(64.33)" xlink:href="#linear-gradient-18"/><linearGradient id="linear-gradient-100" x1="1462.42" y1="365.16" x2="1412.51" y2="440.56" gradientTransform="translate(125.96 -323.74) rotate(13.28)" xlink:href="#linear-gradient-9"/><linearGradient id="linear-gradient-101" x1="1460.93" y1="367.32" x2="1434.36" y2="411.94" xlink:href="#linear-gradient-9"/><linearGradient id="linear-gradient-102" x1="1459.07" y1="398.92" x2="1488.45" y2="364.82" gradientTransform="translate(693.61 -946.26) rotate(45)" xlink:href="#linear-gradient-18"/><linearGradient id="linear-gradient-103" x1="1505.06" y1="339.94" x2="1418.17" y2="471.21" gradientTransform="translate(1255.62 -1150.92) rotate(67.5)" xlink:href="#linear-gradient-9"/><linearGradient id="linear-gradient-104" x1="1502.47" y1="343.7" x2="1456.2" y2="421.38" xlink:href="#linear-gradient-9"/><linearGradient id="linear-gradient-105" x1="1473.31" y1="448.86" x2="1503.54" y2="413.77" gradientTransform="translate(1560.58 -1145.76) rotate(76.72)" xlink:href="#linear-gradient-18"/><linearGradient id="linear-gradient-106" x1="1520.63" y1="388.17" x2="1431.22" y2="523.24" gradientTransform="translate(732.63 -942.62) rotate(45)" xlink:href="#linear-gradient-9"/><linearGradient id="linear-gradient-107" x1="1517.96" y1="392.04" x2="1470.35" y2="471.97" xlink:href="#linear-gradient-9"/><linearGradient id="linear-gradient-108" x1="1510.47" y1="408.97" x2="1532.63" y2="383.26" xlink:href="#linear-gradient-18"/><linearGradient id="linear-gradient-109" x1="1545.15" y1="364.11" x2="1479.64" y2="463.08" gradientTransform="translate(1052.34 -1122.77) rotate(58.28)" xlink:href="#linear-gradient-9"/><linearGradient id="linear-gradient-110" x1="1543.19" y1="366.95" x2="1508.31" y2="425.51" xlink:href="#linear-gradient-9"/><linearGradient id="linear-gradient-111" x1="1638.76" y1="445.6" x2="1654.61" y2="445.6" gradientTransform="matrix(1, 0, 0, 1, 0, 0)" xlink:href="#linear-gradient-3"/><linearGradient id="linear-gradient-112" x1="1728.03" y1="445.6" x2="1743.88" y2="445.6" gradientTransform="matrix(1, 0, 0, 1, 0, 0)" xlink:href="#linear-gradient-3"/><linearGradient id="linear-gradient-113" x1="1635.98" y1="404.69" x2="1651.77" y2="404.69" xlink:href="#linear-gradient-2"/><linearGradient id="linear-gradient-114" x1="-2917.68" y1="404.69" x2="-2901.47" y2="404.69" gradientTransform="matrix(-1, 0, 0, 1, -1169.63, 0)" xlink:href="#linear-gradient-2"/><linearGradient id="linear-gradient-115" x1="1691.95" y1="399.96" x2="1691.19" y2="492.35" xlink:href="#linear-gradient-2"/><linearGradient id="linear-gradient-116" x1="1642.35" y1="425.2" x2="1665.17" y2="425.2" xlink:href="#linear-gradient-9"/><linearGradient id="linear-gradient-117" x1="1718.42" y1="425.2" x2="1741.25" y2="425.2" xlink:href="#linear-gradient-9"/><linearGradient id="linear-gradient-118" x1="-1779.69" y1="592.91" x2="-1770.84" y2="615.09" gradientTransform="translate(3348.52)" xlink:href="#linear-gradient-3"/><linearGradient id="linear-gradient-119" x1="-1259.34" y1="1218.22" x2="-1297.72" y2="1181.7" gradientTransform="translate(3354.99 -331.47) rotate(-12.16)" xlink:href="#linear-gradient-4"/><linearGradient id="linear-gradient-120" x1="-1747.36" y1="734.9" x2="-1739.87" y2="734.9" gradientTransform="translate(3348.52)" xlink:href="#linear-gradient-2"/><linearGradient id="linear-gradient-121" x1="-1779.04" y1="764.47" x2="-1768.26" y2="638.37" gradientTransform="translate(3348.52)" xlink:href="#linear-gradient-4"/><linearGradient id="linear-gradient-122" x1="-1782.2" y1="733.54" x2="-1770.06" y2="733.54" gradientTransform="translate(3348.52)" xlink:href="#linear-gradient-2"/><linearGradient id="linear-gradient-123" x1="-1757.34" y1="766.35" x2="-1746.55" y2="640.21" gradientTransform="translate(3348.52)" xlink:href="#linear-gradient-4"/><linearGradient id="linear-gradient-124" x1="1568.86" y1="640.83" x2="1531.74" y2="689.22" xlink:href="#linear-gradient-9"/><linearGradient id="linear-gradient-125" x1="-1749.06" y1="639.76" x2="-1776.03" y2="682.92" gradientTransform="translate(3348.52)" xlink:href="#linear-gradient-3"/><linearGradient id="linear-gradient-126" x1="1571.49" y1="611.7" x2="1569.45" y2="641.18" gradientTransform="matrix(1, 0, 0, 1, 0, 0)" xlink:href="#linear-gradient-4"/><linearGradient id="linear-gradient-127" x1="-1771.87" y1="647.4" x2="-1758.41" y2="647.4" gradientTransform="translate(3348.52)" xlink:href="#linear-gradient-4"/><linearGradient id="linear-gradient-128" x1="-1581.67" y1="82.49" x2="-1593.35" y2="97.87" gradientTransform="translate(3357.84 -298.26) rotate(-11.2)" xlink:href="#linear-gradient-4"/><linearGradient id="linear-gradient-129" x1="-1934.13" y1="527.22" x2="-1925.29" y2="549.4" gradientTransform="translate(3357.84 -298.26) rotate(-11.2)" xlink:href="#linear-gradient-3"/><linearGradient id="linear-gradient-130" x1="-1578.42" y1="84.95" x2="-1590.1" y2="100.34" gradientTransform="translate(3357.84 -298.26) rotate(-11.2)" xlink:href="#linear-gradient-4"/><linearGradient id="linear-gradient-131" x1="-1254.01" y1="1212.62" x2="-1292.39" y2="1176.1" gradientTransform="translate(3354.99 -331.47) rotate(-12.16)" xlink:href="#linear-gradient-4"/><linearGradient id="linear-gradient-132" x1="1536.42" y1="598.53" x2="1537.16" y2="628.93" gradientTransform="matrix(1, 0, 0, 1, 0, 0)" xlink:href="#linear-gradient-4"/></defs><g class="cls-1"><g id="katman_1" data-name="katman 1"><rect class="cls-2" y="0.39" width="1920" height="1080"/><path class="cls-3" d="M1272.28,371.61C1228,414.26,1294,461,1263,485.28s-162.6,76.34-21.63,153.32S1391.87,756.8,1485,696.15s83.37-54.57,165.29-23,161.3-31,128.61-97-50.62-64-21.18-109.39S1721.59,282.09,1616.56,382s-120.69,46-170.81.9C1418.62,358.46,1342.26,304.22,1272.28,371.61Z" transform="translate(0 0.39)"/><path class="cls-4" d="M1159.48,569.8a1.16,1.16,0,0,1,.08-2.26c19.37-3.6,91.07-12.51,161.17,35.11,64.14,43.57,102,84.65,115.47,100.49a5.38,5.38,0,0,1-3.07,8.77c-23.93,4.66-91.6,14.2-130.53-17.17C1256.09,657.24,1216.4,585,1159.48,569.8Z" transform="translate(0 0.39)"/><path class="cls-5" d="M1379.44,589s-54.65-158.49-153.23-236.1c-6.63-5.22-18-1.42-20,6.72C1192.68,414,1170.15,576.67,1379.44,589Z" transform="translate(0 0.39)"/><path class="cls-6" d="M1359.87,580.85c.49.33-.09,1-.63.76-19.93-9.87-97.72-60.94-132.2-178.24-.11-.38.54-.61.69-.25C1238.69,429.93,1282.84,528.3,1359.87,580.85Z" transform="translate(0 0.39)"/><path class="cls-4" d="M1475.63,614.46s92.18-171,211.07-245.25c8-5,18.79.77,19,10.18C1707.21,442.3,1693.33,628,1475.63,614.46Z" transform="translate(0 0.39)"/><path class="cls-6" d="M1497.58,607.86a.53.53,0,0,0,.47.94c22.71-8.48,114.21-55.68,176.3-183a.38.38,0,0,0-.65-.37C1656.35,454.14,1588.63,558.91,1497.58,607.86Z" transform="translate(0 0.39)"/><path class="cls-5" d="M1724.71,565.35c-13.42,29.33-98.46,196.83-270,145.27,0,0,27.59-124.69,267.22-149.12A2.73,2.73,0,0,1,1724.71,565.35Z" transform="translate(0 0.39)"/><path class="cls-6" d="M1696.28,580.91c-7.56,7.48-15.39,14.66-23.34,21.71s-16.08,13.9-24.34,20.59-16.67,13.18-25.23,19.49l-3.2,2.36-3.24,2.32-3.25,2.32c-1.07.78-2.16,1.54-3.26,2.29l-6.56,4.53-6.63,4.42c-2.2,1.49-4.46,2.9-6.7,4.33s-4.47,2.88-6.75,4.24l-6.81,4.15-6.9,4-1.73,1-1.74,1-3.5,1.92-3.5,1.92c-1.16.65-2.35,1.23-3.53,1.85-2.37,1.21-4.72,2.45-7.1,3.65l-7.19,3.46-1.8.86-1.82.81-3.65,1.62-3.65,1.62c-1.21.55-2.46,1-3.69,1.52l-3.7,1.5-1.85.75c-.62.25-1.23.5-1.86.72l-7.51,2.73a243,243,0,0,1-30.82,8.45.93.93,0,0,1-1.08-.72.91.91,0,0,1,.72-1.08h0a240.08,240.08,0,0,0,30.61-8.26l7.48-2.68c.62-.21,1.24-.46,1.85-.71l1.84-.73,3.69-1.48c1.23-.5,2.47-1,3.68-1.49l3.64-1.6,3.63-1.6,1.82-.8,1.79-.86,7.18-3.41c2.37-1.18,4.72-2.41,7.09-3.6,1.17-.62,2.36-1.19,3.52-1.83l3.5-1.9,3.49-1.9,1.74-1,1.73-1,6.89-4,6.81-4.11c2.28-1.35,4.51-2.78,6.76-4.2s4.49-2.81,6.69-4.29l6.64-4.38,6.57-4.49c1.1-.75,2.18-1.51,3.26-2.28l3.25-2.3,3.24-2.3,3.21-2.35q12.85-9.37,25.27-19.35t24.39-20.46c8-7,15.83-14.15,23.39-21.58h0a.37.37,0,0,1,.54,0A.39.39,0,0,1,1696.28,580.91Z" transform="translate(0 0.39)"/><path class="cls-7" d="M1305.76,414.61a10.55,10.55,0,0,1,8.15-2.8c32,2.88,91.76-12.55,130.8-52.49,2.71-2.78,7.65-1.21,10.76,1.11,43.42,32.45,115.4,39.18,140.39,40.55a10.53,10.53,0,0,1,9.89,9.44c22.72,219.46-120.17,299-149.8,313a10.58,10.58,0,0,1-10.1-.59c-147.7-92-141.38-211.64-143.43-300.29A10.63,10.63,0,0,1,1305.76,414.61Z" transform="translate(0 0.39)"/><path class="cls-4" d="M1452,707.19a3.13,3.13,0,0,1-1.72-.5c-56.57-36.16-93.44-79.38-112.71-132.14-17.21-47.13-18.06-95.14-18.8-137.51,0-1.89-.07-3.78-.1-5.65a3.16,3.16,0,0,1,.91-2.28,3.2,3.2,0,0,1,2.29-.95h0c18.59,0,40.61-4.33,62-12.18,24.5-9,46.8-22.13,64.48-38a3.19,3.19,0,0,1,3.89-.28c18.24,12.1,60.07,33.22,135.37,38.77a3.19,3.19,0,0,1,2.94,2.9c7.49,85.55-10.3,157.89-52.88,215-31.8,42.65-69.51,64.87-84.25,72.45A3.19,3.19,0,0,1,1452,707.19Zm1.08-1.07.19.36-.19-.36c14.69-7.55,52.27-29.69,84-72.21,42.46-56.95,60.2-129.1,52.72-214.45a2.38,2.38,0,0,0-2.19-2.16,410.45,410.45,0,0,1-63.57-9.64c-29.1-6.94-53.38-16.79-72.19-29.26a2.35,2.35,0,0,0-2.89.21c-17.77,15.91-40.15,29.1-64.75,38.13-21.47,7.89-43.59,12.23-62.28,12.23h0a2.37,2.37,0,0,0-2.39,2.41c0,1.87.07,3.75.1,5.65.75,42.3,1.59,90.24,18.76,137.24,19.2,52.59,56,95.68,112.37,131.74A2.39,2.39,0,0,0,1453,706.12Z" transform="translate(0 0.39)"/><path class="cls-8" d="M1445.68,711.65s-1,5.81-1.53,11.55a4,4,0,0,0,3.79,4.29c7.65.32,24,.94,29.88.67a1.29,1.29,0,0,0,1.14-1.76h0a2.91,2.91,0,0,0-1.48-1.55l-27-12.43Z" transform="translate(0 0.39)"/><path class="cls-9" d="M1444.84,708.24l.82,6.94s4.74,2.21,8-.27l-2-7.74Z" transform="translate(0 0.39)"/><path class="cls-10" d="M1445.46,577.75c-.36,1.81-1.91,90.45,7.57,130.18a1.35,1.35,0,0,1-.8,1.56,23.14,23.14,0,0,1-7.71,1.57,2.32,2.32,0,0,1-2.31-1.66c-2.7-9.22-15.68-55.4-17.38-99.51-1.89-49.29,0-1.68,0-1.68l1.11-30.47Z" transform="translate(0 0.39)"/><path class="cls-11" d="M1414.59,714.68s-1.63,2.93-3.21,10.71a2.41,2.41,0,0,0,2.12,2.9c2.53.24,6.42.56,9.53.54a2.4,2.4,0,0,0,2.38-2.68,20.25,20.25,0,0,0-4.74-11.14Z" transform="translate(0 0.39)"/><path class="cls-12" d="M1413.15,705.75l1.93,10.5s1.9,1.41,5.67.39l-.92-11.3Z" transform="translate(0 0.39)"/><path class="cls-13" d="M1408,580.47c-7.75,46.77,1.68,115.59,4.86,129.06a2.08,2.08,0,0,0,1.69,1.59,14.06,14.06,0,0,0,6.07-.24,1.92,1.92,0,0,0,1.38-1.77c.43-10.89-.34-77.75,6.88-104.17a6,6,0,0,1,2.31-3.31l14-10,1.07-16.11Z" transform="translate(0 0.39)"/><path class="cls-14" d="M1457.34,491.85c-23.23-.38-48.85,6.1-48.85,6.1-6.92,40.39-1.21,87-1.21,87,18,4.71,38.26-2.88,38.26-2.88,3-16.89,16.93-64.4,16.93-64.4a76.48,76.48,0,0,0,28.39-9c-5.87-6.81-8.64-15.47-9.84-20.59A77.93,77.93,0,0,1,1457.34,491.85Z" transform="translate(0 0.39)"/><path class="cls-15" d="M1525.93,457.64a4.44,4.44,0,0,0-5.16-1.45c-3.42,14.44-21.34,26.14-39.75,31.86,1.2,5.12,4,13.78,9.84,20.59C1521.41,491.46,1525.93,457.64,1525.93,457.64Z" transform="translate(0 0.39)"/><path class="cls-16" d="M1417.4,520.43,1408.49,498s-21.69,14.74-25.26,33.42a51.46,51.46,0,0,1,18.86,5.06C1403.69,527.6,1417.4,520.43,1417.4,520.43Z" transform="translate(0 0.39)"/><path class="cls-17" d="M1433.81,473l-7.39,21.37a.77.77,0,0,0,.35.92c2,1.12,9.28,4.34,18-1.21a3.64,3.64,0,0,0,1.67-2.59l2.39-18.49Z" transform="translate(0 0.39)"/><path class="cls-18" d="M1449.89,453.21s8.12,15.27,7.07,21.44-11.09,5.73-19.87.72l-6.14-16.5Z" transform="translate(0 0.39)"/><path class="cls-19" d="M1437.47,467.27a.63.63,0,0,0,.28-.92,16.52,16.52,0,0,1-2.26-4.8s-1.46-.93,3.71-2.17,12.89-3.16,14.51-7.56-2.57-15.08-9.2-6.49a.63.63,0,0,1-1,0c-1.08-1.41-3.94-4.35-7.9-2.57-3.71,1.67-4.13,4.39-4.08,5.76a.62.62,0,0,1-.74.64c-1.87-.36-6.38-.67-8.48,3.95-1.73,3.8-.6,5.95.42,7a.63.63,0,0,1-.27,1c-1.23.38-2.82,1.42-2.66,4.31.22,4,4.68,3.64,6,3.46a.62.62,0,0,1,.56.2c1.09,1.2,6,6.32,11.32,6.94a.63.63,0,0,0,.66-.84l-2.3-6.68a.65.65,0,0,1,.34-.79Z" transform="translate(0 0.39)"/><path class="cls-20" d="M1438.4,468.22s-5.78-4-6.2-.63,5.2,4.84,8,3.59Z" transform="translate(0 0.39)"/><path class="cls-21" d="M1402.09,536.43s-7.59,34.2-.72,53.43c-8.42,3.91-6.86,3.17-6.86,3.17s-16.66-48.67-11.28-61.66C1393.83,530.25,1399.09,533.1,1402.09,536.43Z" transform="translate(0 0.39)"/><path class="cls-22" d="M1401.37,589.86s4.34,5.62,4,7.85-.43,3.15-.43,3.15-2.18-1.49-2-3.39c.3,6,2.33,12.92.49,12.59s-11.37-9.12-9.22-18.48C1399.05,588.19,1400.42,588.56,1401.37,589.86Z" transform="translate(0 0.39)"/><path class="cls-23" d="M1438.73,500.89,1446,550.3a4.8,4.8,0,0,1-.37,2.68l-5.32,11.79a1.31,1.31,0,0,1-2.45,0l-5.28-12a4.81,4.81,0,0,1-.39-2.25l3.15-49.06Z" transform="translate(0 0.39)"/><path class="cls-24" d="M1438.65,496.48l4.68,8a1.67,1.67,0,0,0,2.75.1l5.79-12.79-5.34-.88Z" transform="translate(0 0.39)"/><path class="cls-25" d="M1427.42,491.5l8.21,5-2.25,7.93a1.78,1.78,0,0,1-3,.12l-5.84-10.45Z" transform="translate(0 0.39)"/><path class="cls-26" d="M1435,496.43l4.74-.9a.32.32,0,0,1,.38.36l-1,7.5a.33.33,0,0,1-.26.28l-3.39.71a.32.32,0,0,1-.39-.3l-.39-7.32A.33.33,0,0,1,1435,496.43Z" transform="translate(0 0.39)"/><rect class="cls-5" x="1508.46" y="447.63" width="55.54" height="77.53" rx="1.33"/><path class="cls-27" d="M1560.36,521.8H1512a1.47,1.47,0,0,1-1.47-1.47v-69a1.47,1.47,0,0,1,1.47-1.47h48.32a1.46,1.46,0,0,1,1.46,1.47v69A1.46,1.46,0,0,1,1560.36,521.8ZM1512,450.14a1.19,1.19,0,0,0-1.19,1.19v69a1.19,1.19,0,0,0,1.19,1.19h48.32a1.19,1.19,0,0,0,1.19-1.19v-69a1.19,1.19,0,0,0-1.19-1.19Z" transform="translate(0 0.39)"/><rect class="cls-28" x="1514.19" y="467" width="44.49" height="1.75" rx="0.81"/><rect class="cls-29" x="1514.19" y="474.46" width="44.49" height="1.75" rx="0.81"/><rect class="cls-30" x="1514.19" y="481.95" width="44.49" height="1.75" rx="0.81"/><rect class="cls-31" x="1514.19" y="489.7" width="44.49" height="1.75" rx="0.81"/><rect class="cls-32" x="1513.98" y="497.58" width="44.49" height="1.75" rx="0.81"/><rect class="cls-33" x="1513.94" y="505.95" width="44.49" height="1.75" rx="0.81"/><path class="cls-34" d="M1531.94,444.09l1.41,6.49a1.41,1.41,0,0,1-.95,1.65h0a1.52,1.52,0,0,1-1.87-.82l-2.73-6.29a1.41,1.41,0,0,1,.07-1.28c.47-.77,1.48-1.74,3.34-.72A1.47,1.47,0,0,1,1531.94,444.09Z" transform="translate(0 0.39)"/><path class="cls-35" d="M1522,446.65l1.15,5.29a1.17,1.17,0,0,1-.78,1.35h0a1.23,1.23,0,0,1-1.52-.67l-2.24-5.13a1.14,1.14,0,0,1,.07-1.05,1.81,1.81,0,0,1,2.72-.59A1.22,1.22,0,0,1,1522,446.65Z" transform="translate(0 0.39)"/><path class="cls-36" d="M1524.77,445.9l1.3,6a1.31,1.31,0,0,1-.88,1.53h0a1.42,1.42,0,0,1-1.73-.76l-2.53-5.84a1.31,1.31,0,0,1,.06-1.19,2.08,2.08,0,0,1,3.1-.66A1.38,1.38,0,0,1,1524.77,445.9Z" transform="translate(0 0.39)"/><path class="cls-37" d="M1528.36,444.79l1.46,7.09a1.58,1.58,0,0,1-1,1.81h0a1.58,1.58,0,0,1-2-.88l-2.87-6.87a1.57,1.57,0,0,1,.09-1.4c.51-.84,1.59-1.92,3.57-.82A1.6,1.6,0,0,1,1528.36,444.79Z" transform="translate(0 0.39)"/><circle class="cls-38" cx="1243.67" cy="443.55" r="67.93"/><circle class="cls-39" cx="1243.8" cy="444.28" r="61.47"/><path class="cls-40" d="M1319.51,382.81,1263,364.1a6.18,6.18,0,0,0-7.69,3.63L1224,448.32a4.55,4.55,0,0,0,2.74,5.94l64.41,22.62a4.32,4.32,0,0,0,5.53-2.72l27.29-82.5A7,7,0,0,0,1319.51,382.81Z" transform="translate(0 0.39)"/><path class="cls-5" d="M1282.13,472.35a.16.16,0,0,1-.11-.2.16.16,0,0,1,.21-.11l7.28,2.3a4.37,4.37,0,0,0,5.46-2.79l3.62-10.94a.17.17,0,0,1,.21-.11h0a.16.16,0,0,1,.11.21l-3.62,11a4.73,4.73,0,0,1-5.88,3l-7.28-2.31Z" transform="translate(0 0.39)"/><path class="cls-5" d="M1299.82,457.42h0a.16.16,0,0,1-.1-.21l.58-1.77a.17.17,0,0,1,.21-.1h0a.17.17,0,0,1,.11.21l-.59,1.77A.17.17,0,0,1,1299.82,457.42Z" transform="translate(0 0.39)"/><path class="cls-4" d="M1319.56,382.09c-8.07-1.51-35.69-7.06-57.09-16a1.88,1.88,0,0,0-2.48,1.05L1228.38,448a2.17,2.17,0,0,0,1.21,2.8c9.06,3.6,46.38,18.29,60.41,21.35a1.71,1.71,0,0,0,2-1.12l29.12-86.32A2,2,0,0,0,1319.56,382.09Z" transform="translate(0 0.39)"/><path class="cls-5" d="M1318,384c-7.77-1.45-34.35-6.79-54.94-15.4a1.81,1.81,0,0,0-2.39,1l-30.42,77.85a2.07,2.07,0,0,0,1.17,2.69c8.71,3.47,44.63,17.6,58.13,20.55a1.66,1.66,0,0,0,1.92-1.08l28-83.07A2,2,0,0,0,1318,384Z" transform="translate(0 0.39)"/><path class="cls-41" d="M1288.66,369.13l6.6,1.56,2.48-5.71a2.63,2.63,0,0,0-.9-3.21,6,6,0,0,0-5.41-.65C1286.51,362.58,1288.66,369.13,1288.66,369.13Zm2.95-4.46a1.7,1.7,0,0,1,2.13-1.07,1.69,1.69,0,1,1-2.13,1.07Z" transform="translate(0 0.39)"/><path class="cls-5" d="M1295.35,368.15a.33.33,0,0,1-.17-.44l.4-.91a.33.33,0,0,1,.44-.17.33.33,0,0,1,.17.44l-.4.91a.34.34,0,0,1-.29.2Zm.78-1.78a.33.33,0,0,1-.17-.44l.3-.69a2,2,0,0,0-.69-2.45,4.6,4.6,0,0,0-2.09-.79.33.33,0,0,1-.29-.37.34.34,0,0,1,.37-.29,5.24,5.24,0,0,1,2.39.9,2.69,2.69,0,0,1,.92,3.27l-.3.69a.34.34,0,0,1-.3.2Z" transform="translate(0 0.39)"/><path class="cls-42" d="M1302.76,377.39l1-3a1.92,1.92,0,0,0-1.28-2.43l-20.62-6a1.84,1.84,0,0,0-2.24,1.09l-1.11,2.78Z" transform="translate(0 0.39)"/><path class="cls-39" d="M1297.24,371.51h0l-.87-.29a.16.16,0,0,1-.11-.21.17.17,0,0,1,.21-.1h0l.88.29a.17.17,0,0,1,.1.21A.16.16,0,0,1,1297.24,371.51Z" transform="translate(0 0.39)"/><path class="cls-5" d="M1302,376.27a.33.33,0,0,0,.31-.23l.39-1.2a1.88,1.88,0,0,0-.1-1.47,1.93,1.93,0,0,0-1.13-1l-3.22-1.07a.33.33,0,0,0-.42.21.32.32,0,0,0,.21.42l3.22,1.07a1.27,1.27,0,0,1,.81,1.6l-.4,1.2a.33.33,0,0,0,.22.42A.2.2,0,0,0,1302,376.27Z" transform="translate(0 0.39)"/><path class="cls-43" d="M1309.51,378.42l-35.67-11.8a2.76,2.76,0,0,0-3.32,1.32l-.09.17a2.39,2.39,0,0,0,1.35,3.39l36.6,12.1a1.55,1.55,0,0,0,2-1.05l.46-1.67A2,2,0,0,0,1309.51,378.42Z" transform="translate(0 0.39)"/><g class="cls-44"><path class="cls-39" d="M1304.19,418.56l5.15-17.73a.36.36,0,0,0-.23-.44l-50.74-17.22a.39.39,0,0,0-.28,0,.35.35,0,0,0-.18.23l-4.78,18.48a.34.34,0,0,0,.24.41l50.36,16.5h0a.35.35,0,0,0,.45-.22A.06.06,0,0,0,1304.19,418.56Zm4.36-17.6-1,3.62-50-16.89,1-3.72Zm-54.64.79,3.45-13.36,49.94,16.89-3.71,12.77Z" transform="translate(0 0.39)"/><path class="cls-39" d="M1259.44,394.05l22.74,7.46a.79.79,0,0,0,1-.57l0-.09a.93.93,0,0,0-.6-1.1L1260,392.33a.82.82,0,0,0-1,.56l0,.08A.87.87,0,0,0,1259.44,394.05Z" transform="translate(0 0.39)"/><path class="cls-39" d="M1281.47,404.34l-22.86-7.51a.82.82,0,0,0-1,.57l0,.08a.88.88,0,0,0,.56,1.1l22.93,7.55a.8.8,0,0,0,1-.58l0-.09A1,1,0,0,0,1281.47,404.34Z" transform="translate(0 0.39)"/><path class="cls-39" d="M1301.09,407.7a.79.79,0,0,0,1.05-.61,1,1,0,0,0-.67-1.17l-10-3.27a.8.8,0,0,0-1.06.6,1,1,0,0,0,.65,1.17Z" transform="translate(0 0.39)"/><path class="cls-39" d="M1301.16,411.78a1,1,0,0,0-.68-1.19l-10.07-3.31a.83.83,0,0,0-1.08.61,1,1,0,0,0,.66,1.19l10.11,3.33A.8.8,0,0,0,1301.16,411.78Z" transform="translate(0 0.39)"/><path class="cls-39" d="M1310.23,390.33a.94.94,0,0,1-1.15.64l-46.83-14.63a1,1,0,0,1-.66-1.24l0-.08a1,1,0,0,1,1.24-.66l46.82,14.72a.92.92,0,0,1,.57,1.18Z" transform="translate(0 0.39)"/><path class="cls-39" d="M1309,394.27a.94.94,0,0,1-1.15.64L1261,380.48a1,1,0,0,1-.65-1.24l0-.08a1,1,0,0,1,1.25-.66L1308.42,393a.92.92,0,0,1,.57,1.17Z" transform="translate(0 0.39)"/><path class="cls-39" d="M1257.52,419.84h0l-6.67-2.09a1.9,1.9,0,0,1-1.39-2.11l1.12-5.8a1.31,1.31,0,0,1,.58-.84,1.58,1.58,0,0,1,1.19-.2h0c.58.14,1.37.31,2.25.5,1.91.4,4.08.86,5.32,1.23h0a2,2,0,0,1,1.46,1.89,29.09,29.09,0,0,1-1.67,6.42A1.76,1.76,0,0,1,1257.52,419.84Zm-5.32-10.49a1,1,0,0,0-.75.12.75.75,0,0,0-.33.47l-1.12,5.8a1.33,1.33,0,0,0,1,1.45l6.67,2.1h0a1.17,1.17,0,0,0,1.49-.64,29.3,29.3,0,0,0,1.64-6.25,1.42,1.42,0,0,0-1.07-1.34c-1.23-.35-3.48-.83-5.29-1.22-.88-.18-1.68-.36-2.26-.49Z" transform="translate(0 0.39)"/><path class="cls-45" d="M1252.75,410.13c1.43.33,4.58.95,6,1.38a1.33,1.33,0,0,1,1,1.29,23.08,23.08,0,0,1-1.32,5.05,1.17,1.17,0,0,1-1.49.67l-5.33-1.68a1.29,1.29,0,0,1-1-1.43l.89-4.63A.92.92,0,0,1,1252.75,410.13Z" transform="translate(0 0.39)"/><g class="cls-46"><path class="cls-39" d="M1265.68,416a.79.79,0,0,0-1.1.76l0,1.39a1.54,1.54,0,0,0,1,1.44l32.68,9.93a1.08,1.08,0,0,0,1.36-.75l.11-.37a1.19,1.19,0,0,0-.76-1.42Z" transform="translate(0 0.39)"/></g><path class="cls-47" d="M1252.77,411.1h0a1.08,1.08,0,0,1,1.3.82l.6,2.77a.34.34,0,0,0,.59.15l5.49-6.3a.39.39,0,0,1,.66.37,15.12,15.12,0,0,1-7.24,8.75s-1.73-1.36-2.26-5.32A1.13,1.13,0,0,1,1252.77,411.1Z" transform="translate(0 0.39)"/><path class="cls-39" d="M1252.78,434.62h0l-6.67-2.1a1.9,1.9,0,0,1-1.39-2.11l1.12-5.79a1.26,1.26,0,0,1,.58-.84,1.54,1.54,0,0,1,1.19-.2h0l2.25.49c1.91.41,4.08.87,5.32,1.23h0a2,2,0,0,1,1.46,1.89,28.9,28.9,0,0,1-1.67,6.41A1.75,1.75,0,0,1,1252.78,434.62Zm-5.32-10.49a1,1,0,0,0-.75.11.77.77,0,0,0-.33.48l-1.12,5.79a1.34,1.34,0,0,0,1,1.46l6.67,2.1h0a1.18,1.18,0,0,0,1.49-.65,29.3,29.3,0,0,0,1.64-6.25,1.41,1.41,0,0,0-1.08-1.33c-1.22-.36-3.47-.84-5.28-1.22l-2.26-.49Z" transform="translate(0 0.39)"/><path class="cls-45" d="M1248,424.91c1.43.33,4.58.95,6,1.37a1.35,1.35,0,0,1,1,1.29,23.29,23.29,0,0,1-1.32,5.06,1.16,1.16,0,0,1-1.49.66l-5.33-1.68a1.28,1.28,0,0,1-1-1.42l.89-4.63A.91.91,0,0,1,1248,424.91Z" transform="translate(0 0.39)"/><g class="cls-46"><path class="cls-39" d="M1260.94,430.74a.79.79,0,0,0-1.1.77l0,1.39a1.53,1.53,0,0,0,1,1.43l32.68,9.94a1.09,1.09,0,0,0,1.36-.75l.11-.37a1.19,1.19,0,0,0-.76-1.42Z" transform="translate(0 0.39)"/></g><path class="cls-39" d="M1248,449.39h0l-6.67-2.1a1.9,1.9,0,0,1-1.39-2.11l1.12-5.8a1.31,1.31,0,0,1,.58-.84,1.53,1.53,0,0,1,1.19-.19h0l2.25.49c1.91.4,4.08.87,5.32,1.23h0a2,2,0,0,1,1.46,1.89,29.61,29.61,0,0,1-1.67,6.41A1.75,1.75,0,0,1,1248,449.39Zm-5.32-10.49a1,1,0,0,0-.75.12.75.75,0,0,0-.33.47l-1.12,5.8a1.32,1.32,0,0,0,1,1.45l6.67,2.1h0a1.2,1.2,0,0,0,1.5-.65,29.3,29.3,0,0,0,1.64-6.25,1.39,1.39,0,0,0-1.08-1.33c-1.22-.36-3.47-.84-5.28-1.23-.88-.18-1.68-.35-2.26-.49Z" transform="translate(0 0.39)"/><path class="cls-45" d="M1243.27,439.68c1.43.34,4.58.95,6,1.38a1.34,1.34,0,0,1,1,1.29,23.88,23.88,0,0,1-1.32,5.06,1.17,1.17,0,0,1-1.49.66l-5.33-1.68a1.28,1.28,0,0,1-1-1.42l.89-4.64A.92.92,0,0,1,1243.27,439.68Z" transform="translate(0 0.39)"/><g class="cls-46"><path class="cls-39" d="M1256.2,445.52a.79.79,0,0,0-1.1.76l0,1.39a1.54,1.54,0,0,0,1,1.44l32.68,9.93a1.08,1.08,0,0,0,1.36-.75l.11-.37a1.19,1.19,0,0,0-.76-1.42Z" transform="translate(0 0.39)"/></g></g><rect class="cls-4" x="1182.13" y="374.13" width="40.83" height="87.05" rx="4.97" transform="translate(-68.89 354.73) rotate(-16.3)"/><circle class="cls-5" cx="1185.02" cy="389.02" r="5.87" transform="translate(526.86 1448.86) rotate(-76.32)"/><circle class="cls-5" cx="1202.25" cy="383.98" r="5.87" transform="translate(724.95 1552.72) rotate(-85.49)"/><circle class="cls-5" cx="1189.73" cy="404.62" r="5.87" transform="translate(-64.58 481.73) rotate(-22.28)"/><circle class="cls-5" cx="1206.95" cy="399.58" r="5.87" transform="translate(568.94 1499.67) rotate(-78.2)"/><circle class="cls-5" cx="1194.83" cy="420.83" r="5.87" transform="matrix(0.96, -0.28, 0.28, 0.96, -69.78, 347.19)"/><circle class="cls-5" cx="1212.05" cy="416.18" r="5.87"/><path class="cls-5" d="M1205.17,434.78a5.87,5.87,0,1,1-7.28-4A5.87,5.87,0,0,1,1205.17,434.78Z" transform="translate(0 0.39)"/><circle class="cls-48" cx="1216.76" cy="431.39" r="5.87" transform="matrix(0.14, -0.99, 0.99, 0.14, 622.44, 1577.81)"/><circle class="cls-49" cx="1204.43" cy="451.98" r="5.87" transform="translate(122.62 1148.51) rotate(-53.33)"/><circle class="cls-50" cx="1221.65" cy="446.94" r="5.87" transform="translate(-78.53 488.79) rotate(-21.92)"/><path class="cls-51" d="M1261.52,447.71h-33.09a8.87,8.87,0,0,1-8.86-8.86V410.23a8.88,8.88,0,0,1,8.86-8.86h33.09a8.87,8.87,0,0,1,8.86,8.86v28.62A8.86,8.86,0,0,1,1261.52,447.71Zm-33.09-43.08a5.6,5.6,0,0,0-5.6,5.6v28.62a5.61,5.61,0,0,0,5.6,5.61h33.09a5.62,5.62,0,0,0,5.61-5.61V410.23a5.61,5.61,0,0,0-5.61-5.6Z" transform="translate(0 0.39)"/><rect class="cls-52" x="1194.8" y="420.21" width="100.18" height="63.65" rx="29.62"/><circle class="cls-53" cx="1245.61" cy="451.57" r="18.68" transform="translate(477.93 1531.83) rotate(-74.52)"/><path class="cls-39" d="M1256.31,446.4h-6.21v-5.34a2.28,2.28,0,0,0-2.27-2.28h-4.55a2.28,2.28,0,0,0-2.28,2.28v5.34h-6.21a2.28,2.28,0,0,0-2.27,2.28V454a2.27,2.27,0,0,0,2.27,2.27H1241v5.35a2.28,2.28,0,0,0,2.28,2.27h4.55a2.27,2.27,0,0,0,2.27-2.27v-5.35h6.21a2.27,2.27,0,0,0,2.27-2.27v-5.29A2.28,2.28,0,0,0,1256.31,446.4Z" transform="translate(0 0.39)"/><circle class="cls-38" cx="1251.27" cy="638.01" r="72.94"/><circle class="cls-39" cx="1251.42" cy="638.8" r="66"/><ellipse class="cls-54" cx="1252.95" cy="640.85" rx="55.05" ry="59.42" transform="translate(557.77 1864.88) rotate(-87.49)"/><g class="cls-55"><path class="cls-56" d="M1268.18,641.12q0,7.27-.56,14.56c-.39,4.84-1,9.67-1.84,14.45-.44,2.39-.94,4.77-1.54,7.13a68.5,68.5,0,0,1-2.14,7,33.38,33.38,0,0,1-3.21,6.58,13.33,13.33,0,0,1-2.4,2.8,7,7,0,0,1-1.57,1,4.73,4.73,0,0,1-1.85.43,4.58,4.58,0,0,1-1.86-.34,6.24,6.24,0,0,1-1.61-1,12.6,12.6,0,0,1-2.46-2.75,31.77,31.77,0,0,1-3.24-6.56,65.35,65.35,0,0,1-2.17-7c-.61-2.35-1.12-4.73-1.55-7.12-.88-4.79-1.47-9.61-1.88-14.46s-.6-9.7-.63-14.56c0-2.42.06-4.85.15-7.28s.22-4.85.4-7.27c.37-4.85.91-9.68,1.71-14.47.4-2.4.87-4.79,1.43-7.15a70.87,70.87,0,0,1,2-7,31.94,31.94,0,0,1,3.12-6.61,12,12,0,0,1,2.4-2.77,6.38,6.38,0,0,1,1.59-.95,4.35,4.35,0,0,1,1.82-.32,4.89,4.89,0,0,1,1.81.42,6.89,6.89,0,0,1,1.57,1,13.21,13.21,0,0,1,2.45,2.72,32.39,32.39,0,0,1,3.36,6.48,64.54,64.54,0,0,1,2.31,6.92c.65,2.34,1.2,4.71,1.67,7.09a135,135,0,0,1,2,14.43C1268,631.4,1268.16,636.26,1268.18,641.12Zm-.81,0c0-4.84-.17-9.68-.57-14.5a142.11,142.11,0,0,0-1.88-14.38c-.45-2.37-1-4.74-1.59-7.07a63.62,63.62,0,0,0-2.2-6.9,32.77,32.77,0,0,0-3.25-6.45,13.44,13.44,0,0,0-2.36-2.69,7,7,0,0,0-1.5-1,4.42,4.42,0,0,0-1.71-.41,4.27,4.27,0,0,0-1.72.32,5.75,5.75,0,0,0-1.51.93,11.62,11.62,0,0,0-2.3,2.73,31.15,31.15,0,0,0-3,6.56,70.73,70.73,0,0,0-1.93,7c-.53,2.36-1,4.74-1.34,7.13a186.67,186.67,0,0,0-1.91,28.93q0,7.26.5,14.5c.36,4.82.91,9.63,1.74,14.4.41,2.38.9,4.75,1.48,7.09a65.87,65.87,0,0,0,2.09,6.93,31.28,31.28,0,0,0,3.14,6.48,11.93,11.93,0,0,0,2.33,2.67,6.08,6.08,0,0,0,1.5.91,4.05,4.05,0,0,0,1.68.32,4.41,4.41,0,0,0,1.67-.41,6.15,6.15,0,0,0,1.46-1,12.48,12.48,0,0,0,2.29-2.72,32.28,32.28,0,0,0,3.09-6.5,69.19,69.19,0,0,0,2.07-6.94c.57-2.35,1-4.72,1.46-7.1.83-4.76,1.37-9.57,1.74-14.39S1267.37,646,1267.37,641.12Z" transform="translate(0 0.39)"/><path class="cls-56" d="M1292.68,641.12a71,71,0,0,1-2.52,18.55,59.92,59.92,0,0,1-7.77,17,45,45,0,0,1-13.23,13.13,35.1,35.1,0,0,1-8.52,3.89,31.83,31.83,0,0,1-18.51,0,35.1,35.1,0,0,1-8.52-3.89,45.06,45.06,0,0,1-13.26-13.12,59.78,59.78,0,0,1-7.79-17,68.54,68.54,0,0,1-1.89-9.2,73.21,73.21,0,0,1-.63-9.36,71.48,71.48,0,0,1,.64-9.37,68.86,68.86,0,0,1,1.89-9.2,60,60,0,0,1,7.81-17,44.92,44.92,0,0,1,13.25-13.09,35.22,35.22,0,0,1,8.52-3.87,31.51,31.51,0,0,1,18.48,0,35.71,35.71,0,0,1,8.51,3.87,45.16,45.16,0,0,1,13.23,13.11,59.63,59.63,0,0,1,7.78,17A70.86,70.86,0,0,1,1292.68,641.12Zm-.93,0a69.57,69.57,0,0,0-2.4-18.33,59.63,59.63,0,0,0-7.49-16.87,49.22,49.22,0,0,0-5.78-7.24,40.34,40.34,0,0,0-7.16-5.87,34.57,34.57,0,0,0-8.39-3.88,30.64,30.64,0,0,0-18.28,0,34.16,34.16,0,0,0-8.38,3.89,40.28,40.28,0,0,0-7.15,5.87,49.68,49.68,0,0,0-5.77,7.24,59.58,59.58,0,0,0-7.47,16.87,68.28,68.28,0,0,0-1.79,9.07,71.33,71.33,0,0,0-.6,9.24,73.11,73.11,0,0,0,.6,9.23,66.77,66.77,0,0,0,1.81,9.07,59.27,59.27,0,0,0,7.48,16.86,48.34,48.34,0,0,0,5.77,7.22,39.85,39.85,0,0,0,7.14,5.87,34.64,34.64,0,0,0,8.38,3.87,31.33,31.33,0,0,0,9.12,1.4,31.66,31.66,0,0,0,9.12-1.39,34.54,34.54,0,0,0,8.39-3.87,39.79,39.79,0,0,0,7.15-5.86,48.41,48.41,0,0,0,5.78-7.22,59.35,59.35,0,0,0,7.51-16.86A70,70,0,0,0,1291.75,641.12Z" transform="translate(0 0.39)"/><path class="cls-56" d="M1203.27,619.77l12.38-.11,12.39-.07c4.12,0,8.25,0,12.38,0l12.38,0,24.77.06,12.39.07,12.38.12a0,0,0,1,1,0,.08L1290,620l-12.39.07-24.77.06-12.38,0c-4.13,0-8.26,0-12.38,0l-12.39-.07-12.38-.11a.06.06,0,0,1,0-.12Z" transform="translate(0 0.39)"/><path class="cls-56" d="M1217.63,599c2.94,0,5.87-.08,8.8-.11l8.79-.07c2.93,0,5.86,0,8.79,0l8.79,0,8.8,0c2.93,0,5.86,0,8.79,0l8.79.07c2.93,0,5.86.06,8.79.12,0,0,0,0,0,0a0,0,0,0,1,0,0l-8.79.12-8.79.07c-2.93,0-5.86,0-8.79,0l-8.8,0-8.79,0c-2.93,0-5.86,0-8.79,0l-8.79-.06c-2.93,0-5.86-.06-8.8-.11a.06.06,0,0,1-.06-.06S1217.6,599,1217.63,599Z" transform="translate(0 0.39)"/><path class="cls-56" d="M1199,640.51l13.46-.11,13.46-.06,26.92-.05,26.93.05,13.46.07,13.46.12a0,0,0,0,1,0,0,0,0,0,0,1,0,0l-13.46.13-13.46.06-26.93.06-26.92-.05-13.46-.06-13.46-.12a.06.06,0,0,1-.06-.06A.06.06,0,0,1,1199,640.51Z" transform="translate(0 0.39)"/><path class="cls-56" d="M1203.27,661.26l12.38-.12,12.39-.06c4.12,0,8.25,0,12.38,0l12.38,0,24.77.06,12.39.06,12.38.13a0,0,0,0,1,0,0,0,0,0,0,1,0,0l-12.38.12-12.39.07-24.77.05h-12.38c-4.13,0-8.26,0-12.38,0l-12.39-.06-12.38-.11a.06.06,0,0,1-.06-.06A.05.05,0,0,1,1203.27,661.26Z" transform="translate(0 0.39)"/><path class="cls-56" d="M1289.75,682.27h-70.34a.21.21,0,1,1,0-.42h70.34a.21.21,0,1,1,0,.42Z" transform="translate(0 0.39)"/></g><path class="cls-57" d="M1281.42,649.61,1277,638a1,1,0,0,0-.5-.55L1264,631.32a1,1,0,0,0-1,.11,1,1,0,0,0-.38,1l2,10.87Z" transform="translate(0 0.39)"/><path class="cls-58" d="M1201.56,603.58s115.35,59.74,118.33,64,6.83,13.94,8.91,15.55,8.39,8.49,2.49,12.24-102.22-44.93-109.41-55.82-27.1-36.29-27.1-36.29S1195.23,598,1201.56,603.58Z" transform="translate(0 0.39)"/><path class="cls-59" d="M1234.66,621.24l-8.35-19.32a7.14,7.14,0,0,1-.5-3.85l2.3-15.19a2.76,2.76,0,0,0-1.54-2.91c-3.52-1.69-10.87-5.1-11.45-4.41-.76.91-15.8,26.8-15.8,26.8Z" transform="translate(0 0.39)"/><path class="cls-60" d="M1199.91,607.68l-5,4a3.45,3.45,0,0,0-1.3,2.76,3.53,3.53,0,0,0,1.4,2.75l5.14,4a3.49,3.49,0,0,0,2.83.71l17.25-3.4Z" transform="translate(0 0.39)"/><path class="cls-61" d="M1240.24,665.1a14.41,14.41,0,0,0,5.22,10.16c5.07,3.92,12.39,7.35,15,6.46s15.31-12.2,3.55-18.26S1235.54,654.1,1240.24,665.1Z" transform="translate(0 0.39)"/><path class="cls-62" d="M1245.06,647l27.3,14.34-40.22,10.34a2.13,2.13,0,0,1-1.65-.27l-15.32-9.93a2.08,2.08,0,0,1,.41-3.7Z" transform="translate(0 0.39)"/><path class="cls-63" d="M1258.81,681.07a.75.75,0,0,0,.17.14c.36.21.94.12,1.73-.25,2.53-1.2,6.45-4.93,7.2-9.5h0a4,4,0,0,0-1.28-3.61,2.66,2.66,0,0,0-3.78,0c-2.5,2.08-4.56,9.74-4.35,12.28A1.73,1.73,0,0,0,1258.81,681.07Zm7.77-12.47a3.44,3.44,0,0,1,.78,2.77h0c-.71,4.32-4.53,8-6.89,9.09-.68.32-1.08.35-1.21.27s-.16-.1-.2-.67c-.23-2.65,1.94-10,4.15-11.81a2.09,2.09,0,0,1,3,0A3.34,3.34,0,0,1,1266.58,668.6Z" transform="translate(0 0.39)"/><polygon class="cls-64" points="1211.4 581.97 1213.89 583.9 1203.9 601.64 1200.8 600.22 1211.4 581.97"/><rect class="cls-65" x="1236.23" y="632.22" width="4.99" height="3.88" rx="1.88" transform="translate(-21.04 1225.8) rotate(-52.25)"/><rect class="cls-66" x="1242.26" y="636.19" width="4.99" height="3.88" rx="1.88" transform="translate(-22.15 1231.47) rotate(-52.22)"/><rect class="cls-67" x="1248.97" y="639.29" width="4.99" height="3.88" rx="1.88" transform="translate(-22.02 1237.92) rotate(-52.22)"/><rect class="cls-68" x="1254.91" y="642.49" width="4.99" height="3.88" rx="1.88" transform="translate(-22.22 1243.9) rotate(-52.22)"/><rect class="cls-69" x="1261.72" y="646.36" width="4.99" height="3.88" rx="1.88" transform="translate(-22.67 1250.73) rotate(-52.22)"/><rect class="cls-70" x="1268.09" y="649.89" width="4.99" height="3.88" rx="1.88" transform="translate(-22.57 1258.04) rotate(-52.26)"/><rect class="cls-71" x="1274.8" y="652.99" width="4.99" height="3.88" rx="1.88" transform="translate(-22.51 1264.36) rotate(-52.25)"/><rect class="cls-72" x="1280.39" y="656.62" width="4.99" height="3.88" rx="1.88" transform="translate(-23.23 1270.14) rotate(-52.25)"/><rect class="cls-73" x="1286.77" y="660.16" width="4.99" height="3.88" rx="1.88" transform="translate(-23.93 1275.74) rotate(-52.22)"/><rect class="cls-74" x="1293.48" y="663.25" width="4.99" height="3.88" rx="1.88" transform="translate(-23.52 1282.81) rotate(-52.24)"/><rect class="cls-75" x="1299.07" y="666.89" width="4.99" height="3.88" rx="1.88" transform="translate(-23.99 1289.13) rotate(-52.26)"/><path class="cls-76" d="M1324.53,676.22l-12.14-5a2.06,2.06,0,0,0-2.5.79c-.63,1-1.3,2.14-1,2.21.48.12,19.23,8.28,19.23,8.28Z" transform="translate(0 0.39)"/><path class="cls-77" d="M1331.1,668.06a25.32,25.32,0,0,1,2.69-10.71c3.54-7.06,7.73-13,3.85-21.05-2.43-5-6.22-9.41-7.59-14.8a20.06,20.06,0,0,1,4.46-17.55,26.08,26.08,0,0,1,16.33-8.49,17.82,17.82,0,0,0-10.53,12c-3.39,13.46,12,21.91,7.85,36.23-1.83,6.34-4.19,12.91-3.65,19.61.33,4.21,7.88,28-5.53,22.19a10.89,10.89,0,0,1-4.92-5.13A24.5,24.5,0,0,1,1331.1,668.06Z" transform="translate(0 0.39)"/><circle class="cls-38" cx="1687.24" cy="636.72" r="72.46"/><circle class="cls-39" cx="1687.39" cy="637.51" r="65.57"/><rect class="cls-78" x="1644.3" y="608.95" width="85.7" height="79.01" rx="12"/><polygon class="cls-79" points="1638.13 621.87 1688.64 552.23 1734.38 623.46 1638.13 621.87"/><path class="cls-38" d="M1716,681.1h-9.62a2.16,2.16,0,0,1-2.16-2.16h0a2.16,2.16,0,0,1,2.16-2.16H1716a2.16,2.16,0,0,1,2.16,2.16h0A2.16,2.16,0,0,1,1716,681.1Z" transform="translate(0 0.39)"/><path class="cls-38" d="M1723,686.46h-9.63a2.16,2.16,0,0,1-2.16-2.16h0a2.16,2.16,0,0,1,2.16-2.16H1723a2.16,2.16,0,0,1,2.16,2.16h0A2.16,2.16,0,0,1,1723,686.46Z" transform="translate(0 0.39)"/><path class="cls-38" d="M1726.38,675.94h-9.63a2.16,2.16,0,0,1-2.16-2.16h0a2.17,2.17,0,0,1,2.16-2.17h9.63a2.17,2.17,0,0,1,2.16,2.17h0A2.16,2.16,0,0,1,1726.38,675.94Z" transform="translate(0 0.39)"/><path class="cls-38" d="M1719.4,670.71h-9.62a2.16,2.16,0,0,1-2.16-2.16h0a2.16,2.16,0,0,1,2.16-2.16h9.62a2.16,2.16,0,0,1,2.16,2.16h0A2.16,2.16,0,0,1,1719.4,670.71Z" transform="translate(0 0.39)"/><path class="cls-38" d="M1723,659.7h-9.63a2.16,2.16,0,0,1-2.16-2.16h0a2.16,2.16,0,0,1,2.16-2.16H1723a2.16,2.16,0,0,1,2.16,2.16h0A2.16,2.16,0,0,1,1723,659.7Z" transform="translate(0 0.39)"/><path class="cls-38" d="M1725.08,649.24h-9.63a2.16,2.16,0,0,1-2.16-2.16h0a2.16,2.16,0,0,1,2.16-2.16h9.63a2.16,2.16,0,0,1,2.16,2.16h0A2.16,2.16,0,0,1,1725.08,649.24Z" transform="translate(0 0.39)"/><rect class="cls-38" x="1712.48" y="635.69" width="11.23" height="4.33" rx="2.16"/><path class="cls-38" d="M1727.84,634.24h-9.63a2.18,2.18,0,0,1-2.16-2.17h0a2.17,2.17,0,0,1,2.16-2.16h9.63a2.16,2.16,0,0,1,2.16,2.16h0A2.17,2.17,0,0,1,1727.84,634.24Z" transform="translate(0 0.39)"/><path class="cls-38" d="M1730,676.76h-8.51a1.49,1.49,0,0,0-1.59,1.32v1.69a1.49,1.49,0,0,0,1.59,1.32H1730Z" transform="translate(0 0.39)"/><path class="cls-38" d="M1730,661.25l-.28,0H1719a1.49,1.49,0,0,0-1.59,1.32v1.68a1.49,1.49,0,0,0,1.59,1.33h10.77a1.33,1.33,0,0,0,.28,0Z" transform="translate(0 0.39)"/><path class="cls-38" d="M1730,650.31l-.28,0H1719a1.48,1.48,0,0,0-1.59,1.32v1.68a1.48,1.48,0,0,0,1.59,1.32h10.77a1.32,1.32,0,0,0,.28,0Z" transform="translate(0 0.39)"/><path class="cls-38" d="M1730,639.87h-8.51a1.49,1.49,0,0,0-1.59,1.32v1.69a1.49,1.49,0,0,0,1.59,1.32H1730Z" transform="translate(0 0.39)"/><path class="cls-38" d="M1730,635.08h-4a1.47,1.47,0,0,0-1.59,1.32v1.68a1.48,1.48,0,0,0,1.59,1.33h4Z" transform="translate(0 0.39)"/><path class="cls-38" d="M1729.88,625.93h-10.1c-.88,0-1.6.47-1.6,1v1.31c0,.57.72,1,1.6,1h10.1Z" transform="translate(0 0.39)"/><ellipse class="cls-80" cx="1687.78" cy="585.76" rx="6.16" ry="6.17"/><ellipse class="cls-81" cx="1687.78" cy="585.76" rx="4.76" ry="4.76"/><path class="cls-82" d="M1687.78,590.5a5.12,5.12,0,1,1,3.62-1.5h0A5.09,5.09,0,0,1,1687.78,590.5Zm0-9.52a4.4,4.4,0,1,0,3.1,7.5h0a4.39,4.39,0,0,0-3.1-7.5Z" transform="translate(0 0.39)"/><path class="cls-83" d="M1688.26,653.2h1.49a9.5,9.5,0,0,1,9.5,9.5v25.25a0,0,0,0,1,0,0h-21.52a0,0,0,0,1,0,0V663.73A10.53,10.53,0,0,1,1688.26,653.2Z"/><path class="cls-84" d="M1681.49,671.64a1.08,1.08,0,1,1-1.07-1A1,1,0,0,1,1681.49,671.64Z" transform="translate(0 0.39)"/><rect class="cls-85" x="1692.65" y="632.29" width="17.39" height="16.22"/><path class="cls-86" d="M1710.48,648.49h-18.27v-17h18.27Zm-17.39-.73h16.51V632.27h-16.51Z" transform="translate(0 0.39)"/><polygon class="cls-87" points="1702.02 648.71 1701.14 648.7 1701.29 632.46 1702.17 632.47 1702.02 648.71"/><polygon class="cls-88" points="1709.76 639.6 1692.85 639.49 1692.86 638.76 1709.77 638.87 1709.76 639.6"/><path class="cls-89" d="M1710.08,648.93h-17.47a.81.81,0,0,1-.81-.81h0a.82.82,0,0,1,.81-.81h17.47a.81.81,0,0,1,.81.81h0A.81.81,0,0,1,1710.08,648.93Z" transform="translate(0 0.39)"/><rect class="cls-90" x="1693.17" y="609.63" width="17.39" height="16.22"/><path class="cls-91" d="M1711,625.82h-18.27v-17H1711Zm-17.39-.73h16.51V609.6h-16.51Z" transform="translate(0 0.39)"/><polygon class="cls-92" points="1702.54 626.04 1701.66 626.04 1701.81 609.79 1702.69 609.8 1702.54 626.04"/><polygon class="cls-93" points="1710.28 616.94 1693.37 616.83 1693.38 616.1 1710.28 616.21 1710.28 616.94"/><path class="cls-94" d="M1710.44,626.27h-17.15a.91.91,0,0,1-1-.81h0a.9.9,0,0,1,1-.81h17.15a.9.9,0,0,1,1,.81h0A.91.91,0,0,1,1710.44,626.27Z" transform="translate(0 0.39)"/><rect class="cls-95" x="1664.17" y="632.06" width="17.39" height="16.22"/><path class="cls-96" d="M1682,648.26h-18.27v-17H1682Zm-17.39-.74h16.5V632h-16.5Z" transform="translate(0 0.39)"/><polygon class="cls-97" points="1673.54 648.47 1672.66 648.47 1672.81 632.23 1673.69 632.23 1673.54 648.47"/><polygon class="cls-98" points="1681.27 639.37 1664.37 639.26 1664.37 638.53 1681.28 638.64 1681.27 639.37"/><path class="cls-99" d="M1681.43,648.7h-17.14a.9.9,0,0,1-1-.81h0a.9.9,0,0,1,1-.81h17.14a.91.91,0,0,1,1,.81h0A.91.91,0,0,1,1681.43,648.7Z" transform="translate(0 0.39)"/><rect class="cls-100" x="1664.68" y="609.4" width="17.39" height="16.22"/><path class="cls-101" d="M1682.51,625.59h-18.27v-17h18.27Zm-17.39-.73h16.51V609.37h-16.51Z" transform="translate(0 0.39)"/><polygon class="cls-102" points="1674.05 625.81 1673.17 625.8 1673.32 609.56 1674.2 609.57 1674.05 625.81"/><polygon class="cls-103" points="1681.79 616.71 1664.88 616.6 1664.89 615.87 1681.8 615.98 1681.79 616.71"/><path class="cls-104" d="M1682,626H1664.8a.9.9,0,0,1-1-.8h0a.9.9,0,0,1,1-.81H1682a.9.9,0,0,1,1,.81h0A.9.9,0,0,1,1682,626Z" transform="translate(0 0.39)"/><path class="cls-105" d="M1690.28,550.44l-4.72-2.27a1,1,0,0,0-1.22.28l-6.5,9.35-1.75,11.34-5.64-.7-4.13,5.95,1.19,6.59-6.69,1.32-29,41.71a.68.68,0,0,0,.33,1l4.71,2.26a1,1,0,0,0,1.23-.27l52.49-75.57A.67.67,0,0,0,1690.28,550.44Z" transform="translate(0 0.39)"/><path class="cls-106" d="M1688.64,551.84l-49.85,68.71c-.29.41.07.92.63.92l3.68,0a6.8,6.8,0,0,0,5.52-2.66L1686.53,565a.81.81,0,0,1,1.25,0l42,57.64a.76.76,0,0,0,.74.29h0c2.69-.36,4.17-2.81,2.91-4.82l-43-68.51C1690.18,549.18,1688.93,551.43,1688.64,551.84Z" transform="translate(0 0.39)"/><path class="cls-107" d="M1742.3,624.15l-50.24-72.31h0l-2.23-3.2a.79.79,0,0,0-.25-.23l-1.88-2.6a1.06,1.06,0,0,0-1.66,0l-3.5,5.21.92.08a.64.64,0,0,0,.11.53L1736,627.16a1,1,0,0,0,1.27.28l4.66-2.23A.72.72,0,0,0,1742.3,624.15Z" transform="translate(0 0.39)"/><path class="cls-38" d="M1654.86,683.72c0,.35,7.68-7.25,7.68-7.25l-8.16-10,9-10.44-9.88-11.1,13.21,12-8.13,9.27s10.6,12.41,10.38,12.47S1654.86,683.72,1654.86,683.72Z" transform="translate(0 0.39)"/><path class="cls-38" d="M1702.52,592.43c-.83-.48-15.23.6-15.23.6l1.5,10.07s-17.25,1.92-17.13,1.68,21,1.59,21,1.59l-2.51-10.82Z" transform="translate(0 0.39)"/><path class="cls-108" d="M1726.25,617.26a17.49,17.49,0,0,1-2.63,2.17c-8.38,5.57-22.69,8.69-28.26-2.2a8.54,8.54,0,0,1-1.07-4.36c.26-4.45,6.08-5.9,7.35-10,1.21-4-1.45-7.77-2-11.6-.58-4.33,2.85-8,5.92-10.65,3.58-3.1,7.49-5.86,10.58-9.44s5.33-8.25,4.74-12.95c2.58,2.61,3,6.66,2.62,10.31s-1.69,7.3-1.38,11a8.83,8.83,0,0,1-1.4,5.57c-.77,1.18-1.86,2.22-2.22,3.58-.53,2,.56,5.42,1.69,7.06,1.58,2.3,4.61,3.12,6.47.69a14.92,14.92,0,0,0,1.73-3.65,23,23,0,0,1,11.88-12.29c-4.75,2.09-3.16,9.89-3.16,13.85a36.55,36.55,0,0,1-.18,4.44,25,25,0,0,1-4.91,11.41A54.42,54.42,0,0,1,1726.25,617.26Z" transform="translate(0 0.39)"/><path class="cls-109" d="M1700.44,610.18c.91-2.21,2.18-4.43,3-6.35a18.33,18.33,0,0,0,1.79-7.76c0-1.7-.41-3.37-.55-5.05a8.35,8.35,0,0,1,.81-4.94c.6-1.06,1.55-1.89,2.14-3a7.19,7.19,0,0,0-.26,4.51,1.38,1.38,0,0,0,.65,1c.45.18,3.75-4.57,4.38-5.25-2.13,2.29-2.4,5.94-2.12,8.88.35,3.73,3,6.88,2.47,10.76-.19,1.4-1,2.35-1.37,3.66a13,13,0,0,0,0,5.59c.83-2.27,3-3.78,5.29-4.66s4.68-1.3,6.92-2.22a16.35,16.35,0,0,0,9.33-10.58,9,9,0,0,1-.62,3l-1.74,5.24a38.26,38.26,0,0,1-2.42,6.11c-3.56,6.64-12.36,12.61-20.09,12.32a12.71,12.71,0,0,1-5-.87,6.6,6.6,0,0,1-3.68-6.5A14.4,14.4,0,0,1,1700.44,610.18Z" transform="translate(0 0.39)"/><path class="cls-110" d="M1643.42,607.52c-.89-3.55-2-8.17-4.68-10.8a8.4,8.4,0,0,1-.86,6.9c-1.5,2.58-4,3.59-6,5.62a12.4,12.4,0,0,0-2.31,3,12,12,0,0,0-.35,9.37,35.57,35.57,0,0,0,4.67,8.41c-4.64-2.81-8.62-6.65-13.45-9.1,3.47,1.73,4.95,5.78,6.94,9.12,3.37,5.63,8.83,9.91,14.22,13.51,5.55,3.7,12.73,4.3,19.23,4.2s13.63-2.22,15.68-9.12a21,21,0,0,0-.09-10.41,29.11,29.11,0,0,0-2.57-7.34c-2-3.67-4.89-6.71-7.3-10.09-2-2.83-5.25-6.7-5.6-10.19a12.76,12.76,0,0,1,.38-3.74c.62-3,1.32-6.24,3.48-8.5a19.64,19.64,0,0,0-11.26,14.27c-.31,1.76-.37,3.56-.85,5.28a6.39,6.39,0,0,1-3.12,4.18C1645.94,613.76,1644.11,610.3,1643.42,607.52Z" transform="translate(0 0.39)"/><path class="cls-111" d="M1665.51,627.23a30.76,30.76,0,0,1,1.21,3.66,2,2,0,0,0,1-1.31,10.08,10.08,0,0,0,.25-6.17c.12.41,1.58,1.33,1.91,1.79a8.32,8.32,0,0,1,1.16,2.66,23,23,0,0,1,1.08,5.39c.26,4.69.85,11.55-5,13s-12.8-.51-17.78-3.64a36,36,0,0,1-8.6-7.88c-1.28-1.57-1.37-3.19-2.12-5s-2-3.58-2.17-5.7c-.35-3.72,1.64-7.29,4-10.08-4.1,4.89,3.52,12.22,7.33,14.42,2.13,1.22,4.48,2,6.67,3.13a12.18,12.18,0,0,1,5.49,4.75c.49-2.87-1.26-5.63-1.53-8.52-.47-5.11,3.66-10.17,2-15,1.13,3.37,2.49,6.61,3.43,10A43.64,43.64,0,0,0,1665.51,627.23Z" transform="translate(0 0.39)"/><circle class="cls-112" cx="1453.23" cy="379.05" r="12.58" transform="translate(482.07 1525.04) rotate(-64.33)"/><circle class="cls-113" cx="1453.23" cy="379.05" r="12.17" transform="translate(-48.21 344.41) rotate(-13.28)"/><path class="cls-114" d="M1443.19,374.47a.54.54,0,0,1-.21-.05.48.48,0,0,1-.21-.64,11.73,11.73,0,0,1,12.57-6.24.48.48,0,0,1,.38.55.49.49,0,0,1-.55.38,10.53,10.53,0,0,0-1.94-.18,10.71,10.71,0,0,0-9.61,5.92A.49.49,0,0,1,1443.19,374.47Z" transform="translate(0 0.39)"/><circle class="cls-114" cx="1453.49" cy="379.32" r="10.3" transform="translate(669.25 1660.91) rotate(-73.15)"/><path class="cls-115" d="M1452.48,387v-1.12a9.16,9.16,0,0,1-3.14-.68.64.64,0,0,1-.36-.77l.28-1a.66.66,0,0,1,.89-.43,7.59,7.59,0,0,0,2.9.61c1.13,0,2-.38,2-1.16s-.65-1.12-2.22-1.54c-2.23-.61-3.83-1.59-3.83-3.55,0-1.77,1.3-3.13,3.55-3.49v-1.12a.65.65,0,0,1,.65-.65h.66a.65.65,0,0,1,.65.65v1a8.2,8.2,0,0,1,2.49.44.66.66,0,0,1,.41.79l-.26,1a.64.64,0,0,1-.86.44,7,7,0,0,0-2.45-.44c-1.33,0-1.71.55-1.71,1.05s.8,1,2.53,1.56c2.48.74,3.51,1.77,3.51,3.62,0,1.7-1.26,3.23-3.7,3.61V387a.65.65,0,0,1-.65.65h-.66A.65.65,0,0,1,1452.48,387Z" transform="translate(0 0.39)"/><circle class="cls-116" cx="1489.05" cy="364.13" r="21.91" transform="translate(178.66 1159.96) rotate(-45)"/><circle class="cls-117" cx="1489.05" cy="364.13" r="21.18" transform="translate(582.8 1600.87) rotate(-67.5)"/><path class="cls-114" d="M1471.58,355.8a.41.41,0,0,1-.21-.05.47.47,0,0,1-.21-.63,20,20,0,0,1,21.5-10.69.47.47,0,0,1,.38.55.48.48,0,0,1-.55.38A19.12,19.12,0,0,0,1472,355.54.45.45,0,0,1,1471.58,355.8Z" transform="translate(0 0.39)"/><circle class="cls-114" cx="1489.51" cy="364.98" r="17.93"/><path class="cls-118" d="M1487.75,377.91v-2a16,16,0,0,1-5.47-1.18,1.15,1.15,0,0,1-.63-1.34l.5-1.81a1.14,1.14,0,0,1,1.54-.75,13.13,13.13,0,0,0,5.06,1.07c2,0,3.41-.67,3.41-2s-1.12-1.95-3.85-2.68c-3.88-1.07-6.67-2.76-6.67-6.18,0-3.08,2.26-5.44,6.18-6.07V353a1.13,1.13,0,0,1,1.13-1.14h1.15a1.13,1.13,0,0,1,1.13,1.14v1.75a14.37,14.37,0,0,1,4.34.78,1.13,1.13,0,0,1,.71,1.36l-.46,1.68a1.13,1.13,0,0,1-1.49.77,11.83,11.83,0,0,0-4.26-.77c-2.32,0-3,1-3,1.82,0,1.06,1.39,1.79,4.41,2.72,4.31,1.3,6.11,3.09,6.11,6.31,0,3-2.19,5.61-6.44,6.27v2.18a1.14,1.14,0,0,1-1.14,1.14h-1.14A1.14,1.14,0,0,1,1487.75,377.91Z" transform="translate(0 0.39)"/><circle class="cls-119" cx="1504.16" cy="413.06" r="22.54" transform="translate(756.56 1782.46) rotate(-76.72)"/><circle class="cls-120" cx="1504.16" cy="413.06" r="21.79" transform="translate(148.48 1184.97) rotate(-45)"/><path class="cls-114" d="M1486.18,404.48a.54.54,0,0,1-.21-.05.49.49,0,0,1-.21-.64,20.52,20.52,0,0,1,18.4-11.32,21,21,0,0,1,3.71.33.47.47,0,0,1-.17.93,19.92,19.92,0,0,0-3.54-.32,19.56,19.56,0,0,0-17.55,10.81A.49.49,0,0,1,1486.18,404.48Z" transform="translate(0 0.39)"/><circle class="cls-114" cx="1504.63" cy="413.53" r="18.44" transform="translate(756.47 1783.29) rotate(-76.72)"/><path class="cls-121" d="M1502.82,427.24v-2a16.6,16.6,0,0,1-5.63-1.22,1.16,1.16,0,0,1-.64-1.37l.51-1.87a1.17,1.17,0,0,1,1.59-.77,13.53,13.53,0,0,0,5.19,1.1c2,0,3.52-.69,3.52-2.09s-1.16-2-4-2.76c-4-1.1-6.86-2.84-6.86-6.36,0-3.17,2.32-5.6,6.35-6.25v-2a1.17,1.17,0,0,1,1.17-1.17h1.18a1.17,1.17,0,0,1,1.17,1.17v1.8a15.13,15.13,0,0,1,4.46.8,1.17,1.17,0,0,1,.73,1.41l-.47,1.72a1.16,1.16,0,0,1-1.54.79,12.2,12.2,0,0,0-4.38-.79c-2.39,0-3.07,1-3.07,1.88,0,1.09,1.43,1.84,4.54,2.8,4.44,1.33,6.28,3.17,6.28,6.48,0,3-2.25,5.78-6.62,6.46v2.24a1.17,1.17,0,0,1-1.17,1.17H1504A1.17,1.17,0,0,1,1502.82,427.24Z" transform="translate(0 0.39)"/><circle class="cls-122" cx="1533.07" cy="382.74" r="16.52"/><circle class="cls-123" cx="1533.07" cy="382.35" r="15.97" transform="translate(401.84 1485.84) rotate(-58.28)"/><path class="cls-114" d="M1519.91,376.19a.59.59,0,0,1-.22-.05.47.47,0,0,1-.2-.64,15.13,15.13,0,0,1,13.58-8.36,14.81,14.81,0,0,1,2.75.25.46.46,0,0,1,.38.55.48.48,0,0,1-.55.38,13.84,13.84,0,0,0-2.58-.24,14.21,14.21,0,0,0-12.74,7.85A.46.46,0,0,1,1519.91,376.19Z" transform="translate(0 0.39)"/><circle class="cls-114" cx="1533.42" cy="382.7" r="13.51" transform="translate(-41.5 250.96) rotate(-9.22)"/><path class="cls-124" d="M1532.1,392.75v-1.47a12.23,12.23,0,0,1-4.13-.9.85.85,0,0,1-.47-1l.37-1.37a.85.85,0,0,1,1.17-.56,10.08,10.08,0,0,0,3.81.8c1.47,0,2.57-.5,2.57-1.53s-.85-1.48-2.9-2c-2.93-.8-5-2.07-5-4.65,0-2.33,1.7-4.1,4.66-4.58V374a.86.86,0,0,1,.85-.86h.87a.86.86,0,0,1,.85.86v1.32a11,11,0,0,1,3.27.59.86.86,0,0,1,.54,1l-.35,1.26a.85.85,0,0,1-1.13.58,9,9,0,0,0-3.2-.58c-1.75,0-2.25.72-2.25,1.37,0,.81,1.05,1.36,3.32,2.06,3.26,1,4.61,2.32,4.61,4.75,0,2.23-1.65,4.23-4.86,4.73v1.65a.85.85,0,0,1-.85.85H1533A.85.85,0,0,1,1532.1,392.75Z" transform="translate(0 0.39)"/><circle class="cls-38" cx="1691.64" cy="424.72" r="71.62"/><circle class="cls-39" cx="1691.78" cy="425.5" r="64.81"/><rect class="cls-125" x="1638.76" y="430.45" width="15.85" height="30.31" rx="6.48"/><rect class="cls-126" x="1728.03" y="430.45" width="15.85" height="30.31" rx="6.48"/><path class="cls-127" d="M1647.55,404.33c-.19,0-.45-.22-.45-.42v-1.33a3.3,3.3,0,0,0-1.75-3,5.3,5.3,0,0,0-4.66-.07l-2.66,1.29a3.64,3.64,0,0,0-2,3.38v1a3.67,3.67,0,0,0,3.16,3.7l11.3,1.54,1.33-5.16Z" transform="translate(0 0.39)"/><path class="cls-128" d="M1735.9,404.33c.19,0,.19-.22.19-.42v-1.33a3.53,3.53,0,0,1,2-3,5.56,5.56,0,0,1,4.78-.07l2.89,1.29a3.85,3.85,0,0,1,2.28,3.38v1a3.81,3.81,0,0,1-3.33,3.7l-11.38,1.54-1.5-5.16Z" transform="translate(0 0.39)"/><path class="cls-129" d="M1744.32,415.75c-1.64-5.54-10.13-10.76-10.13-10.76s-7.11-21.93-14.77-21.93h-55.24c-7.67,0-14.78,21.93-14.78,21.93s-8.48,5.17-10.13,10.71c-1.2,4.05,1.41,19.79,2.89,27.84a6.5,6.5,0,0,0,6.33,5.15h86.62a6.48,6.48,0,0,0,6.32-5.13C1742.92,435.52,1745.52,419.8,1744.32,415.75Z" transform="translate(0 0.39)"/><path class="cls-38" d="M1743.25,439.17a2.55,2.55,0,0,0-2-.77h-99a2.53,2.53,0,0,0-2,.77,2,2,0,0,0-.49,1.87l1.62,6.58a2.6,2.6,0,0,0,2.46,1.9h95.64a2.62,2.62,0,0,0,2.45-1.9l1.7-6.47A2.18,2.18,0,0,0,1743.25,439.17Z" transform="translate(0 0.39)"/><path class="cls-130" d="M1665.07,429s-2.46-7.39-5.57-8-16.23-3.38-16.5-1.1-2.92,10.13,4.92,10.86S1666.33,432.11,1665.07,429Z" transform="translate(0 0.39)"/><path class="cls-131" d="M1718.52,429s2.47-7.39,5.57-8,16.24-3.38,16.51-1.1,2.92,10.13-4.93,10.86S1717.26,432.11,1718.52,429Z" transform="translate(0 0.39)"/><path class="cls-38" d="M1716.76,422.68a1.47,1.47,0,0,0-1.16-.69H1668a1.46,1.46,0,0,0-1.19.73,1.43,1.43,0,0,0,0,1.39l2.67,5.09a5.79,5.79,0,0,0,5.07,3.08h35a5.77,5.77,0,0,0,5.24-3.42l2.13-4.82A1.49,1.49,0,0,0,1716.76,422.68Z" transform="translate(0 0.39)"/><path class="cls-5" d="M1729.72,406.81a1.63,1.63,0,0,1-1.4.72h-73a1.63,1.63,0,0,1-1.42-.74,1.66,1.66,0,0,1-.1-1.59c1.66-3.49,4.77-9.95,6.52-13.57a4.2,4.2,0,0,1,.26-.52,4.7,4.7,0,0,1,3.93-2.21h55.24a4.7,4.7,0,0,1,4,2.24,6.14,6.14,0,0,1,.31.63l5.88,13.47A1.63,1.63,0,0,1,1729.72,406.81Z" transform="translate(0 0.39)"/><path class="cls-4" d="M1723.66,391.14c-3.87.77-15.24,2.69-32.39,2.69s-27.44-2-30.73-2.73a4.69,4.69,0,0,1,3.93-2.2h55.24A4.7,4.7,0,0,1,1723.66,391.14Z" transform="translate(0 0.39)"/><path class="cls-38" d="M1663.89,419a.28.28,0,0,1-.19-.07l-9.46-9a.27.27,0,0,1,0-.39.27.27,0,0,1,.38,0l9.47,9a.28.28,0,0,1,0,.39A.3.3,0,0,1,1663.89,419Z" transform="translate(0 0.39)"/><path class="cls-38" d="M1719,419a.27.27,0,0,1-.18-.47l9.46-9a.28.28,0,1,1,.38.4l-9.47,9A.26.26,0,0,1,1719,419Z" transform="translate(0 0.39)"/><path class="cls-132" d="M1574.08,604.84s3,1.45,3.53,3.12c.44,1.33,3.73,1.51,4.06,4.13a3,3,0,0,0,2.52,2.66c3.37.51,8.55,2.26,9.38,8.1.64,4.47-1.64,6.16-4,6.74a3.39,3.39,0,0,0-2.57,3.91c.34,1.69-.16,3.66-3.1,5.21-6.59,3.48-13.18-8.24-13.18-8.24L1569.36,610Z" transform="translate(0 0.39)"/><path class="cls-133" d="M1538.22,600s13.16,20.82,28.8,24.83c0,0-3,8.69-5.4,9.68,0,0-19.25-16.06-24.19-31.55Z" transform="translate(0 0.39)"/><path class="cls-134" d="M1601.16,733.11l.43,3.5a1.45,1.45,0,0,0,1.27,1.27,22.09,22.09,0,0,0,4.69.07,1.23,1.23,0,0,0,1-1.61,12.74,12.74,0,0,0-2.35-4.58h-3.89A1.2,1.2,0,0,0,1601.16,733.11Z" transform="translate(0 0.39)"/><path class="cls-135" d="M1570.7,692l-.65,3.86s2.2,22.27,2.59,31.17a6.94,6.94,0,0,1-1,4l-3.82,6.2,9.72-5.73.19-1.18-1.59-2.19,2.08-24.94a7.56,7.56,0,0,0-.87-4.23l-2-3.78Z" transform="translate(0 0.39)"/><path class="cls-136" d="M1567.14,738.14h3.1a1.85,1.85,0,0,0,1.48-.72c1-1.26,3-3.71,3.93-3.77,1.29-.09,1.12,4.49,1.12,4.49h.73l.91-5.69a3.36,3.36,0,0,0-1.77-3.52h0a4.74,4.74,0,0,1-1.89,3.14c-1.6,1-6.5,4.41-6.5,4.41a4.54,4.54,0,0,0-1.26,0A.82.82,0,0,0,1567.14,738.14Z" transform="translate(0 0.39)"/><path class="cls-137" d="M1584,693.87s12.88,24.43,14.92,30a53.78,53.78,0,0,1,2.8,10.67c0,.69.89,1.35,3.25,1.35a2.25,2.25,0,0,0,2.11-1,1.37,1.37,0,0,0,.05-1.33c-.74-1.51-3.11-6.32-4-8.51-1.05-2.61-3.29-14.43-4.53-18.54s-2.62-8.57-8-12.68C1590.64,693.87,1587,690.26,1584,693.87Z" transform="translate(0 0.39)"/><path class="cls-138" d="M1575.88,653.85c-3.33-14.08,5.09-22,5.09-22-5.31-5.09-15-7.41-15-7.41s-9.23,6.74-8.13,12c.64,3.09,6.49,18.54,6.49,18.54A12.85,12.85,0,0,0,1575.88,653.85Z" transform="translate(0 0.39)"/><path class="cls-139" d="M1583.24,660.82c-1.35-4.08-7.36-7-7.36-7a12.85,12.85,0,0,1-11.54,1.12,23,23,0,0,0-.38,8.94c.84,4.31,6.09,32,6.09,32,8.27,1.68,21-1.69,21-1.69C1585.78,684.86,1584.59,664.89,1583.24,660.82Z" transform="translate(0 0.39)"/><path class="cls-140" d="M1572,615.09l2.7,12.14c.26,1.06-.72.89-1.8.69-1.76-.34-4.05-1-4.81-2.4a1.76,1.76,0,0,1-.14-.46l-1.16-8.41a1.51,1.51,0,0,1,.89-1.59l2.24-1A1.51,1.51,0,0,1,1572,615.09Z" transform="translate(0 0.39)"/><path class="cls-141" d="M1581,631.81s18.85,13.49,2.41,27.66a4.28,4.28,0,0,1-1.86,1.08,19.77,19.77,0,0,0-3.4,2.3.63.63,0,0,1-.93-.17h0a.85.85,0,0,1,0-.83l2.33-4.94a1.8,1.8,0,0,1,2.34-.1h0a.88.88,0,0,0,1.34-.31c1.27-2.58,3.67-10.2-6.15-18.8a1.05,1.05,0,0,1-.23-1.29C1577.46,635.08,1579,632.45,1581,631.81Z" transform="translate(0 0.39)"/><path class="cls-142" d="M1566.85,604s-2.88,1.94-4.11,6.9.77,6.73,2.83,6.62a9.53,9.53,0,0,0,7.62-4.3C1575.78,609.71,1570.61,601.66,1566.85,604Z" transform="translate(0 0.39)"/><path class="cls-143" d="M1570.59,611.26s1.05-7.1-4.85-6l-1.19,1.24s-2.88-3.25.31-5.71,7.63-1.83,10.08,2.65,3.34,7.61,1.28,10.39-3.6.4-3.6.4,1-2.41.16-3.44-1.79.6-1.79.6Z" transform="translate(0 0.39)"/><path class="cls-144" d="M1571.39,611.87s.52-3.65,2.39-2.61-.67,3.42-1.69,4.22Z" transform="translate(0 0.39)"/><path class="cls-145" d="M1538.31,604.28c0,.43,1.56.72,2.06-1.11-.14-.79-.38-4.27-1-4.81a64.67,64.67,0,0,0-9-6.12,1.18,1.18,0,0,0,.2,1.64l2.89,2a11,11,0,0,0-.79,3,3.37,3.37,0,0,0,.85,2.36,29.14,29.14,0,0,0,2,2.15A3.33,3.33,0,0,0,1538.31,604.28Z" transform="translate(0 0.39)"/><path class="cls-146" d="M1536.83,602.82a25.45,25.45,0,0,0-2-4.09,1.35,1.35,0,0,1-.47-1,1,1,0,0,1,.4-.68l.08-.06,2.65,1.42,1.09,1.7-.24.15-1-1.63-2.43-1.3a.6.6,0,0,0-.23.41,1.09,1.09,0,0,0,.39.75,24.56,24.56,0,0,1,2.1,4.19Z" transform="translate(0 0.39)"/><path class="cls-147" d="M1918.94,941.29l1-1C1920.14,941.15,1919.81,941.48,1918.94,941.29Z" transform="translate(0 0.39)"/><path class="cls-148" d="M1578.46,661.51c-2.48-1.55-5.53-1-8.11-2.18.8-1.55,3.51-.49,3.76-3.25-1-3.37-6-2.9-7.49-6.42-.19-1.9,2.41-2.7,1.92-4.47,1.24-1.35,3-.45,3.91-1.65,1.69-2,2.5-4.25,1.61-6.88a16.48,16.48,0,0,0-4.21-7c-1.56-1.4-1.43-2.81-1.46-4.42,3.67,2.54,6.36,6.12,9.63,9.08,4,3.59,6.2,8.47,9.55,12.51,1.69,2,.13,4.71,2,6.44C1586.47,657.19,1584.09,661.52,1578.46,661.51Z" transform="translate(0 0.39)"/><path class="cls-148" d="M1582.51,672.53c-3.66-.91-6.48-3.36-9.74-5.06,4.7-1.89,7.21,1.13,9.78,4C1582.54,671.84,1582.52,672.19,1582.51,672.53Z" transform="translate(0 0.39)"/><path class="cls-149" d="M1582.51,672.53c0-.34,0-.69,0-1,1.37.1,2.51.5,2.71,2.36C1583.72,674.72,1583.1,673.65,1582.51,672.53Z" transform="translate(0 0.39)"/><path class="cls-149" d="M1572.69,677.49a1.22,1.22,0,0,1-.06-.92,4.45,4.45,0,0,1,.35.64S1572.79,677.4,1572.69,677.49Z" transform="translate(0 0.39)"/><line class="cls-150" x1="1339.46" y1="0.25" x2="722.5" y2="1080.89"/></g></g></svg>