<svg xmlns="http://www.w3.org/2000/svg" xmlns:xlink="http://www.w3.org/1999/xlink" viewBox="0 0 2257.46 1435.13"><defs><style>.cls-1{isolation:isolate;}.cls-2{fill:url(#linear-gradient);}.cls-3{fill:#91b3fa;}.cls-4{fill:#bdd0fb;}.cls-5{fill:#dce5fe;}.cls-6{fill:url(#linear-gradient-2);}.cls-7{fill:url(#linear-gradient-3);}.cls-8{fill:url(#linear-gradient-4);}.cls-9{fill:url(#linear-gradient-5);}.cls-10{fill:url(#linear-gradient-6);}.cls-11{fill:url(#linear-gradient-7);}.cls-12{fill:url(#linear-gradient-8);}.cls-13{fill:url(#linear-gradient-9);}.cls-14{fill:url(#linear-gradient-10);}.cls-15{fill:url(#linear-gradient-11);}.cls-16{fill:url(#linear-gradient-12);}.cls-17{fill:url(#linear-gradient-13);}.cls-18{fill:url(#linear-gradient-14);}.cls-19{fill:url(#linear-gradient-15);}.cls-20{fill:url(#linear-gradient-16);}.cls-21{fill:url(#linear-gradient-17);}.cls-22{fill:url(#linear-gradient-18);}.cls-23{fill:url(#linear-gradient-19);}.cls-24{fill:url(#linear-gradient-20);}.cls-25{fill:url(#linear-gradient-21);}.cls-26{fill:url(#linear-gradient-22);}.cls-27{fill:url(#linear-gradient-23);}.cls-28{fill:url(#linear-gradient-24);}.cls-29{fill:url(#linear-gradient-25);}.cls-30{fill:url(#linear-gradient-26);}.cls-31{fill:url(#linear-gradient-27);}.cls-32{fill:url(#linear-gradient-28);}.cls-33{fill:url(#linear-gradient-29);}.cls-34{fill:url(#linear-gradient-30);}.cls-35{fill:url(#linear-gradient-31);}.cls-36{fill:url(#linear-gradient-32);}.cls-37{fill:#7d97f4;}.cls-113,.cls-38,.cls-44,.cls-55,.cls-76{fill:#fff;}.cls-39{fill:url(#linear-gradient-33);}.cls-40{fill:url(#linear-gradient-34);}.cls-41{fill:url(#linear-gradient-35);}.cls-42{fill:url(#linear-gradient-36);}.cls-43{opacity:0.7;}.cls-44,.cls-45{opacity:0.6;}.cls-46{fill:url(#linear-gradient-37);}.cls-47{fill:url(#linear-gradient-38);}.cls-48{fill:url(#linear-gradient-39);}.cls-49{fill:url(#linear-gradient-40);}.cls-50{fill:url(#linear-gradient-41);}.cls-51{fill:url(#linear-gradient-42);}.cls-52{fill:url(#linear-gradient-43);}.cls-53{fill:url(#linear-gradient-44);}.cls-54,.cls-76{opacity:0.68;}.cls-55{mix-blend-mode:soft-light;}.cls-56{fill:url(#linear-gradient-45);}.cls-57{fill:url(#linear-gradient-46);}.cls-58{fill:url(#linear-gradient-47);}.cls-59{fill:url(#linear-gradient-48);}.cls-60{fill:url(#linear-gradient-49);}.cls-61{fill:url(#linear-gradient-50);}.cls-62{fill:url(#linear-gradient-51);}.cls-63{fill:url(#linear-gradient-52);}.cls-64{fill:url(#linear-gradient-53);}.cls-65{fill:url(#linear-gradient-54);}.cls-66{fill:url(#linear-gradient-55);}.cls-67{fill:url(#linear-gradient-56);}.cls-68{fill:url(#linear-gradient-57);}.cls-69{fill:url(#linear-gradient-58);}.cls-70{fill:url(#linear-gradient-59);}.cls-71{fill:url(#linear-gradient-60);}.cls-72{fill:url(#linear-gradient-61);}.cls-73{fill:url(#linear-gradient-62);}.cls-74{fill:url(#linear-gradient-63);}.cls-75{fill:url(#linear-gradient-64);}.cls-77{fill:url(#linear-gradient-65);}.cls-78{fill:url(#linear-gradient-66);}.cls-79{fill:url(#linear-gradient-67);}.cls-80{fill:url(#linear-gradient-68);}.cls-81{fill:url(#linear-gradient-69);}.cls-82{fill:url(#linear-gradient-70);}.cls-83{fill:url(#linear-gradient-71);}.cls-84{fill:url(#linear-gradient-72);}.cls-85{fill:url(#linear-gradient-73);}.cls-86{fill:url(#linear-gradient-74);}.cls-87{fill:url(#linear-gradient-75);}.cls-88{fill:url(#linear-gradient-76);}.cls-89{fill:url(#linear-gradient-77);}.cls-90{fill:url(#linear-gradient-78);}.cls-91{fill:url(#linear-gradient-79);}.cls-92{fill:url(#linear-gradient-80);}.cls-93{fill:url(#linear-gradient-81);}.cls-94{fill:url(#linear-gradient-82);}.cls-95{fill:url(#linear-gradient-83);}.cls-96{fill:url(#linear-gradient-84);}.cls-97{fill:url(#linear-gradient-85);}.cls-98{fill:url(#linear-gradient-86);}.cls-99{fill:url(#linear-gradient-87);}.cls-100{fill:url(#linear-gradient-88);}.cls-101{fill:url(#linear-gradient-89);}.cls-102{fill:url(#linear-gradient-90);}.cls-103{fill:url(#linear-gradient-91);}.cls-104{fill:url(#linear-gradient-92);}.cls-105{fill:url(#linear-gradient-93);}.cls-106{fill:url(#linear-gradient-94);}.cls-107{fill:url(#linear-gradient-95);}.cls-108{fill:url(#linear-gradient-96);}.cls-109{fill:url(#linear-gradient-97);}.cls-110{fill:url(#linear-gradient-98);}.cls-111{fill:url(#linear-gradient-99);}.cls-112{fill:url(#linear-gradient-100);}.cls-113{opacity:0.71;}.cls-114{fill:url(#linear-gradient-101);}.cls-115{fill:url(#linear-gradient-102);}.cls-116{fill:url(#linear-gradient-103);}.cls-117{fill:url(#linear-gradient-104);}.cls-118{fill:url(#linear-gradient-105);}.cls-119{fill:url(#linear-gradient-106);}.cls-120{fill:url(#linear-gradient-107);}.cls-121{fill:url(#linear-gradient-108);}.cls-122{fill:url(#linear-gradient-109);}.cls-123{fill:url(#linear-gradient-110);}.cls-124{fill:url(#linear-gradient-111);}.cls-125{fill:url(#linear-gradient-112);}.cls-126{fill:url(#linear-gradient-113);}.cls-127{fill:url(#linear-gradient-114);}.cls-128{fill:url(#linear-gradient-115);}.cls-129{fill:url(#linear-gradient-116);}.cls-130{fill:url(#linear-gradient-117);}.cls-131{fill:url(#linear-gradient-118);}.cls-132{fill:url(#linear-gradient-119);}.cls-133{fill:url(#linear-gradient-120);}.cls-134{fill:url(#linear-gradient-121);}.cls-135{fill:url(#linear-gradient-122);}.cls-136{fill:url(#linear-gradient-123);}.cls-137{fill:url(#linear-gradient-124);}.cls-138{fill:url(#linear-gradient-125);}.cls-139{fill:url(#linear-gradient-126);}.cls-140{fill:url(#linear-gradient-127);}.cls-141{fill:url(#linear-gradient-128);}.cls-142{fill:url(#linear-gradient-129);}.cls-143{fill:url(#linear-gradient-130);}.cls-144{fill:url(#linear-gradient-131);}.cls-145{fill:url(#linear-gradient-132);}</style><linearGradient id="linear-gradient" x1="321.89" y1="945.95" x2="2499.14" y2="945.95" gradientTransform="matrix(1, -0.07, 0.07, 1.02, -198.32, -99.78)" gradientUnits="userSpaceOnUse"><stop offset="0" stop-color="#dae3fe"/><stop offset="1" stop-color="#e9effd"/></linearGradient><linearGradient id="linear-gradient-2" x1="976.51" y1="897.72" x2="2028.73" y2="175.07" gradientUnits="userSpaceOnUse"><stop offset="0" stop-color="#4042e2"/><stop offset="1" stop-color="#4f52ff"/></linearGradient><linearGradient id="linear-gradient-3" x1="7367.79" y1="1412.76" x2="7011.87" y2="1799.91" gradientTransform="translate(-6098.68)" gradientUnits="userSpaceOnUse"><stop offset="0" stop-color="#09005d"/><stop offset="1" stop-color="#1a0f91"/></linearGradient><linearGradient id="linear-gradient-4" x1="7252.27" y1="1441.52" x2="7283.88" y2="1441.52" gradientTransform="translate(-6098.68)" gradientUnits="userSpaceOnUse"><stop offset="0" stop-color="#ff928e"/><stop offset="1" stop-color="#feb3b1"/></linearGradient><linearGradient id="linear-gradient-5" x1="7395.82" y1="974.94" x2="7092.96" y2="1385.43" xlink:href="#linear-gradient-3"/><linearGradient id="linear-gradient-6" x1="7287.95" y1="1339.36" x2="6932.02" y2="1726.51" xlink:href="#linear-gradient-3"/><linearGradient id="linear-gradient-7" x1="7138.32" y1="1439.9" x2="7165.62" y2="1439.9" xlink:href="#linear-gradient-4"/><linearGradient id="linear-gradient-8" x1="7341.84" y1="935.12" x2="7038.98" y2="1345.6" xlink:href="#linear-gradient-3"/><linearGradient id="linear-gradient-9" x1="1075.49" y1="671.2" x2="1338.88" y2="1160.77" gradientUnits="userSpaceOnUse"><stop offset="0" stop-color="#fe7062"/><stop offset="1" stop-color="#ff928e"/></linearGradient><linearGradient id="linear-gradient-10" x1="-3779.69" y1="428.54" x2="-3723.91" y2="587.91" gradientTransform="matrix(-1, 0, 0, 1, -2359.4, 0)" xlink:href="#linear-gradient-4"/><linearGradient id="linear-gradient-11" x1="973.57" y1="726.03" x2="1236.97" y2="1215.6" xlink:href="#linear-gradient-9"/><linearGradient id="linear-gradient-12" x1="1133.45" y1="585.04" x2="1117.45" y2="696.04" gradientTransform="matrix(1, 0, 0, 1, 0, 0)" xlink:href="#linear-gradient-4"/><linearGradient id="linear-gradient-13" x1="142.3" y1="3489.38" x2="106.3" y2="3381.38" gradientTransform="matrix(0.75, -0.67, 0.67, 0.75, -443.44, -1476.32)" xlink:href="#linear-gradient-4"/><linearGradient id="linear-gradient-14" x1="-177.13" y1="2443.19" x2="-151.87" y2="2587.28" gradientTransform="matrix(0.75, -0.67, 0.67, 0.75, -443.44, -1476.32)" xlink:href="#linear-gradient-3"/><linearGradient id="linear-gradient-15" x1="114.79" y1="3498.55" x2="78.79" y2="3390.55" gradientTransform="matrix(0.75, -0.67, 0.67, 0.75, -443.44, -1476.32)" xlink:href="#linear-gradient-4"/><linearGradient id="linear-gradient-16" x1="1019.53" y1="1221.18" x2="953.84" y2="749.34" gradientTransform="matrix(1, 0, 0, 1, 0, 0)" xlink:href="#linear-gradient-4"/><linearGradient id="linear-gradient-17" x1="1011.71" y1="1175.79" x2="959.28" y2="799.26" gradientTransform="matrix(1, 0, 0, 1, 0, 0)" xlink:href="#linear-gradient-4"/><linearGradient id="linear-gradient-18" x1="1131.15" y1="908.53" x2="1164.11" y2="106.57" gradientUnits="userSpaceOnUse"><stop offset="0" stop-color="#e1473d"/><stop offset="1" stop-color="#e9605a"/></linearGradient><linearGradient id="linear-gradient-19" x1="1162.39" y1="580.71" x2="1148.39" y2="731.7" xlink:href="#linear-gradient-9"/><linearGradient id="linear-gradient-20" x1="1108.71" y1="575.73" x2="1094.71" y2="726.73" xlink:href="#linear-gradient-9"/><linearGradient id="linear-gradient-21" x1="1102.94" y1="691.38" x2="1259.88" y2="616.05" xlink:href="#linear-gradient-18"/><linearGradient id="linear-gradient-22" x1="1389.96" y1="629.55" x2="1574.26" y2="629.55" gradientTransform="matrix(1, 0, 0, 1, 0, 0)" xlink:href="#linear-gradient"/><linearGradient id="linear-gradient-23" x1="1278.65" y1="461.84" x2="1438.65" y2="461.84" gradientTransform="matrix(1, 0, 0, 1, 0, 0)" xlink:href="#linear-gradient"/><linearGradient id="linear-gradient-24" x1="1278.65" y1="488.66" x2="1438.65" y2="488.66" gradientTransform="matrix(1, 0, 0, 1, 0, 0)" xlink:href="#linear-gradient"/><linearGradient id="linear-gradient-25" x1="1278.65" y1="515.62" x2="1438.65" y2="515.62" gradientTransform="matrix(1, 0, 0, 1, 0, 0)" xlink:href="#linear-gradient"/><linearGradient id="linear-gradient-26" x1="1278.65" y1="543.49" x2="1438.65" y2="543.49" gradientTransform="matrix(1, 0, 0, 1, 0, 0)" xlink:href="#linear-gradient"/><linearGradient id="linear-gradient-27" x1="1277.9" y1="571.8" x2="1437.9" y2="571.8" gradientTransform="matrix(1, 0, 0, 1, 0, 0)" xlink:href="#linear-gradient"/><linearGradient id="linear-gradient-28" x1="1277.75" y1="601.91" x2="1437.75" y2="601.91" gradientTransform="matrix(1, 0, 0, 1, 0, 0)" xlink:href="#linear-gradient"/><linearGradient id="linear-gradient-29" x1="1466.39" y1="336.04" x2="1462.39" y2="470.04" gradientTransform="matrix(1, 0, 0, 1, 0, 0)" xlink:href="#linear-gradient-4"/><linearGradient id="linear-gradient-30" x1="1431.69" y1="335.01" x2="1427.69" y2="469.01" gradientTransform="matrix(1, 0, 0, 1, 0, 0)" xlink:href="#linear-gradient-4"/><linearGradient id="linear-gradient-31" x1="1441.15" y1="335.29" x2="1437.15" y2="469.29" gradientTransform="matrix(1, 0, 0, 1, 0, 0)" xlink:href="#linear-gradient-4"/><linearGradient id="linear-gradient-32" x1="1453.21" y1="335.65" x2="1449.21" y2="469.65" gradientTransform="matrix(1, 0, 0, 1, 0, 0)" xlink:href="#linear-gradient-4"/><linearGradient id="linear-gradient-33" x1="120.55" y1="188.97" x2="-168.87" y2="651.1" gradientTransform="matrix(-0.95, -0.31, -0.31, 0.95, 669.37, 81.45)" xlink:href="#linear-gradient-3"/><linearGradient id="linear-gradient-34" x1="1210.19" y1="79.92" x2="1104.09" y2="219.49" gradientTransform="translate(-468.28 -283.63) rotate(17.79)" xlink:href="#linear-gradient-3"/><linearGradient id="linear-gradient-35" x1="-386.95" y1="3082.6" x2="-485.45" y2="3212.17" gradientTransform="matrix(-0.95, -0.31, -0.31, 0.95, 1177.33, -2900.51)" xlink:href="#linear-gradient-3"/><linearGradient id="linear-gradient-36" x1="-399.36" y1="3090.52" x2="-467.38" y2="3215.41" gradientTransform="matrix(-0.95, -0.31, -0.31, 0.95, 1177.33, -2900.51)" xlink:href="#linear-gradient-3"/><linearGradient id="linear-gradient-37" x1="486.74" y1="326.21" x2="448.74" y2="450.88" xlink:href="#linear-gradient-9"/><linearGradient id="linear-gradient-38" x1="1264.87" y1="472.31" x2="1267.64" y2="563.73" gradientTransform="translate(274.25 -927.32) rotate(65.81)" xlink:href="#linear-gradient-4"/><linearGradient id="linear-gradient-39" x1="1201.46" y1="528.76" x2="1204.22" y2="620.18" gradientTransform="translate(-332.23 -665.31) rotate(37.03)" xlink:href="#linear-gradient-4"/><linearGradient id="linear-gradient-40" x1="1265.84" y1="523.83" x2="1268.61" y2="615.25" gradientTransform="matrix(1, 0.1, -0.1, 1, -854.85, -194.06)" xlink:href="#linear-gradient-4"/><linearGradient id="linear-gradient-41" x1="519.82" y1="221.03" x2="380.32" y2="530.02" xlink:href="#linear-gradient-2"/><linearGradient id="linear-gradient-42" x1="431.77" y1="135.67" x2="292.28" y2="444.65" xlink:href="#linear-gradient-2"/><linearGradient id="linear-gradient-43" x1="527.59" y1="334.97" x2="370.1" y2="633.45" gradientTransform="translate(808.44 -50.11) rotate(74.52)" xlink:href="#linear-gradient-9"/><linearGradient id="linear-gradient-44" x1="576.53" y1="1049.01" x2="237.94" y2="1462.61" gradientTransform="translate(1629.1 671.83) rotate(87.49)" xlink:href="#linear-gradient-2"/><linearGradient id="linear-gradient-45" x1="546.36" y1="1158.46" x2="462.37" y2="1323.45" xlink:href="#linear-gradient-9"/><linearGradient id="linear-gradient-46" x1="456.95" y1="910.16" x2="492.95" y2="1138.15" xlink:href="#linear-gradient-9"/><linearGradient id="linear-gradient-47" x1="395.32" y1="926.96" x2="332.32" y2="1087.45" xlink:href="#linear-gradient-9"/><linearGradient id="linear-gradient-48" x1="339.69" y1="1040.75" x2="288.7" y2="1109.75" xlink:href="#linear-gradient-9"/><linearGradient id="linear-gradient-49" x1="468.3" y1="1300.46" x2="462.02" y2="980.15" xlink:href="#linear-gradient-9"/><linearGradient id="linear-gradient-50" x1="341.77" y1="1301.2" x2="455.77" y2="1241.2" xlink:href="#linear-gradient-9"/><linearGradient id="linear-gradient-51" x1="581.38" y1="1147.26" x2="542.38" y2="1223.76" xlink:href="#linear-gradient-9"/><linearGradient id="linear-gradient-52" x1="-838.14" y1="1935.08" x2="-660.92" y2="2124.76" gradientTransform="matrix(0.79, 0.61, -0.61, 0.79, 2017.86, -121.98)" xlink:href="#linear-gradient-9"/><linearGradient id="linear-gradient-53" x1="-168.24" y1="711.28" x2="-213.24" y2="907.77" gradientTransform="matrix(0, 1, -1, 0, 2556.55, 1660.02)" xlink:href="#linear-gradient-3"/><linearGradient id="linear-gradient-54" x1="-144.06" y1="716.81" x2="-189.06" y2="913.3" gradientTransform="matrix(0.79, 0.61, -0.61, 0.79, 2118.04, -228.18)" xlink:href="#linear-gradient-3"/><linearGradient id="linear-gradient-55" x1="-120.76" y1="722.15" x2="-165.75" y2="918.64" gradientTransform="translate(2594.66 1632.46) rotate(89.99)" xlink:href="#linear-gradient-3"/><linearGradient id="linear-gradient-56" x1="-98.91" y1="727.15" x2="-143.91" y2="923.64" gradientTransform="matrix(0.79, 0.61, -0.61, 0.79, 2118.04, -228.18)" xlink:href="#linear-gradient-3"/><linearGradient id="linear-gradient-57" x1="-73.27" y1="733.02" x2="-118.27" y2="929.51" gradientTransform="translate(2632.51 1606.08) rotate(89.99)" xlink:href="#linear-gradient-3"/><linearGradient id="linear-gradient-58" x1="-49.53" y1="738.45" x2="-94.53" y2="934.95" gradientTransform="translate(2651.17 1594.37) rotate(90.03)" xlink:href="#linear-gradient-3"/><linearGradient id="linear-gradient-59" x1="-26.23" y1="743.79" x2="-71.22" y2="940.28" gradientTransform="translate(2669.39 1579.3) rotate(90.02)" xlink:href="#linear-gradient-3"/><linearGradient id="linear-gradient-60" x1="-3.94" y1="748.89" x2="-48.94" y2="945.39" gradientTransform="translate(2687.53 1568.37) rotate(90.02)" xlink:href="#linear-gradient-3"/><linearGradient id="linear-gradient-61" x1="19.8" y1="754.33" x2="-25.2" y2="950.82" gradientTransform="matrix(0.79, 0.61, -0.61, 0.79, 2118.04, -228.18)" xlink:href="#linear-gradient-3"/><linearGradient id="linear-gradient-62" x1="43.1" y1="759.66" x2="-1.89" y2="956.16" gradientTransform="matrix(0, 1, -1, 0, 2724.68, 1540.03)" xlink:href="#linear-gradient-3"/><linearGradient id="linear-gradient-63" x1="65.39" y1="764.77" x2="20.39" y2="961.26" gradientTransform="translate(2742.72 1529.96) rotate(90.03)" xlink:href="#linear-gradient-3"/><linearGradient id="linear-gradient-64" x1="126.88" y1="778.79" x2="81.88" y2="975.29" gradientTransform="matrix(0.79, 0.61, -0.61, 0.79, 2118.04, -228.18)" xlink:href="#linear-gradient-3"/><linearGradient id="linear-gradient-65" x1="1913.5" y1="909.81" x2="1874.48" y2="1519.59" xlink:href="#linear-gradient-2"/><linearGradient id="linear-gradient-66" x1="1904.42" y1="908.59" x2="1865.28" y2="1520.29" xlink:href="#linear-gradient-2"/><linearGradient id="linear-gradient-67" x1="1880.71" y1="885.77" x2="1925" y2="885.77" gradientTransform="matrix(1, 0, 0, 1, 0, 0)" xlink:href="#linear-gradient"/><linearGradient id="linear-gradient-68" x1="1977.42" y1="818.98" x2="1881.49" y2="904.91" xlink:href="#linear-gradient-18"/><linearGradient id="linear-gradient-69" x1="2008.76" y1="987.51" x2="2045.59" y2="987.51" gradientTransform="matrix(1, 0, 0, 1, 0, 0)" xlink:href="#linear-gradient"/><linearGradient id="linear-gradient-70" x1="1921.96" y1="1180.83" x2="1776.48" y2="1390.8" xlink:href="#linear-gradient-9"/><linearGradient id="linear-gradient-71" x1="1981.62" y1="1284.21" x2="2011.53" y2="1305.39" xlink:href="#linear-gradient-18"/><linearGradient id="linear-gradient-72" x1="2022.15" y1="1014.04" x2="1865.6" y2="1165.52" xlink:href="#linear-gradient-9"/><linearGradient id="linear-gradient-73" x1="2043.13" y1="1183.99" x2="2108.82" y2="1183.99" gradientTransform="matrix(1, 0, 0, 1, 0, 0)" xlink:href="#linear-gradient"/><linearGradient id="linear-gradient-74" x1="1950.92" y1="1082.9" x2="1954.62" y2="1082.9" gradientTransform="matrix(1, 0, 0, 1, 0, 0)" xlink:href="#linear-gradient"/><linearGradient id="linear-gradient-75" x1="1921.11" y1="1077.87" x2="1981.93" y2="1077.87" gradientTransform="matrix(1, 0, 0, 1, 0, 0)" xlink:href="#linear-gradient"/><linearGradient id="linear-gradient-76" x1="2041.65" y1="1213.15" x2="2110.3" y2="1213.15" gradientTransform="matrix(1, 0, 0, 1, 0, 0)" xlink:href="#linear-gradient"/><linearGradient id="linear-gradient-77" x1="1982.32" y1="972.88" x2="1825.77" y2="1124.35" xlink:href="#linear-gradient-9"/><linearGradient id="linear-gradient-78" x1="2044.99" y1="1102.49" x2="2110.68" y2="1102.49" gradientTransform="matrix(1, 0, 0, 1, 0, 0)" xlink:href="#linear-gradient"/><linearGradient id="linear-gradient-79" x1="1952.78" y1="1001.4" x2="1956.48" y2="1001.4" gradientTransform="matrix(1, 0, 0, 1, 0, 0)" xlink:href="#linear-gradient"/><linearGradient id="linear-gradient-80" x1="1922.97" y1="996.37" x2="1983.78" y2="996.37" gradientTransform="matrix(1, 0, 0, 1, 0, 0)" xlink:href="#linear-gradient"/><linearGradient id="linear-gradient-81" x1="2043.51" y1="1131.66" x2="2112.16" y2="1131.66" gradientTransform="matrix(1, 0, 0, 1, 0, 0)" xlink:href="#linear-gradient"/><linearGradient id="linear-gradient-82" x1="1972.2" y1="962.42" x2="1815.65" y2="1113.89" xlink:href="#linear-gradient-9"/><linearGradient id="linear-gradient-83" x1="1940.69" y1="1183.15" x2="2006.39" y2="1183.15" gradientTransform="matrix(1, 0, 0, 1, 0, 0)" xlink:href="#linear-gradient"/><linearGradient id="linear-gradient-84" x1="1848.48" y1="1082.06" x2="1852.19" y2="1082.06" gradientTransform="matrix(1, 0, 0, 1, 0, 0)" xlink:href="#linear-gradient"/><linearGradient id="linear-gradient-85" x1="1818.67" y1="1077.03" x2="1879.49" y2="1077.03" gradientTransform="matrix(1, 0, 0, 1, 0, 0)" xlink:href="#linear-gradient"/><linearGradient id="linear-gradient-86" x1="1939.22" y1="1212.32" x2="2007.87" y2="1212.32" gradientTransform="matrix(1, 0, 0, 1, 0, 0)" xlink:href="#linear-gradient"/><linearGradient id="linear-gradient-87" x1="1932.37" y1="921.26" x2="1775.82" y2="1072.73" xlink:href="#linear-gradient-9"/><linearGradient id="linear-gradient-88" x1="1942.55" y1="1101.65" x2="2008.24" y2="1101.65" gradientTransform="matrix(1, 0, 0, 1, 0, 0)" xlink:href="#linear-gradient"/><linearGradient id="linear-gradient-89" x1="1850.34" y1="1000.56" x2="1854.04" y2="1000.56" gradientTransform="matrix(1, 0, 0, 1, 0, 0)" xlink:href="#linear-gradient"/><linearGradient id="linear-gradient-90" x1="1820.53" y1="995.53" x2="1881.35" y2="995.53" gradientTransform="matrix(1, 0, 0, 1, 0, 0)" xlink:href="#linear-gradient"/><linearGradient id="linear-gradient-91" x1="1941.07" y1="1130.82" x2="2009.72" y2="1130.82" gradientTransform="matrix(1, 0, 0, 1, 0, 0)" xlink:href="#linear-gradient"/><linearGradient id="linear-gradient-92" x1="2182.54" y1="564.3" x2="1860.86" y2="1117.88" xlink:href="#linear-gradient-2"/><linearGradient id="linear-gradient-93" x1="2272.6" y1="932.33" x2="1942.56" y2="1049.99" gradientTransform="matrix(1, 0, 0, 1, 0, 0)" xlink:href="#linear-gradient-3"/><linearGradient id="linear-gradient-94" x1="2172.77" y1="898.8" x2="1909.96" y2="1351.08" xlink:href="#linear-gradient-2"/><linearGradient id="linear-gradient-95" x1="2102.61" y1="1135.27" x2="2173.04" y2="898.56" xlink:href="#linear-gradient-18"/><linearGradient id="linear-gradient-96" x1="1805.41" y1="655.93" x2="1951.1" y2="574.39" gradientTransform="translate(124.67 931.99) rotate(-14.26)" xlink:href="#linear-gradient-9"/><linearGradient id="linear-gradient-97" x1="2010.67" y1="1166.85" x2="1789.57" y2="1024.35" xlink:href="#linear-gradient-18"/><linearGradient id="linear-gradient-98" x1="1907.22" y1="1000.43" x2="1907.22" y2="1112.93" xlink:href="#linear-gradient-9"/><linearGradient id="linear-gradient-99" x1="1121.81" y1="317.45" x2="1182.51" y2="247" gradientTransform="translate(892.3 -927.71) rotate(64.33)" xlink:href="#linear-gradient-18"/><linearGradient id="linear-gradient-100" x1="1216.81" y1="195.61" x2="1037.32" y2="466.77" gradientTransform="translate(88.09 -265.4) rotate(13.28)" xlink:href="#linear-gradient-9"/><linearGradient id="linear-gradient-101" x1="1211.45" y1="203.38" x2="1115.88" y2="363.84" xlink:href="#linear-gradient-9"/><linearGradient id="linear-gradient-102" x1="1204.75" y1="317.04" x2="1310.42" y2="194.39" gradientTransform="translate(520.14 -871.9) rotate(45)" xlink:href="#linear-gradient-18"/><linearGradient id="linear-gradient-103" x1="1370.12" y1="104.93" x2="1057.67" y2="576.97" gradientTransform="translate(520.14 -871.9) rotate(45)" xlink:href="#linear-gradient-9"/><linearGradient id="linear-gradient-104" x1="1360.8" y1="118.46" x2="1194.43" y2="397.78" xlink:href="#linear-gradient-9"/><linearGradient id="linear-gradient-105" x1="1255.96" y1="496.62" x2="1364.68" y2="370.42" gradientTransform="translate(1410.86 -1046.97) rotate(76.72)" xlink:href="#linear-gradient-18"/><linearGradient id="linear-gradient-106" x1="1426.12" y1="278.37" x2="1104.61" y2="764.09" gradientTransform="translate(660.47 -858.78) rotate(45)" xlink:href="#linear-gradient-9"/><linearGradient id="linear-gradient-107" x1="1416.53" y1="292.29" x2="1245.33" y2="579.7" xlink:href="#linear-gradient-9"/><linearGradient id="linear-gradient-108" x1="1265.28" y1="250.04" x2="1344.94" y2="157.57" xlink:href="#linear-gradient-18"/><linearGradient id="linear-gradient-109" x1="1514.28" y1="191.87" x2="1278.71" y2="547.75" gradientTransform="translate(916.58 -1129.1) rotate(58.28)" xlink:href="#linear-gradient-9"/><linearGradient id="linear-gradient-110" x1="1507.25" y1="202.07" x2="1381.81" y2="412.65" xlink:href="#linear-gradient-9"/><linearGradient id="linear-gradient-111" x1="1726.6" y1="381.76" x2="1783.6" y2="381.76" gradientTransform="matrix(1, 0, 0, 1, 0, 0)" xlink:href="#linear-gradient-3"/><linearGradient id="linear-gradient-112" x1="2047.6" y1="381.76" x2="2104.6" y2="381.76" gradientTransform="matrix(1, 0, 0, 1, 0, 0)" xlink:href="#linear-gradient-3"/><linearGradient id="linear-gradient-113" x1="1840.92" y1="337.79" x2="1897.71" y2="337.79" xlink:href="#linear-gradient-2"/><linearGradient id="linear-gradient-114" x1="-2859.55" y1="337.79" x2="-2801.26" y2="337.79" gradientTransform="matrix(-1, 0, 0, 1, -615.63, 0)" xlink:href="#linear-gradient-2"/><linearGradient id="linear-gradient-115" x1="2042.2" y1="320.76" x2="2039.45" y2="653" xlink:href="#linear-gradient-2"/><linearGradient id="linear-gradient-116" x1="1863.82" y1="411.52" x2="1945.89" y2="411.52" xlink:href="#linear-gradient-9"/><linearGradient id="linear-gradient-117" x1="2137.37" y1="411.52" x2="2219.45" y2="411.52" xlink:href="#linear-gradient-9"/><linearGradient id="linear-gradient-118" x1="-1749.06" y1="1014.62" x2="-1717.26" y2="1094.37" gradientTransform="translate(3348.52)" xlink:href="#linear-gradient-3"/><linearGradient id="linear-gradient-119" x1="516.87" y1="3378.12" x2="378.87" y2="3246.78" gradientTransform="translate(3301.17 -266.75) rotate(-12.16)" xlink:href="#linear-gradient-4"/><linearGradient id="linear-gradient-120" x1="-1632.83" y1="1525.22" x2="-1605.87" y2="1525.22" gradientTransform="translate(3348.52)" xlink:href="#linear-gradient-2"/><linearGradient id="linear-gradient-121" x1="-1746.75" y1="1631.53" x2="-1707.95" y2="1178.09" gradientTransform="translate(3348.52)" xlink:href="#linear-gradient-4"/><linearGradient id="linear-gradient-122" x1="-1758.09" y1="1520.29" x2="-1714.46" y2="1520.29" gradientTransform="translate(3348.52)" xlink:href="#linear-gradient-2"/><linearGradient id="linear-gradient-123" x1="-1668.71" y1="1638.28" x2="-1629.9" y2="1184.71" gradientTransform="translate(3348.52)" xlink:href="#linear-gradient-4"/><linearGradient id="linear-gradient-124" x1="1599.56" y1="1186.93" x2="1466.07" y2="1360.92" xlink:href="#linear-gradient-9"/><linearGradient id="linear-gradient-125" x1="-1638.93" y1="1183.1" x2="-1735.93" y2="1338.29" gradientTransform="translate(3348.52)" xlink:href="#linear-gradient-3"/><linearGradient id="linear-gradient-126" x1="1609.02" y1="1082.19" x2="1601.69" y2="1188.19" gradientTransform="matrix(1, 0, 0, 1, 0, 0)" xlink:href="#linear-gradient-4"/><linearGradient id="linear-gradient-127" x1="-1720.97" y1="1210.55" x2="-1672.55" y2="1210.55" gradientTransform="translate(3348.52)" xlink:href="#linear-gradient-4"/><linearGradient id="linear-gradient-128" x1="-673.46" y1="-699.16" x2="-715.46" y2="-643.82" gradientTransform="translate(3307.75 -238.99) rotate(-11.2)" xlink:href="#linear-gradient-4"/><linearGradient id="linear-gradient-129" x1="-1940.91" y1="900.1" x2="-1909.12" y2="979.85" gradientTransform="translate(3307.75 -238.99) rotate(-11.2)" xlink:href="#linear-gradient-3"/><linearGradient id="linear-gradient-130" x1="-661.77" y1="-690.29" x2="-703.77" y2="-634.96" gradientTransform="translate(3307.75 -238.99) rotate(-11.2)" xlink:href="#linear-gradient-4"/><linearGradient id="linear-gradient-131" x1="536.02" y1="3357.98" x2="398.02" y2="3226.65" gradientTransform="translate(3301.17 -266.75) rotate(-12.16)" xlink:href="#linear-gradient-4"/><linearGradient id="linear-gradient-132" x1="1482.89" y1="1034.82" x2="1485.56" y2="1144.15" gradientTransform="matrix(1, 0, 0, 1, 0, 0)" xlink:href="#linear-gradient-4"/></defs><g class="cls-1"><g id="Illustration"><path class="cls-2" d="M533.07,218.84c-159.23,153.35,78,321.34-33.51,408.73s-584.71,274.51-77.79,551.32,541.34,425.07,876.06,207,299.78-196.22,594.37-82.8,580-111.62,462.49-348.9-182.06-230-76.19-393.37-129.73-663.88-507.41-304.67-434,165.42-614.22,3.23C1059.29,171.54,784.71-23.51,533.07,218.84Z" transform="translate(-124.32 -101.74)"/><path class="cls-3" d="M127.43,931.5a4.16,4.16,0,0,1,.28-8.11c69.68-12.95,327.51-45,579.58,126.24C937.93,1206.31,1074.08,1354,1122.5,1411a19.34,19.34,0,0,1-11,31.51c-86,16.76-329.4,51.07-469.37-61.75C474.84,1246,332.13,986.3,127.43,931.5Z" transform="translate(-124.32 -101.74)"/><path class="cls-4" d="M918.4,1000.55s-196.51-569.92-551-849c-23.83-18.76-64.69-5.09-72,24.16C246.83,371.34,165.82,956.21,918.4,1000.55Z" transform="translate(-124.32 -101.74)"/><path class="cls-5" d="M848,971.23c1.75,1.19-.33,3.71-2.27,2.74C774.11,938.49,494.35,754.83,370.39,333c-.4-1.36,1.95-2.19,2.48-.89C412.28,428.54,571,782.28,848,971.23Z" transform="translate(-124.32 -101.74)"/><path class="cls-3" d="M1264.31,1092.11s331.46-614.72,759-881.91c28.74-18,67.58,2.76,68.39,36.59C2097.05,473,2047.15,1140.9,1264.31,1092.11Z" transform="translate(-124.32 -101.74)"/><path class="cls-5" d="M1343.22,1068.37c-2.07,1.12-.5,4.22,1.71,3.39,81.65-30.49,410.7-200.22,634-658a1.35,1.35,0,0,0-2.34-1.32C1914.16,515.61,1670.65,892.34,1343.22,1068.37Z" transform="translate(-124.32 -101.74)"/><path class="cls-4" d="M2160,915.5c-48.24,105.48-354,707.82-970.81,522.39,0,0,99.24-448.36,960.91-536.24A9.81,9.81,0,0,1,2160,915.5Z" transform="translate(-124.32 -101.74)"/><path class="cls-5" d="M2057.76,971.44c-27.18,26.93-55.36,52.72-83.94,78.09s-57.82,50-87.5,74-60,47.42-90.73,70.08l-11.53,8.51-11.66,8.34-11.66,8.34c-3.87,2.79-7.78,5.55-11.72,8.24l-23.59,16.29-23.87,15.89c-7.91,5.36-16,10.41-24.07,15.58s-16.09,10.33-24.29,15.24L1628.7,1305l-24.8,14.4-6.21,3.6-6.27,3.47-12.58,6.9-12.57,6.91c-4.18,2.33-8.48,4.42-12.71,6.65-8.51,4.36-17,8.82-25.52,13.11l-25.87,12.45-6.46,3.11-6.56,2.92-13.11,5.83-13.12,5.82c-4.37,1.95-8.86,3.64-13.28,5.47l-13.31,5.38-6.65,2.7c-2.22.9-4.44,1.81-6.7,2.59l-27,9.8a865.27,865.27,0,0,1-110.83,30.38,3.29,3.29,0,0,1-1.3-6.46h.06A858.93,858.93,0,0,0,1394,1410.31l26.88-9.63c2.25-.77,4.46-1.66,6.66-2.55l6.63-2.65,13.26-5.3c4.41-1.8,8.87-3.46,13.23-5.38l13.08-5.74,13.08-5.75,6.54-2.88,6.45-3.07,25.8-12.29c8.53-4.24,17-8.64,25.48-13,4.22-2.19,8.52-4.26,12.69-6.57l12.56-6.83,12.55-6.83,6.28-3.42,6.19-3.57,24.79-14.25,24.49-14.77c8.21-4.86,16.23-10,24.29-15.1s16.16-10.12,24.08-15.44l23.88-15.76,23.61-16.16q5.93-4,11.73-8.18l11.67-8.27,11.67-8.28,11.55-8.44q46.22-33.73,90.87-69.59t87.69-73.57c28.64-25.21,56.93-50.89,84.12-77.61h0a1.39,1.39,0,0,1,2,2Z" transform="translate(-124.32 -101.74)"/><path class="cls-6" d="M653.45,373.46a38,38,0,0,1,29.32-10.09c115.14,10.36,330-45.1,470.35-188.76,9.75-10,27.52-4.33,38.7,4,156.14,116.7,415,140.86,504.81,145.8a37.92,37.92,0,0,1,35.59,34c81.71,789.18-432.12,1075.15-538.69,1125.63a38,38,0,0,1-36.31-2.1C626.09,1151.09,648.81,720.84,641.46,402.06A38,38,0,0,1,653.45,373.46Z" transform="translate(-124.32 -101.74)"/><path class="cls-3" d="M1179.16,1425.58a11.49,11.49,0,0,1-6.21-1.82c-203.41-130-336-285.46-405.28-475.17-61.9-169.49-64.94-342.14-67.61-494.47q-.18-10.22-.36-20.32a11.32,11.32,0,0,1,3.26-8.2,11.46,11.46,0,0,1,8.24-3.44h.11c66.86,0,146.05-15.55,223-43.8,88.1-32.35,168.28-79.57,231.88-136.56a11.45,11.45,0,0,1,14-1c65.57,43.5,216,119.46,486.77,139.42a11.42,11.42,0,0,1,10.57,10.44c27,307.64-37,567.77-190.15,773.15-114.36,153.38-250,233.28-303,260.52A11.37,11.37,0,0,1,1179.16,1425.58Zm3.88-3.86.67,1.3-.67-1.3c52.81-27.14,187.94-106.78,301.94-259.67,152.69-204.79,216.47-464.24,189.57-771.15a8.49,8.49,0,0,0-7.86-7.77c-54.9-4.05-139.12-13.35-228.59-34.69-104.63-24.95-192-60.35-259.58-105.22a8.55,8.55,0,0,0-10.42.76c-63.87,57.23-144.38,104.65-232.82,137.13-77.23,28.35-156.77,44-224,44h-.11a8.56,8.56,0,0,0-6.15,2.57,8.42,8.42,0,0,0-2.43,6.1q.18,10.1.36,20.32c2.67,152.1,5.7,324.49,67.44,493.51,69.07,189.1,201.26,344.05,404.11,473.72A8.57,8.57,0,0,0,1183,1421.72Z" transform="translate(-124.32 -101.74)"/><path class="cls-7" d="M1156.61,1441.6s-3.69,20.87-5.5,41.53a14.24,14.24,0,0,0,13.62,15.42c27.5,1.14,86.35,3.37,107.46,2.43a4.63,4.63,0,0,0,4.08-6.34h0a10.38,10.38,0,0,0-5.31-5.59l-97.19-44.67Z" transform="translate(-124.32 -101.74)"/><path class="cls-8" d="M1153.59,1429.34l3,25s17,7.93,28.65-1l-7-27.82Z" transform="translate(-124.32 -101.74)"/><path class="cls-9" d="M1155.81,960.08c-1.28,6.52-6.86,325.28,27.21,468.12a4.85,4.85,0,0,1-2.85,5.64,84.19,84.19,0,0,1-27.75,5.64,8.34,8.34,0,0,1-8.28-6c-9.74-33.14-56.41-199.2-62.5-357.82-6.8-177.25,0-6,0-6l4-109.56Z" transform="translate(-124.32 -101.74)"/><path class="cls-10" d="M1044.8,1452.49s-5.87,10.54-11.55,38.53a8.69,8.69,0,0,0,7.64,10.4c9.08.89,23.07,2,34.27,2a8.66,8.66,0,0,0,8.57-9.66c-1.24-10.21-5.11-27-17-40Z" transform="translate(-124.32 -101.74)"/><path class="cls-11" d="M1039.64,1420.39l6.92,37.74s6.85,5.09,20.38,1.4l-3.3-40.61Z" transform="translate(-124.32 -101.74)"/><path class="cls-12" d="M1021,969.87c-27.87,168.17,6,415.66,17.48,464.1a7.56,7.56,0,0,0,6.1,5.74c5.11.84,13.51,1.53,21.8-.87a7,7,0,0,0,5-6.38c1.53-39.16-1.23-279.57,24.73-374.59a21.6,21.6,0,0,1,8.33-11.9l50.4-35.83,3.86-57.92Z" transform="translate(-124.32 -101.74)"/><path class="cls-13" d="M1198.52,651.2c-83.51-1.38-175.66,21.93-175.66,21.93-24.89,145.25-4.35,312.78-4.35,312.78,64.65,17,137.58-10.36,137.58-10.36C1166.84,914.84,1217,744,1217,744c40.8-5.07,74.41-16.84,102.09-32.41-21.11-24.47-31.06-55.61-35.39-74C1254.16,646.72,1224.28,651.63,1198.52,651.2Z" transform="translate(-124.32 -101.74)"/><path class="cls-14" d="M1445.2,528.19c-8.21-9.91-18.59-5.22-18.59-5.22-12.29,51.91-76.73,94-142.93,114.58,4.33,18.41,14.28,49.55,35.39,74C1428.94,649.8,1445.2,528.19,1445.2,528.19Z" transform="translate(-124.32 -101.74)"/><path class="cls-15" d="M1054.89,754l-32-80.86s-78,53-90.83,120.2c14.74,1.08,41.56,4.92,67.81,18.17C1005.61,779.77,1054.89,754,1054.89,754Z" transform="translate(-124.32 -101.74)"/><path class="cls-16" d="M1113.93,583.4l-26.57,76.85a2.76,2.76,0,0,0,1.26,3.33c7.24,4,33.34,15.58,64.79-4.36a13,13,0,0,0,6-9.31l8.6-66.51Z" transform="translate(-124.32 -101.74)"/><path class="cls-17" d="M1171.75,512.24s29.17,54.93,25.43,77.12-39.9,20.59-71.48,2.57l-22.06-59.31Z" transform="translate(-124.32 -101.74)"/><path class="cls-18" d="M1127.1,562.8a2.26,2.26,0,0,0,1-3.31c-2.34-3.57-6.72-10.86-8.12-17.24,0,0-5.25-3.36,13.35-7.81s46.33-11.36,52.16-27.19c5.68-15.43-9.25-54.24-33.08-23.32a2.25,2.25,0,0,1-3.58,0c-3.91-5.08-14.17-15.63-28.43-9.24-13.34,6-14.84,15.76-14.66,20.69a2.24,2.24,0,0,1-2.67,2.3c-6.74-1.28-22.92-2.39-30.48,14.22-6.22,13.67-2.18,21.41,1.51,25.2a2.26,2.26,0,0,1-1,3.75c-4.43,1.35-10.16,5.11-9.58,15.5.79,14.35,16.84,13.09,21.41,12.43a2.27,2.27,0,0,1,2,.72c3.92,4.33,21.57,22.74,40.68,25a2.28,2.28,0,0,0,2.4-3l-8.27-24a2.27,2.27,0,0,1,1.23-2.82Z" transform="translate(-124.32 -101.74)"/><path class="cls-19" d="M1130.42,566.22S1109.65,552,1108.13,564s18.71,17.39,28.73,12.92Z" transform="translate(-124.32 -101.74)"/><path class="cls-20" d="M999.84,811.5s-27.26,123-2.57,192.15c-30.27,14-24.68,11.39-24.68,11.39S912.69,840,932,793.33C970.15,789.28,989.07,799.53,999.84,811.5Z" transform="translate(-124.32 -101.74)"/><path class="cls-21" d="M997.27,1003.65s15.6,20.19,14.36,28.24-1.55,11.32-1.55,11.32-7.84-5.37-7.35-12.22c1.09,21.75,8.37,46.47,1.75,45.28s-40.87-32.77-33.12-66.43C988.93,997.63,993.86,999,997.27,1003.65Z" transform="translate(-124.32 -101.74)"/><path class="cls-22" d="M1131.63,683.72l26.12,177.67a17.37,17.37,0,0,1-1.32,9.65l-19.15,42.38a4.68,4.68,0,0,1-8.78,0l-19-43.08a17.42,17.42,0,0,1-1.42-8.09l11.33-176.41Z" transform="translate(-124.32 -101.74)"/><path class="cls-23" d="M1131.32,667.85l16.83,28.85c1.62,3.51,7.87,3.74,9.91.36l20.79-46-19.18-3.17Z" transform="translate(-124.32 -101.74)"/><path class="cls-24" d="M1090.94,650l29.54,17.9-8.12,28.52c-1.53,3.91-8.65,4.19-10.7.43l-21-37.58Z" transform="translate(-124.32 -101.74)"/><path class="cls-25" d="M1118.22,667.66l17.06-3.23a1.17,1.17,0,0,1,1.37,1.29l-3.47,27a1.17,1.17,0,0,1-.92,1l-12.21,2.55a1.16,1.16,0,0,1-1.4-1.07l-1.37-26.32A1.16,1.16,0,0,1,1118.22,667.66Z" transform="translate(-124.32 -101.74)"/><rect class="cls-4" x="1258.05" y="389.06" width="199.7" height="278.81" rx="4.78"/><path class="cls-26" d="M1569,758.89H1395.23a5.29,5.29,0,0,1-5.27-5.28V505.5a5.29,5.29,0,0,1,5.27-5.28H1569a5.29,5.29,0,0,1,5.28,5.28V753.61A5.29,5.29,0,0,1,1569,758.89ZM1395.23,501.22a4.28,4.28,0,0,0-4.27,4.28V753.61a4.28,4.28,0,0,0,4.27,4.28H1569a4.28,4.28,0,0,0,4.28-4.28V505.5a4.28,4.28,0,0,0-4.28-4.28Z" transform="translate(-124.32 -101.74)"/><rect class="cls-27" x="1278.65" y="458.69" width="160" height="6.29" rx="2.86"/><rect class="cls-28" x="1278.65" y="485.51" width="160" height="6.29" rx="2.86"/><rect class="cls-29" x="1278.65" y="512.48" width="160" height="6.29" rx="2.86"/><rect class="cls-30" x="1278.65" y="540.34" width="160" height="6.29" rx="2.86"/><rect class="cls-31" x="1277.9" y="568.65" width="160" height="6.29" rx="2.86"/><rect class="cls-32" x="1277.75" y="598.77" width="160" height="6.29" rx="2.86"/><path class="cls-33" d="M1466.79,479.47l5.08,23.33a5.11,5.11,0,0,1-3.41,5.93h0a5.45,5.45,0,0,1-6.73-3l-9.83-22.62a5,5,0,0,1,.27-4.62c1.67-2.74,5.3-6.25,12-2.58A5.29,5.29,0,0,1,1466.79,479.47Z" transform="translate(-124.32 -101.74)"/><path class="cls-34" d="M1430.93,488.66l4.14,19a4.17,4.17,0,0,1-2.79,4.84h0a4.45,4.45,0,0,1-5.49-2.41l-8-18.46a4.06,4.06,0,0,1,.22-3.77c1.36-2.24,4.33-5.11,9.78-2.11A4.36,4.36,0,0,1,1430.93,488.66Z" transform="translate(-124.32 -101.74)"/><path class="cls-35" d="M1441,486l4.7,21.63a4.74,4.74,0,0,1-3.16,5.5h0a5.06,5.06,0,0,1-6.24-2.73l-9.12-21a4.69,4.69,0,0,1,.25-4.28c1.56-2.54,4.92-5.8,11.12-2.4A4.93,4.93,0,0,1,1441,486Z" transform="translate(-124.32 -101.74)"/><path class="cls-36" d="M1453.93,482l5.24,25.5a5.71,5.71,0,0,1-3.69,6.53h0a5.7,5.7,0,0,1-7.16-3.18L1438,486.12a5.64,5.64,0,0,1,.33-5.06c1.81-3,5.72-6.89,12.83-2.92A5.67,5.67,0,0,1,1453.93,482Z" transform="translate(-124.32 -101.74)"/><circle class="cls-37" cx="305.86" cy="374.36" r="244.27"/><circle class="cls-38" cx="430.66" cy="478.75" r="221.03" transform="translate(-336.71 343) rotate(-45)"/><path class="cls-39" d="M702.91,259.09,499.59,191.83a22.19,22.19,0,0,0-27.65,13L359.42,494.68A16.36,16.36,0,0,0,369.25,516l231.63,81.32a15.53,15.53,0,0,0,19.89-9.77l98.14-296.68A25.18,25.18,0,0,0,702.91,259.09Z" transform="translate(-124.32 -101.74)"/><path class="cls-4" d="M568.48,581.09a.59.59,0,0,1,.36-1.13L595,588.25a15.76,15.76,0,0,0,19.64-10l13-39.37a.59.59,0,0,1,.74-.38h0a.58.58,0,0,1,.37.75l-13,39.37a17,17,0,0,1-21.12,10.79l-26.18-8.29Z" transform="translate(-124.32 -101.74)"/><path class="cls-4" d="M632.11,527.4h0a.6.6,0,0,1-.38-.75l2.11-6.37a.6.6,0,0,1,.75-.38h0a.6.6,0,0,1,.38.75L632.85,527A.59.59,0,0,1,632.11,527.4Z" transform="translate(-124.32 -101.74)"/><path class="cls-3" d="M703.08,256.5c-29-5.42-128.34-25.36-205.28-57.54a6.77,6.77,0,0,0-8.92,3.77L375.2,493.62a7.78,7.78,0,0,0,4.37,10.07c32.55,12.94,166.77,65.77,217.23,76.8a6.16,6.16,0,0,0,7.15-4.07L708.66,266A7.3,7.3,0,0,0,703.08,256.5Z" transform="translate(-124.32 -101.74)"/><path class="cls-4" d="M697.56,263.19C669.65,258,574.06,238.79,500,207.83a6.51,6.51,0,0,0-8.59,3.62L382,491.38a7.49,7.49,0,0,0,4.21,9.69c31.32,12.46,160.48,63.3,209,73.91a5.93,5.93,0,0,0,6.89-3.91l100.77-298.7A7,7,0,0,0,697.56,263.19Z" transform="translate(-124.32 -101.74)"/><path class="cls-40" d="M592,209.91l23.74,5.59L624.63,195a9.44,9.44,0,0,0-3.25-11.53c-4-2.82-10.41-5-19.44-2.35C584.22,186.35,592,209.91,592,209.91Zm10.64-16a6.06,6.06,0,1,1,3.85,7.66A6.05,6.05,0,0,1,602.59,193.87Z" transform="translate(-124.32 -101.74)"/><path class="cls-4" d="M616,206.38a1.2,1.2,0,0,1-.63-1.58l1.43-3.27a1.2,1.2,0,0,1,2.2,1l-1.42,3.27a1.2,1.2,0,0,1-1.06.72A1.18,1.18,0,0,1,616,206.38Zm2.79-6.4a1.22,1.22,0,0,1-.63-1.59l1.08-2.48a7.21,7.21,0,0,0-2.47-8.8,16.42,16.42,0,0,0-7.51-2.83,1.2,1.2,0,0,1,.28-2.39,18.8,18.8,0,0,1,8.6,3.24,9.63,9.63,0,0,1,3.31,11.74l-1.08,2.48a1.21,1.21,0,0,1-1.07.73A1.29,1.29,0,0,1,618.83,200Z" transform="translate(-124.32 -101.74)"/><path class="cls-41" d="M642.66,239.59,646.17,229a6.83,6.83,0,0,0-4.56-8.71l-74.18-21.75a6.64,6.64,0,0,0-8,3.92l-4,10Z" transform="translate(-124.32 -101.74)"/><path class="cls-38" d="M622.8,218.47h0l-3.16-1a.59.59,0,0,1,.37-1.13h0l3.16,1a.59.59,0,1,1-.37,1.12Z" transform="translate(-124.32 -101.74)"/><path class="cls-4" d="M640,235.58a1.21,1.21,0,0,0,1.11-.82l1.42-4.31a7,7,0,0,0-4.43-8.8l-11.59-3.84a1.21,1.21,0,0,0-.76,2.29l11.6,3.83a4.58,4.58,0,0,1,2.9,5.77l-1.43,4.3a1.21,1.21,0,0,0,.77,1.52A1,1,0,0,0,640,235.58Z" transform="translate(-124.32 -101.74)"/><path class="cls-42" d="M666.93,243.3,538.66,200.86a10,10,0,0,0-11.94,4.78l-.32.59a8.57,8.57,0,0,0,4.87,12.18l131.6,43.53a5.58,5.58,0,0,0,7.12-3.79l1.66-6A7.27,7.27,0,0,0,666.93,243.3Z" transform="translate(-124.32 -101.74)"/><g class="cls-43"><path class="cls-38" d="M647.8,387.66l18.53-63.77a1.29,1.29,0,0,0-.83-1.58L483.05,260.39a1.28,1.28,0,0,0-1,.08,1.32,1.32,0,0,0-.64.82l-17.19,66.44a1.23,1.23,0,0,0,.87,1.48l181.09,59.35h0a1.24,1.24,0,0,0,1.61-.76A.68.68,0,0,0,647.8,387.66Zm15.7-63.3-3.79,13L480.08,276.65l3.46-13.37ZM467,327.21l12.43-48L659,339.89l-13.35,45.94Z" transform="translate(-124.32 -101.74)"/><path class="cls-38" d="M486.88,299.53l81.77,26.79a2.83,2.83,0,0,0,3.68-2l.08-.32a3.36,3.36,0,0,0-2.18-3.95l-81.51-26.67a2.94,2.94,0,0,0-3.75,2l-.1.31A3.17,3.17,0,0,0,486.88,299.53Z" transform="translate(-124.32 -101.74)"/><path class="cls-38" d="M566.11,336.52l-82.2-27a3,3,0,0,0-3.79,2l-.1.31a3.21,3.21,0,0,0,2,4L564.5,343a2.88,2.88,0,0,0,3.72-2.1l.08-.32A3.44,3.44,0,0,0,566.11,336.52Z" transform="translate(-124.32 -101.74)"/><path class="cls-38" d="M636.67,348.61a2.87,2.87,0,0,0,3.79-2.2,3.73,3.73,0,0,0-2.44-4.22l-35.91-11.76a2.94,2.94,0,0,0-3.83,2.17,3.63,3.63,0,0,0,2.35,4.2Z" transform="translate(-124.32 -101.74)"/><path class="cls-38" d="M636.93,363.29a3.79,3.79,0,0,0-2.45-4.3l-36.22-11.9a3,3,0,0,0-3.87,2.21,3.68,3.68,0,0,0,2.37,4.27l36.34,12A2.91,2.91,0,0,0,636.93,363.29Z" transform="translate(-124.32 -101.74)"/><path class="cls-38" d="M669.52,286.15a3.36,3.36,0,0,1-4.14,2.28L497,235.85a3.58,3.58,0,0,1-2.35-4.49l.09-.29a3.56,3.56,0,0,1,4.47-2.35l168.35,52.93a3.32,3.32,0,0,1,2.06,4.23Z" transform="translate(-124.32 -101.74)"/><path class="cls-38" d="M665,300.3a3.37,3.37,0,0,1-4.14,2.29L492.37,250.73a3.57,3.57,0,0,1-2.36-4.47l.09-.28a3.57,3.57,0,0,1,4.47-2.36L663,295.82a3.3,3.3,0,0,1,2.06,4.21Z" transform="translate(-124.32 -101.74)"/><path class="cls-38" d="M480,392.26l-.07,0-24-7.55a6.82,6.82,0,0,1-5-7.58l4-20.84a4.64,4.64,0,0,1,2.07-3,5.58,5.58,0,0,1,4.28-.7h0c2.07.48,4.94,1.09,8.1,1.76,6.87,1.47,14.66,3.13,19.14,4.43l.1,0a7.08,7.08,0,0,1,5.25,6.79c-.15,5-2.93,13.78-6,23.06A6.27,6.27,0,0,1,480,392.26Zm-19.13-37.72a3.53,3.53,0,0,0-2.7.42,2.59,2.59,0,0,0-1.17,1.7l-4,20.84a4.78,4.78,0,0,0,3.57,5.23l24,7.55h0a4.23,4.23,0,0,0,5.36-2.33c3-9.13,5.77-17.72,5.92-22.47A5.1,5.1,0,0,0,488,360.7c-4.41-1.28-12.5-3-19-4.39-3.17-.68-6.05-1.29-8.13-1.77Z" transform="translate(-124.32 -101.74)"/><path class="cls-44" d="M462.83,357.35c5.16,1.19,16.49,3.42,21.72,4.94a4.87,4.87,0,0,1,3.69,4.64c-.13,4-2.52,11.4-4.77,18.19a4.18,4.18,0,0,1-5.35,2.37l-19.18-6a4.64,4.64,0,0,1-3.41-5.12l3.21-16.65A3.27,3.27,0,0,1,462.83,357.35Z" transform="translate(-124.32 -101.74)"/><g class="cls-45"><path class="cls-38" d="M509.33,378.33a2.85,2.85,0,0,0-3.95,2.74l-.19,5a5.5,5.5,0,0,0,3.68,5.16L626.38,427a3.9,3.9,0,0,0,4.9-2.69l.38-1.34a4.25,4.25,0,0,0-2.72-5.11Z" transform="translate(-124.32 -101.74)"/></g><path class="cls-46" d="M462.89,360.83h0a3.86,3.86,0,0,1,4.67,2.93l2.16,10a1.24,1.24,0,0,0,2.15.55l19.75-22.64A1.38,1.38,0,0,1,494,353a54.1,54.1,0,0,1-26,31.44s-6.23-4.89-8.12-19.11A4,4,0,0,1,462.89,360.83Z" transform="translate(-124.32 -101.74)"/><path class="cls-38" d="M462.94,445.39l-.07,0-24-7.55a6.82,6.82,0,0,1-5-7.58l4-20.84a4.7,4.7,0,0,1,2.07-3,5.58,5.58,0,0,1,4.28-.7h0c2.07.48,4.94,1.09,8.1,1.76,6.87,1.47,14.67,3.13,19.14,4.43l.1,0a7.07,7.07,0,0,1,5.25,6.8c-.15,5-2.93,13.77-6,23.05A6.29,6.29,0,0,1,462.94,445.39Zm-19.13-37.72a3.49,3.49,0,0,0-2.7.43,2.59,2.59,0,0,0-1.17,1.69l-4,20.84a4.76,4.76,0,0,0,3.57,5.23l24,7.55.05,0a4.22,4.22,0,0,0,5.36-2.34c3-9.13,5.76-17.72,5.91-22.47a5.09,5.09,0,0,0-3.87-4.79c-4.41-1.28-12.5-3-19-4.39-3.17-.68-6.05-1.29-8.13-1.77Z" transform="translate(-124.32 -101.74)"/><path class="cls-44" d="M445.78,410.48c5.16,1.19,16.49,3.42,21.72,4.94a4.88,4.88,0,0,1,3.69,4.64c-.13,4-2.51,11.4-4.77,18.19a4.19,4.19,0,0,1-5.35,2.38l-19.18-6a4.65,4.65,0,0,1-3.41-5.12l3.22-16.65A3.27,3.27,0,0,1,445.78,410.48Z" transform="translate(-124.32 -101.74)"/><g class="cls-45"><path class="cls-38" d="M492.28,431.46a2.85,2.85,0,0,0-3.95,2.74l-.18,5a5.47,5.47,0,0,0,3.67,5.16l117.51,35.73a3.92,3.92,0,0,0,4.91-2.69l.37-1.34a4.24,4.24,0,0,0-2.72-5.1Z" transform="translate(-124.32 -101.74)"/></g><path class="cls-38" d="M445.89,498.52l-.06,0-24-7.55a6.81,6.81,0,0,1-5-7.58l4-20.84a4.6,4.6,0,0,1,2.06-3,5.59,5.59,0,0,1,4.28-.71h0c2.08.48,4.95,1.09,8.1,1.77C442.2,462,450,463.69,454.47,465l.09,0a7.08,7.08,0,0,1,5.26,6.8c-.16,5-2.94,13.77-6,23.05C452.79,497.92,449.25,499.54,445.89,498.52ZM426.76,460.8a3.54,3.54,0,0,0-2.7.43,2.59,2.59,0,0,0-1.17,1.69l-4,20.84a4.79,4.79,0,0,0,3.57,5.24l24,7.54.05,0a4.23,4.23,0,0,0,5.36-2.33c3-9.13,5.77-17.72,5.91-22.48a5.05,5.05,0,0,0-3.87-4.78c-4.4-1.28-12.49-3-19-4.4-3.17-.67-6.06-1.29-8.14-1.77Z" transform="translate(-124.32 -101.74)"/><path class="cls-44" d="M428.73,463.62c5.16,1.19,16.49,3.41,21.73,4.93a4.88,4.88,0,0,1,3.68,4.64c-.12,4-2.51,11.4-4.77,18.19a4.17,4.17,0,0,1-5.34,2.38l-19.18-6a4.66,4.66,0,0,1-3.42-5.12L424.65,466A3.25,3.25,0,0,1,428.73,463.62Z" transform="translate(-124.32 -101.74)"/><g class="cls-45"><path class="cls-38" d="M475.23,484.59a2.86,2.86,0,0,0-4,2.75l-.18,5a5.48,5.48,0,0,0,3.68,5.16l117.5,35.72a3.91,3.91,0,0,0,4.91-2.69l.37-1.33a4.24,4.24,0,0,0-2.71-5.11Z" transform="translate(-124.32 -101.74)"/></g></g><path class="cls-3" d="M379.56,519,272.92,550.22a17.92,17.92,0,0,1-22.16-12.13L172.92,271.92a17.91,17.91,0,0,1,12.13-22.16l106.64-31.19a17.91,17.91,0,0,1,22.16,12.13l77.84,266.17A17.91,17.91,0,0,1,379.56,519Z" transform="translate(-124.32 -101.74)"/><circle class="cls-4" cx="219.28" cy="281.43" r="21.1" transform="translate(-230.33 326.21) rotate(-76.32)"/><circle class="cls-4" cx="281.22" cy="263.31" r="21.1" transform="matrix(0.08, -1, 1, 0.08, -127.7, 421.22)"/><circle class="cls-4" cx="236.21" cy="337.51" r="21.1" transform="translate(-234.66 13.03) rotate(-22.28)"/><circle class="cls-4" cx="298.15" cy="319.4" r="21.1" transform="translate(-199.8 444.17) rotate(-78.2)"/><circle class="cls-4" cx="254.54" cy="395.82" r="21.1" transform="translate(-223.85 -15.92) rotate(-16.05)"/><circle class="cls-4" cx="316.48" cy="377.71" r="21.1" transform="translate(-241.38 41.73) rotate(-21.66)"/><path class="cls-4" d="M291.73,446a21.1,21.1,0,1,1-26.18-14.33A21.11,21.11,0,0,1,291.73,446Z" transform="translate(-124.32 -101.74)"/><circle class="cls-47" cx="333.41" cy="433.79" r="21.1" transform="translate(-266.36 602.77) rotate(-82.11)"/><circle class="cls-48" cx="289.06" cy="507.83" r="21.1" transform="translate(-415.22 334.67) rotate(-53.33)"/><circle class="cls-49" cx="351" cy="489.72" r="21.1" transform="translate(-281.77 64.71) rotate(-21.92)"/><path class="cls-50" d="M494.38,492.48h-119a31.9,31.9,0,0,1-31.86-31.87V357.71a31.9,31.9,0,0,1,31.86-31.87h119a31.9,31.9,0,0,1,31.86,31.87v102.9A31.9,31.9,0,0,1,494.38,492.48Zm-119-154.93a20.18,20.18,0,0,0-20.16,20.16v102.9a20.18,20.18,0,0,0,20.16,20.16h119a20.18,20.18,0,0,0,20.16-20.16V357.71a20.18,20.18,0,0,0-20.16-20.16Z" transform="translate(-124.32 -101.74)"/><rect class="cls-51" x="130.13" y="290.43" width="360.23" height="228.88" rx="47"/><circle class="cls-52" cx="437.16" cy="506.35" r="67.19" transform="translate(-291.82 690.75) rotate(-74.52)"/><path class="cls-38" d="M475.63,487.78H453.3V468.55a8.17,8.17,0,0,0-8.17-8.18H428.76a8.17,8.17,0,0,0-8.17,8.18v19.23H398.26a8.17,8.17,0,0,0-8.17,8.18v19a8.17,8.17,0,0,0,8.17,8.17h22.33v19.24a8.17,8.17,0,0,0,8.17,8.17h16.37a8.17,8.17,0,0,0,8.17-8.17V523.14h22.33A8.17,8.17,0,0,0,483.8,515V496A8.17,8.17,0,0,0,475.63,487.78Z" transform="translate(-124.32 -101.74)"/><circle class="cls-37" cx="333.2" cy="1073.64" r="262.29"/><circle class="cls-38" cx="458.04" cy="1178.22" r="237.33" transform="translate(-823.29 567.24) rotate(-45)"/><ellipse class="cls-53" cx="463.57" cy="1187" rx="197.96" ry="213.67" transform="translate(-866.94 1496.33) rotate(-87.49)"/><g class="cls-54"><path class="cls-55" d="M518.31,1188c0,17.47-.66,34.94-2,52.35s-3.52,34.78-6.61,52c-1.56,8.6-3.37,17.16-5.52,25.64a248.72,248.72,0,0,1-7.72,25.09,118.87,118.87,0,0,1-11.51,23.65,47.17,47.17,0,0,1-8.65,10.07,24.36,24.36,0,0,1-5.66,3.65,16.6,16.6,0,0,1-13.32.33,23.42,23.42,0,0,1-5.8-3.45,45,45,0,0,1-8.83-9.92A115.2,115.2,0,0,1,431,1343.79a239.69,239.69,0,0,1-7.8-25.06c-2.18-8.47-4-17-5.58-25.63-3.15-17.19-5.29-34.56-6.74-52s-2.17-34.88-2.27-52.35c0-8.73.21-17.47.52-26.2s.82-17.44,1.47-26.15c1.3-17.42,3.24-34.8,6.12-52,1.45-8.61,3.13-17.19,5.16-25.69a245,245,0,0,1,7.31-25.19,113.4,113.4,0,0,1,11.19-23.74,43,43,0,0,1,8.63-10,22.2,22.2,0,0,1,5.71-3.42,16.06,16.06,0,0,1,6.57-1.16,17.32,17.32,0,0,1,6.5,1.52,25.48,25.48,0,0,1,5.64,3.51,48,48,0,0,1,8.81,9.8,117.32,117.32,0,0,1,12.1,23.29,237.09,237.09,0,0,1,8.29,24.88c2.34,8.42,4.32,16.94,6,25.51a492.79,492.79,0,0,1,7.33,51.88C517.52,1153,518.26,1170.49,518.31,1188Zm-2.9,0q.06-26.09-2.06-52.12a499.58,499.58,0,0,0-6.77-51.71c-1.6-8.54-3.46-17-5.68-25.44a236.26,236.26,0,0,0-7.94-24.81,116.21,116.21,0,0,0-11.67-23.17,46.52,46.52,0,0,0-8.5-9.68,24,24,0,0,0-5.38-3.45,16,16,0,0,0-6.14-1.5,15,15,0,0,0-6.2,1.17,21,21,0,0,0-5.42,3.33,42.11,42.11,0,0,0-8.29,9.83A112.26,112.26,0,0,0,430.6,1034a247.38,247.38,0,0,0-7,25.1c-1.91,8.48-3.48,17-4.81,25.63-5.28,34.4-7,69.27-6.9,104-.05,17.39.52,34.78,1.81,52.13s3.28,34.64,6.26,51.77c1.49,8.56,3.23,17.08,5.32,25.51a240.59,240.59,0,0,0,7.52,24.91,113.6,113.6,0,0,0,11.28,23.29,43.5,43.5,0,0,0,8.4,9.62,21.79,21.79,0,0,0,5.37,3.26,14.75,14.75,0,0,0,6.07,1.16,15.59,15.59,0,0,0,6-1.48,22.68,22.68,0,0,0,5.26-3.46,45.36,45.36,0,0,0,8.23-9.78,116.76,116.76,0,0,0,11.11-23.37,244.84,244.84,0,0,0,7.43-24.95c2.06-8.43,3.79-17,5.27-25.52,3-17.13,4.92-34.43,6.22-51.77S515.42,1205.36,515.41,1188Z" transform="translate(-124.32 -101.74)"/><path class="cls-55" d="M606.41,1188a254.72,254.72,0,0,1-9,66.7,214.78,214.78,0,0,1-27.94,61.16c-12.53,18.65-28.5,35.2-47.58,47.2a126.55,126.55,0,0,1-30.62,14,114.75,114.75,0,0,1-66.58,0,126.77,126.77,0,0,1-30.64-14c-19.11-12-35.1-28.53-47.67-47.18a215,215,0,0,1-28-61.18,242.11,242.11,0,0,1-6.78-33.07,247.82,247.82,0,0,1,0-67.37,242.2,242.2,0,0,1,6.81-33.07,215.34,215.34,0,0,1,28.06-61.13c12.57-18.63,28.57-35.15,47.66-47.1a127.21,127.21,0,0,1,30.62-13.91,113.68,113.68,0,0,1,66.46,0,126.82,126.82,0,0,1,30.6,13.94c19.07,12,35,28.49,47.57,47.12a214.47,214.47,0,0,1,28,61.11A255.11,255.11,0,0,1,606.41,1188Zm-3.32,0a252,252,0,0,0-8.64-65.9,213.47,213.47,0,0,0-27-60.68,174.15,174.15,0,0,0-20.79-26A145.37,145.37,0,0,0,521,1014.25a124.43,124.43,0,0,0-30.18-14,110.58,110.58,0,0,0-65.72,0,124.33,124.33,0,0,0-30.15,14,145.21,145.21,0,0,0-25.69,21.14,173.19,173.19,0,0,0-20.74,26,213.15,213.15,0,0,0-26.87,60.66,245,245,0,0,0-6.45,32.64,253.9,253.9,0,0,0,0,66.4,244.43,244.43,0,0,0,6.48,32.62,213.17,213.17,0,0,0,26.91,60.62,174.15,174.15,0,0,0,20.75,26A144.73,144.73,0,0,0,395,1361.47a124.73,124.73,0,0,0,30.13,13.93,109.67,109.67,0,0,0,65.6,0,125.25,125.25,0,0,0,30.16-13.91,144.93,144.93,0,0,0,25.72-21.08,173.82,173.82,0,0,0,20.79-26,213.78,213.78,0,0,0,27-60.64A251.34,251.34,0,0,0,603.09,1188Z" transform="translate(-124.32 -101.74)"/><path class="cls-55" d="M284.89,1111.2l44.54-.4,44.53-.23c14.85-.1,29.69-.09,44.53-.12l44.54-.07,89.07.21,44.53.25,44.53.43a.15.15,0,0,1,.15.15.15.15,0,0,1-.15.14l-44.53.44-44.53.25-89.07.2-44.54-.07c-14.84,0-29.68,0-44.53-.11l-44.53-.23-44.54-.4a.22.22,0,0,1,0-.44Z" transform="translate(-124.32 -101.74)"/><path class="cls-55" d="M336.56,1036.61c10.54-.19,21.08-.27,31.62-.4l31.61-.23c10.54-.1,21.08-.09,31.62-.12l31.62-.07,31.62.08c10.54.05,21.08,0,31.61.13l31.62.25c10.54.14,21.08.23,31.62.43a.14.14,0,0,1,.14.15.14.14,0,0,1-.14.14c-10.54.2-21.08.29-31.62.44l-31.62.25c-10.53.1-21.07.08-31.61.12l-31.62.08-31.62-.07c-10.54,0-21.08,0-31.62-.11l-31.61-.23c-10.54-.14-21.08-.22-31.62-.4a.24.24,0,0,1-.22-.23A.23.23,0,0,1,336.56,1036.61Z" transform="translate(-124.32 -101.74)"/><path class="cls-55" d="M269.42,1185.79l48.4-.4,48.4-.23L463,1185l96.8.2,48.41.25,48.4.43a.15.15,0,0,1,.15.15.15.15,0,0,1-.15.14l-48.4.44-48.41.25-96.8.2-96.81-.18-48.4-.23-48.4-.4a.22.22,0,1,1,0-.44Z" transform="translate(-124.32 -101.74)"/><path class="cls-55" d="M284.89,1260.38l44.54-.4,44.53-.23c14.85-.1,29.69-.09,44.53-.12l44.54-.06,89.07.2,44.53.25,44.53.43a.15.15,0,0,1,.15.15.16.16,0,0,1-.15.15l-44.53.43-44.53.25-89.07.2-44.54-.06c-14.84,0-29.68,0-44.53-.12l-44.53-.23-44.54-.4a.22.22,0,0,1,0-.44Z" transform="translate(-124.32 -101.74)"/><path class="cls-55" d="M595.87,1336H342.93a.76.76,0,0,1-.76-.76.77.77,0,0,1,.76-.77H595.87a.78.78,0,0,1,.77.77A.77.77,0,0,1,595.87,1336Z" transform="translate(-124.32 -101.74)"/></g><path class="cls-56" d="M565.93,1218.49l-15.75-41.75a3.58,3.58,0,0,0-1.79-2l-45.28-22a3.6,3.6,0,0,0-5.11,3.89l7.25,39.08Z" transform="translate(-124.32 -101.74)"/><path class="cls-57" d="M278.76,1053s414.78,214.84,425.51,230.33,24.56,50.11,32,55.9,30.17,30.54,9,44-367.58-161.54-393.45-200.71S254.38,1052,254.38,1052,256,1032.94,278.76,1053Z" transform="translate(-124.32 -101.74)"/><path class="cls-58" d="M397.79,1116.5l-30-69.48a25.3,25.3,0,0,1-1.8-13.85l8.25-54.62a10,10,0,0,0-5.54-10.48c-12.63-6.06-39.08-18.33-41.16-15.85-2.73,3.26-56.82,96.39-56.82,96.39Z" transform="translate(-124.32 -101.74)"/><path class="cls-59" d="M272.84,1067.71l-18.09,14.5a12.38,12.38,0,0,0-4.69,9.94,12.6,12.6,0,0,0,5,9.87l18.48,14.31a12.61,12.61,0,0,0,10.2,2.55l62-12.2Z" transform="translate(-124.32 -101.74)"/><path class="cls-60" d="M417.84,1274.2s.58,22.42,18.79,36.53,44.55,26.44,53.75,23.25,55-43.87,12.75-65.67S400.94,1234.65,417.84,1274.2Z" transform="translate(-124.32 -101.74)"/><path class="cls-61" d="M435.19,1209l98.17,51.58-144.63,37.17a7.5,7.5,0,0,1-5.94-1l-55.11-35.68a7.49,7.49,0,0,1,1.5-13.33Z" transform="translate(-124.32 -101.74)"/><path class="cls-62" d="M484.61,1331.61a2.4,2.4,0,0,0,.63.53c1.28.74,3.36.44,6.2-.9,9.13-4.3,23.19-17.74,25.89-34.15h0a14.19,14.19,0,0,0-4.6-13c-3-2.68-7.83-4.88-13.57-.11-9,7.48-16.4,35-15.64,44.16A6.2,6.2,0,0,0,484.61,1331.61Zm28-44.82a12.38,12.38,0,0,1,2.79,10h0c-2.55,15.52-16.29,28.67-24.77,32.67-2.46,1.16-3.88,1.25-4.35,1-.06,0-.56-.39-.73-2.43-.8-9.53,7-35.85,14.93-42.46,3.78-3.14,7.37-3.12,11,.07A10.84,10.84,0,0,1,512.57,1286.79Z" transform="translate(-124.32 -101.74)"/><polygon class="cls-63" points="189.81 872.14 198.78 879.08 162.84 942.85 151.7 937.75 189.81 872.14"/><rect class="cls-64" x="403.42" y="1155.98" width="17.93" height="13.95" rx="6.76" transform="translate(-883.95 675.35) rotate(-52.25)"/><path class="cls-65" d="M429.91,1171.22a6.76,6.76,0,0,1,9.48-1.21l.34.27a6.76,6.76,0,0,1,1.21,9.48l-2.71,3.49a6.75,6.75,0,0,1-9.48,1.2l-.34-.26a6.76,6.76,0,0,1-1.2-9.48Z" transform="translate(-124.32 -101.74)"/><rect class="cls-66" x="449.24" y="1181.39" width="17.93" height="13.95" rx="6.76" transform="translate(-886.08 720.77) rotate(-52.22)"/><path class="cls-67" d="M475.39,1193.84a6.75,6.75,0,0,1,9.48-1.2l.34.26a6.75,6.75,0,0,1,1.2,9.48l-2.7,3.49a6.76,6.76,0,0,1-9.48,1.21l-.34-.27a6.76,6.76,0,0,1-1.21-9.48Z" transform="translate(-124.32 -101.74)"/><rect class="cls-68" x="495.07" y="1206.81" width="17.93" height="13.95" rx="6.76" transform="translate(-888.41 766.84) rotate(-52.22)"/><rect class="cls-69" x="517.99" y="1219.52" width="17.93" height="13.95" rx="6.76" transform="translate(-889.82 790.77) rotate(-52.26)"/><rect class="cls-70" x="542.12" y="1230.66" width="17.93" height="13.95" rx="6.76" transform="translate(-889.21 813.99) rotate(-52.25)"/><rect class="cls-71" x="562.24" y="1243.72" width="17.93" height="13.95" rx="6.76" transform="translate(-891.73 834.91) rotate(-52.25)"/><path class="cls-72" d="M590,1257.39a6.76,6.76,0,0,1,9.48-1.21l.34.27a6.75,6.75,0,0,1,1.2,9.48l-2.7,3.49a6.75,6.75,0,0,1-9.48,1.2l-.34-.26a6.75,6.75,0,0,1-1.2-9.48Z" transform="translate(-124.32 -101.74)"/><rect class="cls-73" x="609.29" y="1267.56" width="17.93" height="13.95" rx="6.76" transform="matrix(0.61, -0.79, 0.79, 0.61, -892.28, 881.1)"/><rect class="cls-74" x="629.41" y="1280.63" width="17.93" height="13.95" rx="6.76" transform="translate(-894.91 902.59) rotate(-52.26)"/><path class="cls-75" d="M720.94,1314.18l-43.65-17.85a7.35,7.35,0,0,0-9,2.84c-2.27,3.54-4.67,7.68-3.69,7.93,1.75.45,69.14,29.77,69.14,29.77Z" transform="translate(-124.32 -101.74)"/><path class="cls-76" d="M744.56,1284.84a90.94,90.94,0,0,1,9.71-38.51c12.71-25.38,27.79-46.89,13.83-75.68-8.73-18-22.38-33.84-27.29-53.23-5.53-21.87,1.38-46,16-63.11s36.36-27.53,58.71-30.53A64.13,64.13,0,0,0,777.69,1067c-12.18,48.39,43.14,78.79,28.24,130.28-6.59,22.8-15.07,46.42-13.15,70.53,1.21,15.11,28.36,100.58-19.87,79.8-8-3.44-13.57-10.8-17.69-18.45A88.58,88.58,0,0,1,744.56,1284.84Z" transform="translate(-124.32 -101.74)"/><circle class="cls-37" cx="1900.94" cy="1069.01" r="260.57"/><circle class="cls-38" cx="2025.77" cy="1173.57" r="235.78" transform="translate(-360.83 1674.43) rotate(-45)"/><rect class="cls-77" x="1746.53" y="969.14" width="308.16" height="284.13" rx="12"/><polygon class="cls-78" points="1724.34 1015.6 1905.96 765.17 2070.43 1021.31 1724.34 1015.6"/><path class="cls-37" d="M2128.74,1331.75h-34.6a7.8,7.8,0,0,1-7.78-7.78h0a7.8,7.8,0,0,1,7.78-7.78h34.6a7.8,7.8,0,0,1,7.78,7.78h0A7.8,7.8,0,0,1,2128.74,1331.75Z" transform="translate(-124.32 -101.74)"/><path class="cls-37" d="M2153.82,1351h-34.6a7.8,7.8,0,0,1-7.78-7.78h0a7.8,7.8,0,0,1,7.78-7.78h34.6a7.8,7.8,0,0,1,7.78,7.78h0A7.8,7.8,0,0,1,2153.82,1351Z" transform="translate(-124.32 -101.74)"/><path class="cls-37" d="M2166,1313.18h-34.6a7.8,7.8,0,0,1-7.78-7.78h0a7.8,7.8,0,0,1,7.78-7.77H2166a7.8,7.8,0,0,1,7.78,7.77h0A7.8,7.8,0,0,1,2166,1313.18Z" transform="translate(-124.32 -101.74)"/><path class="cls-37" d="M2140.9,1294.39h-34.6a7.8,7.8,0,0,1-7.78-7.78h0a7.8,7.8,0,0,1,7.78-7.78h34.6a7.8,7.8,0,0,1,7.78,7.78h0A7.8,7.8,0,0,1,2140.9,1294.39Z" transform="translate(-124.32 -101.74)"/><path class="cls-37" d="M2153.82,1254.8h-34.6a7.8,7.8,0,0,1-7.78-7.78h0a7.8,7.8,0,0,1,7.78-7.78h34.6a7.8,7.8,0,0,1,7.78,7.78h0A7.8,7.8,0,0,1,2153.82,1254.8Z" transform="translate(-124.32 -101.74)"/><path class="cls-37" d="M2161.31,1217.19H2126.7a7.81,7.81,0,0,1-7.78-7.78h0a7.81,7.81,0,0,1,7.78-7.78h34.61a7.8,7.8,0,0,1,7.77,7.78h0A7.8,7.8,0,0,1,2161.31,1217.19Z" transform="translate(-124.32 -101.74)"/><rect class="cls-37" x="1991.69" y="1065.3" width="40.39" height="15.56" rx="7.78"/><path class="cls-37" d="M2171.23,1163.21h-34.6a7.8,7.8,0,0,1-7.78-7.77h0a7.8,7.8,0,0,1,7.78-7.78h34.6a7.8,7.8,0,0,1,7.78,7.78h0A7.8,7.8,0,0,1,2171.23,1163.21Z" transform="translate(-124.32 -101.74)"/><path class="cls-37" d="M2179,1316.14h-30.58c-3.15,0-5.73,2.14-5.73,4.75v6c0,2.62,2.58,4.76,5.73,4.76H2179Z" transform="translate(-124.32 -101.74)"/><path class="cls-37" d="M2179,1260.37a6.77,6.77,0,0,0-1-.08h-38.72c-3.15,0-5.72,2.14-5.72,4.75v6c0,2.62,2.57,4.76,5.72,4.76H2178a6.77,6.77,0,0,0,1-.08Z" transform="translate(-124.32 -101.74)"/><path class="cls-37" d="M2179,1221a6.77,6.77,0,0,0-1-.08h-38.72c-3.15,0-5.72,2.14-5.72,4.75v6c0,2.62,2.57,4.76,5.72,4.76H2178a6.77,6.77,0,0,0,1-.08Z" transform="translate(-124.32 -101.74)"/><path class="cls-37" d="M2179,1183.48h-30.58c-3.15,0-5.73,2.14-5.73,4.76v6c0,2.61,2.58,4.75,5.73,4.75H2179Z" transform="translate(-124.32 -101.74)"/><path class="cls-37" d="M2179.05,1166.25h-14.21c-3.15,0-5.73,2.14-5.73,4.76v6c0,2.62,2.58,4.76,5.73,4.76h14.21Z" transform="translate(-124.32 -101.74)"/><path class="cls-37" d="M2178.58,1133.35h-36.34c-3.14,0-5.72,1.68-5.72,3.72v4.73c0,2,2.58,3.72,5.72,3.72h36.34Z" transform="translate(-124.32 -101.74)"/><ellipse class="cls-79" cx="1902.86" cy="885.77" rx="22.15" ry="22.18"/><ellipse class="cls-80" cx="1902.86" cy="885.77" rx="17.1" ry="17.13"/><path class="cls-81" d="M2027.18,1006a18.42,18.42,0,1,1,13-5.4h0A18.29,18.29,0,0,1,2027.18,1006Zm0-34.25a15.81,15.81,0,1,0,11.16,27h0a15.81,15.81,0,0,0-11.16-27Z" transform="translate(-124.32 -101.74)"/><path class="cls-82" d="M1907.4,1128.27h0a36.7,36.7,0,0,1,36.7,36.7v88.24a0,0,0,0,1,0,0h-77.37a0,0,0,0,1,0,0v-84.27A40.68,40.68,0,0,1,1907.4,1128.27Z"/><path class="cls-83" d="M2004.58,1297.73a3.87,3.87,0,1,1-3.87-3.68A3.78,3.78,0,0,1,2004.58,1297.73Z" transform="translate(-124.32 -101.74)"/><rect class="cls-84" x="1920.4" y="1053.09" width="62.53" height="58.33"/><path class="cls-85" d="M2108.82,1214.47h-65.69v-61h65.69Zm-62.52-2.63h59.36v-55.7H2046.3Z" transform="translate(-124.32 -101.74)"/><polygon class="cls-86" points="1954.09 1112.11 1950.92 1112.09 1951.46 1053.69 1954.62 1053.71 1954.09 1112.11"/><polygon class="cls-87" points="1981.9 1079.38 1921.11 1078.98 1921.14 1076.35 1981.93 1076.75 1981.9 1079.38"/><path class="cls-88" d="M2107.4,1216.06h-62.84a2.92,2.92,0,0,1-2.91-2.91h0a2.92,2.92,0,0,1,2.91-2.9h62.84a2.91,2.91,0,0,1,2.9,2.9h0A2.91,2.91,0,0,1,2107.4,1216.06Z" transform="translate(-124.32 -101.74)"/><rect class="cls-89" x="1922.25" y="971.59" width="62.53" height="58.33"/><path class="cls-90" d="M2110.68,1133H2045v-61h65.69Zm-62.53-2.63h59.36v-55.7h-59.36Z" transform="translate(-124.32 -101.74)"/><polygon class="cls-91" points="1955.94 1030.61 1952.78 1030.59 1953.31 972.19 1956.48 972.21 1955.94 1030.61"/><polygon class="cls-92" points="1983.76 997.88 1922.97 997.49 1922.99 994.85 1983.79 995.25 1983.76 997.88"/><path class="cls-93" d="M2108.66,1134.56H2047c-1.92,0-3.49-1.31-3.49-2.9h0a3.25,3.25,0,0,1,3.49-2.91h61.66a3.25,3.25,0,0,1,3.5,2.91h0C2112.16,1133.25,2110.59,1134.56,2108.66,1134.56Z" transform="translate(-124.32 -101.74)"/><rect class="cls-94" x="1817.96" y="1052.25" width="62.53" height="58.33"/><path class="cls-95" d="M2006.39,1213.63h-65.7v-61h65.7Zm-62.53-2.63h59.36v-55.7h-59.36Z" transform="translate(-124.32 -101.74)"/><polygon class="cls-96" points="1851.65 1111.27 1848.48 1111.25 1849.02 1052.85 1852.19 1052.87 1851.65 1111.27"/><polygon class="cls-97" points="1879.47 1078.54 1818.67 1078.14 1818.7 1075.51 1879.49 1075.91 1879.47 1078.54"/><path class="cls-98" d="M2004.37,1215.22h-61.66c-1.92,0-3.49-1.31-3.49-2.9h0a3.25,3.25,0,0,1,3.49-2.91h61.66c1.92,0,3.5,1.31,3.5,2.91h0C2007.87,1213.91,2006.29,1215.22,2004.37,1215.22Z" transform="translate(-124.32 -101.74)"/><rect class="cls-99" x="1819.82" y="970.75" width="62.53" height="58.33"/><path class="cls-100" d="M2008.24,1132.13h-65.69v-61h65.69Zm-62.52-2.63h59.36v-55.7h-59.36Z" transform="translate(-124.32 -101.74)"/><polygon class="cls-101" points="1853.51 1029.77 1850.34 1029.75 1850.88 971.35 1854.04 971.37 1853.51 1029.77"/><polygon class="cls-102" points="1881.32 997.04 1820.53 996.65 1820.56 994.01 1881.35 994.41 1881.32 997.04"/><path class="cls-103" d="M2006.23,1133.72h-61.66c-1.93,0-3.5-1.3-3.5-2.9h0a3.25,3.25,0,0,1,3.5-2.91h61.66a3.25,3.25,0,0,1,3.49,2.91h0A3.24,3.24,0,0,1,2006.23,1133.72Z" transform="translate(-124.32 -101.74)"/><path class="cls-104" d="M2036.16,861.88l-17-8.14a3.63,3.63,0,0,0-4.4,1l-23.36,33.63-6.29,40.79-20.29-2.53L1950,948l4.27,23.7-24,4.74-104.22,150a2.45,2.45,0,0,0,1.18,3.66l17,8.14a3.63,3.63,0,0,0,4.4-1l188.77-271.74A2.46,2.46,0,0,0,2036.16,861.88Z" transform="translate(-124.32 -101.74)"/><path class="cls-105" d="M2030.28,866.91,1851,1114c-1,1.46.24,3.3,2.28,3.28l13.23-.12c8.18-.07,15.71-3.7,19.85-9.57l136.33-193.33a2.91,2.91,0,0,1,4.5,0l150.89,207.29a2.83,2.83,0,0,0,2.66,1h0c9.68-1.3,15-10.11,10.46-17.34L2036.76,858.86C2035.81,857.35,2031.32,865.44,2030.28,866.91Z" transform="translate(-124.32 -101.74)"/><path class="cls-106" d="M2223.23,1127l-180.65-260h0l-8-11.52a3,3,0,0,0-.92-.85l-6.74-9.34a3.85,3.85,0,0,0-6,.07L2008.34,864l3.31.28a2.37,2.37,0,0,0,.39,1.89l188.65,271.57a3.73,3.73,0,0,0,4.56,1l16.76-8A2.54,2.54,0,0,0,2223.23,1127Z" transform="translate(-124.32 -101.74)"/><path class="cls-37" d="M1908.81,1341.16c0,1.28,27.61-26.08,27.61-26.08L1907.09,1279l32.33-37.54-35.55-39.93,47.52,43.07-29.23,33.31s38.11,44.62,37.33,44.84S1908.81,1341.16,1908.81,1341.16Z" transform="translate(-124.32 -101.74)"/><path class="cls-37" d="M2080.19,1012.89c-3-1.75-54.78,2.15-54.78,2.15l5.41,36.22s-62,6.91-61.59,6,75.39,5.72,75.39,5.72l-9-38.93Z" transform="translate(-124.32 -101.74)"/><path class="cls-107" d="M2165.53,1102.19a66.53,66.53,0,0,1-9.46,7.8c-30.12,20-81.61,31.22-101.62-7.91-2.48-4.85-4.18-10.24-3.87-15.68.94-16,21.88-21.23,26.44-36.08,4.36-14.2-5.2-27.94-7-41.71-2.08-15.58,10.24-28.78,21.28-38.31,12.88-11.13,26.94-21.06,38.05-33.95s19.16-29.66,17-46.54c9.28,9.36,10.91,23.94,9.41,37s-6.08,26.26-4.93,39.41a31.79,31.79,0,0,1-5,20c-2.8,4.25-6.69,8-8,12.89-1.88,7,2,19.49,6.08,25.39,5.7,8.26,16.6,11.21,23.29,2.47,3-3.86,4.4-8.62,6.21-13.13a82.36,82.36,0,0,1,42.72-44.19c-17.08,7.51-11.39,35.56-11.38,49.81a130.57,130.57,0,0,1-.63,16c-1.84,15.1-8.9,28.83-17.67,41C2180.46,1084.78,2173.42,1094.48,2165.53,1102.19Z" transform="translate(-124.32 -101.74)"/><path class="cls-108" d="M2072.71,1076.72c3.28-8,7.83-15.94,10.9-22.83,3.87-8.69,6.64-18.34,6.43-27.92-.13-6.1-1.47-12.1-2-18.17s-.13-12.48,2.91-17.77c2.18-3.79,5.59-6.77,7.69-10.62a26,26,0,0,0-.91,16.23c.37,1.39,1,2.9,2.34,3.46,1.62.67,13.47-16.42,15.75-18.86-7.68,8.23-8.63,21.37-7.63,31.93,1.27,13.4,10.76,24.75,8.88,38.68-.68,5-3.58,8.45-4.94,13.18-1.79,6.22-1.2,13.82-.1,20.1,3-8.18,10.9-13.6,19-16.78s16.83-4.65,24.88-8a58.63,58.63,0,0,0,33.56-38c.08,3.66-1.09,7.22-2.24,10.7l-6.24,18.81c-2.48,7.49-5,15-8.71,22-12.81,23.89-44.43,45.34-72.24,44.3-6.15-.23-12.49-.5-18.07-3.11a23.76,23.76,0,0,1-13.21-23.38A51.7,51.7,0,0,1,2072.71,1076.72Z" transform="translate(-124.32 -101.74)"/><path class="cls-109" d="M1867.68,1067.17c-3.19-12.78-7.06-29.39-16.85-38.86,2.85,8.12,1.26,17.38-3.07,24.82-5.4,9.28-14.2,12.9-21.7,20.21a43.72,43.72,0,0,0-8.3,10.61c-5.45,10.19-4.94,22.74-1.25,33.7s10.27,20.67,16.78,30.23c-16.69-10.12-31-23.92-48.37-32.74,12.49,6.25,17.79,20.81,25,32.8,12.12,20.25,31.75,35.65,51.14,48.58,19.94,13.31,45.77,15.47,69.15,15.13s49-8,56.37-32.8c3.58-12,2.4-25-.32-37.43A103.26,103.26,0,0,0,1977,1115c-7-13.17-17.55-24.13-26.23-36.26-7.3-10.21-18.88-24.11-20.13-36.66-.45-4.51.45-9,1.35-13.43,2.23-10.93,4.75-22.44,12.5-30.6-21,9.44-36.6,29.17-40.48,51.35-1.11,6.31-1.33,12.8-3.06,19s-5.3,12.21-11.22,15C1876.75,1089.59,1870.17,1077.15,1867.68,1067.17Z" transform="translate(-124.32 -101.74)"/><path class="cls-110" d="M1947.1,1138a112.22,112.22,0,0,1,4.36,13.13c2-.9,3-2.55,3.78-4.68a36.45,36.45,0,0,0,.9-22.2c.41,1.47,5.66,4.77,6.86,6.43a30.06,30.06,0,0,1,4.18,9.57c1.91,6.46,3.51,12.57,3.89,19.37.93,16.89,3,41.55-17.82,46.78s-46-1.81-64-13.06c-11.89-7.48-22-17.47-30.92-28.36-4.58-5.62-4.91-11.45-7.6-17.83-2.87-6.84-7.09-12.87-7.81-20.48-1.25-13.37,5.89-26.22,14.32-36.26-14.76,17.6,12.65,43.94,26.36,51.84,7.65,4.42,16.09,7.29,24,11.26s15.52,9.31,19.72,17.08c1.77-10.3-4.52-20.23-5.49-30.64-1.7-18.35,13.17-36.56,7.3-54,4.07,12.11,8.95,23.78,12.32,36.15A164.54,164.54,0,0,0,1947.1,1138Z" transform="translate(-124.32 -101.74)"/><circle class="cls-111" cx="1183.74" cy="245.58" r="45.25" transform="translate(325.3 1104.36) rotate(-64.33)"/><circle class="cls-112" cx="1183.74" cy="245.58" r="43.75" transform="translate(-149.08 176.8) rotate(-13.28)"/><path class="cls-113" d="M1147.66,229.1a1.58,1.58,0,0,1-.76-.18,1.69,1.69,0,0,1-.75-2.28,42.09,42.09,0,0,1,45.18-22.46,1.7,1.7,0,0,1-.61,3.34,38.74,38.74,0,0,0-41.54,20.65A1.7,1.7,0,0,1,1147.66,229.1Z" transform="translate(-124.32 -101.74)"/><circle class="cls-113" cx="1184.69" cy="246.53" r="37.03" transform="translate(481.11 1207.21) rotate(-73.15)"/><path class="cls-114" d="M1181.06,274.06v-4a33,33,0,0,1-11.31-2.45,2.34,2.34,0,0,1-1.29-2.75l1-3.76a2.34,2.34,0,0,1,3.19-1.53,27.37,27.37,0,0,0,10.43,2.19c4.05,0,7.06-1.37,7.06-4.18,0-2.54-2.33-4-8-5.55-8-2.2-13.78-5.69-13.78-12.75,0-6.38,4.66-11.25,12.75-12.55v-4a2.35,2.35,0,0,1,2.35-2.35h2.37a2.35,2.35,0,0,1,2.34,2.35v3.62a29.68,29.68,0,0,1,9,1.61,2.33,2.33,0,0,1,1.46,2.82l-.94,3.47a2.34,2.34,0,0,1-3.09,1.58,24.42,24.42,0,0,0-8.78-1.6c-4.8,0-6.17,2-6.17,3.77,0,2.2,2.87,3.71,9.11,5.63,8.92,2.67,12.62,6.37,12.62,13,0,6.1-4.53,11.59-13.3,13v4.51a2.35,2.35,0,0,1-2.35,2.34h-2.37A2.34,2.34,0,0,1,1181.06,274.06Z" transform="translate(-124.32 -101.74)"/><circle class="cls-115" cx="1312.55" cy="191.91" r="78.78" transform="translate(124.42 882.58) rotate(-45)"/><circle class="cls-116" cx="1312.55" cy="191.91" r="76.16" transform="translate(124.42 882.58) rotate(-45)"/><path class="cls-113" d="M1249.75,162a1.59,1.59,0,0,1-.76-.19,1.7,1.7,0,0,1-.76-2.28,72.12,72.12,0,0,1,77.31-38.43,1.7,1.7,0,1,1-.61,3.34,69.18,69.18,0,0,0-12.38-1.11A68.32,68.32,0,0,0,1251.27,161,1.71,1.71,0,0,1,1249.75,162Z" transform="translate(-124.32 -101.74)"/><circle class="cls-113" cx="1189.89" cy="91.83" r="64.46"/><path class="cls-117" d="M1307.88,241.49v-7a57,57,0,0,1-19.67-4.27,4,4,0,0,1-2.24-4.79l1.78-6.53a4.09,4.09,0,0,1,5.55-2.68,47.36,47.36,0,0,0,18.17,3.83c7,0,12.29-2.39,12.29-7.28,0-4.42-4.06-7-13.85-9.67-14-3.82-24-9.91-24-22.2,0-11.1,8.12-19.57,22.2-21.84v-7a4.09,4.09,0,0,1,4.09-4.09h4.12a4.09,4.09,0,0,1,4.09,4.09v6.3a51.9,51.9,0,0,1,15.59,2.8,4.06,4.06,0,0,1,2.54,4.9l-1.63,6.05a4.08,4.08,0,0,1-5.38,2.75,42.59,42.59,0,0,0-15.3-2.78c-8.36,0-10.74,3.46-10.74,6.56,0,3.82,5,6.45,15.87,9.79,15.52,4.65,22,11.1,22,22.68,0,10.62-7.88,20.17-23.15,22.55v7.85a4.09,4.09,0,0,1-4.09,4.09H1312A4.09,4.09,0,0,1,1307.88,241.49Z" transform="translate(-124.32 -101.74)"/><circle class="cls-118" cx="1366.88" cy="367.87" r="81.06" transform="translate(570.49 1511.92) rotate(-76.72)"/><circle class="cls-119" cx="1366.88" cy="367.87" r="78.37" transform="translate(15.91 972.54) rotate(-45)"/><path class="cls-113" d="M1302.26,337a1.7,1.7,0,0,1-1.52-2.46,73.73,73.73,0,0,1,66.14-40.72,74.51,74.51,0,0,1,13.36,1.2,1.7,1.7,0,0,1-.61,3.34,71.46,71.46,0,0,0-12.75-1.14,70.33,70.33,0,0,0-63.1,38.85A1.7,1.7,0,0,1,1302.26,337Z" transform="translate(-124.32 -101.74)"/><circle class="cls-113" cx="1368.59" cy="369.57" r="66.33" transform="translate(570.14 1514.9) rotate(-76.72)"/><path class="cls-120" d="M1362.08,418.88v-7.21a59,59,0,0,1-20.25-4.39,4.18,4.18,0,0,1-2.31-4.93l1.84-6.73a4.21,4.21,0,0,1,5.71-2.75,48.78,48.78,0,0,0,18.69,3.94c7.25,0,12.65-2.46,12.65-7.49,0-4.55-4.17-7.25-14.24-9.95-14.37-3.93-24.69-10.19-24.69-22.84,0-11.42,8.35-20.14,22.85-22.48v-7.21a4.2,4.2,0,0,1,4.2-4.21h4.24a4.2,4.2,0,0,1,4.2,4.21v6.48a53.81,53.81,0,0,1,16,2.88,4.18,4.18,0,0,1,2.62,5.05l-1.69,6.22a4.19,4.19,0,0,1-5.53,2.83,43.82,43.82,0,0,0-15.74-2.86c-8.6,0-11.06,3.56-11.06,6.75,0,3.93,5.16,6.63,16.34,10.07,16,4.79,22.59,11.42,22.59,23.34,0,10.93-8.1,20.75-23.82,23.21v8.07a4.2,4.2,0,0,1-4.21,4.21h-4.24A4.2,4.2,0,0,1,1362.08,418.88Z" transform="translate(-124.32 -101.74)"/><circle class="cls-121" cx="1346.55" cy="155.71" r="59.39"/><circle class="cls-122" cx="1470.87" cy="257.45" r="57.42" transform="translate(354.27 1271.56) rotate(-58.28)"/><path class="cls-113" d="M1423.52,235.29a1.76,1.76,0,0,1-.76-.18,1.69,1.69,0,0,1-.75-2.28,54.47,54.47,0,0,1,48.86-30.09,55.07,55.07,0,0,1,9.87.89,1.7,1.7,0,1,1-.61,3.34,51.94,51.94,0,0,0-9.26-.83A51.09,51.09,0,0,0,1425,234.36,1.69,1.69,0,0,1,1423.52,235.29Z" transform="translate(-124.32 -101.74)"/><circle class="cls-113" cx="1472.12" cy="258.7" r="48.6" transform="translate(-146.75 137.41) rotate(-9.22)"/><path class="cls-123" d="M1467.35,294.82v-5.28a43,43,0,0,1-14.83-3.22,3.05,3.05,0,0,1-1.69-3.61l1.34-4.93a3.08,3.08,0,0,1,4.19-2,35.77,35.77,0,0,0,13.69,2.88c5.31,0,9.27-1.8,9.27-5.49,0-3.33-3.06-5.31-10.44-7.29-10.52-2.88-18.08-7.47-18.08-16.73,0-8.37,6.12-14.76,16.73-16.47v-5.29a3.08,3.08,0,0,1,3.08-3.08h3.11a3.08,3.08,0,0,1,3.08,3.08v4.75a39.39,39.39,0,0,1,11.76,2.11,3.07,3.07,0,0,1,1.92,3.7l-1.24,4.56a3.07,3.07,0,0,1-4,2.07,32.27,32.27,0,0,0-11.54-2.09c-6.3,0-8.1,2.61-8.1,5,0,2.88,3.78,4.86,12,7.38,11.7,3.5,16.56,8.36,16.56,17.09,0,8-5.94,15.21-17.46,17v5.91a3.07,3.07,0,0,1-3.08,3.08h-3.11A3.07,3.07,0,0,1,1467.35,294.82Z" transform="translate(-124.32 -101.74)"/><circle class="cls-37" cx="1916.76" cy="306.67" r="257.55"/><circle class="cls-38" cx="2041.59" cy="411.21" r="233.04" transform="translate(182.88 1462.32) rotate(-45)"/><rect class="cls-124" x="1726.6" y="327.26" width="57" height="109" rx="23.29"/><rect class="cls-125" x="2047.6" y="327.26" width="57" height="109" rx="23.29"/><path class="cls-126" d="M1882.52,336.48c-.7-.16-1.6-.78-1.6-1.49V330.2a11.84,11.84,0,0,0-6.31-10.9,19,19,0,0,0-16.75-.26l-9.55,4.64a13.09,13.09,0,0,0-7.39,12.16v3.65a13.21,13.21,0,0,0,11.36,13.31l40.65,5.55,4.78-18.57Z" transform="translate(-124.32 -101.74)"/><path class="cls-127" d="M2200.22,336.48c.7-.16.7-.78.7-1.49V330.2c0-4.61,3.09-8.83,7.21-10.9a20,20,0,0,1,17.2-.26l10.38,4.64c4.72,2.2,8.21,6.95,8.21,12.16v3.65a13.73,13.73,0,0,1-12,13.31L2191,358.35l-5.38-18.57Z" transform="translate(-124.32 -101.74)"/><path class="cls-128" d="M2230.51,377.54c-5.91-19.93-36.41-38.7-36.41-38.7S2168.51,260,2141,260H1942.31c-27.55,0-53.14,78.84-53.14,78.84s-30.5,18.6-36.41,38.53c-4.31,14.57,5,71.18,10.39,100.1,1.88,10.19,11.5,18.53,22.74,18.53h311.49c11.23,0,20.85-8.25,22.74-18.45C2225.46,448.64,2234.82,392.11,2230.51,377.54Z" transform="translate(-124.32 -101.74)"/><path class="cls-37" d="M2226.67,461.78a9.17,9.17,0,0,0-7.1-2.78H1863.7a9.18,9.18,0,0,0-7.07,2.75,7.27,7.27,0,0,0-1.76,6.75l5.83,23.64a9.33,9.33,0,0,0,8.83,6.86h343.92a9.43,9.43,0,0,0,8.81-6.86l6.11-23.27A7.8,7.8,0,0,0,2226.67,461.78Z" transform="translate(-124.32 -101.74)"/><path class="cls-129" d="M1945.52,425.35s-8.85-26.57-20-28.87-58.38-12.13-59.37-3.93-10.49,36.41,17.72,39S1950.07,436.36,1945.52,425.35Z" transform="translate(-124.32 -101.74)"/><path class="cls-130" d="M2137.75,425.35s8.85-26.57,20-28.87,58.38-12.13,59.36-3.93,10.5,36.41-17.71,39S2133.2,436.36,2137.75,425.35Z" transform="translate(-124.32 -101.74)"/><path class="cls-37" d="M2131.39,402.47a5.19,5.19,0,0,0-4.17-2.47H1956.05a5.24,5.24,0,0,0-4.39,7.61l9.63,18.3A20.73,20.73,0,0,0,1979.5,437h125.76a20.67,20.67,0,0,0,18.82-12.3l7.68-17.35A5.31,5.31,0,0,0,2131.39,402.47Z" transform="translate(-124.32 -101.74)"/><path class="cls-4" d="M2178,345.42a5.93,5.93,0,0,1-5,2.58H1910.3a5.85,5.85,0,0,1-5.43-8.39c6-12.57,17.15-35.8,23.42-48.81a17.17,17.17,0,0,1,1-1.86,16.84,16.84,0,0,1,14.13-7.94H2142a16.89,16.89,0,0,1,14.2,8.06,18.06,18.06,0,0,1,1.13,2.24l21.14,48.44A6,6,0,0,1,2178,345.42Z" transform="translate(-124.32 -101.74)"/><path class="cls-3" d="M2156.2,289.06c-13.91,2.74-54.8,9.67-116.47,9.67-62.18,0-98.67-7.11-110.48-9.81a16.8,16.8,0,0,1,14.13-7.92H2142A16.89,16.89,0,0,1,2156.2,289.06Z" transform="translate(-124.32 -101.74)"/><path class="cls-37" d="M1941.29,389.21a1,1,0,0,1-.68-.27l-34-32.22a1,1,0,0,1,1.35-1.43l34,32.22a1,1,0,0,1-.68,1.7Z" transform="translate(-124.32 -101.74)"/><path class="cls-37" d="M2139.47,389.21a1,1,0,0,1-.71-.31,1,1,0,0,1,0-1.39l34-32.22a1,1,0,0,1,1.35,1.43l-34,32.22A1,1,0,0,1,2139.47,389.21Z" transform="translate(-124.32 -101.74)"/><path class="cls-131" d="M1618.32,1057.52s10.71,5.21,12.68,11.2c1.59,4.81,13.44,5.43,14.61,14.88a10.83,10.83,0,0,0,9.07,9.53c12.11,1.86,30.76,8.14,33.75,29.16,2.28,16-5.9,22.12-14.48,24.23a12.15,12.15,0,0,0-9.22,14c1.22,6.1-.6,13.16-11.18,18.74-23.69,12.51-47.36-29.62-47.36-29.62l-4.85-73.56Z" transform="translate(-124.32 -101.74)"/><path class="cls-132" d="M1489.37,1040.08s47.32,74.84,103.58,89.3c0,0-11,31.22-19.43,34.79,0,0-69.21-57.75-87-113.45Z" transform="translate(-124.32 -101.74)"/><path class="cls-133" d="M1715.72,1518.75l1.53,12.61a5.21,5.21,0,0,0,4.57,4.55,80,80,0,0,0,16.87.27,4.47,4.47,0,0,0,3.75-5.79c-1.55-4.86-4.38-12.17-8.46-16.47h-14A4.31,4.31,0,0,0,1715.72,1518.75Z" transform="translate(-124.32 -101.74)"/><path class="cls-134" d="M1606.19,1371.08l-2.36,13.88s7.9,80.06,9.31,112.09a25.13,25.13,0,0,1-3.71,14.26l-13.75,22.32,34.93-20.61.7-4.26-5.72-7.86,7.49-89.7A27.56,27.56,0,0,0,1630,1396l-7.23-13.57Z" transform="translate(-124.32 -101.74)"/><path class="cls-135" d="M1593.38,1536.87h11.15a6.71,6.71,0,0,0,5.33-2.62c3.47-4.51,10.67-13.32,14.11-13.55,4.64-.31,4,16.17,4,16.17h2.59l3.29-20.48a12.12,12.12,0,0,0-6.36-12.67h0s-1,7.84-6.8,11.3-23.38,15.88-23.38,15.88a15.85,15.85,0,0,0-4.53.12A3,3,0,0,0,1593.38,1536.87Z" transform="translate(-124.32 -101.74)"/><path class="cls-136" d="M1654,1377.67s46.31,87.84,53.67,107.89,9.94,36.79,10,38.37c.15,2.48,3.23,4.85,11.72,4.85,4.38,0,6.53-1.75,7.58-3.45a5,5,0,0,0,.18-4.8c-2.68-5.42-11.18-22.74-14.32-30.6-3.76-9.38-11.85-51.89-16.28-66.67s-9.45-30.82-28.76-45.59C1677.86,1377.67,1664.61,1364.69,1654,1377.67Z" transform="translate(-124.32 -101.74)"/><path class="cls-137" d="M1624.78,1233.74c-11.94-50.61,18.32-79.24,18.32-79.24-19.1-18.33-53.88-26.67-53.88-26.67S1556,1152.1,1560,1171.1c2.31,11.13,23.33,66.68,23.33,66.68S1602.73,1247,1624.78,1233.74Z" transform="translate(-124.32 -101.74)"/><path class="cls-138" d="M1651.27,1258.8c-4.87-14.64-26.49-25.06-26.49-25.06-22,13.25-41.49,4-41.49,4s-4.36,16.67-1.35,32.16,21.89,115,21.89,115c29.75,6,75.5-6.06,75.5-6.06C1660.38,1345.25,1656.13,1273.45,1651.27,1258.8Z" transform="translate(-124.32 -101.74)"/><path class="cls-139" d="M1610.92,1094.39l9.71,43.62c.93,3.84-2.57,3.21-6.46,2.48-6.36-1.2-14.56-3.67-17.3-8.62a4.72,4.72,0,0,1-.5-1.65L1592.2,1100a5.44,5.44,0,0,1,3.18-5.71l8-3.57A5.43,5.43,0,0,1,1610.92,1094.39Z" transform="translate(-124.32 -101.74)"/><path class="cls-140" d="M1643.1,1154.5s67.78,48.49,8.67,99.45a15.35,15.35,0,0,1-6.69,3.88c-2.24.67-8.86,5.68-12.22,8.29a2.29,2.29,0,0,1-3.36-.61h0a3.13,3.13,0,0,1-.18-3l8.39-17.74a6.48,6.48,0,0,1,8.41-.37h0a3.19,3.19,0,0,0,4.84-1.09c4.57-9.31,13.2-36.68-22.12-67.61a3.83,3.83,0,0,1-.85-4.65C1630.47,1166.27,1636.15,1156.8,1643.1,1154.5Z" transform="translate(-124.32 -101.74)"/><path class="cls-141" d="M1592.32,1054.62s-10.34,7-14.79,24.82,2.78,24.22,10.18,23.83,18.13-2.69,27.43-15.47S1605.86,1046.07,1592.32,1054.62Z" transform="translate(-124.32 -101.74)"/><path class="cls-142" d="M1605.76,1080.61s3.79-25.54-17.41-21.63l-4.29,4.46s-10.38-11.69,1.11-20.52,27.42-6.57,36.24,9.51,12,27.39,4.63,37.38-13,1.42-13,1.42,3.39-8.65.57-12.36-6.44,2.16-6.44,2.16Z" transform="translate(-124.32 -101.74)"/><path class="cls-143" d="M1608.66,1082.8s1.87-13.14,8.58-9.39-2.42,12.28-6.08,15.18Z" transform="translate(-124.32 -101.74)"/><path class="cls-144" d="M1489.7,1055.49c-.15,1.54,5.59,2.61,7.42-4-.5-2.86-1.39-15.37-3.58-17.32-11.67-10.35-32.48-22-32.48-22a4.26,4.26,0,0,0,.73,5.9l10.38,7c-1.08,3.59-2.66,6.76-2.84,10.85a12.15,12.15,0,0,0,3.07,8.5c2.07,2.36,4.85,5.41,7.36,7.72A12,12,0,0,0,1489.7,1055.49Z" transform="translate(-124.32 -101.74)"/><path class="cls-145" d="M1484.39,1050.25c-.06-.12-5.1-12.38-7.34-14.72a4.82,4.82,0,0,1-1.69-3.46,3.44,3.44,0,0,1,1.44-2.42l.26-.21,9.55,5.11,3.9,6.11-.84.54-3.76-5.89-8.72-4.67a2.24,2.24,0,0,0-.83,1.49,3.94,3.94,0,0,0,1.42,2.71c2.36,2.47,7.32,14.52,7.53,15Z" transform="translate(-124.32 -101.74)"/></g></g></svg>