<?xml version="1.0" encoding="utf-8"?>
<!-- Generator: Adobe Illustrator 25.2.1, SVG Export Plug-In . SVG Version: 6.00 Build 0)  -->
<svg version="1.1" id="katman_1" xmlns="http://www.w3.org/2000/svg" xmlns:xlink="http://www.w3.org/1999/xlink" x="0px" y="0px"
	 viewBox="0 0 321 314" style="enable-background:new 0 0 321 314;" xml:space="preserve">
<style type="text/css">
	.st0{fill-rule:evenodd;clip-rule:evenodd;fill:#574CFA;}
	.st1{fill:none;stroke:#574CFA;}
	.st2{fill-rule:evenodd;clip-rule:evenodd;fill:#070E15;}
	.st3{fill:none;stroke:#070E15;stroke-width:2;stroke-linecap:round;stroke-linejoin:round;}
	.st4{fill-rule:evenodd;clip-rule:evenodd;fill:#F9F8F4;}
	.st5{fill-rule:evenodd;clip-rule:evenodd;fill:#FFFFFF;}
	.st6{fill:none;stroke:#FFFFFF;stroke-width:2;stroke-linecap:round;stroke-linejoin:round;}
	.st7{fill:none;stroke:#574CFA;stroke-width:2;stroke-linecap:round;stroke-linejoin:round;}
	.st8{fill:none;}
	.st9{fill:none;stroke:#F9F8F4;stroke-width:2;stroke-linecap:round;stroke-linejoin:round;}
	.st10{fill-rule:evenodd;clip-rule:evenodd;fill:#4A539F;}
	.st11{enable-background:new    ;}
	.st12{fill:#1D1D1B;}
	.st13{fill-rule:evenodd;clip-rule:evenodd;}
	.st14{fill:#574CFA;}
</style>
<path class="st0" d="M94.11,99l-16,6.36c-6.95,2.76-12.09,8.78-13.74,16.08L56,158.69h29.59L87.22,171h83.07L202,153.37
	l-22.67-47.55l-48,9.55C105.36,112,94.11,99,94.11,99"/>
<path class="st1" d="M94.11,99l-16,6.36c-6.95,2.76-12.09,8.78-13.74,16.08L56,158.69h29.59L87.22,171h83.07L202,153.37
	l-22.67-47.55l-48,9.55C105.36,112,94.11,99,94.11,99z"/>
<path class="st2" d="M86,63.85c0,0,20.9,14.15,46.76,14.15c15.73-0.08,31.23-3.84,45.24-11c0,0-3.79-66-45.27-66S86,63.85,86,63.85"
	/>
<path class="st3" d="M86,63.85c0,0,20.9,14.15,46.76,14.15c15.73-0.08,31.23-3.84,45.24-11c0,0-3.79-66-45.27-66S86,63.85,86,63.85z
	"/>
<path class="st4" d="M155.49,32H109c0,0-8.4,49,24.16,49s22.36-49,22.36-49"/>
<path class="st3" d="M155.49,32H109c0,0-8.4,49,24.16,49S155.49,32,155.49,32z"/>
<path class="st5" d="M130,43.5c0,6.35-5.15,11.5-11.5,11.5S107,49.85,107,43.5S112.15,32,118.5,32S130,37.15,130,43.5"/>
<path class="st3" d="M130,43.5c0,6.35-5.15,11.5-11.5,11.5S107,49.85,107,43.5S112.15,32,118.5,32S130,37.15,130,43.5z"/>
<path class="st5" d="M159,43.5c0,6.35-5.15,11.5-11.5,11.5S136,49.85,136,43.5S141.15,32,147.5,32S159,37.15,159,43.5"/>
<path class="st3" d="M159,43.5c0,6.35-5.15,11.5-11.5,11.5S136,49.85,136,43.5S141.15,32,147.5,32S159,37.15,159,43.5z"/>
<path class="st3" d="M130,44c0,0,3.26-4.5,6,0"/>
<path class="st3" d="M129.59,47c-0.59,2.54-1.82,4.88-3.59,6.8c0.13,1.23,0.71,2.38,1.64,3.2c0.93,0.78,2.15,1.14,3.36,1"/>
<path class="st3" d="M134,55c0.78,0.04,1.5,0.41,2,1"/>
<path class="st3" d="M127.66,67.64c2.55,1.33,5.49,1.71,8.3,1.07c4-0.86,7-5.22,7-5.22c-1.91,0.15-3.83-0.06-5.66-0.62
	c-1.82-0.56-3.71-0.85-5.62-0.86c-3.07,0.14-5.65,1.73-8.72,1.48"/>
<path class="st6" d="M109,27c0,0,1.26-18.49,20-24"/>
<path class="st6" d="M155,26c-0.79-3.21-2.14-6.26-4-9"/>
<line class="st7" x1="203" y1="153" x2="171" y2="171"/>
<line class="st3" x1="83" y1="138" x2="87" y2="171"/>
<line class="st3" x1="86" y1="159" x2="90" y2="143"/>
<path class="st5" d="M176.85,240h-91.7c-2.19,0-4.06-1.6-4.38-3.77L72.05,176c-0.33-2.41,1.35-4.63,3.76-4.96
	c0.2-0.03,0.41-0.04,0.61-0.04h109.16c2.43-0.01,4.4,1.96,4.41,4.39c0,0.2-0.01,0.41-0.04,0.61l-8.72,60.2
	c-0.32,2.17-2.19,3.77-4.38,3.77"/>
<path class="st3" d="M176.85,240h-91.7c-2.19,0-4.06-1.6-4.38-3.77L72.05,176c-0.33-2.41,1.35-4.63,3.76-4.96
	c0.2-0.03,0.41-0.04,0.61-0.04h109.16c2.43-0.01,4.4,1.96,4.41,4.39c0,0.2-0.01,0.41-0.04,0.61l-8.72,60.2
	C180.92,238.38,179.05,240,176.85,240z"/>
<path class="st7" d="M94,99c11.39,10.07,26.78,15.63,42.18,16S167,110.66,180,102.59"/>
<path class="st3" d="M156,84l8-2"/>
<path class="st5" d="M234.38,313h8.48c3.41-0.02,6.16-2.81,6.14-6.22c0,0,0,0,0,0c0.07-9.32-7.44-16.93-16.76-17c0,0-0.01,0-0.01,0
	h-16.81c-3.63,0.01-7.21-0.88-10.42-2.59l-6.71-3.59c-3.06-1.65-6.65-2.05-10-1.11L162,289.8l18.71,0.59L188,298v15H234.38z"/>
<path class="st3" d="M185.28,294.16c-1.8-2.59-4.75-4.14-7.9-4.14h-17.17l-36.63-15L77,256l-17,36.33
	c4.13,1.28,8.57,2.51,13.38,3.67l2.32,0.56c11,2.59,23.11,4.87,35.08,6.85C149.8,309.84,188,313,188,313v-14.89L185.28,294.16z"/>
<path class="st3" d="M76,312l35-9.34c-12-1.92-24-4.14-35-6.66V312z"/>
<path class="st3" d="M206.36,277.44L189,247l-65,28.07l36.48,15h1.73l26.28-7.23c3.34-0.91,6.89-0.52,9.95,1.1l6.7,3.55
	c3.2,1.67,6.76,2.54,10.37,2.51h16.76c9.26,0.02,16.75,7.55,16.73,16.81c0,0.01,0,0.03,0,0.04c0.01,3.39-2.74,6.14-6.13,6.15h0
	h-8.45"/>
<path class="st2" d="M237.33,223l-106.08,13.71l-100.38-6.23c0,0-24.58,6.23-17.63,35.68c0,0,10.69,14.61,47,25.84l17-36.29
	l-22.79-9.31l22.76,9.31l1.24-2.65l-1.24,2.65l46.48,19l65.22-28.06l-0.69-1.2l0.69,1.2l19.56-8.42l-19.56,8.42l17.37,30.42
	c24.31-8.17,40.49-15.62,40.49-15.62c13.43-23.94-9.44-38.47-9.44-38.47"/>
<path class="st3" d="M237.33,223l-106.08,13.71l-100.38-6.23c0,0-24.58,6.23-17.63,35.68c0,0,10.69,14.61,47,25.84l17-36.29
	l-22.79-9.31l22.76,9.31l1.24-2.65l-1.24,2.65l46.48,19l65.22-28.06l-0.69-1.2l0.69,1.2l19.56-8.42l-19.56,8.42l17.37,30.42
	c24.31-8.17,40.49-15.62,40.49-15.62C260.2,237.53,237.33,223,237.33,223z"/>
<line class="st6" x1="54" y1="246" x2="77" y2="255"/>
<line class="st6" x1="189" y1="246" x2="209" y2="238"/>
<path class="st5" d="M196.39,294h-4.32c-2.25,0.01-4.08,1.84-4.07,4.09v0v10.82c-0.01,2.25,1.82,4.08,4.07,4.09c0,0,0,0,0,0H209"/>
<path class="st3" d="M196.39,294h-4.32c-2.25,0.01-4.08,1.84-4.07,4.09v0v10.82c-0.01,2.25,1.82,4.08,4.07,4.09c0,0,0,0,0,0H209"/>
<path class="st5" d="M34.85,287c-15.36,0-17.7,10.73-17.85,16.54c-0.09,4.58,3.54,8.36,8.12,8.46c0.05,0,0.1,0,0.15,0h46.8
	c2.17,0,3.93-1.76,3.93-3.93c0,0,0-0.01,0-0.01v-8.51c0.01-2.17-1.75-3.93-3.92-3.94c0,0-0.01,0-0.01,0h-5.32"/>
<path class="st3" d="M34.85,287c-15.36,0-17.7,10.73-17.85,16.54c-0.09,4.58,3.54,8.36,8.12,8.46c0.05,0,0.1,0,0.15,0h46.8
	c2.17,0,3.93-1.76,3.93-3.93c0,0,0-0.01,0-0.01v-8.51c0.01-2.17-1.75-3.93-3.92-3.94c0,0-0.01,0-0.01,0h-5.32"/>
<line class="st8" x1="1" y1="312.5" x2="264" y2="312.5"/>
<line class="st3" x1="1" y1="312.5" x2="264" y2="312.5"/>
<polyline class="st5" points="32,179 62,179 56.96,229 37.04,229 "/>
<polyline class="st3" points="32,179 62,179 56.96,229 37.04,229 "/>
<polygon class="st0" points="33,191 35.48,216 57.52,216 60,191 "/>
<polygon class="st7" points="33,191 35.48,216 57.52,216 60,191 "/>
<path class="st4" d="M34.39,228c-3.49-3.48-5.43-8.23-5.39-13.16v-16.48c0.01-2.42,1.97-4.37,4.39-4.36h20.55
	c-0.01,2.28-1.65,4.22-3.89,4.62l-15.66,2.82v1.92L54,202.1l-1.28,6c-0.37,1.82-1.64,3.33-3.38,4L39.22,216
	c-2.16,0.83-3.59,2.91-3.59,5.23v0.33"/>
<path class="st9" d="M34.39,228c-3.49-3.48-5.43-8.23-5.39-13.16v-16.48c0.01-2.42,1.97-4.37,4.39-4.36h20.55
	c-0.01,2.28-1.65,4.22-3.89,4.62l-15.66,2.82v1.92L54,202.1l-1.28,6c-0.37,1.82-1.64,3.33-3.38,4L39.22,216
	c-2.16,0.83-3.59,2.91-3.59,5.23v0.33"/>
<path class="st3" d="M53,202l-1.25,5.87c-0.38,1.76-1.63,3.22-3.31,3.87l-9.91,3.83c-2.12,0.81-3.52,2.84-3.53,5.11V221"/>
<path class="st3" d="M35,210l13-2.81c2.55-0.58,4.52-2.62,5-5.19"/>
<path class="st3" d="M53,194c-0.04,2.17-1.63,4-3.77,4.34L34,201"/>
<path class="st3" d="M34,228c-3.29-3.58-5.08-8.29-5-13.16v-16.48c-0.07-2.33,1.75-4.28,4.08-4.36"/>
<path class="st3" d="M47,172c-7.26-1.23-14.54-3.58-20.23-8.31s-9.58-12.16-8.67-19.57S25.57,130,32.92,130.4
	c3.58,0.19,7.63,3.41,6.3,6.79s-6.91,2.51-8.14-0.83s1.08-7.17,4.19-8.83s6.8-1.71,10.32-1.71c-9,3.54-19.85-0.71-25.24-8.77
	S14.78,98,18.7,89.13S30.2,73.35,38.79,69"/>
<path class="st3" d="M117,45.85c1.87-1.05,4.16-1.02,6,0.07"/>
<path class="st3" d="M149,45.91c-1.85-1.04-4.1-1.1-6-0.16"/>
<path class="st3" d="M200.28,218c6.98-4.08,10.74-12.02,9.48-20l-12-76.78c-1.03-6.66-5.03-12.49-10.88-15.83
	C175.71,99.28,164.04,94.13,152,90"/>
<path class="st7" d="M94,99l-14.45,5.7c-7.89,3.11-13.71,9.93-15.55,18.21L56,159"/>
<line class="st3" x1="56" y1="158" x2="53" y2="172"/>
<polyline class="st3" points="117,77 115.77,90.42 94,99 "/>
<path class="st5" d="M320,144.17c0,1.44-1.17,2.61-2.61,2.61c0,0-0.01,0-0.01,0h-170L132,159v-57.39c0-1.44,1.17-2.61,2.61-2.61
	c0,0,0.01,0,0.01,0h182.76c1.44-0.01,2.61,1.16,2.62,2.6c0,0,0,0.01,0,0.01V144.17z"/>
<path class="st3" d="M320,144.17c0,1.44-1.17,2.61-2.61,2.61c0,0-0.01,0-0.01,0h-170L132,159v-57.39c0-1.44,1.17-2.61,2.61-2.61
	c0,0,0.01,0,0.01,0h182.76c1.44-0.01,2.61,1.16,2.62,2.6c0,0,0,0.01,0,0.01V144.17z"/>
<g>
	<path class="st0" d="M155.5,135.02l-3.8-2.88c-3.6-2.74-5.71-7-5.7-11.52v-4.8c3.05,0,5.97-1.22,8.11-3.39l1.39-1.41l1.39,1.41
		c2.14,2.17,5.06,3.39,8.11,3.39v4.8c0.01,4.52-2.1,8.78-5.7,11.52L155.5,135.02z"/>
	<path class="st7" d="M155.5,135.02l-3.8-2.88c-3.6-2.74-5.71-7-5.7-11.52v-4.8c3.05,0,5.97-1.22,8.11-3.39l1.39-1.41l1.39,1.41
		c2.14,2.17,5.06,3.39,8.11,3.39v4.8c0.01,4.52-2.1,8.78-5.7,11.52L155.5,135.02z"/>
</g>
<g>
	<path d="M178.4,126.95h-1.19c-0.13,0-0.24-0.11-0.24-0.24v-3.67h-3.41v3.67c0,0.13-0.11,0.24-0.24,0.24h-1.19
		c-0.13,0-0.24-0.11-0.24-0.24v-8.44c0-0.13,0.11-0.23,0.24-0.23h1.19c0.13,0,0.24,0.1,0.24,0.23v3.31h3.41v-3.31
		c0-0.13,0.11-0.23,0.24-0.23h1.19c0.13,0,0.24,0.1,0.24,0.23v8.44C178.64,126.84,178.53,126.95,178.4,126.95z"/>
	<path d="M181.7,126.95h-1.1c-0.13,0-0.24-0.12-0.24-0.25v-6.27c0-0.13,0.11-0.24,0.24-0.24h1.1c0.13,0,0.24,0.11,0.24,0.24v6.27
		C181.94,126.83,181.83,126.95,181.7,126.95z"/>
	<path d="M187.92,126.95h-4.2c-0.26,0-0.48-0.22-0.48-0.48v-0.52c0-0.13,0.05-0.24,0.16-0.38l2.9-3.99
		c0.02-0.04,0.04-0.05,0.04-0.07s-0.04-0.04-0.07-0.04h-2.71c-0.12,0-0.22-0.07-0.22-0.19v-0.85c0-0.13,0.11-0.24,0.24-0.24h4.08
		c0.26,0,0.48,0.23,0.48,0.49v0.68c0,0.06-0.02,0.23-0.06,0.28l-2.79,3.83l-0.02,0.04c0,0.04,0.02,0.05,0.07,0.05h2.62
		c0.12,0,0.22,0.07,0.22,0.19v0.97C188.16,126.84,188.05,126.95,187.92,126.95z"/>
	<path d="M190.83,126.95h-1.12c-0.13,0-0.24-0.12-0.24-0.25v-8.64c0-0.13,0.11-0.24,0.24-0.24h1.12c0.13,0,0.23,0.11,0.23,0.24v8.64
		C191.06,126.83,190.97,126.95,190.83,126.95z"/>
	<path d="M194.06,126.95h-1.1c-0.13,0-0.24-0.12-0.24-0.25v-6.27c0-0.13,0.11-0.24,0.24-0.24h1.1c0.13,0,0.24,0.11,0.24,0.24v6.27
		C194.3,126.83,194.19,126.95,194.06,126.95z"/>
	<path d="M204.07,119.37h-2.45c-0.7,0-0.95,0.24-0.95,1.03v1.3h3.25c0.13,0,0.24,0.11,0.24,0.24v0.86c0,0.13-0.11,0.24-0.24,0.24
		h-3.25v3.67c0,0.13-0.11,0.24-0.24,0.24h-1.17c-0.13,0-0.24-0.11-0.24-0.24v-6.31c0-2.04,1.21-2.46,2.77-2.46
		c1.43,0,1.89,0.11,2.28,0.17c0.18,0.02,0.24,0.08,0.24,0.25v0.77C204.31,119.26,204.2,119.37,204.07,119.37z"/>
	<path d="M207.23,119.29h-1.16c-0.13,0-0.25-0.11-0.25-0.24v-1.06c0-0.13,0.12-0.24,0.25-0.24h1.16c0.13,0,0.24,0.11,0.24,0.24v1.06
		C207.47,119.18,207.36,119.29,207.23,119.29z M207.19,126.95h-1.1c-0.13,0-0.24-0.12-0.24-0.25v-6.27c0-0.13,0.11-0.24,0.24-0.24
		h1.1c0.13,0,0.24,0.11,0.24,0.24v6.27C207.43,126.83,207.32,126.95,207.19,126.95z"/>
	<path d="M214.65,120.46l-2,7c-0.37,1.31-0.82,1.88-2.45,1.88c-0.4,0-1-0.07-1.27-0.16c-0.13-0.04-0.25-0.08-0.25-0.2v-0.77
		c0-0.13,0.11-0.22,0.24-0.22c0.01,0,0.01,0,0.02,0c0.34,0.01,1.02,0.07,1.36,0.07c0.52,0,0.78-0.14,0.95-0.77l0.1-0.36h-0.18
		c-0.35,0-0.78-0.08-1.04-1l-1.57-5.49c-0.01-0.04-0.01-0.06-0.01-0.08c0-0.12,0.07-0.19,0.23-0.19h1.21c0.11,0,0.2,0.11,0.23,0.22
		l1.21,4.88c0.05,0.2,0.1,0.26,0.17,0.26h0.01c0.02,0,0.05,0,0.06,0c0.04,0,0.04,0,0.04,0l1.29-5.16c0.02-0.11,0.12-0.2,0.24-0.2
		h1.22c0.12,0,0.22,0.1,0.22,0.2C214.66,120.41,214.66,120.44,214.65,120.46z"/>
	<path d="M220.23,126.95h-1.02c-0.13,0-0.24-0.11-0.24-0.24v-0.19c-0.55,0.34-1.12,0.53-1.69,0.53c-1,0-2.08-0.38-2.08-2v-0.05
		c0-1.37,0.84-2.07,2.93-2.07h0.76v-0.53c0-0.78-0.35-0.97-1.06-0.97c-0.77,0-1.56,0.05-1.96,0.1c-0.02,0-0.05,0-0.06,0
		c-0.12,0-0.22-0.04-0.22-0.2v-0.77c0-0.13,0.07-0.22,0.23-0.25c0.48-0.1,1.18-0.19,2-0.19c1.7,0,2.64,0.76,2.64,2.29v4.32
		C220.47,126.84,220.36,126.95,220.23,126.95z M218.89,123.97h-0.76c-1.09,0-1.33,0.35-1.33,1.02v0.05c0,0.59,0.26,0.74,0.86,0.74
		c0.43,0,0.88-0.14,1.22-0.34V123.97z"/>
	<path d="M225.25,126.96c-0.29,0.05-0.55,0.08-0.82,0.08c-1.35,0-1.91-0.3-1.91-1.91v-3.77l-1.13-0.17
		c-0.13-0.02-0.24-0.11-0.24-0.24v-0.54c0-0.13,0.11-0.24,0.24-0.24h1.13v-0.98c0-0.13,0.11-0.22,0.24-0.24l1.12-0.19
		c0.01,0,0.04,0,0.05,0c0.11,0,0.19,0.06,0.19,0.18v1.24h1.08c0.13,0,0.24,0.11,0.24,0.24v0.71c0,0.13-0.11,0.24-0.24,0.24h-1.08
		v3.77c0,0.6,0.04,0.67,0.47,0.67h0.64c0.16,0,0.25,0.06,0.25,0.18v0.76C225.48,126.87,225.4,126.94,225.25,126.96z"/>
	<path d="M235.18,119.43h-2.1v7.28c0,0.13-0.11,0.24-0.24,0.24h-1.19c-0.13,0-0.24-0.11-0.24-0.24v-7.28h-2.1
		c-0.13,0-0.24-0.08-0.24-0.22v-0.95c0-0.13,0.11-0.23,0.24-0.23h5.86c0.13,0,0.24,0.1,0.24,0.23v0.95
		C235.42,119.35,235.32,119.43,235.18,119.43z"/>
	<path d="M240.96,124.12h-3.91v0.04c0,0.7,0.29,1.52,1.44,1.52c0.88,0,1.7-0.07,2.21-0.12c0.01,0,0.02,0,0.04,0
		c0.12,0,0.22,0.06,0.22,0.18v0.79c0,0.19-0.04,0.28-0.25,0.31c-0.78,0.14-1.25,0.2-2.33,0.2c-1.2,0-2.9-0.65-2.9-3.01v-0.89
		c0-1.87,1.04-3.05,2.88-3.05c1.85,0,2.85,1.26,2.85,3.05v0.67C241.2,124.01,241.12,124.12,240.96,124.12z M239.6,122.94
		c0-0.94-0.52-1.48-1.26-1.48s-1.28,0.53-1.28,1.48v0.05h2.54V122.94z"/>
	<path d="M247.83,126.95h-1.46c-0.13,0-0.28-0.13-0.35-0.24l-1.88-2.73v2.72c0,0.13-0.11,0.25-0.24,0.25h-1.1
		c-0.13,0-0.24-0.12-0.24-0.25v-8.64c0-0.13,0.11-0.24,0.24-0.24h1.1c0.13,0,0.24,0.11,0.24,0.24v5l2.05-2.73
		c0.08-0.11,0.2-0.14,0.28-0.14h1.34c0.12,0,0.18,0.05,0.18,0.13c0,0.04-0.01,0.07-0.05,0.12l-2.41,2.96l2.43,3.31
		c0.02,0.04,0.04,0.06,0.04,0.1C248,126.88,247.93,126.95,247.83,126.95z"/>
	<path d="M250.56,126.95h-1.12c-0.13,0-0.24-0.12-0.24-0.25v-8.64c0-0.13,0.11-0.24,0.24-0.24h1.12c0.13,0,0.23,0.11,0.23,0.24v8.64
		C250.79,126.83,250.69,126.95,250.56,126.95z"/>
	<path d="M253.82,119.29h-1.16c-0.13,0-0.25-0.11-0.25-0.24v-1.06c0-0.13,0.12-0.24,0.25-0.24h1.16c0.13,0,0.24,0.11,0.24,0.24v1.06
		C254.06,119.18,253.95,119.29,253.82,119.29z M253.79,126.95h-1.1c-0.13,0-0.24-0.12-0.24-0.25v-6.27c0-0.13,0.11-0.24,0.24-0.24
		h1.1c0.13,0,0.24,0.11,0.24,0.24v6.27C254.03,126.83,253.92,126.95,253.79,126.95z"/>
	<path d="M259.16,118.88h-0.54c-0.58,0-0.71,0.13-0.71,0.72v0.59h1.15c0.13,0,0.24,0.11,0.24,0.24v0.72c0,0.13-0.11,0.23-0.24,0.23
		h-1.15v5.33c0,0.13-0.11,0.25-0.24,0.25h-1.09c-0.13,0-0.25-0.12-0.25-0.25v-5.33l-1.07-0.17c-0.13-0.02-0.24-0.1-0.24-0.23v-0.55
		c0-0.13,0.11-0.24,0.24-0.24h1.07v-0.59c0-1.55,0.83-1.92,2.08-1.92c0.29,0,0.49,0.05,0.72,0.1c0.1,0.02,0.22,0.08,0.22,0.19v0.71
		C259.34,118.82,259.24,118.88,259.16,118.88z"/>
	<path d="M261.78,119.29h-1.16c-0.13,0-0.25-0.11-0.25-0.24v-1.06c0-0.13,0.12-0.24,0.25-0.24h1.16c0.13,0,0.24,0.11,0.24,0.24v1.06
		C262.02,119.18,261.91,119.29,261.78,119.29z M261.74,126.95h-1.1c-0.13,0-0.24-0.12-0.24-0.25v-6.27c0-0.13,0.11-0.24,0.24-0.24
		h1.1c0.13,0,0.24,0.11,0.24,0.24v6.27C261.98,126.83,261.87,126.95,261.74,126.95z"/>
</g>
<g>
	<path class="st10" d="M277.75,115c0.8,0,1.3,0,1.4,0c0,0.1,0,0.7,0,1.8c0,1.1,0,1.7,0,1.8l4.2-1.5c0,0.4,0,0.8,0,1.1l-4.2,1.5
		c0,0,0,0.1,0,0.3c0,0.2,0,0.3,0,0.3l2.3-0.8l1.9-0.7c0,0.1,0,0.3,0,0.5c0,0.3,0,0.5,0,0.5v0.1l-4.1,1.5c0,0-0.1,0-0.1,0.1
		c0,0.7,0,1.7,0,3s0,2.3,0,3l0,0l0,0c1.1-0.1,2-0.5,2.8-1.2c0.9-0.7,1.5-1.7,1.8-2.8c0.1-0.5,0.2-1,0.2-1.5c0,0,0.5,0,1.4,0
		c0,1.1-0.3,2.2-0.8,3.2c-0.4,0.8-0.9,1.4-1.6,2c-0.6,0.6-1.3,1-2.1,1.3c-1,0.4-2.1,0.5-3.1,0.4c0-0.8,0-1.9,0-3.4s0-2.7,0-3.5
		c0,0-0.1,0-0.2,0.1l-2.4,0.9c0-0.4,0-0.7,0-1.1l2.6-1c0-0.1,0-0.3,0-0.6c-0.1,0.1-0.3,0.1-0.5,0.2c-0.2,0.1-0.4,0.1-0.4,0.1
		l-1.4,0.5c0,0,0,0-0.1,0s-0.1,0-0.2,0.1c0-0.6,0-0.9,0-1.1l2.6-0.9c0-0.5,0-1.2,0-2.1C277.75,116.2,277.75,115.5,277.75,115z"/>
	<path class="st10" d="M289.75,115c0.8,0,1.3,0,1.4,0c0,0.1,0,0.7,0,1.8c0,1.1,0,1.7,0,1.8l4.2-1.5c0,0.4,0,0.8,0,1.1l-4.2,1.5
		c0,0,0,0.1,0,0.3c0,0.2,0,0.3,0,0.3l2.3-0.8l1.9-0.7c0,0.1,0,0.3,0,0.5c0,0.3,0,0.5,0,0.5v0.1l-4.1,1.5c0,0-0.1,0-0.1,0.1
		c0,0.7,0,1.7,0,3s0,2.3,0,3l0,0l0,0c1.1-0.1,2-0.5,2.8-1.2c0.9-0.7,1.5-1.7,1.8-2.8c0.1-0.5,0.2-1,0.2-1.5c0,0,0.5,0,1.4,0
		c0,1.1-0.3,2.2-0.8,3.2c-0.4,0.8-0.9,1.4-1.6,2c-0.6,0.6-1.3,1-2.1,1.3c-1,0.4-2.1,0.5-3.1,0.4c0-0.8,0-1.9,0-3.4s0-2.7,0-3.5
		c0,0-0.1,0-0.2,0.1l-2.4,0.9c0-0.4,0-0.7,0-1.1l2.6-1c0-0.1,0-0.3,0-0.6c-0.1,0.1-0.3,0.1-0.5,0.2c-0.2,0.1-0.4,0.1-0.4,0.1
		l-1.4,0.5c0,0,0,0-0.1,0s-0.1,0-0.2,0.1c0-0.6,0-0.9,0-1.1l2.6-0.9c0-0.5,0-1.2,0-2.1C289.75,116.2,289.75,115.5,289.75,115z"/>
</g>
<g>
	<g class="st11">
		<path class="st12" d="M303.78,123.58l-1.03,3.59c-0.19,0.67-0.42,0.97-1.25,0.97c-0.2,0-0.51-0.04-0.65-0.08
			c-0.07-0.02-0.13-0.04-0.13-0.1v-0.39c0-0.07,0.05-0.11,0.12-0.11c0.01,0,0.01,0,0.01,0c0.17,0.01,0.52,0.04,0.7,0.04
			c0.26,0,0.4-0.07,0.49-0.39l0.05-0.18h-0.09c-0.18,0-0.4-0.04-0.54-0.51l-0.81-2.82c-0.01-0.02-0.01-0.03-0.01-0.04
			c0-0.06,0.04-0.1,0.12-0.1h0.62c0.05,0,0.1,0.06,0.12,0.11l0.62,2.5c0.03,0.1,0.05,0.14,0.09,0.14h0.01c0.01,0,0.02,0,0.03,0
			c0.02,0,0.02,0,0.02,0l0.66-2.64c0.01-0.06,0.06-0.1,0.12-0.1h0.63c0.06,0,0.11,0.05,0.11,0.1
			C303.79,123.56,303.79,123.57,303.78,123.58z"/>
		<path class="st12" d="M305.05,126.91h-0.57c-0.07,0-0.12-0.06-0.12-0.13v-3.22c0-0.07,0.06-0.12,0.12-0.12h0.57
			c0.07,0,0.12,0.06,0.12,0.12v3.22C305.17,126.85,305.12,126.91,305.05,126.91z"/>
		<path class="st12" d="M306.72,126.91h-0.57c-0.07,0-0.12-0.06-0.12-0.13v-4.43c0-0.07,0.05-0.12,0.12-0.12h0.57
			c0.07,0,0.12,0.06,0.12,0.12v4.43C306.83,126.85,306.78,126.91,306.72,126.91z"/>
	</g>
</g>
<polygon class="st13" points="299.76,123.08 298.02,127.89 298.69,127.89 300.43,123.08 "/>
<g>
	<g>
		<path class="st14" d="M145.75,205.72c0,6.79-4.59,12.51-10.84,14.22h-0.54v-13.77h0.54v13.1c5.91-1.69,10.24-7.13,10.24-13.58
			c0-7.8-6.32-14.12-14.12-14.12c-7.8,0-14.12,6.32-14.12,14.12c0,6.41,4.27,11.82,10.13,13.54v-13.09h0.54v13.77h-0.54
			c-6.22-1.74-10.78-7.43-10.78-14.2c0-8.15,6.6-14.75,14.75-14.75S145.75,197.57,145.75,205.72z"/>
		<path class="st14" d="M135.34,218.76c5.42-1.81,9.33-6.93,9.33-12.96c0-7.55-6.12-13.67-13.67-13.67
			c-7.55,0-13.67,6.12-13.67,13.67c0,6.04,3.92,11.16,9.35,12.97l0.02-0.64v-9.94h-0.61v9.71c-4.78-1.95-8.15-6.64-8.15-12.12
			c0-7.23,5.86-13.09,13.09-13.09c7.23,0,13.09,5.86,13.09,13.09c0,5.47-3.36,10.15-8.12,12.11v-9.68h-0.65v9.93"/>
		<path class="st14" d="M136.42,217.14c4.15-2.05,7.01-6.37,7.01-11.38c0-6.98-5.57-12.65-12.44-12.65s-12.44,5.66-12.44,12.65
			c0,5.04,2.9,9.39,7.09,11.42l0-0.63v-7.23h-0.62v6.89c-3.54-2.1-5.93-6-5.93-10.47c0-6.69,5.33-12.11,11.91-12.11
			c6.58,0,11.91,5.42,11.91,12.11c0,4.46-2.37,8.35-5.9,10.45v-6.87h-0.62v7.22"/>
		<path class="st14" d="M137.26,215.51c0.21-0.14,0.42-0.29,0.62-0.45h0v0c2.75-2.12,4.52-5.48,4.52-9.27
			c0-6.42-5.1-11.62-11.38-11.62c-6.29,0-11.38,5.2-11.38,11.62c0,3.82,1.81,7.21,4.6,9.32v0h0c0.2,0.15,0.4,0.29,0.6,0.43
			l0.01-0.62v-4.45h-0.61v3.99c-2.5-2.04-4.1-5.17-4.1-8.69c0-6.15,4.88-11.13,10.9-11.13s10.9,4.98,10.9,11.13
			c0,3.5-1.58,6.62-4.06,8.66v-4.02h-0.61v4.48"/>
	</g>
	<g>
		<path class="st14" d="M128.14,220.03L128.14,220.03c1.35,0,2.44-1.09,2.44-2.44v-18.87l0,0c-1.35,0-2.44,1.09-2.44,2.44V220.03z"
			/>
		<path class="st14" d="M133.9,220.03L133.9,220.03c-1.35,0-2.44-1.09-2.44-2.44v-18.87l0,0c1.35,0,2.44,1.09,2.44,2.44V220.03z"/>
	</g>
</g>
</svg>
