<?xml version="1.0" encoding="utf-8"?>
<!-- Generator: Adobe Illustrator 25.2.1, SVG Export Plug-In . SVG Version: 6.00 Build 0)  -->
<svg version="1.1" id="katman_1" xmlns="http://www.w3.org/2000/svg" xmlns:xlink="http://www.w3.org/1999/xlink" x="0px" y="0px"
	 viewBox="0 0 96 96" style="enable-background:new 0 0 96 96;" xml:space="preserve">
<style type="text/css">
	.st0{fill:#4A53A0;}
	.st1{fill:none;stroke:#FFED00;stroke-miterlimit:10;}
	.st2{fill:#010202;}
</style>
<g>
	<polygon class="st0" points="12.36,44.1 28.72,24.71 44.44,44.1 81.46,44.1 64.46,23.5 28.11,23.5 11.15,43.49 	"/>
</g>
<g>
	<path class="st1" d="M28.72,28.35"/>
</g>
<g>
	<path class="st2" d="M86.89,71.66c0,0.34-0.27,0.61-0.61,0.61H6.61C6.27,72.27,6,72,6,71.66s0.27-0.61,0.61-0.61h6.06V46.82
		c0-0.15,0.06-0.28,0.15-0.38l15.45-18.48c0.21-0.26,0.6-0.29,0.85-0.08s0.29,0.6,0.08,0.85L13.88,47.05v24.01h72.41
		C86.62,71.05,86.89,71.32,86.89,71.66z"/>
</g>
<g>
	<path class="st2" d="M47.2,46.23l-0.28,24.83l-0.01,0.93c0,0.1-0.02,0.19-0.07,0.28h-1.07c-0.04-0.09-0.07-0.19-0.07-0.3l0.01-0.91
		l0.27-24.84c0-0.34,0.27-0.61,0.61-0.61c0,0,0,0,0.01,0C46.93,45.62,47.2,45.89,47.2,46.23z"/>
</g>
<g>
	<path class="st2" d="M79.55,72.27c0.04-0.09,0.07-0.18,0.07-0.28l0.01-0.93l0.28-24.83c0-0.34-0.27-0.61-0.6-0.62
		c-0.01,0-0.01,0-0.01,0c-0.34,0-0.61,0.27-0.61,0.61l-0.27,24.84l-0.01,0.91c0,0.11,0.02,0.21,0.07,0.3H79.55z"/>
</g>
<g>
	<path class="st2" d="M32.86,37.13h-6.27c-0.33,0-0.6,0.27-0.6,0.61v9.36c0,0.34,0.27,0.61,0.6,0.61h6.27
		c0.33,0,0.61-0.27,0.61-0.61v-9.36C33.47,37.4,33.19,37.13,32.86,37.13z M32.25,46.49H27.2v-8.14h5.06V46.49z"/>
</g>
<g>
	<path class="st2" d="M25.12,53.48h-7.61c-0.34,0-0.61,0.27-0.61,0.61V69.1c0,0.34,0.27,0.61,0.61,0.61h7.61
		c0.33,0,0.61-0.27,0.61-0.61V54.09C25.73,53.75,25.45,53.48,25.12,53.48z M24.51,68.49h-6.39V54.7h6.39V68.49z"/>
</g>
<g>
	<path class="st2" d="M17.51,69.71h-4.24c-0.33,0-0.61-0.27-0.61-0.61c0-0.33,0.27-0.61,0.61-0.61h4.24c0.33,0,0.61,0.27,0.61,0.61
		C18.12,69.44,17.84,69.71,17.51,69.71z"/>
</g>
<g>
	<path class="st2" d="M42.08,53.48H27.87c-0.33,0-0.61,0.27-0.61,0.61v11.85c0,0.34,0.28,0.61,0.61,0.61h14.21
		c0.33,0,0.6-0.27,0.6-0.61V54.09C42.68,53.75,42.41,53.48,42.08,53.48z M41.48,65.34h-13V54.7h13V65.34z"/>
</g>
<g>
	<g>
		<path class="st2" d="M59.92,57.73h-9.69c-0.33,0-0.61-0.27-0.61-0.61s0.27-0.61,0.61-0.61h9.69c0.33,0,0.61,0.27,0.61,0.61
			S60.25,57.73,59.92,57.73z"/>
	</g>
	<g>
		<path class="st2" d="M60.18,53.48h-10.3c-0.33,0-0.61,0.27-0.61,0.61v6.66c0,0.34,0.28,0.61,0.61,0.61h10.3
			c0.34,0,0.61-0.27,0.61-0.61v-6.66C60.79,53.75,60.52,53.48,60.18,53.48z M59.58,60.15h-9.09V54.7h9.09V60.15z"/>
	</g>
	<g>
		<path class="st2" d="M60.73,66.55H49.88c-0.33,0-0.61-0.27-0.61-0.61v-5.18c0-0.33,0.27-0.61,0.61-0.61s0.61,0.27,0.61,0.61v4.58
			h10.23c0.33,0,0.61,0.27,0.61,0.61S61.06,66.55,60.73,66.55z"/>
	</g>
</g>
<g>
	<g>
		<path class="st2" d="M74.46,57.73h-9.69c-0.33,0-0.61-0.27-0.61-0.61s0.27-0.61,0.61-0.61h9.69c0.33,0,0.61,0.27,0.61,0.61
			S74.79,57.73,74.46,57.73z"/>
	</g>
	<g>
		<path class="st2" d="M74.72,53.48H64.43c-0.34,0-0.61,0.27-0.61,0.61v6.66c0,0.34,0.27,0.61,0.61,0.61h10.29
			c0.34,0,0.61-0.27,0.61-0.61v-6.66C75.33,53.75,75.06,53.48,74.72,53.48z M74.11,60.15h-9.09V54.7h9.09V60.15z"/>
	</g>
	<g>
		<path class="st2" d="M75.26,66.55H64.42c-0.33,0-0.61-0.27-0.61-0.61v-5.18c0-0.33,0.27-0.61,0.61-0.61s0.61,0.27,0.61,0.61v4.58
			h10.23c0.33,0,0.61,0.27,0.61,0.61S75.6,66.55,75.26,66.55z"/>
	</g>
</g>
</svg>
