<?xml version="1.0" encoding="UTF-8"?>
<svg id="katman_1" data-name="katman 1" xmlns="http://www.w3.org/2000/svg" viewBox="0 0 665.94 391.4">
  <defs>
    <style>
      .cls-1 {
        fill: #1c243a;
      }

      .cls-1, .cls-2, .cls-3, .cls-4, .cls-5, .cls-6, .cls-7, .cls-8, .cls-9, .cls-10, .cls-11, .cls-12, .cls-13, .cls-14, .cls-15, .cls-16, .cls-17, .cls-18, .cls-19, .cls-20, .cls-21, .cls-22, .cls-23, .cls-24, .cls-25, .cls-26, .cls-27, .cls-28, .cls-29, .cls-30, .cls-31 {
        stroke-width: 0px;
      }

      .cls-2 {
        fill: #485973;
      }

      .cls-3 {
        fill: #ecab1c;
      }

      .cls-4 {
        fill: #ded9cc;
      }

      .cls-5 {
        fill: #797a70;
      }

      .cls-6, .cls-32, .cls-33 {
        fill: #fac428;
      }

      .cls-7 {
        fill: #72787e;
      }

      .cls-34 {
        stroke-miterlimit: 10;
      }

      .cls-34, .cls-35, .cls-36 {
        stroke-width: 1.4px;
      }

      .cls-34, .cls-33, .cls-37, .cls-38 {
        stroke: #233339;
      }

      .cls-34, .cls-37, .cls-16, .cls-21, .cls-39 {
        fill: #fff;
      }

      .cls-8 {
        opacity: .3;
      }

      .cls-9 {
        fill: #86816f;
      }

      .cls-10, .cls-40 {
        fill: #1e1f1f;
      }

      .cls-11 {
        fill: #f9c328;
      }

      .cls-41, .cls-32, .cls-35, .cls-33, .cls-37, .cls-42, .cls-43, .cls-40, .cls-38, .cls-36, .cls-39 {
        stroke-linecap: round;
        stroke-linejoin: round;
      }

      .cls-41, .cls-32, .cls-35, .cls-42, .cls-43, .cls-40, .cls-36, .cls-39 {
        stroke: #1e1f1f;
      }

      .cls-41, .cls-35, .cls-43, .cls-38 {
        fill: none;
      }

      .cls-12 {
        fill: #668295;
      }

      .cls-13 {
        fill: #8d8f79;
      }

      .cls-14 {
        fill: #656862;
      }

      .cls-15 {
        fill: #f3a91b;
      }

      .cls-17 {
        fill: #373739;
      }

      .cls-18 {
        fill: #233339;
      }

      .cls-19 {
        fill: #aba895;
      }

      .cls-42 {
        fill: #727075;
      }

      .cls-43 {
        stroke-width: 3px;
      }

      .cls-20 {
        fill: #f5f0e4;
      }

      .cls-21 {
        opacity: .7;
      }

      .cls-22 {
        fill: #3a4958;
      }

      .cls-23 {
        fill: #0f141c;
      }

      .cls-24 {
        fill: #536677;
      }

      .cls-25 {
        fill: #a6bde3;
      }

      .cls-36 {
        fill: #a6a4a8;
      }

      .cls-26 {
        fill: #a3b8d7;
      }

      .cls-27 {
        fill: #303b55;
      }

      .cls-28 {
        fill: #25303d;
      }

      .cls-29 {
        fill: #656a7e;
      }

      .cls-30 {
        fill: #3f341a;
      }

      .cls-31 {
        fill: #9e9884;
      }
    </style>
  </defs>
  <path class="cls-6" d="M620.15,105.82C570.66,7.64,415.6-48.14,324.89,55.55c-3.57,4.08-6.94,8.35-10.11,12.77-23.13,32.27-57.85,88.14-100.23,74.48-29.01-9.35-48.91-35.16-77.61-45.2-37.83-13.23-73.78,13.86-96.94,48.48C13.08,186.32.2,233.55,15.52,277.22c28.53,81.33,139.59,99.63,215.59,92.17,55.66-5.46,109.39-35.04,165.15-36.91,40.11-1.34,78.48,9.54,114.63,23.09,16.75,6.27,33.48,13.19,51.61,14.92,64.84,6.19,77.21-57.42,78.76-110.93,1.54-53.14,1.98-107.93-21.11-153.73Z"/>
  <path class="cls-21" d="M620.15,105.82C570.66,7.64,415.6-48.14,324.89,55.55c-3.57,4.08-6.94,8.35-10.11,12.77-23.13,32.27-57.85,88.14-100.23,74.48-29.01-9.35-48.91-35.16-77.61-45.2-37.83-13.23-73.78,13.86-96.94,48.48C13.08,186.32.2,233.55,15.52,277.22c28.53,81.33,139.59,99.63,215.59,92.17,55.66-5.46,109.39-35.04,165.15-36.91,40.11-1.34,78.48,9.54,114.63,23.09,16.75,6.27,33.48,13.19,51.61,14.92,64.84,6.19,77.21-57.42,78.76-110.93,1.54-53.14,1.98-107.93-21.11-153.73Z"/>
  <g>
    <rect class="cls-35" x="471.73" y="7.06" width="67.43" height="87.82"/>
    <rect class="cls-35" x="476.03" y="12.66" width="58.83" height="76.62"/>
    <rect class="cls-35" x="487.86" y="28.06" width="35.17" height="45.81"/>
  </g>
  <g>
    <rect class="cls-35" x="554.85" y="17.25" width="43.91" height="57.18"/>
    <rect class="cls-35" x="558.3" y="21.75" width="37" height="48.19"/>
    <rect class="cls-35" x="565.35" y="30.93" width="22.9" height="29.83"/>
  </g>
  <path class="cls-6" d="M587.61,135.6s.21-8.28-5.22-18.22c-5.42-9.94-11.89-13.25-11.89-13.25,0,0,8.14,6.83,10.01,12.84,1.88,6,5.01,17.19,5.01,17.19,0,0-3.55-12.01-11.27-18.22-7.72-6.21-12.93-8.28-12.93-8.28,0,0,9.39,7.04,15.02,13.46,5.63,6.42,6.47,13.87,6.47,13.87,0,0-7.3-11.8-15.23-15.32-7.93-3.52-11.89-4.56-11.89-4.56,0,0,8.97,3.93,14.39,8.7,5.42,4.76,9.18,12.42,9.18,12.42,0,0-8.14-6.83-16.48-8.9-8.34-2.07-11.47-2.07-11.47-2.07,0,0,7.09,1.66,15.65,6.21,8.55,4.56,10.85,8.7,10.85,8.7,0,0-5.63-3.31-11.27-2.9-5.63.41-17.32,4.97-17.32,4.97,0,0,10.43-3.52,17.32-3.31,6.88.21,11.68,6.21,11.68,6.21,0,0-5.63-4.97-15.23,0-9.6,4.97-12.52,11.39-12.52,11.39,0,0,6.26-6.42,14.19-8.7,7.93-2.28,11.89.41,11.89.41,0,0-8.14,2.48-11.89,8.07-3.76,5.59-5.22,16.98-5.22,16.98,0,0,2.29-12.63,7.09-16.36,4.8-3.73,12.31-5.18,12.31-5.18,0,0-4.59,1.66-9.6,7.87s-4.8,21.53-4.8,21.53c0,0,1.25-12.63,4.59-17.6,3.34-4.97,9.6-8.07,9.6-8.07,0,0-2.71-1.86-4.38,10.97-1.67,12.84.21,22.15.21,22.15,0,0,.63-16.56,2.29-21.74,1.67-5.18,3.96-9.52,3.96-9.52,0,0-2.09,16.98-1.25,22.57.83,5.59,2.29,10.97,2.29,10.97,0,0-.83-10.56.21-18.22,1.04-7.66,2.09-13.67,2.09-13.67l1.88,14.08-.21,17.81,2.5-16.77-1.67-14.91s3.34,4.14,5.01,12.01c1.67,7.87,1.67,15.94,1.67,15.94,0,0,1.46-13.25.42-19.05-1.04-5.8-2.29-10.77-2.29-10.77,0,0,5.01,0,7.51,12.22,2.5,12.22,2.29,17.81,2.29,17.81,0,0,3.13-8.49-.63-19.46-3.76-10.97-5.22-13.25-5.22-13.25,0,0,5.63.62,10.64,8.49,5.01,7.87,5.42,15.32,5.42,15.32,0,0-.21-11.18-3.96-17.81-3.76-6.63-11.68-8.28-11.68-8.28,0,0,8.55-2.9,15.86,4.56,7.3,7.45,10.43,15.94,10.43,15.94,0,0-4.8-14.29-10.22-19.46-5.42-5.18-12.93-4.56-12.93-4.56,0,0,8.14-2.28,15.02-1.24,6.88,1.04,13.35,8.7,13.35,8.7,0,0-2.92-8.7-12.31-10.56-9.39-1.86-14.6,1.45-14.6,1.45,0,0,8.55-8.07,16.69-7.04,8.14,1.04,12.73,4.76,12.73,4.76,0,0-8.14-7.25-14.39-7.04-6.26.21-15.02,6-15.02,6,0,0,1.25-7.25,11.06-11.39,9.81-4.14,14.19-3.31,14.19-3.31,0,0-12.93.41-20.24,4.76-7.3,4.35-8.55,6.83-8.55,6.83,0,0,6.47-12.63,12.52-17.81s11.68-6.42,11.68-6.42c0,0-10.85,2.07-16.27,7.45-5.42,5.38-8.34,12.22-8.34,12.22,0,0,.42-7.66,3.13-13.46,2.71-5.8,9.18-10.77,9.18-10.77,0,0-6.88,2.28-10.85,9.94-3.96,7.66-6.05,13.46-6.05,13.46,0,0-1.25-7.25,2.71-17.39,3.96-10.15,5.42-13.87,5.42-13.87,0,0-7.72,9.94-9.39,17.81-1.67,7.87-2.92,13.67-2.92,13.67Z"/>
  <path class="cls-43" d="M621.88,176.3s-10,28.43-24.05,76.53c-14.06,48.11-12.18,78.09-12.18,78.09"/>
  <path class="cls-43" d="M583.14,152.25s-9.37,49.36-4.06,78.09c5.31,28.74-4.37,68.1-4.37,68.1"/>
  <path class="cls-8" d="M587.61,135.6s.21-8.28-5.22-18.22c-5.42-9.94-11.89-13.25-11.89-13.25,0,0,8.14,6.83,10.01,12.84,1.88,6,5.01,17.19,5.01,17.19,0,0-3.55-12.01-11.27-18.22-7.72-6.21-12.93-8.28-12.93-8.28,0,0,9.39,7.04,15.02,13.46,5.63,6.42,6.47,13.87,6.47,13.87,0,0-7.3-11.8-15.23-15.32-7.93-3.52-11.89-4.56-11.89-4.56,0,0,8.97,3.93,14.39,8.7,5.42,4.76,9.18,12.42,9.18,12.42,0,0-8.14-6.83-16.48-8.9-8.34-2.07-11.47-2.07-11.47-2.07,0,0,7.09,1.66,15.65,6.21,8.55,4.56,10.85,8.7,10.85,8.7,0,0-5.63-3.31-11.27-2.9-5.63.41-17.32,4.97-17.32,4.97,0,0,10.43-3.52,17.32-3.31,6.88.21,11.68,6.21,11.68,6.21,0,0-5.63-4.97-15.23,0-9.6,4.97-12.52,11.39-12.52,11.39,0,0,6.26-6.42,14.19-8.7,7.93-2.28,11.89.41,11.89.41,0,0-8.14,2.48-11.89,8.07-3.76,5.59-5.22,16.98-5.22,16.98,0,0,2.29-12.63,7.09-16.36,4.8-3.73,12.31-5.18,12.31-5.18,0,0-4.59,1.66-9.6,7.87-5.01,6.21-4.8,21.53-4.8,21.53,0,0,1.25-12.63,4.59-17.6,3.34-4.97,9.6-8.07,9.6-8.07,0,0-2.71-1.86-4.38,10.97-1.67,12.84.21,22.15.21,22.15,0,0,.63-16.56,2.29-21.74,1.67-5.18,3.96-9.52,3.96-9.52,0,0-2.09,16.98-1.25,22.57.83,5.59,2.29,10.97,2.29,10.97,0,0-.83-10.56.21-18.22,1.04-7.66,2.09-13.67,2.09-13.67l1.88,14.08-.21,17.81,2.5-16.77-1.67-14.91s3.34,4.14,5.01,12.01c1.67,7.87,1.67,15.94,1.67,15.94,0,0,1.46-13.25.42-19.05-1.04-5.8-2.29-10.77-2.29-10.77,0,0,5.01,0,7.51,12.22,2.5,12.22,2.29,17.81,2.29,17.81,0,0,3.13-8.49-.63-19.46-3.76-10.97-5.22-13.25-5.22-13.25,0,0,5.63.62,10.64,8.49,5.01,7.87,5.42,15.32,5.42,15.32,0,0-.21-11.18-3.96-17.81-3.76-6.63-11.68-8.28-11.68-8.28,0,0,8.55-2.9,15.86,4.56,7.3,7.45,10.43,15.94,10.43,15.94,0,0-4.8-14.29-10.22-19.46-5.42-5.18-12.93-4.56-12.93-4.56,0,0,8.14-2.28,15.02-1.24,6.88,1.04,13.35,8.7,13.35,8.7,0,0-2.92-8.7-12.31-10.56-9.39-1.86-14.6,1.45-14.6,1.45,0,0,8.55-8.07,16.69-7.04,8.14,1.04,12.73,4.76,12.73,4.76,0,0-8.14-7.25-14.39-7.04-6.26.21-15.02,6-15.02,6,0,0,1.25-7.25,11.06-11.39,9.81-4.14,14.19-3.31,14.19-3.31,0,0-12.93.41-20.24,4.76-7.3,4.35-8.55,6.83-8.55,6.83,0,0,6.47-12.63,12.52-17.81,6.05-5.18,11.68-6.42,11.68-6.42,0,0-10.85,2.07-16.27,7.45-5.42,5.38-8.34,12.22-8.34,12.22,0,0,.42-7.66,3.13-13.46,2.71-5.8,9.18-10.77,9.18-10.77,0,0-6.88,2.28-10.85,9.94-3.96,7.66-6.05,13.46-6.05,13.46,0,0-1.25-7.25,2.71-17.39,3.96-10.15,5.42-13.87,5.42-13.87,0,0-7.72,9.94-9.39,17.81-1.67,7.87-2.92,13.67-2.92,13.67Z"/>
  <path class="cls-43" d="M556.59,190.36s.62,32.17,7.81,59.35c7.18,27.18,13.43,64.04,10.93,80.28"/>
  <path class="cls-6" d="M623.8,160.91s.21-8.28-5.22-18.22c-5.42-9.94-11.89-13.25-11.89-13.25,0,0,8.14,6.83,10.01,12.84,1.88,6,5.01,17.19,5.01,17.19,0,0-3.55-12.01-11.27-18.22-7.72-6.21-12.93-8.28-12.93-8.28,0,0,9.39,7.04,15.02,13.46,5.63,6.42,6.47,13.87,6.47,13.87,0,0-7.3-11.8-15.23-15.32-7.93-3.52-11.89-4.55-11.89-4.55,0,0,8.97,3.93,14.39,8.7,5.42,4.76,9.18,12.42,9.18,12.42,0,0-8.14-6.83-16.48-8.9-8.34-2.07-11.47-2.07-11.47-2.07,0,0,7.09,1.66,15.65,6.21,8.55,4.56,10.85,8.7,10.85,8.7,0,0-5.63-3.31-11.27-2.9-5.63.41-17.32,4.97-17.32,4.97,0,0,10.43-3.52,17.32-3.31,6.88.21,11.68,6.21,11.68,6.21,0,0-5.63-4.97-15.23,0-9.6,4.97-12.52,11.39-12.52,11.39,0,0,6.26-6.42,14.19-8.7,7.93-2.28,11.89.41,11.89.41,0,0-8.14,2.48-11.89,8.07-3.76,5.59-5.22,16.98-5.22,16.98,0,0,2.29-12.63,7.09-16.36,4.8-3.73,12.31-5.18,12.31-5.18,0,0-4.59,1.66-9.6,7.87-5.01,6.21-4.8,21.53-4.8,21.53,0,0,1.25-12.63,4.59-17.6,3.34-4.97,9.6-8.07,9.6-8.07,0,0-2.71-1.86-4.38,10.97-1.67,12.84.21,22.15.21,22.15,0,0,.63-16.56,2.29-21.74,1.67-5.18,3.96-9.52,3.96-9.52,0,0-2.09,16.98-1.25,22.57s2.29,10.97,2.29,10.97c0,0-.83-10.56.21-18.22,1.04-7.66,2.09-13.67,2.09-13.67l1.88,14.08-.21,17.81,2.5-16.77-1.67-14.91s3.34,4.14,5.01,12.01c1.67,7.87,1.67,15.94,1.67,15.94,0,0,1.46-13.25.42-19.05-1.04-5.8-2.29-10.77-2.29-10.77,0,0,5.01,0,7.51,12.22,2.5,12.22,2.29,17.81,2.29,17.81,0,0,3.13-8.49-.63-19.46-3.76-10.97-5.22-13.25-5.22-13.25,0,0,5.63.62,10.64,8.49,5.01,7.87,5.42,15.32,5.42,15.32,0,0-.21-11.18-3.96-17.81-3.76-6.63-11.68-8.28-11.68-8.28,0,0,8.55-2.9,15.86,4.56,7.3,7.45,10.43,15.94,10.43,15.94,0,0-4.8-14.29-10.22-19.46-5.42-5.18-12.93-4.55-12.93-4.55,0,0,8.14-2.28,15.02-1.24,6.88,1.04,13.35,8.7,13.35,8.7,0,0-2.92-8.7-12.31-10.56-9.39-1.86-14.6,1.45-14.6,1.45,0,0,8.55-8.07,16.69-7.04,8.14,1.04,12.73,4.76,12.73,4.76,0,0-8.14-7.25-14.39-7.04-6.26.21-15.02,6-15.02,6,0,0,1.25-7.25,11.06-11.39,9.81-4.14,14.19-3.31,14.19-3.31,0,0-12.93.41-20.24,4.76-7.3,4.35-8.55,6.83-8.55,6.83,0,0,6.47-12.63,12.52-17.81,6.05-5.18,11.68-6.42,11.68-6.42,0,0-10.85,2.07-16.27,7.45-5.42,5.38-8.34,12.22-8.34,12.22,0,0,.42-7.66,3.13-13.46,2.71-5.8,9.18-10.77,9.18-10.77,0,0-6.88,2.28-10.85,9.94-3.96,7.66-6.05,13.46-6.05,13.46,0,0-1.25-7.25,2.71-17.39,3.96-10.15,5.42-13.87,5.42-13.87,0,0-7.72,9.94-9.39,17.81-1.67,7.87-2.92,13.67-2.92,13.67Z"/>
  <path class="cls-6" d="M556.95,176.85s.21-8.28-5.22-18.22c-5.42-9.94-11.89-13.25-11.89-13.25,0,0,8.14,6.83,10.01,12.84,1.88,6,5.01,17.19,5.01,17.19,0,0-3.55-12.01-11.27-18.22-7.72-6.21-12.93-8.28-12.93-8.28,0,0,9.39,7.04,15.02,13.46,5.63,6.42,6.47,13.87,6.47,13.87,0,0-7.3-11.8-15.23-15.32-7.93-3.52-11.89-4.56-11.89-4.56,0,0,8.97,3.93,14.39,8.7,5.42,4.76,9.18,12.42,9.18,12.42,0,0-8.14-6.83-16.48-8.9-8.34-2.07-11.47-2.07-11.47-2.07,0,0,7.09,1.66,15.65,6.21,8.55,4.56,10.85,8.7,10.85,8.7,0,0-5.63-3.31-11.27-2.9-5.63.41-17.32,4.97-17.32,4.97,0,0,10.43-3.52,17.32-3.31,6.88.21,11.68,6.21,11.68,6.21,0,0-5.63-4.97-15.23,0-9.6,4.97-12.52,11.39-12.52,11.39,0,0,6.26-6.42,14.19-8.7,7.93-2.28,11.89.41,11.89.41,0,0-8.14,2.48-11.89,8.07-3.76,5.59-5.22,16.98-5.22,16.98,0,0,2.29-12.63,7.09-16.36,4.8-3.73,12.31-5.18,12.31-5.18,0,0-4.59,1.66-9.6,7.87-5.01,6.21-4.8,21.53-4.8,21.53,0,0,1.25-12.63,4.59-17.6,3.34-4.97,9.6-8.07,9.6-8.07,0,0-2.71-1.86-4.38,10.97-1.67,12.84.21,22.15.21,22.15,0,0,.63-16.56,2.29-21.74,1.67-5.18,3.96-9.52,3.96-9.52,0,0-2.09,16.98-1.25,22.57.83,5.59,2.29,10.97,2.29,10.97,0,0-.83-10.56.21-18.22,1.04-7.66,2.09-13.67,2.09-13.67l1.88,14.08-.21,17.81,2.5-16.77-1.67-14.91s3.34,4.14,5.01,12.01c1.67,7.87,1.67,15.94,1.67,15.94,0,0,1.46-13.25.42-19.05-1.04-5.8-2.29-10.77-2.29-10.77,0,0,5.01,0,7.51,12.22,2.5,12.22,2.29,17.81,2.29,17.81,0,0,3.13-8.49-.63-19.46-3.76-10.97-5.22-13.25-5.22-13.25,0,0,5.63.62,10.64,8.49,5.01,7.87,5.42,15.32,5.42,15.32,0,0-.21-11.18-3.96-17.81-3.76-6.63-11.68-8.28-11.68-8.28,0,0,8.55-2.9,15.86,4.56,7.3,7.45,10.43,15.94,10.43,15.94,0,0-4.8-14.29-10.22-19.46-5.42-5.18-12.93-4.56-12.93-4.56,0,0,8.14-2.28,15.02-1.24,6.88,1.04,13.35,8.7,13.35,8.7,0,0-2.92-8.7-12.31-10.56-9.39-1.86-14.6,1.45-14.6,1.45,0,0,8.55-8.07,16.69-7.04,8.14,1.04,12.73,4.76,12.73,4.76,0,0-8.14-7.25-14.39-7.04-6.26.21-15.02,6-15.02,6,0,0,1.25-7.25,11.06-11.39,9.81-4.14,14.19-3.31,14.19-3.31,0,0-12.93.41-20.24,4.76-7.3,4.35-8.55,6.83-8.55,6.83,0,0,6.47-12.63,12.52-17.81,6.05-5.18,11.68-6.42,11.68-6.42,0,0-10.85,2.07-16.27,7.45-5.42,5.38-8.34,12.22-8.34,12.22,0,0,.42-7.66,3.13-13.46,2.71-5.8,9.18-10.77,9.18-10.77,0,0-6.88,2.28-10.85,9.94-3.96,7.66-6.05,13.46-6.05,13.46,0,0-1.25-7.25,2.71-17.39,3.96-10.15,5.42-13.87,5.42-13.87,0,0-7.72,9.94-9.39,17.81-1.67,7.87-2.92,13.67-2.92,13.67Z"/>
  <rect class="cls-34" x="559.42" y="318.17" width="39.6" height="48.4"/>
  <path class="cls-36" d="M378.67,210.65s-80.1-8.8-93.75-10.12c-13.64-1.32-23.77,6.16-27.73,18.49-3.96,12.32,1.76,77.46,1.76,77.46h309.41s8.81-69.73,2.2-85.38c-8.36-19.81-54.58-4.4-101.23-1.76-46.65,2.64-59.86,3.52-90.67,1.32Z"/>
  <rect class="cls-40" x="261.14" y="376" width="12.21" height="10.24"/>
  <rect class="cls-40" x="553.12" y="376" width="12.21" height="10.24"/>
  <path class="cls-36" d="M256.81,314.55s4.33,40.16,2.36,49.23c-1.97,9.06-2.76,13.79-.39,14.97,2.36,1.18,308.13,0,308.13,0,0,0,7.05.27,3.94-8.27-1.58-4.33-2.76-50.8-2.36-52.38.39-1.58-311.68-3.55-311.68-3.55Z"/>
  <path class="cls-40" d="M568.61,332.87c-.2-7.99-.26-14.21-.12-14.77.39-1.58-311.68-3.55-311.68-3.55,0,0,.9,8.36,1.7,18.32h310.1Z"/>
  <path class="cls-36" d="M563.96,327.28s13.2.88,14.96-5.72c1.76-6.6.88-26.85-6.6-29.49-7.48-2.64-176.49,3.96-222.7-1.32-46.21-5.28-85.81-5.89-94.63-3.08-13.02,4.15-14.08,28.61-1.76,34.33,4.32,2,310.73,5.28,310.73,5.28Z"/>
  <path class="cls-33" d="M350.91,166.66s-30.94,13.2-34.26,16.51c-3.31,3.31-4.33,75.9-4.33,75.9l70.04,9.17,7.9-23.43,13.24,1.02s4.16-48.74,1.87-52.81c-2.29-4.08-27.34-25.12-27.34-25.12l-27.13-1.23Z"/>
  <path class="cls-42" d="M323.5,355.09s-4.82,5.62-7.06,7.55c-2.25,1.93-11.08,5.3-14.29,10.76-3.21,5.46-2.41,9.79,3.21,12.04,5.62,2.25,12.84,1.44,18.94-3.69,6.1-5.14,10.28-14.77,10.28-14.77l-4.82-13.49-6.26,1.61Z"/>
  <g>
    <path class="cls-40" d="M330.05,260.96l21.27,1.39s14.79-5.32,21.96-1.85,11.1,14.79,9.02,24.04c-2.08,9.25-27.51,63.8-29.36,67.96-1.85,4.16-3.93,10.4-3.93,10.4,0,0-7.4.46-11.33-2.31-3.93-2.77-6.01-9.02-6.01-9.02l14.56-60.8-9.71-.46-6.47-29.36Z"/>
    <path class="cls-40" d="M346.23,290.78s2.54-18.72,5.78-23.58"/>
    <path class="cls-40" d="M351.32,262.35s-8.5,4.48-9.66,11.18"/>
  </g>
  <g>
    <g>
      <path class="cls-32" d="M321.24,180.37s-10.7,5.09-11.97,9.42c-1.27,4.33-7.13,59.6-6.37,62.4.76,2.8,9.42,6.88,9.42,6.88,0,0,12.73-14.26,12.73-15.28s-.76-41.26-.76-41.26"/>
      <path class="cls-32" d="M331.93,244.05s-8.15-6.37-10.7-5.6c-2.55.76-12.48,15.03-11.97,17.57.51,2.55,2.55,4.33,6.37,4.84,3.82.51,6.62-.25,7.64-1.78,1.02-1.53,8.66-15.03,8.66-15.03Z"/>
      <path class="cls-32" d="M318.43,239.97s-11.46,5.6-13.5,8.91"/>
      <path class="cls-32" d="M307.48,243.28s4.58-4.33,9.17-4.58"/>
    </g>
    <path class="cls-32" d="M326.58,193.62s1.27,6.11-.76,15.28"/>
  </g>
  <path class="cls-41" d="M352.02,194.22c.86,1.99,1.81,3.92,2.83,5.51"/>
  <path class="cls-41" d="M347.72,181.65s1.12,4.28,2.9,9.07"/>
  <path class="cls-41" d="M343.65,187s4.33,12.73,6.11,16.05"/>
  <path class="cls-38" d="M390.26,200.24s.25,35.15-.51,42.79"/>
  <path class="cls-32" d="M351.66,165.91c-3.23,3.56-6.6,11.31-5.41,15.98,1.9-.07,3.75-.49,5.59-1.03,3.1-.91,7.29-1.82,7.29-1.82,0,0,4.56,2.37,6.94,4.57,7.05,6.5,16.03-10.8,12.93-16.42-2.92-5.29-7.11-6.2-7.11-6.2,0,0-13.12-2.92-20.23,4.92Z"/>
  <path class="cls-39" d="M350.75,122.15s-7.66,4.74-7.29,8.39c.36,3.65,1.82,3.1-1.82,5.47-3.65,2.37-8.93,3.83-6.75,6.02,2.19,2.19,3.1,3.28,3.1,3.28,0,0-.73,11.12-.91,13.49-.18,2.37,2.19,3.83,4.01,4.19,1.82.36,7.66.36,7.66.36,0,0,7.47,18.41,8.75,18.23,1.28-.18,16.41-13.31,17.32-15.68.91-2.37-.55-9.48-.55-9.48,0,0,13.13-10.57,14.4-15.86,1.28-5.29-8.93-17.32-16.22-22.79-7.29-5.47-18.23-6.93-21.15-4.56-2.92,2.37-.55,8.93-.55,8.93Z"/>
  <path class="cls-40" d="M372.44,117.78c-7.29-5.47-18.23-6.93-21.15-4.56-2.92,2.37-.55,8.93-.55,8.93,0,0,13.49,3.65,13.85,6.2.36,2.55-2.92,2.37-2.19,4.19.73,1.82,4.19,4.74,4.19,4.74,0,0-2.37,5.65-1.28,6.93,1.09,1.28,2.37,2.37,2.73,1.64.36-.73,2.19-2.55,4.01-2.92,1.82-.36,5.47,1.82,3.83,5.47-1.64,3.65-6.38,5.47-6.38,5.47l4.74,2.55s13.13-10.57,14.4-15.86c1.28-5.29-8.93-17.32-16.22-22.79Z"/>
  <path class="cls-18" d="M349.29,136.92c-.41,1.14-1.2,1.9-1.76,1.69s-.7-1.29-.3-2.43c.41-1.14,1.2-1.9,1.76-1.69s.7,1.29.3,2.43Z"/>
  <path class="cls-38" d="M346.74,130.9s4.01-1.82,6.38,2.01"/>
  <polygon class="cls-40" points="348.74 163.35 356.76 162.62 351.11 168.64 348.74 163.35"/>
  <path class="cls-38" d="M342,149.13s5.83,1.09,8.75-2.37"/>
  <path class="cls-37" d="M331.93,244.05s42.12,8.2,43.96,9.12,6.72,5.96,8.4,7.64c1.68,1.68,1.68,5.35,2.29,9.47.61,4.13-2.9,9.47-3.67,9.63-.76.15-4.28-12.38-5.35-13.45s-7.18-6.72-7.18-6.72l-47.12-.66,8.66-15.03Z"/>
  <path class="cls-42" d="M325.11,356.69s4.01,12.36,7.39,19.59c3.37,7.22,11.56,14.93,17.98,14.61,6.42-.32,10.6-1.93,7.71-11.24-2.89-9.31-11.24-18.3-13.17-20.23s-3.05-4.33-3.05-4.33l-.8-1.61-16.05,3.21Z"/>
  <path class="cls-40" d="M310.63,258.42s-10.34,6.9-11.14,16.6c-.5,6,2.82,12.06,10.68,14.6,0,0,9.02,56.4,9.25,60.56.23,4.16,1.39,7.4,1.39,7.4,0,0,5.09,2.08,11.33.92,6.24-1.16,14.33-4.85,14.33-4.85,0,0-2.77-13.64-3.01-15.72-.23-2.08-.69-47.16-1.62-56.17s-3.24-19.42-12.25-22.89c-9.02-3.47-12.25-3.01-18.96-.46Z"/>
  <path class="cls-40" d="M310.17,289.63s-1.69-11.1-.94-19.6"/>
  <g>
    <path class="cls-39" d="M485.64,175.16s-22.78,6.34-25.43,9.21c-2.65,2.87-19.76,28.75-19.76,28.75l7.67,16.88,16.99-5.85,4.84,16.58s.25.02,14.15,3.33c13.91,3.31,29.85-.39,29.85-.39l7.44-49.74s1.77.22-3.97-6.84c-5.74-7.06-31.78-11.92-31.78-11.92Z"/>
    <path class="cls-41" d="M474.62,193.54c.03,1.42.2,2.81.56,4.06"/>
    <path class="cls-41" d="M476.55,181.35s-1.49,4.58-1.86,9.52"/>
    <path class="cls-41" d="M488.45,184.32s-5.26,9.15-8.01,11.9"/>
    <path class="cls-41" d="M462.48,210.57c-.21-1.38-.4-2.81-.58-4.28"/>
    <path class="cls-41" d="M465.11,224.14s-1-3.98-1.99-9.64"/>
  </g>
  <path class="cls-40" d="M415.01,205.99s-15.14,7.14-19.9,10.82c-4.76,3.68-6.06,65.12-6.06,65.12l50.19,1.95s8.01-62.09,4.11-67.29c-3.89-5.19-22.28-10.6-28.34-10.6Z"/>
  <polygon class="cls-33" points="383.66 293.13 440.07 293.13 430.61 277.48 389.72 277.42 383.66 293.13"/>
  <path class="cls-39" d="M413.77,204.46s-2.32,1.24-4.02,2.47c-1.7,1.24-3.71,8.04-4.33,10.2-.62,2.16.31,2.94,1.86,2.32,1.55-.62,8.5-4.17,8.5-4.17,0,0,8.04,7.42,8.97,7.58.93.15,2.01,1.39,3.25-1.08,1.24-2.47,5.1-7.42,5.1-10.36s-1.39-6.03-3.71-6.96c-2.32-.93-12.37-1.7-15.61,0Z"/>
  <path class="cls-39" d="M410.09,162.05s-4.5,2.74-6.16,9.43c-.67,2.68-.18,5.62-1.27,7.61-1.09,1.99-5.8,3.44-5.62,5.8.18,2.36,2.36,3.08,2.36,3.08,0,0,.91,8.52,1.81,10.88.91,2.36,1.81,3.08,4.35,3.08s5.44-.18,5.44-.18c0,0,2.54,13.59,3.63,15.41,1.09,1.81,1.99,1.63,3.08.54,1.09-1.09,11.78-11.42,11.78-11.42,0,0-.36-6.71.54-7.79.91-1.09,7.61-5.62,10.15-10.51,2.54-4.89,4.31-17.28-1.45-22.48-9.24-8.34-21.39-6.34-23.93-5.62-2.54.73-4.71,2.18-4.71,2.18Z"/>
  <path class="cls-40" d="M440.18,187.97c2.54-4.89,4.31-17.28-1.45-22.48-9.24-8.34-21.39-6.34-23.93-5.62s-4.71,2.18-4.71,2.18c0,0,10.51.18,12.87,3.44,2.36,3.26-2.9,6.16-3.08,8.16-.18,1.99,3.08,4.71,2.9,6.34-.18,1.63-2.54,3.44-1.09,4.17s3.44-2.36,5.26-1.63c1.81.73,4.53,4.35,3.26,7.43-1.27,3.08-5.8,4.17-5.8,4.17,0,0,2.54,3.81,5.62,4.35.91-1.09,7.61-5.62,10.15-10.51Z"/>
  <path class="cls-10" d="M408.09,178.94c-.3,1.2-1.09,2.04-1.75,1.87-.66-.17-.95-1.28-.65-2.48.3-1.2,1.09-2.04,1.75-1.87.66.17.95,1.28.65,2.48Z"/>
  <path class="cls-41" d="M402.63,190.55s3.71.62,6.18-2.78"/>
  <path class="cls-41" d="M405.57,172.77s2.16-1.86,3.87.62"/>
  <path class="cls-39" d="M382.35,240.83s-1.95,17.74-.22,22.5c1.73,4.76,16.66,22.28,17.31,22.72.65.43,1.95,3.68,5.63,4.54,3.68.87,9.52-1.51,9.52-4.76s-12.76-8.87-12.76-8.87c0,0-4.54-10.82-5.63-13.41-1.08-2.6-2.38-5.19-2.38-5.19l2.38-12.98-13.85-4.54Z"/>
  <path class="cls-40" d="M400.95,213.56s-7.79,1.51-11.47,6.49c-3.68,4.98-7.14,20.77-7.14,20.77l15.17,5.01,2.79-10.85"/>
  <path class="cls-39" d="M443.36,216.59s2.16.87,3.89,5.19c1.73,4.33,1.73,29.86,1.95,34.4.22,4.54-.65,7.79-.65,7.79,3.45.76-19.86,16.73-25.31,17.52-2.61.38-6.27,8.65-9.3,10.38-3.03,1.73-7.79,1.3-9.52.87-1.73-.43-5.63-4.76-4.76-5.19.87-.43,3.89.43,5.41.43s4.98-4.33,4.98-5.63-4.54-3.68-5.84-3.25c-1.3.43-5.84,1.73-5.41.43.43-1.3,6.49-4.11,7.57-4.76s8.87,2.16,9.52,2.38c.65.22,6.92-4.33,6.92-4.33l14.28-14.28-2.38-21.64"/>
  <path class="cls-37" d="M405.09,279.65s3.3-.73,3.95-.64,2.2,2.48,2.94,2.94c.73.46,2.5,1.79,2.13,2.43-.37.64-.73,1.01-2.02.64-1.28-.37-3.87-2.25-3.87-2.25"/>
  <path class="cls-40" d="M439.35,214.28c1.72,0,7.62,2.7,9.34,9.83,1.72,7.12,1.47,17.69,1.47,17.69l-14.74,2.21-1.47-10.32"/>
  <path class="cls-39" d="M411.11,352.59s-2.19,7.8-2.92,9.75c-.73,1.95-3.78,8.04-4.51,12.67-.73,4.63.73,11.09,4.63,11.58,3.9.49,6.82-1.58,9.38-9.5,2.56-7.92,2.32-17.91,2.56-19.01.24-1.1-9.14-5.48-9.14-5.48Z"/>
  <path class="cls-40" d="M417.69,377.08c1.47-4.55,2.01-9.78,2.26-13.62l-.92.7s-1.46-4.26-3.9-5.36c-2.18-.98-5.52.86-6.2,1.26-.3.97-.56,1.8-.74,2.27-.73,1.95-3.78,8.04-4.51,12.67-.73,4.63.73,11.09,4.63,11.58,3.9.49,6.82-1.58,9.38-9.5Z"/>
  <path class="cls-39" d="M390.27,358.56s4.02,14.26,5.73,17.79c1.71,3.53,5.12,8.53,8.9,9.87,3.78,1.34,6.95.85,8.29-1.46,1.34-2.32,3.41-5.73.12-10.24-3.29-4.51-9.5-10.6-10.24-11.82-.73-1.22-1.46-5.97-1.46-5.97l-11.33,1.83Z"/>
  <path class="cls-40" d="M397.58,362.46c-1.71,1.46-3.29,4.14-3.29,4.14l-2.09-1.44c1.27,4.23,2.87,9.28,3.8,11.19,1.71,3.53,5.12,8.53,8.9,9.87,3.78,1.34,6.95.85,8.29-1.46,1.34-2.32,3.41-5.73.12-10.24-3.29-4.51-9.5-10.6-10.24-11.82,0,0-3.78-1.71-5.48-.24Z"/>
  <g>
    <path class="cls-33" d="M389.72,277.42s-8.11-.25-11.3,6.14c-3.19,6.39-2.46,16.7-.49,22.85,1.97,6.14,10.32,52.82,10.32,52.82,0,0,1.47.98,5.65.98s9.83-3.19,9.83-3.19l-1.69-58.99s-1.67-12.57-4.12-16.5c-2.46-3.93-8.19-4.1-8.19-4.1Z"/>
    <path class="cls-33" d="M403.55,350.95c-6.5,2.88-13.19,2.66-16.38,2.32.66,3.65,1.08,5.96,1.08,5.96,0,0,1.47.98,5.65.98s9.83-3.19,9.83-3.19l-.17-6.06Z"/>
  </g>
  <g>
    <path class="cls-33" d="M433.47,277.17s8.06.86,10.36,7.62c2.29,6.76.16,16.88-2.62,22.7-2.78,5.82-17.41,50.92-17.41,50.92,0,0-1.59.77-5.73.2-4.14-.57-9.3-4.5-9.3-4.5l9.7-58.22s3.36-12.22,6.33-15.78c2.97-3.56,8.67-2.95,8.67-2.95Z"/>
    <path class="cls-33" d="M409.76,348.13c6.05,3.74,12.7,4.43,15.91,4.52-1.15,3.53-1.88,5.76-1.88,5.76,0,0-1.59.77-5.73.2-4.14-.57-9.3-4.5-9.3-4.5l1-5.98Z"/>
  </g>
  <path class="cls-39" d="M455.95,273.54s5.53,45.06,11.33,62.2c5.81,17.14,6.91,28.75,6.08,32.34-.83,3.59-1.66,14.1-1.66,16.59s4.42,3.32,9.68,0,6.36-8.29,4.7-14.65c-1.66-6.36,3.32-8.85,1.11-15.2-.93-2.66-4.42-1.94-6.36-12.16-1.94-10.23-1.11-52.53-1.11-52.53l-23.77-16.59Z"/>
  <path class="cls-33" d="M486.08,370.02c-1.66-6.36,3.32-8.85,1.11-15.2-.65-1.87-2.57-2.07-4.33-5.58-.06.27-.09.56-.09.88,0,4.15.28,20.18-2.49,24.33-2.05,3.08-6.07,2.5-8.02,2-.33,3.51-.55,6.94-.55,8.23,0,2.49,4.42,3.32,9.68,0s6.36-8.29,4.7-14.65Z"/>
  <path class="cls-39" d="M444.06,271.94s8.02,56.95,8.57,64.97c.55,8.02,3.04,22.39,3.04,26.54s-3.59,6.91-3.32,8.57c.28,1.66,4.7.28,7.46-1.94,2.76-2.21,7.19-4.98,8.02-9.4.83-4.42,1.94-14.93,3.32-18.8,1.38-3.87,1.94-6.36,0-8.57-1.94-2.21-7.74-2.49-8.02-7.46-.28-4.98,1.94-47,1.94-47l-21.01-6.91Z"/>
  <path class="cls-33" d="M461.2,356.26c-3.04,6.63-5.53,7.19-5.53,7.19,0,4.15-3.59,6.91-3.32,8.57.28,1.66,4.7.28,7.46-1.94,2.76-2.21,7.19-4.98,8.02-9.4.83-4.42,1.94-14.93,3.32-18.8,1.38-3.87,1.94-6.36,0-8.57-1.94-2.21-7.74-2.49-8.02-7.46,0,0,1.11,23.77-1.94,30.41Z"/>
  <g>
    <path class="cls-33" d="M473.09,240.43s-22.39-6.08-27.09-3.32c-4.7,2.76-9.4,34.28-9.4,34.28,0,0,39.97,24.74,47.83,31.52,16.03,13.82,25.43,11.06,25.43,11.06,0,0,5.25.55,4.15-8.02-1.11-8.57-.83-11.33-.83-11.33,0,0,15.2-.28,18.52-3.04,3.32-2.76,4.72-17.13-3.04-28.75-4.48-6.7-14.7-19.16-14.7-19.16l-40.87-3.23Z"/>
    <path class="cls-33" d="M504.05,248.64s10.85,5.59,16.44,13.16"/>
    <path class="cls-33" d="M513.17,294.61s-10.77-1.9-20.96-7.49"/>
    <path class="cls-33" d="M479.89,278.71c1.79,1.9,3.67,3.65,5.64,5.12"/>
    <path class="cls-33" d="M462.58,251.49s5.33,12.32,13.49,22.75"/>
    <path class="cls-33" d="M464.52,265.03s4.98,14.93,9.95,19.63"/>
  </g>
  <path class="cls-40" d="M474.99,140.28s-7.27-6.21-5.67-9.75c1.6-3.55,17.38-4.26,17.38-4.26,0,0,16.67-2.48,22.88,4.97,6.21,7.45,4.43,28.02,4.43,28.02,0,0,16.32,10.82,17.91,16.14,1.6,5.32-4.97,10.11-4.97,10.11,0,0,9.04,6.56,6.38,11.35-2.66,4.79-7.63,6.56-7.63,6.56,0,0-1.06-9.58-4.61-12.77-3.55-3.19-14.36-9.58-14.36-9.58v28.37s-7.09,1.42-12.59-6.92c-5.5-8.33-3.19-24.65-3.19-24.65l-2.48-20.04-13.48-17.56Z"/>
  <path class="cls-39" d="M475.52,137.62s-5.85,7.27-5.5,9.75c.35,2.48.18,3.72.18,3.72,1.36,1.32-4.65,6.13-4.43,6.74.68,1.9,4.08,2.31,4.08,2.31,0,0,1.77,11.35,3.19,12.06,1.42.71,2.66,1.42,4.08.71s4.97-1.42,4.97-1.42v6.92s-4.97,14.19-2.31,12.95c2.66-1.24,11.17-13.48,11.17-13.48l1.06-17.02s5.5-3.72,5.5-6.38-.71-5.5-3.37-4.79-4.08,3.01-4.08,3.01c0,0-5.5-4.97-7.63-7.98-2.13-3.01-.35-9.58-.35-9.58l-6.56,2.48Z"/>
  <path class="cls-18" d="M475.16,151.5c-.15,1.31-.78,2.32-1.42,2.25-.63-.07-1.02-1.2-.87-2.51.15-1.31.78-2.32,1.42-2.25s1.02,1.2.87,2.51Z"/>
  <path class="cls-38" d="M472.33,146.31s1.42-3.01,4.26.18"/>
  <polygon class="cls-40" points="482.08 171.5 487.4 169.9 482.08 178.41 482.08 171.5"/>
  <path class="cls-38" d="M473.57,162.27s2.84-.89,4.61-3.19"/>
  <g>
    <path class="cls-39" d="M506.83,232.55s-44.54-3.93-48.23-6.59c-3.69-2.66-4.87-11.36-8.12-13.43-3.25-2.07-12.84-2.8-13.57-2.36-.74.44,2.95,2.8,3.54,2.95.59.15,7.97,5.16,8.56,7.08.59,1.92,1.03,7.38,2.8,8.71,1.77,1.33,4.72,2.36,4.72,2.36,0,0,29.22,10.48,34.97,12.25,5.75,1.77,17.41,3.84,20.95,3.84s5.02,2.66,6.34.15c1.33-2.51,1.92-12.1,1.92-12.1l-13.89-2.85Z"/>
    <path class="cls-39" d="M508.08,210.4l-1.26,22.14,22.29,4.19-3.41-33.32s-2.1-15.24-9.39-18.55c-7.28-3.31-8.39-1.99-8.39-1.99"/>
  </g>
  <g>
    <g>
      <path class="cls-11" d="M208.54,325.53c-10.46,16.85-21.49,33.11-31.37,50.44-.58,1.02-4.19,4.29-5.44,11.55h-10.24c-30.09.01-60.18.03-90.27,0-7.88-22.88-13.39-46.7-15.69-71.16-4.24-23.38-25.33-67.3-46.73-75.56,1.96-1.79,4.72-2.05,5.76-2.57,14.99-7.48,17.59-7.44,31.05-19.44,2.4-2.13,4.81-3.77,7.04-6.24-.03.82,1.25-.8,1.44-.73.6.21,1.95,4.49,4.18,9.5,2.08,4.68,4.92,10.01,8.62,13.24q1.04-.55,2.08-1.1c0,.55,4.45-.45,4.45.1-1.65,1.49-12.18,14.45-11.17,18.25.31,1.25,1.02,2.06,1.75,2.88.52.58,1.04,1.16,1.45,1.89,17.2,30.48,42.65,55.56,63.06,83.44,13.17,16.29,29.36,28.58,43.05,44.2q2.16-6.33,4.32-12.66c-10.78-18.36-23.98-34.44-37.29-50.44-7.02-6.16-19.98-14.28-25.93-19.44-2.6-2.25-4.77-5.22-7.2-7.7q1.28-1.1,2.56-2.2c6.7,6.5,15.27,12.11,20.01,16.51,4.68,4.36,11.15,14.93,15.21,11.92q-1.92-7.97-3.84-15.96c-.41-5.86-2.97-12.88-2.56-18.34,4.46,8.09,8.99,16.13,13.45,24.21,2.25,4.09,3.89,8.39,6.72,12.11.07.1-.15.59,1.6,1.83.34,3.24,10.35,21.03,12.48,26.04,2.96,6.95,4.45,11.61,5.28,19.44,3.27-7.94,6.27-16.07,9.12-24.21,1.27-3.59,1.72-7.49,3.2-11,.91-3.18,2.46-6.1,3.52-9.17.09-.25,1.73-2.38,2.24-4.77.46.32.63.48.96-.18,3.5-6.93,1.47-8.16,13.12,5.32Z"/>
      <path class="cls-10" d="M109.2,387.91c-12.67,0-25.37,0-37.98-.02h-.22l-.08-.23c-8.23-23.9-13.52-47.87-15.71-71.26-4.5-24.8-26.02-67.35-46.52-75.25l-.56-.21.46-.42c1.43-1.31,3.25-1.83,4.57-2.2.52-.15.98-.28,1.26-.42,2.82-1.4,5.19-2.54,7.29-3.55,9.05-4.33,12.79-6.13,23.68-15.85.83-.74,1.66-1.42,2.47-2.08,1.59-1.3,3.1-2.53,4.55-4.13l.58-.64-.02.62c.14-.11.29-.26.4-.35.38-.35.57-.53.8-.45.47.16.9,1.2,2.08,4.17.62,1.55,1.39,3.48,2.29,5.52,2.72,6.12,5.46,10.37,8.38,12.98l2.36-1.25v.37c.35.05,1.25-.05,1.88-.11,1.57-.16,2.18-.2,2.44.08.09.09.13.21.13.34v.18l-.12.11c-1.92,1.73-11.99,14.39-11.06,17.85.3,1.19.99,1.97,1.67,2.73.55.62,1.08,1.21,1.5,1.95,10.88,19.29,25.29,36.66,39.21,53.47,8.03,9.69,16.34,19.71,23.83,29.94,7.17,8.87,15.4,16.7,23.35,24.27,6.49,6.18,13.2,12.57,19.33,19.51,1.97-5.76,2.05-5.99,4.08-11.96-10.32-17.54-22.42-32.5-37.16-50.23-3.65-3.2-8.96-6.96-14.1-10.6-4.61-3.27-8.97-6.35-11.79-8.8-1.59-1.38-3.03-3.03-4.43-4.64-.9-1.04-1.84-2.11-2.79-3.08l-.29-.3,3.08-2.65.2.19c3.82,3.7,8.28,7.15,12.23,10.18,2.95,2.27,5.73,4.42,7.78,6.32,1.31,1.22,2.73,2.89,4.24,4.66,3.6,4.23,7.68,9.02,10.39,7.38l-3.78-15.69c-.18-2.5-.74-5.19-1.27-7.8-.76-3.66-1.54-7.44-1.3-10.67l.08-1.09.51.92c2.31,4.2,4.64,8.38,6.97,12.56,2.16,3.88,4.33,7.76,6.47,11.65.74,1.34,1.42,2.72,2.08,4.06,1.4,2.84,2.73,5.53,4.61,8,.07.1.09.2.1.26.07.45.82,1.07,1.43,1.51l.13.09.02.18c.21,1.96,4.37,10,7.72,16.46,2.02,3.91,3.94,7.6,4.73,9.47,2.77,6.49,4.29,11.03,5.17,18.31,2.76-6.76,5.52-14.13,8.65-23.05.55-1.57.96-3.23,1.35-4.84.5-2.06,1.02-4.2,1.86-6.19.51-1.8,1.26-3.57,1.98-5.28.53-1.26,1.08-2.56,1.53-3.87.03-.09.09-.19.27-.47.47-.73,1.56-2.43,1.95-4.25l.1-.48.45.31c.1.07.23.16.28.17,0,0,.05-.06.16-.28.44-.88.79-1.65,1.1-2.34.77-1.72,1.24-2.75,2.09-2.9,1.26-.22,2.83,1.62,7.5,7.06.87,1.01,1.84,2.15,2.94,3.42l.19.22-.16.25c-3.59,5.78-7.3,11.59-10.9,17.2-6.87,10.74-13.98,21.85-20.47,33.22-.12.21-.33.48-.63.85-1.22,1.54-3.77,4.75-4.77,10.57l-.05.3h-11.93c-16.72,0-33.77.02-50.86.02ZM71.43,387.16c29.54.03,59.58.02,88.62,0h11.41c1.07-5.83,3.63-9.06,4.87-10.63.26-.33.47-.6.57-.76,6.5-11.39,13.61-22.51,20.49-33.26,3.54-5.53,7.2-11.25,10.73-16.94-1.02-1.18-1.93-2.24-2.75-3.2-4.13-4.82-6.03-7-6.95-6.85-.53.09-.96,1.05-1.62,2.51-.31.69-.67,1.48-1.12,2.37-.13.26-.3.54-.57.62-.17.05-.32.01-.47-.07-.49,1.78-1.5,3.35-1.95,4.05-.1.16-.17.27-.2.32-.45,1.31-1,2.62-1.54,3.89-.71,1.69-1.45,3.44-1.97,5.24-.83,1.98-1.34,4.08-1.84,6.11-.4,1.63-.8,3.31-1.37,4.91-3.31,9.44-6.21,17.14-9.13,24.23l-.47,1.15-.13-1.26c-.84-7.92-2.36-12.54-5.25-19.32-.78-1.84-2.69-5.52-4.71-9.41-3.46-6.68-7.37-14.22-7.78-16.57-1.26-.92-1.52-1.46-1.6-1.88-1.9-2.5-3.29-5.33-4.64-8.06-.65-1.33-1.33-2.7-2.06-4.03-2.14-3.89-4.31-7.77-6.47-11.65-2.15-3.85-4.3-7.71-6.43-11.57,0,2.86.67,6.12,1.32,9.28.54,2.63,1.11,5.35,1.28,7.84l3.89,16.15-.2.15c-3.16,2.34-7.35-2.59-11.4-7.35-1.49-1.75-2.9-3.41-4.18-4.6-2.02-1.88-4.79-4.01-7.73-6.28-3.89-3-8.29-6.39-12.09-10.04l-2.05,1.76c.87.9,1.71,1.87,2.53,2.81,1.38,1.59,2.81,3.22,4.36,4.57,2.8,2.43,7.14,5.51,11.74,8.76,5.15,3.65,10.48,7.42,14.19,10.68,14.84,17.84,26.99,32.87,37.36,50.52l.09.16-.06.18q-2.16,6.32-4.32,12.66l-.18.52-.35-.39c-6.2-7.07-13.03-13.57-19.63-19.86-7.97-7.59-16.21-15.43-23.42-24.35-7.48-10.22-15.78-20.24-23.81-29.92-13.95-16.83-28.37-34.23-39.29-53.58-.38-.67-.86-1.21-1.37-1.78-.74-.83-1.53-1.72-1.87-3.09-1-3.75,8.19-15.34,10.8-18.15-.43.01-1.05.07-1.52.12-1.35.14-1.99.18-2.31.02l-2.07,1.09-.15-.13c-3.05-2.67-5.9-7.04-8.71-13.37-.91-2.05-1.68-3.99-2.3-5.55-.64-1.62-1.31-3.29-1.62-3.7-.08.07-.19.17-.28.25-.47.44-.85.79-1.18.62-1.4,1.5-2.9,2.72-4.35,3.91-.8.66-1.63,1.33-2.45,2.06-10.96,9.78-14.73,11.58-23.83,15.94-2.1,1-4.47,2.14-7.28,3.54-.33.16-.81.3-1.36.46-1.12.32-2.6.74-3.84,1.66,21.91,9.1,42.42,53.9,46.36,75.6,2.18,23.28,7.43,47.11,15.59,70.87ZM54.15,212.17h0Z"/>
    </g>
    <g>
      <path class="cls-3" d="M257.52,387.52c-5.87.01-11.74,0-17.61,0,6.17-26.33,10.47-52.91,13.12-79.96,1.26-12.85.63-34.9.64-47.86.67,2.02,3.94,13.46,4.8,15.4,8.86,32.01,4.73,79.44-.96,112.43Z"/>
      <path class="cls-10" d="M253.4,387.89c-1.7,0-3.4,0-5.1,0-2.8,0-5.59,0-8.38,0h0c-.1,0-.19-.05-.25-.14-.06-.09-.08-.21-.06-.32,6.01-25.65,10.43-52.54,13.11-79.91.96-9.76.82-25.01.7-37.25-.04-3.85-.07-7.48-.07-10.57,0-.18.11-.33.26-.36.15-.03.3.07.36.23.23.68.75,2.44,1.36,4.49,1.21,4.06,2.87,9.61,3.43,10.88,10.28,37.17,2.77,91.17-.93,112.66-.03.17-.16.3-.31.3-1.37,0-2.75,0-4.12,0ZM257.52,387.52h0,0ZM243.2,387.15c1.7,0,3.4,0,5.1,0,2.99,0,5.97,0,8.96,0,3.71-21.64,11.09-75.17.92-111.95-.56-1.26-2.16-6.62-3.44-10.92-.27-.89-.52-1.73-.73-2.45,0,2.57.04,5.43.06,8.42.11,12.27.26,27.53-.71,37.34-2.68,27.25-7.06,54.01-13.02,79.55.95,0,1.91,0,2.86,0Z"/>
    </g>
    <g>
      <path class="cls-3" d="M35.36,328.1c-1.88,16.9-2.08,42.08-1.6,59.42-4.58,0-9.17,0-13.76,0-2.03,0-4.06,0-6.08,0C5.18,355.65-.73,322.24.48,288.67c.38-10.81,2.84-31.88,5.76-41.99,11.02,7.19,18.32,17.39,24.96,29.52,2.56,4.67,9.76,18.53,9.6,23.48-2,9.24-4.39,19-5.44,28.43Z"/>
      <path class="cls-10" d="M22.8,387.89c-.93,0-1.87,0-2.8,0-1.03,0-2.06,0-3.09,0-1,0-1.99,0-2.99,0-.14,0-.26-.1-.3-.26C3.49,350.72-.91,318.34.16,288.65c.38-10.53,2.75-31.64,5.78-42.09.03-.1.1-.19.19-.23s.19-.03.27.02c12.12,7.91,19.48,19.42,25.08,29.65,1.01,1.84,9.83,18.11,9.65,23.69,0,.03,0,.05,0,.07-.36,1.67-.73,3.35-1.11,5.05-1.7,7.69-3.47,15.63-4.32,23.33-1.92,17.25-2.06,42.76-1.6,59.37,0,.1-.03.2-.09.27-.06.07-.14.11-.23.11h0c-2.33,0-4.66,0-6.99,0-1.32,0-2.65,0-3.97,0ZM18.67,387.16c.45,0,.89,0,1.33,0,2.25,0,4.51,0,6.77,0,2.22,0,4.44,0,6.66,0-.45-16.64-.29-41.94,1.61-59.1h0c.86-7.75,2.63-15.72,4.34-23.42.37-1.68.74-3.36,1.1-5.01.13-5.39-8.56-21.42-9.56-23.23-5.5-10.05-12.71-21.35-24.51-29.17-2.91,10.39-5.27,31.36-5.62,41.47-1.06,29.53,3.31,61.75,13.36,98.48.92,0,1.84,0,2.75,0,.59,0,1.17,0,1.76,0Z"/>
    </g>
    <g>
      <path class="cls-15" d="M71.22,387.52c-12.48-.01-24.97.02-37.45,0-.48-17.34-.28-42.53,1.6-59.42,1.05-9.43,3.44-19.19,5.44-28.43.16-4.94-7.04-18.8-9.6-23.48-6.65-12.13-13.94-22.33-24.96-29.52.48-1.67.17-3.68,2.56-5.87,21.4,8.25,42.49,52.18,46.73,75.56,2.29,24.47,7.8,48.28,15.69,71.16Z"/>
      <path class="cls-10" d="M42.72,387.9c-2.99,0-5.97,0-8.96,0-.17,0-.31-.16-.32-.36-.46-16.63-.32-42.19,1.6-59.48.86-7.75,2.63-15.72,4.34-23.42.37-1.68.74-3.36,1.1-5.01.13-5.39-8.56-21.42-9.56-23.23-5.56-10.14-12.85-21.57-24.85-29.4-.13-.09-.19-.27-.15-.43.11-.38.18-.79.25-1.22.23-1.37.51-3.08,2.42-4.82.09-.08.2-.1.3-.06,22.13,8.53,42.97,53.95,46.94,75.83,2.19,23.35,7.46,47.26,15.67,71.1.04.11.03.24-.03.34-.06.1-.16.16-.26.16h0c-5.88,0-11.75,0-17.62,0-3.62,0-7.25,0-10.87,0ZM34.07,387.16c6.51,0,13.01,0,19.52,0,5.72,0,11.44,0,17.16,0-8.13-23.73-13.36-47.54-15.53-70.76-4.49-24.73-25.91-67.12-46.35-75.18-1.6,1.52-1.83,2.92-2.05,4.26-.06.35-.11.69-.19,1.02,11.99,7.9,19.29,19.34,24.86,29.5,1.01,1.84,9.83,18.11,9.65,23.69,0,.03,0,.05,0,.07-.36,1.67-.73,3.35-1.11,5.05-1.7,7.69-3.47,15.63-4.32,23.33-1.9,17.13-2.06,42.4-1.61,59.01Z"/>
    </g>
    <path class="cls-24" d="M69.59,184.91c-.28-.14-.52-.23-.75-.45.06-.17.12-.34.17-.51.17.51.36.79.58.95Z"/>
    <path class="cls-27" d="M68.08,247.88l-1.95,1.31-.63.43c-.05-.26-.06-.5-.05-.74.28-.21.54-.37.77-.5,1.08-.61,1.71-.52,1.79-.6.02.04.04.07.06.1Z"/>
    <path class="cls-12" d="M221.35,251.8c-6.22-4.62-9.04-4.17-7.04.18.65,1.42,17.79,14.34,21.13,20.91-7.91,23.32-14.97,33.43-26.89,52.64-11.66-13.48-9.63-12.24-13.12-5.32-.34.67-.5.49-.96.18,4.4-12.4,8.07-27.91,8.96-41.27.7-10.48-.44-41.1-1.92-51.54,5.19,9.55,14.18,15.07,19.85,24.21Z"/>
    <path class="cls-24" d="M66.13,249.25s0-.04,0-.07l-.63.43c-.05-.26-.06-.5-.05-.74.28-.21.54-.37.77-.5,1.08-.61,1.71-.52,1.79-.6.02.04.04.07.06.1.08.12.15.23.24.35-.42.07-1.17.26-2.19,1.03Z"/>
    <g>
      <path class="cls-16" d="M158.61,324.06c-1.75-1.24-1.53-1.73-1.6-1.83-2.83-3.71-4.47-8.01-6.72-12.11-4.46-8.08-8.99-16.12-13.45-24.21-6.26-11.36-12.31-22.99-18.89-34.11-8.68-14.66-18.09-28.76-28.17-42.18-6.13-8.17-12.57-16.89-19.53-24.21.44-1.53,1.24-5.31,1.6-6.24.27-.7.6-1.56.96-2.2.05-.09-.05-.29,0-.37.45-.74,11.34-11.25,12-11.74.33-.24.77-.33,1.12,0-1.52,7.88-4.14,15.53-4.48,23.66.47,1.06,3.14-5.94,4.8-9.72,2.13.1,4.28-.13,6.4,0-.52,2.38-1.65,7.2.96,8.07-1.11,2.42-5.55,14.46-5.12,16.32,13.78,16.88,30.76,29.96,44.02,47.5,1.9-3.36,2.48-7.2,3.36-11,.74-3.26,1.21-6.63,1.92-9.9,4.24,6.31,13.95,10.43,16.01,18.52,1.08,4.26,1.34,21.35,1.92,27.87,1.4,15.91,4.1,31.83,2.88,47.87Z"/>
      <path class="cls-10" d="M158.88,324.69l-.44-.31c-1.37-.97-1.65-1.54-1.72-1.97-1.9-2.5-3.29-5.33-4.64-8.06-.65-1.33-1.33-2.7-2.06-4.03-2.14-3.89-4.31-7.77-6.47-11.65-2.33-4.18-4.66-8.37-6.98-12.56-1.92-3.49-3.85-7.06-5.72-10.51-4.23-7.81-8.6-15.89-13.16-23.59-8.66-14.63-18.13-28.81-28.15-42.15l-1.16-1.54c-5.82-7.76-11.84-15.79-18.34-22.64l-.15-.16.06-.22c.18-.63.42-1.62.67-2.68.37-1.56.72-3.02.94-3.59.26-.68.59-1.52.94-2.17-.02-.14-.04-.31.06-.47.47-.77,11.45-11.36,12.09-11.83.51-.37,1.08-.36,1.5.02l.15.14-.04.22c-.5,2.58-1.12,5.17-1.72,7.68-1.19,4.97-2.43,10.1-2.72,15.33.68-1.03,2.02-4.22,2.95-6.45.43-1.04.85-2.03,1.22-2.88l.09-.21h.21c1,.05,2.02.03,3.01,0,1.12-.03,2.27-.06,3.4.01l.39.02-.14.64c-.51,2.33-1.46,6.68.78,7.42l.38.12-.18.4c-1.25,2.74-5.35,14.06-5.11,15.98,6.32,7.73,13.44,14.79,20.32,21.62,7.99,7.93,16.25,16.12,23.35,25.45,1.38-2.61,2-5.47,2.65-8.49.14-.66.29-1.33.44-1.99.39-1.72.71-3.51,1.02-5.23.28-1.54.56-3.12.9-4.67l.16-.74.4.6c1.65,2.45,4.11,4.54,6.71,6.76,3.97,3.38,8.08,6.87,9.35,11.89.7,2.76,1.06,10.78,1.38,17.85.18,3.98.35,7.74.56,10.09.35,3.96.78,7.99,1.21,11.89,1.27,11.78,2.59,23.97,1.68,36.05l-.05.59ZM70.62,185.3c6.48,6.84,12.46,14.82,18.25,22.54l1.16,1.54c10.03,13.36,19.52,27.57,28.19,42.22,4.57,7.71,8.94,15.8,13.17,23.61,1.87,3.45,3.8,7.02,5.72,10.5,2.31,4.2,4.64,8.38,6.97,12.56,2.16,3.88,4.33,7.76,6.47,11.65.74,1.34,1.42,2.72,2.08,4.06,1.4,2.84,2.73,5.53,4.61,8,.07.1.09.2.1.26.05.35.5.79.99,1.17.82-11.81-.47-23.74-1.72-35.29-.42-3.9-.86-7.94-1.21-11.9-.21-2.37-.38-6.13-.56-10.12-.32-7.03-.68-15-1.35-17.68-1.21-4.78-5.23-8.2-9.12-11.5-2.43-2.07-4.74-4.04-6.42-6.31-.27,1.3-.51,2.63-.74,3.92-.31,1.74-.64,3.53-1.03,5.27-.15.66-.3,1.32-.44,1.98-.67,3.1-1.37,6.3-2.96,9.13l-.23.41-.28-.37c-7.13-9.44-15.49-17.73-23.57-25.74-6.92-6.86-14.07-13.96-20.44-21.75l-.06-.07-.02-.09c-.46-1.98,3.73-13.28,4.98-16.21-2.31-1.18-1.46-5.43-.92-7.93-.98-.04-1.98-.01-2.96.01-.93.03-1.9.05-2.84.02-.34.79-.73,1.71-1.12,2.65-2.29,5.46-3.1,7.16-3.74,7.17-.16-.02-.33-.11-.42-.31l-.04-.09v-.1c.24-5.52,1.53-10.89,2.78-16.08.58-2.41,1.18-4.91,1.67-7.38-.24-.09-.48.05-.59.13-.6.44-10.88,10.34-11.86,11.56.02.14.03.29-.05.44-.34.61-.67,1.45-.93,2.14-.2.53-.58,2.11-.92,3.5-.23.95-.44,1.85-.61,2.49ZM72.55,176.78s0,0,0,0c0,0,0,0,0,0Z"/>
    </g>
    <path class="cls-27" d="M203.74,215.12c2.46,4.35,25.01,27.53,28.81,30.44-1.15-.31.54,3.53.64,4.95.43,5.9-1.06,13.94-1.76,9.35-1.57.86-6.89-5.7-10.08-8.07-5.67-9.14-14.66-14.66-19.85-24.21-.26-1.86-1.77-9.37-2.24-11.37.84-1.57,1.25-2.83,2.88-3.3.58,1.67,1.53,2.08,1.6,2.2Z"/>
    <path class="cls-27" d="M72.82,176.61c-.05.08.05.28,0,.37-1.86.06-4.16,3.26-.96,2.2-.36.92-1.17,4.7-1.6,6.24-.81-.85-1.45-.43-1.92-1.83.83-2.61,1.54-5.41,2.24-8.07l2.24,1.1Z"/>
    <path class="cls-26" d="M68.32,248.23c-.42.07-1.17.26-2.19,1.03,0-.02,0-.04,0-.07.02-.28.04-.55.09-.81,1.08-.61,1.71-.52,1.79-.6.02.04.04.07.06.1.08.12.15.23.24.35Z"/>
    <g>
      <path class="cls-11" d="M154.76,212.92c1.07.28,2.08.96,3.2,1.1,1.34.84-.54,2.18.96,2.2q1.44,15.5,2.88,30.99c.87,2.68,5.3-1.93,8.32.73l-8.32,2.57c1.51,22.68,2.07,20,17.29,25.13.03.11-.03.25,0,.37-1.2.01-3.7,5.51-3.84,6.42-.37,2.33.9,35.87,0,47.32-.81,10.36-4.23,11.3-4.16,20.36-2.13-5.01-12.14-22.8-12.48-26.04,1.22-16.05-1.48-31.97-2.88-47.87-.57-6.53-.84-23.61-1.92-27.88-2.05-8.09-11.76-12.21-16.01-18.52.51-2.35,1.07-4.64,1.6-6.97,1.04,1.27,7.38-8.16,8.64-11,2.23.37,4.53.52,6.72,1.1Z"/>
      <path class="cls-10" d="M171.42,351.73l-.62-1.46c-.78-1.84-2.69-5.52-4.71-9.41-3.55-6.86-7.58-14.63-7.8-16.74v-.04s0-.04,0-.04c.91-12.02-.4-24.17-1.68-35.92-.42-3.89-.86-7.92-1.2-11.88-.21-2.36-.38-6.11-.55-10.08-.32-7.05-.67-15.04-1.36-17.73-1.21-4.78-5.23-8.2-9.11-11.5-2.64-2.25-5.13-4.37-6.84-6.9l-.1-.14.04-.17c.32-1.46.65-2.89.99-4.33.21-.88.41-1.76.61-2.65l.15-.64.4.49c.89.39,6.67-7.63,8.12-10.92l.1-.23.23.04c.76.13,1.53.23,2.31.33,1.47.19,2.98.39,4.44.78h0c.47.12.92.32,1.36.51.61.26,1.19.51,1.81.59l.12.04c.9.57.68,1.4.57,1.84-.02.09-.06.22-.06.29.02,0,.1.02.3.02h.28s2.91,31.27,2.91,31.27c.29.82,1.06.69,2.72.18,1.68-.51,3.77-1.15,5.48.35l.51.45-8.69,2.68c1.3,19.54,1.77,19.68,12.39,23,1.37.43,2.92.91,4.65,1.5l.17.06.05.2c.03.12.02.24,0,.32l.1.45-.42.05c-.9.01-3.38,5.18-3.53,6.12-.13.85-.03,6.53.08,13.12.2,11.41.48,27.04-.08,34.17-.4,5.06-1.43,7.95-2.34,10.5-1,2.8-1.86,5.21-1.82,9.82v1.62ZM158.93,324.06c.25,2.02,4.39,10,7.72,16.42,1.63,3.14,3.19,6.15,4.15,8.17.14-3.86.97-6.19,1.85-8.65.94-2.62,1.9-5.34,2.29-10.29.56-7.09.28-22.7.08-34.09-.13-7.17-.22-12.34-.07-13.26.1-.66,2.11-5.46,3.62-6.52-1.55-.52-2.95-.95-4.2-1.34-10.87-3.4-11.52-3.6-12.88-23.96l-.02-.3,7.86-2.42c-1.34-.71-2.91-.23-4.32.2-1.54.47-2.99.91-3.5-.67l-.02-.09-2.85-30.69c-.21-.03-.41-.12-.54-.32-.19-.29-.1-.62-.02-.92.12-.46.16-.7-.21-.96-.67-.1-1.29-.36-1.89-.62-.44-.19-.85-.37-1.28-.48h0c-1.42-.38-2.92-.57-4.37-.76-.7-.09-1.41-.18-2.1-.3-1.26,2.62-6.58,10.77-8.44,11.08-.06,0-.11.01-.16.01-.17.76-.35,1.51-.53,2.26-.32,1.37-.64,2.75-.95,4.14,1.65,2.39,4.06,4.45,6.62,6.62,3.97,3.38,8.08,6.87,9.35,11.89.7,2.77,1.06,10.81,1.38,17.9.18,3.96.35,7.7.55,10.04.35,3.95.78,7.97,1.2,11.86,1.27,11.78,2.59,23.95,1.68,36.04Z"/>
    </g>
    <g>
      <g>
        <path class="cls-3" d="M179.09,276.01c2.92,12.99,4.35,26.32,5.76,39.61-.2,1.47,1.31,23.73.64,29.71-2.86,8.14-5.86,16.27-9.12,24.21-.84-7.84-2.33-12.5-5.28-19.44-.07-9.06,3.35-10,4.16-20.36.9-11.45-.37-44.99,0-47.32.14-.91,2.64-6.4,3.84-6.42Z"/>
        <path class="cls-10" d="M176.37,369.92s-.03,0-.05,0c-.14-.03-.25-.16-.27-.32-.85-7.93-2.37-12.55-5.25-19.32-.02-.05-.03-.1-.03-.16-.04-4.76.89-7.36,1.87-10.11.94-2.62,1.9-5.34,2.29-10.29.56-7.09.28-22.7.08-34.09-.13-7.17-.22-12.34-.07-13.26.12-.74,2.63-6.7,4.15-6.72h0c.15,0,.27.11.31.28,2.96,13.16,4.39,26.63,5.77,39.66,0,.03,0,.07,0,.1-.06.47.08,3.69.25,7.42.33,7.31.83,18.35.39,22.29,0,.03-.01.06-.02.09-3.33,9.46-6.23,17.16-9.13,24.23-.05.13-.17.21-.29.21ZM171.41,350.02c2.74,6.45,4.26,10.97,5.14,18.23,2.74-6.73,5.5-14.09,8.63-23.01.42-3.92-.07-14.86-.4-22.11-.2-4.47-.31-6.89-.25-7.51-1.36-12.87-2.78-26.18-5.67-39.16-1.03.69-3.16,5.17-3.3,6.03-.13.85-.03,6.53.08,13.12.2,11.41.48,27.04-.08,34.17-.4,5.06-1.43,7.95-2.34,10.5-.99,2.78-1.85,5.18-1.82,9.74Z"/>
      </g>
      <g>
        <path class="cls-3" d="M177.49,219.16c0,.12,0,.25,0,.37-.76,10.13-4.62,15.37-5.44,18.52-.73,2.81-.22,6.68-1.6,9.35,2.95,9.38,6.43,18.58,8.64,28.24-15.22-5.12-15.78-2.45-17.29-25.13l8.32-2.57c-3.02-2.66-7.45,1.94-8.32-.73q-1.44-15.5-2.88-30.99c-.36-3.2,3.2-1.9,5.76-3.3.68.92,2.85-.12,4.16-.37,1.02-.19,2.9-.95,3.68-.73q2.48,3.67,4.96,7.34Z"/>
        <path class="cls-10" d="M179.09,276.01s-.06,0-.09-.02c-1.73-.58-3.27-1.06-4.64-1.49-10.87-3.4-11.52-3.6-12.88-23.96-.01-.18.09-.34.24-.38l7.6-2.35c-1.34-.71-2.91-.23-4.32.2-1.54.47-2.99.91-3.5-.67,0-.03-.02-.06-.02-.09l-2.88-30.99c-.08-.74.02-1.32.32-1.76.55-.81,1.59-.97,2.8-1.14.91-.13,1.95-.29,2.82-.76.13-.07.29-.03.38.09.37.5,1.64.13,2.66-.17.43-.13.84-.25,1.21-.32.32-.06.74-.18,1.19-.31.99-.29,2.02-.58,2.62-.42.07.02.13.07.18.13l4.96,7.34c.05.07.07.16.07.25,0,.05,0,.09,0,.14,0,.08,0,.16,0,.24-.55,7.32-2.73,12.18-4.18,15.4-.59,1.3-1.05,2.33-1.27,3.19-.28,1.09-.37,2.34-.47,3.66-.14,1.95-.29,3.97-1.09,5.62.85,2.69,1.75,5.4,2.63,8.03,2.16,6.5,4.4,13.22,5.97,20.08.03.13,0,.26-.09.36-.06.07-.14.1-.22.1ZM162.15,250.8c1.3,19.54,1.77,19.68,12.39,23,1.22.38,2.59.81,4.1,1.31-1.55-6.6-3.72-13.1-5.81-19.38-.82-2.46-1.67-5-2.47-7.53-.04.05-.09.08-.15.1l-8.07,2.49ZM162.12,247.13c.29.82,1.06.69,2.72.18,1.62-.5,3.62-1.11,5.3.2-.03-.1-.02-.21.03-.3.79-1.53.93-3.53,1.07-5.46.1-1.36.19-2.65.49-3.81.24-.93.72-1.98,1.32-3.32,1.42-3.17,3.58-7.95,4.11-15.13,0-.05,0-.1,0-.15v-.06s-4.82-7.12-4.82-7.12c-.49-.07-1.44.21-2.21.44-.46.13-.89.26-1.24.32-.33.06-.73.18-1.15.3-1.2.35-2.44.72-3.12.14-.91.45-1.92.59-2.82.73-1.07.16-1.99.29-2.38.86-.19.28-.25.68-.19,1.23l2.88,30.95Z"/>
      </g>
    </g>
    <path class="cls-11" d="M148.04,211.82c-1.26,2.85-7.61,12.27-8.64,11,.63-2.76.97-5.78,1.28-8.62.67-1.47,2.86-2.26,3.52-3.12,1.28.27,2.55.52,3.84.73Z"/>
    <g>
      <path class="cls-16" d="M154.76,212.92c-2.19-.58-4.49-.73-6.72-1.1-1.29-.22-2.56-.46-3.84-.73,1.61-2.1,3.28-5.88,4.32-5.87l6.24,7.7Z"/>
      <path class="cls-10" d="M155.71,213.55l-1.02-.27c-1.42-.38-2.92-.57-4.37-.76-.78-.1-1.56-.2-2.33-.33-1.29-.22-2.55-.46-3.85-.74l-.55-.12.37-.48c.58-.75,1.17-1.73,1.74-2.68,1.23-2.05,2.03-3.31,2.82-3.31h.15s7.05,8.7,7.05,8.7ZM144.8,210.84c1.1.23,2.19.43,3.29.62.76.13,1.53.23,2.31.33,1.14.15,2.31.3,3.45.54l-5.44-6.72c-.52.21-1.43,1.73-2.18,2.97-.47.77-.94,1.57-1.43,2.26Z"/>
    </g>
    <g>
      <path class="cls-16" d="M157.98,214.03c-1.12-.14-2.14-.81-3.2-1.1q-3.12-3.85-6.24-7.7c-1.05-.01-2.71,3.77-4.32,5.87-.66.85-2.86,1.64-3.52,3.12-.31,2.84-.65,5.85-1.28,8.62-.53,2.33-1.09,4.62-1.6,6.97-.44,2.05-.79,4.13-1.17,6.2-.14.76-.28,1.5-.44,2.24-.1.49-.2.98-.31,1.46-.03.12-.06.24-.08.36-.36,1.57-.67,3.14-1.06,4.68-.51,2.08-1.16,4.09-2.22,5.96-12.66-16.74-30.74-27.58-44.34-43.23-.64-.85-1.28-1.71-1.93-2.57-5.06-6.72-10.36-13.57-15.99-19.49.44-1.53,1.25-5.31,1.6-6.24.27-.7.6-1.56.96-2.2.05-.09-.04-.29,0-.37.45-.74,11.34-11.25,12-11.74.33-.24.77-.33,1.12,0-1.52,7.87-4.13,15.53-4.48,23.66.47,1.06,3.15-5.94,4.8-9.72,2.13.1,4.28-.13,6.4,0h0c.74.04,1.5-.09,2.23,0,.2.02.28.26.96.37-.07.16-.12.28-.16.37h0c.04-.1.09-.21.16-.37,1.49.24,2.98.61,4.48.73,1.34,1.27,1.34,2.74,1.92,4.4.76,2.17,1.17,5.64,2.56,7.34,1.57-2.71,3.18-5.41,4.8-8.07,1.23-2.14,7,1.31,9.92,2.57q.88,3.48,1.76,6.97,1.6-2.38,3.2-4.77c2.77,1.06,5.49,2.31,8.16,3.67,2.38,1.21,6.35,3.61,8.64,5.14,3.96,2.65,7.79,5.62,11.2,9.17,2.23,2.33,7,7.6,5.44,7.7Z"/>
      <path class="cls-10" d="M132.56,251.31l-.28-.37c-6.94-9.18-15.66-16.71-24.1-23.99-6.92-5.98-14.08-12.16-20.22-19.21l-1.94-2.59c-4.7-6.24-10.2-13.4-15.97-19.46l-.15-.16.06-.22c.18-.63.42-1.65.68-2.72.37-1.54.72-2.99.93-3.55.27-.69.59-1.52.94-2.17-.02-.14-.04-.3.04-.44.5-.82,11.47-11.39,12.1-11.85.51-.37,1.08-.36,1.49.03l.15.14-.04.22c-.5,2.57-1.12,5.16-1.72,7.66-1.19,4.97-2.43,10.11-2.73,15.35.68-1.04,2.04-4.28,2.99-6.53.42-1,.82-1.97,1.18-2.78l.09-.21h.21c1,.05,2.02.03,3.01,0,1.11-.03,2.26-.06,3.39.01.32.02.63,0,.97-.01.42-.02.86-.04,1.29.01.14.02.24.08.33.14.12.08.27.17.65.23h0l.23.04.2.03h0c.36.07.71.13,1.07.2.97.18,1.97.38,2.95.46h.1s.08.08.08.08c1.05.99,1.33,2.08,1.63,3.24.11.42.22.86.38,1.31.25.72.46,1.55.68,2.44.41,1.63.83,3.31,1.55,4.42,1.48-2.55,3.02-5.13,4.57-7.67,1.13-1.98,5.15-.03,8.37,1.53.71.35,1.37.67,1.93.91l.15.07.04.18c.81,3.24.87,3.47,1.58,6.27l2.96-4.4.22.08c2.63,1.01,5.31,2.21,8.19,3.68,2.38,1.21,6.41,3.65,8.67,5.15,4.52,3.02,8.2,6.03,11.26,9.22,2.85,2.97,6.18,6.75,5.82,7.91-.05.15-.18.41-.58.44h-.03s-.03,0-.03,0c-.7-.09-1.35-.36-1.97-.63-.44-.19-.85-.36-1.27-.48l-.1-.03-.07-.08c-3.09-3.8-3.12-3.85-6.13-7.56-.52.21-1.43,1.73-2.18,2.97-.58.97-1.18,1.97-1.78,2.75-.29.38-.79.7-1.36,1.08-.8.53-1.71,1.13-2.09,1.91-.32,2.99-.67,5.89-1.28,8.6-.2.87-.4,1.73-.6,2.59-.34,1.45-.68,2.9-1,4.38-.34,1.57-.63,3.18-.91,4.75l-.26,1.44c-.14.76-.28,1.51-.44,2.25-.1.49-.21.98-.32,1.47l-.08.36c-.13.55-.24,1.09-.36,1.64-.22,1.01-.45,2.04-.7,3.06-.63,2.54-1.32,4.41-2.25,6.05l-.23.41ZM70.63,185.3c5.74,6.05,11.2,13.16,15.87,19.36l1.93,2.57c6.09,7,13.23,13.17,20.14,19.13,8.35,7.21,16.98,14.66,23.92,23.73.78-1.48,1.39-3.18,1.95-5.44.25-1,.48-2.03.7-3.03.12-.55.24-1.09.36-1.64l.08-.36c.11-.48.22-.96.31-1.45.15-.74.29-1.49.43-2.24l.26-1.43c.28-1.57.57-3.2.92-4.78.32-1.48.66-2.93,1-4.39.2-.86.4-1.72.6-2.58.61-2.69.95-5.59,1.27-8.57l.03-.12c.45-1,1.47-1.67,2.36-2.26.51-.33.98-.65,1.2-.93.58-.75,1.17-1.73,1.74-2.68,1.23-2.05,2.03-3.31,2.82-3.31h.15s.09.12.09.12c3.1,3.82,3.12,3.85,6.18,7.62.43.12.84.3,1.25.48.58.25,1.17.5,1.77.58-.08-.67-2.03-3.3-5.64-7.06-3.03-3.15-6.67-6.13-11.15-9.13-2.25-1.5-6.25-3.91-8.61-5.12-2.79-1.42-5.38-2.59-7.92-3.57l-3.45,5.13-.18-.69c-.87-3.43-.88-3.48-1.72-6.79-.53-.23-1.14-.53-1.8-.85-2.69-1.3-6.74-3.27-7.59-1.79-1.64,2.68-3.25,5.39-4.8,8.07l-.22.38-.28-.34c-1-1.21-1.49-3.18-1.97-5.08-.22-.87-.42-1.68-.66-2.37-.17-.48-.29-.93-.4-1.37-.28-1.06-.52-1.98-1.35-2.81-.98-.09-1.96-.28-2.91-.46-.42-.08-.84-.16-1.26-.23-.02.05-.04.09-.05.13l-.09.21h-.71l.19-.48c-.22-.07-.35-.15-.44-.22-.03-.02-.07-.05-.08-.05-.38-.05-.78-.03-1.2,0-.34.02-.68.03-1.02.01-1.11-.07-2.25-.04-3.35,0-.93.03-1.89.05-2.84.02-.33.77-.7,1.65-1.08,2.56-2.32,5.53-3.14,7.25-3.78,7.26h0c-.18,0-.33-.11-.41-.31l-.04-.09v-.1c.24-5.52,1.53-10.9,2.78-16.09.58-2.41,1.18-4.9,1.66-7.37-.24-.09-.48.05-.59.13-.54.39-10.87,10.35-11.86,11.56.02.14.03.29-.05.44-.34.61-.67,1.45-.93,2.14-.2.52-.56,2.01-.9,3.46-.23.96-.45,1.88-.63,2.53ZM72.55,176.78s0,0,0,0c0,0,0,0,0,0Z"/>
    </g>
    <g>
      <path class="cls-23" d="M204.7,76.47c.97.33,2.22.4,2.88,1.47-1.74.35-3.34,1.07-4.96,1.83-.82.81-.37,1.7-.48,1.83-1.46,1.79-2.97,3.99-4.64,5.5-2.43,2.2-18.03,12.08-21.29,13.57-.63.29-4.41,1.05-4.48,1.65,6.92,9.88,14.69,13.75,25.45,15.59,3.42.58,15.16,1.89,12,.37l2.4,1.47c6.25.38,13.49.81,19.53,2.57.24.07.16.49.16.73-5.98-.5-11.93-1.09-17.93-.73-3.6.21-7.13.47-10.56,1.83-8.64,3.42-16.82,14.82-18.25,25.13-2.91,21.07,11.61,32.18,16.33,45.85,1.2,3.48,4.47,16.47,2.56,17.79-.65-3.34-1.8-7.55-3.68-10.27q1.2,5.14,2.4,10.27c-1.63.47-2.04,1.73-2.88,3.3-.24-1.01-.7-3.65-.96-4.22-2.41-5.26.44,4.2-.96,10.45l-2.56-8.8c6.49-8.39-9.68-29.1-14.08-38.33-.96-5.14-4.45-9.94-5.12-14.67-.32.45-1.89-3.05-1.92-3.3-.92-7.27,3.76-18.49-4-13.02-.9-.21,1.06-3.09.16-5.32-1.24-3.09-7.42,1.59-7.84,1.65-1.04.14.64-1.53-1.44-1.1.32-1.24,2.9-1.81,2.88-2.75-.05-3.03-9.46,4.39-3.52-2.2.22-1.2-1.43-1.4,0-2.57l-3.68-.92c3.11-2.99.4-1.39-3.68-1.83-.94-.1-1.93-.25-2.88-.37-3.47-.41-7.03-.5-10.24-2.2-.5-.59.01-.7,0-.73,10.47-3.72,20.78-8.11,31.05-12.47,4.12-1.75,8.86-1.49-.8-8.07-.34-.23-4.48-2.48-7.04-4.03-.25-.15-1.19.15-1.44,0-1.29-.78-2.17-1.95-3.84-2.93-4.61-6.06-17.28-9.5-24.17-14.67,4.53.55,24.52,13.29,25.93,13.57,2.81.57,7.01-.58,9.92-.37-1.2-1.41-4.3-.5-4.64-2.57,3.79-.2,8.77-4.33,12.8-4.95l-2.4-.18c1.56-.32-4.72-3.49-5.44-3.3-.59.77-3.47,3.2-3.68,3.3-2.72,1.32-3.99.85-6.72-.37-7.67-6.8-2.51-19.66,6.72-16.87v.37c-5.56-.72-12.11,6.3-8.96,12.65,5.44,11,20.57-3.24,9.92-12.29-.45-.38-.28-.35-.96-.73-8.09-4.58-12.05,6.82-12.16,8.44-4-2.18-14.48-1.39-13.76-7.34,3.62-2.73,10.47-2.19,15.53-3.67,3.31-.97,9.09-4.59,12.32-5.14.19-.03.69-.59,2.08-.37,4.29.2,17.59,7.35,22.73,9.17,4.02,1.43,8.27,1.92,12.32,3.3Z"/>
      <path class="cls-28" d="M113.47,59.6c-1.55,1.53,4.19,7.71,7.68,5.87,1.63.15.05.78.96,3.12q-1.92,1.65-3.84,3.3c3.68,2.02,9.06,1.84,13.28,1.65,2.57-.12,5.95-1.82,8.16-.37-.71,5.95,9.76,5.15,13.76,7.34-.18,2.49,1.19,5.42,2.88,6.97-1.26,1.25-3.61-.74-3.84.55-.14.76,5.45,6.76,11.84,6.42.34,2.07,3.44,1.16,4.64,2.57-2.92-.21-7.11.94-9.92.37-1.41-.28-21.4-13.02-25.93-13.57,6.88,5.17,19.56,8.61,24.17,14.67-5.88-3.46-13.49-7.74-19.53-10.64-3.51-1.68-6.93-3.63-10.72-4.4.6.73-4.01,5.33-4.32,5.5-.7.39-6.73-.93-8.48-.37-3.19.89-6.51.98-9.76,1.47-1.89.29-4.5-.26-6.72.73l-.32-.37c3.11-2.08-3.97-2.76-5.44-2.2v-.37c.13-.04,1.03-1.23,2.4-1.47,1.44-.25,7.85.55,8.48-.55.41-4.79,2.66-3.34-3.52-7.7-.02-.64,9.43-1.37-3.52-4.03,3.89-.58,6.56-4.37,8.16-2.38l.48-.55c-1.76-1.31,1.25-2.73,1.28-2.93.14-.87-2.67-.64,0-3.85,1.58-1.91,5.6-3.46,7.68-4.77Z"/>
      <path class="cls-23" d="M105.15,104.35c-2.15.62-16.87,10.78-16.97,11.92-.12,1.39,5.51.87,7.2,1.28.27.07.44.72.48.73-5.73,3.34-7.98,8.71-10.88,14.86q6.24-1.47,12.48-2.93-11.28,5.41-22.57,10.82c-2.12,3.44-3.64,7.31-5.92,10.64-3.26,4.75-7.55,8.74-10.4,13.94.92-6.8,5.03-12.68,8.48-18.16l-.48-.55-7.52,6.6c-.53-.11-1.96.23-2.24-.18-.45-.66,7.18-12.74,8-13.94,2.18-3.17,10.15-11.65,9.12-12.29-10.65,11.32-11.34,6.59-.48-1.47,2.11.24.3.75,1.12,1.47.8.71,14.19-13.35,15.69-14.67,3.15-2.78,7.79-5.33,11.04-8.44,1.31-.16,2.56.21,3.84.37Z"/>
      <path class="cls-23" d="M105.79,64.37c-2.67,3.21.14,2.98,0,3.85-.03.21-3.04,1.63-1.28,2.93l-.48.55c-1.6-1.99-4.28,1.81-8.16,2.38,12.95,2.67,3.51,3.39,3.52,4.03,6.18,4.37,3.93,2.92,3.52,7.7-.63,1.1-7.04.3-8.48.55-1.37.24-2.27,1.43-2.4,1.47-14.13,3.88-18.34,6.86-1.92-5.32-3.96,1.96-8.41,4.17-12.64,6.05,7.04-10.35,17.97-17.98,28.33-24.21Z"/>
      <path class="cls-23" d="M97.47,90.41c-.27.18-2.2.65-3.36,1.47-2.97,2.11-7.15,6.55-10.72,9.17-4.92,3.61-10.32,6.55-15.21,10.27.56-5.19,21.73-22.31,23.85-23.11,1.47-.56,8.55.12,5.44,2.2Z"/>
      <g>
        <path class="cls-2" d="M205.98,70.24c-4.39-3.18-10.85-9.39-16.17-9.54-5.66-.16.15,2.4,1.6,3.67,1.98,1.73,4.59,4.96,6.72,6.6,2.64,2.04,7.78,2.8,6.56,5.5-4.06-1.38-8.3-1.87-12.32-3.3-5.14-1.82-18.44-8.97-22.73-9.17-1.39-.22-1.89.34-2.08.37,0-.24.09-.63-.16-.73-1.12-.45-20.27-1.89-23.69-1.83-5.4.08-18.34,1.06-22.57,3.67-3.49,1.84-9.23-4.34-7.68-5.87,12.52-7.88,24.3-13.49,38.89-13.94,18.48-.57,41.4,8.04,53.62,24.58Z"/>
        <path class="cls-24" d="M205.98,70.24c1.65,2.23,3.33,3.91,3.84,6.97-.12,0-.06.3-2.24.73-.67-1.06-1.91-1.14-2.88-1.47,1.22-2.71-3.92-3.46-6.56-5.5-2.13-1.64-4.75-4.87-6.72-6.6-1.45-1.27-7.26-3.83-1.6-3.67,5.31.15,11.78,6.36,16.17,9.54Z"/>
      </g>
      <path class="cls-28" d="M160.53,139.56c-.09.35.25,2.71-.64,6.97-.21,1.02-.71,3.37-.96,4.03-.08.2-2.26,2.49-1.6,3.85-6.55,5.54-8.88,15.21-12.16,23.29-.41,1.02-.79,2.79-1.28,3.67-1.17,2.07-3.41,4.39-5.44,2.93,4.31-4.61,5.14-11.24,7.36-17.06,3.18-8.31,6.25-12.22,6.72-22.01.57-11.73.39-11.7-5.12-5.14-1.9,5.74-15.38,25-14.4,29.71,1.69,1.21,2.29,7.03,2.24,9.35-.09,4.4-2.09,8.52-2.56,12.84-2.67-1.36-5.39-2.61-8.16-3.67q-1.6,2.38-3.2,4.77-.88-3.48-1.76-6.97s.63.12.64-.18c.22-9.39,4.87-23.01.96-23.29.27-1.35.31-11.33,3.68-17.61,9.69-3.38,20.55-7.4,27.69-15.77,4.08.44,6.79-1.15,3.68,1.83l3.68.92c-1.43,1.17.22,1.37,0,2.57-5.94,6.59,3.47-.83,3.52,2.2.02.94-2.56,1.52-2.88,2.75Z"/>
      <path class="cls-23" d="M194.78,213.66c-.52-.26-.28-.46-.96-.37-2.48.36-1.69.66-1.92,1.47-.55,1.97,2.17,5.9-.96,4.59l.48,3.12c-2.76-4.01-6.3-10.14-9.44-13.57,2.26-8.43,2.19-10.17-.32-17.79-1.58-4.81-8.29-21.31-11.36-24.03-5.97-5.28-1.9,3.02-4,.18-.46-.62-1.88-5.55-6.4-14.49,3.11-2.69,3.14-3.32,0-6.24.89-4.26.55-6.62.64-6.97,2.09-.43.4,1.24,1.44,1.1.43-.06,6.6-4.74,7.84-1.65.9,2.23-1.06,5.1-.16,5.32,7.77-5.46,3.08,5.75,4,13.02.03.25,1.6,3.75,1.92,3.3.67,4.73,4.16,9.53,5.12,14.67,4.41,9.23,20.57,29.94,14.08,38.33Z"/>
      <path class="cls-28" d="M167.57,64.37c-3.24.55-9.01,4.17-12.32,5.14-5.06,1.47-11.9.94-15.53,3.67-2.22-1.46-5.59.25-8.16.37-4.23.19-9.6.37-13.28-1.65q1.92-1.65,3.84-3.3c-.91-2.34.67-2.97-.96-3.12,4.23-2.61,17.17-3.58,22.57-3.67,3.42-.05,22.57,1.38,23.69,1.83.25.1.16.49.16.73Z"/>
      <path class="cls-28" d="M158.61,107.65c.53.26,1.09.48,1.6.73,3.42,1.71,6.65,3.88,10.24,5.14-10.27,4.36-20.58,8.75-31.05,12.47-1.06-3.12,1.11-1.53,1.28-4.22-7.45,1.07-15.08,2.62-22.41,4.95-2.4-1.18-8.51-.94-4.64-2.2.69-.22,3.27-.14,4.16-.37,6.29-1.6,19.36-6.24,24.33-6.97,4.15-.61,12.32.8,11.68-1.47,4.77.23,9.46-.81,14.08-2.02-.35-2.15-17.8-8.88-20.33-10.45-.76.51-2.04,1.29-2.4,0-3.99-3.92-9.82-4.39-14.4-7.34,2.48.91,6.09,1.28,6.56,1.47.82.32.96,1.34,1.28,1.47.27.11,3.63.52,5.12,2.2.68-.75,2.2.94,2.56,1.1.37.16.61-.38.64-.37.11.05.09.71.96,1.1.36.16.61-.38.64-.37.34.15,4.08,2.55,6.4,3.67.23.11.81.06,3.68,1.47Z"/>
      <path class="cls-22" d="M157.33,98.48c1.67.98,2.55,2.15,3.84,2.93-.53,3.87,4,6.57-.96,6.97-.51-.25-1.07-.48-1.6-.73.34-1.19.11-2.02-.8-2.93-.76-.77-15.22-10.78-16.97-12.47-.61-.59-2.46-3.35-3.04-4.4,6.04,2.89,13.64,7.18,19.53,10.64Z"/>
      <path class="cls-22" d="M170.45,113.52c-3.59-1.25-6.82-3.43-10.24-5.14,4.96-.4.43-3.1.96-6.97.25.15,1.19-.15,1.44,0,2.56,1.55,6.7,3.8,7.04,4.03,9.66,6.58,4.92,6.32.8,8.07Z"/>
      <path class="cls-22" d="M164.37,94.45c-6.39.34-11.98-5.66-11.84-6.42.23-1.29,2.58.7,3.84-.55.46.42,1.89,1.17,2.56,1.47,2.83,2.51,6.48,4.23,6.72.37.22-.1,3.09-2.53,3.68-3.3.73-.19,7,2.98,5.44,3.3l2.4.18c-4.04.62-9.01,4.75-12.8,4.95Z"/>
      <path class="cls-28" d="M149.64,128.93c.06,1.36-1.16.77-2.24.73-4.98-.15-8.96,2.61-13.6,4.4-.38.15-.6-.38-.64-.37-.27.11-.05.63-.32.73-.38.15-.6-.38-.64-.37-.27.1-.05.63-.32.73-.39.15-.6-.38-.64-.37-.1.04-.78,1.09-1.76,1.47-.92.35-8.72,2.79-5.6.73.17-.11,2.56.05,3.84-.73,1.71-1.04,7.55-7.5,11.68-9.17,3.21,1.7,6.78,1.79,10.24,2.2Z"/>
      <path class="cls-20" d="M203.42,212.92c.06.29.5.77.32,2.2-.07-.12-1.02-.53-1.6-2.2q-1.2-5.14-2.4-10.27c1.88,2.72,3.03,6.93,3.68,10.27Z"/>
      <path class="cls-7" d="M165.65,89.31c-.24,3.87-3.9,2.14-6.72-.37,2.74,1.22,4,1.69,6.72.37Z"/>
      <path class="cls-22" d="M137.8,87.84c.58,1.05,2.43,3.81,3.04,4.4,1.74,1.69,16.2,11.71,16.97,12.47.91.91,1.14,1.74.8,2.93-2.87-1.41-3.45-1.36-3.68-1.47-2.32-1.11-6.07-3.52-6.4-3.67-.03-.02-.28.53-.64.37-.87-.39-.85-1.05-.96-1.1-.03-.01-.27.53-.64.37-.36-.16-1.88-1.85-2.56-1.1-1.49-1.68-4.85-2.09-5.12-2.2-.32-.13-.46-1.15-1.28-1.47-.47-.19-4.08-.56-6.56-1.47-.1-.07-1.28-1.92-1.92-.73-.96-.34-.91-.71-.96-.73q-2.56-2.75-5.12-5.5c.31-.17,4.93-4.78,4.32-5.5,3.8.77,7.21,2.72,10.72,4.4Z"/>
      <g>
        <path class="cls-28" d="M122.75,88.94q2.56,2.75,5.12,5.5c-15.1-5.35-11.54-6.72-19.21,1.1-2.56,2.61-4.79,5.98-7.36,8.44-3.26,3.11-7.9,5.66-11.04,8.44-1.49,1.32-14.88,15.38-15.69,14.67-.82-.72.99-1.23-1.12-1.47-2.35-.27-9.29,5.42-12.32,6.24,2.65-11.27,12.88-19.6,20.17-27.51,1.36-1.48,2.73-2.74,2.08-3.3,3.57-2.62,7.75-7.06,10.72-9.17,1.16-.82,3.09-1.29,3.36-1.47l.32.37c-.78.35-1.72,1.63-2.56,2.02-.18.63,11.51-1.44,9.28-2.75,3.26-.49,6.57-.57,9.76-1.47,1.76-.56,7.78.76,8.48.37Z"/>
        <path class="cls-23" d="M104.51,90.04c2.23,1.31-9.46,3.39-9.28,2.75.84-.38,1.78-1.67,2.56-2.02,2.23-.99,4.83-.45,6.72-.73Z"/>
      </g>
      <path class="cls-23" d="M97.47,118.29c1.68,1.03,13.33,4.91,13.44,6.05-.72,1.45-4.79,1.82-7.84,3.85-1.05.7-6.23,5.4-4.8,6.97.34.37,5.74.1,6.56,0,.7,1.4-5.03,3.89-7.36,6.05,4.61,2.24,5.67-1.75,8.64-.55-.14.17-.8.55-.96.73-.6.67-1.69,1.04-2.24,2.02q3.36,2.2,6.72,4.4-6.24,4.22-12.48,8.44c-3.98,7.35-7.52,14.89-10.88,22.56-1.66,3.78-4.34,10.78-4.8,9.72.35-8.13,2.97-15.78,4.48-23.66,1.59-3.79,9.57-6.98,7.84-9.9-7.9,10.16-16.62,11.87-4.32-1.28,1.6-5.35,8.14-11.51,5.28-10.82-1.45.35-19.46,19.95-22.25,22.56.13,1.38-.21,1.22-.32,1.65-2.74,3.79-6.52,12.48-9.6,13.02-6.41,11.88-8.85,18.92-5.12,2.57,3.02-13.26,11.83-28.46,12.16-30.08.12-.61.04-1.06-.64-.92,2.28-3.33,3.8-7.19,5.92-10.64q11.28-5.41,22.57-10.82-6.24,1.47-12.48,2.93c2.91-6.15,5.15-11.52,10.88-14.86.33.12,1.08-.08,1.6,0Z"/>
      <path class="cls-22" d="M145.16,103.25c.36,1.29,1.64.51,2.4,0,2.53,1.57,19.98,8.31,20.33,10.45-4.63,1.2-9.32,2.25-14.08,2.02-2.02.08-3.85-1.04-5.76-1.47-6.87-1.54-13.52-4.37-20.33-6.24-7.5-1.56-14.98-2.76-22.57-3.67-1.28-.15-2.53-.52-3.84-.37,2.58-2.46,4.8-5.82,7.36-8.44.05.37-.15,1.32.16,1.47,1.7.83,28.22,1.15,36.33,6.24Z"/>
      <path class="cls-22" d="M127.88,94.45c.06.02,0,.39.96.73.64.23,1.28.5,1.92.73,4.59,2.94,10.41,3.42,14.4,7.34-8.11-5.08-34.63-5.41-36.33-6.24-.31-.15-.11-1.1-.16-1.47,7.66-7.82,4.11-6.45,19.21-1.1Z"/>
      <path class="cls-28" d="M148.04,114.25c-3.82.2-8.68-2.35-12.64-2.93-4.86-.72-10.3-.02-15.05-.73-2.72-.41-4.1-1.42-4.32-1.47-6.26-1.41-9.22-3.26-8,.37-4.35,1.62-8.76,3.86-11.52,8.25,1.09.21.91.52.96.55-.52-.08-1.27.12-1.6,0-.04-.01-.21-.67-.48-.73-1.69-.41-7.32.11-7.2-1.28.1-1.14,14.81-11.3,16.97-11.92,7.58.91,15.07,2.11,22.57,3.67,6.8,1.86,13.45,4.7,20.33,6.24Z"/>
      <g>
        <path class="cls-23" d="M195.1,108.38c10.19-.19,20.4.67,30.41,2.93.97.28,1.94.47,2.88.73,3.15.8,6.48,1.95,9.6,2.93.04.03-.13.54.96.37,4.19,1.37,8.31,2.96,12.48,4.4.63.93,1.71.84,2.56,1.1.1.04.43.4,1.92,1.1,4.63,2.17,9.45,4.19,13.44,7.7.26,1.15.26,2.44.96,2.57-.8,1.81-2.74-2.61-4.32-3.67-3.17-2.11-29.12-5.04-34.73-5.5,0-.25.08-.66-.16-.73-6.04-1.75-13.28-2.19-19.53-2.57l-2.4-1.47c-3.09-2.38-17.96-6.05-19.05-7.34-1.31-1.55,2.51-.22,6.24-.92-1.73-.93-11.3.06-6.56-2.02,1.36.63,3.67.4,5.28.37Z"/>
        <path class="cls-19" d="M243.43,92.24c.88,3.67,6.85,6.98,7.84,14.67-10.17-7.61-20.95-14.29-32.81-17.61-4.02-1.83-13.43-2.75-16.01-6.6-.03-.05.05-.55-.32-1.1.11-.13-.34-1.02.48-1.83,1.62-.76,3.22-1.49,4.96-1.83,2.18-.43,2.12-.73,2.24-.73,3.29-.02,21.21,7.45,25.13,9.54,2.96,1.57,5.68,3.61,8.48,5.5Z"/>
        <path class="cls-14" d="M243.43,92.24c6.92,4.67,12.86,9.27,17.93,16.69,3.97,5.81,10.16,20.59,8.96,23.29-.7-.13-.7-1.42-.96-2.57-2.04-9.16-1.58-5.16-2.4-5.14-.48.02-3.02-3.67-7.68-6.6-6.31-3.97-14.33-6.1-21.29-8.07l-2.08-4.4c21.8,6.94,7.96-2.94-1.92-8.44-5.06-2.81-10.81-4.18-15.53-7.7,11.86,3.32,22.64,9.99,32.81,17.61-1-7.69-6.96-11-7.84-14.67Z"/>
        <path class="cls-2" d="M202.46,82.71c-1.48,7.88,5.34,10.48-.48,15.77-2.17,1.97-5.69,2.15-5.6,3.3-6.52.09-13.01-1.57-19.53-.37-.29-.57-.63-.24-.64-.73,3.26-1.49,18.86-11.37,21.29-13.57,1.67-1.52,3.18-3.71,4.64-5.5.37.55.29,1.05.32,1.1Z"/>
        <path class="cls-28" d="M196.38,101.78c14.02,1.8,27.89,4.17,41.61,8.07,6.95,1.97,14.97,4.1,21.29,8.07,4.67,2.93,7.2,6.62,7.68,6.6.82-.03.37-4.03,2.4,5.14-3.99-3.52-8.81-5.53-13.44-7.7.23-.99-1-.82-1.92-1.1-.13-.06-1.07-1.13-2.56-1.1-4.17-1.44-8.29-3.03-12.48-4.4-.05-.02-.15-.11-.96-.37-3.03-1.79-6.38-2.02-9.6-2.93-.93-.24-1.8-1.07-2.88-.73-8.87-2.52-17.67-6.01-26.89-6.24-4.85-.69-17.77-1.34-20.97-2.57-1.87-.72-.76-1.01-.8-1.1,6.51-1.2,13.01.46,19.53.37Z"/>
        <g>
          <path class="cls-5" d="M176.21,100.68c0,.49.35.16.64.73.04.09-1.07.38.8,1.1,3.2,1.23,16.12,1.87,20.97,2.57.01,4.68-2.97,1.22-3.52,3.3-1.61.03-3.93.26-5.28-.37-4.74,2.08,4.84,1.08,6.56,2.02-3.73.7-7.55-.63-6.24.92,1.08,1.28,15.95,4.95,19.05,7.34,3.16,1.52-8.59.22-12-.37-10.76-1.84-18.53-5.71-25.45-15.59.07-.6,3.85-1.36,4.48-1.65Z"/>
          <path class="cls-9" d="M225.51,111.32c-10.01-2.27-20.22-3.12-30.41-2.93.56-2.08,3.54,1.38,3.52-3.3,9.22.23,18.02,3.72,26.89,6.24Z"/>
        </g>
        <path class="cls-9" d="M237.99,114.99c-3.12-.99-6.46-2.14-9.6-2.93,3.22.91,6.57,1.14,9.6,2.93Z"/>
        <path class="cls-9" d="M228.39,112.05c-.94-.27-1.91-.46-2.88-.73,1.08-.33,1.95.5,2.88.73Z"/>
        <path class="cls-17" d="M254,120.86c-.85-.26-1.93-.17-2.56-1.1,1.49-.03,2.43,1.04,2.56,1.1Z"/>
        <path class="cls-17" d="M255.92,121.96c-1.49-.7-1.82-1.06-1.92-1.1.92.28,2.15.11,1.92,1.1Z"/>
        <path class="cls-9" d="M238.95,115.35c-1.09.17-.92-.34-.96-.37.81.26.91.35.96.37Z"/>
        <path class="cls-5" d="M218.47,89.31c4.71,3.52,10.47,4.89,15.53,7.7,9.88,5.5,23.72,15.38,1.92,8.44l2.08,4.4c-13.72-3.9-27.6-6.27-41.61-8.07-.09-1.15,3.43-1.33,5.6-3.3,5.82-5.29-1-7.89.48-15.77,2.58,3.85,11.98,4.78,16.01,6.6Z"/>
      </g>
      <path class="cls-28" d="M159.89,152.77c4.52,8.94,5.94,13.87,6.4,14.49,2.1,2.84-1.97-5.46,4-.18,3.07,2.72,9.78,19.22,11.36,24.03,2.51,7.62,2.58,9.36.32,17.79-1.24-1.35-3.02-3.02-4.48-4.03.08-1.16-5.12-9.67-5.6-9.9-1.42-.69.41,6.35.16,9.9-.13.56-6.81,7.77-7.36,8.07-2.56,1.4-6.13.1-5.76,3.3-1.5-.02.38-1.36-.96-2.2,1.56-.1-3.2-5.38-5.44-7.7-.95-5.18-6.91-8.29-2.24-10.45-2.01-1.52-2.09,2.86-3.2-1.83-.77-3.27-.63-13-1.28-16.14-.06-.27-.42-.19-.64-.18,3.29-8.08,5.61-17.75,12.16-23.29-.66-1.36,1.52-3.65,1.6-3.85.36.26.51,1.31.96,2.2Z"/>
      <g>
        <path class="cls-23" d="M85.94,164.87c-.35-.33-.79-.24-1.12,0-.66.49-11.55,11-12,11.74l-2.24-1.1c.72-2.74.92-5.8,1.6-8.44.11-.43.45-.27.32-1.65,2.79-2.61,20.79-22.21,22.25-22.56,2.86-.69-3.68,5.48-5.28,10.82-12.3,13.16-3.57,11.45,4.32,1.28,1.73,2.92-6.25,6.11-7.84,9.9Z"/>
        <path class="cls-29" d="M72.82,176.98c-.36.64-.69,1.51-.96,2.2-3.2,1.06-.9-2.14.96-2.2Z"/>
      </g>
      <path class="cls-22" d="M138.44,184.31c-2.09-1.5-2.14-5.07-3.2-5.14.05-2.32-.55-8.14-2.24-9.35-.98-4.71,12.5-23.97,14.4-29.71,5.51-6.57,5.69-6.59,5.12,5.14-.48,9.79-3.54,13.7-6.72,22.01-2.23,5.82-3.05,12.44-7.36,17.06Z"/>
      <path class="cls-1" d="M119.55,186.15c-2.92-1.26-8.7-4.71-9.92-2.57.04-.06.22-1.31.32-1.47,2.8-4.46,6.67-8.34,9.28-13.02.65-2.06,1.49-4.29,1.92-6.42,3.91.28-.74,13.9-.96,23.29,0,.3-.64.15-.64.18Z"/>
      <path class="cls-27" d="M138.44,184.31c2.03,1.45,4.27-.87,5.44-2.93.56,4.46-.64,11.8-2.56,15.77-2.29-1.53-6.27-3.93-8.64-5.14.47-4.31,2.47-8.44,2.56-12.84,1.06.07,1.11,3.64,3.2,5.14Z"/>
      <path class="cls-23" d="M152.52,206.32c-3.41-3.55-7.24-6.52-11.2-9.17,1.92-3.97,3.12-11.31,2.56-15.77.49-.87.87-2.65,1.28-3.67.22,0,.58-.09.64.18.65,3.14.51,12.87,1.28,16.14,1.11,4.69,1.19.32,3.2,1.83-4.67,2.16,1.29,5.27,2.24,10.45Z"/>
      <path class="cls-23" d="M159.89,152.77c-.45-.89-.6-1.94-.96-2.2.25-.66.75-3.02.96-4.03,3.14,2.92,3.11,3.55,0,6.24Z"/>
      <path class="cls-22" d="M148.04,114.25c1.91.43,3.75,1.55,5.76,1.47.64,2.27-7.53.86-11.68,1.47-4.97.73-18.03,5.37-24.33,6.97-.89.23-3.47.14-4.16.37-3.87,1.26,2.24,1.02,4.64,2.2-2.86,2.09-5.31,4.59-7.68,7.34-2.76-.79-5.47,1.06-5.76,1.1-.82.1-6.22.37-6.56,0-1.43-1.57,3.75-6.27,4.8-6.97,3.05-2.04,7.12-2.4,7.84-3.85-.11-1.15-11.77-5.02-13.44-6.05-.05-.03.13-.34-.96-.55,2.76-4.39,7.17-6.63,11.52-8.25,2.88.45,8.13.91,8-.37.22.05,1.6,1.06,4.32,1.47,4.75.71,10.19.02,15.05.73,3.97.59,8.82,3.13,12.64,2.93Z"/>
      <g>
        <path class="cls-22" d="M139.4,125.99s-.5.14,0,.73c-4.13,1.67-9.97,8.13-11.68,9.17-1.29.78-3.67.62-3.84.73-3.12,2.06,4.68-.38,5.6-.73q8.96-3.12,17.93-6.24c1.08.03,2.3.63,2.24-.73.95.11,1.94.26,2.88.37-7.14,8.37-18,12.39-27.69,15.77-3.37,6.28-3.41,16.26-3.68,17.61-.43,2.13-1.27,4.36-1.92,6.42-2.61,4.68-6.49,8.57-9.28,13.02-1.05-.47-7.5-1.32-7.84-1.1-.71.45,1.07,2.68.16,3.3-.58-1.66-.58-3.13-1.92-4.4,1.22-3.72,3.28-7.22,2.88-11.37,3.2-4.71,5.87-10.16,9.28-14.67,1.45-1.92,4.22-4.96,6.08-6.42q-3.36,1.19-6.72,2.38c1.52-3.35,3.55-6.07,5.12-9.35,1.21-.49,2.35-1.09,3.52-1.65.11-.05,1.01.03,2.24-.92-.75-.68-2.13.88-2.24.92-.57.17-.71-.49-1.12-.37-.08.02-1.2,1.08-1.28,1.1-.69.22-.91-.38-.96-.37-1.24.4-1.2,1.08-1.28,1.1-2.52.76-10.56,3.49-10.72,1.1.16-.18.82-.57.96-.73,1.73-2.08,3.75-5.75,4.48-6.6,2.38-2.75,4.82-5.25,7.68-7.34,7.33-2.33,14.96-3.89,22.41-4.95-.18,2.69-2.35,1.1-1.28,4.22Z"/>
        <path class="cls-28" d="M109.95,182.11c-.1.16-.28,1.41-.32,1.47-1.63,2.66-3.23,5.36-4.8,8.07-1.4-1.69-1.8-5.17-2.56-7.34.91-.62-.87-2.85-.16-3.3.35-.22,6.79.63,7.84,1.1Z"/>
      </g>
      <path class="cls-27" d="M110.59,134.06c-.73.85-2.75,4.53-4.48,6.6-2.97-1.2-4.03,2.79-8.64.55,2.33-2.16,8.06-4.65,7.36-6.05.3-.04,3-1.89,5.76-1.1Z"/>
      <path class="cls-23" d="M103.23,168.54c.4,4.15-1.66,7.65-2.88,11.37-1.5-.12-2.99-.49-4.48-.73-.68-.11-.76-.34-.96-.37,3.42-3.59,6.22-10.05,8.32-10.27Z"/>
      <g>
        <path class="cls-28" d="M120.51,138.83c-1.17.56-2.31,1.17-3.52,1.65-1.57,3.29-3.61,6-5.12,9.35-1.18,2.6-1.19-1.1-3.52,1.28-.18,8.42-1.23,8.78,4.16,2.75-3.41,4.51-6.08,9.96-9.28,14.67-2.1.22-4.91,6.68-8.32,10.27-.73-.09-1.5.05-2.24,0-2.12-.13-4.28.1-6.4,0,3.36-7.67,6.91-15.21,10.88-22.56q6.24-4.22,12.48-8.44-3.36-2.2-6.72-4.4c.55-.98,1.64-1.35,2.24-2.02.16,2.39,8.2-.34,10.72-1.1.08-.02.04-.7,1.28-1.1.05-.02.27.58.96.37.08-.02,1.2-1.08,1.28-1.1.41-.12.55.54,1.12.37Z"/>
        <path class="cls-22" d="M112.51,153.87c-5.39,6.03-4.34,5.67-4.16-2.75,2.33-2.38,2.34,1.32,3.52-1.28q3.36-1.19,6.72-2.38c-1.86,1.46-4.63,4.5-6.08,6.42Z"/>
      </g>
      <path class="cls-28" d="M147.4,129.66q-8.96,3.12-17.93,6.24c.98-.38,1.66-1.43,1.76-1.47.04-.01.26.51.64.37.27-.1.05-.63.32-.73.04-.01.26.52.64.37.27-.11.05-.63.32-.73.04-.01.26.51.64.37,4.64-1.79,8.63-4.55,13.6-4.4Z"/>
      <path class="cls-28" d="M120.51,138.83c.12-.03,1.5-1.59,2.24-.92-1.23.95-2.13.86-2.24.92Z"/>
      <path class="cls-23" d="M193.82,213.29q.56,4.77,1.12,9.54l-3.04-8.07c.23-.81-.56-1.11,1.92-1.47Z"/>
      <path class="cls-23" d="M177.49,204.85c-.49-.34-1.06-.46-1.6-.73-.6-.31-.96-1-1.44-1.47-.65.68-1.21,1.4-1.76,2.2h-.64c.25-3.55-1.58-10.6-.16-9.9.48.24,5.68,8.75,5.6,9.9Z"/>
      <g>
        <path class="cls-4" d="M165.65,72.07c-9.24-2.78-14.39,10.07-6.72,16.87-.67-.3-2.1-1.05-2.56-1.47-1.69-1.55-3.06-4.48-2.88-6.97.11-1.61,4.07-13.01,12.16-8.44Z"/>
        <g>
          <path class="cls-20" d="M165.65,72.44c.34.04.46.54.96.37,10.65,9.05-4.49,23.28-9.92,12.29-3.14-6.36,3.4-13.37,8.96-12.65Z"/>
          <path class="cls-13" d="M166.61,72.8c-.5.18-.62-.32-.96-.37v-.37c.69.39.52.36.96.73Z"/>
          <path class="cls-23" d="M164.37,75.74c-.01,8.25,6.05,4.76,2.24-.73,3.44-.09,3.16,9.9-1.44,11-2.82.68-5.51-1.58-5.92-3.85-1.25-6.88,4.67-6.33,5.12-6.42Z"/>
          <path class="cls-9" d="M166.61,75.01c3.81,5.49-2.25,8.98-2.24.73.56-.11,1.62-.72,2.24-.73Z"/>
        </g>
      </g>
      <path class="cls-28" d="M130.76,95.91c-.64-.24-1.28-.5-1.92-.73.64-1.19,1.82.67,1.92.73Z"/>
      <path class="cls-22" d="M116.03,109.12c.12,1.27-5.12.82-8,.37-1.22-3.63,1.75-1.78,8-.37Z"/>
    </g>
    <g>
      <path class="cls-16" d="M203.42,279.13c-.9,13.37-4.56,28.86-8.96,41.27-.51,2.39-2.15,4.52-2.24,4.77-1.06,3.07-2.61,5.99-3.52,9.17-1.49,3.51-1.93,7.41-3.2,11,.67-5.99-.84-28.25-.64-29.71-1.41-13.29-2.84-26.62-5.76-39.62-.03-.11.03-.25,0-.37-2.22-9.66-5.69-18.86-8.64-28.24,1.38-2.68.87-6.54,1.6-9.35.82-3.15,4.69-8.4,5.44-18.52,1.48,2.84,3.51,8.98,4.48,12.66,1.83,6.91,2.72,18.74,6.24,18.16.29-.05,4-4.04,4.32-4.59,3.68-6.24-.05-15.72,3.2-13.94-.38-5.24,2.5-7.12,1.6-9.35,1.4-6.26-1.45-15.72.96-10.45.26.56.72,3.21.96,4.22.47,2,1.98,9.51,2.24,11.37,1.48,10.43,2.62,41.05,1.92,51.53Z"/>
      <path class="cls-10" d="M184.86,348.12l.32-2.83c.44-3.88-.06-14.89-.4-22.17-.2-4.45-.31-6.87-.25-7.49-1.38-13-2.8-26.45-5.75-39.52-.03-.12-.02-.23,0-.31-1.56-6.87-3.79-13.58-5.95-20.06-.89-2.68-1.82-5.45-2.68-8.2l-.05-.16.08-.15c.79-1.53.93-3.53,1.07-5.46.1-1.36.19-2.65.49-3.81.24-.93.72-1.99,1.32-3.32,1.42-3.17,3.58-7.95,4.11-15.13l.08-1.13.51.98c1.45,2.79,3.47,8.78,4.51,12.74.5,1.9.94,4.21,1.37,6.44,1.06,5.55,2.28,11.84,4.52,11.46.33-.21,3.8-3.91,4.1-4.43,1.86-3.16,1.77-7.2,1.7-10.14-.05-2.12-.08-3.51.58-4.01.23-.17.5-.21.84-.11-.08-2.61.62-4.34,1.19-5.75.48-1.18.82-2.04.47-2.91l-.05-.12.03-.13c.69-3.1.31-7.11.09-9.5-.19-2.05-.25-2.6.17-2.75.35-.12.61.21,1.29,1.71.18.39.41,1.47.7,2.95.11.53.21,1.02.28,1.34.47,1.99,1.98,9.48,2.25,11.41,1.47,10.37,2.62,41.25,1.92,51.62-.83,12.38-4.19,27.85-8.99,41.38-.41,1.91-1.56,3.7-2.05,4.46-.1.16-.17.27-.2.32-.45,1.31-1,2.62-1.54,3.89-.71,1.69-1.45,3.44-1.97,5.24-.83,1.98-1.34,4.08-1.84,6.11-.4,1.63-.8,3.31-1.37,4.91l-.93,2.64ZM170.8,247.44c.85,2.69,1.75,5.4,2.63,8.03,2.17,6.5,4.4,13.23,5.98,20.08.03.12.02.25,0,.33,2.95,13.17,4.38,26.66,5.76,39.7v.05s0,.05,0,.05c-.06.47.08,3.68.25,7.4.27,6.01.66,14.56.54,19.6.21-.77.39-1.55.58-2.31.5-2.06,1.02-4.2,1.86-6.19.51-1.8,1.26-3.57,1.98-5.28.53-1.26,1.08-2.56,1.53-3.87.03-.09.09-.19.27-.47.47-.73,1.56-2.43,1.95-4.25,4.79-13.51,8.13-28.9,8.96-41.21h0c.69-10.34-.45-41.11-1.92-51.44-.26-1.86-1.78-9.41-2.23-11.33-.08-.33-.18-.83-.29-1.37-.21-1.03-.49-2.43-.65-2.77-.16-.35-.29-.61-.39-.81.03.4.08.91.12,1.42.23,2.41.61,6.43-.08,9.64.4,1.13-.03,2.19-.52,3.4-.58,1.43-1.3,3.22-1.1,5.95l.05.64-.5-.28c-.23-.13-.54-.26-.7-.14-.37.27-.33,1.78-.29,3.38.07,3.05.17,7.22-1.81,10.58-.18.31-4.03,4.65-4.54,4.74-2.83.48-4.01-5.6-5.24-12.03-.42-2.22-.86-4.51-1.36-6.38-.8-3.05-2.53-8.4-3.96-11.56-.68,6.67-2.71,11.18-4.08,14.23-.59,1.3-1.05,2.33-1.27,3.2-.28,1.09-.37,2.34-.47,3.66-.14,1.95-.29,3.97-1.09,5.62Z"/>
    </g>
    <g>
      <path class="cls-16" d="M195.74,231.82c-3.25-1.78.48,7.7-3.2,13.94-.32.54-4.03,4.53-4.32,4.59-3.52.59-4.41-11.25-6.24-18.16-.97-3.68-3-9.82-4.48-12.66.01-.12,0-.25,0-.37q-2.48-3.67-4.96-7.34c-.77-.21-2.66.54-3.67.73-1.32.24-3.48,1.28-4.16.37.55-.3,7.23-7.51,7.36-8.07h.64c.55-.8,1.11-1.52,1.76-2.2.49.47.84,1.16,1.44,1.47.54.27,1.11.39,1.6.73,1.47,1.02,3.25,2.68,4.48,4.04,3.14,3.43,6.68,9.57,9.44,13.57q-.24-1.56-.48-3.12c3.14,1.31.41-2.62.96-4.59q1.52,4.04,3.04,8.07-.56-4.77-1.12-9.54c.68-.1.44.11.96.37q1.28,4.4,2.56,8.8c.9,2.24-1.98,4.12-1.6,9.35Z"/>
      <path class="cls-10" d="M187.95,250.73c-2.63,0-3.75-5.86-4.93-12.06-.42-2.22-.86-4.51-1.36-6.38-.9-3.41-2.94-9.68-4.45-12.57l-.06-.11v-.12c.02-.05.01-.1.01-.15,0-.02,0-.03,0-.05-2.39-3.53-2.43-3.6-4.82-7.13-.49-.06-1.44.21-2.22.44-.45.13-.88.25-1.22.32-.34.06-.74.18-1.16.3-1.31.39-2.67.79-3.3-.06l-.27-.36.38-.2c.5-.31,6.85-7.12,7.2-7.87l.06-.27.24.04h.49c.58-.83,1.12-1.5,1.7-2.1l.21-.22.21.21c.19.18.36.39.52.6.27.33.52.65.85.82.2.1.41.18.61.26.34.13.7.27,1.03.5,1.35.94,3.13,2.54,4.53,4.08,2.2,2.41,4.63,6.17,6.77,9.49.67,1.04,1.31,2.03,1.92,2.95-.07-.43-.13-.81-.26-1.66l-.1-.63.52.22c.88.37,1.06.2,1.06.2.15-.16-.08-1.05-.23-1.63-.25-.97-.53-2.06-.29-2.92l.26-.93.34.9c1.13,3,1.42,3.77,2.12,5.63-.28-2.38-.38-3.22-.81-6.9l-.04-.36.32-.05c.49-.07.65-.01.86.2.06.06.12.12.27.19l.13.07,2.61,8.96c.46,1.14.02,2.23-.48,3.49-.58,1.43-1.3,3.22-1.1,5.95l.05.64-.5-.28c-.23-.13-.54-.26-.7-.14-.37.27-.33,1.78-.29,3.38.07,3.05.17,7.22-1.81,10.58-.18.31-4.03,4.65-4.54,4.74-.11.02-.21.03-.31.03ZM177.81,219.43c1.45,2.83,3.44,8.73,4.46,12.64.5,1.9.94,4.21,1.37,6.44,1.06,5.55,2.28,11.84,4.52,11.46.33-.21,3.8-3.91,4.1-4.43,1.86-3.16,1.77-7.2,1.7-10.14-.05-2.12-.08-3.51.58-4.01.23-.17.5-.21.84-.11-.08-2.61.62-4.34,1.19-5.75.48-1.18.82-2.04.47-2.91l-2.53-8.69c-.15-.09-.24-.18-.3-.24-.01-.01-.02-.02-.04-.03.51,4.36.53,4.5,1.07,9.12l.31,2.64-.92-2.45c-1.18-3.14-1.44-3.84-2.22-5.89.02.09.05.18.07.27.26,1.02.49,1.91.05,2.38-.25.27-.63.32-1.2.15.16.99.19,1.19.39,2.52l.22,1.43-.78-1.14c-.85-1.23-1.76-2.64-2.72-4.14-2.12-3.3-4.53-7.03-6.69-9.4-1.37-1.51-3.11-3.07-4.43-3.99-.27-.19-.57-.31-.9-.43-.22-.08-.45-.17-.66-.28-.45-.23-.76-.62-1.06-.99-.09-.11-.17-.21-.25-.31-.5.55-.99,1.17-1.51,1.93l-.1.14h-.63c-.89,1.34-5.49,6.26-6.96,7.67.55.15,1.52-.13,2.34-.37.44-.13.85-.25,1.22-.32.31-.06.73-.18,1.17-.31,1-.29,2.03-.58,2.63-.42l.11.03.07.1q2.48,3.67,4.96,7.34l.07.11v.14s0,.08,0,.12c0,.04,0,.09,0,.13Z"/>
    </g>
    <path class="cls-25" d="M54.7,230.44c-.26-1.85-.6-4.15-.93-6.47.51,2.66.96,4.73.96,4.73-.05.55-.06,1.13-.03,1.74Z"/>
    <path class="cls-25" d="M62.91,253.3c-3.09-3.74-5.61-11.59-6.84-15.93,2.18,7.16,6.18,14.43,6.18,14.43.15.58.38,1.06.65,1.5Z"/>
    <path class="cls-25" d="M65.31,256.33c-.26-.35-.58-.76-.93-1.22.33.38.65.77.93,1.22Z"/>
    <path class="cls-25" d="M66.77,258.86h0,0Z"/>
    <path class="cls-25" d="M66.4,189.07c-3.27,8.51-7.85,16.87-13.53,23.25-.07.08-.15.16-.22.24-.21.24-.28.93-.25,1.89-.12-.88-.2-1.4-.2-1.41,7.22-7.88,11.91-18.14,14.2-23.98Z"/>
    <path class="cls-30" d="M83.98,246.67l-19.98,8.02c-.73-.82-1.43-1.64-1.75-2.88-1.01-3.8,9.53-16.76,11.17-18.25,0-.55-4.45.45-4.45-.1q-1.04.55-2.08,1.1c-3.7-3.24-6.54-8.56-8.62-13.24l4.64-3.28,13.53,8.07,7.54,20.56Z"/>
    <path class="cls-25" d="M77.73,275.82c-1.54-1.78-4.53-6.44-7-10.43,2.24,3.54,4.58,7.01,7,10.43Z"/>
    <g>
      <path class="cls-3" d="M234.48,246.68h0c-.06-.04-.36-.21-1.61-.95-1.85-1.09-14.71-14.31-20.72-20.68-6-6.38-10-12.12-10-12.12-2.27.74-2.88,3.3-2.88,3.3,0,0,1.6,8.34,3.23,21.87,1.63,13.53,1.09,37.1.21,48.21-.88,11.12-8.25,34.08-8.25,34.08-7.02,14.06-8.88,24.44-8.8,24.44-2.02,3.84-5.72,14.23-8.81,23.37-.88-6.83-2.36-11.31-5.08-17.72-2.13-5.01-12.15-22.8-12.48-26.04-1.75-1.24-1.53-1.74-1.6-1.83-2.83-3.71-4.47-8.01-6.72-12.11-4.46-8.08-8.99-16.13-13.45-24.21-6.26-11.36-12.31-22.99-18.89-34.11-8.68-14.66-18.09-28.76-28.17-42.18-6.13-8.17-12.57-16.89-19.53-24.21-.35-.37-.66-.49-.95-.63-.13-.07-.27-.15-.39-.25-.28-.14-.52-.23-.75-.45-.04.15-.1.29-.14.43l-.65-.43s0,0,0,.01c-.01.05-.1.31-.24.73-.06.18-.13.4-.22.64-.03.1-.07.21-.11.32-.08.22-.16.46-.26.72-.04.13-.1.26-.15.4-.13.34-.26.71-.41,1.1-.08.22-.17.44-.26.67-3.27,8.51-7.85,16.87-13.53,23.25-.07.08-.15.16-.22.24-.21.24-.28.93-.25,1.89h0c.29,2,.83,5.77,1.37,9.52.51,2.66.96,4.73.96,4.73-.05.55-.06,1.13-.03,1.74.28,1.92.49,3.34.54,3.77,0,.03.01.05.01.07,0,.04,0,.06,0,.06,0,0,0,.02.02.07.01.06.03.15.06.27.01.05.03.11.04.16.03.12.06.25.1.4.02.08.04.16.06.24.04.17.09.36.15.56.03.1.06.21.08.32.03.1.06.21.09.33.06.21.13.45.2.68,2.18,7.16,6.18,14.43,6.18,14.43.15.58.38,1.06.65,1.5,0,0,.01.01.02.02.55.66,1.02,1.25,1.43,1.75,0,.01.01.03.03.04.33.38.65.77.93,1.22,1.66,2.24,1.49,2.49,1.46,2.52h0s.07.13.16.28c.05.08.12.19.19.32.03.06.07.12.11.18.06.12.13.23.2.34.1.15.2.33.31.51.15.25.31.51.49.81.44.72.95,1.57,1.52,2.49.12.18.23.37.35.56.21.34.42.69.65,1.04,2.24,3.54,4.58,7.01,7,10.43t.01.01c15.77,22.3,34.8,42.38,50.77,64.19,13.17,16.29,29.36,28.58,43.05,44.2,2.77-1.34,21.25-29.88,21.35-30.09,8.49-7.64,21.67-29.29,23.3-32.82,1.64-3.52,22.73-49.88,22.73-49.88,1.74-10.84-4.32-24.39-4.48-24.75Z"/>
      <path class="cls-10" d="M171.57,384.59c-.08,0-.16-.04-.23-.11-6.2-7.07-13.03-13.57-19.63-19.86-7.97-7.59-16.21-15.43-23.42-24.35-7.48-10.22-15.78-20.23-23.8-29.91-9.14-11.03-18.59-22.43-26.98-34.29-2.6-3.68-4.89-7.1-7.02-10.46-.21-.34-.42-.67-.62-1-.13-.22-.24-.38-.34-.55l-.04-.06c-.3-.49-.58-.95-.85-1.39l-.67-1.1c-.09-.16-.18-.3-.26-.44l-.3-.5c-.08-.14-.16-.27-.23-.38l-.07-.11c-.05-.08-.1-.17-.15-.25l-.11-.18c-.07-.12-.13-.22-.17-.3-.06-.1-.11-.18-.13-.23-.03-.06-.09-.19-.09-.26,0-.03,0-.06.01-.09-.04-.13-.25-.65-1.39-2.2-.29-.46-.61-.85-.91-1.2h0s-.03-.03-.04-.04l-.3-.38c-.33-.41-.7-.87-1.12-1.37-.01-.01-.04-.05-.05-.06-.32-.5-.54-1.01-.69-1.56-.34-.62-4.11-7.63-6.19-14.46l-.29-1.03c-.02-.06-.03-.12-.05-.17l-.04-.14c-.04-.13-.07-.26-.11-.39l-.04-.16c-.02-.07-.05-.16-.07-.25l-.02-.08c-.03-.12-.05-.22-.08-.31l-.04-.17c-.03-.13-.05-.23-.07-.29-.01-.04-.03-.12-.03-.16,0-.01-.01-.06-.02-.08-.03-.22-.1-.71-.2-1.38l-.34-2.38c-.03-.68-.02-1.25.02-1.77-.08-.37-.5-2.3-.95-4.68-.54-3.76-1.08-7.54-1.37-9.53-.04-1.24.06-1.9.34-2.22l.22-.24c5.27-5.91,9.93-13.91,13.47-23.14l.26-.67c.11-.29.21-.57.31-.84l.14-.37c.04-.1.07-.19.1-.28.09-.23.16-.43.22-.62l.07-.21c.02-.07.05-.13.07-.19l.08-.23c.05-.15.1-.29.14-.41.13-.4.21-.65.23-.71,0-.02.01-.04.02-.06.03-.07.07-.14.14-.18.1-.07.22-.07.32,0l.33.22v-.02c.04-.11.12-.2.22-.23.1-.03.21,0,.29.07.14.14.31.22.51.31l.17.08s.04.02.06.04c.1.09.22.15.33.21l.08.04c.28.13.6.28.95.66,6.54,6.88,12.58,14.93,18.41,22.72l1.14,1.52c10.03,13.36,19.52,27.57,28.19,42.22,4.57,7.72,8.95,15.81,13.18,23.63,1.87,3.45,3.79,7.01,5.71,10.49,2.23,4.05,4.48,8.09,6.74,12.13,2.24,4.02,4.49,8.05,6.71,12.08.74,1.34,1.42,2.72,2.08,4.06,1.4,2.84,2.73,5.53,4.61,8,.07.09.09.19.1.26.07.46.82,1.07,1.43,1.51.08.06.14.16.15.27.21,1.96,4.37,10,7.72,16.45,2.03,3.91,3.94,7.61,4.74,9.48,2.51,5.89,4.01,10.2,4.93,16.48,2.82-8.28,6.41-18.37,8.4-22.16h0c.23-2.02,2.52-11.87,8.79-24.44.05-.17,7.34-22.99,8.2-33.94.93-11.74,1.37-35-.21-48.13-1.61-13.36-3.21-21.76-3.23-21.84-.01-.06-.01-.12,0-.18.03-.11.68-2.77,3.1-3.56.12-.04.26,0,.34.12.04.06,4.06,5.8,9.97,12.08,6.25,6.64,18.85,19.57,20.65,20.62.83.49,1.24.73,1.44.85.11.06.16.09.18.11.03.02.05.04.07.06.02.03.05.07.07.1l-.29.16.3-.14c.64,1.45,6.18,14.46,4.49,24.96,0,.04-.02.07-.03.1-.21.46-21.11,46.4-22.73,49.88-1.84,3.95-15.02,25.38-23.36,32.9-1.05,1.69-18.59,28.78-21.46,30.17-.04.02-.08.03-.13.03ZM67.11,258.79s.05.08.08.13c.05.08.12.2.19.33l.11.18c.05.09.09.16.13.23l.07.11c.07.11.15.25.24.39l.29.49c.09.14.18.29.27.44l.67,1.1c.27.44.55.9.84,1.38l.04.06c.1.16.21.33.31.5.23.37.43.7.64,1.03,2.12,3.36,4.41,6.76,6.99,10.42,8.39,11.85,17.83,23.25,26.96,34.26,8.03,9.69,16.33,19.71,23.82,29.93,7.17,8.87,15.4,16.7,23.35,24.27,6.56,6.24,13.33,12.69,19.51,19.71,3.14-2.28,20.32-28.64,21.02-29.84.02-.03.05-.07.07-.09,8.63-7.76,21.79-29.63,23.22-32.7,1.6-3.43,21.91-48.08,22.7-49.83,1.59-10.1-3.65-22.61-4.41-24.37-.02-.01-.05-.03-.08-.05-.2-.12-.62-.36-1.44-.85-2-1.17-15.5-15.12-20.79-20.74-5.33-5.67-9.14-10.9-9.89-11.96-1.72.68-2.32,2.48-2.44,2.89.18.96,1.7,9.18,3.22,21.8,1.59,13.19,1.14,36.52.21,48.3-.87,11.04-8.19,33.95-8.26,34.18-6.51,13.05-8.69,23.25-8.78,24.29,0,.07-.01.15-.05.22-2.07,3.93-5.92,14.85-8.79,23.31-.05.16-.19.25-.33.23-.14-.02-.26-.15-.28-.31-.89-6.94-2.4-11.37-5.05-17.61-.78-1.84-2.69-5.53-4.71-9.42-3.46-6.67-7.37-14.21-7.78-16.56-1.4-1.02-1.55-1.6-1.6-1.88-1.9-2.51-3.29-5.33-4.64-8.06-.66-1.33-1.33-2.7-2.06-4.03-2.22-4.03-4.47-8.06-6.71-12.08-2.25-4.04-4.5-8.08-6.74-12.13-1.92-3.48-3.85-7.04-5.71-10.49-4.23-7.82-8.61-15.9-13.17-23.61-8.66-14.63-18.13-28.81-28.15-42.15l-1.14-1.52c-5.82-7.77-11.85-15.8-18.36-22.66-.27-.29-.51-.4-.76-.52l-.09-.04c-.15-.08-.29-.16-.42-.27l-.13-.06c-.1-.05-.2-.1-.3-.15h0c-.03.1-.1.19-.19.22-.09.04-.19.03-.27-.03l-.32-.21c-.03.1-.07.21-.11.34-.04.13-.09.27-.15.43l-.07.21c-.02.06-.05.14-.07.21l-.07.21c-.07.19-.14.4-.22.62-.03.09-.07.19-.11.29l-.14.37c-.1.27-.2.55-.32.84l-.26.68c-3.57,9.31-8.28,17.39-13.6,23.36l-.22.24s-.2.27-.16,1.62c.28,1.95.83,5.73,1.37,9.47.5,2.61.95,4.68.95,4.7,0,.04.01.09,0,.13-.05.5-.06,1.05-.03,1.68l.34,2.34c.1.68.17,1.17.2,1.39,0,0,.02.06.02.13v.03c.03.07.05.15.08.27l.02.09c.04.16.07.27.1.4l.02.08c.02.07.03.15.06.22l.05.19c.03.12.06.25.1.38l.04.14c.02.06.04.13.05.2l.28.99c2.15,7.04,6.11,14.28,6.15,14.35.02.03.03.06.04.09.12.49.32.94.6,1.38.41.49.78.95,1.12,1.37l.3.38h0s.01.02.02.03c.31.36.66.78.96,1.26,1.2,1.62,1.53,2.31,1.54,2.67ZM66.53,258.62h0ZM66.53,258.61h0ZM66.54,258.61s0,0,0,0c0,0,0,0,0,0ZM66.54,258.61s0,0,0,0c0,0,0,0,0,0ZM66.54,258.61s0,0,0,0c0,0,0,0,0,0ZM66.54,258.61s0,0,0,0t0,0ZM66.54,258.6s0,0,0,0c0,0,0,0,0,0Z"/>
    </g>
    <g>
      <g>
        <path class="cls-3" d="M53.77,223.97c-.61-3.16-1.29-7.15-1.37-9.51.29,1.99.83,5.77,1.37,9.51Z"/>
        <path class="cls-18" d="M53.77,224.33c-.15,0-.28-.12-.31-.29-.58-3.02-1.29-7.13-1.38-9.57,0-.19.12-.36.29-.38.16-.02.32.11.35.3.29,1.99.83,5.77,1.37,9.51.03.2-.09.38-.26.42-.02,0-.04,0-.06,0Z"/>
      </g>
      <g>
        <path class="cls-3" d="M55.24,234.21c-.29-1.32-.49-2.59-.54-3.77.28,1.92.49,3.34.54,3.77Z"/>
        <path class="cls-18" d="M55.24,234.57c-.14,0-.27-.11-.31-.28-.31-1.39-.5-2.69-.55-3.84,0-.19.12-.36.28-.39.17-.02.32.11.35.31l.34,2.38c.1.68.17,1.17.2,1.39.03.19-.09.38-.25.41-.02,0-.04,0-.06,0Z"/>
      </g>
      <g>
        <path class="cls-3" d="M64.35,255.08c-.51-.57-1.02-1.11-1.43-1.75.55.66,1.02,1.25,1.43,1.75Z"/>
        <path class="cls-18" d="M64.35,255.45c-.08,0-.16-.04-.23-.11l-.25-.28c-.42-.47-.86-.96-1.21-1.52-.1-.16-.08-.37.05-.5.13-.12.32-.11.44.03.42.5.79.97,1.13,1.38l.3.38c.12.15.11.37-.01.51-.06.07-.14.1-.22.1Z"/>
      </g>
      <g>
        <path class="cls-3" d="M66.77,258.86h0c-.45-.76-.88-1.52-1.31-2.28-.04-.08-.1-.16-.14-.24,1.66,2.24,1.49,2.49,1.46,2.52Z"/>
        <path class="cls-18" d="M66.77,259.22h0c-.11,0-.21-.06-.26-.16-.45-.76-.89-1.52-1.32-2.29l-.14-.25c-.09-.16-.05-.38.08-.49s.32-.09.43.06c1.73,2.33,1.67,2.76,1.44,3.02-.06.07-.14.11-.23.11ZM66.77,258.86h0,0Z"/>
      </g>
      <g>
        <path class="cls-3" d="M67.12,259.45c-.07-.1-.13-.21-.19-.32.05.08.12.19.19.32Z"/>
        <path class="cls-18" d="M67.12,259.82c-.1,0-.19-.05-.25-.14-.08-.12-.15-.24-.21-.36-.08-.17-.04-.38.11-.49.14-.1.33-.06.43.09.05.08.12.2.2.33.09.16.06.38-.08.5-.06.05-.12.07-.19.07Z"/>
      </g>
      <g>
        <path class="cls-3" d="M69.74,263.79c-.52-.82-1.03-1.65-1.52-2.49.44.72.95,1.57,1.52,2.49Z"/>
        <path class="cls-18" d="M69.74,264.15c-.1,0-.2-.05-.26-.15-.62-.98-1.1-1.77-1.52-2.5-.1-.17-.06-.39.09-.51.14-.11.34-.07.44.09l.67,1.11c.27.44.55.9.84,1.38.1.16.07.39-.08.51-.06.05-.12.07-.19.07Z"/>
      </g>
      <g>
        <path class="cls-3" d="M68.84,184.47c-.04.15-.1.29-.14.43l-.65-.43c.1-.3.19-.59.29-.89.15.45.32.71.51.89Z"/>
        <path class="cls-18" d="M68.7,185.27c-.06,0-.11-.02-.16-.05l-.65-.43c-.14-.09-.2-.28-.14-.45.06-.18.12-.36.18-.54l.11-.34c.05-.14.16-.24.3-.24.15-.01.25.09.3.23.12.35.25.59.41.74.1.1.14.26.1.4l-.07.22c-.02.07-.05.14-.07.21-.03.1-.1.18-.19.22-.04.02-.07.02-.11.02Z"/>
      </g>
      <g>
        <path class="cls-3" d="M69.98,185.16c-.13-.07-.27-.15-.39-.25.12.07.26.14.39.25Z"/>
        <path class="cls-18" d="M69.98,185.53s-.09-.01-.14-.04l.14-.33-.15.33c-.14-.08-.29-.16-.43-.28-.13-.11-.17-.32-.09-.48.08-.16.26-.22.41-.14.13.07.28.15.44.28.14.11.17.32.09.49-.06.11-.17.18-.28.18Z"/>
      </g>
    </g>
    <g>
      <path class="cls-3" d="M255.92,269.05c-.01,12.96-1.62,25.66-2.88,38.51-2.66,27.06-6.95,53.64-13.12,79.97-6.72,0-13.45,0-20.17,0-13.48.01-26.97,0-40.46,0-.04,0-.09,0-.14.01h-8.82s2.03-4.11,3.96-6.13c.42-.43.77-.84,1.08-1.21.47-2.63,1.5-1.79,2.77-3.86,2.66-4.29,4.81-9.09,7.68-13.21,8.33-11.94,19.48-20.45,30.41-41.82,6.93-16.98,15.82-32.89,22.73-49.88-.44-9.26-.79-16.32-4.48-24.76,4.21,2.48,8.39,4.97,12.48,7.7,1.02.68,1.98,1.58,3.2,1.83.85,1.2,2.84,2.14,3.52,3.48.76,1.5,1.2,6.22,2.24,9.35Z"/>
      <path class="cls-10" d="M179.15,387.91h-8.82c-.11,0-.22-.07-.28-.18-.06-.11-.06-.25,0-.37.08-.17,2.08-4.18,4.02-6.22.38-.4.72-.78,1-1.12.31-1.61.84-2.01,1.46-2.47.4-.3.85-.63,1.34-1.43,1.1-1.78,2.14-3.69,3.14-5.53,1.41-2.59,2.87-5.28,4.55-7.69,2.83-4.05,5.98-7.72,9.32-11.6,6.49-7.54,13.85-16.08,21.06-30.18,3.44-8.42,7.43-16.74,11.3-24.78,3.89-8.1,7.92-16.48,11.38-24.98-.42-9-.77-16.12-4.44-24.52-.06-.14-.04-.31.06-.42.1-.11.25-.14.37-.07,4.47,2.63,8.49,5.03,12.5,7.71.25.17.5.35.75.53.77.56,1.49,1.09,2.35,1.26.08.02.14.06.19.13.35.5.93.96,1.54,1.45.79.63,1.6,1.27,2.01,2.09.41.81.71,2.4,1.06,4.24.33,1.71.7,3.65,1.2,5.17.01.04.02.09.02.13-.01,10.62-1.11,21.26-2.17,31.54-.24,2.33-.48,4.67-.71,7-2.69,27.4-7.11,54.32-13.13,80.02-.04.16-.16.27-.31.27-3.31,0-6.62,0-9.92,0-3.42,0-6.83,0-10.24,0-7.39,0-14.79,0-22.18,0-6.09,0-12.18,0-18.27,0,.01,0-.02,0-.05,0-.01,0-.08,0-.09,0ZM170.89,387.17h8.31s.08-.01.09-.01c6.09,0,12.18,0,18.27,0,7.4,0,14.79,0,22.18,0,3.41,0,6.83,0,10.24,0,3.23,0,6.45,0,9.68,0,5.98-25.59,10.38-52.38,13.05-79.64.23-2.34.47-4.68.71-7.01,1.06-10.24,2.15-20.83,2.17-31.39-.51-1.56-.88-3.5-1.21-5.21-.33-1.7-.63-3.31-.99-4.03-.34-.67-1.09-1.27-1.82-1.85-.58-.46-1.19-.94-1.6-1.48-.93-.22-1.71-.79-2.47-1.34-.24-.18-.48-.35-.72-.51-3.74-2.5-7.5-4.76-11.62-7.19,3.35,8.14,3.68,15.14,4.09,23.91,0,.06,0,.12-.03.17-3.48,8.56-7.52,16.97-11.43,25.11-3.86,8.03-7.85,16.34-11.29,24.77-7.27,14.21-14.65,22.79-21.17,30.35-3.33,3.87-6.47,7.52-9.28,11.54-1.66,2.38-3.11,5.05-4.51,7.62-1.01,1.85-2.05,3.77-3.16,5.57-.56.91-1.09,1.3-1.52,1.62-.58.43-.95.71-1.2,2.1-.01.07-.04.13-.08.18-.3.38-.67.79-1.1,1.23-1.45,1.53-2.99,4.32-3.61,5.49Z"/>
    </g>
    <path class="cls-31" d="M179.73,386.79c-3.78.71-4.93-1.89-4.48-5.87,3.16-3.59,9.85-1.03,4.48,5.87Z"/>
  </g>
</svg>