<?xml version="1.0" encoding="utf-8"?>
<!-- Generator: Adobe Illustrator 25.2.1, SVG Export Plug-In . SVG Version: 6.00 Build 0)  -->
<svg version="1.1" id="katman_1" xmlns="http://www.w3.org/2000/svg" xmlns:xlink="http://www.w3.org/1999/xlink" x="0px" y="0px"
	 viewBox="0 0 234.88 153.03" style="enable-background:new 0 0 234.88 153.03;" xml:space="preserve">
<style type="text/css">
	.st0{fill:#0A0C0E;}
	.st1{fill:#070E15;}
	.st2{fill:#574CFA;}
	.st3{fill:#FFFFFF;}
</style>
<g>
	<path class="st0" d="M210.12,1.5H25.64c-3.8-0.01-6.88,3.07-6.89,6.87c0,0.01,0,0.01,0,0.02l0,0v124.14
		c-0.01,3.8,3.06,6.89,6.86,6.9c0.01,0,0.01,0,0.02,0h184.49c3.81,0,6.9-3.09,6.9-6.9V8.4C217.02,4.59,213.93,1.5,210.12,1.5z
		 M207.94,130.81H27.8V10.12h180.14V130.81z"/>
	<path class="st1" d="M210.12,140.93H25.63c-2.26-0.01-4.36-0.88-5.94-2.47c-1.58-1.59-2.44-3.69-2.44-5.93V8.39
		c0-2.26,0.88-4.36,2.46-5.94C21.29,0.87,23.4,0,25.63,0c0,0,0.01,0,0.01,0h184.48c4.63,0,8.4,3.77,8.4,8.4v124.13
		C218.52,137.16,214.75,140.93,210.12,140.93z M25.63,3c-1.44,0-2.78,0.56-3.8,1.57c-1.02,1.01-1.58,2.36-1.58,3.8v124.16
		c0,1.44,0.55,2.79,1.56,3.81c1.01,1.02,2.36,1.58,3.8,1.59h184.51c2.98,0,5.4-2.42,5.4-5.4V8.4c0-2.98-2.42-5.4-5.4-5.4H25.63
		C25.64,3,25.63,3,25.63,3z M207.94,132.31H27.8c-0.83,0-1.5-0.67-1.5-1.5V10.12c0-0.83,0.67-1.5,1.5-1.5h180.14
		c0.83,0,1.5,0.67,1.5,1.5v120.69C209.44,131.64,208.77,132.31,207.94,132.31z M29.3,129.31h177.14V11.62H29.3V129.31z"/>
</g>
<g>
	<path class="st0" d="M202.85,153.03H32c-9,0-17.79-1.7-26.15-5.04l-4.92-2C0.37,145.76,0,145.21,0,144.6v-5.17
		c0-0.83,0.67-1.5,1.5-1.5s1.5,0.67,1.5,1.5v4.16l3.98,1.62c7.99,3.19,16.41,4.82,25.02,4.82h170.85c8.62,0,17.06-1.62,25.06-4.82
		l3.97-1.62v-2.66H18.75c-0.83,0-1.5-0.67-1.5-1.5s0.67-1.5,1.5-1.5h214.63c0.83,0,1.5,0.67,1.5,1.5v5.17
		c0,0.61-0.37,1.16-0.93,1.39l-4.91,2C220.67,151.34,211.86,153.03,202.85,153.03z"/>
</g>
<g>
	<path class="st0" d="M105.79,147.83c-3.17,0-6.19-1.52-8.09-4.05c-1.34-1.78-3.47-2.85-5.7-2.85h-6c-0.83,0-1.5-0.67-1.5-1.5
		s0.67-1.5,1.5-1.5h6c3.17,0,6.2,1.52,8.1,4.05c1.34,1.78,3.46,2.85,5.69,2.85h24.16c2.23,0,4.36-1.07,5.7-2.85
		c1.9-2.53,4.93-4.05,8.1-4.05h6c0.83,0,1.5,0.67,1.5,1.5s-0.67,1.5-1.5,1.5h-6c-2.23,0-4.36,1.07-5.7,2.85
		c-1.9,2.53-4.93,4.04-8.1,4.05H105.79z"/>
</g>
<g>
	<path class="st0" d="M207.97,132.31H27.8c-0.83,0-1.5-0.67-1.5-1.5V10.12c0-0.83,0.67-1.5,1.5-1.5h180.17c0.83,0,1.5,0.67,1.5,1.5
		v120.69C209.47,131.64,208.8,132.31,207.97,132.31z M29.3,129.31h177.17V11.62H29.3V129.31z"/>
</g>
<g>
	<path class="st0" d="M233.38,153H1.5c-0.83,0-1.5-0.67-1.5-1.5s0.67-1.5,1.5-1.5h231.88c0.83,0,1.5,0.67,1.5,1.5
		S234.21,153,233.38,153z"/>
</g>
<g>
	<path class="st0" d="M44.99,46.15c-3.66,0-6.65-2.98-6.66-6.65V27.36c-0.01-3.67,2.98-6.66,6.65-6.67h72.42
		c0.83,0,1.5,0.67,1.5,1.5s-0.67,1.5-1.5,1.5H45c-2.04,0-3.67,1.65-3.67,3.67V39.5c0,2.01,1.65,3.65,3.66,3.65c0,0,0,0,0.01,0h83.68
		c0.97,0,1.89-0.38,2.58-1.08c0.69-0.69,1.07-1.61,1.07-2.59V27.36c0-0.99-0.38-1.91-1.08-2.6c-0.69-0.69-1.61-1.07-2.58-1.07
		c0,0-0.01,0-0.01,0c-0.83,0-1.5-0.67-1.5-1.5c0-0.83,0.67-1.5,1.5-1.5c0,0,0.01,0,0.01,0c1.77,0,3.44,0.69,4.7,1.94
		c1.26,1.26,1.96,2.93,1.96,4.71v12.14c0,1.78-0.69,3.45-1.94,4.71c-1.26,1.26-2.93,1.96-4.71,1.96H45
		C45,46.15,44.99,46.15,44.99,46.15z"/>
</g>
<g>
	<path class="st0" d="M128.67,120.25H45.04c-3.68,0-6.67-2.99-6.67-6.67v-12.13c0-3.68,2.99-6.67,6.67-6.67h83.63
		c3.68,0,6.67,2.99,6.67,6.67v12.13C135.34,117.26,132.35,120.25,128.67,120.25z M45.04,97.78c-2.02,0-3.67,1.65-3.67,3.67v12.13
		c0,2.02,1.65,3.67,3.67,3.67h83.63c2.02,0,3.67-1.65,3.67-3.67v-12.13c0-2.02-1.65-3.67-3.67-3.67H45.04z"/>
</g>
<g>
	<path class="st2" d="M154.75,88.59H45c-2.85,0.01-5.16-2.3-5.17-5.15c0,0,0,0,0,0V57.51c-0.01-2.85,2.3-5.16,5.15-5.17
		c0.01,0,0.01,0,0.02,0h111.25c2.85-0.01,5.16,2.3,5.17,5.15c0,0.01,0,0.01,0,0.02v23.81l-6.91-2.08l-1.37,1.52L154.75,88.59z"/>
	<path class="st2" d="M44.99,90.09c-1.77,0-3.44-0.69-4.7-1.94c-1.26-1.26-1.96-2.93-1.96-4.71V57.51c0-1.78,0.69-3.45,1.94-4.71
		c1.26-1.26,2.93-1.96,4.71-1.96h111.27c0,0,0.01,0,0.01,0c3.66,0,6.65,2.98,6.66,6.65v23.83c0,0.47-0.22,0.92-0.61,1.2
		c-0.38,0.28-0.87,0.37-1.33,0.23l-6-1.81l-0.23,0.25l1.46,7.09c0.09,0.44-0.02,0.9-0.31,1.25c-0.28,0.35-0.71,0.55-1.16,0.55H45
		C45,90.09,44.99,90.09,44.99,90.09z M45,53.84c-2.04,0-3.67,1.65-3.67,3.67v25.93c0,0.97,0.38,1.89,1.08,2.58
		c0.69,0.69,1.61,1.07,2.58,1.07c0,0,0,0,0.01,0h107.91l-1.24-6.03c-0.1-0.47,0.04-0.95,0.36-1.31l1.37-1.52
		c0.39-0.43,0.99-0.6,1.55-0.43l4.98,1.5V57.51c0-2.03-1.65-3.67-3.66-3.67c0,0,0,0-0.01,0H45z"/>
</g>
<g>
	<path class="st0" d="M175.49,107.47c-0.83,0-1.65-0.31-2.28-0.93l-7.48-7.48l-3,2.96c-0.37,0.37-0.84,0.65-1.36,0.81
		c-1.69,0.51-3.5-0.46-4-2.17L151.8,82.1c-0.18-0.62-0.18-1.25,0-1.85c0.25-0.84,0.8-1.52,1.56-1.93c0.76-0.41,1.63-0.5,2.46-0.26
		l18.56,5.56c0.01,0,0.01,0,0.02,0c0.5,0.16,0.96,0.44,1.33,0.82c1.24,1.25,1.24,3.29-0.01,4.55l-3,3l7.51,7.53
		c1.25,1.26,1.25,3.3,0,4.56l-2.44,2.44C177.14,107.16,176.31,107.47,175.49,107.47z M165.74,95.44c0.38,0,0.77,0.15,1.06,0.44
		l8.53,8.53c0.09,0.09,0.23,0.08,0.32,0l2.44-2.44c0.09-0.09,0.09-0.23,0-0.32l-8.57-8.59c-0.58-0.59-0.58-1.54,0-2.12l4.06-4.06
		c0.09-0.09,0.09-0.24,0-0.33l0.37-1.49l-0.43,1.44l-18.55-5.56c-0.12-0.03-0.25,0.04-0.28,0.16c-0.01,0.04-0.01,0.11,0,0.16
		l5.56,18.53c0.02,0.08,0.07,0.11,0.11,0.13c0.04,0.02,0.09,0.04,0.17,0.02c0.04-0.01,0.07-0.03,0.09-0.06l4.07-4.01
		C164.98,95.58,165.36,95.44,165.74,95.44z"/>
</g>
<g>
	<path class="st0" d="M170.13,73.28c-0.23,0-0.46-0.05-0.67-0.16c-0.74-0.37-1.04-1.27-0.67-2.01l1.93-3.85
		c0.37-0.74,1.27-1.04,2.01-0.67c0.74,0.37,1.04,1.27,0.67,2.01l-1.93,3.85C171.21,72.98,170.68,73.28,170.13,73.28z"/>
</g>
<g>
	<path class="st0" d="M147.25,73.98c-0.46,0-0.92-0.21-1.21-0.61l-1.93-2.64c-0.49-0.67-0.34-1.61,0.33-2.1
		c0.67-0.49,1.61-0.34,2.1,0.33l1.93,2.64c0.49,0.67,0.34,1.61-0.33,2.1C147.87,73.89,147.56,73.98,147.25,73.98z"/>
</g>
<g>
	<path class="st3" d="M130.38,71.97H81.25c-0.83,0-1.5-0.67-1.5-1.5s0.67-1.5,1.5-1.5h49.13c0.83,0,1.5,0.67,1.5,1.5
		S131.21,71.97,130.38,71.97z"/>
</g>
<g>
	<path class="st3" d="M58.83,80.59c-5.58,0-10.12-4.54-10.12-10.12s4.54-10.12,10.12-10.12s10.12,4.54,10.12,10.12
		S64.41,80.59,58.83,80.59z M58.83,63.35c-3.93,0-7.12,3.19-7.12,7.12s3.19,7.12,7.12,7.12s7.12-3.19,7.12-7.12
		S62.76,63.35,58.83,63.35z"/>
</g>
</svg>
