<?xml version="1.0" encoding="utf-8"?>
<!-- Generator: Adobe Illustrator 25.2.1, SVG Export Plug-In . SVG Version: 6.00 Build 0)  -->
<svg version="1.1" id="katman_1" xmlns="http://www.w3.org/2000/svg" xmlns:xlink="http://www.w3.org/1999/xlink" x="0px" y="0px"
	 viewBox="0 0 841.89 595.28" style="enable-background:new 0 0 841.89 595.28;" xml:space="preserve">
<style type="text/css">
	.st0{fill:none;stroke:#B1B4B5;stroke-miterlimit:10;}
	.st1{fill:#B1B4B5;}
	.st2{fill:#5F6160;}
	.st3{fill:#3E4042;}
	.st4{fill:#5D6061;}
	.st5{fill:#202121;}
	.st6{fill:#272726;}
	.st7{fill:#282A2B;}
	.st8{fill:#5E605F;}
	.st9{fill:#737475;}
	.st10{fill:#FBFAF9;}
	.st11{fill:#999B9D;}
	.st12{fill:#555656;}
	.st13{fill:#B3B5B7;}
	.st14{fill:#282828;}
	.st15{fill:#1F2222;}
	.st16{fill:#3F4041;}
	.st17{fill:#999A9B;}
	.st18{fill:#202324;}
	.st19{fill:#545556;}
</style>
<g>
	<g>
		<path class="st0" d="M491.84,305.11"/>
	</g>
	<g>
		<path class="st0" d="M491.84,305.11"/>
	</g>
	<g>
		<polygon class="st1" points="529.34,223.61 521.42,211.84 530.94,198.46 562.78,193.63 601.55,210.11 569.34,223.61 		"/>
	</g>
	<g>
		<polygon class="st2" points="537.84,236.57 529.34,223.61 550.34,214.61 599.99,211.84 		"/>
	</g>
	<g>
		<polygon class="st3" points="529.34,223.61 484.34,245.61 487.34,276.61 537.84,236.57 		"/>
	</g>
	<g>
		<polygon class="st4" points="487.27,275.83 451.34,305.61 491.84,305.61 		"/>
	</g>
	<g>
		<polygon class="st5" points="487.34,276.61 491.84,305.97 516.43,281.82 537.47,236.73 		"/>
	</g>
	<g>
		<polygon class="st6" points="338.68,321.28 350.87,329.58 404.34,311.61 		"/>
	</g>
	<g>
		<polygon class="st3" points="331.34,315.61 338.68,321.28 452.34,305.61 453.45,301.61 361.34,301.61 		"/>
	</g>
	<g>
		<polygon class="st7" points="484.34,245.61 361.34,301.61 453.08,304.17 487.27,275.83 		"/>
	</g>
	<g>
		<polygon class="st8" points="484.34,245.61 480.34,220.61 511.09,212.95 521.42,211.84 529.34,223.61 		"/>
	</g>
	<g>
		<polygon class="st9" points="480.34,220.61 476.15,194.54 505.79,184.66 530.94,198.46 521.42,211.84 		"/>
	</g>
	<g>
		<circle class="st10" cx="500.84" cy="215.11" r="8.5"/>
	</g>
	<g>
		<polygon class="st11" points="476.15,194.54 451.15,227.53 480.34,220.61 		"/>
	</g>
	<g>
		<polygon class="st12" points="480.34,220.61 451.15,227.53 443.3,230.56 311.24,299.47 361.34,301.61 484.34,245.61 		"/>
	</g>
	<g>
		<polygon class="st13" points="311.24,299.47 319.23,278.5 451.15,227.53 		"/>
	</g>
	<g>
		<polygon class="st5" points="451.34,305.61 460.29,336.95 491.84,305.97 		"/>
	</g>
	<g>
		<polygon class="st14" points="451.34,305.61 404.34,311.61 422.08,350.61 445.35,351.67 460.29,336.95 		"/>
	</g>
	<g>
		<polygon class="st2" points="445.35,351.67 473.68,396.25 460.29,336.95 		"/>
	</g>
	<g>
		<polygon class="st15" points="423.61,351.62 441.3,394.82 399.13,351.7 		"/>
	</g>
	<g>
		<polygon class="st16" points="423.61,351.62 404.34,311.61 350.87,329.58 399.13,351.7 		"/>
	</g>
	<g>
		<polygon class="st17" points="338.68,321.28 306.34,325.61 240.34,356.61 259.34,362.61 350.87,329.58 		"/>
	</g>
	<g>
		<polygon class="st18" points="306.34,325.61 331.34,315.61 338.68,321.28 		"/>
	</g>
	<g>
		<polygon class="st19" points="311.24,299.47 242.34,334.61 306.34,325.61 331.34,315.61 		"/>
	</g>
	<g>
		<polygon class="st11" points="311.24,299.47 331.34,315.61 361.34,301.61 		"/>
	</g>
	<g>
		<polygon class="st5" points="597.42,394.82 308.82,396.25 290.34,410.61 		"/>
	</g>
</g>
</svg>
