<?xml version="1.0" encoding="utf-8"?>
<!-- Generator: Adobe Illustrator 25.2.1, SVG Export Plug-In . SVG Version: 6.00 Build 0)  -->
<svg version="1.1" id="katman_1" xmlns="http://www.w3.org/2000/svg" xmlns:xlink="http://www.w3.org/1999/xlink" x="0px" y="0px"
	 viewBox="0 0 841.89 595.28" style="enable-background:new 0 0 841.89 595.28;" xml:space="preserve">
<style type="text/css">
	.st0{fill:#010202;}
	.st1{fill:#4A53A0;}
</style>
<g>
	<path class="st0" d="M650.96,121.32c-63.05-6.97-121.63-32.68-169.49-74.3c-21.08-18.22-52.69-18.22-73.58,0
		c-31.26,27.15-67.15,47.51-105.73,60.37l9.29,15.72c39.47-13.57,76.09-34.65,108.23-62.51c14.29-12.5,35.72-12.5,50.01,0
		c48.76,42.15,107.88,68.94,171.46,77.51v106.27c0,51.44-13.4,100.37-38.58,141.27c-38.4,62.15-91.09,116.09-152.35,156.28
		c-51.97-29.29-97.87-67.15-136.63-112.7c-42.15-49.65-65.37-113.23-65.37-178.96V138.11c8.75-1.25,17.32-2.68,25.9-4.64
		l-8.22-16.61c-9.11,1.96-18.4,3.39-27.68,4.47l-7.86,0.89v128.06c0,69.83,24.65,137.52,69.65,190.39
		c41.26,48.76,90.55,88.94,146.28,119.49l4.64,2.5l4.47-2.86c65.37-41.79,121.63-98.77,162.35-164.85
		C644.71,351.18,659,299.21,659,244.37V122.21L650.96,121.32z"/>
</g>
<path class="st1" d="M591.13,172.53c-44.83-5-86.44-23.22-120.38-52.69c-14.82-12.86-37.33-12.86-52.15,0
	c-34.11,29.47-75.73,47.69-120.38,52.69l-5.72,0.71v90.73c0,49.65,17.5,97.7,49.47,135.2c29.29,34.65,64.3,63.05,103.77,84.84
	l3.39,1.79l3.04-1.96c46.62-29.83,86.44-70.19,115.38-116.98c19.11-31.08,29.29-68.05,29.29-106.8v-86.8L591.13,172.53z
	 M444.41,370.52c0,0-74.53-57.1-75.67-105.07c-0.53-22.07,17.9-39.97,39.97-39.97c16.08,0,29.9,9.52,36.25,23.21
	c6.57-13.07,20.07-22.06,35.7-22.06c22.07,0,39.97,17.9,39.97,39.97C520.63,313.42,444.41,370.52,444.41,370.52z"/>
</svg>
