<?xml version="1.0" encoding="utf-8"?>
<!-- Generator: Adobe Illustrator 28.2.0, SVG Export Plug-In . SVG Version: 6.00 Build 0)  -->
<svg version="1.1" id="katman_1" xmlns="http://www.w3.org/2000/svg" xmlns:xlink="http://www.w3.org/1999/xlink" x="0px" y="0px"
	 viewBox="0 0 90 90" style="enable-background:new 0 0 90 90;" xml:space="preserve">
<style type="text/css">
	.st0{fill:#47539F;stroke:#1D1E1E;stroke-width:1.03;}
	.st1{fill:#FFFFFF;stroke:#1D1E1E;stroke-width:1.03;}
	.st2{fill:#FFFFFF;stroke:#1D1E1E;stroke-width:1.05;}
	.st3{fill:#47539F;stroke:#1D1E1E;stroke-width:0.9449;}
</style>
<path class="st0" d="M41.3,15.6L20.9,6.5c-2-0.9-4.4-0.1-5.5,1.8L4.4,28c-0.6,1.1-0.7,2.3-0.3,3.5l16,46.7c0.8,2.2,3.2,3.4,5.4,2.7
	l31.9-10.9c2.3-0.8,3.4-3.2,2.6-5.5L43.6,18.1C43.3,17,42.4,16.1,41.3,15.6z"/>
<circle class="st1" cx="24.3" cy="22" r="4.3"/>
<circle class="st2" cx="60" cy="51" r="25"/>
<path class="st3" d="M54.5,55.4l-4-4c-1.1-1.1-2.8-1.1-3.9,0c-1.1,1.1-1.1,2.9,0.1,4l8.3,7.5c0.6,0.5,1.5,0.5,2,0l17.4-17.2
	c1.1-1.1,1.1-2.9,0.1-4c-1.1-1.2-3-1.2-4.1,0L56.6,55.4C56,56,55.1,56,54.5,55.4z"/>
</svg>
