<?xml version="1.0" encoding="utf-8"?>
<!-- Generator: Adobe Illustrator 25.2.1, SVG Export Plug-In . SVG Version: 6.00 Build 0)  -->
<svg version="1.1" id="katman_1" xmlns="http://www.w3.org/2000/svg" xmlns:xlink="http://www.w3.org/1999/xlink" x="0px" y="0px"
	 viewBox="0 0 841.89 595.28" style="enable-background:new 0 0 841.89 595.28;" xml:space="preserve">
<style type="text/css">
	.st0{fill:#4A53A0;}
	.st1{fill:#FFFFFF;}
</style>
<g>
	<path class="st0" d="M669.86,208.57c-0.05,1.51-0.13,2.99-0.2,4.47c-0.5,9.43-1.53,18.74-3.09,27.95
		c-3.91,23.66-11.09,46.56-20.6,68.51c-13.8,31.94-32.56,61.87-53.46,89.16c-13.27,17.34-27.4,33.62-41.7,48.67
		c-2.83,2.99-5.69,5.95-8.53,8.83c-4.32,4.39-8.66,8.68-12.97,12.84c-2.94,2.83-5.87,5.62-8.78,8.35
		c-4.59,4.29-9.16,8.45-13.65,12.44c0,0.03,0,0.03,0,0.03c-2.43,2.18-4.87,4.29-7.25,6.37c-5.14,4.49-10.21,8.78-15.1,12.84
		c-3.14,2.61-6.2,5.12-9.21,7.53c-4.87,3.91-9.53,7.58-14,11.01c-3.26,2.53-6.42,4.92-9.43,7.15c-5.19,3.89-9.98,7.38-14.3,10.44
		c-3.59,2.56-6.82,4.82-9.66,6.75c-8.66,5.95-13.7,9.08-13.7,9.08s-0.75-0.5-2.18-1.48c-2.48-1.71-7-4.84-13.1-9.33
		c-11.26-8.3-27.95-21.2-47.24-37.98c-8.61-7.48-17.74-15.75-27.12-24.74c-15.81-15.1-32.36-32.26-48.52-51.15
		c-2.71-3.16-5.39-6.37-8.08-9.66c-4.14-5.04-8.23-10.19-12.24-15.45c-2.61-3.41-5.22-6.87-7.75-10.41
		c-3.96-5.39-7.8-10.89-11.57-16.51c-2.58-3.84-5.14-7.75-7.6-11.69c-3.64-5.75-7.15-11.62-10.54-17.56
		c-2.21-3.86-4.34-7.75-6.42-11.72c-3.06-5.77-5.97-11.64-8.73-17.59c-1.83-3.86-3.56-7.75-5.22-11.69
		c-2.46-5.8-4.79-11.67-6.92-17.59c-1.4-3.89-2.73-7.78-3.99-11.72c-1.86-5.8-3.54-11.64-5.07-17.56
		c-0.98-3.89-1.91-7.78-2.73-11.72c-1.23-5.82-2.28-11.67-3.14-17.59c-0.6-3.86-1.08-7.78-1.48-11.69c-0.6-5.82-1-11.69-1.2-17.61
		c-0.25-7.18,0.08-14.27,0.9-21.2v-0.03c0.45-3.71,1.05-7.4,1.81-11.01v-0.03c6.32-30.91,23.06-58.23,46.46-77.5l0.05-0.03
		c6.97-5.69,14.5-10.71,22.55-14.88c8.38-4.37,17.29-7.83,26.62-10.21c5.04-1.33,10.21-2.33,15.48-3.01
		c5.8-0.75,11.74-1.1,17.76-1.05c1.1,0,2.18,0.03,3.29,0.08c4.39,0.15,8.76,0.53,13.02,1.1c6.22,0.83,12.29,2.11,18.19,3.81
		c3.89,1.08,7.68,2.36,11.39,3.79c5.52,2.16,10.86,4.67,15.98,7.53c3.41,1.88,6.75,3.91,9.96,6.12c4.92,3.31,9.58,6.97,13.97,10.91
		c2.99,2.68,5.87,5.49,8.58,8.45c4.26,4.59,8.18,9.46,11.72,14.63c2.51,3.61,4.82,7.35,6.92,11.21c1.28,2.28,2.46,4.62,3.59,6.97
		c9.78-20.67,24.89-38.38,43.5-51.33h0.03c6.5-4.52,13.4-8.45,20.67-11.74c8.4-3.84,17.31-6.77,26.57-8.71
		c4.89-1.05,9.91-1.81,15-2.26c3.56-0.35,7.17-0.55,10.81-0.58c4.16-0.05,8.28,0.13,12.32,0.48c4.29,0.35,8.5,0.93,12.62,1.71
		c6.07,1.15,11.97,2.71,17.69,4.69c3.76,1.28,7.43,2.73,11.01,4.37c5.37,2.41,10.54,5.19,15.48,8.33c3.31,2.08,6.55,4.31,9.66,6.7
		c4.74,3.61,9.23,7.55,13.42,11.79c2.88,2.89,5.62,5.9,8.23,9.03c4.06,4.92,7.8,10.14,11.14,15.6c2.38,3.84,4.54,7.83,6.5,11.92
		c3.24,6.65,5.92,13.57,8.05,20.77c1.58,5.37,2.83,10.86,3.76,16.48C669.56,190.28,670.16,199.34,669.86,208.57z"/>
	<g>
		<path class="st1" d="M460.85,181.65L340.38,383.38c-14.58,24.99-37.66,43.58-64.3,52.93c-2.71-3.16-5.39-6.37-8.08-9.66
			c25.84-7.93,48.34-25.31,62.29-49.22l120.5-201.78c1.63-2.78,5.24-3.71,8.03-2.03C461.58,175.28,462.51,178.87,460.85,181.65z"/>
		<path class="st1" d="M527.41,70.21l-49.67,83.17c-1.1,1.83-3.04,2.83-5.04,2.83c-1,0-2.06-0.25-2.99-0.83
			c-2.78-1.66-3.69-5.24-2.03-8.03l44.73-74.89C517.3,71.42,522.32,70.66,527.41,70.21z"/>
		<path class="st1" d="M351.72,512.2c-8.61-7.48-17.74-15.75-27.12-24.74l-17.51-31.54c-1.56-2.83-0.55-6.4,2.28-7.95
			c2.83-1.56,6.4-0.55,7.95,2.28L351.72,512.2z"/>
		<path class="st1" d="M311.18,372.34c-13,19.89-32.86,33.62-55.42,38.86c-2.61-3.41-5.22-6.87-7.75-10.41
			c21.75-3.56,41.09-16.03,53.34-34.85c1.78-2.71,5.39-3.46,8.1-1.71C312.16,366.02,312.94,369.63,311.18,372.34z"/>
		<path class="st1" d="M485.84,81.18L339.21,325.73c-1.68,2.76-5.27,3.69-8.05,2.01c-2.76-1.66-3.66-5.27-2.01-8.03l136-226.79h0.03
			C471.67,88.4,478.57,84.46,485.84,81.18z"/>
		<path class="st1" d="M418.06,137.27l-129.48,215.9c-10.84,18.77-30.71,30.63-52.13,31.11c-2.58-3.84-5.14-7.75-7.6-11.69h6.2
			c17.76,0,34.42-9.71,43.45-25.36l132.64-221.17C413.64,129.67,415.95,133.41,418.06,137.27z"/>
		<path class="st1" d="M399.42,111.43l-66.66,111.16c-1.1,1.81-3.04,2.83-5.04,2.83c-1.03,0-2.06-0.28-2.99-0.83
			c-2.78-1.68-3.69-5.27-2.03-8.05l68.14-113.57C393.82,105.66,396.71,108.47,399.42,111.43z"/>
		<path class="st1" d="M313.39,254.88l-49.92,83.24c-6.1,10.54-16.73,16.91-28.42,16.91h-16.73c-2.21-3.86-4.34-7.75-6.42-11.72
			h23.16c7.45,0,14.3-4.16,18.34-11.14l49.95-83.32c1.66-2.76,5.27-3.69,8.05-2.01C314.14,248.51,315.05,252.12,313.39,254.88z"/>
		<path class="st1" d="M376.86,92.06L238.45,322.89c-1.05,1.76-2.96,2.83-5.02,2.83h-30.28c-1.83-3.86-3.56-7.75-5.22-11.69h32.19
			L366.9,85.94C370.31,87.82,373.65,89.86,376.86,92.06z"/>
		<path class="st1" d="M207.47,290.58c0,3.24-2.63,5.87-5.85,5.87h-10.61c-1.4-3.89-2.73-7.78-3.99-11.72h14.6
			C204.84,284.74,207.47,287.37,207.47,290.58z"/>
		<path class="st1" d="M305.38,131.57l-75.13,125.28c-1.66,2.77-0.76,6.37,2.01,8.03c0.94,0.57,1.98,0.84,3.01,0.84
			c1.99,0,3.93-1.01,5.03-2.84l75.13-125.29c1.67-2.77,0.76-6.37-2.01-8.03C310.65,127.88,307.04,128.79,305.38,131.57z"/>
		<path class="st1" d="M350.92,78.42l-17.66,29.45c-1.66,2.76-5.27,3.69-8.05,2.01c-2.76-1.66-3.66-5.27-2.01-8.03l16.33-27.22
			C343.42,75.71,347.21,76.99,350.92,78.42z"/>
		<path class="st1" d="M321.34,70.81l-116.06,193.5c-1.05,1.78-2.96,2.86-5.02,2.86h-18.31c-0.98-3.89-1.91-7.78-2.73-11.72h17.71
			L308.32,69.71C312.71,69.86,317.08,70.24,321.34,70.81z"/>
		<path class="st1" d="M287.27,70.69l-98.57,164.35c-1.08,1.76-2.99,2.83-5.04,2.83h-7.58c-0.6-3.86-1.08-7.78-1.48-11.69h5.74
			L271.8,73.7C276.84,72.37,282.01,71.37,287.27,70.69z"/>
		<path class="st1" d="M245.18,83.91l-61.49,102.53c-1.66,2.76-5.27,3.69-8.03,2.01c-0.5-0.3-0.95-0.68-1.35-1.08v-0.03
			c-1.68-1.86-2.03-4.67-0.65-6.92l2.46-4.09v-0.03l46.46-77.5l0.05-0.03C229.6,93.09,237.12,88.07,245.18,83.91z"/>
		<path class="st1" d="M412.06,559.52c-2.48-1.71-7-4.84-13.1-9.33c0.28-0.25,0.58-0.45,0.9-0.63c2.83-1.58,6.4-0.55,7.95,2.28
			L412.06,559.52z"/>
		<path class="st1" d="M389.2,518.2c1.58,2.83,0.55,6.4-2.28,7.98c-2.83,1.56-6.4,0.53-7.95-2.31l-22.15-40.04
			c-16.13-27.92-16.13-62.77,0.05-90.79L550.54,70.11c4.29,0.35,8.5,0.93,12.62,1.71L366.98,398.98
			c-14.07,24.33-14.07,54.67,0.03,79.08L389.2,518.2z"/>
		<path class="st1" d="M392.32,413.64c-4.32,7.48-6.62,16.11-6.62,24.84c0,8.88,2.33,17.44,6.95,25.41l44.96,81.28
			c-3.59,2.56-6.82,4.82-9.66,6.75l-45.51-82.26c-5.59-9.71-8.45-20.22-8.45-31.18c0-10.79,2.86-21.42,8.25-30.78l54.46-90.82
			c1.66-2.76,5.24-3.69,8.03-2.01c2.78,1.66,3.69,5.27,2.01,8.03L392.32,413.64z"/>
		<path class="st1" d="M591.86,80.87L466.1,290.58c-1.66,2.78-5.24,3.69-8.03,2.01c-2.78-1.66-3.69-5.24-2.01-8.03L580.85,76.51
			C584.61,77.79,588.27,79.24,591.86,80.87z"/>
		<path class="st1" d="M461.33,527.58c-3.26,2.53-6.42,4.92-9.43,7.15l-17.66-31.94c-1.56-2.83-0.55-6.4,2.28-7.95
			c2.86-1.58,6.4-0.55,7.98,2.28L461.33,527.58z"/>
		<path class="st1" d="M425.41,462.63c1.56,2.83,0.53,6.4-2.28,7.95c-2.86,1.56-6.4,0.53-7.98-2.28l-7.07-12.82
			c-3.24-5.59-4.82-11.19-4.82-17.01c0-5.64,1.51-11.24,4.34-16.16L607.34,89.2c3.31,2.08,6.55,4.31,9.66,6.7L417.68,428.26
			c-1.76,3.06-2.71,6.62-2.71,10.21c0,3.76,1.05,7.35,3.29,11.26L425.41,462.63z"/>
		<path class="st1" d="M638.65,116.72l-22.75,37.93c-1.66,2.78-5.24,3.69-8.03,2.01c-2.78-1.66-3.66-5.27-2.01-8.03l24.56-40.94
			C633.31,110.58,636.04,113.59,638.65,116.72z"/>
		<path class="st1" d="M597.13,185.97L445.6,438.65l38.94,70.4c-3.14,2.61-6.2,5.12-9.21,7.53l-41.62-75.21
			c-1-1.83-0.95-4.04,0.1-5.85L587.1,179.95c1.68-2.76,5.27-3.69,8.03-2.03C597.91,179.59,598.81,183.18,597.13,185.97z"/>
		<path class="st1" d="M656.29,144.25l-107.75,179.7c-1.66,2.76-5.27,3.69-8.03,2.01c-2.78-1.66-3.69-5.27-2.03-8.03l111.31-185.6
			C652.17,136.17,654.33,140.16,656.29,144.25z"/>
		<path class="st1" d="M513.31,359.91l-45.69,76.2c-1.07,1.8-1.11,4.02-0.1,5.84l28.44,51.4c1.07,1.93,3.07,3.02,5.13,3.02
			c0.96,0,1.93-0.23,2.83-0.73c2.83-1.56,3.85-5.12,2.29-7.96l-26.8-48.45l43.96-73.3c1.66-2.77,0.76-6.37-2.01-8.03
			C518.57,356.23,514.96,357.15,513.31,359.91z"/>
		<path class="st1" d="M513.19,439.83L529.32,469c-2.94,2.83-5.87,5.62-8.78,8.35l-19.24-34.8c-1-1.83-0.98-4.06,0.1-5.85
			l162.94-271.7c1.58,5.37,2.83,10.86,3.76,16.48L513.19,439.83z"/>
		<path class="st1" d="M666.57,240.98L546.98,440.4l3.84,6.92c-2.83,2.99-5.69,5.95-8.53,8.83l-7.2-13.02
			c-1-1.83-0.98-4.06,0.1-5.85l134.47-224.26C669.16,222.47,668.13,231.78,666.57,240.98z"/>
		<path class="st1" d="M645.98,309.5c-13.8,31.94-32.56,61.87-53.46,89.16L645.98,309.5z"/>
	</g>
</g>
</svg>
