<?xml version="1.0" encoding="utf-8"?>
<!-- Generator: Adobe Illustrator 25.2.1, SVG Export Plug-In . SVG Version: 6.00 Build 0)  -->
<svg version="1.1" id="katman_1" xmlns="http://www.w3.org/2000/svg" xmlns:xlink="http://www.w3.org/1999/xlink" x="0px" y="0px"
	 viewBox="0 0 595.28 841.89" style="enable-background:new 0 0 595.28 841.89;" xml:space="preserve">
<style type="text/css">
	.st0{fill:#4A53A0;}
</style>
<g>
	<g>
		<g>
			<rect x="202.48" y="653.55" class="st0" width="35.24" height="28.2"/>
		</g>
		<g>
			<rect x="357.55" y="653.55" class="st0" width="35.24" height="28.2"/>
		</g>
	</g>
	<g>
		<rect x="160.19" y="378.65" class="st0" width="274.9" height="42.29"/>
	</g>
	<g>
		<path d="M406.76,660.6H188.51c-19.5,0-35.37-15.87-35.37-35.37V322.39c0-19.5,15.87-35.37,35.37-35.37h218.25
			c19.5,0,35.37,15.87,35.37,35.37v302.84C442.14,644.74,426.27,660.6,406.76,660.6z M188.51,301.12
			c-11.73,0-21.28,9.54-21.28,21.28v302.84c0,11.73,9.54,21.28,21.28,21.28h218.25c11.73,0,21.28-9.55,21.28-21.28V322.39
			c0-11.73-9.54-21.28-21.28-21.28H188.51z"/>
	</g>
	<g>
		<path d="M364.6,301.12H230.67V188.47c0-19.5,15.87-35.37,35.37-35.37h63.18c19.5,0,35.37,15.87,35.37,35.37V301.12z
			 M244.77,287.02H350.5v-98.55c0-11.73-9.54-21.28-21.28-21.28h-63.18c-11.73,0-21.28,9.54-21.28,21.28V287.02z"/>
	</g>
	<g>
		<g>
			<path d="M244.77,688.8h-49.34v-42.29h49.34V688.8z M209.53,674.7h21.15v-14.1h-21.15V674.7z"/>
		</g>
		<g>
			<path d="M399.85,688.8H350.5v-42.29h49.34V688.8z M364.6,674.7h21.15v-14.1H364.6V674.7z"/>
		</g>
	</g>
</g>
</svg>
