<?xml version="1.0" encoding="utf-8"?>
<!-- Generator: Adobe Illustrator 25.2.1, SVG Export Plug-In . SVG Version: 6.00 Build 0)  -->
<svg version="1.1" id="katman_1" xmlns="http://www.w3.org/2000/svg" xmlns:xlink="http://www.w3.org/1999/xlink" x="0px" y="0px"
	 viewBox="0 0 841.89 595.28" style="enable-background:new 0 0 841.89 595.28;" xml:space="preserve">
<style type="text/css">
	.st0{fill:#4A53A0;}
</style>
<g>
	<g>
		<polygon class="st0" points="138.92,422.17 296.8,422.17 296.8,556.71 135.46,556.71 		"/>
		<path class="st0" d="M299.32,559.23H132.88l3.58-139.58h162.86V559.23z M138.05,554.19h156.23v-129.5h-152.9L138.05,554.19z"/>
	</g>
	<g>
		<rect x="655.69" y="293.66" class="st0" width="45.38" height="67.83"/>
	</g>
	<g>
		<rect x="544.77" y="297.06" class="st0" width="95.79" height="60.5"/>
		<path class="st0" d="M643.08,360.08H542.25v-65.54h100.83V360.08z M547.29,355.04h90.75v-55.46h-90.75V355.04z"/>
	</g>
	<g>
		<rect x="650.65" y="102.07" class="st0" width="45.38" height="67.83"/>
	</g>
	<g>
		<path d="M297.35,278.16h-10.08V47.5h414.91v120.92l51.82,0.09v70.57H537.21V168.5l154.89-0.09V57.58H297.35V278.16z M547.29,229
			h196.62v-50.43l-46.78-0.08l-149.84,0.09V229z"/>
	</g>
	<g>
		<path d="M754,430.67H542.25v-71.8h149.1V234.04h10.08V358.8l52.56-0.75V430.67z M552.33,420.58h191.58v-52.3l-47.52,0.67H552.33
			V420.58z"/>
	</g>
	<g>
		<rect x="693.5" y="425.62" width="10.08" height="131.08"/>
	</g>
	<g>
		<rect x="88.5" y="551.67" width="660.46" height="10.08"/>
	</g>
	<g>
		<polygon points="451.97,556.71 441.88,556.71 441.88,339.92 138.92,339.92 138.92,329.83 451.97,329.83 		"/>
	</g>
	<g>
		<rect x="138.92" y="300.61" width="308.01" height="10.08"/>
	</g>
	<g>
		<rect x="138.92" y="359.62" width="153.4" height="10.08"/>
	</g>
	<g>
		<rect x="138.92" y="389.87" width="153.4" height="10.08"/>
	</g>
	<g>
		<rect x="388.48" y="110.52" class="st0" width="62.18" height="89.63"/>
		<path class="st0" d="M453.18,202.67h-67.22V108h67.22V202.67z M391,197.63h57.14v-84.59H391V197.63z"/>
	</g>
	<g>
		<rect x="539.73" y="105.48" class="st0" width="95.79" height="60.5"/>
		<path class="st0" d="M638.04,168.5H537.21v-65.54h100.83V168.5z M542.25,163.46H633V108h-90.75V163.46z"/>
	</g>
	<g>
		<path d="M653.17,561.75h-63.02V449.99h63.02V561.75z M600.23,551.67h42.85v-91.59h-42.85V551.67z"/>
	</g>
	<g>
		<rect x="630.48" y="501.25" width="20.17" height="10.08"/>
	</g>
	<g>
		<rect x="586.22" y="174.94" width="10.08" height="59.1"/>
	</g>
	<g>
		<rect x="586.22" y="366.53" width="10.08" height="59.1"/>
	</g>
</g>
</svg>
