<?xml version="1.0" encoding="UTF-8"?>
<svg id="katman_1" data-name="katman 1" xmlns="http://www.w3.org/2000/svg" viewBox="0 0 1885.56 1367.01">
  <defs>
    <style>
      .cls-1 {
        stroke-width: 1.4px;
      }

      .cls-1, .cls-2 {
        fill: #fff;
      }

      .cls-1, .cls-3 {
        stroke: #1e1f1f;
        stroke-miterlimit: 10;
      }

      .cls-4 {
        fill: #fac428;
      }

      .cls-4, .cls-5, .cls-6, .cls-7, .cls-2, .cls-8 {
        stroke-width: 0px;
      }

      .cls-5 {
        fill: #010101;
      }

      .cls-7 {
        fill: #1e1f1f;
      }

      .cls-8 {
        fill: #1e1e1c;
      }

      .cls-3 {
        fill: none;
        stroke-linecap: round;
        stroke-width: 1.4px;
      }
    </style>
  </defs>
  <g>
    <g>
      <path class="cls-2" d="M926.42,113.86c1.78-1.69,3.11-3.79,3.89-6.12s.97-4.81.56-7.23c-.41-2.42-1.41-4.7-2.9-6.65-1.5-1.94-3.45-3.49-5.68-4.5-2.23-1.01-4.68-1.46-7.13-1.3-2.45.16-4.82.91-6.91,2.21-2.09,1.29-3.83,3.07-5.06,5.2-1.24,2.12-1.93,4.51-2.03,6.97-.66-.15-1.34-.23-2.02-.24-1.41,0-2.8.33-4.06.97-1.26.64-2.35,1.56-3.18,2.7-.83,1.14-1.38,2.46-1.6,3.85-.22,1.39-.11,2.82.32,4.16h35.81Z"/>
      <path class="cls-7" d="M926.42,115.05h-35.8c-.52,0-.97-.33-1.13-.82-.49-1.51-.61-3.14-.36-4.71.25-1.57.88-3.08,1.82-4.36.93-1.28,2.18-2.34,3.6-3.06,1.41-.72,2.99-1.1,4.58-1.1h.02c.31,0,.63.02.94.05.27-2.17.98-4.29,2.08-6.19,1.33-2.28,3.22-4.22,5.46-5.61,2.24-1.39,4.82-2.21,7.45-2.38,2.65-.17,5.3.32,7.7,1.41s4.52,2.77,6.13,4.86c1.61,2.09,2.69,4.57,3.13,7.18.44,2.6.23,5.3-.6,7.81-.83,2.51-2.29,4.79-4.2,6.61-.22.21-.51.33-.82.33ZM891.53,112.67h34.4c1.47-1.49,2.59-3.32,3.25-5.31.71-2.14.89-4.44.51-6.66-.37-2.22-1.3-4.34-2.67-6.12-1.37-1.78-3.18-3.22-5.23-4.15-2.05-.93-4.32-1.35-6.57-1.2-2.24.14-4.44.85-6.36,2.03-1.91,1.18-3.53,2.84-4.66,4.78-1.13,1.95-1.78,4.16-1.87,6.41-.01.35-.18.68-.47.9s-.65.29-.99.21c-.57-.13-1.17-.2-1.76-.21h-.02c-1.2,0-2.42.29-3.5.84-1.09.55-2.04,1.36-2.75,2.34-.72.98-1.2,2.14-1.39,3.34-.15.92-.12,1.87.06,2.79Z"/>
    </g>
    <g>
      <path class="cls-2" d="M936.76,30.65h-5.34c-1.44,0-2.6,1.16-2.6,2.6v14.28c0,1.44,1.16,2.6,2.6,2.6h5.34c1.44,0,2.6-1.17,2.6-2.6v-14.28c0-1.44-1.16-2.6-2.6-2.6Z"/>
      <path class="cls-7" d="M936.75,51.32h-5.34c-2.09,0-3.79-1.7-3.79-3.79v-14.28c0-2.09,1.7-3.79,3.79-3.79h5.34c2.09,0,3.79,1.7,3.79,3.79v14.28c0,2.09-1.7,3.79-3.79,3.79ZM931.42,31.84c-.78,0-1.41.63-1.41,1.41v14.28c0,.78.63,1.41,1.41,1.41h5.34c.78,0,1.41-.63,1.41-1.41v-14.28c0-.78-.63-1.41-1.41-1.41h-5.34Z"/>
    </g>
    <g>
      <path class="cls-2" d="M912.07,113.86h89.96v-48.51c-.03-1.76-.48-3.49-1.31-5.05-.83-1.56-2.02-2.89-3.46-3.9l-38.33-28.16c-.62-.44-1.35-.67-2.11-.67s-1.49.23-2.11.67l-38.23,27.88c-1.47,1.01-2.68,2.37-3.51,3.94-.84,1.58-1.29,3.33-1.31,5.12l.43,48.67Z"/>
      <path class="cls-7" d="M1003.22,115.05h-92.32l-.44-49.85c.02-1.99.52-3.95,1.45-5.69.93-1.74,2.27-3.25,3.89-4.36l38.21-27.87c1.67-1.18,3.96-1.17,5.6-.01l38.35,28.17c1.57,1.09,2.9,2.59,3.81,4.3.92,1.71,1.42,3.64,1.46,5.59v49.72ZM913.25,112.67h87.59v-47.32c-.03-1.55-.44-3.11-1.17-4.49s-1.81-2.59-3.1-3.49l-38.36-28.18c-.8-.56-1.99-.58-2.83.01l-38.22,27.87c-1.33.92-2.42,2.14-3.17,3.54-.75,1.4-1.15,2.99-1.17,4.58l.42,47.47Z"/>
    </g>
    <g>
      <path class="cls-4" d="M962.13,113.86v-30.26c-.01-1.77.33-3.52,1-5.16.68-1.64,1.67-3.12,2.93-4.36,2.06-2.05,4.84-3.19,7.74-3.19s5.68,1.15,7.74,3.19c1.26,1.24,2.26,2.73,2.93,4.36s1.02,3.39,1,5.16v30.26h-23.35Z"/>
      <path class="cls-7" d="M986.33,114.71h-25.05v-31.11c-.02-1.88.34-3.73,1.07-5.48.72-1.75,1.77-3.31,3.12-4.64,2.23-2.22,5.19-3.44,8.34-3.44s6.11,1.22,8.34,3.44c1.35,1.33,2.4,2.89,3.12,4.64.72,1.75,1.08,3.59,1.07,5.49v31.1ZM962.98,113.01h21.65v-29.41c.01-1.68-.3-3.3-.94-4.84-.64-1.54-1.56-2.91-2.74-4.08-1.92-1.9-4.45-2.95-7.15-2.95s-5.23,1.05-7.14,2.95c-1.18,1.17-2.11,2.55-2.74,4.09-.63,1.54-.95,3.17-.94,4.83v29.42Z"/>
    </g>
    <g>
      <circle class="cls-4" cx="939.72" cy="73.77" r="11.33"/>
      <path class="cls-7" d="M939.72,85.95c-6.72,0-12.18-5.46-12.18-12.18s5.47-12.18,12.18-12.18,12.18,5.46,12.18,12.18-5.46,12.18-12.18,12.18ZM939.72,63.29c-5.78,0-10.48,4.7-10.48,10.48s4.7,10.48,10.48,10.48,10.48-4.7,10.48-10.48-4.7-10.48-10.48-10.48Z"/>
    </g>
  </g>
  <g>
    <g>
      <path class="cls-2" d="M18.45,29.65c-.24-.3-.45-.63-.63-.97-.61-1.18-.87-2.51-.76-3.83.16-1.51.83-2.92,1.91-4,1.08-1.07,2.5-1.74,4.01-1.89.91-.09,1.83.02,2.7.31.87.29,1.67.76,2.35,1.38.68.62,1.22,1.37,1.59,2.21.37.84.56,1.74.57,2.66,0,.23-.01.45-.04.68-.16,1.28-.09,2.58.2,3.84l.48,1.92c.04.18.04.37-.01.55-.05.18-.15.34-.28.47-.13.13-.3.22-.48.27-.18.05-.37.05-.55,0l-2.82-.79c-1.02-.26-2.06-.37-3.11-.34-1.04,0-2.07-.25-2.99-.72-.83-.42-1.56-1.01-2.15-1.74h0Z"/>
      <path class="cls-7" d="M29.8,34.48c-.2,0-.4-.03-.6-.08l-2.83-.79c-.88-.22-1.81-.31-2.75-.29-1.27,0-2.49-.3-3.58-.86-.99-.5-1.84-1.19-2.54-2.06h0c-.29-.37-.54-.76-.75-1.17-.72-1.39-1.03-2.95-.89-4.5.19-1.81.99-3.49,2.27-4.75,1.27-1.27,2.96-2.06,4.75-2.23,1.09-.1,2.17.02,3.21.37,1.04.35,1.97.89,2.78,1.63.81.73,1.44,1.61,1.89,2.61.44,1,.67,2.06.67,3.15,0,.28-.02.55-.05.82-.14,1.15-.08,2.3.18,3.42l.48,1.9c.1.4.09.8-.02,1.18-.11.38-.32.72-.6,1-.28.27-.63.47-1.02.57-.19.05-.38.07-.57.07ZM23.97,30.88c1,0,2.03.13,3.03.38l2.6.73-.42-1.66c-.33-1.42-.41-2.85-.23-4.29.02-.17.03-.35.03-.53,0-.75-.16-1.48-.46-2.17-.31-.69-.74-1.29-1.3-1.8-.56-.51-1.2-.88-1.92-1.12-.7-.23-1.46-.32-2.2-.25-1.23.12-2.39.67-3.27,1.54-.88.87-1.43,2.03-1.56,3.26-.1,1.08.12,2.17.63,3.15.14.27.31.53.5.77.48.59,1.06,1.07,1.74,1.41.76.39,1.6.59,2.45.59.13,0,.25,0,.38,0Z"/>
    </g>
    <g>
      <path class="cls-2" d="M97.19,30.44c.24-.3.45-.63.63-.97.61-1.18.87-2.51.76-3.83-.16-1.51-.83-2.92-1.91-4-1.08-1.07-2.5-1.74-4.01-1.89-.91-.09-1.83.02-2.7.31-.87.29-1.67.76-2.35,1.38-.68.62-1.22,1.37-1.59,2.21-.37.84-.56,1.74-.57,2.66,0,.23.01.45.04.68.16,1.28.09,2.58-.2,3.84l-.48,1.92c-.04.18-.04.37.01.55.05.18.15.34.28.47.13.13.3.22.48.27.18.05.37.05.55,0l2.82-.79c1.02-.26,2.06-.37,3.11-.34,1.04,0,2.07-.25,2.99-.72.83-.42,1.56-1.01,2.15-1.74h0Z"/>
      <path class="cls-7" d="M85.83,35.28c-.19,0-.38-.02-.57-.07-.38-.1-.74-.3-1.02-.58-.28-.27-.49-.62-.6-1.01-.11-.37-.12-.78-.02-1.16l.48-1.93c.26-1.1.32-2.25.18-3.4-.03-.28-.05-.55-.05-.83,0-1.1.23-2.16.67-3.15.44-1,1.08-1.88,1.89-2.61.8-.73,1.74-1.28,2.78-1.63,1.03-.34,2.11-.47,3.2-.37,1.79.18,3.48.97,4.75,2.23,1.27,1.27,2.08,2.95,2.26,4.73.14,1.58-.17,3.13-.89,4.52-.21.41-.47.8-.75,1.17h0c-.7.87-1.55,1.57-2.55,2.07-1.09.55-2.31.85-3.54.85-.98-.03-1.91.07-2.82.3l-2.79.78c-.2.06-.41.08-.61.08ZM92.04,20.94c-.58,0-1.16.09-1.71.28-.72.24-1.36.62-1.92,1.12-.56.51-.99,1.11-1.3,1.8-.31.69-.46,1.42-.46,2.17,0,.18.01.36.03.53.18,1.42.1,2.86-.23,4.26l-.42,1.68,2.57-.72c1.16-.29,2.32-.42,3.48-.38.8,0,1.65-.21,2.4-.59.69-.34,1.27-.82,1.75-1.41.19-.24.36-.5.5-.77.51-.98.72-2.08.63-3.17-.13-1.21-.68-2.37-1.56-3.24-.88-.87-2.04-1.42-3.27-1.54-.16-.01-.32-.02-.49-.02ZM97.19,30.44h.02-.02Z"/>
    </g>
    <g>
      <g>
        <g>
          <path class="cls-2" d="M24.54,68.28h12.52v13.75c0,1.36-1.1,2.46-2.46,2.46h-7.6c-1.36,0-2.46-1.1-2.46-2.46v-13.75h0Z"/>
          <path class="cls-7" d="M31.72,85.58h-1.85c-3.54,0-6.42-2.88-6.42-6.42v-11.96h14.69v11.96c0,3.54-2.88,6.42-6.42,6.42ZM25.62,69.36v9.79c0,2.35,1.91,4.25,4.25,4.25h1.85c2.35,0,4.25-1.91,4.25-4.25v-9.79h-10.35Z"/>
        </g>
        <g>
          <path class="cls-2" d="M79.16,68.28h12.52v13.75c0,1.36-1.1,2.46-2.46,2.46h-7.6c-1.36,0-2.46-1.1-2.46-2.46v-13.75h0Z"/>
          <path class="cls-7" d="M86.34,85.58h-1.85c-3.54,0-6.42-2.88-6.42-6.42v-11.96h14.69v11.96c0,3.54-2.88,6.42-6.42,6.42ZM80.24,69.36v9.79c0,2.35,1.91,4.25,4.25,4.25h1.85c2.35,0,4.26-1.91,4.26-4.25v-9.79h-10.35Z"/>
        </g>
      </g>
      <g>
        <path class="cls-4" d="M77.9,1.08h-38.93c-4.12,0-7.65,2.94-8.4,6.99l-3.76,20.34h62.61l-3.07-20.08c-.64-4.17-4.22-7.25-8.44-7.25Z"/>
        <path class="cls-7" d="M90.68,29.5H25.5l4-21.62c.84-4.56,4.82-7.88,9.46-7.88h38.94c4.79,0,8.79,3.44,9.52,8.17l3.26,21.33ZM28.11,27.33h60.04l-2.88-18.83c-.56-3.67-3.66-6.33-7.37-6.33h-38.94c-3.59,0-6.68,2.57-7.33,6.1l-3.53,19.06Z"/>
      </g>
      <g>
        <path class="cls-2" d="M84.57,28.43H31.65c-8.45,0-15.32,6.85-15.32,15.3v17.03c0,4.23,3.42,7.63,7.65,7.63h68.27c4.23,0,7.65-3.4,7.65-7.63v-17.03c0-8.45-6.85-15.3-15.32-15.3ZM33.88,50.29c-3.53,0-6.39-2.86-6.39-6.39s2.86-6.37,6.39-6.37,6.37,2.86,6.37,6.37-2.86,6.39-6.37,6.39ZM82.36,50.29c-3.53,0-6.39-2.86-6.39-6.39s2.86-6.37,6.39-6.37,6.37,2.86,6.37,6.37-2.86,6.39-6.37,6.39Z"/>
        <path class="cls-7" d="M92.24,69.74H23.97c-4.97,0-9-4.03-9-8.98v-17.03c0-9.18,7.48-16.66,16.68-16.66h52.92c9.2,0,16.68,7.47,16.68,16.66v17.03c0,4.95-4.04,8.98-9.01,8.98ZM31.65,29.78c-7.7,0-13.97,6.26-13.97,13.95v17.03c0,3.46,2.82,6.27,6.3,6.27h68.27c3.47,0,6.3-2.81,6.3-6.27v-17.03c0-7.69-6.27-13.95-13.97-13.95H31.65ZM82.36,51.65c-4.27,0-7.75-3.48-7.75-7.75s3.48-7.73,7.75-7.73,7.73,3.47,7.73,7.73-3.47,7.75-7.73,7.75ZM82.36,38.88c-2.78,0-5.04,2.25-5.04,5.02s2.26,5.04,5.04,5.04,5.02-2.26,5.02-5.04-2.25-5.02-5.02-5.02ZM33.88,51.65c-4.27,0-7.75-3.48-7.75-7.75s3.48-7.73,7.75-7.73,7.73,3.47,7.73,7.73-3.47,7.75-7.73,7.75ZM33.88,38.88c-2.78,0-5.04,2.25-5.04,5.02s2.26,5.04,5.04,5.04,5.02-2.26,5.02-5.04-2.25-5.02-5.02-5.02Z"/>
      </g>
      <path class="cls-5" d="M33.88,51.65c-4.27,0-7.75-3.48-7.75-7.75s3.48-7.73,7.75-7.73,7.73,3.47,7.73,7.73-3.47,7.75-7.73,7.75ZM33.88,38.88c-2.78,0-5.04,2.25-5.04,5.02s2.26,5.04,5.04,5.04,5.02-2.26,5.02-5.04-2.25-5.02-5.02-5.02Z"/>
      <path class="cls-5" d="M82.36,51.65c-4.27,0-7.75-3.48-7.75-7.75s3.48-7.73,7.75-7.73,7.73,3.47,7.73,7.73-3.47,7.75-7.73,7.75ZM82.36,38.88c-2.78,0-5.04,2.25-5.04,5.02s2.26,5.04,5.04,5.04,5.02-2.26,5.02-5.04-2.25-5.02-5.02-5.02Z"/>
      <g>
        <g>
          <path class="cls-4" d="M40.25,43.9c0,3.53-2.86,6.39-6.37,6.39s-6.39-2.86-6.39-6.39,2.86-6.37,6.39-6.37,6.37,2.86,6.37,6.37Z"/>
          <path class="cls-7" d="M33.88,51.65c-4.27,0-7.75-3.48-7.75-7.75s3.48-7.73,7.75-7.73,7.73,3.47,7.73,7.73-3.47,7.75-7.73,7.75ZM33.88,38.88c-2.78,0-5.04,2.25-5.04,5.02s2.26,5.04,5.04,5.04,5.02-2.26,5.02-5.04-2.25-5.02-5.02-5.02Z"/>
        </g>
        <g>
          <path class="cls-4" d="M88.73,43.9c0,3.53-2.86,6.39-6.37,6.39s-6.39-2.86-6.39-6.39,2.86-6.37,6.39-6.37,6.37,2.86,6.37,6.37Z"/>
          <path class="cls-7" d="M82.36,51.65c-4.27,0-7.75-3.48-7.75-7.75s3.48-7.73,7.75-7.73,7.73,3.47,7.73,7.73-3.47,7.75-7.73,7.75ZM82.36,38.88c-2.78,0-5.04,2.25-5.04,5.02s2.26,5.04,5.04,5.04,5.02-2.26,5.02-5.04-2.25-5.02-5.02-5.02Z"/>
        </g>
      </g>
      <path class="cls-7" d="M58.11,61.24c-6.68,0-13.36-.23-19.99-.7-.84-.06-1.47-.79-1.41-1.62.06-.84.78-1.45,1.62-1.41,13.12.93,26.43.93,39.55,0,.83-.06,1.56.57,1.62,1.41s-.57,1.56-1.41,1.62c-6.63.47-13.31.7-19.99.7Z"/>
    </g>
  </g>
  <g>
    <g>
      <path class="cls-2" d="M212.4,59.63c-28.21-13.48-51.28-6.14-60.82-2.1-2.98,1.26-4.95,4.14-5.08,7.35-1.16,28.89,8.8,46.03,18.07,55.64.83.86,1.65,1.67,2.47,2.4h24.26c.88-.78,1.72-1.59,2.53-2.4,23.71-24.02,18.84-60.46,18.57-60.89Z"/>
      <path class="cls-7" d="M213.64,58.81l-.22-.35-.38-.17c-27.43-13.11-50.64-6.95-62.05-2.13-3.48,1.48-5.82,4.88-5.98,8.67-.06,1.56-.1,3.1-.1,4.6,0,25.66,8.97,41.64,17.66,51.1.78.86,1.56,1.65,2.32,2.4h4.44c-.84-.73-1.72-1.53-2.61-2.4-9.28-9.15-19.9-26.14-18.71-55.57.1-2.64,1.73-5,4.14-6.03,6.05-2.56,15.54-5.5,27.28-5.5,9.32,0,20.06,1.86,31.61,7.24.59,4.85,3.53,37.99-19.33,59.87-.86.83-1.75,1.62-2.67,2.4h4.44c.81-.78,1.61-1.58,2.39-2.4,7.8-8.32,13.33-18.87,16.24-31.21,3.66-15.48,2.2-29.51,1.53-30.5Z"/>
    </g>
    <path class="cls-7" d="M177.56,106.98l-14.23-10.89c-.66-.5-.78-1.44-.28-2.1.5-.66,1.45-.79,2.1-.28l11.69,8.95,17.05-25.46c.46-.69,1.39-.87,2.08-.41.69.46.87,1.39.41,2.08l-18.83,28.11Z"/>
  </g>
  <path class="cls-7" d="M143.42,85.46c0,1.21-1.35,1.21-1.99,1.21H2c-.7,0-2,0-2-1.21s1.3-1.19,2-1.19h139.43c.64,0,1.99,0,1.99,1.19Z"/>
  <g>
    <path class="cls-4" d="M1793.36,671.82l-12.5,20.93c-1.51,2.59-3.91,4.52-6.67,5.49-.28-.33-.56-.66-.84-1,2.68-.82,5.01-2.63,6.46-5.11l12.5-20.93c.17-.29.54-.38.83-.21.29.17.38.54.21.83Z"/>
    <path class="cls-4" d="M1800.26,660.26l-5.15,8.63c-.11.19-.32.29-.52.29-.1,0-.21-.03-.31-.09-.29-.17-.38-.54-.21-.83l4.64-7.77c.51-.11,1.03-.19,1.56-.23Z"/>
    <path class="cls-4" d="M1782.04,706.11c-.89-.78-1.84-1.63-2.81-2.57l-1.82-3.27c-.16-.29-.06-.66.24-.82.29-.16.66-.06.82.24l3.57,6.43Z"/>
    <path class="cls-4" d="M1777.83,691.6c-1.35,2.06-3.41,3.49-5.75,4.03-.27-.35-.54-.71-.8-1.08,2.26-.37,4.26-1.66,5.53-3.62.18-.28.56-.36.84-.18.28.19.36.56.18.84Z"/>
    <path class="cls-4" d="M1795.95,661.4l-15.21,25.37c-.17.29-.55.38-.84.21-.29-.17-.38-.55-.21-.83l14.11-23.53h0c.67-.47,1.39-.88,2.14-1.22Z"/>
    <path class="cls-4" d="M1788.92,667.21l-13.43,22.4c-1.12,1.95-3.19,3.18-5.41,3.23-.27-.4-.53-.8-.79-1.21h.64c1.84,0,3.57-1.01,4.51-2.63l13.76-22.94c.26.37.5.76.72,1.16Z"/>
    <path class="cls-4" d="M1786.99,664.53l-6.91,11.53c-.11.19-.32.29-.52.29-.11,0-.21-.03-.31-.09-.29-.17-.38-.55-.21-.84l7.07-11.78c.31.28.61.57.89.88Z"/>
    <path class="cls-4" d="M1778.06,679.41l-5.18,8.63c-.63,1.09-1.74,1.75-2.95,1.75h-1.74c-.23-.4-.45-.8-.67-1.22h2.4c.77,0,1.48-.43,1.9-1.16l5.18-8.64c.17-.29.55-.38.84-.21.28.17.38.55.21.83Z"/>
    <path class="cls-4" d="M1784.65,662.52l-14.36,23.94c-.11.18-.31.29-.52.29h-3.14c-.19-.4-.37-.8-.54-1.21h3.34l14.19-23.66c.35.2.7.41,1.03.63Z"/>
    <path class="cls-4" d="M1767.07,683.12c0,.34-.27.61-.61.61h-1.1c-.15-.4-.28-.81-.41-1.22h1.51c.33,0,.61.27.61.61Z"/>
    <path class="cls-4" d="M1777.23,666.62l-7.79,13c-.17.29-.08.66.21.83.1.06.21.09.31.09.21,0,.41-.1.52-.29l7.79-13c.17-.29.08-.66-.21-.83-.29-.17-.66-.08-.83.21Z"/>
    <path class="cls-4" d="M1781.95,661.11l-1.83,3.05c-.17.29-.55.38-.84.21-.29-.17-.38-.55-.21-.83l1.69-2.82c.4.11.8.24,1.18.39Z"/>
    <path class="cls-4" d="M1778.89,660.32l-12.04,20.07c-.11.18-.31.3-.52.3h-1.9c-.1-.4-.2-.81-.28-1.22h1.84l11.55-19.27c.46.02.91.05,1.35.11Z"/>
    <path class="cls-4" d="M1775.35,660.31l-10.22,17.05c-.11.18-.31.29-.52.29h-.79c-.06-.4-.11-.81-.15-1.21h.6l9.49-15.82c.52-.14,1.06-.24,1.6-.31Z"/>
    <path class="cls-4" d="M1770.99,661.68l-6.38,10.64c-.17.29-.55.38-.83.21-.05-.03-.1-.07-.14-.11h0c-.17-.2-.21-.49-.07-.72l.26-.42h0s4.82-8.04,4.82-8.04h0c.72-.59,1.5-1.11,2.34-1.54Z"/>
    <path class="cls-4" d="M1788.3,711.01c-.26-.18-.73-.5-1.36-.97.03-.03.06-.05.09-.07.29-.16.66-.06.82.24l.44.8Z"/>
    <path class="cls-4" d="M1785.93,706.73c.16.29.06.66-.24.83-.29.16-.66.05-.82-.24l-2.3-4.15c-1.67-2.9-1.67-6.51,0-9.42l20.09-33.5c.45.04.88.1,1.31.18l-20.35,33.94c-1.46,2.52-1.46,5.67,0,8.2l2.3,4.16Z"/>
    <path class="cls-4" d="M1786.25,695.88c-.45.78-.69,1.67-.69,2.58s.24,1.81.72,2.64l4.66,8.43c-.37.27-.71.5-1,.7l-4.72-8.53c-.58-1.01-.88-2.1-.88-3.23s.3-2.22.86-3.19l5.65-9.42c.17-.29.54-.38.83-.21.29.17.38.55.21.83l-5.65,9.41Z"/>
    <path class="cls-4" d="M1806.95,661.36l-13.05,21.75c-.17.29-.54.38-.83.21-.29-.17-.38-.54-.21-.83l12.94-21.58c.39.13.77.28,1.14.45Z"/>
    <path class="cls-4" d="M1793.41,707.7c-.34.26-.67.51-.98.74l-1.83-3.31c-.16-.29-.06-.66.24-.82.3-.16.66-.06.83.24l1.75,3.16Z"/>
    <path class="cls-4" d="M1789.68,700.96c.16.29.05.66-.24.82-.3.16-.66.05-.83-.24l-.73-1.33c-.34-.58-.5-1.16-.5-1.76s.16-1.17.45-1.68l20.72-34.55c.34.22.68.45,1,.69l-20.68,34.48c-.18.32-.28.69-.28,1.06s.11.76.34,1.17l.74,1.34Z"/>
    <path class="cls-4" d="M1811.8,665.08l-2.36,3.93c-.17.29-.54.38-.83.21-.29-.17-.38-.55-.21-.83l2.55-4.25c.3.3.58.61.85.94Z"/>
    <path class="cls-4" d="M1807.49,672.27l-15.72,26.21,4.04,7.3c-.33.27-.64.53-.96.78l-4.32-7.8c-.1-.19-.1-.42.01-.61l15.9-26.51c.17-.29.55-.38.83-.21.29.17.38.55.21.84Z"/>
    <path class="cls-4" d="M1813.63,667.94l-11.18,18.64c-.17.29-.55.38-.83.21-.29-.17-.38-.55-.21-.83l11.55-19.25c.25.4.47.81.67,1.24Z"/>
    <path class="cls-4" d="M1798.8,690.31l-4.74,7.9c-.11.19-.12.42-.01.61l2.95,5.33c.11.2.32.31.53.31.1,0,.2-.02.29-.08.29-.16.4-.53.24-.83l-2.78-5.03,4.56-7.6c.17-.29.08-.66-.21-.83-.29-.17-.66-.08-.84.21Z"/>
    <path class="cls-4" d="M1798.79,698.6l1.67,3.03c-.3.29-.61.58-.91.87l-2-3.61c-.1-.19-.1-.42.01-.61l16.9-28.18c.16.56.29,1.13.39,1.71l-16.07,26.8Z"/>
    <path class="cls-4" d="M1814.7,677.97l-12.41,20.69.4.72c-.29.31-.59.62-.88.92l-.75-1.35c-.1-.19-.1-.42.01-.61l13.95-23.26c-.05.98-.16,1.95-.32,2.9Z"/>
    <path class="cls-4" d="M1812.56,685.08c-1.43,3.31-3.38,6.42-5.55,9.25l5.55-9.25Z"/>
  </g>
  <g>
    <circle class="cls-4" cx="1192.99" cy="1332.1" r="7.3"/>
    <circle class="cls-7" cx="1223.46" cy="1332.1" r="7.3"/>
    <circle class="cls-7" cx="1193.31" cy="1359.71" r="7.3"/>
    <circle class="cls-4" cx="1223.77" cy="1359.71" r="7.3"/>
  </g>
  <path class="cls-4" d="M123.64,641.96s-.27,1.18-.78,2.35c-.79,1.82-2.66,4.14-5,6.6-5.99,6.28-15.1,13.42-17.28,15.11-.01.01-.03.02-.04.03-.01,0-.03-.02-.04-.03-2.18-1.69-11.29-8.83-17.28-15.11-2.34-2.46-4.21-4.78-5-6.6-.51-1.17-.78-2.35-.78-2.35-1.29-5.55,1.43-10.3,1.72-10.79.53-.9,1.79-3.03,4.07-4.67,1.14-.82,2.54-1.53,4.22-1.89,4.97-1.08,8.87,1.56,9.54,2.03,1.83,1.29,2.94,2.83,3.56,3.88.62-1.05,1.72-2.59,3.56-3.88.67-.47,4.57-3.11,9.54-2.03,1.69.37,3.08,1.07,4.22,1.89,2.27,1.65,3.53,3.77,4.07,4.67.29.49,3.01,5.24,1.72,10.79Z"/>
  <path class="cls-5" d="M100.54,666.17l-.11-.07c-2.57-2-11.43-8.98-17.29-15.12-2.61-2.74-4.3-4.97-5.03-6.63-.51-1.16-.79-2.35-.79-2.36-1.29-5.54,1.42-10.34,1.73-10.87.54-.91,1.8-3.04,4.1-4.71,1.29-.94,2.73-1.58,4.26-1.91,4.76-1.03,8.57,1.31,9.62,2.05,1.41.99,2.58,2.25,3.49,3.75.91-1.5,2.09-2.76,3.49-3.75,1.05-.74,4.86-3.08,9.62-2.05,1.53.33,2.97.98,4.26,1.91,2.3,1.66,3.56,3.8,4.1,4.71.31.53,3.02,5.33,1.73,10.87h0s-.28,1.2-.79,2.36c-.73,1.67-2.42,3.9-5.03,6.63-5.86,6.14-14.72,13.13-17.29,15.12l-.1.07ZM89.83,624.45c-.76,0-1.55.08-2.37.25-1.5.33-2.91.96-4.18,1.88-2.26,1.64-3.5,3.74-4.04,4.64-.31.52-2.97,5.25-1.71,10.71,0,.01.28,1.18.78,2.33.72,1.64,2.39,3.85,4.98,6.57,5.83,6.1,14.63,13.06,17.24,15.08,2.61-2.02,11.41-8.97,17.24-15.08,2.59-2.72,4.27-4.93,4.98-6.57.5-1.14.77-2.31.78-2.33,1.27-5.46-1.4-10.19-1.71-10.71-.53-.9-1.78-3.01-4.04-4.64-1.27-.92-2.68-1.55-4.18-1.88-4.68-1.02-8.42,1.29-9.45,2.02-1.43,1.01-2.62,2.3-3.53,3.84l-.09.16-.09-.16c-.91-1.54-2.09-2.84-3.53-3.84-.85-.6-3.54-2.27-7.08-2.27Z"/>
  <g>
    <path class="cls-2" d="M132.1,661.31c-4.36,2.89-5.93,3.7-11.1,6.37-1.03.53-2.19,1.14-3.55,1.85-3.29,1.71-4.64,2.78-5.74,3.65-1.14.9-1.97,1.54-4.31,2.37-1.21.42-2.19.67-4.14,1.17-1.79.46-4.51,1.14-9.04,2.39-.72.2-1.12.31-1.37.38-.34.09-.42.12-.65.18-2.97.74-5.98,1.12-9,1.12-.85,0-1.68-.04-2.53-.09-.57-.04-1.14-.13-1.71-.27-6.93-1.8-13.53-4.02-19.63-6.57-.88-.38-1.68-.62-2.39-.85-1.99-.62-3.42-1.07-4.57-3.46-.73-1.48-.61-4.39-.49-7.47.02-.62.05-1.25.06-1.87.05-1.8.27-2.95.79-3.95,1.11-2.17,2.69-3.76,4.38-4.82l.28-.09,4.71-1.18h11.78l5.69.25,1.38.93,11.02,5.91.91.49h.01l.68-.34,4.82,2.58c1.05.55,1.86,1.39,2.38,2.36,3.68-1.64,7.63-3.43,11.46-5.17,3.42-1.54,6.95-3.15,10.27-4.63.59-.26,1.78-.81,1.78-.81.15-.07,3.79-1.79,6.68-.15.35.2,2.14,1.31,2.75,3.49.75,2.75.14,5.08-1.63,6.26Z"/>
    <path class="cls-6" d="M75.56,661.45l-.18.32c3.33,1.85,9.48,5.09,15.15,7.26-5.43-2.37-14.97-7.58-14.97-7.58ZM75.68,661.21l-.12.24.22-.18s-.07-.04-.11-.06ZM133.73,655.05c-.6-2.18-2.39-3.29-2.75-3.49-2.89-1.64-6.53.08-6.68.15,0,0-1.19.55-1.78.81-3.32,1.48-6.86,3.09-10.27,4.63-3.83,1.74-7.79,3.53-11.46,5.17-.52-.97-1.33-1.8-2.38-2.36l-4.82-2.58-12.91-6.93c-.79-.42-1.68-.65-2.59-.65l-15.61-.05c-1.64,0-3.56.53-5.35,1.65-1.7,1.06-3.28,2.65-4.38,4.82-.52,1-.74,2.14-.79,3.95-.01.62-.04,1.25-.06,1.87-.12,3.07-.24,5.98.49,7.47,1.15,2.39,2.58,2.84,4.57,3.46.71.22,1.51.47,2.39.85,6.1,2.56,12.7,4.77,19.63,6.57.57.14,1.14.24,1.71.27.85.06,1.68.09,2.53.09,3.02,0,6.03-.38,9-1.12.22-.06.31-.08.65-.18.25-.07.65-.18,1.37-.38,4.52-1.25,7.25-1.93,9.04-2.39,1.94-.49,2.92-.74,4.14-1.17,2.34-.82,3.17-1.47,4.31-2.37,1.1-.87,2.45-1.94,5.74-3.65,1.35-.71,2.52-1.32,3.55-1.85,5.17-2.67,6.74-3.49,11.1-6.37,1.77-1.18,2.38-3.51,1.63-6.26ZM131.75,660.78c-4.34,2.87-5.88,3.68-11.03,6.35-1.02.53-2.19,1.13-3.56,1.84-3.33,1.74-4.72,2.84-5.83,3.72-1.13.9-1.89,1.48-4.14,2.26-1.18.42-2.14.67-4.08,1.15-1.8.46-4.52,1.14-9.06,2.39-.71.2-1.11.32-1.37.39-.32.08-.4.11-.62.16-3.75.94-7.56,1.28-11.33,1.01-.53-.04-1.07-.13-1.6-.26-6.89-1.79-13.47-3.99-19.53-6.54-.92-.39-1.73-.65-2.45-.87-1.91-.59-3.16-.99-4.19-3.13-.66-1.35-.55-4.18-.44-7.17.02-.62.05-1.26.06-1.89.06-2.11.39-3,.72-3.66,2.17-4.24,6.17-6.14,9.18-6.14l15.61.05c.8,0,1.59.2,2.3.58l11.6,6.22.91.49h.01l5.21,2.79c.29.15.57.33.81.54t.02.01c1.05.84,1.71,2.04,1.85,3.31.07.52.05,1.04-.08,1.56,0,.06-.01.11-.02.16-.01.05-.02.08-.05.13-.08.29-.19.58-.33.86-.19.38-.4.72-.67,1.01-.35.46-.8.84-1.3,1.11-1.85,1.02-4.01.49-6.04-.22-5.95-2.09-12.87-5.71-16.52-7.73-.04-.02-.07-.04-.11-.06l-.12.24-.18.32c3.33,1.85,9.48,5.09,15.15,7.26.52.2,1.05.4,1.56.58.49.16,1.17.4,1.94.58,1.39.32,3.11.44,4.62-.4.94-.52,1.71-1.34,2.23-2.39.18-.35.32-.73.41-1.11.29-1.15.2-2.33-.24-3.38,3.68-1.63,7.63-3.43,11.45-5.16,3.42-1.54,6.95-3.16,10.27-4.63.59-.26,1.79-.82,1.79-.82.04-.01,3.5-1.64,6.09-.18.32.19,1.92,1.17,2.45,3.12.7,2.49.2,4.51-1.37,5.55Z"/>
  </g>
  <g>
    <rect class="cls-8" x="31.38" y="1328.31" width="82.58" height="1.07"/>
    <g>
      <rect class="cls-4" x="57.3" y="1325.17" width="4.01" height="3.21"/>
      <rect class="cls-4" x="74.93" y="1325.17" width="4.01" height="3.21"/>
    </g>
    <rect class="cls-4" x="52.49" y="1293.92" width="31.25" height="4.81"/>
    <path class="cls-8" d="M80.52,1325.97h-24.81c-2.22,0-4.02-1.8-4.02-4.02v-34.42c0-2.22,1.8-4.02,4.02-4.02h24.81c2.22,0,4.02,1.8,4.02,4.02v34.42c0,2.22-1.8,4.02-4.02,4.02ZM55.71,1285.11c-1.33,0-2.42,1.08-2.42,2.42v34.42c0,1.33,1.08,2.42,2.42,2.42h24.81c1.33,0,2.42-1.09,2.42-2.42v-34.43c0-1.33-1.08-2.42-2.42-2.42h-24.81Z"/>
    <path class="cls-8" d="M75.73,1285.11h-15.22v-12.81c0-2.22,1.8-4.02,4.02-4.02h7.18c2.22,0,4.02,1.8,4.02,4.02v12.81h0ZM62.11,1283.51h12.02v-11.2c0-1.33-1.08-2.42-2.42-2.42h-7.18c-1.33,0-2.42,1.08-2.42,2.42v11.2h0Z"/>
    <g>
      <path class="cls-8" d="M62.11,1329.18h-5.61v-4.81h5.61v4.81ZM58.1,1327.58h2.4v-1.6h-2.4v1.6Z"/>
      <path class="cls-8" d="M79.73,1329.18h-5.61v-4.81h5.61v4.81h0ZM75.73,1327.58h2.4v-1.6h-2.4v1.6Z"/>
    </g>
    <g>
      <path class="cls-1" d="M83.59,1321.86c-2.3-1.11-12.49-7.04-11.79-24.47.05-1.2.78-2.26,1.88-2.73,3.55-1.51,12.13-4.23,22.61.78.12.18,2.51,18.23-11.83,26.39-.27.15-.6.16-.88.03Z"/>
      <path class="cls-3" d="M78.39,1308.55l4.82,3.69,6.67-9.96"/>
    </g>
  </g>
  <g>
    <path class="cls-7" d="M974.84,685.61h-23.51c-2.31,0-4.19-1.88-4.19-4.19v-63.29c0-2.31,1.88-4.19,4.19-4.19h23.51c2.31,0,4.19,1.88,4.19,4.19v63.29c0,2.31-1.88,4.19-4.19,4.19ZM951.33,616.17c-1.08,0-1.96.88-1.96,1.96v63.29c0,1.08.88,1.96,1.96,1.96h23.51c1.08,0,1.96-.88,1.96-1.96v-63.29c0-1.08-.88-1.96-1.96-1.96h-23.51Z"/>
    <path class="cls-7" d="M997.29,685.61h-23.51c-.62,0-1.11-.5-1.11-1.11s.5-1.11,1.11-1.11h23.51c1.08,0,1.96-.88,1.96-1.97v-29c0-1.09-.88-1.97-1.96-1.97h-19.38c-.62,0-1.11-.5-1.11-1.11s.5-1.11,1.11-1.11h19.38c2.31,0,4.19,1.88,4.19,4.2v29c0,2.31-1.88,4.2-4.19,4.2Z"/>
    <path class="cls-7" d="M952.19,685.61h-23.51c-2.31,0-4.2-1.88-4.2-4.2v-19.03c0-2.31,1.88-4.18,4.2-4.18h19.57c.62,0,1.11.5,1.11,1.11s-.5,1.11-1.11,1.11h-19.57c-1.09,0-1.97.88-1.97,1.96v19.03c0,1.09.88,1.97,1.97,1.97h23.51c.62,0,1.11.5,1.11,1.11s-.5,1.11-1.11,1.11Z"/>
    <rect class="cls-4" x="954.47" y="622.48" width="7.01" height="9.47" rx=".76" ry=".76"/>
    <rect class="cls-4" x="964.32" y="622.48" width="7.01" height="9.47" rx=".76" ry=".76"/>
    <rect class="cls-4" x="954.47" y="634.85" width="7.01" height="9.47" rx=".76" ry=".76"/>
    <rect class="cls-4" x="964.32" y="634.85" width="7.01" height="9.47" rx=".76" ry=".76"/>
    <rect class="cls-4" x="954.47" y="647.22" width="7.01" height="9.47" rx=".76" ry=".76"/>
    <rect class="cls-4" x="964.32" y="647.22" width="7.01" height="9.47" rx=".76" ry=".76"/>
    <rect class="cls-4" x="954.47" y="659.6" width="7.01" height="9.47" rx=".76" ry=".76"/>
    <rect class="cls-7" x="933.08" y="673.49" width="7.48" height="10.62" rx=".76" ry=".76"/>
    <rect class="cls-7" x="985.17" y="673.49" width="7.48" height="10.62" rx=".76" ry=".76"/>
    <rect class="cls-7" x="958.24" y="673.49" width="9.31" height="10.62" rx=".76" ry=".76"/>
    <rect class="cls-4" x="964.32" y="659.6" width="7.01" height="9.47" rx=".76" ry=".76"/>
  </g>
  <g>
    <g>
      <path class="cls-2" d="M1819.1,29.36h-5.34c-1.44,0-2.6,1.16-2.6,2.6v14.28c0,1.44,1.16,2.6,2.6,2.6h5.34c1.44,0,2.6-1.17,2.6-2.6v-14.28c0-1.44-1.16-2.6-2.6-2.6Z"/>
      <path class="cls-7" d="M1819.1,50.03h-5.34c-2.09,0-3.79-1.7-3.79-3.79v-14.28c0-2.09,1.7-3.79,3.79-3.79h5.34c2.09,0,3.79,1.7,3.79,3.79v14.28c0,2.09-1.7,3.79-3.79,3.79ZM1813.76,30.54c-.78,0-1.41.63-1.41,1.41v14.28c0,.78.63,1.41,1.41,1.41h5.34c.78,0,1.41-.63,1.41-1.41v-14.28c0-.78-.63-1.41-1.41-1.41h-5.34Z"/>
    </g>
    <g>
      <path class="cls-2" d="M1794.42,112.57h89.96v-48.51c-.03-1.76-.48-3.49-1.31-5.05-.83-1.56-2.02-2.89-3.46-3.9l-38.33-28.16c-.62-.44-1.35-.67-2.11-.67s-1.49.23-2.11.67l-38.23,27.88c-1.47,1.01-2.68,2.37-3.51,3.94-.84,1.58-1.29,3.33-1.31,5.12l.43,48.67Z"/>
      <path class="cls-7" d="M1885.56,113.76h-92.32l-.44-49.85c.02-1.99.52-3.95,1.45-5.69.93-1.74,2.27-3.25,3.89-4.36l38.21-27.87c1.67-1.18,3.96-1.17,5.6-.01l38.35,28.17c1.57,1.09,2.9,2.59,3.81,4.3.92,1.71,1.42,3.64,1.46,5.59v49.72ZM1795.6,111.38h87.59v-47.32c-.03-1.55-.44-3.11-1.17-4.49-.74-1.38-1.81-2.59-3.1-3.49l-38.36-28.18c-.8-.56-1.99-.58-2.83.01l-38.22,27.87c-1.33.92-2.42,2.14-3.17,3.54-.75,1.4-1.15,2.99-1.17,4.58l.42,47.47Z"/>
    </g>
    <g>
      <path class="cls-4" d="M1844.47,112.57v-30.26c-.01-1.77.33-3.52,1-5.16.68-1.64,1.67-3.12,2.93-4.36,2.06-2.05,4.84-3.19,7.74-3.19s5.68,1.15,7.74,3.19c1.26,1.24,2.26,2.73,2.93,4.36s1.02,3.39,1,5.16v30.26h-23.35Z"/>
      <path class="cls-7" d="M1868.67,113.42h-25.05v-31.11c-.02-1.88.34-3.73,1.07-5.48.72-1.75,1.77-3.31,3.12-4.64,2.23-2.22,5.19-3.44,8.34-3.44s6.11,1.22,8.34,3.44c1.35,1.33,2.4,2.89,3.12,4.64.72,1.75,1.08,3.59,1.07,5.49v31.1ZM1845.32,111.72h21.65v-29.41c.01-1.68-.3-3.3-.94-4.84-.64-1.54-1.56-2.91-2.74-4.08-1.92-1.9-4.45-2.95-7.15-2.95s-5.23,1.05-7.14,2.95c-1.18,1.17-2.11,2.55-2.74,4.09-.63,1.54-.95,3.17-.94,4.83v29.42Z"/>
    </g>
    <g>
      <circle class="cls-4" cx="1822.07" cy="72.48" r="11.33"/>
      <path class="cls-7" d="M1822.07,84.66c-6.72,0-12.18-5.46-12.18-12.18s5.47-12.18,12.18-12.18,12.18,5.46,12.18,12.18-5.46,12.18-12.18,12.18ZM1822.07,62c-5.78,0-10.48,4.7-10.48,10.48s4.7,10.48,10.48,10.48,10.48-4.7,10.48-10.48-4.7-10.48-10.48-10.48Z"/>
    </g>
  </g>
</svg>