<?xml version="1.0" encoding="UTF-8"?>
<svg id="katman_1" data-name="katman 1" xmlns="http://www.w3.org/2000/svg" viewBox="0 0 143.42 89.29">
  <defs>
    <style>
      .cls-1 {
        fill: #fac428;
      }

      .cls-1, .cls-2, .cls-3 {
        stroke-width: 0px;
      }

      .cls-2 {
        fill: #1e1f1f;
      }

      .cls-3 {
        fill: #fff;
      }
    </style>
  </defs>
  <g>
    <g>
      <path class="cls-3" d="M51.48,4.28h-5.38c-1.45,0-2.62,1.17-2.62,2.62v14.38c0,1.45,1.17,2.62,2.62,2.62h5.38c1.45,0,2.62-1.17,2.62-2.62V6.9c0-1.45-1.17-2.62-2.62-2.62Z"/>
      <path class="cls-2" d="M51.48,25.1h-5.38c-2.1,0-3.82-1.71-3.82-3.82V6.9c0-2.1,1.71-3.82,3.82-3.82h5.38c2.1,0,3.82,1.71,3.82,3.82v14.38c0,2.1-1.71,3.82-3.82,3.82ZM46.11,5.48c-.78,0-1.42.64-1.42,1.42v14.38c0,.79.64,1.43,1.42,1.43h5.38c.78,0,1.42-.64,1.42-1.43V6.9c0-.79-.64-1.42-1.42-1.42h-5.38Z"/>
    </g>
    <g>
      <path class="cls-3" d="M26.62,88.1h90.61v-48.86c-.03-1.78-.49-3.52-1.32-5.09-.84-1.57-2.03-2.91-3.49-3.93L73.81,1.86c-.62-.44-1.36-.67-2.12-.67s-1.5.24-2.12.67L31.05,29.94c-1.48,1.02-2.69,2.38-3.54,3.97-.85,1.59-1.3,3.36-1.32,5.16l.43,49.02Z"/>
      <path class="cls-2" d="M118.43,89.29H25.44l-.44-50.21c.02-2,.53-3.98,1.46-5.73.93-1.75,2.29-3.27,3.92-4.4L68.86.89c1.68-1.19,3.99-1.18,5.64-.01l38.63,28.38c1.58,1.1,2.92,2.6,3.84,4.33.92,1.72,1.43,3.67,1.47,5.63v50.08ZM27.81,86.9h88.23v-47.67c-.03-1.56-.44-3.13-1.18-4.52-.74-1.39-1.82-2.61-3.12-3.51L73.1,2.82c-.81-.57-2.01-.58-2.85.01L31.75,30.91c-1.34.93-2.44,2.15-3.19,3.57-.75,1.41-1.16,3.01-1.18,4.61l.42,47.81Z"/>
    </g>
    <g>
      <path class="cls-1" d="M77.04,88.1v-30.48c-.01-1.78.33-3.55,1.01-5.2.68-1.65,1.68-3.14,2.95-4.39,2.07-2.06,4.88-3.22,7.8-3.22s5.72,1.16,7.8,3.22c1.27,1.25,2.27,2.75,2.95,4.39s1.02,3.42,1.01,5.2v30.48h-23.52Z"/>
      <path class="cls-2" d="M101.41,88.95h-25.23v-31.33c-.02-1.9.35-3.76,1.07-5.52.73-1.76,1.78-3.34,3.14-4.68,2.25-2.23,5.23-3.46,8.4-3.46s6.15,1.23,8.4,3.47c1.35,1.34,2.41,2.91,3.14,4.67.73,1.76,1.09,3.62,1.08,5.53v31.33ZM77.89,87.24h21.81v-29.63c.01-1.69-.31-3.33-.95-4.87-.64-1.55-1.57-2.93-2.76-4.11-1.93-1.92-4.48-2.97-7.2-2.97s-5.27,1.05-7.2,2.97c-1.19,1.18-2.12,2.56-2.76,4.11-.64,1.55-.96,3.19-.94,4.86v29.63Z"/>
    </g>
    <g>
      <circle class="cls-1" cx="54.47" cy="47.72" r="11.41"/>
      <path class="cls-2" d="M54.47,59.99c-6.76,0-12.27-5.5-12.27-12.27s5.5-12.27,12.27-12.27,12.27,5.5,12.27,12.27-5.5,12.27-12.27,12.27ZM54.47,37.16c-5.82,0-10.56,4.74-10.56,10.56s4.74,10.56,10.56,10.56,10.56-4.74,10.56-10.56-4.74-10.56-10.56-10.56Z"/>
    </g>
  </g>
  <path class="cls-2" d="M143.42,88.08c0,1.21-1.35,1.21-1.99,1.21H2c-.7,0-2,0-2-1.21s1.3-1.19,2-1.19h139.43c.64,0,1.99,0,1.99,1.19Z"/>
</svg>