<?xml version="1.0" encoding="UTF-8"?>
<svg id="katman_1" data-name="katman 1" xmlns="http://www.w3.org/2000/svg" viewBox="0 0 128.64 88.46">
  <defs>
    <style>
      .cls-1 {
        fill: #fac428;
      }

      .cls-1, .cls-2, .cls-3, .cls-4 {
        stroke-width: 0px;
      }

      .cls-2 {
        fill: #010101;
      }

      .cls-4 {
        fill: #fff;
      }
    </style>
  </defs>
  <path class="cls-1" d="M112.37,27.72s-.43,1.84-1.22,3.67c-1.24,2.84-4.16,6.48-7.83,10.32-9.38,9.82-23.62,20.99-27.03,23.64-.02.02-.04.03-.06.05-.02-.01-.04-.03-.06-.05-3.41-2.64-17.65-13.81-27.03-23.64-3.67-3.85-6.59-7.48-7.83-10.32-.79-1.83-1.22-3.67-1.22-3.67-2.02-8.68,2.24-16.11,2.69-16.88.83-1.41,2.8-4.74,6.36-7.31,1.78-1.29,3.97-2.39,6.6-2.96,7.78-1.69,13.87,2.44,14.92,3.18,2.87,2.02,4.6,4.43,5.56,6.07.96-1.64,2.7-4.05,5.56-6.07,1.05-.74,7.14-4.87,14.92-3.18,2.64.57,4.82,1.67,6.6,2.96,3.56,2.58,5.53,5.9,6.36,7.31.45.77,4.71,8.19,2.69,16.88Z"/>
  <path class="cls-2" d="M76.24,65.6l-.18-.12c-4.03-3.12-17.88-14.05-27.05-23.65-4.08-4.28-6.73-7.77-7.86-10.37-.79-1.82-1.23-3.68-1.23-3.7-2.01-8.67,2.22-16.18,2.71-17,.84-1.43,2.82-4.76,6.41-7.36,2.02-1.46,4.27-2.47,6.67-2.99,7.45-1.62,13.41,2.05,15.06,3.21,2.2,1.55,4.04,3.52,5.47,5.87,1.42-2.35,3.26-4.32,5.47-5.87,1.65-1.16,7.6-4.82,15.06-3.21,2.4.52,4.64,1.53,6.67,2.99,3.59,2.6,5.56,5.94,6.41,7.36.49.83,4.72,8.34,2.71,17h0s-.44,1.88-1.23,3.7c-1.14,2.61-3.78,6.1-7.86,10.37-9.16,9.6-23.02,20.53-27.05,23.65l-.15.12ZM59.49.34c-1.18,0-2.42.12-3.71.4-2.35.51-4.55,1.5-6.54,2.93-3.53,2.56-5.48,5.85-6.31,7.26-.48.82-4.65,8.21-2.67,16.75,0,.02.43,1.85,1.21,3.64,1.12,2.57,3.74,6.03,7.79,10.27,9.11,9.55,22.89,20.42,26.97,23.58,4.08-3.16,17.85-14.04,26.97-23.58,4.05-4.25,6.67-7.71,7.79-10.27.78-1.79,1.21-3.62,1.21-3.64,1.98-8.54-2.19-15.94-2.67-16.75-.83-1.41-2.78-4.7-6.31-7.26-1.99-1.44-4.19-2.42-6.54-2.93-7.32-1.59-13.17,2.01-14.79,3.15-2.24,1.58-4.1,3.6-5.52,6.01l-.15.25-.15-.25c-1.42-2.41-3.28-4.44-5.52-6.01-1.33-.94-5.54-3.55-11.08-3.55Z"/>
  <g>
    <path class="cls-4" d="M125.6,58c-6.82,4.52-9.27,5.79-17.36,9.97-1.6.83-3.43,1.79-5.55,2.89-5.14,2.67-7.26,4.35-8.97,5.71-1.79,1.4-3.08,2.41-6.75,3.7-1.9.66-3.43,1.05-6.47,1.82-2.8.72-7.06,1.79-14.13,3.74-1.12.31-1.75.48-2.14.59-.53.15-.66.18-1.01.28-4.64,1.16-9.36,1.75-14.08,1.75-1.33,0-2.64-.06-3.96-.15-.88-.06-1.79-.2-2.67-.42-10.84-2.82-21.16-6.28-30.7-10.28-1.38-.59-2.64-.98-3.74-1.33-3.11-.98-5.34-1.68-7.15-5.42-1.14-2.32-.96-6.87-.77-11.68.04-.98.07-1.95.09-2.93.07-2.82.42-4.61,1.23-6.17,1.73-3.39,4.2-5.88,6.86-7.54l.44-.15,7.37-1.84h18.43l8.9.39,2.16,1.46,17.23,9.25,1.42.77h.02l1.07-.53,7.54,4.04c1.64.87,2.91,2.17,3.72,3.69,5.75-2.56,11.94-5.36,17.93-8.09,5.34-2.41,10.87-4.92,16.07-7.24.92-.41,2.78-1.27,2.78-1.27.24-.11,5.93-2.8,10.45-.24.55.31,3.35,2.05,4.29,5.45,1.18,4.29.22,7.94-2.54,9.79Z"/>
    <path class="cls-3" d="M37.16,58.22l-.28.5c5.22,2.89,14.84,7.96,23.7,11.35-8.5-3.7-23.42-11.85-23.42-11.85ZM37.35,57.85l-.18.37.35-.28c-.06-.04-.11-.06-.17-.09ZM128.14,48.21c-.94-3.41-3.74-5.14-4.29-5.45-4.52-2.56-10.21.13-10.45.24,0,0-1.86.87-2.78,1.27-5.2,2.32-10.73,4.83-16.07,7.24-5.99,2.73-12.18,5.53-17.93,8.09-.81-1.51-2.08-2.82-3.72-3.69l-7.54-4.04-20.2-10.84c-1.23-.66-2.64-1.01-4.05-1.01l-24.42-.07c-2.56,0-5.57.83-8.37,2.58-2.65,1.66-5.12,4.15-6.86,7.54-.81,1.57-1.16,3.35-1.23,6.17-.02.98-.06,1.95-.09,2.93-.18,4.81-.37,9.36.77,11.68,1.81,3.74,4.04,4.44,7.15,5.42,1.11.35,2.36.74,3.74,1.33,9.55,4,19.87,7.46,30.7,10.28.88.22,1.79.37,2.67.42,1.33.09,2.64.15,3.96.15,4.72,0,9.44-.59,14.08-1.75.35-.09.48-.13,1.01-.28.39-.11,1.01-.28,2.14-.59,7.08-1.95,11.33-3.02,14.13-3.74,3.04-.77,4.57-1.16,6.47-1.82,3.67-1.29,4.96-2.3,6.75-3.7,1.71-1.36,3.83-3.04,8.97-5.71,2.12-1.11,3.94-2.06,5.55-2.89,8.09-4.18,10.54-5.46,17.36-9.97,2.76-1.84,3.72-5.49,2.54-9.79ZM125.05,57.17c-6.78,4.5-9.2,5.75-17.25,9.93-1.6.83-3.43,1.77-5.57,2.87-5.22,2.73-7.39,4.44-9.12,5.82-1.77,1.4-2.95,2.32-6.47,3.54-1.84.66-3.35,1.05-6.38,1.81-2.82.72-7.08,1.79-14.17,3.74-1.11.31-1.73.5-2.14.61-.5.13-.63.17-.98.26-5.86,1.47-11.83,2.01-17.73,1.58-.83-.06-1.68-.2-2.51-.41-10.78-2.8-21.06-6.25-30.56-10.23-1.44-.61-2.71-1.01-3.83-1.36-2.99-.92-4.94-1.55-6.56-4.9-1.03-2.12-.87-6.54-.68-11.22.04-.98.07-1.97.09-2.95.09-3.3.61-4.7,1.12-5.73,3.39-6.63,9.66-9.6,14.36-9.6l24.42.07c1.25,0,2.49.31,3.59.9l18.15,9.73,1.42.77h.02l8.15,4.37c.46.24.88.52,1.27.85t.04.02c1.64,1.31,2.67,3.19,2.89,5.18.11.81.07,1.62-.13,2.43,0,.09-.02.17-.04.26-.02.07-.04.13-.07.2-.13.46-.29.9-.52,1.35-.29.59-.63,1.12-1.05,1.58-.55.72-1.25,1.31-2.03,1.73-2.89,1.6-6.27.77-9.45-.35-9.31-3.26-20.12-8.94-25.84-12.09-.06-.04-.11-.06-.17-.09l-.18.37-.28.5c5.22,2.89,14.84,7.96,23.7,11.35.81.31,1.64.63,2.43.9.77.26,1.82.63,3.04.9,2.17.5,4.87.68,7.22-.63,1.47-.81,2.67-2.1,3.48-3.74.28-.55.5-1.14.64-1.73.46-1.81.31-3.65-.37-5.29,5.75-2.54,11.94-5.36,17.91-8.07,5.34-2.41,10.87-4.94,16.07-7.24.92-.41,2.8-1.29,2.8-1.29.06-.02,5.47-2.56,9.53-.28.5.29,3,1.82,3.83,4.88,1.09,3.89.31,7.06-2.14,8.68Z"/>
  </g>
</svg>