<?xml version="1.0" encoding="UTF-8"?>
<svg id="katman_1" data-name="katman 1" xmlns="http://www.w3.org/2000/svg" viewBox="0 0 143.42 86.67">
  <defs>
    <style>
      .cls-1 {
        fill: #fac428;
      }

      .cls-1, .cls-2, .cls-3, .cls-4 {
        stroke-width: 0px;
      }

      .cls-2 {
        fill: #010101;
      }

      .cls-3 {
        fill: #1e1f1f;
      }

      .cls-4 {
        fill: #fff;
      }
    </style>
  </defs>
  <g>
    <g>
      <path class="cls-4" d="M18.45,29.65c-.24-.3-.45-.63-.63-.97-.61-1.18-.87-2.51-.76-3.83.16-1.51.83-2.92,1.91-4,1.08-1.07,2.5-1.74,4.01-1.89.91-.09,1.83.02,2.7.31.87.29,1.67.76,2.35,1.38.68.62,1.22,1.37,1.59,2.21.37.84.56,1.74.57,2.66,0,.23-.01.45-.04.68-.16,1.28-.09,2.58.2,3.84l.48,1.92c.04.18.04.37-.01.55-.05.18-.15.34-.28.47-.13.13-.3.22-.48.27-.18.05-.37.05-.55,0l-2.82-.79c-1.02-.26-2.06-.37-3.11-.34-1.04,0-2.07-.25-2.99-.72-.83-.42-1.56-1.01-2.15-1.74h0Z"/>
      <path class="cls-3" d="M29.8,34.48c-.2,0-.4-.03-.6-.08l-2.83-.79c-.88-.22-1.81-.31-2.75-.29-1.27,0-2.49-.3-3.58-.86-.99-.5-1.84-1.19-2.54-2.06h0c-.29-.37-.54-.76-.75-1.17-.72-1.39-1.03-2.95-.89-4.5.19-1.81.99-3.49,2.27-4.75,1.27-1.27,2.96-2.06,4.75-2.23,1.09-.1,2.17.02,3.21.37,1.04.35,1.97.89,2.78,1.63.81.73,1.44,1.61,1.89,2.61.44,1,.67,2.06.67,3.15,0,.28-.02.55-.05.82-.14,1.15-.08,2.3.18,3.42l.48,1.9c.1.4.09.8-.02,1.18-.11.38-.32.72-.6,1-.28.27-.63.47-1.02.57-.19.05-.38.07-.57.07ZM23.97,30.88c1,0,2.03.13,3.03.38l2.6.73-.42-1.66c-.33-1.42-.41-2.85-.23-4.29.02-.17.03-.35.03-.53,0-.75-.16-1.48-.46-2.17-.31-.69-.74-1.29-1.3-1.8-.56-.51-1.2-.88-1.92-1.12-.7-.23-1.46-.32-2.2-.25-1.23.12-2.39.67-3.27,1.54-.88.87-1.43,2.03-1.56,3.26-.1,1.08.12,2.17.63,3.15.14.27.31.53.5.77.48.59,1.06,1.07,1.74,1.41.76.39,1.6.59,2.45.59.13,0,.25,0,.38,0Z"/>
    </g>
    <g>
      <path class="cls-4" d="M97.19,30.44c.24-.3.45-.63.63-.97.61-1.18.87-2.51.76-3.83-.16-1.51-.83-2.92-1.91-4-1.08-1.07-2.5-1.74-4.01-1.89-.91-.09-1.83.02-2.7.31-.87.29-1.67.76-2.35,1.38-.68.62-1.22,1.37-1.59,2.21-.37.84-.56,1.74-.57,2.66,0,.23.01.45.04.68.16,1.28.09,2.58-.2,3.84l-.48,1.92c-.04.18-.04.37.01.55.05.18.15.34.28.47.13.13.3.22.48.27.18.05.37.05.55,0l2.82-.79c1.02-.26,2.06-.37,3.11-.34,1.04,0,2.07-.25,2.99-.72.83-.42,1.56-1.01,2.15-1.74h0Z"/>
      <path class="cls-3" d="M85.83,35.28c-.19,0-.38-.02-.57-.07-.38-.1-.74-.3-1.02-.58-.28-.27-.49-.62-.6-1.01-.11-.37-.12-.78-.02-1.16l.48-1.93c.26-1.1.32-2.25.18-3.4-.03-.28-.05-.55-.05-.83,0-1.1.23-2.16.67-3.15.44-1,1.08-1.88,1.89-2.61.8-.73,1.74-1.28,2.78-1.63,1.03-.34,2.11-.47,3.2-.37,1.79.18,3.48.97,4.75,2.23,1.27,1.27,2.08,2.95,2.26,4.73.14,1.58-.17,3.13-.89,4.52-.21.41-.47.8-.75,1.17h0c-.7.87-1.55,1.57-2.55,2.07-1.09.55-2.31.85-3.54.85-.98-.03-1.91.07-2.82.3l-2.79.78c-.2.06-.41.08-.61.08ZM92.04,20.94c-.58,0-1.16.09-1.71.28-.72.24-1.36.62-1.92,1.12-.56.51-.99,1.11-1.3,1.8-.31.69-.46,1.42-.46,2.17,0,.18.01.36.03.53.18,1.42.1,2.86-.23,4.26l-.42,1.68,2.57-.72c1.16-.29,2.32-.42,3.48-.38.8,0,1.65-.21,2.4-.59.69-.34,1.27-.82,1.75-1.41.19-.24.36-.5.5-.77.51-.98.72-2.08.63-3.17-.13-1.21-.68-2.37-1.56-3.24-.88-.87-2.04-1.42-3.27-1.54-.16-.01-.32-.02-.49-.02ZM97.19,30.44h.02-.02Z"/>
    </g>
    <g>
      <g>
        <g>
          <path class="cls-4" d="M24.54,68.28h12.52v13.75c0,1.36-1.1,2.46-2.46,2.46h-7.6c-1.36,0-2.46-1.1-2.46-2.46v-13.75h0Z"/>
          <path class="cls-3" d="M31.72,85.58h-1.85c-3.54,0-6.42-2.88-6.42-6.42v-11.96h14.69v11.96c0,3.54-2.88,6.42-6.42,6.42ZM25.62,69.36v9.79c0,2.35,1.91,4.25,4.25,4.25h1.85c2.35,0,4.25-1.91,4.25-4.25v-9.79h-10.35Z"/>
        </g>
        <g>
          <path class="cls-4" d="M79.16,68.28h12.52v13.75c0,1.36-1.1,2.46-2.46,2.46h-7.6c-1.36,0-2.46-1.1-2.46-2.46v-13.75h0Z"/>
          <path class="cls-3" d="M86.34,85.58h-1.85c-3.54,0-6.42-2.88-6.42-6.42v-11.96h14.69v11.96c0,3.54-2.88,6.42-6.42,6.42ZM80.24,69.36v9.79c0,2.35,1.91,4.25,4.25,4.25h1.85c2.35,0,4.26-1.91,4.26-4.25v-9.79h-10.35Z"/>
        </g>
      </g>
      <g>
        <path class="cls-1" d="M77.9,1.08h-38.93c-4.12,0-7.65,2.94-8.4,6.99l-3.76,20.34h62.61l-3.07-20.08c-.64-4.17-4.22-7.25-8.44-7.25Z"/>
        <path class="cls-3" d="M90.68,29.5H25.5l4-21.62c.84-4.56,4.82-7.88,9.46-7.88h38.94c4.79,0,8.79,3.44,9.52,8.17l3.26,21.33ZM28.11,27.33h60.04l-2.88-18.83c-.56-3.67-3.66-6.33-7.37-6.33h-38.94c-3.59,0-6.68,2.57-7.33,6.1l-3.53,19.06Z"/>
      </g>
      <g>
        <path class="cls-4" d="M84.57,28.43H31.65c-8.45,0-15.32,6.85-15.32,15.3v17.03c0,4.23,3.42,7.63,7.65,7.63h68.27c4.23,0,7.65-3.4,7.65-7.63v-17.03c0-8.45-6.85-15.3-15.32-15.3ZM33.88,50.29c-3.53,0-6.39-2.86-6.39-6.39s2.86-6.37,6.39-6.37,6.37,2.86,6.37,6.37-2.86,6.39-6.37,6.39ZM82.36,50.29c-3.53,0-6.39-2.86-6.39-6.39s2.86-6.37,6.39-6.37,6.37,2.86,6.37,6.37-2.86,6.39-6.37,6.39Z"/>
        <path class="cls-3" d="M92.24,69.74H23.97c-4.97,0-9-4.03-9-8.98v-17.03c0-9.18,7.48-16.66,16.68-16.66h52.92c9.2,0,16.68,7.47,16.68,16.66v17.03c0,4.95-4.04,8.98-9.01,8.98ZM31.65,29.78c-7.7,0-13.97,6.26-13.97,13.95v17.03c0,3.46,2.82,6.27,6.3,6.27h68.27c3.47,0,6.3-2.81,6.3-6.27v-17.03c0-7.69-6.27-13.95-13.97-13.95H31.65ZM82.36,51.65c-4.27,0-7.75-3.48-7.75-7.75s3.48-7.73,7.75-7.73,7.73,3.47,7.73,7.73-3.47,7.75-7.73,7.75ZM82.36,38.88c-2.78,0-5.04,2.25-5.04,5.02s2.26,5.04,5.04,5.04,5.02-2.26,5.02-5.04-2.25-5.02-5.02-5.02ZM33.88,51.65c-4.27,0-7.75-3.48-7.75-7.75s3.48-7.73,7.75-7.73,7.73,3.47,7.73,7.73-3.47,7.75-7.73,7.75ZM33.88,38.88c-2.78,0-5.04,2.25-5.04,5.02s2.26,5.04,5.04,5.04,5.02-2.26,5.02-5.04-2.25-5.02-5.02-5.02Z"/>
      </g>
      <path class="cls-2" d="M33.88,51.65c-4.27,0-7.75-3.48-7.75-7.75s3.48-7.73,7.75-7.73,7.73,3.47,7.73,7.73-3.47,7.75-7.73,7.75ZM33.88,38.88c-2.78,0-5.04,2.25-5.04,5.02s2.26,5.04,5.04,5.04,5.02-2.26,5.02-5.04-2.25-5.02-5.02-5.02Z"/>
      <path class="cls-2" d="M82.36,51.65c-4.27,0-7.75-3.48-7.75-7.75s3.48-7.73,7.75-7.73,7.73,3.47,7.73,7.73-3.47,7.75-7.73,7.75ZM82.36,38.88c-2.78,0-5.04,2.25-5.04,5.02s2.26,5.04,5.04,5.04,5.02-2.26,5.02-5.04-2.25-5.02-5.02-5.02Z"/>
      <g>
        <g>
          <path class="cls-1" d="M40.25,43.9c0,3.53-2.86,6.39-6.37,6.39s-6.39-2.86-6.39-6.39,2.86-6.37,6.39-6.37,6.37,2.86,6.37,6.37Z"/>
          <path class="cls-3" d="M33.88,51.65c-4.27,0-7.75-3.48-7.75-7.75s3.48-7.73,7.75-7.73,7.73,3.47,7.73,7.73-3.47,7.75-7.73,7.75ZM33.88,38.88c-2.78,0-5.04,2.25-5.04,5.02s2.26,5.04,5.04,5.04,5.02-2.26,5.02-5.04-2.25-5.02-5.02-5.02Z"/>
        </g>
        <g>
          <path class="cls-1" d="M88.73,43.9c0,3.53-2.86,6.39-6.37,6.39s-6.39-2.86-6.39-6.39,2.86-6.37,6.39-6.37,6.37,2.86,6.37,6.37Z"/>
          <path class="cls-3" d="M82.36,51.65c-4.27,0-7.75-3.48-7.75-7.75s3.48-7.73,7.75-7.73,7.73,3.47,7.73,7.73-3.47,7.75-7.73,7.75ZM82.36,38.88c-2.78,0-5.04,2.25-5.04,5.02s2.26,5.04,5.04,5.04,5.02-2.26,5.02-5.04-2.25-5.02-5.02-5.02Z"/>
        </g>
      </g>
      <path class="cls-3" d="M58.11,61.24c-6.68,0-13.36-.23-19.99-.7-.84-.06-1.47-.79-1.41-1.62.06-.84.78-1.45,1.62-1.41,13.12.93,26.43.93,39.55,0,.83-.06,1.56.57,1.62,1.41s-.57,1.56-1.41,1.62c-6.63.47-13.31.7-19.99.7Z"/>
    </g>
  </g>
  <g>
    <g>
      <path class="cls-4" d="M141.21,23.38c-28.21-13.48-51.28-6.14-60.82-2.1-2.98,1.26-4.95,4.14-5.08,7.35-1.16,28.89,8.8,46.03,18.07,55.64.83.86,1.65,1.67,2.47,2.4h24.26c.88-.78,1.72-1.59,2.53-2.4,23.71-24.02,18.84-60.46,18.57-60.89Z"/>
      <path class="cls-3" d="M142.45,22.55l-.22-.35-.38-.17c-27.43-13.11-50.64-6.95-62.05-2.13-3.48,1.48-5.82,4.88-5.98,8.67-.06,1.56-.1,3.1-.1,4.6,0,25.66,8.97,41.64,17.66,51.1.78.86,1.56,1.65,2.32,2.4h4.44c-.84-.73-1.72-1.53-2.61-2.4-9.28-9.15-19.9-26.14-18.71-55.57.1-2.64,1.73-5,4.14-6.03,6.05-2.56,15.54-5.5,27.28-5.5,9.32,0,20.06,1.86,31.61,7.24.59,4.85,3.53,37.99-19.33,59.87-.86.83-1.75,1.62-2.67,2.4h4.44c.81-.78,1.61-1.58,2.39-2.4,7.8-8.32,13.33-18.87,16.24-31.21,3.66-15.48,2.2-29.51,1.53-30.5Z"/>
    </g>
    <path class="cls-3" d="M106.38,70.72l-14.23-10.89c-.66-.5-.78-1.44-.28-2.1.5-.66,1.45-.79,2.1-.28l11.69,8.95,17.05-25.46c.46-.69,1.39-.87,2.08-.41.69.46.87,1.39.41,2.08l-18.83,28.11Z"/>
  </g>
  <path class="cls-3" d="M143.42,85.46c0,1.21-1.35,1.21-1.99,1.21H2c-.7,0-2,0-2-1.21s1.3-1.19,2-1.19h139.43c.64,0,1.99,0,1.99,1.19Z"/>
</svg>