<?xml version="1.0" encoding="UTF-8"?>
<svg id="katman_1" data-name="katman 1" xmlns="http://www.w3.org/2000/svg" viewBox="0 0 51.54 50.81">
  <defs>
    <style>
      .cls-1 {
        fill: #fac428;
        stroke-width: 0px;
      }
    </style>
  </defs>
  <path class="cls-1" d="M29.88,11.61l-12.5,20.93c-1.51,2.59-3.91,4.52-6.67,5.49-.28-.33-.56-.66-.84-1,2.68-.82,5.01-2.63,6.46-5.11l12.5-20.93c.17-.29.54-.38.83-.21.29.17.38.54.21.83Z"/>
  <path class="cls-1" d="M36.78.05l-5.15,8.63c-.11.19-.32.29-.52.29-.1,0-.21-.03-.31-.09-.29-.17-.38-.54-.21-.83L35.23.29c.51-.11,1.03-.19,1.56-.23Z"/>
  <path class="cls-1" d="M18.56,45.9c-.89-.78-1.84-1.63-2.81-2.57l-1.82-3.27c-.16-.29-.06-.66.24-.82.29-.16.66-.06.82.24l3.57,6.43Z"/>
  <path class="cls-1" d="M14.35,31.39c-1.35,2.06-3.41,3.49-5.75,4.03-.27-.35-.54-.71-.8-1.08,2.26-.37,4.26-1.66,5.53-3.62.18-.28.56-.36.84-.18.28.19.36.56.18.84Z"/>
  <path class="cls-1" d="M32.47,1.19l-15.21,25.37c-.17.29-.55.38-.84.21-.29-.17-.38-.55-.21-.83L30.32,2.41h0c.67-.47,1.39-.88,2.14-1.22Z"/>
  <path class="cls-1" d="M25.44,7.01l-13.43,22.4c-1.12,1.95-3.19,3.18-5.41,3.23-.27-.4-.53-.8-.79-1.21h.64c1.84,0,3.57-1.01,4.51-2.63L24.72,5.85c.26.37.5.76.72,1.16Z"/>
  <path class="cls-1" d="M23.51,4.33l-6.91,11.53c-.11.19-.32.29-.52.29-.11,0-.21-.03-.31-.09-.29-.17-.38-.55-.21-.84l7.07-11.78c.31.28.61.57.89.88Z"/>
  <path class="cls-1" d="M14.58,19.21l-5.18,8.63c-.63,1.09-1.74,1.75-2.95,1.75h-1.74c-.23-.4-.45-.8-.67-1.22h2.4c.77,0,1.48-.43,1.9-1.16l5.18-8.64c.17-.29.55-.38.84-.21.28.17.38.55.21.83Z"/>
  <path class="cls-1" d="M21.17,2.32L6.81,26.26c-.11.18-.31.29-.52.29h-3.14c-.19-.4-.37-.8-.54-1.21h3.34L20.13,1.68c.35.2.7.41,1.03.63Z"/>
  <path class="cls-1" d="M3.6,22.91c0,.34-.27.61-.61.61h-1.1c-.15-.4-.28-.81-.41-1.22h1.51c.33,0,.61.27.61.61Z"/>
  <path class="cls-1" d="M13.75,6.42l-7.79,13c-.17.29-.08.66.21.83.1.06.21.09.31.09.21,0,.41-.1.52-.29l7.79-13c.17-.29.08-.66-.21-.83-.29-.17-.66-.08-.83.21Z"/>
  <path class="cls-1" d="M18.48.9l-1.83,3.05c-.17.29-.55.38-.84.21-.29-.17-.38-.55-.21-.83l1.69-2.82c.4.11.8.24,1.18.39Z"/>
  <path class="cls-1" d="M15.41.11L3.37,20.19c-.11.18-.31.3-.52.3H.95c-.1-.4-.2-.81-.28-1.22h1.84L14.06,0c.46.02.91.05,1.35.11Z"/>
  <path class="cls-1" d="M11.87.1L1.65,17.15c-.11.18-.31.29-.52.29H.34c-.06-.4-.11-.81-.15-1.21h.6L10.27.41c.52-.14,1.06-.24,1.6-.31Z"/>
  <path class="cls-1" d="M7.51,1.47L1.13,12.11c-.17.29-.55.38-.83.21-.05-.03-.1-.07-.14-.11H.16c-.17-.2-.21-.49-.07-.72l.26-.42H.34S5.16,3.02,5.16,3.02h0c.72-.59,1.5-1.11,2.34-1.54Z"/>
  <path class="cls-1" d="M24.82,50.81c-.26-.18-.73-.5-1.36-.97.03-.03.06-.05.09-.07.29-.16.66-.06.82.24l.44.8Z"/>
  <path class="cls-1" d="M22.45,46.52c.16.29.06.66-.24.83-.29.16-.66.05-.82-.24l-2.3-4.15c-1.67-2.9-1.67-6.51,0-9.42L39.18.04c.45.04.88.1,1.31.18l-20.35,33.94c-1.46,2.52-1.46,5.67,0,8.2l2.3,4.16Z"/>
  <path class="cls-1" d="M22.77,35.68c-.45.78-.69,1.67-.69,2.58s.24,1.81.72,2.64l4.66,8.43c-.37.27-.71.5-1,.7l-4.72-8.53c-.58-1.01-.88-2.1-.88-3.23s.3-2.22.86-3.19l5.65-9.42c.17-.29.54-.38.83-.21.29.17.38.55.21.83l-5.65,9.41Z"/>
  <path class="cls-1" d="M43.47,1.16l-13.05,21.75c-.17.29-.54.38-.83.21-.29-.17-.38-.54-.21-.83L42.33.71c.39.13.77.28,1.14.45Z"/>
  <path class="cls-1" d="M29.93,47.5c-.34.26-.67.51-.98.74l-1.83-3.31c-.16-.29-.06-.66.24-.82.3-.16.66-.06.83.24l1.75,3.16Z"/>
  <path class="cls-1" d="M26.2,40.76c.16.29.05.66-.24.82-.3.16-.66.05-.83-.24l-.73-1.33c-.34-.58-.5-1.16-.5-1.76s.16-1.17.45-1.68L45.07,2.02c.34.22.68.45,1,.69l-20.68,34.48c-.18.32-.28.69-.28,1.06s.11.76.34,1.17l.74,1.34Z"/>
  <path class="cls-1" d="M48.32,4.88l-2.36,3.93c-.17.29-.54.38-.83.21-.29-.17-.38-.55-.21-.83l2.55-4.25c.3.3.58.61.85.94Z"/>
  <path class="cls-1" d="M44.02,12.06l-15.72,26.21,4.04,7.3c-.33.27-.64.53-.96.78l-4.32-7.8c-.1-.19-.1-.42.01-.61l15.9-26.51c.17-.29.55-.38.83-.21.29.17.38.55.21.84Z"/>
  <path class="cls-1" d="M50.15,7.73l-11.18,18.64c-.17.29-.55.38-.83.21-.29-.17-.38-.55-.21-.83l11.55-19.25c.25.4.47.81.67,1.24Z"/>
  <path class="cls-1" d="M35.32,30.1l-4.74,7.9c-.11.19-.12.42-.01.61l2.95,5.33c.11.2.32.31.53.31.1,0,.2-.02.29-.08.29-.16.4-.53.24-.83l-2.78-5.03,4.56-7.6c.17-.29.08-.66-.21-.83-.29-.17-.66-.08-.84.21Z"/>
  <path class="cls-1" d="M35.31,38.39l1.67,3.03c-.3.29-.61.58-.91.87l-2-3.61c-.1-.19-.1-.42.01-.61l16.9-28.18c.16.56.29,1.13.39,1.71l-16.07,26.8Z"/>
  <path class="cls-1" d="M51.22,17.77l-12.41,20.69.4.72c-.29.31-.59.62-.88.92l-.75-1.35c-.1-.19-.1-.42.01-.61l13.95-23.26c-.05.98-.16,1.95-.32,2.9Z"/>
  <path class="cls-1" d="M49.08,24.87c-1.43,3.31-3.38,6.42-5.55,9.25l5.55-9.25Z"/>
</svg>