<?xml version="1.0" encoding="UTF-8"?>
<svg id="katman_1" data-name="katman 1" xmlns="http://www.w3.org/2000/svg" viewBox="0 0 131.43 90.2">
  <defs>
    <style>
      .cls-1 {
        fill: #fac428;
      }

      .cls-1, .cls-2, .cls-3, .cls-4, .cls-5 {
        stroke-width: 0px;
      }

      .cls-2 {
        fill: #010101;
      }

      .cls-3 {
        fill: #1e1f1f;
      }

      .cls-4 {
        fill: #fff;
      }

      .cls-5 {
        fill: #1e1e1c;
      }
    </style>
  </defs>
  <rect class="cls-5" y="88.49" width="131.43" height="1.71"/>
  <g>
    <g>
      <path class="cls-4" d="M107.57.92h-7.06c-1.17,0-2.12.95-2.12,2.12s.95,2.12,2.12,2.12h7.06c1.17,0,2.12-.95,2.12-2.12s-.95-2.12-2.12-2.12Z"/>
      <path class="cls-3" d="M107.57,6.07h-7.06c-1.67,0-3.03-1.36-3.03-3.03s1.36-3.03,3.03-3.03h7.06c1.67,0,3.03,1.36,3.03,3.03s-1.36,3.03-3.03,3.03ZM100.51,1.83c-.66,0-1.2.54-1.2,1.2s.54,1.2,1.2,1.2h7.06c.66,0,1.2-.54,1.2-1.2s-.54-1.2-1.2-1.2h-7.06Z"/>
    </g>
    <path class="cls-3" d="M104.04,89.27c-.51,0-.92-.41-.92-.92V26.47c0-.51.41-.92.92-.92s.92.41.92.92v61.88c0,.51-.41.92-.92.92Z"/>
    <g>
      <path class="cls-4" d="M109.85,4h-11.62c-2.33,0-4.23,1.89-4.23,4.23v31.57c0,2.33,1.89,4.23,4.23,4.23h11.62c2.33,0,4.23-1.89,4.23-4.23V8.23c0-2.33-1.89-4.23-4.23-4.23Z"/>
      <path class="cls-3" d="M109.85,44.94h-11.62c-2.84,0-5.14-2.31-5.14-5.14V8.23c0-2.84,2.31-5.14,5.14-5.14h11.62c2.84,0,5.14,2.31,5.14,5.14v31.57c0,2.84-2.31,5.14-5.14,5.14ZM98.23,4.92c-1.83,0-3.31,1.48-3.31,3.31v31.57c0,1.82,1.48,3.31,3.31,3.31h11.62c1.82,0,3.31-1.48,3.31-3.31V8.23c0-1.82-1.48-3.31-3.31-3.31h-11.62Z"/>
    </g>
    <g>
      <path class="cls-1" d="M104.04,15.68c2.02,0,3.66-1.64,3.66-3.66s-1.64-3.66-3.66-3.66-3.66,1.64-3.66,3.66,1.64,3.66,3.66,3.66Z"/>
      <path class="cls-3" d="M104.04,16.5c-2.47,0-4.47-2.01-4.47-4.47s2.01-4.47,4.47-4.47,4.47,2.01,4.47,4.47-2.01,4.47-4.47,4.47ZM104.04,9.19c-1.56,0-2.84,1.27-2.84,2.84s1.27,2.84,2.84,2.84,2.84-1.27,2.84-2.84-1.27-2.84-2.84-2.84Z"/>
    </g>
    <g>
      <path class="cls-1" d="M104.04,27.67c2.02,0,3.66-1.64,3.66-3.66s-1.64-3.66-3.66-3.66-3.66,1.64-3.66,3.66,1.64,3.66,3.66,3.66Z"/>
      <path class="cls-3" d="M104.04,28.49c-2.47,0-4.47-2.01-4.47-4.47s2.01-4.47,4.47-4.47,4.47,2.01,4.47,4.47-2.01,4.47-4.47,4.47ZM104.04,21.18c-1.56,0-2.84,1.27-2.84,2.84s1.27,2.84,2.84,2.84,2.84-1.27,2.84-2.84-1.27-2.84-2.84-2.84Z"/>
    </g>
    <g>
      <path class="cls-1" d="M104.04,39.66c2.02,0,3.66-1.64,3.66-3.66s-1.64-3.66-3.66-3.66-3.66,1.64-3.66,3.66,1.64,3.66,3.66,3.66Z"/>
      <path class="cls-3" d="M104.04,40.48c-2.47,0-4.47-2.01-4.47-4.47s2.01-4.47,4.47-4.47,4.47,2.01,4.47,4.47-2.01,4.47-4.47,4.47ZM104.04,33.17c-1.56,0-2.84,1.27-2.84,2.84s1.27,2.84,2.84,2.84,2.84-1.27,2.84-2.84-1.27-2.84-2.84-2.84Z"/>
    </g>
  </g>
  <g>
    <g>
      <path class="cls-4" d="M26.87,46.9c-.18-.23-.34-.47-.47-.73-.46-.89-.66-1.9-.57-2.9.12-1.14.63-2.21,1.44-3.02.81-.81,1.88-1.31,3.03-1.42.69-.06,1.38.02,2.04.23.66.22,1.26.57,1.77,1.04.51.47.92,1.03,1.2,1.67.28.63.43,1.32.43,2.01,0,.17-.01.34-.03.51-.12.97-.07,1.95.15,2.9l.36,1.45c.03.14.03.28,0,.41-.04.13-.11.26-.21.35-.1.1-.22.17-.36.2-.14.04-.28.03-.41,0l-2.13-.6c-.77-.19-1.56-.28-2.35-.25-.79,0-1.56-.19-2.26-.55-.63-.32-1.18-.76-1.62-1.31h0Z"/>
      <path class="cls-3" d="M35.45,50.55c-.15,0-.3-.02-.45-.06l-2.14-.6c-.66-.17-1.36-.24-2.07-.22-.96,0-1.88-.22-2.7-.64-.75-.38-1.39-.9-1.92-1.55h0c-.22-.28-.41-.57-.57-.89-.54-1.05-.77-2.22-.67-3.4.14-1.36.75-2.63,1.71-3.59.96-.95,2.23-1.55,3.58-1.69.83-.08,1.64.02,2.42.28.78.26,1.49.68,2.1,1.23.61.55,1.09,1.22,1.42,1.97.33.75.51,1.55.51,2.38,0,.21-.01.42-.04.62-.11.87-.06,1.74.14,2.59l.36,1.43c.07.29.07.6-.02.89-.08.29-.24.55-.46.76-.21.21-.48.36-.77.43-.14.04-.29.06-.43.06ZM31.04,47.83c.76,0,1.54.1,2.29.29l1.96.55-.31-1.26c-.25-1.07-.31-2.16-.17-3.24.02-.13.02-.27.02-.4,0-.56-.12-1.11-.35-1.63-.23-.52-.56-.98-.98-1.36-.42-.38-.91-.67-1.45-.85-.54-.18-1.1-.25-1.67-.19-.93.09-1.8.5-2.46,1.16-.66.66-1.08,1.53-1.18,2.46-.07.81.09,1.64.47,2.38.11.21.23.4.38.58.36.45.8.8,1.32,1.06.57.29,1.21.45,1.85.45.09,0,.19,0,.28,0Z"/>
    </g>
    <g>
      <path class="cls-4" d="M86.33,47.5c.18-.23.34-.47.47-.73.46-.89.66-1.9.57-2.9-.12-1.14-.63-2.21-1.44-3.02-.81-.81-1.88-1.31-3.03-1.42-.69-.06-1.38.02-2.04.23-.66.22-1.26.57-1.77,1.04-.51.47-.92,1.03-1.2,1.67-.28.63-.43,1.32-.43,2.01,0,.17.01.34.03.51.12.97.07,1.95-.15,2.9l-.36,1.45c-.03.14-.03.28,0,.41.04.13.11.26.21.35.1.1.22.17.36.2.14.04.28.03.41,0l2.13-.6c.77-.19,1.56-.28,2.35-.25.79,0,1.56-.19,2.26-.55.63-.32,1.18-.76,1.62-1.31h0Z"/>
      <path class="cls-3" d="M77.76,51.15c-.15,0-.29-.02-.43-.05-.29-.08-.56-.23-.77-.43-.21-.2-.37-.46-.45-.75-.08-.29-.09-.59-.02-.88l.37-1.46c.19-.84.24-1.7.13-2.57-.03-.2-.04-.41-.04-.61,0-.84.17-1.64.51-2.39.34-.75.81-1.42,1.42-1.97.61-.55,1.32-.97,2.1-1.23.78-.26,1.59-.35,2.42-.28,1.36.13,2.63.73,3.59,1.69.96.95,1.57,2.22,1.71,3.57.11,1.19-.12,2.37-.67,3.41-.16.31-.35.61-.57.88h0c-.53.66-1.17,1.18-1.92,1.56-.82.42-1.75.64-2.67.64-.73-.02-1.44.06-2.13.23l-2.11.59c-.15.04-.31.06-.46.06ZM82.44,40.32c-.44,0-.87.07-1.28.21-.54.18-1.03.47-1.45.85-.42.38-.75.84-.98,1.36-.23.52-.35,1.07-.35,1.64,0,.12,0,.26.03.4.13,1.08.08,2.16-.17,3.22l-.32,1.27,1.94-.54c.87-.22,1.75-.32,2.63-.29.61,0,1.24-.16,1.81-.45.52-.26.96-.62,1.32-1.06.14-.18.27-.38.38-.58.38-.74.54-1.57.47-2.39-.1-.92-.51-1.79-1.18-2.45-.66-.66-1.54-1.07-2.47-1.16-.13-.01-.25-.02-.38-.02ZM86.33,47.5h.02-.02Z"/>
    </g>
    <g>
      <g>
        <g>
          <path class="cls-4" d="M31.47,76.07h9.46v10.38c0,1.03-.84,1.87-1.87,1.87h-5.72c-1.03,0-1.87-.84-1.87-1.87v-10.38h0Z"/>
          <path class="cls-3" d="M36.9,89.13h-1.39c-2.67,0-4.85-2.18-4.85-4.85v-9.03h11.09v9.03c0,2.67-2.18,4.85-4.85,4.85ZM32.29,76.88v7.39c0,1.77,1.44,3.21,3.21,3.21h1.39c1.77,0,3.21-1.44,3.21-3.21v-7.39h-7.82Z"/>
        </g>
        <g>
          <path class="cls-4" d="M72.72,76.07h9.46v10.38c0,1.03-.84,1.87-1.87,1.87h-5.72c-1.03,0-1.87-.84-1.87-1.87v-10.38h0Z"/>
          <path class="cls-3" d="M78.14,89.13h-1.39c-2.67,0-4.85-2.18-4.85-4.85v-9.03h11.09v9.03c0,2.67-2.18,4.85-4.85,4.85ZM73.54,76.88v7.39c0,1.77,1.44,3.21,3.21,3.21h1.39c1.77,0,3.21-1.44,3.21-3.21v-7.39h-7.82Z"/>
        </g>
      </g>
      <g>
        <path class="cls-1" d="M71.77,25.33h-29.4c-3.11,0-5.78,2.22-6.34,5.28l-2.84,15.36h47.28l-2.32-15.16c-.48-3.15-3.19-5.48-6.38-5.48Z"/>
        <path class="cls-3" d="M81.42,46.78h-49.21l3.02-16.33c.64-3.45,3.64-5.95,7.15-5.95h29.4c3.62,0,6.64,2.6,7.19,6.17l2.46,16.1ZM34.17,45.15h45.34l-2.17-14.22c-.42-2.77-2.76-4.78-5.57-4.78h-29.4c-2.71,0-5.04,1.94-5.54,4.61l-2.66,14.39Z"/>
      </g>
      <g>
        <path class="cls-4" d="M76.8,45.97h-39.96c-6.38,0-11.57,5.17-11.57,11.55v12.86c0,3.19,2.59,5.76,5.78,5.76h51.55c3.19,0,5.78-2.57,5.78-5.76v-12.86c0-6.38-5.17-11.55-11.57-11.55ZM38.53,62.49c-2.67,0-4.83-2.16-4.83-4.83s2.16-4.81,4.83-4.81,4.81,2.16,4.81,4.81-2.16,4.83-4.81,4.83ZM75.14,62.49c-2.67,0-4.83-2.16-4.83-4.83s2.16-4.81,4.83-4.81,4.81,2.16,4.81,4.81-2.16,4.83-4.81,4.83Z"/>
        <path class="cls-3" d="M82.6,77.17H31.05c-3.75,0-6.8-3.04-6.8-6.78v-12.86c0-6.94,5.65-12.58,12.59-12.58h39.96c6.94,0,12.59,5.64,12.59,12.58v12.86c0,3.74-3.05,6.78-6.8,6.78ZM36.84,47c-5.82,0-10.55,4.72-10.55,10.53v12.86c0,2.61,2.13,4.74,4.75,4.74h51.55c2.62,0,4.75-2.13,4.75-4.74v-12.86c0-5.81-4.73-10.53-10.55-10.53h-39.96ZM75.14,63.51c-3.23,0-5.85-2.62-5.85-5.85s2.62-5.83,5.85-5.83,5.83,2.62,5.83,5.83-2.62,5.85-5.83,5.85ZM75.14,53.87c-2.1,0-3.81,1.7-3.81,3.79s1.71,3.8,3.81,3.8,3.79-1.71,3.79-3.8-1.7-3.79-3.79-3.79ZM38.53,63.51c-3.23,0-5.85-2.62-5.85-5.85s2.62-5.83,5.85-5.83,5.83,2.62,5.83,5.83-2.62,5.85-5.83,5.85ZM38.53,53.87c-2.1,0-3.81,1.7-3.81,3.79s1.71,3.8,3.81,3.8,3.79-1.71,3.79-3.8-1.7-3.79-3.79-3.79Z"/>
      </g>
      <path class="cls-2" d="M38.53,63.51c-3.23,0-5.85-2.62-5.85-5.85s2.62-5.83,5.85-5.83,5.83,2.62,5.83,5.83-2.62,5.85-5.83,5.85ZM38.53,53.87c-2.1,0-3.81,1.7-3.81,3.79s1.71,3.8,3.81,3.8,3.79-1.71,3.79-3.8-1.7-3.79-3.79-3.79Z"/>
      <path class="cls-2" d="M75.13,63.51c-3.23,0-5.85-2.62-5.85-5.85s2.62-5.83,5.85-5.83,5.83,2.62,5.83,5.83-2.62,5.85-5.83,5.85ZM75.13,53.87c-2.1,0-3.81,1.7-3.81,3.79s1.71,3.8,3.81,3.8,3.79-1.71,3.79-3.8-1.7-3.79-3.79-3.79Z"/>
      <g>
        <g>
          <path class="cls-1" d="M43.34,57.66c0,2.67-2.16,4.83-4.81,4.83s-4.83-2.16-4.83-4.83,2.16-4.81,4.83-4.81,4.81,2.16,4.81,4.81Z"/>
          <path class="cls-3" d="M38.53,63.51c-3.23,0-5.85-2.62-5.85-5.85s2.62-5.83,5.85-5.83,5.83,2.62,5.83,5.83-2.62,5.85-5.83,5.85ZM38.53,53.87c-2.1,0-3.81,1.7-3.81,3.79s1.71,3.8,3.81,3.8,3.79-1.71,3.79-3.8-1.7-3.79-3.79-3.79Z"/>
        </g>
        <g>
          <path class="cls-1" d="M79.95,57.66c0,2.67-2.16,4.83-4.81,4.83s-4.83-2.16-4.83-4.83,2.16-4.81,4.83-4.81,4.81,2.16,4.81,4.81Z"/>
          <path class="cls-3" d="M75.13,63.51c-3.23,0-5.85-2.62-5.85-5.85s2.62-5.83,5.85-5.83,5.83,2.62,5.83,5.83-2.62,5.85-5.83,5.85ZM75.13,53.87c-2.1,0-3.81,1.7-3.81,3.79s1.71,3.8,3.81,3.8,3.79-1.71,3.79-3.8-1.7-3.79-3.79-3.79Z"/>
        </g>
      </g>
      <path class="cls-3" d="M56.82,70.75c-5.04,0-10.09-.18-15.09-.53-.63-.04-1.11-.59-1.06-1.22.04-.63.59-1.1,1.22-1.06,9.91.7,19.96.7,29.87,0,.66-.03,1.18.43,1.22,1.06s-.43,1.18-1.06,1.22c-5.01.35-10.05.53-15.1.53Z"/>
    </g>
  </g>
</svg>