<?xml version="1.0" encoding="UTF-8"?>
<svg id="katman_1" data-name="katman 1" xmlns="http://www.w3.org/2000/svg" viewBox="0 0 55 55">
  <defs>
    <style>
      .cls-1 {
        fill: #fff;
        stroke-width: 1.4px;
      }

      .cls-1, .cls-2 {
        stroke: #1e1f1f;
        stroke-miterlimit: 10;
      }

      .cls-3 {
        fill: #fac428;
      }

      .cls-3, .cls-4 {
        stroke-width: 0px;
      }

      .cls-4 {
        fill: #1e1e1c;
      }

      .cls-2 {
        fill: none;
        stroke-linecap: round;
        stroke-width: 1.4px;
      }
    </style>
  </defs>
  <rect class="cls-4" x=".05" y="47.1" width="54.9" height=".71"/>
  <g>
    <g>
      <rect class="cls-3" x="16.33" y="45.01" width="2.66" height="2.13"/>
      <rect class="cls-3" x="28.05" y="45.01" width="2.66" height="2.13"/>
    </g>
    <g>
      <path class="cls-4" d="M19.53,47.67h-3.73v-3.2h3.73v3.2ZM16.86,46.61h1.6v-1.07h-1.6v1.07Z"/>
      <path class="cls-4" d="M31.25,47.67h-3.73v-3.2h3.73v3.2h0ZM28.58,46.61h1.6v-1.07h-1.6v1.07Z"/>
    </g>
    <g>
      <rect class="cls-3" x="13.13" y="24.24" width="20.77" height="3.2"/>
      <path class="cls-4" d="M31.77,45.54H15.27c-1.47,0-2.67-1.2-2.67-2.67v-22.89c0-1.47,1.2-2.67,2.67-2.67h16.49c1.47,0,2.67,1.2,2.67,2.67v22.89c0,1.47-1.2,2.67-2.67,2.67ZM15.27,18.38c-.89,0-1.61.72-1.61,1.61v22.89c0,.89.72,1.61,1.61,1.61h16.49c.89,0,1.61-.72,1.61-1.61v-22.89c0-.89-.72-1.61-1.61-1.61H15.27Z"/>
      <path class="cls-4" d="M28.58,18.38h-10.12v-8.51c0-1.47,1.2-2.67,2.67-2.67h4.77c1.47,0,2.67,1.2,2.67,2.67v8.51h0ZM19.53,17.31h7.99v-7.45c0-.89-.72-1.61-1.61-1.61h-4.77c-.89,0-1.61.72-1.61,1.61v7.45h0Z"/>
      <g>
        <path class="cls-1" d="M33.81,42.81c-1.53-.74-8.3-4.68-7.84-16.27.03-.8.52-1.5,1.25-1.82,2.36-1,8.06-2.81,15.03.52.08.12,1.67,12.12-7.86,17.55-.18.1-.4.11-.58.02Z"/>
        <path class="cls-2" d="M30.35,33.96l3.2,2.45,4.43-6.62"/>
      </g>
    </g>
  </g>
</svg>