<?xml version="1.0" encoding="UTF-8"?>
<svg id="katman_1" data-name="katman 1" xmlns="http://www.w3.org/2000/svg" viewBox="0 0 95.95 89.31">
  <defs>
    <style>
      .cls-1 {
        fill: #fac428;
      }

      .cls-1, .cls-2 {
        stroke-width: 0px;
      }

      .cls-2 {
        fill: #1e1f1f;
      }
    </style>
  </defs>
  <path class="cls-2" d="M62.76,89.31h-29.3c-2.88,0-5.22-2.34-5.22-5.22V5.22c0-2.88,2.34-5.22,5.22-5.22h29.3c2.88,0,5.22,2.34,5.22,5.22v78.86c0,2.88-2.34,5.22-5.22,5.22ZM33.46,2.78c-1.35,0-2.45,1.1-2.45,2.45v78.86c0,1.35,1.1,2.45,2.45,2.45h29.3c1.35,0,2.45-1.1,2.45-2.45V5.22c0-1.35-1.1-2.45-2.45-2.45h-29.3Z"/>
  <path class="cls-2" d="M90.74,89.31h-29.3c-.77,0-1.39-.62-1.39-1.39s.62-1.39,1.39-1.39h29.3c1.35,0,2.44-1.1,2.44-2.46v-36.14c0-1.36-1.09-2.46-2.44-2.46h-24.15c-.77,0-1.39-.62-1.39-1.39s.62-1.39,1.39-1.39h24.15c2.88,0,5.22,2.35,5.22,5.24v36.14c0,2.88-2.34,5.23-5.22,5.23Z"/>
  <path class="cls-2" d="M34.54,89.31H5.23c-2.88,0-5.23-2.35-5.23-5.23v-23.71c0-2.88,2.35-5.21,5.23-5.21h24.38c.77,0,1.39.62,1.39,1.39s-.62,1.39-1.39,1.39H5.23c-1.36,0-2.46,1.09-2.46,2.44v23.71c0,1.36,1.1,2.46,2.46,2.46h29.3c.77,0,1.39.62,1.39,1.39s-.62,1.39-1.39,1.39Z"/>
  <rect class="cls-1" x="37.38" y="10.64" width="8.74" height="11.8" rx=".76" ry=".76"/>
  <rect class="cls-1" x="49.66" y="10.64" width="8.74" height="11.8" rx=".76" ry=".76"/>
  <rect class="cls-1" x="37.38" y="26.06" width="8.74" height="11.8" rx=".76" ry=".76"/>
  <rect class="cls-1" x="49.66" y="26.06" width="8.74" height="11.8" rx=".76" ry=".76"/>
  <rect class="cls-1" x="37.38" y="41.48" width="8.74" height="11.8" rx=".76" ry=".76"/>
  <rect class="cls-1" x="49.66" y="41.48" width="8.74" height="11.8" rx=".76" ry=".76"/>
  <rect class="cls-1" x="37.38" y="56.9" width="8.74" height="11.8" rx=".76" ry=".76"/>
  <rect class="cls-2" x="10.72" y="74.21" width="9.33" height="13.23" rx=".76" ry=".76"/>
  <rect class="cls-2" x="75.63" y="74.21" width="9.33" height="13.23" rx=".76" ry=".76"/>
  <rect class="cls-2" x="42.07" y="74.21" width="11.6" height="13.23" rx=".76" ry=".76"/>
  <rect class="cls-1" x="49.66" y="56.9" width="8.74" height="11.8" rx=".76" ry=".76"/>
</svg>